<svg xmlns="http://www.w3.org/2000/svg" viewBox="0 0 1412.29 373.06"><defs><style>.cls-1{fill:#720d32;}.cls-2{fill:#fdb082;}.cls-3{fill:#aa1d42;}.cls-4{fill:#f49667;}.cls-5{fill:#110f0e;}.cls-6{fill:#fc9977;}.cls-7{fill:#9e3a26;}.cls-16,.cls-8{fill:#fff;}.cls-9{fill:#c93f28;}.cls-10{fill:#ffdba1;}.cls-11{fill:#cc334d;}.cls-12{fill:#d84861;}.cls-13{fill:#a81e1e;}.cls-14{fill:#5f6840;}.cls-15{fill:#ff791f;}.cls-16{opacity:0.19;}.cls-17{fill:#841313;}.cls-18{fill:#95b256;}.cls-19{fill:#700e0e;}.cls-20{fill:#7657b2;}.cls-21{fill:#ce6a3e;}.cls-22{fill:#574582;}.cls-23{fill:#1a1635;}.cls-24{fill:#392c63;}.cls-25{fill:#271f49;}.cls-26{fill:#ff9522;}.cls-27{fill:#f26200;}.cls-28{fill:#ffeddc;}.cls-29{fill:#774630;}.cls-30{fill:#ef6b11;}.cls-31{fill:#ff8a33;}.cls-32{fill:#99b22f;}.cls-33{fill:#6d4930;}.cls-34{fill:#8e6244;}.cls-35{fill:#382c24;}.cls-36{fill:#5e3e28;}.cls-37{fill:#f29816;}.cls-38{fill:#728726;}.cls-39{fill:#859e3e;}.cls-40{fill:#c67100;}.cls-41{fill:#ffb54a;}.cls-42{fill:#859e3f;}</style></defs><g id="Layer_2" data-name="Layer 2"><g id="Layer_1-2" data-name="Layer 1"><path class="cls-1" d="M813.82,328.06s6.16,19.42,23.79,38.75h5.74s-3.61-21.88-3-29.74S813.82,328.06,813.82,328.06Z"/><path class="cls-1" d="M864.81,337.71s16.93,20.61,22.09,29.1h5.58s-3-34.13-5.79-42.88S864.81,337.71,864.81,337.71Z"/><path class="cls-2" d="M928,175.37a30.46,30.46,0,0,1,1.32-3.92,10.81,10.81,0,0,0,.79-3.83c0-.52.57-1.13,1.18-.09s.27,3.49.61,3.24,3.86-4.23,4.76-4.28.4,1.47-.47,2.59-2.43,3-1.8,2.6,3.41-3.1,4.15-3.29.94.81-.19,2.14-3,3.11-2.67,3,3.26-2.22,4.11-2.2.53,1.09-.63,2-2.83,2-2.48,1.91a25.16,25.16,0,0,1,3.59-.91c.42.07.46.9-.64,1.41s-2.4,1.07-2.75,1.3a10,10,0,0,1-4.67,2C930.85,179,928,175.37,928,175.37Z"/><path class="cls-1" d="M901.86,218.58s19.46-28.75,26.26-43.83c2.13.63,5,4.09,5,4.09s-3.73,42.65-22.52,70.48S901.86,218.58,901.86,218.58Z"/><path class="cls-2" d="M767.8,175.37a31.06,31.06,0,0,0-1.33-3.92,11,11,0,0,1-.79-3.83c0-.52-.56-1.13-1.18-.09s-.26,3.49-.61,3.24-3.86-4.23-4.75-4.28-.4,1.47.46,2.59,2.43,3,1.8,2.6-3.4-3.1-4.15-3.29-.93.81.19,2.14,3,3.11,2.68,3-3.27-2.22-4.12-2.2-.53,1.09.63,2,2.84,2,2.48,1.91a25,25,0,0,0-3.58-.91c-.43.07-.46.9.64,1.41s2.4,1.07,2.75,1.3a10,10,0,0,0,4.67,2C764.93,179,767.8,175.37,767.8,175.37Z"/><path class="cls-1" d="M793.91,218.58s-19.46-28.75-26.26-43.83c-2.12.63-5,4.09-5,4.09s3.73,42.65,22.52,70.48S793.91,218.58,793.91,218.58Z"/><path class="cls-3" d="M811.37,219.57a21.92,21.92,0,0,0-18.48,8.4c-7.33,9.56-3.27,22.53-3.6,22.79s-6.6,6.31-6.92,18.1,10.84,18,10.84,18a25.18,25.18,0,0,0-2.45,18.84c2.87,10.52,11.48,12.43,11.48,13.39a16,16,0,0,0,8.18,11.95c7.11,4.09,10.62,3.45,13,4.83s5.31,3.82,14.44,3.61,12-2.87,13.49-2.87,5.11,4.28,13.39,2.89,9.46-5,12.43-5.62,13.6-1.16,18.27-5.85,4.47-9.05,5.63-11.18,6.27-10.41,7-14.34a44.43,44.43,0,0,0,.42-11.15c-.21-3.61,4.25-10.73,4.67-16.26a113.88,113.88,0,0,0,.22-11.57c0-3,1.91-15.09-.43-21.15s-3.72-6.61-4.78-10.74,1.13-8.7-6.29-15.18-10.71-6.55-10.71-6.55Z"/><path class="cls-2" d="M849.27,143.15l-5.39,88.43s-47-2.38-48.16-37.58C794.47,156.89,820.64,141.4,849.27,143.15Z"/><path class="cls-2" d="M796.14,195.74s-3-4.88-8.16-4.1-4.83,9.9,2.42,14.56,8-2.14,8-2.14Z"/><path class="cls-4" d="M786.24,198.93s-1.07-4.09,2.89-3.57,5.16,4.38,4.18,4.8-1.84,1.45-1.31,2.48,1.63.17,1.88,1.23-1.74,1.13-3.06-.19-1.44-3.84-.38-4.89-.78-2.2-2.28-1.86S787.12,200.18,786.24,198.93Z"/><path class="cls-2" d="M849.27,143.15l-5.39,88.43s46.91,3.35,52.37-31.44C902,163.45,877.9,144.9,849.27,143.15Z"/><path class="cls-2" d="M895.62,201.81s3.62-4.48,8.59-3.08,3.6,10.41-4.16,14.16-7.63-3.09-7.63-3.09Z"/><path class="cls-4" d="M905.06,206.18s1.55-3.94-2.44-3.9-5.66,3.73-4.73,4.26,1.66,1.66,1,2.62-1.64,0-2,1,1.6,1.34,3.06.19,1.9-3.64,1-4.81,1-2.09,2.49-1.57S904,207.32,905.06,206.18Z"/><path class="cls-5" d="M822.55,197.38a4.25,4.25,0,1,0-4.5,4A4.25,4.25,0,0,0,822.55,197.38Z"/><path class="cls-5" d="M877.69,200.75a4.25,4.25,0,1,0-4.5,4A4.24,4.24,0,0,0,877.69,200.75Z"/><path class="cls-4" d="M840,204s.77-3.23,5.78-2.92c0-.8.1-1.67.1-1.67S840.5,198.73,840,204Z"/><path class="cls-4" d="M851.12,204.65s-.37-3.3-5.38-3.6c0-.8.1-1.67.1-1.67S851.23,199.38,851.12,204.65Z"/><path class="cls-2" d="M868.73,203.12s1.16-1.44,4.49-1.19a5.45,5.45,0,0,1,4.51,2.72,12.55,12.55,0,0,1-5.09.79A5.43,5.43,0,0,1,868.73,203.12Z"/><path class="cls-4" d="M868.57,202.86a6.13,6.13,0,0,1,5-1.16A8.13,8.13,0,0,1,878.5,205a10.69,10.69,0,0,0-5.08-2.5A9.62,9.62,0,0,0,868.57,202.86Z"/><path class="cls-2" d="M823,200.33s-1-1.57-4.31-1.73a5.45,5.45,0,0,0-4.82,2.15,12.55,12.55,0,0,0,5,1.41A5.44,5.44,0,0,0,823,200.33Z"/><path class="cls-4" d="M823.16,200.09a6.12,6.12,0,0,0-4.85-1.76,8.11,8.11,0,0,0-5.26,2.62,10.6,10.6,0,0,1,5.34-1.85A9.57,9.57,0,0,1,823.16,200.09Z"/><path class="cls-6" d="M880.29,212.36c-.26,4.36-4.42,7.66-9.28,7.36s-8.59-4.07-8.32-8.44,4.42-7.66,9.28-7.36S880.56,208,880.29,212.36Z"/><path class="cls-6" d="M827.67,209.15c-.26,4.36-4.42,7.66-9.28,7.36s-8.58-4.07-8.32-8.44,4.42-7.66,9.29-7.37S827.94,204.78,827.67,209.15Z"/><path class="cls-7" d="M845.28,208.68a36.44,36.44,0,0,1-10.91-2.54.37.37,0,0,0-.49.44A19,19,0,0,0,838,214.1a9.86,9.86,0,0,0,13.78.84,18.89,18.89,0,0,0,5-7,.37.37,0,0,0-.43-.5A36.42,36.42,0,0,1,845.28,208.68Z"/><path class="cls-8" d="M836.9,207.05s.23,2.37,1.29,3.23a8.82,8.82,0,0,0,4.88,1.14c1-.14,1.61-2.78,1.61-2.78A35.64,35.64,0,0,1,836.9,207.05Z"/><path class="cls-8" d="M853.78,208.08s-.51,2.33-1.67,3a8.83,8.83,0,0,1-5,.54c-1-.26-1.26-3-1.26-3A35.5,35.5,0,0,0,853.78,208.08Z"/><path class="cls-9" d="M840,215.5s1.84-1.59,3.28-1.54a3.48,3.48,0,0,1,2,.66,2.63,2.63,0,0,1,2.44-.57,5.82,5.82,0,0,1,2.77,1.63A9.37,9.37,0,0,1,840,215.5Z"/><path class="cls-10" d="M812.11,187.66a11,11,0,0,1,4.07-3.39c2.64-1.25,4.63-1.18,5.37-1.79s.19-2-1.62-1.82S812.89,183.16,812.11,187.66Z"/><path class="cls-10" d="M880.75,191.85a10.94,10.94,0,0,0-3.63-3.86c-2.46-1.56-4.45-1.74-5.11-2.43s0-2,1.83-1.61S880.52,187.29,880.75,191.85Z"/><path class="cls-10" d="M818.1,167.79s1.37,5.41-6,12-11.73,13.57-10.24,17.54,5.74,4.68,8,2.41c-1.22,3.05-10.57,10.08-17.37-4.38s5.69-24.65,5.69-24.65Z"/><path class="cls-10" d="M818.87,165.08a11.2,11.2,0,0,0,7.54,11.42c8.5,3.29,24.33-3.51,30,1.7s1.27,8.92-1.7,8.29c5.52,2.76,10.73-2.66,10-7.65s-7.79-7-7.79-7,8.42.42,9.8,6.48-1.91,7.86-1.91,7.86,9.46-1.39,9.35-6.43a12.32,12.32,0,0,0-3.62-8.23s5.8,2.33,7.69,7.43,2.73,10.64,7.3,16.37.5,13.83-3.51,12.53c7,3.93,15.51.61,16.26-9.52S904,169.59,866.67,158s-47.8,3.29-47.8,3.29Z"/><path class="cls-3" d="M903.43,156.32a9.93,9.93,0,0,1,3.89-6.93,8.19,8.19,0,0,0-2-.3,15.62,15.62,0,0,0,.73-2.76,8,8,0,0,1-7.55,2.12c-8.18-1.91-21.14-10.94-21.77-17a12.6,12.6,0,0,1,1.2-6.82,7,7,0,0,0-2.19,1.08,7.12,7.12,0,0,0-.5-3.31c-.5,3.1-1.5,6.53-3.51,7.56-3.94,2-28-2.13-29.74-6.27a14.45,14.45,0,0,1-.66-6.55A16.25,16.25,0,0,0,840,118.5a7,7,0,0,0-1.29-2.07c.41,3.29,0,6.63-2.59,8.33-6.16,4-21.67,6.8-26.35,1.92a19.77,19.77,0,0,1-4.44-8.31,11.7,11.7,0,0,0-1.93,9.25s7.64-.15,11.37,8.09-3.69,19.22-14.35,21.35a18.11,18.11,0,0,1-19.15-8.53,13.64,13.64,0,0,0,.67,2.05,14.14,14.14,0,0,0-1.34,1.45c2.58.4,5.54,1.79,8.14,5.39,6.16,8.56,3.29,19-6,22.05-.32.11-.63.18-.94.27.68.91,1.15,1.44,1.15,1.44l14.24,1.91,2.24-12.7,17.9-5.31L831,160.27l28.47,1.57,12,2.7s14.94,9.41,15.58,10.2,5.35,8.35,5.35,8.35l14.71-1.91a27.3,27.3,0,0,0,6.64-4.17C908.74,172.08,902.82,161.61,903.43,156.32Z"/><path class="cls-11" d="M800.38,157.06c10.66-2.13,18.07-13.11,14.35-21.35s-11.37-8.09-11.37-8.09-8.5-2.54-17.25,5.32a15.22,15.22,0,0,0-4.88,15.59A18.11,18.11,0,0,0,800.38,157.06Z"/><path class="cls-11" d="M788.7,157.42c-2.6-3.6-5.56-5-8.14-5.39A19.27,19.27,0,0,0,776,165.08c.31,6.45,3.95,12.1,5.86,14.66.31-.09.62-.16.94-.27C792,176.39,794.86,166,788.7,157.42Z"/><path class="cls-11" d="M836.08,124.76c2.6-1.7,3-5,2.59-8.33-3.56-4.17-12.89-7.72-24.61-3.88-4.5,1.47-7.17,3.61-8.77,5.82a19.77,19.77,0,0,0,4.44,8.31C814.41,131.56,829.92,128.8,836.08,124.76Z"/><path class="cls-11" d="M842,123.7c1.7,4.14,25.8,8.29,29.74,6.27,2-1,3-4.46,3.51-7.56-.92-2.43-3.38-5.66-9.82-7.74-10.74-3.46-18.63-2.48-24.09,2.48A14.45,14.45,0,0,0,842,123.7Z"/><path class="cls-11" d="M876.77,131.46c.63,6,13.59,15.08,21.77,17a8,8,0,0,0,7.55-2.12c.73-4.17.59-12.15-9.27-17.64s-15.91-5-18.85-4A12.6,12.6,0,0,0,876.77,131.46Z"/><path class="cls-11" d="M918.52,161.84c-3.14-9.13-8.37-11.71-11.2-12.45a9.93,9.93,0,0,0-3.89,6.93c-.61,5.29,5.31,15.76,10.34,20.69C917.47,173.81,920.91,168.78,918.52,161.84Z"/><path class="cls-12" d="M843.39,366.52s.56,2.79,0,3.19-1.75.08-2.95.8-6.05,3.19-8.52,2.39,4.22-5,4.7-5.26-2.71-2.95-.16-2.71S840,367,843.39,366.52Z"/><path class="cls-12" d="M886.6,366.52s-.56,2.79,0,3.19,1.75.08,2.95.8,6.05,3.19,8.52,2.39-4.22-5-4.7-5.26,2.71-2.95.16-2.71S889.94,367,886.6,366.52Z"/><path class="cls-12" d="M790,156.32s-2.11,10.67,4.9,16.09,13-.16,18.93-1.12,10.08-3.18,10.08-12.11S820.5,142,813.05,142.29,789.49,146.82,790,156.32Z"/><path class="cls-12" d="M825.46,151s-1.07-8.92,3.82-12.11,16.28-.63,21.85,0,11.08,0,13.42,8.71-.85,17-6.59,18.49-10.54.21-17.17,0S827.16,165.45,825.46,151Z"/><path class="cls-12" d="M867.1,152.06s-3.83,10.78.21,14.74,8.34,5.18,12.33,7.95,12.72,6.21,17.18-4,4.06-14.44-9.54-23.58S866.87,145.48,867.1,152.06Z"/><path class="cls-1" d="M818.87,132.63s9.45-1.08,12.75-2.13,6.8-3,10.09-2.23,14.77,4.46,18.91,4.36,10.29.21,11.15,1.27,8.34,4.25,5.93,5.52-8.26,1.17-10.71,1.7-5.45-3.5-19.83-5.2-18.36,1.32-24.6,1.4S815.47,132.41,818.87,132.63Z"/><path class="cls-12" d="M792.66,231.24s.65-6.24,10.86-9.07,22.62,2,23.59,7.55,2.2,18.62-5.36,22.19S809.2,253.7,800,254.14,788.13,241.5,792.66,231.24Z"/><path class="cls-12" d="M830.53,234.62s-1.52,9.69,1.29,14.09,12.53,9.16,20.79,7.49,15.4-6.15,16.81-10.62,2.81-19.1-5.5-21.19-12.77-.44-17.75-.66S830.62,224.54,830.53,234.62Z"/><path class="cls-12" d="M871.93,233.92s-1.07,6.26,2.76,10.3,12.72,7,17.73,6.48,13.17-4.78,14.71-11.26-3.33-17.95-7.8-20.61-7.57-.53-12.6,0S871.61,221.06,871.93,233.92Z"/><path class="cls-12" d="M829,254.92c.56.06,7.49.24,12.91,2.71s8.53,6.22,8.92,12.35-7,13.23-17.68,16-20.72-1.44-23.11-6.38-4.06-11.31-1.35-15.69S820.51,254.13,829,254.92Z"/><path class="cls-12" d="M790.5,255.56a14.39,14.39,0,0,1,8,2.23c3.58,2.47,6.37,2.55,7.25,6.3s-.48,8.76.64,12,1.51,6.13-5.9,6.05S788,279.46,786,271.26,786.62,255.88,790.5,255.56Z"/><path class="cls-12" d="M854.5,264s-2,6.48-.53,10.94,7.76,7.44,18.81,6.8,14.86-4.68,16.83-12.86-1.43-14.65-8-16.88-11.47-.85-14.76,1.16S855.57,256.65,854.5,264Z"/><path class="cls-12" d="M892.11,260.16s.42,5.52.32,8.7-2.23,6.27,1.17,8.08,13.06,4.42,17-6.07-1.06-22.93-3.61-23.68-4.46,2-7.54,3.64S891.79,253.88,892.11,260.16Z"/><path class="cls-12" d="M852,283.31s8.29-.82,14.45,3.58,4,12.15,3.93,15.65-.53,9.56-16.25,10.1-19.44-2.45-20.61-6.91-3-9.77,0-13.7S845,282.84,852,283.31Z"/><path class="cls-12" d="M807,285.44a23.71,23.71,0,0,1,9.76,3.29c5.31,3.08,9.56,3.51,11.37,8.61s1.91,10.41-1,14.34-13.38,5.84-21.14,2.65-14.24-8.18-13.92-17.52S799.07,284.38,807,285.44Z"/><path class="cls-12" d="M875.32,288.41a20.46,20.46,0,0,0-2.23,12.86c1.07,7.65,6.91,9.56,12.54,8.71s5.84-4.14,12.54-5.31,10.51-12.54,7.75-18.7-13-7.86-19.44-6.06S875.32,288.41,875.32,288.41Z"/><path class="cls-12" d="M818.73,322.83s1.78,7.63,8.14,10.91,17.46,1,20-1.6,3.55-12.67.59-15.57-11.75-2.73-14-3.88-5.39,3.12-8,4.26S818.67,318.63,818.73,322.83Z"/><path class="cls-12" d="M852.38,322.65s-.88,6.29,1,8.76,13.79,3.75,17.93.8,10.68-8.85,8.85-13.79-7-7.8-10.28-7.25-6.46,2-10,2.71S852.58,318.91,852.38,322.65Z"/><path class="cls-12" d="M882.66,316.43a26.55,26.55,0,0,1-.72,5.34c-.64,2.31-2.55,4.3-.88,5.82s12.43-.56,16.49-7.33,2.24-11.64.64-12.67-6.69,1.41-8.76,2.58S882.58,312,882.66,316.43Z"/><path class="cls-12" d="M804.2,317.1a14.53,14.53,0,0,0,3,9.24c3.4,4.3,9.19,5.52,10.68,4.25s-.22-5.79-1-7.76a9.37,9.37,0,0,0-5.85-5.47C807.49,316,804.63,315.24,804.2,317.1Z"/><path class="cls-10" d="M786.7,192.23s-3.14,3.39-3.51,6.5,2.46,8.46,2.46,8.46-1.7-.58-2.58,2,2.58,5.9,2.58,5.9-2.18,1.19-2.58,5.24,3.63,7.43,3.63,7.43-2.92,1-1.05,4.89,7.6,6.48,7.6,6.48-2.59-1.29-1.48,1.3,5.48,4.58,6.45,4.8a20.65,20.65,0,0,0,3.76,0s3.12-3.88,2.32-6.61-2.67-1.67-2.67-1.67,1.68-3.65-.42-6.49-3.74-1.05-3.74-1.05,3.51-4.78,2-8.43-3.48-4.05-3.48-4.05,2.59-5.27,2.18-7.74-4-2.87-4-2.87,4.27-3.34,3-8.65-4.78-5.8-4.78-5.8Z"/><path class="cls-10" d="M906.8,192.23s3.14,3.39,3.51,6.5-2.46,8.46-2.46,8.46,1.7-.58,2.58,2-2.58,5.9-2.58,5.9,2.18,1.19,2.58,5.24-3.63,7.43-3.63,7.43,2.92,1,1.05,4.89-7.6,6.48-7.6,6.48,2.59-1.29,1.48,1.3-5.48,4.58-6.45,4.8a20.66,20.66,0,0,1-3.76,0s-3.12-3.88-2.32-6.61,2.67-1.67,2.67-1.67-1.68-3.65.42-6.49,3.74-1.05,3.74-1.05-3.51-4.78-2-8.43,3.49-4.05,3.49-4.05-2.6-5.27-2.19-7.74,4-2.87,4-2.87-4.27-3.34-3-8.65,4.78-5.8,4.78-5.8Z"/><path class="cls-12" d="M789.71,167.63a24.62,24.62,0,0,0,4.2,7.12c3.07,3.72,5.31,4.72,5.52,8.12s-2,7-2.13,10-.07,5-5.88,4.25-12.28-3.69-12.28-9.82.74-6.55.53-11.54S784.14,160.25,789.71,167.63Z"/><path class="cls-12" d="M898.81,169.46a50.11,50.11,0,0,1-3.43,6.62c-1.67,2.46-4.22,7.94-3.74,11.22s1.67,5.91,1.67,8.94.64,6.21,5.5,4.61,13.07.4,14.34-7.09-2.87-13-3.5-16.14S905.34,160.46,898.81,169.46Z"/><path class="cls-10" d="M891.64,244.3s-3.4,3.94-3.89,7,2.11,8.12,2.76,10.63a9.92,9.92,0,0,1,.08,4.62s6.16-3.73,6.64-9.8-3.64-11.57-3.64-11.57Z"/><path class="cls-10" d="M800.94,244.3s3.4,3.94,3.89,7-2.11,8.12-2.76,10.63a10.08,10.08,0,0,0-.08,4.62s-6.16-3.73-6.64-9.8S799,245.21,799,245.21Z"/><path class="cls-13" d="M158.1,211.35S179.81,219,194,258.71s15,108.14,15,108.14h-6.38s-20.23-41.11-53.38-34.9c-25.15,4.72-38,34.9-38,34.9l-6.16.74s-10.6-69-1.79-105.77,27.05-44.9,27.05-44.9Z"/><path class="cls-14" d="M101.75,119.27s-1-12.9-23.77-37.76S45.26,51,41.43,49.88s-4.67-.42-6.37-2.35-5.53-8.68-2.55-8.6,14.23,6,17,9.2,24.64,20,39.94,39.75,19.35,31.39,19.35,31.39Z"/><path class="cls-2" d="M214.59,205a30.94,30.94,0,0,1-3.28-2.51,11,11,0,0,0-3.37-2c-.5-.16-.89-.9.29-1.15s3.4.87,3.26.47-2.75-5-2.51-5.88,1.51.09,2.29,1.27,2.09,3.27,1.89,2.54-1.84-4.22-1.77-5,1.06-.63,2,.87,2,3.83,2,3.49-1.05-3.81-.76-4.6,1.2-.15,1.65,1.22,1,3.33,1,3a27.08,27.08,0,0,1,.29-3.68c.2-.38,1-.15,1.13,1.06s.24,2.62.35,3,1,3.05.36,5.05C219,203.44,214.59,205,214.59,205Z"/><path class="cls-2" d="M123.89,131.52l17.51,86.85s-46,9.76-56.2-24C74.46,158.87,95.77,137.19,123.89,131.52Z"/><path class="cls-2" d="M86.06,196s-4.2-3.93-8.94-1.87S75,204.94,83.19,207.58s7.13-4.11,7.13-4.11Z"/><path class="cls-4" d="M77.31,201.62s-2.09-3.68,1.87-4.2,6.12,2.92,5.28,3.57-1.42,1.87-.63,2.73,1.61-.24,2.13.71-1.4,1.54-3,.61-2.38-3.34-1.62-4.63-1.32-1.93-2.68-1.21S78.48,202.61,77.31,201.62Z"/><path class="cls-2" d="M123.89,131.52l17.51,86.85s46.2-8.82,42.53-43.85C180.06,137.59,152,125.85,123.89,131.52Z"/><path class="cls-2" d="M183.75,173s2.35-1.93,7.52-1.87,6.15,9.15-.39,14.76-8.17-1-8.17-1Z"/><path class="cls-4" d="M194,178.1s.49-4.2-3.36-3.14-4.51,5-3.48,5.33,2,1.18,1.64,2.27-1.59.4-1.69,1.48,1.88.88,3-.61.9-4-.29-4.89.47-2.29,2-2.16S193.29,179.46,194,178.1Z"/><path class="cls-5" d="M112,190.8a4.25,4.25,0,1,0-3.33,5A4.26,4.26,0,0,0,112,190.8Z"/><path class="cls-5" d="M166.15,179.88a4.25,4.25,0,1,0-3.33,5A4.25,4.25,0,0,0,166.15,179.88Z"/><path class="cls-4" d="M130.52,192.68s-.09-3.31,4.83-4.3c-.16-.78-.33-1.64-.33-1.64S129.69,187.49,130.52,192.68Z"/><path class="cls-4" d="M141.48,190.47s-1.21-3.08-6.13-2.09c-.16-.78-.33-1.64-.33-1.64S140.23,185.36,141.48,190.47Z"/><path class="cls-2" d="M158.1,184.48s.76-1.7,4-2.31a5.48,5.48,0,0,1,5.07,1.47,12.6,12.6,0,0,1-4.72,2.08A5.47,5.47,0,0,1,158.1,184.48Z"/><path class="cls-4" d="M157.88,184.26a6.12,6.12,0,0,1,4.55-2.4,8.08,8.08,0,0,1,5.58,1.87,10.64,10.64,0,0,0-5.54-1.1A9.55,9.55,0,0,0,157.88,184.26Z"/><path class="cls-2" d="M113.16,193.54s-1.35-1.27-4.61-.57a5.47,5.47,0,0,0-4.1,3.32,12.58,12.58,0,0,0,5.15.09A5.45,5.45,0,0,0,113.16,193.54Z"/><path class="cls-4" d="M113.28,193.26a6.12,6.12,0,0,0-5.13-.46,8.08,8.08,0,0,0-4.42,3.89,10.61,10.61,0,0,1,4.69-3.17A9.53,9.53,0,0,1,113.28,193.26Z"/><path class="cls-6" d="M171.65,190.43c.86,4.29-2.31,8.54-7.08,9.51s-9.34-1.74-10.21-6,2.31-8.55,7.08-9.51S170.78,186.14,171.65,190.43Z"/><path class="cls-6" d="M120,200.85c.87,4.28-2.3,8.54-7.08,9.5s-9.34-1.73-10.2-6,2.3-8.54,7.07-9.5S119.11,196.56,120,200.85Z"/><path class="cls-15" d="M99.41,184.08a11.09,11.09,0,0,1,3.06-4.32c2.23-1.89,4.17-2.33,4.73-3.11s-.32-1.94-2-1.34S99,179.53,99.41,184.08Z"/><path class="cls-15" d="M166.83,170.49a11,11,0,0,0-4.5-2.79c-2.79-.88-4.75-.54-5.57-1s-.46-1.91,1.36-2S165.43,166.15,166.83,170.49Z"/><path class="cls-9" d="M139.33,199.82c-.29.1-.6.19-.91.28-9.17,2.63-13.86-1.63-14-1.81a.63.63,0,0,1,0-.9.64.64,0,0,1,.9,0c.18.16,4.39,3.93,12.83,1.51s10.58-7.59,10.6-7.65a.63.63,0,0,1,.82-.36.64.64,0,0,1,.37.82C149.77,191.91,147.7,197.1,139.33,199.82Z"/><path class="cls-13" d="M79.23,205.57s4.7-36.28,51.2-45.16,65,19.2,65,19.2,17.95-58.37-23.16-73.67-57.43,7.54-67.86,12.32-35.93,2.84-44.85,33S69.87,199.5,79.23,205.57Z"/><path class="cls-16" d="M155.31,104.67s17,3.82,27.4,17.63,1.71,21.89-6.79,20.4-17.42-16.15-30.59-20.82-11-15.3-4.2-17.21S155.31,104.67,155.31,104.67Z"/><path class="cls-15" d="M108.8,168.62s10.55,5.72,14.62,6.52,10.51,1.33,10.51,1.33l-7.41-5.14a78.13,78.13,0,0,0,10,2.47c3.43.4,10.44.47,10.44.47a63.73,63.73,0,0,1-8.28-2.54,97.61,97.61,0,0,1-8.93-4.86A79.46,79.46,0,0,0,141,168.3c5.57.24,13-3.11,13-3.11l-5.18-1.35,5.47-2S133.23,157.07,108.8,168.62Z"/><path class="cls-17" d="M79.23,205.57s6.94-33.81,50.48-42.53c40.69-8.15,65.76,16.57,65.76,16.57s-16.41-32.18-67.14-23.1S79.23,205.57,79.23,205.57Z"/><path class="cls-15" d="M172.94,166.24s6,8.42,13.42,8.9,9.88-6.48,9.88-6.48a11.61,11.61,0,0,1-7.65,1.83C183.73,170.13,172.94,166.24,172.94,166.24Z"/><path class="cls-15" d="M94.71,180.23s-.37,11.62-6.75,16.46-14.74.68-14.74.68,6.85-1,10-4.61a9.66,9.66,0,0,1-6.93-.59S85.36,189.69,94.71,180.23Z"/><path class="cls-18" d="M53,57.13S48.16,63.45,31.41,70,3.4,98.5,0,116.56c8.92-2.76,31.66-3.18,40.79-18.27S54.67,58.48,54.67,58.48Z"/><path class="cls-13" d="M167.2,217s15.36,13.92,34.64,13.76,15.52-20.12,11.69-25.2a39.72,39.72,0,0,1,6.69-4.13s12.91,15.3,9.41,34.27-29.29,24.38-40.54,16.89S167.55,223.66,167.2,217Z"/><path class="cls-16" d="M171.62,234.27s10.2,20.24,15.46,39.2-6.53,23.59-13.07,23.59-12.91-20.72-15.61-40.48-3.35-27.09,1.43-29.8S168.26,227.18,171.62,234.27Z"/><path class="cls-17" d="M213.68,205s2.22-1.68,4-2.85,2.76-1.11,3.15-.69a19.68,19.68,0,0,1,2.22,3.72c0,.32-2.58.72-4.5,2.16a26.64,26.64,0,0,1-3.12,2.31c-.45.15-2.22-3.21-2.22-3.87S213.68,205,213.68,205Z"/><path class="cls-2" d="M65.54,236a30.2,30.2,0,0,0,1.88-3.68,11,11,0,0,1,2.2-3.24c.38-.35.41-1.19-.76-.91s-2.69,2.25-2.75,1.83.34-5.71-.25-6.39-1.33.73-1.53,2.13-.47,3.85-.61,3.11-.16-4.6-.54-5.27-1.23-.1-1.4,1.63-.14,4.32-.28,4-.69-3.89-1.3-4.48-1.14.38-1,1.81.55,3.43.36,3.11a25.73,25.73,0,0,0-1.85-3.2c-.34-.26-1,.3-.56,1.44s.9,2.47,1,2.88.45,3.17,1.85,4.72C60.93,236.5,65.54,236,65.54,236Z"/><path class="cls-13" d="M118.6,227.55s-12.89,13.51-24.4,22.28a19.83,19.83,0,0,1-7.66,3.73c-14.62,3.22-20.94-11.83-19.79-17.47a39.83,39.83,0,0,0-7.82-.86s-5.08,19.37,6.24,35S102.09,279.64,109,268,121.14,233.71,118.6,227.55Z"/><path class="cls-17" d="M66.36,235.62s-2.73-.56-4.88-.83-3,.18-3.14.72a20.12,20.12,0,0,0-.41,4.32c.18.27,2.64-.46,5,0a17.64,17.64,0,0,0,4.24.5c.47-.06.19-3.61-.09-4.21S66.36,235.62,66.36,235.62Z"/><path class="cls-17" d="M123.48,222.1s-1.42,27.48,2.41,31.46,37.67,2.06,40.35-2.72S162,213.32,162,213.32L167.2,217s9.36,37.23,14.25,49.13S201.57,288,201.57,288l2.7,16.68-104.08,9.91s-2-14.88-.22-21.89c7.54-10.62,14.13-26.22,16.89-39.14A177.27,177.27,0,0,0,120,225.81Z"/><path class="cls-17" d="M201.57,288a321.74,321.74,0,0,1,5.59,36.86c2.15,21.91,1.91,41.59,1.91,41.59l-5.9,1.14-.48-.74S182.3,330.6,155.45,332s-44.12,34.82-44.12,34.82l-1.86.74-4.62-1.77S95.61,326,99.51,295.2C121,294.51,201.57,288,201.57,288Z"/><path class="cls-18" d="M111.53,366.52s.56,2.79,0,3.19-1.75.08-2.94.8-6.06,3.19-8.53,2.39,4.22-5,4.7-5.26-2.71-2.95-.16-2.71S108.19,367,111.53,366.52Z"/><path class="cls-18" d="M202.6,366.52s-.56,2.79,0,3.19,1.75.08,3,.8,6,3.19,8.52,2.39-4.22-5-4.7-5.26,2.71-2.95.16-2.71S205.94,367,202.6,366.52Z"/><path class="cls-19" d="M125.36,265.29s-2.77,14.24,0,18.06,41.22,1.28,44.83-.85-.22-21.88-1.49-22.94S124.93,258.71,125.36,265.29Z"/><path class="cls-19" d="M116.49,296.1s.55,10.92-4.86,18.49S98.88,323,98.88,323l.15,2.38s8.8-2.18,13.74-8.79,5.75-19.15,5.15-20.77S116.48,294.42,116.49,296.1Z"/><path class="cls-19" d="M185.3,290.79s.91,10.9,7.29,17.67S206.06,315,206.06,315l.3,2.47s-8.85-1.06-14.63-7-8.27-18.2-7.89-19.89S185.08,289.12,185.3,290.79Z"/><polygon class="cls-19" points="150.11 282.24 154.47 332.11 154.95 332.06 151.38 282.24 150.11 282.24"/><path class="cls-20" d="M392.15,306.27s.42,15.26-7,29.66-28.63,31.54-28.63,31.54l-5.87-1s12.54-25.06-4.5-34.23c-10-5.38-27.45-.27-38.1-.56s-21.78-10.59-21.78-10.59l2.33-4.58s12.18,1.12,16.26-2.48c6.89-6.09,5.25-22,14.08-37.91S392.15,306.27,392.15,306.27Z"/><path class="cls-21" d="M315.38,185.62a16.54,16.54,0,0,0-14.19-9.37c-10.36-.39-13.23,3.59-18.8,3.91s-8.45-1.9-8.45-1.9,1.12,8,11.53,12.51,18.38,1.55,22.84,1.07,7-.75,7-.75Z"/><path class="cls-21" d="M418.89,191.88a16.53,16.53,0,0,1,16.36-4.63c10,2.75,11.53,7.42,16.75,9.41s8.62.73,8.62.73-3.48,7.28-14.77,8.45-18-4.08-22.09-5.88l-6.41-2.82Z"/><path class="cls-22" d="M392.39,223.16s7.28,4.36,16.84,27.45,16.54,74.08,16.54,74.08a51.71,51.71,0,0,1-27.21,8.65c-15.78.27-21.83-8-32.35-10.56s-27.09,4.14-42.71-7.65S305,290.91,299,287.4s-14-3.56-16.57-13.57c5.1-2,47.14-43,71.69-53.91S392.39,223.16,392.39,223.16Z"/><path class="cls-22" d="M383.56,216.12s16.34,8.42,20.92,30.37-3.27,47.13-3.27,47.13-13.19,4.78-36.14,1.59-38.57-20.94-38.57-20.94,4.24-35.2,17.27-46.81,19.39-11.34,19.39-11.34Z"/><path class="cls-23" d="M368.2,106.62c0-.4-.08-2.31-4.7-2.79s-8.21-4.46-8.21-4.46a15.18,15.18,0,0,1-.72,5.74,49.29,49.29,0,0,0-1.88,7.34,20.88,20.88,0,0,1-2.74-5.19,12,12,0,0,1-.48-6s-5.41,5.66-6.45,9.92,0,5.58,0,5.58,30.27-3.79,30.07-4Z"/><path class="cls-2" d="M283.78,202.08a30.94,30.94,0,0,0-.48-4.11,11,11,0,0,1,0-3.91c.12-.5-.31-1.22-1.13-.33s-1,3.36-1.28,3-2.89-4.94-3.75-5.18-.7,1.35-.09,2.63,1.74,3.46,1.22,2.92-2.69-3.74-3.38-4.08-1.08.59-.25,2.13,2.27,3.67,2,3.49-2.73-2.85-3.56-3-.75,1,.2,2.05,2.36,2.54,2,2.38a26.81,26.81,0,0,0-3.31-1.64c-.43,0-.64.79.33,1.52s2.12,1.54,2.41,1.85,2.13,2.38,4.16,2.89C280.21,205.05,283.78,202.08,283.78,202.08Z"/><path class="cls-2" d="M460.62,211.72a30.29,30.29,0,0,1,2.13-3.54,11,11,0,0,0,1.59-3.57c.09-.51.79-1,1.17.15s-.48,3.48-.09,3.3,4.67-3.31,5.55-3.17.08,1.52-1,2.43-3,2.44-2.32,2.16,4-2.3,4.76-2.32.74,1-.64,2.05-3.59,2.4-3.25,2.36,3.66-1.48,4.48-1.28.29,1.18-1,1.78-3.2,1.35-2.83,1.34a26.61,26.61,0,0,1,3.69-.13c.4.16.26,1-.93,1.25s-2.57.53-3,.69-2.92,1.29-5,.92C462.65,215.9,460.62,211.72,460.62,211.72Z"/><path class="cls-2" d="M366.37,132.79,374.2,221s46.89-3.68,47.1-38.9C421.52,145,394.94,130.25,366.37,132.79Z"/><path class="cls-2" d="M420.93,183.89s2.91-5,8-4.33,5.11,9.77-2,14.63-8-1.92-8-1.92Z"/><path class="cls-4" d="M430.92,186.81s.95-4.13-3-3.5-5,4.53-4.05,4.92,1.89,1.39,1.38,2.44-1.62.22-1.85,1.28,1.78,1.08,3.06-.27,1.33-3.88.24-4.9.73-2.22,2.23-1.92S430.07,188.08,430.92,186.81Z"/><path class="cls-2" d="M366.37,132.79,374.2,221s-46.8,4.64-53.21-30C314.22,154.54,337.79,135.33,366.37,132.79Z"/><path class="cls-2" d="M321.66,192.71s-3.74-4.38-8.68-2.85-3.3,10.52,4.56,14,7.54-3.3,7.54-3.3Z"/><path class="cls-4" d="M312.35,197.34s-1.67-3.89,2.32-4,5.76,3.57,4.85,4.13-1.61,1.7-.92,2.64,1.63-.06,2,.94-1.56,1.38-3.06.27-2-3.58-1.1-4.78-1.1-2.06-2.53-1.49S313.4,198.44,312.35,197.34Z"/><path class="cls-5" d="M394.58,186.26a4.25,4.25,0,1,1,4.61,3.86A4.25,4.25,0,0,1,394.58,186.26Z"/><path class="cls-5" d="M339.55,191.15a4.25,4.25,0,1,1,4.61,3.85A4.26,4.26,0,0,1,339.55,191.15Z"/><path class="cls-4" d="M377.36,193.32s-.86-3.2-5.86-2.76c-.07-.79-.15-1.66-.15-1.66S376.68,188.1,377.36,193.32Z"/><path class="cls-4" d="M366.22,194.31s.28-3.3,5.28-3.75c-.07-.79-.15-1.66-.15-1.66S366,189.06,366.22,194.31Z"/><path class="cls-2" d="M348.58,193.28s-1.21-1.42-4.52-1.07a5.45,5.45,0,0,0-4.44,2.84,12.36,12.36,0,0,0,5.11.65A5.46,5.46,0,0,0,348.58,193.28Z"/><path class="cls-4" d="M348.73,193a6.13,6.13,0,0,0-5.05-1,8.08,8.08,0,0,0-4.82,3.38,10.68,10.68,0,0,1,5-2.63A9.57,9.57,0,0,1,348.73,193Z"/><path class="cls-2" d="M394.24,189.22s.94-1.6,4.26-1.85a5.47,5.47,0,0,1,4.88,2,12.54,12.54,0,0,1-4.92,1.54A5.45,5.45,0,0,1,394.24,189.22Z"/><path class="cls-4" d="M394.05,189a6.11,6.11,0,0,1,4.79-1.89,8.11,8.11,0,0,1,5.34,2.48,10.68,10.68,0,0,0-5.39-1.71A9.51,9.51,0,0,0,394.05,189Z"/><path class="cls-6" d="M337.27,202.83c.39,4.35,4.64,7.53,9.49,7.1s8.47-4.31,8.08-8.66-4.63-7.54-9.48-7.11S336.89,198.47,337.27,202.83Z"/><path class="cls-6" d="M389.78,198.16c.39,4.36,4.63,7.54,9.48,7.11s8.47-4.31,8.09-8.67-4.64-7.54-9.49-7.11S389.39,193.81,389.78,198.16Z"/><path class="cls-7" d="M372.17,198.18A36.33,36.33,0,0,0,383,195.34a.37.37,0,0,1,.5.43,18.73,18.73,0,0,1-3.93,7.63,9.86,9.86,0,0,1-13.75,1.22,18.81,18.81,0,0,1-5.22-6.82.37.37,0,0,1,.41-.51A36.42,36.42,0,0,0,372.17,198.18Z"/><path class="cls-8" d="M380.5,196.32s-.16,2.38-1.2,3.27a8.89,8.89,0,0,1-4.85,1.27c-1-.11-1.68-2.74-1.68-2.74A35.46,35.46,0,0,0,380.5,196.32Z"/><path class="cls-8" d="M363.65,197.82s.58,2.31,1.76,3a8.78,8.78,0,0,0,5,.4c1-.29,1.18-3,1.18-3A35.34,35.34,0,0,1,363.65,197.82Z"/><path class="cls-9" d="M377.61,204.86s-1.89-1.54-3.33-1.45a3.39,3.39,0,0,0-2,.71,2.63,2.63,0,0,0-2.45-.5,5.82,5.82,0,0,0-2.72,1.71,9.79,9.79,0,0,0,5.52,1.35A10,10,0,0,0,377.61,204.86Z"/><path class="cls-21" d="M404.75,176.25a11,11,0,0,0-4.17-3.27c-2.67-1.18-4.66-1-5.41-1.64s-.25-2,1.57-1.86S403.84,171.78,404.75,176.25Z"/><path class="cls-21" d="M336.24,182.34a11,11,0,0,1,3.53-4c2.42-1.63,4.4-1.86,5-2.57s-.1-2-1.87-1.55S336.35,177.77,336.24,182.34Z"/><path class="cls-23" d="M350.68,366.52s-.56,2.79,0,3.19,1.76.08,2.95.8,6.06,3.19,8.53,2.39-4.23-5-4.71-5.26,2.71-2.95.16-2.71S354,367,350.68,366.52Z"/><path class="cls-23" d="M289.28,316.61s-2.28-1.7-2.88-1.37-.82,1.55-2,2.33-5.47,4.11-5.81,6.68,6.35-1.67,6.77-2,1.5,3.71,2.38,1.3S287.42,319.43,289.28,316.61Z"/><path class="cls-22" d="M425.77,179.9a57.82,57.82,0,0,0-13.7-52.78c-22.28-24.56-118-28.75-97.87,62.42,7.07-14,26.5-38,58.57-37.71C410.51,152.17,425.77,179.9,425.77,179.9Z"/><path class="cls-24" d="M368.85,148.06c-41.14,1.59-52.72,31.53-54.41,41.49a1.85,1.85,0,0,0-.24,0c-.05-6.14,9.49-42,54.65-43.8s56.27,28.14,56.92,34.16c-.12.06-.28.16-.42.25C422.94,171.26,410.11,146.45,368.85,148.06Z"/><path class="cls-20" d="M367.13,155.57c-46.53,4.78-45.47,37.14-45.47,37.14s-3.24-3.3-7.22-3.16c1.69-10,13.27-39.9,54.41-41.49s54.09,23.2,56.5,32.09a32.89,32.89,0,0,0-4.42,3.74S413.66,150.79,367.13,155.57Z"/><path class="cls-25" d="M378.12,112.64s1.15,2.19-13.67,5.53-26.4,4.37-24.83-.37,18.94-6.43,27-6.59S378.15,112.32,378.12,112.64Z"/><path class="cls-24" d="M378.12,112.64a4.63,4.63,0,0,0-1.64-5c-2.63-2-4.22-2.47-5.65-3.5a12.57,12.57,0,0,1-2.63-2.87,19.92,19.92,0,0,0-1.83,5.34c-.64,3.19,3.62,10.16,3.62,10.16S376.73,116,378.12,112.64Z"/><path class="cls-24" d="M339.62,117.8s0-1.06,1.57-5.44,0-7.25,0-7.25,2.95,1.35,4.14,3.42.08,5.2.8,7.58,5.17,4.48,5.17,4.48S337.86,123.83,339.62,117.8Z"/><path class="cls-24" d="M351.3,120.59a8.33,8.33,0,0,1,2.08-7c2.95-3.51,5.81-5.58,6.13-9.32,1.52,2.63,2.55,5.49,5.18,6.89s4.86,4,5.3,5.58C363.82,119.45,353.76,120.45,351.3,120.59Z"/><path class="cls-16" d="M332.32,126.14s-8.8,9.45-11.63,20.08,9.4,6.9,14.6,3.4S344.11,128,341.45,125,333.64,124.61,332.32,126.14Z"/><path class="cls-22" d="M390.21,221A55.53,55.53,0,0,0,431,224.49c22.94-6.85,29.2-14.11,29.2-14.11l5.31,8.13s-15.91,21-34.51,28.09-25.54,6.4-25.54,6.4S387.34,231.27,390.21,221Z"/><path class="cls-22" d="M352.83,220.44a67.74,67.74,0,0,1-38.47.16c-20.73-6.16-29-21-29-21l-7.64,6s6.44,19.36,20.61,27.9a60.32,60.32,0,0,0,27.51,8.71S348.66,233.61,352.83,220.44Z"/><path class="cls-21" d="M408,164.81a84.22,84.22,0,0,1,5.57,21.07c1.6,12.13-5.57,29.18-5.57,29.18s12.56-11,13-31.17C419,175.06,412,166.35,408,164.81Z"/><path class="cls-21" d="M381.15,155.28s-9.18,8.54-20.59,12.33-18.11,3.08-24.32,9.41c.8-5.31,6.11-10.87,6.11-10.87s-6.9,6.17-9.93,13.36-.79,16.49-5.26,27.21S316.35,220,316.35,220s4.76-6.6,6-13.14-1.13-14.54-1.13-14.54-2.55-19.76,21.1-30.91S381.15,155.28,381.15,155.28Z"/><path class="cls-24" d="M425.11,320.14s-13,7.31-23.32,8.38-20.07-9.14-34.2-11.48-21.57,4.15-35.38-2.87-21.88-25.28-27.41-29.32-10.3-4.35-14.34-7.22-5.12-5.8-5.12-5.8l-5.61,3.57s2,5.42,6.57,8.18,9.58,2.63,14.25,6.8,10.31,20.29,25,27.72,31.63,4,39.62,5.63,15.3,8.72,28.37,10.52,27.41-3.08,32.72-7.86C425.68,324,425.11,320.14,425.11,320.14Z"/><path class="cls-24" d="M391.31,217.29s3.74,2-.48,7S376,227.81,372,223c-3.84,5.34-7.67,5.9-14.28,5s-6.13-8.62-6.13-8.62S377.05,222.4,391.31,217.29Z"/><path class="cls-24" d="M460.62,210.14s6.08,7.84,5.76,8.16-4.29,5.44-5.06,5.24-6.53-7.85-6.71-8.91S460.38,209.36,460.62,210.14Z"/><path class="cls-24" d="M284.72,199.22s-8.06,5.79-7.84,6.19,2.57,6.44,3.37,6.47,8.71-5.86,9.18-6.83S285.17,198.55,284.72,199.22Z"/><path class="cls-20" d="M370.28,234.39a2.4,2.4,0,1,1,2.4,2.4A2.41,2.41,0,0,1,370.28,234.39Z"/><path class="cls-20" d="M369.31,250.6a2.4,2.4,0,1,1,2.4,2.4A2.41,2.41,0,0,1,369.31,250.6Z"/><path class="cls-20" d="M366.32,271.61a2.4,2.4,0,1,1,2.4,2.4A2.39,2.39,0,0,1,366.32,271.61Z"/><path class="cls-26" d="M676.61,297.33c-2.56-8.77-5.33-17.31-8.21-24.72-12.62-32.51-30.83-47.18-30.83-47.18l-26.77,4.68s-13.5,13-23.26,49.93c-1.06,4-2,8.22-2.85,12.5.1.06,8,4.71,41,7.57C658.79,303,676.58,297.34,676.61,297.33Z"/><path class="cls-27" d="M583.46,368.43s17.14-27,47.95-34,54.78,25.89,54.78,25.89l5.34-1s-6.26-32.28-14.92-62c0,0-17.82,5.66-51,2.78-32.93-2.86-40.87-7.51-41-7.57-6.94,35-7,75.89-7,75.89Z"/><path class="cls-15" d="M516,212.14s-7.82-39.47,16.83-78.21,64.17-33.21,69.26-33.64S619.48,86.7,652.64,96s49.21,32.49,60.73,69.58C625.46,181.88,516,212.14,516,212.14Z"/><path class="cls-27" d="M579.83,221.88s-42.76,10.65-60.61-4.95,34.67-44.5,95.31-58.47,109.09-5,97.61,15.83-73,37.22-73,37.22Z"/><path class="cls-28" d="M583,219.75s-39.66,9.88-56.21-4.59S559,173.9,615.22,160.94s101.17-4.65,90.53,14.68-67.69,34.52-67.69,34.52Z"/><path class="cls-26" d="M584.3,218.22s-38.12,9.27-54-4.31,30.9-38.74,85-50.9,97.24-4.36,87,13.78-65.06,32.4-65.06,32.4Z"/><path class="cls-2" d="M612.78,144.16l10.6,88s-46.64,6.11-54.13-28.3C561.34,167.53,584.3,147.59,612.78,144.16Z"/><path class="cls-2" d="M570,205.45s-3.88-4.25-8.76-2.57-3,10.61,5,13.9,7.44-3.54,7.44-3.54Z"/><path class="cls-4" d="M560.81,210.37s-1.79-3.84,2.2-4,5.86,3.39,5,4-1.55,1.75-.84,2.67,1.63-.12,2.07.87-1.51,1.43-3,.37-2.11-3.52-1.26-4.75-1.17-2-2.58-1.41S561.9,211.44,560.81,210.37Z"/><path class="cls-2" d="M612.78,144.16l10.6,88s46.75-5.15,45.85-40.35C668.29,154.64,641.25,140.73,612.78,144.16Z"/><path class="cls-2" d="M669.18,190.22s2.49-1.75,7.64-1.27,5.41,9.6-1.55,14.68S667.2,202,667.2,202Z"/><path class="cls-4" d="M679,196.13s.82-4.15-3.1-3.4-4.89,4.68-3.89,5,1.93,1.34,1.45,2.4-1.61.27-1.8,1.34,1.81,1,3.05-.37,1.21-3.92.09-4.9.65-2.25,2.16-2S678.18,197.43,679,196.13Z"/><path class="cls-5" d="M596.24,202.31a4.25,4.25,0,1,0-3.71,4.73A4.24,4.24,0,0,0,596.24,202.31Z"/><path class="cls-5" d="M651.09,195.71a4.25,4.25,0,1,0-3.71,4.72A4.24,4.24,0,0,0,651.09,195.71Z"/><path class="cls-4" d="M614.55,205.66s.18-3.31,5.17-3.91c-.1-.79-.2-1.66-.2-1.66S614.14,200.41,614.55,205.66Z"/><path class="cls-4" d="M625.66,204.32s-1-3.17-5.94-2.57c-.1-.79-.2-1.66-.2-1.66S624.82,199.13,625.66,204.32Z"/><path class="cls-2" d="M642.7,199.66s.89-1.63,4.2-2a5.45,5.45,0,0,1,4.93,1.87,12.59,12.59,0,0,1-4.86,1.7A5.45,5.45,0,0,1,642.7,199.66Z"/><path class="cls-4" d="M642.5,199.43a6.11,6.11,0,0,1,4.73-2,8.06,8.06,0,0,1,5.41,2.3,10.7,10.7,0,0,0-5.44-1.54A9.53,9.53,0,0,0,642.5,199.43Z"/><path class="cls-2" d="M597.18,205.14s-1.24-1.37-4.55-.93a5.49,5.49,0,0,0-4.35,3,12.53,12.53,0,0,0,5.13.5A5.41,5.41,0,0,0,597.18,205.14Z"/><path class="cls-4" d="M597.33,204.87a6.12,6.12,0,0,0-5.08-.86,8.08,8.08,0,0,0-4.71,3.53,10.62,10.62,0,0,1,4.92-2.79A9.58,9.58,0,0,1,597.33,204.87Z"/><path class="cls-6" d="M655.74,206.66c.52,4.34-3,8.33-7.81,8.92s-9.18-2.47-9.7-6.81,3-8.34,7.81-8.92S655.21,202.32,655.74,206.66Z"/><path class="cls-6" d="M603.4,213c.52,4.34-3,8.33-7.81,8.91s-9.17-2.46-9.7-6.81,3-8.33,7.81-8.91S602.88,208.62,603.4,213Z"/><path class="cls-29" d="M584.22,194.63a11.08,11.08,0,0,1,3.4-4.07c2.37-1.7,4.34-2,5-2.72s-.16-2-1.92-1.5S584.19,190.06,584.22,194.63Z"/><path class="cls-29" d="M652.5,186.4a11.12,11.12,0,0,0-4.26-3.14c-2.71-1.09-4.69-.91-5.47-1.47s-.31-1.94,1.51-1.91S651.45,182,652.5,186.4Z"/><path class="cls-9" d="M622.78,213.47l-.93.2c-9.35,1.9-13.69-2.71-13.86-2.91a.62.62,0,0,1,0-.89.63.63,0,0,1,.9,0c.16.18,4.06,4.27,12.67,2.52s11.14-6.73,11.17-6.79a.64.64,0,0,1,1.15.56C633.81,206.41,631.33,211.42,622.78,213.47Z"/><path class="cls-29" d="M583.81,368.19s0,2.83-.56,3.13-1.58-.2-2.77.32-6,2.18-8,1,4.65-4.27,5.12-4.43-1.91-3.33.33-2.69S580.74,368.13,583.81,368.19Z"/><path class="cls-29" d="M685.65,359.26s0,2.84.56,3.14,1.58-.2,2.77.32,6,2.18,8,1-4.65-4.27-5.12-4.43,1.91-3.34-.33-2.7S688.73,359.2,685.65,359.26Z"/><path class="cls-2" d="M671.41,278.43a28.48,28.48,0,0,0-3.9.16,10.34,10.34,0,0,1-3.69-.3c-.46-.15-1.17.21-.4,1s3.1,1.17,2.78,1.42-4.86,2.37-5.15,3.17,1.23.75,2.47.27,3.39-1.4,2.84-.94-3.71,2.26-4.08,2.89.48,1.06,2,.39a35.66,35.66,0,0,1,3.43-1.62c-.19.26-2.88,2.37-3.09,3.14s.84.77,1.94-.05,2.57-2,2.39-1.74a27.37,27.37,0,0,0-1.78,3c0,.41.7.66,1.45-.2s1.61-1.89,1.92-2.15a9.42,9.42,0,0,0,3-3.71C674,282,671.41,278.43,671.41,278.43Z"/><path class="cls-15" d="M564.84,178.15c.28-.31,88.87-26.43,88.87-26.43s-23.15-21.47-54.6-13.39S564.84,178.15,564.84,178.15Z"/><path class="cls-26" d="M567.72,192.11s8.94-12.78,47-20.43,50.76,0,50.76,0l3.72-4.39-14.57-15s-48,2.17-89.83,21.63S567.72,192.11,567.72,192.11Z"/><path class="cls-29" d="M597.31,100.25a53.39,53.39,0,0,0,1-6.25c.16-2.39,1-2,0-3.27s-2.23-6.69-2.23-8.92,8.68-6.61,10-5.34,3.58,9.29,3.5,11.77-.71,3.32-.79,4.46.32,6-1,7.55S597.31,100.25,597.31,100.25Z"/><path class="cls-30" d="M554.18,149.76c-.21,1-.43,2-.64,3-.68,3.17,4.2,4.53,4.88,1.34.21-1,.42-2,.64-3C559.74,147.93,554.86,146.58,554.18,149.76Z"/><path class="cls-30" d="M576.26,123.2l-.66,2.33c-.88,3.14,4,4.48,4.88,1.35l.66-2.33C582,121.41,577.14,120.07,576.26,123.2Z"/><path class="cls-30" d="M576.24,112.51a2.57,2.57,0,0,0-3.58,0L571.39,114a2.59,2.59,0,0,0,0,3.58,2.54,2.54,0,0,0,3.57,0l1.28-1.49A2.59,2.59,0,0,0,576.24,112.51Z"/><path class="cls-30" d="M539.05,154.64c-.55,1.63-1.1,3.27-1.64,4.9-1,3.1,3.85,4.42,4.88,1.35.54-1.64,1.09-3.27,1.64-4.91C545,152.89,540.08,151.56,539.05,154.64Z"/><path class="cls-30" d="M581.56,152.32l-.57-2.57c-.72-3.17-5.59-1.83-4.88,1.35l.57,2.56C577.4,156.84,582.28,155.49,581.56,152.32Z"/><path class="cls-30" d="M533.5,177.4a3.59,3.59,0,0,1,0-1.46,2.55,2.55,0,0,0-2.53-2.53,2.58,2.58,0,0,0-2.53,2.53,7.42,7.42,0,0,0,.23,2.81C529.42,181.9,534.3,180.56,533.5,177.4Z"/><path class="cls-30" d="M555.65,124.86a2.59,2.59,0,0,0-3.58,0,5.22,5.22,0,0,0-1.52,2.38,2.52,2.52,0,0,0,4.82,1.45,3.15,3.15,0,0,0,.28-.26A2.54,2.54,0,0,0,555.65,124.86Z"/><path class="cls-30" d="M552,169.34a2.6,2.6,0,0,0-2.53-2.53,2.55,2.55,0,0,0-2.53,2.53c.09.78.17,1.57.25,2.35a2.61,2.61,0,0,0,2.53,2.53,2.54,2.54,0,0,0,2.53-2.53C552.18,170.91,552.1,170.12,552,169.34Z"/><path class="cls-30" d="M605.67,120.9a2.61,2.61,0,0,0-2.53-2.53,2.55,2.55,0,0,0-2.53,2.53c0,.32,0,.41.08.26a2.5,2.5,0,0,0,4.44,2.3A4.75,4.75,0,0,0,605.67,120.9Z"/><path class="cls-30" d="M608.39,150.64c0-.06,0-.1,0-.24a2.56,2.56,0,0,0-3.11-1.77,2.6,2.6,0,0,0-1.77,3.12,4.9,4.9,0,0,0,1.3,2.38C607,156.5,610.45,153,608.39,150.64Z"/><path class="cls-30" d="M667.61,113.38l-1.7-1.49c-2.44-2.14-6,1.43-3.57,3.58L664,117C666.48,119.09,670.07,115.53,667.61,113.38Z"/><path class="cls-30" d="M667.21,137l-1.74-2.53a2.59,2.59,0,0,0-3.46-.91,2.55,2.55,0,0,0-.9,3.46l1.73,2.53a2.6,2.6,0,0,0,3.46.91A2.56,2.56,0,0,0,667.21,137Z"/><path class="cls-30" d="M699.48,145.94a13,13,0,0,0-1.7-4.66c-1.66-2.8-6-.25-4.37,2.56a9.15,9.15,0,0,1,1.19,3.45,2.55,2.55,0,0,0,3.12,1.76A2.58,2.58,0,0,0,699.48,145.94Z"/><path class="cls-30" d="M639.11,98.84l-3.85-1c-3.16-.81-4.5,4.07-1.34,4.87l3.84,1C640.92,104.52,642.27,99.64,639.11,98.84Z"/><path class="cls-30" d="M592.33,134.29v2.55c0,3.25,5.06,3.26,5.06,0v-2.55C597.39,131,592.33,131,592.33,134.29Z"/><path class="cls-30" d="M593.59,103.07a8.5,8.5,0,0,0-3.63,1c-2.88,1.51-.33,5.88,2.56,4.37a2.34,2.34,0,0,1,1.07-.28C596.83,108,596.85,102.92,593.59,103.07Z"/><path class="cls-30" d="M539.18,134.64a2.59,2.59,0,0,0-3.46.91c-.58.77-1.15,1.55-1.72,2.32a2.55,2.55,0,0,0,.91,3.46,2.59,2.59,0,0,0,3.46-.91l1.72-2.32A2.55,2.55,0,0,0,539.18,134.64Z"/><path class="cls-30" d="M520.34,181.88c-.09,2.13-.19,4.25-.28,6.37-.14,3.26,4.92,3.25,5.06,0,.09-2.12.19-4.24.28-6.37C525.54,178.63,520.48,178.63,520.34,181.88Z"/><path class="cls-30" d="M643.53,124.55l-2.13-3.19c-1.79-2.7-6.18-.17-4.37,2.55l2.13,3.19C641,129.79,645.34,127.26,643.53,124.55Z"/><path class="cls-30" d="M688.37,127.94l-2.29-3a2.61,2.61,0,0,0-3.46-.91,2.55,2.55,0,0,0-.91,3.46l2.29,3a2.62,2.62,0,0,0,3.47.91A2.55,2.55,0,0,0,688.37,127.94Z"/><path class="cls-31" d="M567.64,129.74a2.6,2.6,0,0,0-3.47.91,13.84,13.84,0,0,0-2.13,4.88c-.7,3.17,4.18,4.53,4.88,1.34a10,10,0,0,1,1.62-3.67A2.55,2.55,0,0,0,567.64,129.74Z"/><path class="cls-31" d="M570.61,156.6c-.08-3.25-5.14-3.26-5.06,0q.06,2.46.36,4.89a2.61,2.61,0,0,0,2.53,2.53,2.54,2.54,0,0,0,2.53-2.53Q570.67,159.06,570.61,156.6Z"/><path class="cls-31" d="M625.24,110.23a5.32,5.32,0,0,1-1.42-1.87c-1.51-2.89-5.87-.33-4.37,2.56a11,11,0,0,0,3.23,3.68,2.55,2.55,0,0,0,3.47-.91A2.59,2.59,0,0,0,625.24,110.23Z"/><path class="cls-31" d="M625.29,126.43l-1.89-3.83c-1.45-2.92-5.81-.36-4.37,2.55.63,1.28,1.26,2.56,1.9,3.83C622.37,131.9,626.73,129.34,625.29,126.43Z"/><path class="cls-31" d="M641.26,140.42a20.55,20.55,0,0,0-1.9-4.66c-1.59-2.85-6-.3-4.37,2.55a14.83,14.83,0,0,1,1.39,3.46C637.21,144.91,642.1,143.58,641.26,140.42Z"/><path class="cls-31" d="M630,137.46a4,4,0,0,1-.55-1.9c-.12-3.24-5.18-3.26-5.06,0a9.51,9.51,0,0,0,1.24,4.45C627.24,142.85,631.61,140.3,630,137.46Z"/><path class="cls-31" d="M622.17,149.33a15.71,15.71,0,0,1-.78-5.27c.05-3.26-5-3.26-5.06,0a20.66,20.66,0,0,0,1,6.62C618.28,153.77,623.17,152.45,622.17,149.33Z"/><path class="cls-31" d="M608.88,131.1c.17-3.25-4.89-3.24-5.06,0a30,30,0,0,0,.17,5.1,2.61,2.61,0,0,0,2.53,2.53,2.55,2.55,0,0,0,2.53-2.53A29,29,0,0,1,608.88,131.1Z"/><path class="cls-31" d="M611,110.65l-1.4-4.64c-.93-3.11-5.82-1.78-4.88,1.35.47,1.54.93,3.09,1.4,4.63C607,115.1,611.91,113.78,611,110.65Z"/><path class="cls-31" d="M644.46,112.1l-2.78-3c-2.24-2.37-5.81,1.21-3.58,3.58l2.78,3C643.12,118.05,646.69,114.47,644.46,112.1Z"/><path class="cls-31" d="M657.05,146.35,656,141.9c-.78-3.17-5.66-1.83-4.88,1.34l1.08,4.46C652.94,150.86,657.82,149.52,657.05,146.35Z"/><path class="cls-31" d="M659.15,121.71a7.49,7.49,0,0,1-1.06-2.93,2.61,2.61,0,0,0-2.52-2.53,2.55,2.55,0,0,0-2.53,2.53,13.41,13.41,0,0,0,1.74,5.48C656.43,127.07,660.81,124.52,659.15,121.71Z"/><path class="cls-31" d="M593.18,144.72a2.59,2.59,0,0,0-2.53,2.53,34.74,34.74,0,0,0-.23,4.89c.07,3.25,5.13,3.26,5.06,0a34.74,34.74,0,0,1,.23-4.89A2.55,2.55,0,0,0,593.18,144.72Z"/><path class="cls-31" d="M591.28,112.85a2.6,2.6,0,0,0-2.53,2.53,9.14,9.14,0,0,1-1,3c-1.51,2.88,2.86,5.44,4.36,2.55a15.68,15.68,0,0,0,1.68-5.51C594,114,592.52,112.85,591.28,112.85Z"/><path class="cls-31" d="M579.16,133v4c0,3.26,5.06,3.26,5.06,0v-4C584.22,129.76,579.16,129.75,579.16,133Z"/><path class="cls-31" d="M681.37,140.46a30.52,30.52,0,0,0-5.45-7.14c-2.33-2.27-5.91,1.3-3.57,3.58A26.34,26.34,0,0,1,677,143C678.58,145.86,683,143.32,681.37,140.46Z"/><path class="cls-28" d="M547.1,187.59s56.12-27.66,112.36-30.39c1.43-1.29-2.23-2.3-2.23-2.3s-45.3-1.65-110.25,30.72C545.42,186.5,547.1,187.59,547.1,187.59Z"/><path class="cls-27" d="M547,185.62s56.61-28,110.25-30.72c3.92-1.06-2.56-2.64-2.56-2.64s-47.33,0-103.56,27.62C544.49,183.17,547,185.62,547,185.62Z"/><path class="cls-28" d="M599.22,166.81l7.2,6.74-1.69.42s-5.13-3.72-6.15-4.6-4.51.18-4.51.18S595.31,167.35,599.22,166.81Z"/><path class="cls-28" d="M653,155.9l-10.09,12.4h2.55s5.9-7,7.54-8.72a9.29,9.29,0,0,1,3.78-2.28A4.72,4.72,0,0,0,653,155.9Z"/><polygon class="cls-28" points="575.54 185.62 551.73 184.43 547.69 186.87 573.18 187.21 575.54 185.62"/><polygon class="cls-28" points="665.52 171.68 701.52 163.72 703.75 166.81 666.21 173.57 665.52 171.68"/><polygon class="cls-28" points="668.4 182.57 688.21 189.93 685.66 191.44 668.7 184.62 668.4 182.57"/><polygon class="cls-28" points="568.2 197.8 527.12 211.63 529.21 214.13 568.52 200.02 568.2 197.8"/><polygon class="cls-28" points="568.94 217.59 565.43 221.31 567.67 221.56 570.22 217.67 568.94 217.59"/><path class="cls-29" d="M592.33,177.74a66.89,66.89,0,0,0,19.95,5.4,75,75,0,0,0,18.07-.57s-5-3.33-4.69-3.13,9,.44,9,.44l-3.35-4.48a53.52,53.52,0,0,1,18.17,4,51,51,0,0,1,17,11.28l-.94-5.07,3.66,4.6a31.14,31.14,0,0,0-3.66-18.54C658.28,165.31,612.24,167.72,592.33,177.74Z"/><path class="cls-29" d="M590.41,178.45s-6.07,7.77-9.89,13.51a37,37,0,0,0-5,12.87l-1.91-7s-3.3,3.31-4.16,7c-2.51-4.26-1.76-12.72-1.76-12.72S574.4,183.35,590.41,178.45Z"/><path class="cls-2" d="M658.39,235.42s29.7,6.7,29.59,26.61c-.11,18.78-15.46,22.1-15.46,22.1l-2.62-3.4s8.31-11.87,5.17-19.49-15-8.93-15-8.93Z"/><path class="cls-26" d="M640.25,227.88A141.76,141.76,0,0,1,670.45,238c-.16,6.7-5.26,17.05-5.26,17.05l-8.13-1.59S642.09,238.5,640.25,227.88Z"/><path class="cls-2" d="M583.74,288.94a28.44,28.44,0,0,1,3.88-.39,10.4,10.4,0,0,0,3.61-.82c.44-.21,1.19,0,.54,1s-2.9,1.6-2.55,1.79,5.14,1.67,5.54,2.42-1.11.92-2.41.62-3.55-.92-2.94-.54,4,1.72,4.44,2.29-.33,1.12-1.91.67a37,37,0,0,0-3.63-1.13c.23.24,3.19,1.95,3.5,2.68s-.72.88-1.93.23-2.82-1.67-2.6-1.39a25.5,25.5,0,0,1,2.17,2.73c.11.39-.59.74-1.46,0s-1.86-1.65-2.2-1.86a9.53,9.53,0,0,1-3.51-3.25C581.72,292.83,583.74,288.94,583.74,288.94Z"/><path class="cls-2" d="M590.63,244.53S562.16,255.3,565.05,275c2.72,18.58,18.38,19.72,18.38,19.72l2.12-3.73s-9.89-10.59-7.83-18.58,13.58-10.93,13.58-10.93Z"/><path class="cls-26" d="M608.61,232.27a252.2,252.2,0,0,0-29.56,16.47c1.09,6.6,7.58,16.15,7.58,16.15l7.83-2.71S608.27,243.05,608.61,232.27Z"/><path class="cls-27" d="M599.86,296.78s8.12.74,9.87-9.12,3.14-23.82,4.36-24.48,28.95-2.69,29.75,0,2.84,21.22,6.21,29.36,11,7.55,11,7.55-2.21,5.93-28.34,7.84S599.86,296.78,599.86,296.78Z"/><polygon class="cls-27" points="643.84 263.18 640.25 227.88 637.79 228.75 638.84 263.18 643.84 263.18"/><polygon class="cls-27" points="613.1 266.14 614.09 232.53 616.11 232.54 618.02 264.89 613.1 266.14"/><path class="cls-28" d="M618.46,267a1.88,1.88,0,1,0-1.87,1.88A1.87,1.87,0,0,0,618.46,267Z"/><path class="cls-28" d="M642.13,266.14a1.88,1.88,0,1,0-1.88,1.87A1.87,1.87,0,0,0,642.13,266.14Z"/><path class="cls-28" d="M612.28,232.49s8.29,8.14,9.35,7.29,4.89-7.29,4.89-7.29,5.57,7.39,7.46,6,6.83-10.83,6.83-10.83S625.35,233.05,612.28,232.49Z"/><path class="cls-28" d="M581,247.47a66,66,0,0,0,3.1,9.59,24.51,24.51,0,0,0,4.51,7.15L586,265.34a33.67,33.67,0,0,1-5-7.85,29.23,29.23,0,0,1-2.44-8.44Z"/><path class="cls-28" d="M664.27,254.84s2.3-2.76,4-9.31,1.44-7.94,1.44-7.94l2.06,1a35.82,35.82,0,0,1-1.7,9.35c-1.75,6.05-3.77,7.64-3.77,7.64Z"/><path class="cls-15" d="M618,274.15l21-1.28s.57,14.27-.67,16.77-9.78,9.87-9.78,9.87-9.54-7-10.14-9.87S618,274.15,618,274.15Z"/><path class="cls-15" d="M582.19,307.29s17.53,7.38,48.46,7.6,49.77-3.8,49.77-3.8l.4,1.49a216.31,216.31,0,0,1-50.38,3.87A214,214,0,0,1,582,308.8Z"/><path class="cls-15" d="M603,313s-.56,5.42-9.24,8-13.48,1.37-13.48,1.37l-.12,1.18s5.6,1.52,14.62-1.43,9.42-9.08,9.42-9.08Z"/><path class="cls-15" d="M661,314.86a12.24,12.24,0,0,0,6.44,6.61c5,2.23,15.62,0,15.62,0l.21.86s-9.54,2.2-15.51.13a13.17,13.17,0,0,1-7.85-7.36Z"/><polygon class="cls-15" points="630.65 315.95 633.6 334 634.59 333.85 632.62 315.95 630.65 315.95"/><path class="cls-32" d="M1057.93,219.54s-14.83,15-15.38,43.38c-.4,20,2.79,60.71,6.3,102.34,5.9,1.11,6.14-.18,6.14-.18s6.31-28.83,30.25-29.47,32.18,32.4,32.18,32.4l5.93-.27s9-37.61,1.84-84.78S1089.67,217,1089.67,217Z"/><path class="cls-33" d="M982.35,167.56s4.06-38.08,42-57.94c38.32-20.08,99.75-6.16,116.32,23.77s14.54,52.4,14.54,52.4Z"/><path class="cls-34" d="M1029.06,197.69s-37.71-3.19-46.21-23.22,43.54-30.84,96.61-25.26S1167.65,178,1151,193.93s-71.26,12.31-71.26,12.31Z"/><path class="cls-28" d="M1032.37,196.7s-35-3-42.85-21.54,40.37-28.6,89.59-23.42,81.79,26.72,66.38,41.47-66.08,11.41-66.08,11.41Z"/><path class="cls-32" d="M1033.92,195.65s-33.54-3.05-41.23-20.6,38.47-26.63,85.68-21.38,78.58,25.78,63.92,39.56-63.23,10.24-63.23,10.24Z"/><path class="cls-35" d="M1055,365.08s0,2.84-.55,3.14-1.58-.2-2.78.32-6,2.18-8,1,4.65-4.27,5.12-4.43-1.91-3.34.33-2.7S1051.92,365,1055,365.08Z"/><path class="cls-35" d="M1123.45,367.5s.22,2.83-.33,3.17-1.59-.08-2.74.52-5.79,2.6-7.94,1.58,4.33-4.6,4.78-4.79-2.14-3.19.14-2.71S1120.38,367.66,1123.45,367.5Z"/><path class="cls-2" d="M1149.91,201.83a27.57,27.57,0,0,1-2.23-2.87,9.67,9.67,0,0,0-2.42-2.44c-.39-.25-.56-1,.5-.91s2.69,1.5,2.67,1.12-1.22-4.88-.82-5.56,1.27.42,1.67,1.59,1,3.25,1,2.59-.61-4-.39-4.64,1-.29,1.47,1.18a34.81,34.81,0,0,0,.9,3.42c.08-.29,0-3.47.39-4.09s1,.14,1.13,1.41a14.94,14.94,0,0,0,.19,2.75,23.34,23.34,0,0,1,1.08-3.07c.25-.28.88.1.72,1.16s-.38,2.27-.38,2.64a8.87,8.87,0,0,1-.83,4.38C1154,201.49,1149.91,201.83,1149.91,201.83Z"/><path class="cls-2" d="M1071.85,136.14l-3.92,88.51s-47-1.6-48.78-36.77C1017.29,150.79,1043.19,134.87,1071.85,136.14Z"/><path class="cls-2" d="M1019.6,189.61s-3.13-4.83-8.22-4-4.67,10,2.65,14.52,7.92-2.27,7.92-2.27Z"/><path class="cls-4" d="M1009.76,193s-1.14-4.08,2.83-3.62,5.23,4.3,4.26,4.73-1.82,1.48-1.27,2.5,1.63.15,1.9,1.2-1.73,1.16-3.06-.14-1.51-3.81-.47-4.88-.82-2.19-2.31-1.82S1010.66,194.21,1009.76,193Z"/><path class="cls-2" d="M1071.85,136.14l-3.92,88.51s47,2.56,51.84-32.32C1124.9,155.56,1100.5,137.41,1071.85,136.14Z"/><path class="cls-2" d="M1119.16,194s3.55-4.54,8.55-3.23,3.77,10.36-3.93,14.24-7.68-3-7.68-3Z"/><path class="cls-4" d="M1128.68,198.23s1.49-4-2.5-3.86-5.6,3.82-4.66,4.34,1.68,1.63,1,2.6-1.64,0-2,1,1.62,1.31,3.06.13,1.84-3.66.9-4.82,1-2.11,2.46-1.61S1127.67,199.38,1128.68,198.23Z"/><path class="cls-4" d="M1063.55,197.1s.72-3.23,5.73-3c0-.8.08-1.67.08-1.67S1064,191.86,1063.55,197.1Z"/><path class="cls-4" d="M1074.73,197.6s-.43-3.29-5.45-3.51c0-.8.08-1.67.08-1.67S1074.74,192.34,1074.73,197.6Z"/><path class="cls-6" d="M1104,204.82c-.2,4.37-4.3,7.74-9.16,7.52s-8.65-3.93-8.46-8.3,4.29-7.74,9.16-7.52S1104.21,200.45,1104,204.82Z"/><path class="cls-6" d="M1051.35,202.49c-.19,4.37-4.29,7.74-9.15,7.52s-8.66-3.93-8.46-8.3,4.29-7.74,9.16-7.52S1051.55,198.12,1051.35,202.49Z"/><path class="cls-10" d="M1035.43,181.27a11.06,11.06,0,0,1,4-3.46c2.61-1.29,4.61-1.26,5.33-1.88s.16-2-1.65-1.79S1036.14,176.76,1035.43,181.27Z"/><path class="cls-10" d="M1104.14,184.31a11,11,0,0,0-3.7-3.8c-2.49-1.52-4.48-1.66-5.15-2.35s0-2,1.8-1.63S1103.83,179.75,1104.14,184.31Z"/><path class="cls-9" d="M1069.43,205.83l-1-.05c-9.52-.7-12.45-6.31-12.57-6.54a.65.65,0,0,1,.29-.86.63.63,0,0,1,.85.28c.11.21,2.77,5.21,11.52,5.84s12.55-3.48,12.59-3.52a.64.64,0,0,1,.9-.06.64.64,0,0,1,.06.9C1082,202,1078.22,206.17,1069.43,205.83Z"/><path class="cls-5" d="M1090,189.18s1.32,4.54,6,5.11a7.16,7.16,0,0,0,6.92-3.48l-1-.12s-2.35,3.07-6,2.51S1090.07,188.54,1090,189.18Z"/><path class="cls-5" d="M1048.79,187.6s-1.67,4.43-6.38,4.64a7.15,7.15,0,0,1-6.62-4l1,0s2.11,3.24,5.79,3S1048.74,187,1048.79,187.6Z"/><path class="cls-33" d="M1029.51,150.38c.33-.2,83.41,6,83.41,6s-10.58-28.53-38.4-30.65S1029.51,150.38,1029.51,150.38Z"/><path class="cls-32" d="M1019.85,170.92s22.07-13.87,55-9.31,45.66,20.57,45.66,20.57l1.84-10-8.88-16.43s-38.82-12.73-79-7.41C999.52,153,1019.85,170.92,1019.85,170.92Z"/><path class="cls-28" d="M1015.53,155.68s56-8,101.54,6.72c1.6-.77-1.69-3.13-1.69-3.13s-36.1-15.72-99.23-5.46C1014.59,154.15,1015.53,155.68,1015.53,155.68Z"/><path class="cls-34" d="M1016.15,153.81s55.76-8.42,99.23,5.46c3.49.21-1.9-3.51-1.9-3.51s-37.47-14.53-92-6C1015.07,150.75,1016.15,153.81,1016.15,153.81Z"/><path class="cls-36" d="M1053,105.76a41.48,41.48,0,0,0-4.55,5.26c-1,1.31,1.24,2.58,2.19,1.27a36.6,36.6,0,0,1,4.15-4.74C1055.92,106.41,1054.13,104.63,1053,105.76Z"/><path class="cls-36" d="M1042.28,110.38l-3.9,4.4c-1.07,1.21.71,3,1.79,1.78l3.9-4.39C1045.15,111,1043.36,109.16,1042.28,110.38Z"/><path class="cls-36" d="M1060.24,114.22a16.33,16.33,0,0,0-1.52,4.71c-.26,1.59,2.18,2.28,2.44.67a14,14,0,0,1,1.26-4.1C1063.13,114,1061,112.76,1060.24,114.22Z"/><path class="cls-36" d="M1047.29,120.69a56.4,56.4,0,0,0-1.75,6.13c-.36,1.59,2.08,2.27,2.44.68a56.57,56.57,0,0,1,1.75-6.14C1050.27,119.82,1047.83,119.15,1047.29,120.69Z"/><path class="cls-36" d="M1035.86,123.12a45.65,45.65,0,0,0-3,6.9c-.53,1.54,1.91,2.2,2.44.67a41.68,41.68,0,0,1,2.8-6.3C1038.83,123,1036.65,121.69,1035.86,123.12Z"/><path class="cls-36" d="M1029.49,110.56l-5.57,4.83c-1.24,1.07.56,2.85,1.79,1.79l5.57-4.83C1032.51,111.28,1030.72,109.5,1029.49,110.56Z"/><path class="cls-36" d="M1047.65,101.24l-7.65,2.13a1.27,1.27,0,0,0,.68,2.44l7.64-2.13A1.27,1.27,0,0,0,1047.65,101.24Z"/><path class="cls-36" d="M1025.93,123.34a16,16,0,0,0-5,5.93c-.7,1.46,1.48,2.75,2.19,1.28a13.13,13.13,0,0,1,4.05-5C1028.5,124.57,1027.24,122.37,1025.93,123.34Z"/><path class="cls-36" d="M1014.44,117.39a82.8,82.8,0,0,0-6.86,7.16c-1.05,1.23.73,3,1.79,1.79a81.38,81.38,0,0,1,6.86-7.16C1017.43,118.07,1015.63,116.29,1014.44,117.39Z"/><path class="cls-36" d="M1014.49,127.22a43.48,43.48,0,0,0-4.12,7.85c-.61,1.51,1.84,2.17,2.44.67a40.06,40.06,0,0,1,3.87-7.25C1017.59,127.13,1015.4,125.87,1014.49,127.22Z"/><path class="cls-36" d="M1002.25,130.67c-.87,2.32-1.79,4.6-2.78,6.87-.65,1.47,1.53,2.76,2.18,1.27,1.08-2.46,2.1-4.95,3-7.46C1005.26,129.82,1002.82,129.16,1002.25,130.67Z"/><path class="cls-36" d="M1027,133.11a18.72,18.72,0,0,0-2.1,7.43c-.11,1.62,2.42,1.61,2.53,0a15.48,15.48,0,0,1,1.75-6.16C1029.88,132.94,1027.7,131.66,1027,133.11Z"/><path class="cls-36" d="M1058.17,125q-.8,4.3-1.22,8.64c-.16,1.62,2.37,1.61,2.53,0,.26-2.67.64-5.32,1.12-8C1060.9,124.1,1058.46,123.42,1058.17,125Z"/><path class="cls-36" d="M1042.35,134.17a61,61,0,0,1-1,7.49c-.31,1.6,2.13,2.28,2.44.68a68.19,68.19,0,0,0,1.09-8.17C1045,132.54,1042.47,132.55,1042.35,134.17Z"/><path class="cls-36" d="M1015.69,139.27a26.67,26.67,0,0,0-3.07,5.27c-.65,1.47,1.53,2.76,2.18,1.27a27.39,27.39,0,0,1,3.07-5.26C1018.84,139.24,1016.65,138,1015.69,139.27Z"/><path class="cls-36" d="M1001.14,144.88a9.56,9.56,0,0,0-2.61,7.13c.09,1.62,2.62,1.63,2.53,0a7,7,0,0,1,1.86-5.34C1004,145.48,1002.25,143.68,1001.14,144.88Z"/><path class="cls-36" d="M989.56,147.83c-.68,2.49-1.37,5-2,7.46A1.27,1.27,0,0,0,990,156c.68-2.48,1.37-5,2-7.46A1.27,1.27,0,0,0,989.56,147.83Z"/><path class="cls-36" d="M1034.19,140.19a52.32,52.32,0,0,0-.86,6.72c-.11,1.63,2.42,1.62,2.53,0a47.42,47.42,0,0,1,.77-6C1036.93,139.27,1034.49,138.59,1034.19,140.19Z"/><path class="cls-36" d="M1053.12,139.88a17.77,17.77,0,0,1-.39,3.78c-.39,1.82,2,2.6,2.44.78a21.14,21.14,0,0,0,.47-4.56A1.27,1.27,0,1,0,1053.12,139.88Z"/><path class="cls-36" d="M1066.4,103.35c.19-1.62-2.34-1.61-2.53,0a28.13,28.13,0,0,0-.12,4.68c.1,1.62,2.63,1.63,2.53,0A28.13,28.13,0,0,1,1066.4,103.35Z"/><path class="cls-36" d="M1077.86,113.86l-2-7.08c-.32-1.13-2.76-.65-2.44.48l2,7.08C1075.74,115.47,1078.18,115,1077.86,113.86Z"/><path class="cls-36" d="M1086.56,109.05a25.59,25.59,0,0,0-5-6.11c-1.21-1.07-3,.71-1.79,1.79a23,23,0,0,1,4.6,5.6A1.27,1.27,0,0,0,1086.56,109.05Z"/><path class="cls-36" d="M1070.08,118.77c-.08,2.48-.17,5-.25,7.44-.06,1.63,2.47,1.63,2.53,0q.12-3.72.25-7.44C1072.66,117.15,1070.13,117.15,1070.08,118.77Z"/><path class="cls-36" d="M1089.58,116.79c-.76-1.44-2.95-.16-2.18,1.27a21.69,21.69,0,0,1,2.5,8.45c.13,1.61,2.66,1.63,2.53,0A24.55,24.55,0,0,0,1089.58,116.79Z"/><path class="cls-36" d="M1098.58,112.71a30.41,30.41,0,0,0-4.78-7.58c-1-1.24-2.84.55-1.79,1.78a28.28,28.28,0,0,1,4.38,7.08C1097,115.48,1099.22,114.19,1098.58,112.71Z"/><path class="cls-36" d="M1109.18,113.16a21.62,21.62,0,0,0-6.31-5.89c-1.39-.85-2.66,1.34-1.28,2.18a18.77,18.77,0,0,1,5.41,5C1107.94,115.74,1110.14,114.48,1109.18,113.16Z"/><path class="cls-36" d="M1105.79,124.9a49.56,49.56,0,0,0-3.21-7c-.65-1.16-2.83-.16-2.19,1a44.88,44.88,0,0,1,3,6.53C1103.79,126.64,1106.23,126.12,1105.79,124.9Z"/><path class="cls-36" d="M1114.76,126.51q-1.46-2.83-2.73-5.75c-.65-1.49-2.83-.21-2.18,1.27.84,2,1.75,3.86,2.72,5.75C1113.32,129.23,1115.5,128,1114.76,126.51Z"/><path class="cls-36" d="M1125,119.24a58.17,58.17,0,0,0-5.34-5.07c-1.24-1-3,.74-1.79,1.79a58.17,58.17,0,0,1,5.34,5.07C1124.29,122.22,1126.07,120.43,1125,119.24Z"/><path class="cls-36" d="M1082.79,124.59a1.27,1.27,0,0,0-2.53,0,81.09,81.09,0,0,0,.46,9.35c.17,1.6,2.7,1.62,2.53,0A81.09,81.09,0,0,1,1082.79,124.59Z"/><path class="cls-36" d="M1104.1,138.68c-.55-2.19-1.09-4.37-1.63-6.56a1.27,1.27,0,0,0-2.44.67c.54,2.19,1.09,4.37,1.63,6.56A1.27,1.27,0,0,0,1104.1,138.68Z"/><path class="cls-36" d="M1125.91,125.79c-.9-1.34-3.09-.08-2.19,1.28a12.62,12.62,0,0,1,2,5.31c.23,1.61,2.66.93,2.44-.67A14.3,14.3,0,0,0,1125.91,125.79Z"/><path class="cls-36" d="M1115.5,133c-.34-1.59-2.78-.92-2.44.67a18.57,18.57,0,0,1,.39,4.76c-.06,1.63,2.47,1.63,2.53,0A21.54,21.54,0,0,0,1115.5,133Z"/><path class="cls-36" d="M1138.18,130.93c-.88-1.36-3.07-.09-2.19,1.28a16.32,16.32,0,0,1,2.62,7.7c.12,1.61,2.65,1.62,2.53,0A19,19,0,0,0,1138.18,130.93Z"/><path class="cls-36" d="M1130,143a27.13,27.13,0,0,1-1.25-5.4c-.2-1.59-2.73-1.61-2.53,0a30.61,30.61,0,0,0,1.34,6.07C1128,145.17,1130.49,144.51,1130,143Z"/><path class="cls-36" d="M1069.56,136l-.77,7c-.18,1.62,2.36,1.61,2.53,0l.77-7C1072.27,134.35,1069.73,134.36,1069.56,136Z"/><path class="cls-36" d="M1092.75,135c-.16-1.6-2.69-1.62-2.53,0l.42,4.46c.15,1.61,2.69,1.63,2.53,0Z"/><path class="cls-36" d="M1083.49,140.22a21.7,21.7,0,0,0-.2,4.42c.17,2.64,2.7,2.67,2.53,0a15.9,15.9,0,0,1,.11-3.31C1086.3,138.72,1083.86,137.61,1083.49,140.22Z"/><path class="cls-36" d="M1109.64,138.41a54.43,54.43,0,0,0-.23,6.38,1.27,1.27,0,0,0,2.53,0,54.43,54.43,0,0,1,.23-6.38C1112.33,136.79,1109.8,136.81,1109.64,138.41Z"/><path class="cls-36" d="M1102.31,143.83c-.2-1.59-2.73-1.61-2.53,0,.25,1.91.49,3.82.74,5.73.2,1.59,2.73,1.61,2.53,0C1102.8,147.65,1102.56,145.74,1102.31,143.83Z"/><path class="cls-36" d="M1122.47,139.36a1.27,1.27,0,0,0-2.44.68,66.5,66.5,0,0,1,1.56,7.42c.25,1.6,2.69.92,2.44-.68A67.46,67.46,0,0,0,1122.47,139.36Z"/><path class="cls-36" d="M1118.47,147.15c-.1-1.62-2.63-1.63-2.53,0,.14,2.12.27,4.25.41,6.37.1,1.62,2.64,1.63,2.53,0C1118.74,151.4,1118.61,149.27,1118.47,147.15Z"/><path class="cls-36" d="M1136.88,140.31c-.67-1.49-2.85-.2-2.19,1.27a20.11,20.11,0,0,1,1.72,7c.1,1.62,2.63,1.63,2.53,0A23.57,23.57,0,0,0,1136.88,140.31Z"/><path class="cls-36" d="M1132.28,149.59c.1-1.63-2.43-1.62-2.53,0q-.29,4.35-.14,8.71c.06,1.63,2.59,1.63,2.53,0Q1132,153.93,1132.28,149.59Z"/><path class="cls-36" d="M1147.39,154a48.93,48.93,0,0,0-2.32-6.65c-.64-1.49-2.82-.21-2.18,1.28a44.31,44.31,0,0,1,2.06,6A1.27,1.27,0,0,0,1147.39,154Z"/><path class="cls-36" d="M1140.73,157.85c-.27-1.61-2.71-.93-2.44.67a34.27,34.27,0,0,1,.47,4.75c0,1.62,2.58,1.63,2.53,0A39.36,39.36,0,0,0,1140.73,157.85Z"/><path class="cls-36" d="M1150.47,163.89c-.78-1.43-3-.16-2.18,1.28a18.3,18.3,0,0,1,2.11,6.6c.18,1.6,2.72,1.62,2.53,0A21.45,21.45,0,0,0,1150.47,163.89Z"/><path class="cls-28" d="M1019.34,178l1-6.46s19.42-12.76,54.42-8.72S1120,183.24,1120,183.24l-.42,10.4a10.12,10.12,0,0,0,4.49-10.29c-1.16-7-23.63-21-53.61-22.95s-49.27,3.19-53.55,8.4S1019.34,178,1019.34,178Z"/><path class="cls-35" d="M1129.64,188.34s4,3.67,6.93,3.39S1134.74,188.42,1129.64,188.34Z"/><path class="cls-35" d="M1127.09,183.64s9.78-3.56,11.18-1.46S1127.09,183.64,1127.09,183.64Z"/><path class="cls-35" d="M1130.7,176.81s5.07-2.39,3.32-3.83S1130.7,176.81,1130.7,176.81Z"/><path class="cls-35" d="M1117,175.83s7.73-1.19,6.06-3.82S1117,175.83,1117,175.83Z"/><path class="cls-35" d="M1109,167.79c.56-.56,5.9-4.72,2.08-5.39S1109,167.79,1109,167.79Z"/><path class="cls-35" d="M1096.43,165.32s4.51-2.47,3.56-4.07S1096.43,165.32,1096.43,165.32Z"/><path class="cls-35" d="M1079.16,161.32s3.23-5.33-.67-5.72S1079.16,161.32,1079.16,161.32Z"/><path class="cls-35" d="M1069.84,161.32s2.18-3.09-.48-3.49S1069.84,161.32,1069.84,161.32Z"/><path class="cls-35" d="M1056.94,158.45s-1.48-5.16-5.22-4.61S1056.94,158.45,1056.94,158.45Z"/><path class="cls-35" d="M1041.32,161.89s.36-6.43-3.63-5.77S1041.32,161.89,1041.32,161.89Z"/><path class="cls-35" d="M1028.13,160.69s-5.18-6.61-8.6-5.09S1021.84,159.1,1028.13,160.69Z"/><path class="cls-35" d="M1022.48,167s-10.28-4.3-11.88-2S1017.7,167.63,1022.48,167Z"/><path class="cls-35" d="M1004.78,167.56s-8-3.74-9.79-.28S1004.78,167.56,1004.78,167.56Z"/><path class="cls-35" d="M1013,174.56s-7.64,4.14-8.92,1.51S1013,174.56,1013,174.56Z"/><path class="cls-35" d="M1019.06,181.27s-1,4.45-4.1,3.37S1019.06,181.27,1019.06,181.27Z"/><path class="cls-35" d="M1011.88,181.27s-4.88,5.9-7.1,3.54S1011.88,181.27,1011.88,181.27Z"/><path class="cls-32" d="M1095.81,222.18s24.26,9.89,37.75,4.88c14.56-5.41,15.42-25.17,15.42-25.17l6.43-1.69s5.94,30.85-10.32,42.77c-17.95,13.17-32.18,10.88-32.18,10.88S1095.84,230.09,1095.81,222.18Z"/><path class="cls-2" d="M1001.35,199a26.75,26.75,0,0,0,2.44-2.69,9.54,9.54,0,0,1,2.61-2.25c.4-.21.63-.92-.43-.94s-2.8,1.28-2.75.91,1.6-4.77,1.25-5.48-1.3.32-1.79,1.46-1.28,3.16-1.23,2.5.93-3.94.75-4.6-1-.37-1.56,1.07a34.44,34.44,0,0,1-1.16,3.33c-.06-.3.31-3.46-.07-4.1s-1.06.06-1.24,1.32a14.81,14.81,0,0,1-.4,2.72,23.45,23.45,0,0,0-.83-3.14c-.24-.3-.89,0-.81,1.09s.2,2.3.17,2.67a8.89,8.89,0,0,0,.48,4.43C997.32,198.3,1001.35,199,1001.35,199Z"/><path class="cls-32" d="M1055.23,222.84s-26.48,8.58-39.54,2.53c-14.1-6.53-13.42-26.29-13.42-26.29L996,196.9s-7.66,29.93,6.75,44c16.57,16.2,41,14.76,41,14.76S1054.58,230.71,1055.23,222.84Z"/><path class="cls-33" d="M1094.35,220.82s-3.43,8.93-4.38,25.74c-.69,12.3.7,42.84,4.22,46s12.67,2.35,21.91,0,11.93-3.95,11.86-5.06-7-25.92-7.44-25.82-7.77,3.51-10.8-9.72.32-23.61-1.11-25.67S1094.35,220.82,1094.35,220.82Z"/><path class="cls-33" d="M1055.23,222.84a330.71,330.71,0,0,0-1.07,36.78c.64,18.38,1.88,33.27,1.69,35s-15.71,1.28-17,0,.85-35,.85-35,2.79-4.77,3.52-13.91,1-18.55,2.22-20.33S1055.23,222.84,1055.23,222.84Z"/><path class="cls-36" d="M1099.21,232.32V236a1.27,1.27,0,0,0,2.53,0v-3.67A1.27,1.27,0,0,0,1099.21,232.32Z"/><path class="cls-36" d="M1094.6,240.1a27.28,27.28,0,0,0-.93,5.29c-.13,1.63,2.4,1.62,2.53,0a23.47,23.47,0,0,1,.84-4.62A1.27,1.27,0,0,0,1094.6,240.1Z"/><path class="cls-36" d="M1105,228.18v4.46a1.27,1.27,0,0,0,2.53,0v-4.46A1.27,1.27,0,0,0,1105,228.18Z"/><path class="cls-36" d="M1095.27,224.5c-.27,1.22-.53,2.44-.8,3.66-.35,1.59,2.09,2.27,2.44.67.27-1.22.53-2.44.8-3.66C1098.06,223.58,1095.62,222.9,1095.27,224.5Z"/><path class="cls-36" d="M1106.65,243c-.1-1.62-2.63-1.63-2.53,0l.36,5.74c.09,1.61,2.62,1.63,2.52,0Q1106.84,245.86,1106.65,243Z"/><path class="cls-36" d="M1100.75,249.53c.14-1.62-2.39-1.61-2.53,0a32.41,32.41,0,0,0-.11,4.62c.08,1.62,2.61,1.63,2.53,0A32.41,32.41,0,0,1,1100.75,249.53Z"/><path class="cls-36" d="M1093.16,257.18v5.42a1.27,1.27,0,0,0,2.53,0v-5.42A1.27,1.27,0,0,0,1093.16,257.18Z"/><path class="cls-36" d="M1108.38,255.89a1.27,1.27,0,0,0-2.44.67,49.36,49.36,0,0,1,1.11,6c.18,1.6,2.72,1.61,2.53,0A52.37,52.37,0,0,0,1108.38,255.89Z"/><path class="cls-36" d="M1101.36,260.36q-.15,3.19-.06,6.38c0,1.63,2.58,1.63,2.53,0q-.09-3.18.06-6.38C1104,258.74,1101.44,258.74,1101.36,260.36Z"/><path class="cls-36" d="M1097.77,268.82c.09-1.63-2.44-1.63-2.53,0a38.31,38.31,0,0,0,.34,7.34c.22,1.61,2.66.93,2.44-.67A34.58,34.58,0,0,1,1097.77,268.82Z"/><path class="cls-36" d="M1115.3,276.29l-1.17-7.13c-.19-1.13-2.67-1.26-2.48-.12l1.17,7.13C1113,277.3,1115.49,277.43,1115.3,276.29Z"/><path class="cls-36" d="M1119.57,265.29c-.29-1.6-2.73-.92-2.44.67.19,1.07.39,2.13.58,3.2.29,1.6,2.73.92,2.44-.68C1120,267.42,1119.76,266.35,1119.57,265.29Z"/><path class="cls-36" d="M1104.3,272v4.46a1.27,1.27,0,0,0,2.53,0V272A1.27,1.27,0,0,0,1104.3,272Z"/><path class="cls-36" d="M1122.76,277.39c-.44-1.32-.88-2.64-1.31-4-.51-1.54-3-.88-2.44.67l1.31,4C1120.82,279.61,1123.27,279,1122.76,277.39Z"/><path class="cls-36" d="M1114.55,287.83a33.4,33.4,0,0,1-.8-5.71c-.08-1.62-2.61-1.63-2.53,0a37.12,37.12,0,0,0,.89,6.38C1112.48,290.09,1114.91,289.42,1114.55,287.83Z"/><path class="cls-36" d="M1122.2,282.67c-.25-1.61-2.69-.93-2.44.67.22,1.43.45,2.86.67,4.3.26,1.6,2.69.92,2.44-.68C1122.65,285.53,1122.42,284.1,1122.2,282.67Z"/><path class="cls-36" d="M1097.89,288.38q-.87-2.78-1.72-5.54c-.48-1.55-2.92-.89-2.44.67.57,1.85,1.14,3.69,1.72,5.54C1095.93,290.6,1098.37,289.94,1097.89,288.38Z"/><path class="cls-36" d="M1106.6,290.64c-.56-2.43-1-4.88-1.39-7.34-.24-1.61-2.68-.92-2.44.67.37,2.47.83,4.91,1.39,7.34C1104.53,292.89,1107,292.22,1106.6,290.64Z"/><path class="cls-36" d="M1047,228c-.17,1.22-.33,2.45-.49,3.67-.22,1.61,2.31,1.59,2.53,0,.16-1.22.32-2.45.49-3.67C1049.71,226.42,1047.18,226.43,1047,228Z"/><path class="cls-36" d="M1051.05,232.49a25.44,25.44,0,0,0-1.09,5.73c-.12,1.62,2.41,1.61,2.53,0a22.46,22.46,0,0,1,1-5.06C1054,231.6,1051.53,230.94,1051.05,232.49Z"/><path class="cls-36" d="M1045.48,240.13q-.3,3.51-.58,7c-.13,1.62,2.4,1.61,2.53,0q.28-3.51.58-7C1048.14,238.51,1045.61,238.52,1045.48,240.13Z"/><path class="cls-36" d="M1051.92,246.67c-.57-1.51-3-.85-2.44.67a15.59,15.59,0,0,1,1,6.34c-.07,1.63,2.46,1.62,2.53,0A17.46,17.46,0,0,0,1051.92,246.67Z"/><path class="cls-36" d="M1047.19,259.56a10.78,10.78,0,0,1-.5-5.07c.24-1.6-2.2-2.28-2.44-.68a13.56,13.56,0,0,0,.5,6.42C1045.26,261.77,1047.7,261.11,1047.19,259.56Z"/><path class="cls-36" d="M1052.81,261.17c-.12-1.62-2.65-1.63-2.53,0,.17,2.49.29,5,.34,7.49a1.27,1.27,0,0,0,2.53,0C1053.1,266.16,1053,263.66,1052.81,261.17Z"/><path class="cls-36" d="M1043.58,263.4c-.12-1.62-2.65-1.63-2.53,0q.24,3.5.16,7a1.27,1.27,0,0,0,2.53,0Q1043.82,266.9,1043.58,263.4Z"/><path class="cls-36" d="M1045.51,270.73v3.34a1.27,1.27,0,0,0,2.53,0v-3.34A1.27,1.27,0,0,0,1045.51,270.73Z"/><path class="cls-36" d="M1052.74,283a12,12,0,0,1-.38-4.13c.11-1.63-2.42-1.62-2.53,0a14.12,14.12,0,0,0,.47,4.8A1.27,1.27,0,0,0,1052.74,283Z"/><path class="cls-36" d="M1041.09,279.63a14.69,14.69,0,0,0-.51,4.32,1.27,1.27,0,0,0,2.53,0,12.2,12.2,0,0,1,.42-3.65A1.27,1.27,0,0,0,1041.09,279.63Z"/><path class="cls-36" d="M1047.71,285.23a1.26,1.26,0,0,0-2.52,0c0,2.12.06,4.25.19,6.37.1,1.62,2.63,1.63,2.53,0C1047.78,289.48,1047.71,287.35,1047.71,285.23Z"/><path class="cls-28" d="M1055,225.52s2.76,6,15.94,6.09a38,38,0,0,0,22.35-7.41l1-3.38a104.75,104.75,0,0,1-20.09,3.6,71.85,71.85,0,0,1-19-1.58Z"/><path class="cls-35" d="M1060.8,233.86s-5.1,5.47-2.87,6.59S1060.8,233.86,1060.8,233.86Z"/><path class="cls-35" d="M1072.83,248.72s-3.34,9.27,0,9.11S1072.83,248.72,1072.83,248.72Z"/><path class="cls-35" d="M1079.44,235.52s.32,7.12,2.23,6.26S1079.44,235.52,1079.44,235.52Z"/><path class="cls-35" d="M1086.77,266.11s4.63,10.31,2.08,11S1086.93,269.29,1086.77,266.11Z"/><path class="cls-35" d="M1063.83,268.25s1.59,8.65-1.44,8.83S1063.83,268.25,1063.83,268.25Z"/><path class="cls-35" d="M1082.18,285.94s3.48,6.84,1.25,8.64S1082.18,285.94,1082.18,285.94Z"/><path class="cls-35" d="M1066.38,296.7s-3.51,6.53-1.44,6.85S1066.38,296.7,1066.38,296.7Z"/><path class="cls-35" d="M1102.75,301.64s4.78,7.81,2,9.3S1102.75,301.64,1102.75,301.64Z"/><path class="cls-35" d="M1118.54,294.58s4.81,6.26,2.78,7.06S1118.54,294.58,1118.54,294.58Z"/><path class="cls-35" d="M1089.8,316s2.82,5.31.48,6.26S1089.8,316,1089.8,316Z"/><path class="cls-35" d="M1052.78,308.39s-3.3,6.37-1.49,6.9S1052.78,308.39,1052.78,308.39Z"/><path class="cls-35" d="M1072.22,323.15s-4.14,6.8-1.27,7.12S1072.22,323.15,1072.22,323.15Z"/><path class="cls-35" d="M1055.87,332.5s-2.7,4.89-.88,6.38S1055.87,332.5,1055.87,332.5Z"/><path class="cls-35" d="M1056.6,352.26s-.14,5.42-1.61,4.36S1056.6,352.26,1056.6,352.26Z"/><path class="cls-35" d="M1101.86,322.39s-1.46,5.86.76,6.5S1101.86,322.39,1101.86,322.39Z"/><path class="cls-35" d="M1119.74,315.32s-1,9.21,1.58,9.53S1119.74,315.32,1119.74,315.32Z"/><path class="cls-35" d="M1114.18,335s-1.38,9.34,1.17,8.71S1114.18,335,1114.18,335Z"/><path class="cls-35" d="M1121.82,351.62s-2,4.74-.63,5.14S1121.82,351.62,1121.82,351.62Z"/><path class="cls-35" d="M1114.18,233.28s10.44-2.47,10.2,0S1114.18,233.28,1114.18,233.28Z"/><path class="cls-35" d="M1108.5,243.23s5.6-.55,4.57,1.68-4.57-.56-4.57-.56Z"/><path class="cls-35" d="M1132.27,245.31s6-4.78,7-2.95S1132.27,245.31,1132.27,245.31Z"/><path class="cls-35" d="M1141.91,230.41s1.91-5,3.59-4.2S1141.91,230.41,1141.91,230.41Z"/><path class="cls-35" d="M1154.42,220.29s-1.28-5,0-5.73S1154.42,220.29,1154.42,220.29Z"/><path class="cls-35" d="M1151,209.54s-1.51-4.32,0-5.11S1151,209.54,1151,209.54Z"/><path class="cls-35" d="M1038.46,252.16s-9.85.32-9.45-2.71S1038.46,252.16,1038.46,252.16Z"/><path class="cls-35" d="M1044.42,229.86s-4.65-3.19-5.45-.8,5.45,1.75,5.45,1.75Z"/><path class="cls-35" d="M1027.34,235.19s-6-4.29-7.81-2.3S1027.34,235.19,1027.34,235.19Z"/><path class="cls-35" d="M1006.38,237.21s-3-7.28-5-6.32S1006.38,237.21,1006.38,237.21Z"/><path class="cls-35" d="M1006.74,222.28s-.6-5.88-2.51-5.25S1006.74,222.28,1006.74,222.28Z"/><path class="cls-35" d="M996.12,214.48s-2.33-6.46-.42-6.94S996.12,214.48,996.12,214.48Z"/><path class="cls-35" d="M1001.07,205.41s-1.43-2.79,0-3.58S1001.07,205.41,1001.07,205.41Z"/><path class="cls-28" d="M1148.89,201.23a20.1,20.1,0,0,0,3.39-.54c1.71-.45,3.33-1,3.39-.69s.1,1.67.16,1.83a16.73,16.73,0,0,1-3.85,1.41,8,8,0,0,1-3.3.36C1148.53,203.42,1148.08,201.47,1148.89,201.23Z"/><path class="cls-28" d="M996.12,196.52a20,20,0,0,0,3.54,1.35c2,.54,2.82.93,2.82,1.29s.2.91,0,1.14-2.4.09-4.11-.48-2.73-.78-2.91-1.59S995.67,196.31,996.12,196.52Z"/><path class="cls-10" d="M1043.76,163.53s6.25,9.28,11.25,12.1,14,4.28,14,4.28l-4.81-5.59a40.2,40.2,0,0,0,15.19,3.49,41.39,41.39,0,0,0,16.25-3.49l-7.5-2.22s7-1,12.53,1.51a39.24,39.24,0,0,0,12.45,2.87s-10.7-10.57-33.57-13.33S1043.76,163.53,1043.76,163.53Z"/><path class="cls-10" d="M1041.82,163.89s-3.17,7.48-7.39,11.74-7,6.55-7,6.55l2.94-6.55s-3.1,1.66-6.69,6.55-4.22,8.31-4.22,8.31l-3-3.83s-.92-8.76,3.87-15.09C1024.07,168.34,1033.92,164.94,1041.82,163.89Z"/><path class="cls-10" d="M1113.61,176.81s1.94,8.89,2.49,13.08a23.14,23.14,0,0,1-.32,7.71l4.34-4.35,3.28-2.25s.5-5.05-2-8.71S1113.61,176.81,1113.61,176.81Z"/><path class="cls-37" d="M1300,309.75a194.36,194.36,0,0,0,45.52-11.13c-3.57-18.29-9.88-41-11.11-56.76-1.91-24.52-24.67-36.78-24.67-36.78L1286,209.5s-17.22,12.44-30,41.09c-5.72,12.86-11,37.73-15.14,61.24C1252.84,312.83,1272.36,313.17,1300,309.75Z"/><path class="cls-18" d="M1237.9,367.53s35.61-43.56,68.43-42.39c24.46.87,13.75,28.95,13.75,28.95h5.61s19-15.6,21.89-31.09c1-5.52-.12-14.28-2.09-24.38A194.36,194.36,0,0,1,1300,309.75c-27.61,3.42-47.13,3.08-59.13,2.08-5,28.87-8.3,55.7-8.3,55.7Z"/><path class="cls-38" d="M1270.38,75.48s-3.67-23.4-9.83-34.86-16.36-23.79-16.36-23.79,14.66,6.59,21.46,15.09,9.13,19.28,9.13,19.28-.42-21.41,3.83-32.67A50.29,50.29,0,0,1,1291.38,0s-3.42,13.65-4.06,21.93,2.73,29.27,2.73,29.27a73,73,0,0,1,11.76-19.77c8.24-9.92,20.82-16.93,20.82-16.93S1307.72,35,1304.1,47.6s-5.95,23.2-5.95,23.2l-10,11Z"/><path class="cls-39" d="M1264.84,84.4A169.91,169.91,0,0,0,1249.38,61c-8.5-10.41-23.16-19.56-23.16-19.56s17.42,3.52,27.62,10.58,21.89,22.79,21.89,22.79,0-18.06,9.77-31,18.7-19.55,18.7-19.55-11.81,34.21-12.81,47.17c8.34-20.4,35.12-35.17,35.12-35.17s-17.76,20.12-21.89,37.93c-18.48,21.67-23.41,23.8-23.41,23.8s-14.19-3.16-14.41-4.25S1264.84,84.4,1264.84,84.4Z"/><path class="cls-18" d="M1260.66,93.57s-6.91-8.53-13.07-12.15-27.84-8.71-27.84-8.71,10-7.22,29.11-2.76,29.53,20.74,29.53,20.74a77,77,0,0,1,4-23.5c4.09-11.26,13.46-18.49,13.46-18.49s-2.94,15.3-4.46,20.19-1.33,16.78-1.33,16.78,6.49-14,18.34-22.52S1347.58,50,1347.58,50,1322,60,1312.51,71.14,1300,90.85,1300,90.85,1269.48,98.92,1260.66,93.57Z"/><path class="cls-2" d="M1399.3,219.19a29.54,29.54,0,0,1,3.15-2.68,11,11,0,0,0,2.64-2.88c.26-.46,1.07-.68,1.06.52s-1.56,3.14-1.14,3.1,5.48-1.65,6.28-1.23-.41,1.46-1.73,2-3.63,1.35-2.88,1.31,4.51-.91,5.25-.69.39,1.18-1.26,1.74-4.17,1.13-3.84,1.2,4-.23,4.66.22-.1,1.21-1.54,1.36a18.3,18.3,0,0,0-3.11.36,28.15,28.15,0,0,1,3.54,1.06c.33.28-.06,1-1.27.89s-2.61-.32-3-.3-3.18.3-5-.71C1399.89,223.79,1399.3,219.19,1399.3,219.19Z"/><path class="cls-2" d="M1210.4,218.5a30.48,30.48,0,0,0-1.2-3.95,11,11,0,0,1-.67-3.86c0-.51-.53-1.14-1.17-.13s-.38,3.49-.72,3.22-3.72-4.34-4.61-4.42-.45,1.45.38,2.6,2.33,3.1,1.72,2.66-3.31-3.21-4.05-3.42-1,.78.13,2.15,2.89,3.2,2.57,3.08-3.19-2.32-4-2.33-.56,1.07.57,2,2.77,2.08,2.41,2a27.38,27.38,0,0,0-3.55-1c-.43.05-.49.89.6,1.43s2.36,1.15,2.7,1.39,2.52,2,4.61,2.11C1207.42,222.06,1210.4,218.5,1210.4,218.5Z"/><path class="cls-2" d="M1282.38,130.52l17.51,86.85s-46,9.77-56.19-23.94C1233,157.88,1254.27,136.19,1282.38,130.52Z"/><path class="cls-2" d="M1244.55,195s-4.2-3.94-8.94-1.87-2.13,10.81,6.07,13.46,7.14-4.12,7.14-4.12Z"/><path class="cls-4" d="M1235.8,200.63s-2.08-3.69,1.88-4.2,6.11,2.91,5.27,3.57-1.41,1.87-.63,2.73,1.62-.25,2.13.7-1.39,1.55-3,.61-2.38-3.34-1.63-4.63-1.32-1.93-2.68-1.21S1237,201.61,1235.8,200.63Z"/><path class="cls-2" d="M1282.38,130.52l17.51,86.85s46.2-8.82,42.53-43.84C1338.55,136.59,1310.5,124.85,1282.38,130.52Z"/><path class="cls-2" d="M1342.24,172s2.35-1.94,7.52-1.87,6.15,9.14-.39,14.76-8.17-1-8.17-1Z"/><path class="cls-4" d="M1352.49,177.1s.49-4.2-3.36-3.14-4.51,5-3.47,5.33,2,1.18,1.63,2.28-1.58.4-1.69,1.47,1.88.88,3-.6.9-4-.3-4.9.47-2.29,2-2.15S1351.79,178.46,1352.49,177.1Z"/><path class="cls-5" d="M1270.49,189.8a4.25,4.25,0,1,0-3.32,5A4.25,4.25,0,0,0,1270.49,189.8Z"/><path class="cls-5" d="M1324.64,178.88a4.25,4.25,0,1,0-3.32,5A4.23,4.23,0,0,0,1324.64,178.88Z"/><path class="cls-4" d="M1289,191.69s-.08-3.32,4.84-4.31l-.34-1.64S1288.18,186.49,1289,191.69Z"/><path class="cls-4" d="M1300,189.48s-1.2-3.09-6.12-2.1l-.34-1.64S1298.72,184.37,1300,189.48Z"/><path class="cls-2" d="M1316.59,183.48s.76-1.69,4-2.31a5.47,5.47,0,0,1,5.06,1.47,12.6,12.6,0,0,1-4.72,2.08A5.43,5.43,0,0,1,1316.59,183.48Z"/><path class="cls-4" d="M1316.37,183.27a6.15,6.15,0,0,1,4.56-2.41,8.14,8.14,0,0,1,5.58,1.88,10.64,10.64,0,0,0-5.55-1.11A9.63,9.63,0,0,0,1316.37,183.27Z"/><path class="cls-2" d="M1271.65,192.54s-1.35-1.27-4.61-.56a5.45,5.45,0,0,0-4.1,3.31,12.59,12.59,0,0,0,5.15.09A5.42,5.42,0,0,0,1271.65,192.54Z"/><path class="cls-4" d="M1271.77,192.26a6.11,6.11,0,0,0-5.13-.46,8.17,8.17,0,0,0-4.42,3.89,10.72,10.72,0,0,1,4.69-3.16A9.6,9.6,0,0,1,1271.77,192.26Z"/><path class="cls-6" d="M1330.14,189.43c.87,4.29-2.3,8.55-7.08,9.51s-9.34-1.73-10.21-6,2.31-8.54,7.08-9.51S1329.28,185.15,1330.14,189.43Z"/><path class="cls-6" d="M1278.47,199.85c.86,4.29-2.31,8.54-7.08,9.51s-9.35-1.74-10.21-6,2.3-8.55,7.08-9.51S1277.6,195.56,1278.47,199.85Z"/><path class="cls-21" d="M1257.9,183.09a11.06,11.06,0,0,1,3.07-4.32c2.22-1.89,4.17-2.33,4.73-3.12s-.32-1.94-2-1.33S1257.51,178.54,1257.9,183.09Z"/><path class="cls-21" d="M1325.32,169.5a11,11,0,0,0-4.5-2.8c-2.79-.88-4.75-.53-5.57-1s-.46-1.91,1.36-2S1323.92,165.15,1325.32,169.5Z"/><path class="cls-9" d="M1297.83,198.82l-.92.28c-9.17,2.63-13.85-1.62-14.05-1.8a.64.64,0,0,1,0-.9.63.63,0,0,1,.9,0c.18.16,4.4,3.94,12.83,1.52s10.58-7.6,10.6-7.65a.64.64,0,1,1,1.19.46C1308.27,190.91,1306.19,196.11,1297.83,198.82Z"/><path class="cls-21" d="M1267.3,167.62s10.55,5.72,14.61,6.53,10.52,1.32,10.52,1.32l-7.41-5.14a77.67,77.67,0,0,0,10,2.47c3.42.4,10.43.47,10.43.47a64.22,64.22,0,0,1-8.28-2.54,94.47,94.47,0,0,1-8.92-4.86,77.55,77.55,0,0,0,11.23,1.43c5.58.24,13-3.1,13-3.1l-5.18-1.36,5.46-2S1291.73,156.07,1267.3,167.62Z"/><path class="cls-40" d="M1320,353.18s-.56,2.56,0,2.92,1.75.07,3,.73,6,2.93,8.52,2.19-4.22-4.6-4.7-4.82,2.71-2.7.16-2.48S1323.38,353.62,1320,353.18Z"/><path class="cls-40" d="M1232,367.06s-.55,2.56,0,2.93,1.76.07,3,.73,6.06,2.92,8.53,2.19-4.23-4.6-4.7-4.82,2.7-2.71.15-2.49S1235.31,367.5,1232,367.06Z"/><path class="cls-37" d="M1354,178.62s28-87-63.91-88.27-88.74,87-52.32,114.22c6.8-23.36,13.61-45.17,52.32-48.36S1340.71,163.2,1354,178.62Z"/><path class="cls-41" d="M1237.73,204.57s6.94-33.8,50.48-42.52c40.68-8.15,65.75,16.57,65.75,16.57s-16.41-32.19-67.14-23.11S1237.73,204.57,1237.73,204.57Z"/><path class="cls-21" d="M1331.43,165.25s6,8.41,13.42,8.9,9.88-6.48,9.88-6.48a11.63,11.63,0,0,1-7.64,1.83C1342.23,169.14,1331.43,165.25,1331.43,165.25Z"/><path class="cls-21" d="M1253.2,179.24s-.37,11.62-6.74,16.45-14.74.69-14.74.69,6.85-1,10-4.62a9.69,9.69,0,0,1-6.93-.58S1243.86,188.7,1253.2,179.24Z"/><path class="cls-40" d="M1215.7,136.94s3.54,8.59,16,17,29.19,11,29.19,11l-5.11,3.58a76.79,76.79,0,0,1-24.08-9.73,52,52,0,0,1-16.84-17.84Z"/><path class="cls-40" d="M1229.67,110.94s22.33,13.9,45.27,26a279.06,279.06,0,0,0,41.29,17.9l9.46,2.27s-40.39-19.7-61.9-30.7-31.29-18.21-31.29-18.21Z"/><path class="cls-40" d="M1271.65,91.41a124.34,124.34,0,0,1,46.44,21.82c27.13,20.51,27.13,54.44,27.13,54.44l1.87,1.83s5.93-27-17.33-50.73-53.4-28.44-53.4-28.44Z"/><path class="cls-40" d="M1356.86,136.94a49,49,0,0,0-17.38,6.21,62.76,62.76,0,0,0-16,13.42l-5.08-1.21s8.24-10.62,19.24-16.46,18.36-6.25,18.36-6.25Z"/><path class="cls-40" d="M1337.05,103.31s-14.28-3.35-37.16,14a79.58,79.58,0,0,0-28.24,42.31l-5.32,2.29s2.88-29,28.53-46.83,38.28-14.4,38.28-14.4Z"/><path class="cls-40" d="M1293.51,90.44s-32.77,4-49.32,34.7-1.73,59.66-1.73,59.66l-1.6,3.74s-8.78-11.74-8.3-31.43,8.09-41.37,25.32-55.24S1293.51,90.44,1293.51,90.44Z"/><path class="cls-40" d="M1217.61,130.52a80.91,80.91,0,0,0-.51,38.55c4.88,21.24,20.63,35.5,20.63,35.5a58.76,58.76,0,0,1-22.23-33.27A71.32,71.32,0,0,1,1217.61,130.52Z"/><path class="cls-40" d="M1240.61,313.15s21.9,2.93,56.8-1.31,48.26-12.28,48.26-12.28l-1-5s-20,8.81-49.33,12a304.07,304.07,0,0,1-53.75,1Z"/><path class="cls-37" d="M1321,214.7s23,8.76,44.34,8.12,34.21-5.45,34.21-5.45l2.48,8.22s-13.37,10.88-35.84,15.82-37.39,3.34-37.39,3.34Z"/><path class="cls-37" d="M1277.68,218.69s-23.48,14.22-40,12.31-26.36-15.06-26.36-15.06l-6.69,7.14s11.18,26.19,35.23,29.7,26.43,0,26.43,0Z"/><path class="cls-18" d="M1276.05,218.1s-2.86,1.85-2.54,4.3,7.45,7.11,15.41,7,9.55-9.77,9.55-9.77a13.46,13.46,0,0,0,9.92,7.54c7.29,1.17,13.53-8.91,13.76-12.05a8.08,8.08,0,0,0-1.67-5.38A93.09,93.09,0,0,1,1276.05,218.1Z"/><ellipse class="cls-41" cx="1299.97" cy="234.37" rx="3.26" ry="2.99"/><ellipse class="cls-41" cx="1299.97" cy="249.58" rx="3.26" ry="2.99"/><path class="cls-41" d="M1301.09,267a3.28,3.28,0,1,0-3.26,3A3.13,3.13,0,0,0,1301.09,267Z"/><path class="cls-41" d="M1297.83,284.81a3.28,3.28,0,1,0-3.27,3A3.14,3.14,0,0,0,1297.83,284.81Z"/><path class="cls-41" d="M1296.43,301.61a3.27,3.27,0,1,0-3.26,3A3.13,3.13,0,0,0,1296.43,301.61Z"/><path class="cls-40" d="M1400.08,217.07s2.67,8.58,2.46,8.79a24.1,24.1,0,0,1-3.87,2.58c-.57.09-3-9.81-2.67-10.17S1400.08,217.07,1400.08,217.07Z"/><path class="cls-40" d="M1211.29,215.51s-7.08,7.23-7,7.62,2,4.24,2.34,4.35,8.22-7.89,8.22-8.37S1211.48,215.32,1211.29,215.51Z"/><path class="cls-42" d="M1301.15,325.32s3.51-1.93,4.71-4.93.41-9.77.41-9.77l1.2-.19s.62,7.07-.86,10.4S1301.15,325.32,1301.15,325.32Z"/><path class="cls-42" d="M1260.23,314.13a26.79,26.79,0,0,1-9.24,11.19,23.6,23.6,0,0,1-13.06,4.07l-.2,1.31a26,26,0,0,0,14.32-4.63,27,27,0,0,0,9.4-11.94Z"/><path class="cls-42" d="M1335.56,303.8a12.69,12.69,0,0,0,3.65,4.58c2.45,1.8,8.11,1.18,8.11,1.18l.11.87s-5.77,1.31-8.85-1.08a16.47,16.47,0,0,1-4.42-5.08Z"/></g></g></svg>