<?xml version="1.0" encoding="utf-8"?>
<!-- Generator: Adobe Illustrator 23.0.6, SVG Export Plug-In . SVG Version: 6.00 Build 0)  -->
<svg version="1.1" id="Layer_1" xmlns="http://www.w3.org/2000/svg" xmlns:xlink="http://www.w3.org/1999/xlink" x="0px" y="0px"
	 viewBox="0 0 368.43 368.43" style="enable-background:new 0 0 368.43 368.43;" xml:space="preserve">
<style type="text/css">
	.st0{fill:none;}
	.st1{fill:#00A551;}
	.st2{fill:#2F2F2F;}
</style>
<rect x="-2.66" y="-2.66" class="st0" width="373" height="373"/>
<g>
	<path class="st1" d="M90.52,213.22c13.38,44.98,50.26,83.94,98.35,89.39c23.42,2.65,47.22-3.78,65.55-18.69
		c8.58-6.98,15.56-15.6,20.69-25.21c-2.38,3.24-5.09,6.29-8.13,9.1c-20.3,18.76-50.34,17.5-75.28,9.39
		c-23.85-7.76-47.1-23.39-60.5-44.22c-0.19-0.3,0.26-0.64,0.51-0.38c16.28,17.9,34.79,32.46,58.1,40.96
		c24.3,8.86,53.49,10.62,74.15-6.86c19.33-16.34,24.24-42.52,18.05-65.74c-6.92-25.97-27.64-44.48-46.62-62.74
		c-16.62-15.99-33.15-32.07-49.87-47.97C170.11,75.59,150.85,61.16,128,64.87c-2.51,0.72-4.99,1.51-7.46,2.36
		C111.15,71.31,104,78.3,99.32,87.97c-6.35,13.13-6.47,28.81-6.35,43.08c0.25,29.19,6.49,59.76,25.15,82.99
		c0.39,0.49-0.26,1.19-0.71,0.71c-22.04-23.53-27.8-55.79-27.59-87.01c0.05-7.78,0.44-15.65,1.82-23.3
		c-2.71,8.68-4.4,17.77-5.71,26.42C81.78,158.17,82.61,186.65,90.52,213.22z"/>
	<g>
		<path class="st2" d="M146.08,183.79c0.72-0.09,1.44-0.18,2.16-0.29c-0.19,1.67-0.31,3.36-0.33,5.02
			c-0.24,0.07-0.48,0.15-0.71,0.27c-0.2,0.1-0.14,0.41,0.06,0.47c0.22,0.06,0.44,0.09,0.66,0.11c0.01,1.37,0.07,2.73,0.23,4.06
			c-0.16,0.04-0.32,0.08-0.47,0.12c-0.04-0.04-0.1-0.06-0.16-0.05c0.1,0.36,0.19,0.72,0.28,1.08c1.91-0.4,3.86-0.82,5.79-1.32
			c-0.02,0.32-0.04,0.64-0.06,0.96c-0.08,1.18-0.22,2.41-0.35,3.65c-1.29,0.22-2.59,0.46-3.83,0.83c-0.41-1.43-0.93-2.8-1.6-4.04
			c-0.12-0.23-0.42-0.06-0.38,0.16c0.22,1.45,0.53,2.86,0.84,4.29c-0.05,0.02-0.11,0.04-0.16,0.06c0.08,0.22,0.16,0.45,0.25,0.67
			c0.02,0,0.05-0.01,0.07-0.01c0.14,0.64,0.27,1.28,0.39,1.92c0.43,2.29,0.63,4.62,1.05,6.91c0.03,0.14,0.27,0.14,0.29,0
			c0.41-2.84,0.25-6-0.45-8.96c1.15-0.16,2.31-0.44,3.45-0.75c-0.16,1.91-0.23,3.81,0.1,5.61c0.05,0.26,0.42,0.23,0.5,0
			c0.59-1.87,0.74-3.93,0.8-5.99c0.37-0.1,0.75-0.2,1.11-0.29c0.87-0.21,1.73-0.42,2.6-0.63c-0.16,1.78-0.23,3.56-0.26,5.31
			c-0.01,0.69-0.03,1.38-0.03,2.07c-2,0.37-4.04,0.78-5.8,1.64c-0.33,0.16-0.16,0.68,0.18,0.67c1.84-0.01,3.75-0.47,5.62-0.99
			c0.01,1.35,0.06,2.7,0.23,4.03c-0.83,0.17-1.64,0.37-2.42,0.64c-0.38,0.13-0.34,0.73,0.1,0.72c0.83-0.02,1.66-0.11,2.5-0.24
			c0.15,0.8,0.33,1.58,0.6,2.35c0.1,0.28,0.46,0.21,0.49-0.07c0.1-0.83,0.14-1.66,0.15-2.5c1.58-0.31,3.16-0.7,4.69-1.01
			c0.27-0.05,0.54-0.11,0.81-0.17c0.01,0.12,0.02,0.23,0.03,0.35c0.12,1.45,0.25,2.89,0.37,4.34c-0.77,0.22-1.53,0.44-2.29,0.68
			c-1.18,0.37-2.21,0.59-3.14,1.39c-0.16,0.13-0.02,0.37,0.16,0.38c1.42,0.06,2.7-0.6,4.04-1.02c0.44-0.14,0.88-0.27,1.32-0.4
			c0.04,0.5,0.08,0.99,0.13,1.49c0.15,1.61,0.18,3.27,0.61,4.83c-0.66,0.18-1.32,0.39-1.96,0.62c-0.28-0.65-0.6-1.26-1.03-1.8
			c-0.18-0.22-0.57-0.04-0.55,0.23c0.14,2.36,1.4,4.77,2.05,7.04c0.67,2.32,1.12,4.71,1.95,6.98c0.04,0.11,0.2,0.09,0.21-0.03
			c0.07-2.69-0.57-5.45-1.29-8.03c-0.3-1.08-0.57-2.26-0.94-3.38c0.04,0.04,0.09,0.08,0.13,0.11c1.48-0.47,2.96-1.1,4.35-1.56
			c1.58-0.53,3.15-1.06,4.72-1.6c0.17,2.25,0.24,4.62,0.49,6.94c-1,0.31-2.03,0.61-3.05,0.92c-0.2-0.13-0.45-0.06-0.53,0.16
			c-0.02,0.01-0.04,0.01-0.05,0.02c0.01,0.01,0.03,0.02,0.04,0.03c-0.01,0.03-0.03,0.05-0.03,0.08c-0.03,1.58,0.72,3.18,1.19,4.68
			c0.46,1.5,0.81,3.17,1.71,4.47c0.09,0.13,0.28,0.08,0.29-0.08c0.05-1.58-0.55-3.17-0.96-4.68c-0.32-1.18-0.54-2.52-1.03-3.68
			c0.87-0.29,1.73-0.58,2.58-0.87c0.15,1.1,0.36,2.17,0.65,3.2c0.02,0.06,0.05,0.11,0.07,0.15c0.14,0.09,0.27,0.18,0.41,0.27
			c0.32,0.03,0.67-0.19,0.7-0.58c0.1-1.19,0.07-2.41,0-3.64c2.18-0.7,4.35-1.41,6.53-2.12c0.2,1.33,0.41,2.66,0.62,3.99
			c0.06,0.35,0.1,0.71,0.15,1.07c-2.17,0.72-4.32,1.5-6.42,2.35c0.4,0.27,0.81,0.54,1.21,0.83c1.81-0.5,3.62-1.04,5.42-1.64
			c0.17,1.13,0.41,2.25,0.92,3.24c0.16,0.3,0.73,0.27,0.78-0.1c0.17-1.2-0.02-2.41-0.26-3.61c2.18-0.74,4.35-1.52,6.52-2.3
			c0.34,1.88,0.65,3.79,0.99,5.68c-1.15,0.36-2.3,0.74-3.46,1.1c-1.72,0.53-3.49,1.02-5.22,1.62c0.64,0.23,1.27,0.44,1.91,0.65
			c1.49-0.42,2.96-0.9,4.41-1.34c0.86-0.26,1.72-0.53,2.57-0.8c0.29,1.53,0.63,3.05,1.02,4.55h0.01c0,0,0.01-0.02,0.02-0.02
			c0.18,0.02,0.24,0.02,0.4,0.1c0.13,0.07,0.18,0.23,0.15,0.36c-0.05,0.2-0.18,0.33-0.36,0.42c0.02,0.06,0.03,0.12,0.04,0.18
			c0,0.01,0.01,0.01,0.01,0.02c0.39,0.08,0.78,0.16,1.18,0.23c0.1-0.11,0.15-0.25,0.13-0.44c-0.21-1.98-0.56-3.95-0.96-5.92
			c1.75-0.55,3.49-1.11,5.24-1.69c0.17-0.05,0.33-0.11,0.5-0.17c0.21,1.18,0.43,2.36,0.7,3.52c-1.78,0.43-3.54,0.92-5.22,1.58
			c-0.34,0.13-0.33,0.72,0.09,0.69c1.82-0.12,3.64-0.47,5.46-0.91c0.21,0.82,0.44,1.63,0.72,2.43c0.14,0.41,0.83,0.37,0.8-0.11
			c-0.05-0.88-0.15-1.76-0.27-2.63c1.82-0.48,3.62-1.01,5.38-1.49c0.92-0.25,1.84-0.5,2.76-0.76c1,2.28,2.07,4.53,3.31,6.69
			c0.09,0.16,0.34,0.2,0.47,0.06c0.19-0.2,0.37-0.41,0.56-0.61c0.04-0.04,0-0.12-0.06-0.1c-0.65,0.17-2.05-3.1-3.26-6.32
			c1.97-0.56,3.93-1.13,5.88-1.73c0.21,0.7,0.42,1.4,0.64,2.1c0.52,1.69,0.78,3.61,1.97,4.96c0.26,0.3,0.66,0.03,0.7-0.29
			c0.22-1.95-0.88-4.05-1.47-5.88c-0.14-0.45-0.29-0.89-0.43-1.33c0.5-0.16,1-0.31,1.5-0.47c1.67-0.54,3.34-1.09,5.01-1.66
			c0.75,1.97,1.67,3.93,3,5.17c0.07,0.07,0.19,0.02,0.19-0.08c0-1.84-0.8-3.76-1.66-5.62c1.9-0.65,3.79-1.33,5.67-2.04
			c0.48,1.31,1.01,2.6,1.7,3.78c0.12,0.2,0.38,0.06,0.35-0.15c-0.18-1.35-0.55-2.71-0.97-4.05c1.77-0.68,3.53-1.39,5.27-2.14
			c0.29,0.62,0.6,1.23,0.94,1.81c0.16,0.28,0.55,0.08,0.49-0.21c-0.13-0.67-0.31-1.35-0.5-2.01c1.3-0.57,2.59-1.16,3.86-1.77
			c0.13-0.19,0.26-0.38,0.39-0.58c-0.03-0.02-0.06-0.04-0.11-0.03c-0.58,0.07-1.15,0.12-1.73,0.14c-0.1,0-0.1,0.16,0,0.16
			c0.25,0.01,0.49,0.03,0.73,0.05c-1.13,0.4-2.25,0.81-3.38,1.22c-0.57-1.83-1.29-3.64-1.98-5.43c1.18-0.5,2.36-1.01,3.54-1.53
			c0.6,1.84,1.2,3.73,2.19,5.36c0.08,0.14,0.35,0.09,0.33-0.09c-0.19-1.93-0.83-3.85-1.48-5.73c1.61-0.71,3.22-1.44,4.82-2.18
			c0.3,0.52,0.61,1.02,0.92,1.53c0.08-0.18,0.16-0.36,0.24-0.53c0.35,1.7,1.19,3.34,1.87,4.93c0.7,1.64,1.4,3.29,2.2,4.89
			c0.09,0.18,0.39,0.05,0.33-0.14c-0.62-1.95-1.38-3.85-2.13-5.75c-0.57-1.46-1.05-2.97-1.93-4.28c-0.12-0.18-0.36-0.09-0.37,0.11
			c-0.16-0.35-0.31-0.71-0.47-1.06c0.41-0.19,0.82-0.39,1.22-0.58c0.03-0.09,0.07-0.18,0.09-0.27c0.02-0.07,0.04-0.15,0.07-0.22
			c-0.53,0.21-1.05,0.43-1.58,0.64c-0.56-1.19-1.15-2.36-1.74-3.53c-0.22-0.43-0.43-0.88-0.64-1.33c0.9-0.32,1.81-0.63,2.72-0.94
			c0.56,1.3,1.07,2.62,1.5,3.96c0.01,0.04,0.04,0.06,0.08,0.07c0.05-0.16,0.1-0.32,0.14-0.47c-0.08-1.35-0.3-2.64-0.72-3.9
			c0.65-0.23,1.29-0.48,1.94-0.72c0.06-0.25,0.12-0.49,0.17-0.74c-0.8,0.22-1.61,0.44-2.41,0.69c-0.1-0.25-0.19-0.51-0.31-0.76
			c-0.51-1.09-1.1-2.43-1.97-3.4c0.4-0.14,0.8-0.29,1.2-0.43c1.41-0.5,2.99-0.9,4.41-1.53c-0.02-0.3-0.04-0.6-0.06-0.89
			c-1.57,0.35-3.12,1.02-4.6,1.51c-0.6,0.2-1.21,0.39-1.82,0.58c-0.08-0.05-0.15-0.11-0.24-0.16c-0.25-0.13-0.57,0.09-0.49,0.37
			v0.01c-1.5,0.48-3,0.97-4.46,1.56c-0.56,0.23-0.36,1.1,0.26,0.93c1.55-0.43,3.08-0.97,4.6-1.53c0.62,1.21,1.61,2.32,2.19,3.54
			c0.08,0.17,0.15,0.35,0.23,0.53c-0.93,0.3-1.85,0.6-2.76,0.9c-0.61-1.31-1.27-2.61-2.18-3.67c-0.22-0.26-0.62,0.02-0.54,0.32
			c0.33,1.28,0.97,2.51,1.65,3.7c-0.09,0.03-0.19,0.06-0.28,0.09c-1.11,0.36-2.26,0.69-3.41,1.03c-0.29-0.76-0.62-1.5-1.03-2.17
			c-0.2-0.33-0.81-0.22-0.77,0.21c0.07,0.79,0.25,1.58,0.47,2.37c-1.27,0.41-2.51,0.88-3.67,1.46c-0.49-1.24-1.05-2.45-1.73-3.57
			c-0.22-0.37-0.73-0.11-0.66,0.28c0.62,3.48,2.28,6.89,3.56,10.18c-1.64,0.65-3.28,1.28-4.93,1.92c-0.51-1.58-1.07-3.16-1.87-4.6
			c-0.24-0.43-0.8-0.12-0.74,0.31c0.26,1.62,0.77,3.21,1.34,4.78c-1.86,0.72-3.73,1.43-5.6,2.14c-0.5-2.14-0.85-4.29-1.3-6.49
			c-0.07-0.36-0.67-0.37-0.74,0c-0.43,2.29-0.06,4.72,0.59,7.03c-1.88,0.7-3.76,1.41-5.64,2.1c-0.21,0.08-0.43,0.15-0.65,0.23
			c-0.62-1.89-1.24-3.79-1.91-5.67c1.17-0.43,2.34-0.86,3.49-1.32c0.15-0.06,0.1-0.3-0.07-0.25c-1.21,0.33-2.41,0.69-3.62,1.05
			c-0.52-1.42-1.06-2.82-1.67-4.2c-0.09-0.2-0.36-0.05-0.33,0.14c0.29,1.46,0.64,2.9,1.02,4.34c-2.15,0.65-4.29,1.32-6.43,2.01
			c-0.54-1.54-1.15-3.03-1.91-4.41c-0.19-0.34-0.81-0.21-0.77,0.21c0.16,1.57,0.55,3.16,1.06,4.73c-1.9,0.62-3.81,1.24-5.71,1.86
			c-0.35-1.76-0.71-3.52-1.13-5.27c0.91-0.31,1.81-0.62,2.72-0.94c0.19-0.07,0.11-0.36-0.08-0.3c-0.92,0.26-1.83,0.54-2.74,0.81
			c-0.32-1.27-0.66-2.53-1.08-3.76c-0.05-0.13-0.27-0.12-0.26,0.04c0.08,1.33,0.24,2.66,0.43,3.99c-2.07,0.61-4.13,1.21-6.2,1.84
			c-0.03-0.12-0.05-0.25-0.08-0.37c-0.43-1.9-0.64-4.05-1.66-5.73c-0.04-0.07-0.17-0.07-0.19,0.02c-0.31,1.97,0.29,4.1,0.63,6.04
			c0.02,0.14,0.05,0.28,0.08,0.41c-2.21,0.67-4.41,1.34-6.62,2.03c-0.05-0.28-0.1-0.56-0.16-0.84c-0.37-2.01-0.75-4.02-1.14-6.03
			c2.74-0.92,5.46-1.88,8.09-3.02c0.11-0.05,0.03-0.22-0.08-0.19c-2.75,0.64-5.47,1.46-8.18,2.34c-0.42-2.09-0.88-4.18-1.42-6.25
			c-0.03-0.11-0.2-0.09-0.19,0.03c0.18,2.18,0.45,4.34,0.75,6.5c-2.09,0.68-4.17,1.39-6.24,2.04c-0.01,0-0.02,0.01-0.02,0.01
			c0-0.02,0-0.03-0.01-0.05c-0.21-1.89-0.38-3.82-0.63-5.73c1.3-0.3,2.59-0.62,3.85-1.03c0.16-0.05,0.14-0.31-0.04-0.31
			c-1.31,0.02-2.63,0.18-3.94,0.41c-0.24-1.72-0.54-3.43-1-5.09c-0.05-0.17-0.29-0.13-0.3,0.04c-0.01,0.18-0.02,0.37-0.03,0.55
			c-2.3,0.33-4.61,0.69-6.91,1.04c-0.17-1.63-0.31-3.3-0.48-4.95c1.56-0.42,3.11-0.85,4.66-1.29c0.23-0.07,0.13-0.4-0.1-0.35
			c-1.55,0.29-3.09,0.59-4.64,0.89c-0.22-1.99-0.52-3.97-1.01-5.88c-0.05-0.2-0.34-0.15-0.35,0.05c-0.13,2-0.06,4.05,0.08,6.09
			c-1.36,0.27-2.72,0.55-4.07,0.85c-0.36,0.08-0.73,0.15-1.1,0.23c-0.02-0.6-0.04-1.21-0.04-1.81c0-1.87,0.07-3.74,0.15-5.61
			c1.48-0.37,2.95-0.74,4.42-1.15c0.19-0.05,0.11-0.32-0.08-0.29c-1.44,0.23-2.88,0.49-4.31,0.76c0.06-1.51,0.12-3.02,0.12-4.53
			c0-0.27-0.41-0.33-0.47-0.06c-0.38,1.57-0.63,3.19-0.8,4.82c-0.97,0.19-1.94,0.37-2.9,0.57c-0.28,0.06-0.57,0.11-0.86,0.16
			c0.02-1.16,0.04-2.32,0.1-3.42c0.02-0.41,0.05-0.83,0.08-1.25c1.28-0.35,2.53-0.74,3.74-1.2c0.15-0.05,0.14-0.31-0.04-0.29
			c-1.2,0.11-2.42,0.29-3.64,0.5c0.08-1.17,0.17-2.35,0.22-3.52c0.27-0.06,0.54-0.12,0.81-0.2c0.13-0.04,0.1-0.22-0.03-0.23
			c-0.25-0.02-0.51-0.02-0.76-0.03c0.06-1.66,0.05-3.31-0.15-4.91c-0.01-0.1-0.15-0.13-0.18-0.02c-0.4,1.59-0.61,3.25-0.75,4.93
			c-1.12,0.03-2.24,0.12-3.34,0.22c-0.47,0.04-0.93,0.06-1.39,0.1c0.16-1.67,0.3-3.35,0.44-5.02c1.92-0.3,3.84-0.63,5.73-1.06
			c0.13-0.03,0.1-0.23-0.03-0.23c-1.87,0.02-3.74,0.14-5.61,0.3c0.15-1.86,0.32-3.71,0.49-5.56c0.72-0.07,1.43-0.17,2.14-0.34
			c0.15-0.04,0.16-0.28,0-0.31c-0.68-0.14-1.37-0.22-2.05-0.27c0.08-0.81,0.15-1.62,0.25-2.43c0.02-0.14-0.2-0.16-0.23-0.03
			c-0.23,0.79-0.44,1.6-0.65,2.42c-0.54-0.03-1.08-0.04-1.62-0.05c-0.8-0.01-1.59-0.15-2.29,0.1c-0.01,0.34-0.02,0.67-0.03,1.01
			c0.86,0.31,1.96,0.06,2.85,0.02c0.28-0.01,0.57-0.03,0.85-0.05c-0.42,1.83-0.79,3.71-1.04,5.6c-0.74,0.07-1.48,0.15-2.22,0.23
			C146.14,183.02,146.11,183.4,146.08,183.79z M215.64,227.85c-2.03,0.73-4.07,1.45-6.11,2.16c-0.66-1.83-1.22-3.77-1.86-5.67
			c2.11-0.72,4.21-1.46,6.3-2.22C214.49,224.04,215.06,225.95,215.64,227.85z M240.61,212.33c1.28-0.46,2.54-0.95,3.77-1.4
			c0.28,0.49,0.56,0.97,0.82,1.45c0.6,1.12,1.21,2.24,1.84,3.35c-1.6,0.65-3.2,1.29-4.8,1.93c-0.18-0.51-0.35-1.02-0.51-1.53
			C241.35,214.93,241.02,213.61,240.61,212.33z M237.59,219.53c-0.17-0.43-0.33-0.86-0.49-1.29c-0.54-1.45-1.03-2.97-1.59-4.45
			c1.25-0.22,2.51-0.57,3.76-0.98c0.51,1.51,1.14,3,1.64,4.42c0.1,0.29,0.2,0.58,0.29,0.87C240,218.57,238.79,219.05,237.59,219.53z
			 M232.29,224.44c-0.17-0.51-0.33-1.03-0.5-1.54c1.65-0.67,3.3-1.36,4.94-2.05c0.66,1.76,1.31,3.58,2.07,5.32
			c-1.75,0.64-3.5,1.28-5.25,1.91C233.14,226.85,232.69,225.63,232.29,224.44z M225.61,228.02c-0.28-0.8-0.51-1.6-0.72-2.4
			c1.9-0.74,3.8-1.49,5.69-2.25c0.37,0.99,0.76,1.97,1.11,2.94c0.25,0.71,0.5,1.43,0.75,2.16c-1.92,0.7-3.84,1.39-5.78,2.06
			C226.27,229.68,225.89,228.83,225.61,228.02z M217.44,229.11c-0.07-0.2-0.13-0.4-0.2-0.6c0.46-0.17,0.92-0.32,1.37-0.49
			c1.63-0.61,3.26-1.22,4.88-1.85c0.24,0.76,0.51,1.51,0.78,2.22c0.3,0.8,0.61,1.71,0.94,2.64c-1.63,0.56-3.27,1.11-4.92,1.64
			c-0.52,0.16-1.04,0.31-1.55,0.47C218.32,231.79,217.88,230.45,217.44,229.11z M209.94,231.14c2.02-0.71,4.03-1.44,6.04-2.18
			c0.13,0.44,0.27,0.88,0.4,1.32c0.33,1.09,0.66,2.18,0.99,3.27c-1.98,0.61-3.96,1.19-5.95,1.75
			C210.79,233.61,210.25,232.04,209.94,231.14z M201.76,233.93c2.31-0.77,4.62-1.54,6.92-2.34c0,0.01,0.01,0.02,0.01,0.03
			c0.53,1.33,1.09,2.67,1.65,3.99c-0.87,0.24-1.73,0.5-2.6,0.73c-1.72,0.46-3.5,0.84-5.27,1.25
			C202.27,236.37,202.02,235.15,201.76,233.93z M200.24,226.87c1.93-0.66,3.86-1.32,5.79-1.97c0.66,1.9,1.45,3.78,2.19,5.57
			c-2.23,0.77-4.48,1.51-6.72,2.25c-0.28-1.28-0.57-2.56-0.85-3.84C200.51,228.22,200.38,227.54,200.24,226.87z M193.18,229.35
			c1.63-0.59,3.26-1.18,4.89-1.74c0.35-0.12,0.7-0.24,1.05-0.36c0.13,0.65,0.25,1.3,0.37,1.95c0.24,1.31,0.46,2.64,0.69,3.96
			c-0.46,0.15-0.93,0.31-1.39,0.47c-1.46,0.47-2.92,0.92-4.38,1.39C194.01,233.12,193.58,231.23,193.18,229.35z M191.87,223.05
			c2.04-0.69,4.07-1.39,6.11-2.09c0.27,1.78,0.61,3.55,0.95,5.31c-0.65,0.21-1.3,0.43-1.94,0.63c-1.34,0.43-2.69,0.85-4.05,1.26
			C192.59,226.46,192.24,224.75,191.87,223.05z M184.05,225.65c2.2-0.72,4.39-1.45,6.59-2.19c0.31,1.71,0.61,3.42,0.93,5.12
			c-2.2,0.67-4.4,1.35-6.59,2.06c-0.01-0.05-0.02-0.11-0.03-0.16C184.65,228.88,184.35,227.26,184.05,225.65z M175.39,220.25
			c0.32-0.11,0.64-0.21,0.95-0.32c1.76-0.6,3.55-1.18,5.33-1.77c0.25,1.74,0.52,3.47,0.78,5.2c0.09,0.58,0.18,1.15,0.27,1.73
			c-2.15,0.67-4.3,1.35-6.46,2.03C176.06,224.8,175.67,222.48,175.39,220.25z M166.92,215.43c0.67-0.19,1.34-0.39,2.01-0.57
			c1.44-0.38,2.9-0.7,4.36-1.02c0.14,1.99,0.35,3.97,0.52,5.94c-1.91,0.61-3.82,1.23-5.72,1.85c-0.23,0.07-0.46,0.14-0.7,0.21
			c0.11-1.78-0.2-3.59-0.37-5.36C166.99,216.13,166.95,215.78,166.92,215.43z M166.36,209.85c2.28-0.47,4.55-0.94,6.82-1.43
			c-0.06,1.47-0.03,2.95,0.05,4.43c-1.54,0.32-3.06,0.71-4.55,1.08c-0.62,0.16-1.24,0.33-1.86,0.49
			C166.67,212.9,166.52,211.38,166.36,209.85z M159.34,205.96c0.73-0.21,1.44-0.42,2.14-0.6c1.01-0.27,2.03-0.54,3.04-0.81
			c0.13,1.61,0.29,3.22,0.44,4.81c-0.32,0.05-0.64,0.09-0.96,0.14c-1.45,0.23-2.97,0.4-4.47,0.64
			C159.5,208.75,159.41,207.36,159.34,205.96z M148.64,193.31c0.17-1.31,0.31-2.63,0.44-3.94c0.76-0.06,1.53-0.22,2.26-0.32
			c0.84-0.11,1.68-0.22,2.51-0.36c-0.09,1.17-0.14,2.34-0.2,3.5C151.96,192.52,150.28,192.91,148.64,193.31z"/>
		<path class="st2" d="M252.04,201.1c-0.12-0.01-0.32,0.06-0.44,0.08c-0.17,0.02-0.37-0.05-0.53-0.09
			c-0.37-0.09-0.71-0.28-1.01-0.51c-0.46-0.36-1.18-1.16-0.78-1.79c0.05-0.08,0.14-0.12,0.23-0.09c0.48,0.12,0.81,0.73,1.14,1.08
			c0.22,0.22,0.47,0.4,0.73,0.57c0.16,0.1,0.43,0.31,0.63,0.39C252.02,200.86,252.03,200.98,252.04,201.1z"/>
		<path class="st2" d="M147.35,169.86c0.54-0.35,1.15-0.22,1.77-0.2c0.85,0.03,1.68,0.13,2.53,0.23c0.16,0.02,0.26,0.11,0.28,0.28
			c0.04,0.33-0.08,0.54-0.31,0.77c-0.17,0.17-0.4-0.08-0.26-0.26c0-0.07,0.01-0.14,0.01-0.2c-0.64,0.08-1.28,0.17-1.93,0.2
			c-0.7,0.03-1.47,0.21-2.09-0.17C147.1,170.36,147.11,170.02,147.35,169.86z"/>
		<path class="st2" d="M246.2,197.44c0.56-0.86,1.8-0.78,2.74-0.96c0.87-0.17,1.79-0.38,2.68-0.34c0.01,0.22,0.03,0.43,0.04,0.65
			c-0.76,0.37-1.63,0.53-2.44,0.73c-0.91,0.22-2.08,0.83-2.93,0.28C246.18,197.72,246.12,197.56,246.2,197.44z"/>
		<path class="st2" d="M248.99,191.72c0.39-0.69,1.58-0.81,2.25-0.55c0.19,0.07,0.29,0.31,0.13,0.47c-0.51,0.5-1.65,0.91-2.28,0.43
			C248.97,191.99,248.91,191.85,248.99,191.72z"/>
		<path class="st2" d="M251.21,213.62c0.62,0.71,0.79,1.69,1.07,2.58c0.34,1.09,0.91,2.3,0.82,3.45c-0.01,0.09-0.13,0.17-0.2,0.08
			c-0.61-0.68-0.85-1.63-1.16-2.48c-0.38-1.06-1.08-2.3-0.99-3.45C250.76,213.59,251.04,213.43,251.21,213.62z"/>
		<path class="st2" d="M246.08,223.06c0.9,1.19,1.42,2.58,1.99,3.95c0.73,1.76,1.51,3.53,2.03,5.36c0.07,0.23-0.26,0.36-0.38,0.16
			c-0.86-1.43-1.53-2.98-2.22-4.5c-0.71-1.55-1.51-3.13-1.8-4.81C245.65,222.98,245.93,222.87,246.08,223.06z"/>
		<path class="st2" d="M242.04,229.01c0.67,0.83,0.98,1.77,1.37,2.76c0.46,1.17,1.11,2.45,1.21,3.7c0.01,0.13-0.18,0.21-0.26,0.11
			c-0.73-0.85-1.11-2.01-1.58-3.02c-0.51-1.09-1.06-2.16-1.2-3.36C241.56,228.97,241.9,228.83,242.04,229.01z"/>
		<path class="st2" d="M238.58,233.08c0.49,0.65,0.61,1.54,0.83,2.32c0.29,1,0.61,1.99,0.79,3.02c0.05,0.31-0.34,0.45-0.48,0.2l0,0
			c-0.43-0.84-0.75-1.73-1.08-2.61c-0.33-0.86-0.86-1.79-0.86-2.72C237.77,232.83,238.33,232.76,238.58,233.08z"/>
		<path class="st2" d="M232.82,236.19c0.97,1.32,1.47,2.91,2.06,4.43c0.75,1.95,1.72,3.95,2.08,6.01c0.04,0.2-0.21,0.32-0.33,0.14
			c-1.03-1.52-1.65-3.34-2.36-5.02c-0.73-1.73-1.65-3.48-1.91-5.36C232.31,236.1,232.64,235.95,232.82,236.19z"/>
		<path class="st2" d="M226.86,239.92c1.47,2.49,2.45,5.65,3.18,8.44c0.06,0.21-0.26,0.36-0.36,0.15c-1.31-2.57-2.68-5.59-3.23-8.42
			C226.4,239.85,226.72,239.69,226.86,239.92z"/>
		<path class="st2" d="M219.88,244.72c0.02-0.17,0.21-0.35,0.38-0.22c0.69,0.51,0.91,1.31,1.23,2.08c0.49,1.19,1.02,2.41,1.34,3.66
			c0.07,0.28-0.3,0.43-0.46,0.19c-0.63-0.97-1.1-2.04-1.61-3.08C220.37,246.54,219.78,245.66,219.88,244.72z"/>
		<path class="st2" d="M213.45,245.35c0.53,0.67,0.85,1.32,1.15,2.12c0.35,0.93,0.76,1.86,0.8,2.86c0.01,0.17-0.21,0.26-0.33,0.14
			c-0.61-0.64-0.95-1.44-1.32-2.24c-0.41-0.89-0.74-1.66-0.86-2.64C212.84,245.31,213.27,245.13,213.45,245.35z"/>
		<path class="st2" d="M205.01,245.03c0.55,0.71,0.85,1.4,1.12,2.26c0.31,1,0.74,2.07,0.77,3.13c0.01,0.39-0.49,0.47-0.69,0.19
			c-0.53-0.77-0.79-1.76-1.1-2.63c-0.34-0.95-0.59-1.74-0.56-2.76C204.56,245.01,204.86,244.83,205.01,245.03z"/>
		<path class="st2" d="M197.34,242.17c0.03-0.21,0.29-0.21,0.42-0.11c0.8,0.63,1.02,1.76,1.36,2.68c0.44,1.19,0.9,2.35,1.07,3.61
			c0.02,0.18-0.18,0.28-0.3,0.12c-0.74-1.03-1.2-2.18-1.7-3.35C197.8,244.18,197.19,243.22,197.34,242.17z"/>
		<path class="st2" d="M188.59,239.8c0.66,0.88,0.99,1.93,1.39,2.95c0.39,1,0.78,1.95,0.92,3.02c0.01,0.1-0.14,0.16-0.21,0.09
			c-0.68-0.84-1.09-1.78-1.55-2.76c-0.46-0.99-1-1.95-1.17-3.04C187.91,239.67,188.36,239.49,188.59,239.8z"/>
		<path class="st2" d="M179.79,236.09c0.75,1.31,1.02,2.82,1.4,4.27c0.36,1.4,0.97,2.89,0.85,4.34c-0.01,0.11-0.13,0.14-0.2,0.05
			c-0.89-1.16-1.2-2.75-1.66-4.12c-0.48-1.42-1.06-2.84-1.15-4.34C179.01,235.89,179.6,235.75,179.79,236.09z"/>
		<path class="st2" d="M154.81,209.62c0.92,2.26,1.17,4.79,1.6,7.18c0.43,2.42,0.98,4.9,1.06,7.36c0,0.15-0.2,0.16-0.25,0.03
			c-0.85-2.28-1.24-4.75-1.77-7.13c-0.54-2.39-1.24-4.89-1.24-7.36C154.2,209.33,154.68,209.32,154.81,209.62z"/>
		<path class="st2" d="M141.27,169.58c1.68,5.16,2.25,10.69,3.12,16.02c0.88,5.34,2.03,10.9,2.19,16.32c0,0.15-0.22,0.17-0.26,0.04
			c-1.6-5.12-2.33-10.71-3.23-15.99c-0.92-5.38-2.2-10.85-2.3-16.32C140.78,169.36,141.18,169.32,141.27,169.58z"/>
		<path class="st2" d="M143.91,161.43c0.02-0.1,0.17-0.09,0.19,0c0.43,1.95,0.59,3.94,1.06,5.88c0.47,1.95,1.58,3.74,1.92,5.69
			c0.05,0.28-0.3,0.56-0.53,0.31c-1.35-1.51-1.82-3.84-2.27-5.76C143.83,165.59,143.54,163.42,143.91,161.43z"/>
		<path class="st2" d="M147.18,155.85c0.02-0.29,0.39-0.33,0.49-0.07c0.41,1.09,0.58,2.27,0.78,3.41c0.18,1.05,0.55,2.18,0.28,3.24
			c-0.08,0.32-0.53,0.37-0.7,0.09c-0.48-0.8-0.47-1.77-0.58-2.69C147.3,158.52,147.08,157.17,147.18,155.85z"/>
		<path class="st2" d="M151.04,150.77c0.04-0.16,0.26-0.17,0.34-0.04c0.5,0.82,0.62,1.83,0.82,2.76c0.15,0.7,0.44,1.46-0.04,2.07
			c-0.07,0.08-0.21,0.09-0.29,0.04c-0.66-0.41-0.61-1.26-0.7-1.96C151.05,152.68,150.83,151.71,151.04,150.77z"/>
		<path class="st2" d="M154.39,146.19c0.19-0.11,0.32-0.27,0.42-0.47c0.02-0.07,0.05-0.14,0.07-0.2c0.01-0.05,0.02-0.09,0.05-0.13
			c0-0.01,0-0.01,0.01-0.02c0,0,0,0,0,0.01c0.21-0.35,0.85-0.36,0.96,0.12c0.14,0.62,0.05,1.28-0.01,1.91
			c-0.06,0.65-0.18,1.22-0.62,1.71c-0.12,0.13-0.35,0.09-0.44-0.06c-0.32-0.54-0.3-1.04-0.28-1.66c0.02-0.41,0.07-0.85,0.16-1.27
			c-0.1,0.03-0.19,0.06-0.28,0.11C154.38,146.26,154.35,146.21,154.39,146.19z"/>
		<path class="st2" d="M286.2,231.93c0.13,0.39,0.26,0.78,0.39,1.17c-0.08,0.42-0.13,0.76-0.16,0.96c-0.09,0.66-0.18,1.32-0.27,1.98
			c-0.13-0.51-0.26-1.01-0.39-1.52C285.9,233.66,286.05,232.79,286.2,231.93z"/>
		<path class="st2" d="M284.58,230.14c-0.88-2.87-1.97-5.85-2.23-8.81c-0.01-0.13,0.18-0.17,0.24-0.06
			c1.15,2.14,1.85,4.61,2.52,7.01C284.91,228.9,284.74,229.52,284.58,230.14z"/>
		<path class="st2" d="M282.8,241.59c-0.15-0.81-0.3-1.61-0.47-2.4c-0.65-3.03-1.34-6.05-1.82-9.11c-0.02-0.16,0.19-0.22,0.24-0.07
			c0.89,2.9,1.6,5.87,2.33,8.81C282.98,239.75,282.89,240.67,282.8,241.59z"/>
		<path class="st2" d="M279.72,251.07c-0.29-1.57-0.57-3.13-0.84-4.7c-0.54-3.07-1.2-6.19-1.31-9.31c0-0.05,0.07-0.06,0.09-0.01
			c1.14,3.18,1.7,6.58,2.39,9.88c0.14,0.69,0.34,1.42,0.53,2.17C280.27,249.75,279.99,250.41,279.72,251.07z"/>
		<path class="st2" d="M275.34,257.27c-0.26-1.26-0.48-2.53-0.74-3.76c-0.66-3.08-1.21-6.16-1.67-9.27
			c-0.03-0.17,0.22-0.25,0.27-0.07c0.89,3.01,1.67,6.02,2.36,9.08c0.23,1.01,0.49,2.04,0.74,3.07
			C275.97,256.63,275.65,256.95,275.34,257.27z"/>
		<path class="st2" d="M270.09,262.84c-0.19-1.34-0.34-2.69-0.53-3.99c-0.42-2.77-0.85-5.55-1.03-8.34
			c-0.01-0.17,0.25-0.2,0.29-0.04c0.71,2.68,1.18,5.4,1.67,8.13c0.19,1.03,0.41,2.08,0.62,3.14
			C270.76,262.1,270.43,262.47,270.09,262.84z"/>
		<path class="st2" d="M263.91,268.95c-0.04-0.82-0.07-1.64-0.14-2.4c-0.24-2.73-0.47-5.46-0.48-8.2c0-0.1,0.15-0.12,0.17-0.02
			c0.47,2.45,0.76,4.92,1.02,7.4c0.08,0.76,0.2,1.56,0.33,2.37C264.52,268.38,264.21,268.66,263.91,268.95z"/>
		<path class="st2" d="M258.2,273.31c-0.06-1.12-0.09-2.24-0.16-3.33c-0.17-2.72-0.47-5.48-0.35-8.2c0.01-0.15,0.23-0.19,0.27-0.04
			c0.49,2.43,0.62,4.95,0.85,7.41c0.11,1.15,0.27,2.35,0.4,3.54C258.88,272.92,258.54,273.12,258.2,273.31z"/>
		<path class="st2" d="M249.05,277.05c-0.06-1.06-0.06-2.13-0.12-3.15c-0.15-2.49-0.24-4.99-0.38-7.49c-0.02-0.27,0.39-0.26,0.42,0
			c0.26,2.5,0.56,4.99,0.82,7.49c0.09,0.92,0.24,1.88,0.35,2.85C249.77,276.86,249.41,276.95,249.05,277.05z"/>
		<path class="st2" d="M242.34,278.52c0.01-2.69,0.06-5.38,0.07-8.07c0-0.27,0.4-0.26,0.41,0c0.1,2.55,0.25,5.1,0.34,7.65
			c0,0.09,0.01,0.18,0.01,0.26C242.9,278.41,242.62,278.46,242.34,278.52z"/>
		<path class="st2" d="M234.82,280.19c-0.04-2.3,0.03-4.61,0-6.86c0-0.15,0.21-0.14,0.22,0c0.19,2.17,0.47,4.39,0.66,6.61
			C235.4,280.03,235.11,280.11,234.82,280.19z"/>
		<path class="st2" d="M227.26,281.77c0-0.72,0.02-1.43,0.01-2.13c-0.02-1.81-0.04-3.62-0.08-5.44c-0.01-0.38,0.57-0.38,0.59,0
			c0.09,1.81,0.19,3.62,0.29,5.44c0.04,0.72,0.11,1.46,0.15,2.19C227.9,281.8,227.58,281.79,227.26,281.77z"/>
		<path class="st2" d="M219.82,281.73c-0.02-0.94,0.03-1.89,0.02-2.83c-0.01-1.76-0.11-3.53,0.04-5.28c0.01-0.16,0.27-0.22,0.3-0.04
			c0.22,1.51,0.24,3.04,0.32,4.57c0.06,1.17,0.2,2.37,0.24,3.56C220.43,281.72,220.12,281.72,219.82,281.73z"/>
		<path class="st2" d="M213.41,280.23c-0.38-0.04-0.77-0.08-1.15-0.12c0.03-0.55,0.07-1.09,0.09-1.64c0.09-2.2,0.17-4.4,0.23-6.6
			c0.02-0.51,0.8-0.52,0.8,0c-0.02,1.92-0.04,3.85-0.03,5.77C213.36,278.5,213.4,279.37,213.41,280.23z"/>
		<path class="st2" d="M201.45,278.31c0.03-0.26,0.05-0.52,0.06-0.78c0.12-2.19-0.33-4.32-0.51-6.49c-0.02-0.24,0.32-0.25,0.4-0.05
			c0.77,2.06,0.92,4.36,1,6.54c0.01,0.32,0.02,0.65,0.03,0.99C202.1,278.45,201.77,278.38,201.45,278.31z"/>
		<path class="st2" d="M189.05,275.18c-0.07-2.44-0.1-4.87-0.19-7.31c-0.01-0.36,0.54-0.36,0.56,0c0.17,2.45,0.4,4.88,0.59,7.33
			c0.01,0.08,0.02,0.16,0.02,0.24C189.71,275.35,189.38,275.26,189.05,275.18z"/>
		<path class="st2" d="M178.6,271.89c-0.05-3,0.09-6.02,0.4-8.95c0.01-0.1,0.15-0.1,0.16,0c0.35,3.08,0.53,6.26,0.49,9.41
			C179.3,272.2,178.95,272.05,178.6,271.89z"/>
		<path class="st2" d="M171.52,267.84c0.02-0.49,0.04-0.97,0.04-1.45c0.05-2.47,0-5.06,0.44-7.49c0.01-0.03,0.05-0.03,0.06,0
			c0.38,2.17,0.33,4.46,0.37,6.66c0.02,0.97,0.06,1.95,0.09,2.94C172.19,268.28,171.86,268.06,171.52,267.84z"/>
		<path class="st2" d="M164.08,262.69c0.02-0.36,0.04-0.72,0.04-1.06c0.03-2.25,0.04-4.52,0.29-6.76c0.03-0.28,0.41-0.28,0.44,0
			c0.22,1.96,0.22,3.94,0.27,5.91c0.02,0.86,0.11,1.79,0.14,2.72C164.87,263.22,164.47,262.96,164.08,262.69z"/>
		<path class="st2" d="M157.4,257.82c0.05-2.24,0.23-4.48,0.34-6.71c0.02-0.45,0.71-0.46,0.7,0c-0.04,2.45,0.03,4.91-0.09,7.36
			C158.03,258.25,157.71,258.04,157.4,257.82z"/>
		<path class="st2" d="M151.14,253.16c0.08-2.32,0.29-4.65,0.42-6.95c0.02-0.35,0.54-0.35,0.54,0c-0.01,2.55,0.06,5.13-0.05,7.7
			C151.74,253.66,151.44,253.41,151.14,253.16z"/>
		<path class="st2" d="M142.37,245.16c0.25-1.69,0.55-3.37,0.76-5.02c0.05-0.41,0.7-0.43,0.66,0c-0.17,1.99-0.24,4.06-0.4,6.1
			C143.05,245.88,142.71,245.52,142.37,245.16z"/>
		<path class="st2" d="M136.28,239.26c-0.25-0.26-0.5-0.52-0.75-0.78c0.41-2.09,0.8-4.2,1.34-6.26c0.07-0.28,0.55-0.23,0.52,0.07
			c-0.23,2.03-0.62,4.04-0.96,6.06C136.38,238.65,136.33,238.95,136.28,239.26z"/>
		<path class="st2" d="M128.39,228.83c0.36-2.67,1.03-5.3,1.85-7.82c0.08-0.23,0.43-0.14,0.37,0.1c-0.78,2.96-1.12,5.9-1.29,8.87
			C129.01,229.59,128.7,229.21,128.39,228.83z"/>
		<path class="st2" d="M123.32,222.49c-0.29-0.33-0.59-0.66-0.89-0.99c0.37-2.05,0.91-4.08,1.5-6.04c0.11-0.35,0.65-0.21,0.55,0.15
			C123.9,217.88,123.57,220.18,123.32,222.49z"/>
		<path class="st2" d="M117.35,213.7c-0.05,0.22-0.09,0.44-0.14,0.66c-0.24-0.39-0.48-0.77-0.73-1.14c0.53-2.02,1.06-4.04,1.61-6.06
			c0.12-0.43,0.75-0.25,0.66,0.18C118.29,209.46,117.82,211.58,117.35,213.7z"/>
		<path class="st2" d="M112.15,207.7c-0.26-0.44-0.53-0.88-0.79-1.32c0.1-0.35,0.2-0.7,0.29-1.04c0.8-3.04,1.52-6.13,2.55-9.1
			c0.05-0.15,0.26-0.09,0.23,0.06c-0.44,3.12-1.21,6.21-1.88,9.29C112.41,206.26,112.28,206.98,112.15,207.7z"/>
		<path class="st2" d="M105.51,198.83c-0.27-0.59-0.52-1.19-0.79-1.79c0.1-0.36,0.2-0.71,0.28-1.06c0.67-2.67,1.12-5.66,2.33-8.14
			c0.07-0.14,0.28-0.07,0.28,0.08c-0.03,2.5-0.88,5.08-1.43,7.52C105.94,196.53,105.74,197.68,105.51,198.83z"/>
		<path class="st2" d="M101.77,190.56c-0.04-0.1-0.08-0.19-0.12-0.29c-0.13-0.45-0.26-0.9-0.4-1.36c0.33-0.84,0.67-1.67,0.97-2.48
			c0.85-2.33,1.7-4.67,2.63-6.97c0.1-0.24,0.47-0.15,0.4,0.11c-0.69,2.38-1.48,4.73-2.26,7.08
			C102.59,187.9,102.24,189.27,101.77,190.56z"/>
		<path class="st2" d="M100,177.33c-0.55,1.5-0.71,3.13-1.07,4.67c-0.28-0.66-0.56-1.31-0.85-1.97c0.76-3.22,2.8-6.63,4.63-8.62
			c0.07-0.07,0.18,0.02,0.13,0.1C101.8,173.44,100.77,175.26,100,177.33z"/>
		<path class="st2" d="M97.09,169.9c-0.42,1.06-0.76,2.15-1.08,3.23c-0.19-0.74-0.38-1.49-0.57-2.23c1.39-3.63,3.33-7.13,5.41-9.99
			c0.18-0.25,0.56-0.04,0.41,0.24C99.77,164.04,98.28,166.87,97.09,169.9z"/>
		<path class="st2" d="M95.67,161.09c-0.63,1.63-1.04,3.32-1.48,4.99c-0.2-0.76-0.39-1.53-0.58-2.3c0.36-1.01,0.74-2.01,1.13-2.96
			c1.06-2.58,2.33-5.2,4.16-7.32c0.11-0.12,0.26,0.03,0.21,0.16C98,156.17,96.66,158.53,95.67,161.09z"/>
		<path class="st2" d="M91.89,155.87c-0.05-0.51-0.08-1.01-0.11-1.52c-0.01-0.14-0.01-0.27-0.02-0.41c0.6-1.08,1.31-2.11,1.98-3.11
			c1.26-1.88,2.7-3.97,4.55-5.29c0.08-0.05,0.16,0.05,0.12,0.12c-1.04,2-2.61,3.77-3.85,5.66C93.6,152.78,92.83,154.38,91.89,155.87
			z"/>
		<path class="st2" d="M92.64,142.88c-0.43,0.72-0.84,1.45-1.27,2.18c-0.02-0.65-0.04-1.31-0.06-1.96c0.16-0.24,0.31-0.48,0.46-0.72
			c1.31-2.08,2.6-4.2,4.1-6.14c0.16-0.2,0.46-0.04,0.34,0.2C95.19,138.66,93.89,140.77,92.64,142.88z"/>
		<path class="st2" d="M91.68,130.62c1.66-2.01,3.63-3.94,5.85-5.27c0.2-0.12,0.4,0.15,0.25,0.32c-1.85,1.92-3.78,3.69-5.47,5.76
			c-0.21,0.26-0.41,0.52-0.6,0.79C91.7,131.69,91.7,131.16,91.68,130.62z"/>
		<path class="st2" d="M90.76,117.42c1.5-1.35,3.26-2.59,5.13-3.29c0.21-0.08,0.29,0.22,0.14,0.33c-1.73,1.3-3.48,2.47-5.03,4
			c-0.13,0.13-0.25,0.27-0.38,0.4C90.67,118.39,90.71,117.91,90.76,117.42z"/>
		<path class="st2" d="M92.34,106.09c1.2-0.69,2.5-1.23,3.78-1.41c0.32-0.04,0.53,0.35,0.23,0.54c-1.47,0.92-3.05,1.6-4.48,2.59
			c-0.01,0.01-0.02,0.01-0.03,0.02C92.02,107.26,92.18,106.68,92.34,106.09z"/>
		<path class="st2" d="M93.6,94.87c1.74-1.25,4.06-1.88,5.87-1.48c0.18,0.04,0.18,0.32,0,0.36c-1.64,0.39-3.07,0.77-4.5,1.71
			c-0.51,0.34-0.94,0.75-1.34,1.19C93.64,96.06,93.63,95.46,93.6,94.87z"/>
		<g>
			<path class="st2" d="M265.23,267.56c0.47,0.13,0.94,0.26,1.41,0.38c0.55,0.14,1.11,0.28,1.67,0.41c-0.09-0.96-0.2-1.93-0.3-2.89
				c0.28-0.23,0.57-0.46,0.84-0.7c0.12,1.26,0.23,2.53,0.33,3.79c0.2,0.05,0.4,0.09,0.59,0.14c0-0.04,0-0.09,0-0.13
				c-0.04-1.48-0.1-2.97-0.15-4.46c0.25-0.23,0.5-0.46,0.75-0.69c0,1.44,0,2.87,0.02,4.3c0,0.2,0.01,0.41,0.01,0.61
				c-0.27,0.4-0.53,0.8-0.8,1.19c-0.12-0.03-0.24-0.06-0.36-0.09c0.01,0.18,0.02,0.37,0.03,0.55c-0.24,0.35-0.48,0.7-0.73,1.04
				c-0.05-0.6-0.09-1.2-0.14-1.81c-0.38-0.09-0.75-0.19-1.13-0.28c-0.99-0.24-2-0.46-3.01-0.68
				C264.58,268.02,264.9,267.79,265.23,267.56z"/>
			<path class="st2" d="M271.56,262.22c0.75,0.09,1.51,0.19,2.26,0.29c-0.15,0.27-0.29,0.54-0.44,0.81
				c-0.89-0.09-1.77-0.18-2.65-0.28C271.02,262.77,271.29,262.5,271.56,262.22z"/>
			<path class="st2" d="M84.09,174.81c-0.57,0.99-1.15,1.98-1.71,2.98c0.13,0.54,0.26,1.09,0.39,1.63c0.21-0.41,0.42-0.82,0.64-1.22
				c0.53-0.96,1.09-1.92,1.64-2.88c1.14,0.61,2.27,1.22,3.4,1.83c1.65,0.89,3.29,1.79,4.94,2.68c-0.61,1.22-1.23,2.44-1.84,3.67
				c-0.12,0.24-0.24,0.48-0.36,0.71c-2.77-1.46-5.53-2.94-8.31-4.39c0.11,0.45,0.21,0.89,0.32,1.34c2.54,1.27,5.09,2.52,7.62,3.78
				c-1.24,2.44-2.5,4.88-3.77,7.34c-0.46-0.22-0.91-0.44-1.37-0.65c0.08,0.39,0.16,0.77,0.24,1.16c0.23,0.11,0.47,0.22,0.7,0.33
				c-0.15,0.3-0.3,0.6-0.45,0.9c0.14,0.69,0.27,1.39,0.39,2.08c0.08-0.17,0.16-0.34,0.24-0.51c0.31-0.65,0.62-1.3,0.93-1.95
				c1.38,0.65,2.75,1.31,4.13,1.96c1.06,0.5,2.11,1,3.17,1.5L92,204.08c-1.52-0.68-3.03-1.37-4.55-2.05
				c0.06,0.48,0.12,0.96,0.17,1.44c1.3,0.58,2.59,1.16,3.89,1.73l-1.14,2.64c-0.46,1.07-0.95,2.14-1.43,3.22
				c0.19,0.54,0.39,1.08,0.59,1.63c0.71-1.71,1.39-3.42,2.1-5.1c0.28-0.65,0.55-1.31,0.83-1.96c2.28,1.02,4.57,2.04,6.85,3.05
				c-0.33,0.75-0.66,1.5-0.98,2.25c-1,2.27-1.98,4.53-2.97,6.8c-1.57-0.65-3.14-1.3-4.72-1.95c0.19,0.51,0.39,1.01,0.59,1.52
				c1.22,0.5,2.44,1,3.66,1.51c-0.5,1.15-1.01,2.31-1.51,3.46l-0.27-0.12c0.23,0.59,0.46,1.18,0.69,1.77
				c0.02-0.05,0.05-0.11,0.07-0.16c2.15,0.93,4.31,1.85,6.46,2.78c-1.09,2.7-2.15,5.41-3.17,8.12c0.03,0.14,0.05,0.29,0.08,0.43
				c0.22,0.35,0.44,0.69,0.65,1.04c1.22-3.02,2.39-6.07,3.52-9.14c2.07,0.89,4.15,1.78,6.22,2.68c-1.35,3.7-2.71,7.41-4.05,11.12
				c-1.38-0.63-2.77-1.26-4.15-1.89c0.29,0.54,0.56,1.05,0.81,1.51c0.99,0.44,1.99,0.89,2.98,1.33c-0.29,0.8-0.59,1.6-0.88,2.4
				c0.24,0.42,0.49,0.85,0.73,1.27c0.38-1.08,0.76-2.15,1.14-3.22c2.56,1.15,5.12,2.3,7.68,3.45c0.44,0.2,0.88,0.4,1.32,0.59
				c-0.77,2.59-1.53,5.18-2.25,7.78c-1.26-0.59-2.52-1.18-3.79-1.77c0.36,0.57,0.72,1.13,1.09,1.7c0.8,0.38,1.6,0.76,2.41,1.14
				c-0.16,0.58-0.31,1.16-0.47,1.74c0.25,0.35,0.5,0.7,0.75,1.05c0.24-0.77,0.47-1.55,0.71-2.32c1.99,0.94,3.98,1.89,5.96,2.83
				c-0.38,1.34-0.77,2.69-1.15,4.03c-1.12-0.54-2.23-1.08-3.35-1.62c0.35,0.46,0.7,0.92,1.06,1.37c0.08,0.1,0.17,0.2,0.25,0.3
				c0.59,0.29,1.18,0.57,1.77,0.86c-0.09,0.31-0.17,0.61-0.26,0.92c0.19,0.22,0.39,0.43,0.58,0.65c0.11-0.42,0.23-0.83,0.34-1.25
				c2.45,1.19,4.91,2.38,7.36,3.57c-0.38,1.43-0.75,2.85-1.12,4.28c0.3,0.28,0.6,0.55,0.91,0.83c0.42-1.53,0.85-3.07,1.26-4.61
				c2.79,1.35,5.57,2.69,8.36,4.03c-0.41,1.86-0.81,3.72-1.21,5.58c-1.93-0.89-3.86-1.78-5.79-2.67c0.78,0.68,1.57,1.36,2.36,2.04
				c1.09,0.5,2.17,1,3.25,1.49c-0.08,0.36-0.15,0.73-0.23,1.09c0.33,0.28,0.65,0.56,0.97,0.83c0.1-0.48,0.2-0.97,0.3-1.45
				c2.22,1.01,4.45,2.01,6.68,3.01c-0.24,1.29-0.47,2.58-0.69,3.87c0.28,0.25,0.57,0.5,0.85,0.75c0.31-1.38,0.6-2.77,0.87-4.16
				c1.8,0.81,3.61,1.61,5.42,2.41c-0.28,2.14-0.57,4.28-0.85,6.42c0.25,0.21,0.49,0.41,0.74,0.62c0.35-2.21,0.7-4.41,1.06-6.62
				c2.51,1.11,5.02,2.22,7.54,3.32c-0.36,2.07-0.7,4.14-1.05,6.21c0.2,0.06,0.4,0.11,0.6,0.17c0.39-2.03,0.77-4.05,1.15-6.08
				c2.8,1.22,5.6,2.44,8.4,3.65c-0.31,1.92-0.61,3.83-0.91,5.75c0.34,0.13,0.68,0.25,1.02,0.37c0.34-1.88,0.67-3.76,1-5.65
				c2.92,1.26,5.85,2.51,8.77,3.75c-0.19,1.57-0.37,3.15-0.55,4.72c0.21,0.05,0.42,0.11,0.62,0.16c0.2-1.53,0.42-3.06,0.62-4.59
				c3.02,1.28,6.04,2.55,9.06,3.82c-0.13,0.96-0.25,1.93-0.37,2.89c0.23,0.04,0.47,0.09,0.7,0.13c0.13-0.91,0.26-1.81,0.39-2.72
				c3.17,1.32,6.35,2.64,9.52,3.94c0.65,0.05,1.3,0.1,1.96,0.15c-0.13-0.05-0.26-0.11-0.4-0.16c0.19-1.12,0.36-2.25,0.54-3.38
				c2.82,1.33,5.65,2.66,8.47,3.99c0.47,0.02,0.93,0.03,1.4,0.05l-0.08-0.04c0.23-1.86,0.43-3.72,0.63-5.58
				c2.6,1.16,5.2,2.3,7.82,3.42c-0.01,0.15-0.01,0.31-0.02,0.46c0.56-0.13,1.13-0.26,1.69-0.38c-0.3-0.13-0.6-0.25-0.9-0.39
				c0.17-3.61,0.35-7.22,0.52-10.84c2.45,1.1,4.91,2.2,7.36,3.29c0,2.17,0,4.34,0,6.51c0.22-0.09,0.45-0.18,0.67-0.27
				c0.03-1.97,0.06-3.93,0.08-5.9c2.25,1.01,4.51,2.02,6.76,3.02c0.5-0.18,1.01-0.36,1.53-0.51c0.42-4.74,0.74-9.49,0.95-14.25
				c1.9,0.83,3.8,1.66,5.7,2.48c0,0.03,0,0.06,0,0.1c-0.09,3.23-0.19,6.47-0.28,9.7c0.19-0.09,0.39-0.18,0.58-0.27
				c0.12-3.08,0.25-6.16,0.36-9.24c2.53,1.1,5.07,2.2,7.6,3.29c-0.02,0.41-0.06,0.82-0.08,1.23c0.29-0.2,0.59-0.4,0.88-0.6
				c0.01-0.09,0.01-0.19,0.02-0.28c0.08,0.03,0.16,0.07,0.24,0.1c0.33-0.22,0.65-0.45,0.98-0.67c-0.39-0.17-0.77-0.34-1.16-0.51
				c0.08-1.43,0.15-2.85,0.2-4.27c0.04-1.08,0.06-2.16,0.09-3.24c1.3,0.53,2.6,1.06,3.91,1.58c0,0.05,0,0.09,0,0.14
				c0,1.42-0.03,2.84-0.07,4.26c0.18-0.12,0.37-0.25,0.55-0.37c0.07-0.05,0.14-0.09,0.21-0.14c0.03-1.2,0.05-2.4,0.05-3.59
				c1.19,0.48,2.38,0.95,3.57,1.42c0.26-0.14,0.51-0.29,0.77-0.43c-1.45-0.61-2.9-1.22-4.35-1.82c0-1.84-0.01-3.68-0.05-5.53
				c1.54,0.69,3.08,1.38,4.62,2.07c0.04,1.71,0.05,3.43,0.03,5.14c0.22-0.12,0.44-0.25,0.66-0.37c0.04-0.08,0.09-0.16,0.13-0.24
				c0.04-1.38,0.07-2.75,0.07-4.13c0.83,0.37,1.65,0.73,2.48,1.1c0.24-0.28,0.48-0.56,0.73-0.84c-1.07-0.49-2.15-0.98-3.22-1.47
				c-0.01-1.1-0.05-2.2-0.09-3.3c1.83,0.35,3.67,0.64,5.45,1c0.15,0.03,0.3,0.06,0.45,0.09c0.01,0.19,0.01,0.38,0.02,0.57
				c0.33-0.41,0.66-0.82,0.99-1.23c-0.09-0.02-0.19-0.04-0.28-0.06c-0.09-2.48-0.21-4.98-0.4-7.47c-0.19,0.13-0.37,0.25-0.56,0.38
				c-0.1,0.09-0.19,0.18-0.29,0.27c0.19,2.22,0.36,4.44,0.47,6.66c-0.33-0.07-0.67-0.14-1-0.21c-1.62-0.34-3.26-0.75-4.9-1.11
				c-0.02-0.36-0.05-0.72-0.07-1.08c-0.31,0.2-0.62,0.4-0.94,0.59c0.01,0.09,0.01,0.19,0.02,0.28c-0.13-0.03-0.25-0.05-0.38-0.07
				c-0.46,0.27-0.92,0.53-1.39,0.78c0.6,0.15,1.2,0.29,1.82,0.41c0.05,1.02,0.11,2.05,0.15,3.07c-1.54-0.7-3.07-1.4-4.61-2.09
				c0-0.02,0-0.04,0-0.06c-0.48,0.22-0.96,0.44-1.45,0.65c0.21,0.1,0.43,0.19,0.64,0.29c0.08,1.86,0.12,3.72,0.14,5.59
				c-1.29-0.54-2.58-1.09-3.87-1.63c0.02-1.01,0.03-2.01,0.04-3.02c-0.3,0.11-0.6,0.22-0.9,0.33c0,0.78,0.01,1.55,0,2.33
				c-1.03-0.43-2.05-0.85-3.08-1.28c-0.43,0.14-0.86,0.28-1.3,0.41c1.45,0.59,2.9,1.18,4.35,1.77c-0.02,1.19-0.03,2.39-0.07,3.58
				c-0.04,1.31-0.11,2.61-0.18,3.91c-2.53-1.11-5.07-2.22-7.61-3.32c0.06-1.66,0.13-3.32,0.2-4.98c-0.25,0.06-0.5,0.13-0.75,0.19
				c-0.04,1.5-0.08,3-0.12,4.51c-1.89-0.82-3.78-1.65-5.68-2.47c0.01-0.34,0.02-0.68,0.03-1.02c-0.35,0.04-0.7,0.08-1.04,0.11
				c0,0.15-0.01,0.31-0.01,0.46c-0.29-0.13-0.58-0.25-0.86-0.37c-0.75,0.06-1.5,0.11-2.26,0.15c1.03,0.45,2.05,0.9,3.08,1.34
				c-0.18,4.98-0.43,9.95-0.78,14.91c-2.47-1.13-4.95-2.25-7.43-3.38c0.06-4.26,0.1-8.52,0.13-12.78c-0.28,0-0.56-0.01-0.84-0.01
				c-0.02,4.15-0.04,8.3-0.05,12.45c-2.44-1.11-4.89-2.22-7.33-3.33c0.01-0.12,0.01-0.24,0.02-0.36c0.14-3.02,0.31-6.06,0.47-9.09
				c-0.35-0.04-0.71-0.08-1.06-0.13c-0.09,3.07-0.19,6.13-0.3,9.19c-2.38-1.08-4.77-2.17-7.15-3.25c0.22-2.67,0.41-5.36,0.59-8.06
				c-0.14-0.08-0.27-0.15-0.4-0.23c-0.22,0.01-0.44,0.02-0.66,0.02c-0.1,2.63-0.22,5.25-0.38,7.88c-2.68-1.22-5.35-2.44-8.03-3.65
				c0.25-1.67,0.5-3.35,0.76-5.02c-0.33-0.07-0.67-0.15-1-0.22c-0.23,1.6-0.46,3.21-0.69,4.82c-0.64-0.29-1.27-0.58-1.9-0.87
				c-2.73-1.24-5.46-2.47-8.19-3.7c0.19-1.22,0.37-2.44,0.55-3.65c-0.41-0.17-0.81-0.34-1.21-0.52c-0.16,1.22-0.31,2.44-0.46,3.66
				c-2.96-1.34-5.92-2.68-8.88-4.02c0.17-1.26,0.33-2.53,0.5-3.8c-0.35-0.17-0.71-0.35-1.06-0.53c-0.16,1.29-0.32,2.57-0.47,3.86
				c-2.58-1.17-5.17-2.34-7.75-3.51c0.25-1.55,0.49-3.1,0.73-4.65c-0.33-0.23-0.66-0.46-0.98-0.69c-0.29,1.61-0.58,3.23-0.85,4.84
				c-2.65-1.2-5.3-2.4-7.95-3.6c0.37-2,0.72-4.01,1.06-6.01c-0.31-0.18-0.62-0.36-0.93-0.55c-0.38,2.04-0.75,4.08-1.11,6.12
				c-2.65-1.2-5.3-2.4-7.96-3.59c0.38-2.64,0.73-5.27,1.08-7.91c-0.34-0.23-0.68-0.46-1.03-0.69c-0.43,2.69-0.85,5.37-1.25,8.06
				c-1.47-0.66-2.94-1.33-4.41-1.99c0.59-3.04,1.15-6.08,1.68-9.12c-0.21-0.18-0.41-0.37-0.6-0.56c-0.66,3.1-1.29,6.21-1.89,9.32
				c-2.2-1-4.41-1.99-6.62-2.99c0.85-4.14,1.71-8.28,2.53-12.42c0.39,0.17,0.78,0.34,1.17,0.51c-0.56-0.58-1.1-1.18-1.61-1.81v0.01
				c-2.43-1.06-4.87-2.12-7.3-3.17c0.35-1.37,0.7-2.73,1.05-4.1c-0.14-0.15-0.28-0.29-0.43-0.44c-0.4,1.43-0.8,2.86-1.2,4.29
				c-2.51-1.09-5.01-2.18-7.52-3.27c0.4-1.45,0.8-2.9,1.19-4.35c2.38,0.98,4.77,1.96,7.15,2.95c-0.54-0.58-1.08-1.18-1.56-1.8
				c-1.77-0.73-3.54-1.47-5.3-2.2c0.28-1.03,0.56-2.05,0.84-3.08c-0.07-0.14-0.15-0.28-0.22-0.42l-0.96,3.36
				c-2.04-0.85-4.08-1.69-6.12-2.54c0.78-2.8,1.57-5.6,2.35-8.41c-0.17-0.2-0.34-0.4-0.51-0.6c-0.87,2.89-1.73,5.79-2.59,8.69
				c-2.7-1.12-5.41-2.24-8.11-3.36c1.05-2.98,2.1-5.96,3.15-8.94c2.41,1.07,4.81,2.14,7.22,3.22c-0.53-0.63-1.07-1.26-1.6-1.89
				l-2.63-1.18c-0.88-0.39-1.75-0.79-2.63-1.18c0.34-0.98,0.68-1.97,1.02-2.95c-0.17-0.22-0.32-0.44-0.49-0.66
				c-0.41,1.1-0.83,2.2-1.24,3.3c-2.05-0.92-4.1-1.84-6.14-2.77c0.86-2.29,1.72-4.57,2.58-6.86c0.23,0.11,0.46,0.22,0.7,0.32
				c-0.29-0.46-0.58-0.92-0.87-1.38c-0.01,0.02-0.02,0.05-0.03,0.07c-1.96-0.95-3.92-1.9-5.89-2.84c0.56-1.32,1.12-2.65,1.69-3.97
				c0.01-0.02,0.02-0.05,0.03-0.07c-0.16-0.26-0.31-0.53-0.46-0.8c-0.29,0.69-0.59,1.39-0.89,2.07c-0.36,0.81-0.71,1.62-1.07,2.43
				c-2.29-1.1-4.58-2.2-6.87-3.29l0.44-1.05c0.9-2.12,1.81-4.24,2.72-6.37c0.99,0.5,1.97,1,2.96,1.5c-0.2-0.35-0.38-0.7-0.58-1.06
				c-0.7-0.36-1.41-0.73-2.11-1.09c0.22-0.52,0.44-1.04,0.66-1.55c-0.07-0.14-0.15-0.27-0.22-0.41c-0.11-0.2-0.22-0.42-0.32-0.64
				c-0.31,0.72-0.63,1.45-0.94,2.17c-1.33-0.69-2.67-1.37-4-2.07c-0.94-0.49-1.89-0.98-2.83-1.48c0.23-0.49,0.47-0.97,0.7-1.46
				c0.47-0.99,0.93-1.98,1.4-2.96c1.38,0.75,2.75,1.49,4.13,2.24c-0.1-0.26-0.19-0.52-0.28-0.78c-1.2-0.67-2.39-1.34-3.59-2.02
				c0.72-1.53,1.44-3.06,2.17-4.59c-0.04-0.5-0.05-1-0.04-1.5c-0.03,0.05-0.06,0.11-0.08,0.16c-2.53-1.65-5.01-3.36-7.45-5.14
				c0.25-0.41,0.49-0.82,0.75-1.23c0.7-1.12,1.42-2.22,2.13-3.33c1.09,0.86,2.18,1.71,3.28,2.55c-0.05-0.3-0.11-0.61-0.16-0.91
				c-0.93-0.73-1.86-1.44-2.78-2.18c0.63-0.97,1.27-1.92,1.9-2.88c0.04,0.03,0.08,0.06,0.12,0.09c-0.07-0.55-0.14-1.1-0.21-1.65
				c-0.13,0.18-0.26,0.37-0.38,0.55c-1.68-1.35-3.37-2.69-5.05-4.03c1.16-1.68,2.37-3.33,3.6-4.97c0.31,0.22,0.63,0.43,0.95,0.65
				c-0.03-0.28-0.06-0.56-0.09-0.84c-0.15-0.11-0.3-0.22-0.45-0.33c0.12-0.16,0.25-0.31,0.37-0.47c-0.04-0.34-0.07-0.68-0.11-1.02
				c-0.29,0.35-0.59,0.69-0.87,1.05c-1.61-1.19-3.18-2.43-4.74-3.69c0.88-1.11,1.78-2.2,2.68-3.29c0.85,0.71,1.71,1.4,2.58,2.07
				c-0.03-0.35-0.06-0.7-0.08-1.05c-0.66-0.54-1.32-1.09-1.97-1.65c0.56-0.67,1.15-1.32,1.73-1.97c-0.02-0.41-0.04-0.81-0.06-1.22
				c-0.78,0.87-1.56,1.73-2.33,2.61c-0.61-0.53-1.23-1.06-1.82-1.61c-0.46-0.42-0.91-0.85-1.35-1.29c0.2-0.27,0.39-0.54,0.59-0.81
				c0.75-1,1.5-2,2.25-3.01c0.04,0.04,0.08,0.08,0.12,0.12c0.81,0.84,1.64,1.66,2.47,2.48c-0.01-0.35-0.02-0.7-0.03-1.05
				c-0.71-0.71-1.41-1.42-2.1-2.16c0.5-0.66,0.99-1.33,1.49-1.99c0.18,0.19,0.36,0.38,0.54,0.57c0-0.3-0.01-0.59-0.01-0.89
				c-0.05-0.06-0.11-0.12-0.17-0.18c0.05-0.07,0.11-0.14,0.16-0.22c0-0.51,0.01-1.01,0.02-1.52c-0.26,0.34-0.52,0.69-0.78,1.03
				c-1.27-1.46-2.49-2.96-3.62-4.56c-0.13-0.18-0.25-0.37-0.38-0.56c0.2-0.25,0.4-0.51,0.61-0.76c0.75-0.91,1.53-1.8,2.31-2.67
				c0.65,0.88,1.32,1.75,2.01,2.6c0.02-0.29,0.03-0.58,0.05-0.87c-0.56-0.72-1.11-1.44-1.65-2.17c0.64-0.71,1.31-1.39,1.98-2.08
				c0.03-0.27,0.06-0.54,0.09-0.82c-0.82,0.8-1.62,1.61-2.4,2.45c-0.59-0.79-1.16-1.59-1.72-2.4c-0.36-0.52-0.7-1.06-1.04-1.59
				c0.5-0.59,0.99-1.18,1.52-1.74c0.08-0.08,0.16-0.16,0.24-0.24c0.7,0.72,1.39,1.44,2.09,2.15c0.44,0.44,0.87,0.88,1.31,1.32
				c0.03-0.25,0.05-0.5,0.08-0.75c-0.98-1.09-1.98-2.16-2.99-3.22c0.9-0.92,1.84-1.79,2.79-2.64c0.3,0.31,0.61,0.62,0.87,0.89
				c0.05-0.29,0.09-0.58,0.14-0.87c-0.17-0.16-0.34-0.32-0.51-0.47c0.23-0.21,0.46-0.41,0.69-0.62c0.06-0.36,0.14-0.72,0.21-1.08
				c-0.5,0.38-1,0.78-1.49,1.2c-0.27-0.22-0.48-0.39-0.55-0.45c-0.28-0.27-0.55-0.55-0.83-0.82c0.72-0.9,1.44-1.8,2.18-2.67
				c0.17-0.2-0.12-0.5-0.3-0.3c-0.74,0.86-1.51,1.72-2.28,2.57c-0.6-0.59-1.21-1.19-1.81-1.78v0.85c0.48,0.45,0.95,0.9,1.43,1.35
				c-0.84,0.93-1.67,1.86-2.46,2.82c-0.22-0.23-0.43-0.46-0.65-0.68c-0.22-0.23-0.44-0.47-0.65-0.71c-0.05,0.33-0.09,0.67-0.14,1
				c0.28,0.28,0.57,0.56,0.84,0.84c0.04,0.05,0.09,0.09,0.13,0.14c-0.38,0.47-0.75,0.93-1.1,1.41c-0.16,0.23,0.19,0.48,0.38,0.29
				c0.4-0.4,0.78-0.83,1.16-1.26c0.3,0.31,0.61,0.62,0.91,0.93c-0.25,0.26-0.5,0.52-0.75,0.78c-0.31,0.32-0.63,0.66-0.96,1
				c-0.32-0.51-0.63-1.03-0.95-1.54c-0.05,0.39-0.1,0.77-0.15,1.16c0.2,0.3,0.4,0.6,0.6,0.9c-0.27,0.28-0.53,0.58-0.79,0.86
				c-0.06,0.6-0.11,1.2-0.16,1.81c0.49-0.64,0.98-1.28,1.49-1.9c0.47,0.68,0.95,1.35,1.42,2.01c0.45,0.63,0.91,1.26,1.38,1.89
				c-1.01,1.1-1.99,2.22-2.93,3.37c-0.56-0.84-1.08-1.69-1.59-2.56c-0.04,0.44-0.06,0.88-0.11,1.32c0.4,0.61,0.81,1.2,1.23,1.79
				c-0.53,0.66-1.09,1.35-1.66,2.05c0-0.01-0.01-0.01-0.01-0.02c-0.06,0.49-0.13,0.99-0.2,1.48l0.01-0.01
				c1.38,1.63,2.85,3.19,4.29,4.69c-0.81,1.07-1.62,2.13-2.43,3.2c-0.15,0.2-0.31,0.4-0.46,0.6c-0.8-0.8-1.57-1.62-2.34-2.44
				c-0.07,0.45-0.15,0.9-0.22,1.36c0.65,0.63,1.3,1.25,1.97,1.86c-0.87,1.12-1.75,2.24-2.63,3.37c-0.02-0.01-0.03-0.03-0.05-0.04
				c0.04,0.62,0.09,1.24,0.12,1.86c0.08-0.11,0.16-0.21,0.24-0.32c1.01,0.83,2.02,1.65,3.02,2.45c-0.45,0.56-0.92,1.12-1.36,1.69
				c-0.55,0.7-1.11,1.42-1.67,2.14c0.01,0.79,0.02,1.59,0.02,2.38c0.75,0.56,1.5,1.12,2.23,1.68c0.74,0.57,1.49,1.14,2.24,1.71
				c-0.19,0.27-0.39,0.54-0.58,0.81c-0.41,0.59-0.8,1.19-1.2,1.79c-0.91-0.76-1.8-1.54-2.7-2.32c0,0.29-0.01,0.58-0.01,0.87
				c0.78,0.67,1.56,1.34,2.35,2c-0.86,1.29-1.69,2.59-2.51,3.9c-0.03,0.79-0.06,1.58-0.09,2.37c1.67,1.26,3.35,2.48,5.01,3.68
				c-1.11,1.8-2.2,3.6-3.26,5.42c-0.71-0.4-1.42-0.81-2.13-1.21c-0.01,0.21-0.02,0.43-0.03,0.64c-0.01,0.11-0.01,0.22-0.02,0.33
				C82.9,174.18,83.5,174.5,84.09,174.81z M88.23,113.56c0.83-0.95,1.63-1.93,2.42-2.91c0.27,0.25,0.53,0.51,0.8,0.76
				c0.05,0.05,0.23,0.23,0.47,0.47c-0.96,0.85-1.89,1.73-2.78,2.64C88.84,114.2,88.54,113.88,88.23,113.56z M89.28,133.49
				c-1.44-1.6-2.78-3.29-4.12-4.97c0.52-0.71,1.05-1.41,1.59-2.1c0.22,0.31,0.45,0.62,0.68,0.92c1.07,1.42,2.19,2.82,3.37,4.16
				C90.29,132.16,89.79,132.82,89.28,133.49z M106.71,210.72c-2.04-0.92-4.08-1.84-6.12-2.77c0.97-2.28,1.94-4.56,2.9-6.84
				c1.97,0.93,3.95,1.87,5.93,2.79C108.51,206.18,107.61,208.45,106.71,210.72z M109.81,223.71c-2.08-0.86-4.17-1.73-6.25-2.59
				c0.62-1.7,1.25-3.4,1.89-5.09c0.5-1.32,0.99-2.64,1.49-3.96c2.05,0.91,4.11,1.83,6.16,2.74
				C112,217.77,110.91,220.74,109.81,223.71z M118.46,228.5c-0.41,1.39-0.83,2.77-1.24,4.16c-2.77-1.21-5.54-2.41-8.32-3.62
				c0.24-0.67,0.48-1.33,0.71-1.99c0.23-0.64,0.45-1.28,0.67-1.92c0.7,0.29,1.39,0.57,2.09,0.86
				C114.41,226.83,116.43,227.66,118.46,228.5z M126.91,261.57c0.72-2.74,1.43-5.48,2.13-8.22c2.6,1.17,5.2,2.34,7.8,3.51
				c-0.39,1.83-0.77,3.66-1.16,5.49c-0.22,1.03-0.45,2.06-0.67,3.09C132.32,264.15,129.61,262.86,126.91,261.57z M135.67,266.88
				c2.22,1.04,4.44,2.09,6.66,3.13c-0.3,1.48-0.6,2.96-0.9,4.45c-2.21-1.07-4.42-2.14-6.63-3.2
				C135.08,269.8,135.38,268.34,135.67,266.88z M125.9,261.09c-2.45-1.17-4.9-2.34-7.36-3.5c0.73-2.66,1.47-5.32,2.2-7.98
				c2.47,1.11,4.94,2.22,7.41,3.33C127.39,255.66,126.64,258.37,125.9,261.09z M120.46,248.42c-1.11-0.5-2.22-1-3.34-1.51
				c-0.88-0.4-1.75-0.79-2.63-1.19c0.91-3.25,1.81-6.49,2.73-9.73c0.19-0.65,0.37-1.3,0.55-1.95c1.1,0.47,2.19,0.95,3.29,1.42
				c0.92,0.4,1.84,0.8,2.76,1.2C122.7,240.58,121.58,244.5,120.46,248.42z M124.11,235.66c-2.02-0.88-4.03-1.76-6.05-2.63
				c0.4-1.4,0.78-2.81,1.17-4.21c2.04,0.84,4.08,1.68,6.12,2.52C124.94,232.78,124.52,234.22,124.11,235.66z M131.75,240.1
				c-1.12,3.97-2.24,7.93-3.35,11.9c-2.47-1.11-4.94-2.23-7.4-3.34c0-0.01,0.01-0.03,0.01-0.04c1.08-3.93,2.15-7.85,3.23-11.78
				C126.74,237.93,129.24,239.02,131.75,240.1z M137.05,255.91c-2.59-1.17-5.17-2.33-7.76-3.5c1.03-4.01,2.04-8.03,3.06-12.04
				c2.44,1.06,4.89,2.12,7.33,3.18C138.78,247.66,137.92,251.79,137.05,255.91z M144.25,260.2c-0.42,2.2-0.84,4.39-1.27,6.58
				c-0.15,0.75-0.3,1.5-0.45,2.25c-2.22-1.06-4.44-2.12-6.65-3.18c0.22-1.09,0.43-2.18,0.65-3.27c0.36-1.79,0.73-3.58,1.1-5.37
				C139.84,258.21,142.04,259.2,144.25,260.2z M149.51,262.56c-0.45,3.05-0.89,6.11-1.32,9.16c-1.61-0.76-3.21-1.53-4.82-2.29
				c0.2-1.09,0.4-2.17,0.6-3.25c0.36-1.87,0.72-3.74,1.09-5.61C146.54,261.23,148.03,261.89,149.51,262.56z M149.21,273.25
				c2.56,1.2,5.13,2.41,7.69,3.61c-0.21,1.23-0.42,2.46-0.64,3.69c-0.06,0.33-0.11,0.65-0.17,0.98c-2.04-0.98-4.07-1.96-6.11-2.94
				c-0.49-0.24-0.99-0.48-1.48-0.72C148.74,276.33,148.97,274.79,149.21,273.25z M158.65,266.66c-0.54,3.09-1.06,6.18-1.59,9.27
				c-0.15-0.07-0.29-0.14-0.44-0.21c-2.42-1.14-4.84-2.3-7.26-3.45c0.47-3.06,0.92-6.11,1.36-9.17
				C153.36,264.29,156,265.48,158.65,266.66z M167.58,270.67c-0.53,3.17-1.05,6.35-1.58,9.51c-2.7-1.29-5.41-2.58-8.12-3.86
				c0.58-3.07,1.15-6.15,1.72-9.23C162.27,268.29,164.93,269.48,167.58,270.67z M176.48,274.67c-0.38,3.33-0.76,6.66-1.16,9.97
				c-2.74-1.31-5.47-2.62-8.2-3.92c0.51-3.18,1.05-6.36,1.57-9.55C171.29,272.34,173.89,273.5,176.48,274.67z M186.4,279.12
				c-0.42,3.41-0.82,6.82-1.26,10.2c-3-1.42-6-2.85-8.99-4.28c0.44-3.3,0.9-6.6,1.35-9.91C180.47,276.46,183.43,277.79,186.4,279.12
				z M197.6,284.13c-0.26,1.79-0.52,3.57-0.77,5.36c-0.23,1.66-0.47,3.32-0.71,4.98c-3.39-1.57-6.77-3.16-10.15-4.76
				c0.01-0.06,0.02-0.12,0.03-0.19c0.47-3.3,0.98-6.6,1.49-9.92C190.86,281.12,194.23,282.63,197.6,284.13z M206.5,299.22
				c0.27-2.57,0.52-5.15,0.74-7.73c0.08-0.98,0.16-1.96,0.24-2.94c2.4,1.07,4.79,2.14,7.19,3.22c0,0.07,0,0.13-0.01,0.2
				c-0.13,3.57-0.26,7.14-0.4,10.71C211.67,301.54,209.08,300.38,206.5,299.22z M205.74,298.88c-2.92-1.32-5.84-2.65-8.75-4
				c0.34-2.28,0.67-4.56,1.01-6.83c0.18-1.17,0.35-2.33,0.53-3.5c2.7,1.21,5.4,2.41,8.1,3.62c-0.07,1.11-0.14,2.21-0.23,3.32
				C206.21,293.96,205.98,296.42,205.74,298.88z M196.1,300.8c0.27-1.74,0.53-3.49,0.79-5.24c2.92,1.34,5.85,2.67,8.78,3.98
				c-0.19,1.86-0.38,3.72-0.58,5.58C202.09,303.68,199.1,302.24,196.1,300.8z M195.27,300.4c-3.37-1.62-6.75-3.24-10.12-4.87
				c0.24-1.69,0.49-3.39,0.73-5.08c3.38,1.58,6.76,3.15,10.15,4.71C195.77,296.91,195.51,298.66,195.27,300.4z M184.47,300.21
				c0.19-1.31,0.37-2.63,0.56-3.94c3.38,1.6,6.76,3.2,10.14,4.79c-0.16,1.15-0.33,2.29-0.49,3.44
				C191.28,303.08,187.87,301.65,184.47,300.21z M184.37,295.16c-3-1.44-5.99-2.89-8.99-4.33c0.22-1.66,0.44-3.32,0.66-4.99
				c3,1.41,6,2.82,9,4.23c-0.01,0.06-0.02,0.13-0.02,0.19C184.8,291.89,184.58,293.53,184.37,295.16z M174.69,296.04
				c0.19-1.47,0.39-2.93,0.58-4.4c3,1.42,6,2.85,9,4.27c-0.18,1.33-0.35,2.66-0.53,3.99C180.72,298.62,177.7,297.33,174.69,296.04z
				 M166.18,286.4c0.27-1.6,0.53-3.2,0.8-4.81c2.75,1.29,5.5,2.58,8.25,3.87c-0.2,1.67-0.4,3.34-0.6,5
				C171.81,289.11,168.99,287.75,166.18,286.4z M165.26,291.97c0.27-1.57,0.52-3.14,0.78-4.71c2.83,1.35,5.66,2.69,8.49,4.03
				c-0.18,1.48-0.36,2.97-0.54,4.45C171.08,294.49,168.17,293.23,165.26,291.97z M165.07,285.86c-2.74-1.32-5.48-2.64-8.22-3.96
				c0.12-0.66,0.24-1.32,0.37-1.98c0.16-0.89,0.33-1.79,0.5-2.68c2.71,1.27,5.43,2.55,8.14,3.82c-0.02,0.14-0.05,0.29-0.07,0.43
				C165.55,282.95,165.31,284.41,165.07,285.86z M155.77,287.81c0.31-1.67,0.62-3.34,0.93-5.01c2.75,1.31,5.49,2.62,8.24,3.93
				c-0.26,1.59-0.53,3.17-0.78,4.76C161.35,290.27,158.56,289.04,155.77,287.81z M147.51,284.15c0.28-1.78,0.56-3.56,0.84-5.34
				c2.53,1.21,5.05,2.42,7.58,3.63c-0.29,1.69-0.59,3.37-0.88,5.06c-2.2-0.97-4.4-1.94-6.6-2.92
				C148.14,284.44,147.83,284.29,147.51,284.15z M142.38,274.92c0.27-1.5,0.54-3,0.81-4.5c1.62,0.76,3.24,1.52,4.86,2.28
				c-0.21,1.55-0.43,3.1-0.64,4.64C145.73,276.54,144.05,275.73,142.38,274.92z M141.19,281.31c0.36-1.81,0.69-3.62,1.02-5.44
				c1.69,0.81,3.38,1.62,5.07,2.43c-0.24,1.81-0.49,3.61-0.73,5.42C144.76,282.92,142.97,282.11,141.19,281.31z M134.6,272.21
				c2.21,1.06,4.42,2.13,6.63,3.2c-0.37,1.81-0.74,3.62-1.09,5.43c-2.22-1.01-4.44-2.02-6.66-3.03
				C133.86,275.94,134.23,274.07,134.6,272.21z M125.54,266.79c0.37-1.39,0.73-2.77,1.1-4.16c2.72,1.28,5.44,2.57,8.16,3.84
				c-0.31,1.44-0.62,2.89-0.94,4.33C131.08,269.46,128.31,268.13,125.54,266.79z M118.24,258.67c2.45,1.16,4.91,2.31,7.37,3.47
				c-0.37,1.38-0.76,2.76-1.12,4.14c-2.45-1.18-4.91-2.37-7.36-3.55C117.5,261.38,117.87,260.02,118.24,258.67z M114.22,246.68
				c1.99,0.9,3.98,1.79,5.97,2.69c-0.76,2.64-1.51,5.29-2.26,7.93c-1.98-0.94-3.97-1.87-5.95-2.81
				C112.75,251.9,113.49,249.29,114.22,246.68z M108.55,230.06c2.8,1.2,5.59,2.41,8.38,3.62c-0.2,0.69-0.41,1.38-0.61,2.07
				c-0.93,3.18-1.88,6.35-2.82,9.53c-2.98-1.35-5.96-2.7-8.94-4.05C105.89,237.5,107.22,233.78,108.55,230.06z M101.79,225.94
				c0.46-1.25,0.91-2.5,1.37-3.74c2.09,0.86,4.17,1.72,6.26,2.58c-0.25,0.67-0.5,1.34-0.74,2.02c-0.23,0.62-0.45,1.24-0.68,1.86
				C105.93,227.75,103.86,226.85,101.79,225.94z M95.82,219.18c2.15,0.88,4.29,1.77,6.44,2.65c-0.5,1.22-1,2.44-1.49,3.66
				c-2.14-0.94-4.29-1.88-6.43-2.82C94.83,221.51,95.32,220.34,95.82,219.18z M99.8,209.8c0.11-0.26,0.22-0.51,0.33-0.77
				c2.05,0.91,4.11,1.83,6.16,2.74c-0.53,1.35-1.07,2.69-1.61,4.04c-0.65,1.65-1.32,3.29-1.99,4.94c-2.14-0.89-4.28-1.77-6.42-2.66
				C97.45,215.34,98.63,212.57,99.8,209.8z M95.9,197.52c2.29,1.09,4.58,2.17,6.88,3.26c-1,2.27-1.99,4.55-2.99,6.82
				c-2.28-1.03-4.57-2.06-6.85-3.1L95.9,197.52z M91.69,185.38c0.94,0.47,1.87,0.93,2.8,1.4c1.37,0.69,2.73,1.38,4.09,2.08
				c-1.02,2.37-2.03,4.74-3.06,7.1l-0.14,0.32c-1.28-0.61-2.56-1.23-3.84-1.84c-1.14-0.55-2.28-1.09-3.42-1.64
				C89.32,190.33,90.51,187.86,91.69,185.38z M86.51,145.39c-0.17-0.14-0.35-0.28-0.52-0.43c-0.83-0.7-1.64-1.42-2.44-2.15
				c0.84-1.16,1.68-2.32,2.53-3.48c0.8,0.72,1.61,1.43,2.41,2.12c0.25,0.22,0.51,0.43,0.77,0.65
				C88.32,143.19,87.41,144.29,86.51,145.39z M87.88,155.04c-0.73-0.58-1.45-1.16-2.18-1.74c-0.83-0.66-1.66-1.33-2.49-2.01
				c0.73-1.02,1.47-2.03,2.23-3.02c0.44-0.57,0.89-1.13,1.34-1.7c1.57,1.24,3.15,2.46,4.78,3.62
				C90.29,151.77,89.06,153.39,87.88,155.04z M91.43,162.9c-1.64-1.32-3.26-2.65-4.87-4c-0.04-0.03-0.07-0.06-0.11-0.1
				c0.42-0.65,0.83-1.31,1.27-1.95c0.16-0.24,0.33-0.48,0.5-0.72c1.71,1.31,3.42,2.62,5.14,3.92C92.71,161,92.06,161.94,91.43,162.9
				z M88.45,167.54c-0.1,0.16-0.19,0.32-0.29,0.47c-1.7-1.26-3.38-2.54-5.04-3.86c0.96-1.62,1.95-3.22,2.97-4.8
				c0.42,0.35,0.83,0.7,1.25,1.04c1.24,1.02,2.49,2.03,3.75,3.03C90.19,164.79,89.31,166.16,88.45,167.54z M85.43,174.63
				c1.03-1.8,2.09-3.59,3.16-5.36c2.47,1.76,4.99,3.45,7.55,5.07c-0.83,1.64-1.65,3.28-2.48,4.93c-1.87-1.05-3.74-2.1-5.6-3.15
				C87.18,175.63,86.3,175.13,85.43,174.63z"/>
		</g>
	</g>
	<path class="st2" d="M155.83,214.7c11.87,16.9,32.92,31.23,54.33,30.26c20.35-0.92,38.51-16.44,42.04-36.7
		c3.78-21.67-6.19-42.87-24.35-55c-14.53-9.7-31.79-13.3-48.96-12.47c-5.31,0.17-10.62,0.75-15.95,0.43
		c-3.95-0.24-3.66-0.46-6.09,2.67c-1.3,1.67-2.41,3.15-3.28,4.98C140.87,168.43,142.51,195.73,155.83,214.7z M152.06,157.5
		c0.82-1.89,1.55-3.81,2.71-5.54c1.48-2.21,3.24-4.01,5.14-5.77c0.08,0,0.15,0,0.23-0.02c10.23-1.95,20.7-3.18,31.12-2.25
		c24.2,2.16,49.57,15.72,56.62,40.56c6.59,23.21-4.85,50.73-29.98,56.31c-23.71,5.26-49.71-10.84-61.58-30.85
		C146.44,193.26,145.84,174.67,152.06,157.5z"/>
	<path class="st2" d="M80.44,167.36c0.03,0.96,0.12,1.92,0.23,2.87c0.54,14.11,2.6,28.17,6.46,41.71c0.07,0.5,0.22,1,0.42,1.5
		c0.02,0.08,0.04,0.16,0.07,0.24c0.02,0.01,0.04,0.03,0.05,0.04c0.02,0.05,0.04,0.09,0.06,0.14c0.16,0.71,0.42,1.41,0.68,2.06
		c0.11,0.29,0.23,0.57,0.34,0.86c0.11,0.48,0.24,0.95,0.33,1.44c1.1,3.31,2.28,6.6,3.61,9.83c0.72,1.17,1.12,2.7,1.67,3.85
		c0.19,0.41,0.36,0.83,0.53,1.25c0.55,0.69,0.99,1.55,1.32,2.53c2.87,4.5,5.36,9.33,8.06,13.83c2.52,4.2,5.27,8.18,8.23,12.01
		c6.47,9.52,15.19,17.78,24.51,24.27c2,1.39,4.05,2.69,6.12,3.94c0.03,0.04,0.06,0.07,0.09,0.11c2.02,1.28,4.07,2.52,6.2,3.64
		c1.74,0.92,3.51,1.67,5.29,2.34c0.41,0.18,0.8,0.39,1.21,0.56c4.06,1.77,9.23,4.22,14.08,5.01c0.26,0.15,0.53,0.28,0.77,0.44
		c11.04,3.21,22.72,4.6,34.8,3.78c21.29-1.45,41.41-9.4,56.63-24.63c11.52-11.52,20.14-26.23,22.77-42.28
		c2.66-9.11,3.34-18.79,1.92-28.37c-3.66-24.79-18.74-44.18-36.5-61.56c-20.39-19.95-41-39.72-61.69-59.39
		c-16.05-15.26-37.51-32.43-61.61-26.17c-2.43,0.48-4.79,1.21-7.07,2.19c-8.94,2.69-16.58,10.14-21.11,18.07
		c-12.36,17.07-15.93,41.37-17.63,61.29c-0.08,0.19-0.17,0.38-0.25,0.57c-0.12,3.36-0.62,6.75-0.84,10.05
		c-0.26,3.98-0.02,7.92,0.15,11.85C80.37,167.25,80.41,167.31,80.44,167.36z M85.93,130.85c1.32-8.65,3-17.74,5.71-26.42
		c-1.38,7.65-1.77,15.52-1.82,23.3c-0.21,31.22,5.55,63.48,27.59,87.01c0.45,0.48,1.1-0.22,0.71-0.71
		c-18.67-23.23-24.9-53.8-25.15-82.99c-0.12-14.27,0-29.95,6.35-43.08c4.67-9.67,11.83-16.66,21.22-20.73
		c2.46-0.86,4.95-1.64,7.46-2.36c22.85-3.71,42.11,10.71,57.53,25.38c16.72,15.89,33.25,31.98,49.87,47.97
		c18.98,18.26,39.7,36.77,46.62,62.74c6.19,23.22,1.28,49.4-18.05,65.74c-20.67,17.48-49.86,15.72-74.15,6.86
		c-23.31-8.5-41.82-23.06-58.1-40.96c-0.24-0.27-0.7,0.08-0.51,0.38c13.4,20.83,36.65,36.47,60.5,44.22
		c24.93,8.11,54.98,9.38,75.28-9.39c3.04-2.81,5.75-5.86,8.13-9.1c-5.13,9.61-12.11,18.23-20.69,25.21
		c-18.33,14.91-42.13,21.34-65.55,18.69c-48.1-5.45-84.97-44.42-98.35-89.39C82.61,186.65,81.78,158.17,85.93,130.85z"/>
	<path class="st2" d="M172.23,282.49c13.37,3.59,27.45,8.18,41.43,5.99c0.34-0.05,0.58,0.39,0.24,0.58
		c-6.22,3.61-12.86,2.99-19.63,1.31c-7.35-1.83-15.59-3.71-22.33-7.21C171.57,282.96,171.83,282.38,172.23,282.49z"/>
	<path class="st2" d="M203.9,294.95c13.94,1.82,26.61-6.33,39.63-10.11c0.22-0.06,0.43,0.25,0.24,0.41
		c-5.36,4.51-12.03,7.11-18.73,8.96c-4.03,1.11-8.28,1.23-12.39,2c-3.04,0.57-5.94,0.75-8.88-0.3
		C203.28,295.73,203.32,294.87,203.9,294.95z"/>
	<path class="st2" d="M116.6,242.19c6.04,6.64,11.3,13.4,18.67,18.72c3.75,2.71,11.01,3.52,9.91,9.89
		c-0.04,0.26-0.43,0.29-0.54,0.07c-2.01-3.8-4.14-4.84-8.08-6.36c-2.74-1.05-4.84-3.24-6.86-5.28c-4.9-4.96-10.1-10.61-13.54-16.71
		C116,242.26,116.38,241.95,116.6,242.19z"/>
	<path class="st2" d="M104.14,218.92c8.26,5.67,13.8,12.72,17.83,21.84c0.08,0.19-0.15,0.42-0.31,0.24
		c-5.94-7.2-12.07-14.24-18.02-21.44C103.37,219.23,103.73,218.64,104.14,218.92z"/>
	<path class="st2" d="M121.61,219.54c1.69,1.46,2.92,3.05,4.23,4.85c1.19,1.64,2.66,3.44,3.39,5.34c0.12,0.31-0.24,0.48-0.48,0.36
		l-0.01,0.01c-1.62-1.22-2.93-3.13-4.17-4.73c-1.36-1.76-2.55-3.39-3.49-5.42C120.92,219.6,121.31,219.28,121.61,219.54z"/>
	<path class="st2" d="M91.89,176.68c0.03-0.17,0.31-0.17,0.34,0c0.86,4.23,1.86,8.1,3.23,12.19c1.66,4.96,4.59,8.91,6.77,13.55
		c0.09,0.19-0.1,0.45-0.31,0.31C93.99,197.64,90.42,185.58,91.89,176.68z"/>
	<path class="st2" d="M85.92,157.49c-0.08-0.31,0.31-0.43,0.48-0.2c2.62,3.41,2.7,9.24-1.07,11.93c-0.24,0.17-0.56-0.11-0.48-0.37
		C86.05,164.94,86.93,161.6,85.92,157.49z"/>
	<path class="st2" d="M113.62,86.36c6.65-7.9,18.37-14.63,28.97-11.77c0.42,0.11,0.46,0.8,0,0.89c-9.61,1.85-18.03,3.71-25.21,10.93
		c-8.14,8.18-10.91,19.59-8.68,30.71c0.06,0.32-0.4,0.46-0.5,0.14C105.15,107.32,106.79,94.48,113.62,86.36z"/>
	<path class="st2" d="M254.89,261.45c10.64-8.53,18.72-19.8,21.73-33.26c3.26-14.59-1.55-31.15-10.49-42.89
		c-0.1-0.14,0.12-0.3,0.23-0.18c10.79,10.93,15.95,25.99,13.61,41.32c-2.28,14.91-10.97,28.72-24.76,35.42
		C254.96,261.99,254.64,261.65,254.89,261.45z"/>
	<path class="st2" d="M137.18,224.39c7.26,9.15,16.07,16.99,25.77,23.46c9.55,6.37,20.1,9.71,30.35,14.59
		c0.06,0.03,0.03,0.12-0.03,0.11c-11.2-0.49-22.36-6.59-31.56-12.59c-10.03-6.54-18.28-15.4-24.83-25.34
		C136.76,224.45,137.04,224.22,137.18,224.39z"/>
	<path class="st2" d="M180.27,95.53c14.54,12.56,29.81,25.29,42,40.24c0.16,0.2-0.06,0.56-0.29,0.38
		c-15.47-11.57-28.86-26.29-42.03-40.3C179.73,95.64,180.04,95.34,180.27,95.53z"/>
</g>
</svg>
