<?xml version="1.0" encoding="utf-8"?>
<!-- Generator: Adobe Illustrator 23.0.6, SVG Export Plug-In . SVG Version: 6.00 Build 0)  -->
<svg version="1.1" id="Layer_1" xmlns="http://www.w3.org/2000/svg" xmlns:xlink="http://www.w3.org/1999/xlink" x="0px" y="0px"
	 viewBox="0 0 368.43 368.43" style="enable-background:new 0 0 368.43 368.43;" xml:space="preserve">
<style type="text/css">
	.st0{fill:none;}
	.st1{fill:#FFFFFF;}
	.st2{fill:#EC1C24;}
	.st3{fill:#4C4C4C;}
	.st4{fill:#2F2F2F;}
</style>
<rect x="-2.66" y="-2.66" class="st0" width="373" height="373"/>
<g>
	<g>
		<path class="st1" d="M240.5,201.09c-1.43,0.72-2.82,1.51-4.2,2.32c0.1-0.88-0.09-1.9-0.4-2.91
			C237.41,200.78,238.96,200.96,240.5,201.09z"/>
		<path class="st2" d="M278.84,258.47c-4.12,8.3-10.82,14.87-18.71,19.59c-15.31,9.17-37.06,11.33-52.5,1.44
			c-7.75-4.96-13.07-13.29-16.98-21.41c-4.51-9.37-6.53-20.08-4.8-30.39c1.51-8.98,6.26-17.45,13.64-22.86
			c7.87-5.77,17.1-6.12,26.3-4.22c0.2,0.04,0.37-0.04,0.48-0.17c0.04,0.63,0.08,1.27,0.12,1.9c0.03,0.5,0.72,0.49,0.77,0
			c2.21-19.68-5.06-37.87-16.51-53.6c-5.71-7.85-12.19-15.11-17.84-23c-6.04-8.44-10.15-17.38-12.78-27.39
			c-0.06-0.24-0.45-0.19-0.44,0.06c0.07,2.71,0.46,5.35,1.1,7.92c-1.45,2.88-2.21,6.22-3.2,9.25c-1.45,4.43-2.95,8.84-4.37,13.28
			c-2.84,8.87-5.65,17.75-8.47,26.63c-5.53,17.44-11.97,34.9-16.12,52.72c-0.14,0.6,0.68,0.8,0.9,0.25
			c0.08-0.19,0.15-0.38,0.23-0.57c3.67-0.47,7.06-1.05,10.81-0.71c4.99,0.46,9.78,2.51,13.54,5.78c3.13,2.72,5.5,6.16,7.1,9.97
			c0.7,1.66,1.23,3.4,1.73,5.13c0.19,0.65,0.3,1.3,0.39,1.96c-0.42,3.8-0.38,7.65,0.09,11.46c-1.27,7.53-3.6,14.48-7.78,21.11
			c-4.92,7.8-11.69,14.2-19.83,18.55c-19.14,10.25-43.23,5.48-58.09-9.87c-14.47-14.95-18.57-41.27-5.32-58.25
			c6.46-8.27,17.12-12.17,27.3-9.78c9.38,2.2,17.71,8.41,27.69,5.32c0.18-0.06,0.16-0.38-0.05-0.35c-3.74,0.5-7.28-0.08-10.74-1.13
			c12.84-13.14,20.25-31.03,25.71-48.29c3.16-9.99,5.69-20.17,8.32-30.31c2.49-9.62,5.99-19.57,7.06-29.49
			c0.26-0.07,0.52-0.14,0.77-0.25c0.12-0.05,1.63-0.8,1.56-0.85c0.16,0.12,0.31-0.06,0.36-0.18c0.02-0.04-0.04-0.07-0.07-0.06
			c0,0.01-0.01,0.03-0.01,0.04c0.05-0.12-0.05-0.26-0.16-0.29c-1.14-0.32-2.2-0.41-3.39-0.35c-1.01,0.05-0.89-1.22-0.6-1.95
			c0.21-0.1,0.39-0.23,0.55-0.4c0.33-0.1,0.56-0.26,0.71-0.45c0.04-0.01,0.08-0.02,0.13-0.03c0.98-0.26,1.93-0.86,2.69-1.53
			c0.13-0.12,0.06-0.36-0.11-0.4c-0.81-0.19-2.49-0.26-3.83,0.08c0.02-0.42,0.07-0.84,0.16-1.26c0.05-0.25,0.14-0.97,0.41-1.1
			c0.43-0.2,0.82-0.42,1.23-0.66c0.25-0.14,0.33-0.44,0.26-0.7c0.04,0.04,0.03-0.01-0.03-0.13c0,0,0-0.01-0.01-0.01l0,0
			c-0.06-0.1-0.13-0.17-0.22-0.22c-0.16-0.09-0.35-0.2-0.54-0.24c0.04-0.23,0.06-0.46,0.02-0.71c-0.07-0.45-0.04-0.78,0.17-1.18
			c0.3-0.58,1.11-0.9,1.67-1.26c0.11-0.03,0.23-0.06,0.33-0.08c0.96-0.25,2.06-0.53,2.9-1.07c0.05-0.03,0.06-0.12,0-0.14
			c-0.8-0.4-2.62-0.43-4.09,0c0.21-0.77,2.44-2.52,2.7-2.67c1.95-1.11,4.26,0.03,5.3,1.81c-0.69,0.2-1.39,0.26-2.02,0.68
			c-0.23,0.15-0.27,0.45-0.08,0.65c0.79,0.86,1.9,0.73,2.92,0.35c0.23,0.07,0.14-0.1,0.36,0.11c0.18,0.18,0.26,0.43,0.32,0.67
			c0.18,0.73-0.28,1.07-0.83,1.22c-0.09,0.02-0.19,0.05-0.29,0.06c-0.17,0.03-0.34,0.04-0.49,0.05c-0.12,0-0.22,0.03-0.31,0.06
			c-0.78,0.08-1.57,0.09-1.98,0.17c-1.32,0.25-2.98,0.6-4.11,1.36c-0.08,0.06-0.07,0.18,0.03,0.21c0.8,0.24,4.04,0.36,6.33-0.19
			c0.17,0.04,0.33,0.07,0.49,0.07c0.49,0.27,0.89,0.7,0.6,1.3c-0.07,0.16-0.18,0.25-0.31,0.32c-0.73-0.07-1.57,0.13-2.21,0.24
			c-1.21,0.21-1.95,1.04-2.91,1.68c-0.09,0.06-0.06,0.2,0.06,0.21c1.22,0.09,2.14,0.3,3.38,0.02c0.22-0.05,0.49-0.13,0.76-0.22
			c0.03,0.04,0.05,0.08,0.09,0.12c0.96,0.86,1.09,1.93,0.17,2.89c-0.9,0.94-2.44,1.01-3.65,1.19c-1,0.15-0.76,1.82,0.24,1.75
			c0.63-0.04,1.26-0.14,1.86-0.29c-0.17,8.25,3.84,16.7,7.73,23.72c5,9.03,11.5,17.13,17.59,25.42c5.9,8.05,11.15,16.41,15.17,25.56
			c2.19,4.99,3.89,10.15,5.27,15.42c0.65,2.47,1.17,4.97,1.68,7.47c0.42,2.1,0.44,4.29,1.55,6.13c0.04,0.38,0.07,0.75,0.12,1.13
			c0.31,2.4-4.29,2.75-5.88,2.49c-0.16-0.03-0.25,0.17-0.11,0.27c0.97,0.67,2.03,1.13,3.09,1.31c-4.92,2.4-10.64,3.83-15.28,0.13
			c-0.1-0.08-0.23,0.04-0.14,0.14c6.73,8.17,16.69,1.96,23.85-2.18c8.64-5,18.53-5.26,27.22-1.5c5.52,3.18,9.82,7.5,12.86,13.43
			c3.22,6.28,3.89,13.4,4.29,20.4C283.83,244.38,282.33,251.43,278.84,258.47z"/>
	</g>
	<g>
		<path class="st3" d="M202.7,206.59c1.06-1.54,2.11-3.19,3.08-4.88c0.72,0.49,1.39,1.04,2.14,1.48c0.25,0.14,0.61-0.16,0.42-0.42
			c-0.44-0.59-1.08-1.13-1.81-1.59c-0.64,0.22-1.27,0.47-1.9,0.74c-0.78,1.52-1.5,3.05-2.15,4.55
			C202.43,206.61,202.61,206.72,202.7,206.59z"/>
		<path class="st3" d="M202.29,204.82c0.19,0,0.34-0.23,0.23-0.39c-0.27-0.39-0.72-0.63-1.15-0.81c-0.25,0.15-0.5,0.31-0.75,0.48
			c0.11,0.07,0.21,0.14,0.31,0.21C201.33,204.55,201.81,204.82,202.29,204.82z"/>
		<path class="st3" d="M179.54,101.57c-0.28,0.06-0.82,0.23-0.69,0.64c0.1,0.31,0.4,0.39,0.69,0.43c0.17,0.02,0.3-0.02,0.41-0.08
			c-0.05-0.33-0.08-0.66-0.12-0.99C179.74,101.55,179.65,101.55,179.54,101.57z"/>
		<path class="st3" d="M229.46,195.69c-0.04,0.05-0.06,0.12-0.02,0.18c0.36,0.48,0.98,0.5,1.54,0.59c0.51,0.08,1.03,0.12,1.55,0.14
			c-0.07-0.45-0.14-0.9-0.22-1.34c-0.39-0.01-0.78,0-1.17,0C230.59,195.26,229.85,195.25,229.46,195.69z"/>
		<path class="st3" d="M219.54,201.32c-0.86,1.44-1.74,2.87-2.59,4.33c-0.03,0.02-0.06,0.05-0.05,0.09
			c-0.21,0.37-0.42,0.74-0.63,1.12c0.15,0.1,0.29,0.21,0.44,0.31c0.22-0.33,0.45-0.66,0.67-1c0.78,0.64,1.65,1.26,2.55,1.82
			c-0.07,0.15-0.12,0.31-0.19,0.46c0.2,0.05,0.39,0.1,0.59,0.13c0.05-0.09,0.1-0.18,0.15-0.26c0.23,0.14,0.47,0.25,0.71,0.38
			c0.6,0.06,1.2,0.07,1.8,0.04c-0.03-0.02-0.05-0.04-0.08-0.06c0.49-0.69,0.97-1.38,1.45-2.08c0.24,0.12,0.49,0.25,0.73,0.37
			c0.59,0.31,1.21,0.68,1.85,1.04c0.57-0.17,1.13-0.37,1.69-0.58c-0.06-0.03-0.11-0.06-0.17-0.09c0.35-0.47,0.68-0.96,0.98-1.45
			c-0.18-0.08-0.36-0.17-0.54-0.27c-0.37,0.45-0.72,0.92-1.05,1.41c-0.98-0.45-2.01-0.84-2.87-1.25c-0.01,0-0.02-0.01-0.02-0.01
			c0.72-0.98,1.48-1.98,1.97-3.08c-0.19,0.08-0.42,0-0.49-0.22c-0.83,0.87-1.46,1.97-2.11,2.99c-0.53-0.26-1.06-0.51-1.59-0.77
			c0.21-0.34,0.43-0.68,0.64-1.02c0.32-0.51,0.67-1.03,1.02-1.55c0.26,0.15,0.51,0.3,0.78,0.43c0.23,0.11,0.57-0.14,0.39-0.39
			c-0.2-0.28-0.44-0.53-0.68-0.77c0.18-0.28,0.37-0.56,0.55-0.84c-0.39-0.08-0.78-0.15-1.17-0.22c-0.07,0.12-0.14,0.24-0.21,0.37
			c-0.27-0.19-0.55-0.36-0.83-0.54c-0.93-0.15-1.86-0.27-2.78-0.36C220.12,200.32,219.84,200.83,219.54,201.32z M220.35,207.1
			c-0.91-0.48-1.84-0.9-2.76-1.24c0.48-0.75,0.95-1.5,1.42-2.25c0.78,0.54,1.61,1.02,2.46,1.48
			C221.08,205.75,220.7,206.42,220.35,207.1z M223.77,206.29c-0.45,0.68-0.9,1.36-1.34,2.04c-0.46-0.31-0.94-0.6-1.43-0.88
			c0.4-0.66,0.8-1.31,1.21-1.96C222.73,205.77,223.25,206.03,223.77,206.29z M222.59,203.22c-0.22,0.36-0.44,0.73-0.66,1.09
			c-0.88-0.41-1.77-0.79-2.68-1.09c0.19-0.31,0.39-0.62,0.58-0.93c0.44-0.7,0.93-1.41,1.42-2.12c0.79,0.42,1.52,0.93,2.27,1.42
			C223.21,202.15,222.9,202.7,222.59,203.22z"/>
		<path class="st3" d="M178.21,104.07c-0.13,0.01-0.18,0.17-0.07,0.25c0.41,0.28,0.72,0.58,1.18,0.8c0.36,0.18,0.78,0.3,1.18,0.39
			c-0.11-0.48-0.21-0.96-0.3-1.45c-0.13-0.03-0.27-0.05-0.4-0.08C179.23,103.89,178.76,104.04,178.21,104.07z"/>
		<path class="st3" d="M198.05,207.71c0.73-0.82,1.16-1.94,1.64-2.99c-0.06,0.05-0.13,0.09-0.19,0.13
			c-0.43,0.32-0.85,0.64-1.26,0.98c-0.22,0.62-0.35,1.24-0.32,1.82C197.92,207.72,198,207.76,198.05,207.71z"/>
		<path class="st3" d="M177.91,222.18c0.64-0.74,1.11-1.64,1.54-2.54c-0.15-0.27-0.3-0.53-0.47-0.79c-0.51,1.05-1.01,2.15-1.2,3.26
			C177.77,222.17,177.85,222.24,177.91,222.18z"/>
		<path class="st3" d="M180.36,246.75c0.52-1.46,1.01-2.94,1.49-4.42c0.36,0.36,0.73,0.73,1.11,1.06c0.08-0.4,0.15-0.8,0.22-1.19
			c-0.34-0.29-0.68-0.56-1.02-0.83c0.3-0.96,0.59-1.93,0.87-2.91c-0.02-0.39-0.04-0.77-0.06-1.16c-0.43,1.22-0.86,2.44-1.31,3.65
			c-0.05-0.04-0.1-0.08-0.15-0.12c-0.91-0.79-1.86-1.92-3-2.4c0.7-1.31,1.34-2.67,1.96-4.04c0.39,0.33,0.86,0.58,1.26,0.89
			c0.45,0.36,0.85,0.78,1.22,1.22c-0.01-0.44-0.02-0.89-0.01-1.33c-0.17-0.14-0.33-0.27-0.51-0.4c-0.49-0.35-1.11-0.75-1.74-0.86
			c0.44-0.98,0.86-1.97,1.3-2.94c0.04-0.08,0.08-0.17,0.12-0.26c0.04,0.02,0.08,0.03,0.12,0.06c0.24,0.14,0.46,0.33,0.61,0.56
			c0.09,0.14,0.15,0.24,0.24,0.34c0.03-0.38,0.06-0.75,0.1-1.12c-0.19-0.12-0.4-0.21-0.58-0.28c-0.08-0.03-0.17-0.05-0.25-0.07
			c0.22-0.47,0.44-0.94,0.66-1.42c-0.05-0.24-0.1-0.47-0.17-0.71c-0.09-0.29-0.17-0.59-0.26-0.88c-0.39,0.97-0.77,1.94-1.15,2.88
			c-0.22,0.01-0.45,0.03-0.67,0.08c-0.18,0.04-0.14,0.34,0.04,0.32c0.16-0.02,0.31-0.02,0.47,0c-0.02,0.05-0.04,0.11-0.07,0.17
			c-1.27,3.02-2.72,6.09-3.64,9.23c-0.03,0.09,0.1,0.14,0.14,0.06c0.22-0.36,0.41-0.75,0.62-1.12c0.6,1.02,1.78,1.82,2.62,2.61
			c0.14,0.13,0.27,0.26,0.41,0.4c-0.55,1.46-1.11,2.91-1.68,4.35c-1.12-0.9-2.26-1.74-3.35-2.53c0.01-0.03,0.02-0.05,0.03-0.08
			c0.05-0.15-0.17-0.23-0.24-0.1c0,0.01-0.01,0.01-0.01,0.02c-0.05-0.03-0.1-0.07-0.14-0.1c-0.25-0.18-0.47,0.22-0.24,0.4
			c0.05,0.04,0.09,0.08,0.14,0.11c-0.9,1.54-1.77,3.1-2.63,4.66c-0.3-0.25-0.6-0.51-0.9-0.76c-0.26-0.22-0.63,0.15-0.37,0.37
			c0.33,0.3,0.66,0.59,1,0.89c-0.59,1.08-1.17,2.17-1.75,3.27c-1.06-0.87-2.14-1.71-3.24-2.5c-0.11-0.08-0.24,0.1-0.14,0.18
			c1.09,0.9,2.13,1.83,3.14,2.79c-0.97,1.85-1.94,3.7-2.9,5.56c-1.05-0.92-2.12-1.83-3.22-2.71c-0.34-0.28-0.84,0.2-0.49,0.49
			c1.14,0.95,2.24,1.94,3.33,2.94c-0.71,1.35-1.41,2.7-2.13,4.05c-1.14-1.05-2.32-2.07-3.53-3.05c-0.11-0.09-0.23-0.12-0.34-0.1
			c0.21-0.44,0.43-0.88,0.64-1.32c0.1-0.23-0.19-0.4-0.33-0.19c-1.32,1.85-2.56,3.78-3.75,5.73c-0.48-0.51-0.97-1.03-1.45-1.54
			c-0.35-0.37-0.89,0.18-0.55,0.55c0.52,0.57,1.04,1.15,1.56,1.72c-0.75,1.25-1.49,2.52-2.22,3.79c-0.94-1.01-1.87-2.01-2.81-3.02
			c0.02-0.05,0.05-0.1,0.08-0.15c0.06-0.13-0.1-0.21-0.18-0.11c-0.02,0.03-0.04,0.05-0.06,0.08l-1-1.08
			c-0.43-0.46-1.11,0.23-0.69,0.69c0.37,0.4,0.73,0.8,1.1,1.19c-1.04,1.43-2.03,2.9-2.98,4.4c-0.89-1-1.78-2.01-2.66-3.01
			c-0.39-0.45-1.04,0.21-0.65,0.65l2.8,3.18c-0.55,0.88-1.09,1.76-1.63,2.64c-1.14-1.29-2.32-2.56-3.53-3.79
			c0.17-0.34,0.35-0.67,0.51-1.01c0.08-0.18-0.14-0.39-0.29-0.23c-0.23,0.25-0.44,0.52-0.66,0.78c-0.04-0.04-0.07-0.07-0.1-0.11
			c-0.28-0.28-0.71,0.15-0.44,0.44c0.05,0.05,0.09,0.1,0.14,0.15c-0.67,0.83-1.3,1.7-1.9,2.59c-0.43-0.59-0.86-1.19-1.29-1.78
			c-0.19-0.27-0.65-0.02-0.45,0.26c0.47,0.68,0.93,1.37,1.39,2.05c-0.81,1.21-1.58,2.45-2.35,3.67c-1.22-1.54-2.5-3.04-3.82-4.49
			c0.36-0.58,0.68-1.17,0.95-1.78c0.09-0.21-0.15-0.44-0.34-0.26c-0.44,0.43-0.83,0.9-1.21,1.39c-0.41-0.44-0.81-0.89-1.23-1.33
			c-0.13-0.13-0.31,0.06-0.2,0.2c0.41,0.47,0.8,0.95,1.2,1.43c-0.7,0.95-1.33,1.96-1.98,2.92c-0.38,0.56-0.75,1.12-1.13,1.68
			c-1.11-1.23-2.24-2.43-3.41-3.6c0.82-1.06,1.63-2.13,2.42-3.21c0.13-0.18-0.15-0.38-0.3-0.23c-0.94,0.92-1.83,1.88-2.69,2.87
			c-0.16-0.16-0.32-0.33-0.48-0.49c-0.23-0.22-0.57,0.12-0.35,0.35c0.17,0.17,0.33,0.35,0.5,0.52c-0.73,0.85-1.44,1.72-2.13,2.6
			c-1.23-1.56-2.47-3.11-3.73-4.66c-0.09-0.11-0.27,0.04-0.19,0.15c1.22,1.63,2.41,3.27,3.59,4.92c-0.67,0.86-1.32,1.74-1.97,2.62
			c-0.9-1.46-1.81-2.91-2.75-4.35c0.44-0.8,0.85-1.61,1.24-2.42c0.19-0.39-0.35-0.72-0.59-0.34c-0.41,0.64-0.8,1.29-1.19,1.95
			c-0.95-1.43-1.91-2.86-2.9-4.27c-0.08-0.12-0.28-0.01-0.2,0.12c0.94,1.55,1.86,3.11,2.79,4.67c-0.66,1.12-1.32,2.24-1.99,3.36
			c-0.66-1.19-1.34-2.37-2.04-3.54c0.58-0.81,1.13-1.64,1.6-2.49c0.15-0.28-0.22-0.58-0.45-0.35c-0.6,0.61-1.16,1.28-1.69,1.96
			c-0.72-1.16-1.45-2.31-2.21-3.44c0.29-0.33,0.59-0.66,0.87-1.01c0.18-0.23-0.09-0.49-0.32-0.32c-0.31,0.25-0.62,0.51-0.93,0.77
			c-0.4-0.58-0.78-1.17-1.19-1.74c-0.08-0.11-0.26-0.01-0.18,0.11c0.39,0.61,0.76,1.23,1.14,1.85c-0.95,0.85-1.85,1.78-2.71,2.74
			c-0.67-1.22-1.34-2.44-2.02-3.66c0.28-0.27,0.57-0.54,0.84-0.82c0.18-0.18-0.05-0.48-0.27-0.36c-0.31,0.18-0.61,0.37-0.91,0.56
			c-0.44-0.78-0.86-1.56-1.3-2.34c-0.1-0.18-0.36-0.02-0.27,0.16c0.4,0.82,0.81,1.62,1.21,2.44c-1.01,0.71-1.96,1.53-2.85,2.4
			c-0.48-0.93-0.96-1.86-1.45-2.78c0.66-0.6,1.32-1.2,1.97-1.82c0.17-0.16-0.05-0.46-0.25-0.33c-0.72,0.45-1.4,0.97-2.06,1.51
			c-0.76-1.4-1.53-2.8-2.33-4.18c0.88-0.92,1.72-1.86,2.44-2.89c0.13-0.18-0.13-0.46-0.32-0.32c-0.94,0.71-1.8,1.53-2.63,2.38
			c-0.08-0.03-0.17,0.05-0.15,0.15c-0.72,0.74-1.41,1.51-2.11,2.26c-0.54-1.06-1.08-2.11-1.65-3.15c1.02-1.26,1.79-2.26,1.96-2.58
			c0.09-0.16-0.11-0.3-0.25-0.19c-0.75,0.62-1.44,1.33-2.08,2.09c-0.3-0.54-0.6-1.08-0.92-1.61c-0.05-0.08-0.18-0.02-0.15,0.06
			c0.25,0.63,0.52,1.26,0.78,1.88c-0.56,0.68-1.1,1.37-1.63,2.07c0.12,0.21,0.24,0.41,0.37,0.62c0.55-0.67,1.09-1.33,1.59-1.94
			c0.48,1.09,0.99,2.18,1.5,3.26c-0.04,0.04-0.07,0.08-0.11,0.12c-0.39,0.41-0.79,0.83-1.18,1.24c0.15,0.21,0.3,0.42,0.45,0.63
			c0.27-0.27,0.53-0.55,0.8-0.82c0.13-0.14,0.27-0.27,0.41-0.41c0.68,1.42,1.37,2.83,2.06,4.24c-0.01,0.01-0.02,0.02-0.03,0.03
			c-0.13,0.14-0.26,0.27-0.39,0.41c0.16,0.18,0.33,0.36,0.5,0.54c0.09-0.09,0.18-0.18,0.27-0.27c0.18,0.36,0.35,0.73,0.53,1.09
			c0.67,0.67,1.35,1.33,2.06,1.96c0.05-0.06,0.1-0.12,0.15-0.18c0.54-0.58,1.11-1.14,1.68-1.68c0.74,1.48,1.49,2.96,2.23,4.43
			c-0.12,0.15-0.23,0.3-0.34,0.45c0.19,0.14,0.38,0.27,0.57,0.41c0.04-0.05,0.08-0.11,0.13-0.16c0.07,0.13,0.13,0.26,0.2,0.39
			c0.49,0.34,0.98,0.67,1.48,1c-0.09-0.18-0.19-0.36-0.28-0.54c-0.27-0.52-0.54-1.05-0.81-1.57c0.1-0.12,0.2-0.25,0.3-0.38
			c0.71-0.85,1.46-1.67,2.21-2.49c0.74,1.47,1.49,2.94,2.25,4.4c-0.17,0.24-0.34,0.49-0.51,0.73c-0.3,0.41-0.6,0.83-0.9,1.24
			c0.18,0.11,0.37,0.2,0.55,0.31c0.16-0.22,0.33-0.44,0.49-0.65c0.24-0.31,0.48-0.62,0.72-0.93c0.18,0.35,0.36,0.7,0.54,1.06
			c0.34,0.66,0.68,1.32,1.01,1.98c0.58,0.28,1.17,0.55,1.77,0.81c0.79-1.07,1.56-2.16,2.3-3.28c0.05,0.1,0.11,0.21,0.16,0.31
			c0.7,1.38,1.33,2.8,1.95,4.22c-0.08,0.12-0.16,0.24-0.24,0.36c0.57,0.19,1.14,0.37,1.71,0.55c-0.14-0.3-0.28-0.59-0.43-0.89
			c0.59-0.86,1.19-1.72,1.81-2.56c0.19-0.26,0.39-0.51,0.58-0.77c0.3,0.51,0.6,1.02,0.9,1.54c0.71,1.24,1.39,2.51,2.06,3.79
			c-0.02,0.03-0.03,0.05-0.05,0.08c0.45,0.09,0.89,0.17,1.34,0.24c-0.13-0.21-0.25-0.43-0.38-0.64c0.76-1.07,1.53-2.15,2.28-3.23
			c0.33,0.47,0.66,0.93,0.99,1.4c0.71,1.01,1.41,2.03,2.11,3.05c0.72,0.05,1.44,0.08,2.16,0.09c0.61-0.91,1.21-1.82,1.79-2.74
			c0.61,0.88,1.21,1.77,1.79,2.67c0.4-0.02,0.8-0.05,1.2-0.09c-0.82-1.17-1.66-2.3-2.48-3.39c0.5-0.79,1.01-1.57,1.52-2.34
			c0.46-0.69,0.93-1.37,1.41-2.06c0.54,0.76,1.07,1.52,1.59,2.29c0.56,0.83,1.1,1.67,1.64,2.52c-0.56,0.92-1.11,1.84-1.66,2.77
			c0.3-0.04,0.6-0.07,0.9-0.11c0.4-0.64,0.81-1.28,1.21-1.92c0.32,0.52,0.64,1.03,0.95,1.55c0,0,0,0.01,0.01,0.01
			c0.33-0.06,0.66-0.14,0.99-0.21c-0.06-0.09-0.12-0.19-0.17-0.28c-0.4-0.65-0.82-1.3-1.23-1.94c0.66-1.07,1.32-2.14,1.99-3.21
			c0.07-0.11,0.14-0.23,0.22-0.35c0.22,0.33,0.44,0.66,0.67,0.98c0.63,0.91,1.24,1.84,1.86,2.78c-0.27,0.47-0.53,0.94-0.8,1.41
			c0.48-0.13,0.97-0.28,1.45-0.43l0,0l0,0c0.35-0.11,0.7-0.22,1.04-0.33c-0.16-0.22-0.31-0.43-0.47-0.65
			c0.69-1.19,1.38-2.39,2.07-3.58c0.64,0.95,1.25,1.94,1.86,2.92c0.38-0.16,0.75-0.34,1.12-0.51c-0.79-1.15-1.64-2.26-2.45-3.33
			c0.56-0.98,1.13-1.95,1.7-2.92c0.38,0.43,0.75,0.86,1.13,1.29c0.76,0.87,1.52,1.73,2.29,2.6c-0.32,0.52-0.65,1.03-0.98,1.55
			c0.25-0.13,0.5-0.25,0.75-0.38c0.61-0.32,1.2-0.66,1.79-1.01c-0.11-0.12-0.23-0.24-0.34-0.36c0.08-0.13,0.15-0.25,0.23-0.38
			c0.9-1.45,1.77-2.91,2.65-4.37c0.64,0.72,1.27,1.45,1.92,2.18c0.33-0.24,0.65-0.48,0.97-0.72c-0.78-0.8-1.56-1.6-2.32-2.39
			c0.73-1.23,1.44-2.46,2.15-3.7c0.14,0.16,0.29,0.32,0.43,0.48c0.9,1,1.8,2.07,2.72,3.12c0.3-0.27,0.59-0.53,0.88-0.8
			c-0.83-0.84-1.66-1.67-2.44-2.5c-0.36-0.39-0.73-0.77-1.09-1.16c0.34-0.59,0.68-1.17,1.02-1.75c0.56-0.98,1.12-1.97,1.67-2.96
			c0.6,0.59,1.19,1.19,1.77,1.8c0.62,0.66,1.2,1.34,1.77,2.04c-0.67,1.31-1.35,2.61-2.04,3.9c0.83-0.81,1.64-1.64,2.41-2.5
			c0.1-0.19,0.21-0.37,0.31-0.56c0.03,0.04,0.06,0.08,0.09,0.11c0.26-0.29,0.51-0.59,0.76-0.88c-0.09-0.1-0.18-0.2-0.27-0.3
			c0.73-1.35,1.43-2.71,2.12-4.08c0.28,0.32,0.55,0.65,0.82,0.97c0.22-0.31,0.44-0.62,0.65-0.93c-0.33-0.34-0.66-0.68-0.99-1.01
			c0.88-1.8,1.73-3.61,2.54-5.44c0.47,0.54,0.93,1.09,1.39,1.64c0.16-0.3,0.33-0.6,0.48-0.91c-0.48-0.55-0.97-1.09-1.47-1.62
			c0.52-1.2,1.03-2.41,1.52-3.62c0.55,0.52,1.1,1.05,1.68,1.54c0.13-0.3,0.25-0.6,0.37-0.91c-0.57-0.48-1.15-0.95-1.74-1.41
			c0.67-1.68,1.33-3.37,1.94-5.08c0.2,0.2,0.41,0.38,0.61,0.58c0.31,0.31,0.59,0.64,0.88,0.97c0.1-0.36,0.21-0.71,0.31-1.07
			C181.37,247.62,180.87,247.18,180.36,246.75z M95.63,265.21c0.71-0.7,1.43-1.39,2.13-2.11c0.65,1.46,1.34,2.91,2.04,4.36
			c-0.72,0.63-1.42,1.29-2.09,1.97C97.02,268.02,96.33,266.61,95.63,265.21z M100.12,272.48c-0.2,0.21-0.39,0.42-0.59,0.64
			c-0.06-0.12-0.12-0.23-0.18-0.35c-0.44-0.88-0.87-1.76-1.3-2.64c0.68-0.68,1.37-1.34,2.08-1.98c0.46,0.95,0.94,1.9,1.42,2.85
			C101.06,271.49,100.58,271.99,100.12,272.48z M104.92,275.36c-0.05,0.06-0.1,0.13-0.15,0.19c-0.73-1.42-1.47-2.84-2.2-4.26
			c0.92-0.85,1.85-1.69,2.76-2.55c0.63,1.28,1.27,2.56,1.91,3.83C106.44,273.48,105.67,274.42,104.92,275.36z M110.41,277.04
			c-0.76-1.4-1.51-2.8-2.27-4.2c0.89-0.97,1.78-1.94,2.64-2.93c0.72,1.19,1.42,2.4,2.1,3.61
			C112.03,274.68,111.22,275.87,110.41,277.04z M113.91,280.55c-0.29,0.44-0.59,0.88-0.89,1.32c-0.39-0.72-0.77-1.43-1.16-2.15
			c-0.35-0.65-0.7-1.3-1.06-1.95c0.87-1.09,1.77-2.19,2.61-3.32c0.68,1.23,1.35,2.47,1.99,3.72
			C114.92,278.98,114.43,279.77,113.91,280.55z M120.47,280.07c-0.63,0.87-1.27,1.75-1.9,2.64c-0.54-1.07-1.09-2.12-1.63-3.14
			c-0.21-0.4-0.43-0.79-0.65-1.19c0.72-1.11,1.39-2.23,2.03-3.37c0.87,1.48,1.73,2.96,2.59,4.44
			C120.77,279.66,120.62,279.87,120.47,280.07z M124.94,284.71c-0.54-0.91-1.09-1.82-1.62-2.73c-0.47-0.8-0.96-1.59-1.44-2.38
			c0.67-0.89,1.35-1.78,2.04-2.66c1.07,1.49,2.13,2.99,3.19,4.49C126.39,282.53,125.67,283.62,124.94,284.71z M127.56,280.79
			c-1.08-1.44-2.17-2.86-3.28-4.28c0.71-0.91,1.42-1.82,2.13-2.73c1.16,1.21,2.27,2.47,3.35,3.75c-0.68,1.01-1.37,2.03-2.05,3.04
			C127.65,280.64,127.6,280.72,127.56,280.79z M131.77,286.41c-0.86-1.14-1.72-2.26-2.53-3.38c-0.4-0.55-0.82-1.09-1.23-1.64
			c0.76-1.08,1.51-2.17,2.27-3.25c1.28,1.54,2.51,3.12,3.68,4.75c0.03,0.04,0.05,0.08,0.08,0.12
			C133.27,284.13,132.5,285.26,131.77,286.41z M136.3,279.68c-0.57,0.86-1.16,1.73-1.76,2.6c-1.23-1.62-2.52-3.19-3.87-4.72
			l0.89-1.28c0.73-1.05,1.55-2.11,2.27-3.21c1.26,1.55,2.47,3.14,3.64,4.77C137.09,278.46,136.7,279.08,136.3,279.68z
			 M143.92,279.09c-0.7,1.16-1.41,2.33-2.12,3.49c-0.58-0.88-1.18-1.74-1.79-2.6c-0.49-0.68-0.99-1.35-1.5-2.01
			c0.8-1.15,1.61-2.3,2.39-3.47c1.02,1.51,2.04,3.01,3.07,4.51C143.95,279.04,143.93,279.07,143.92,279.09z M144.4,278.29
			c-1.04-1.45-2.09-2.9-3.13-4.35c0.63-0.97,1.22-1.95,1.76-2.95c1.18,1.26,2.31,2.56,3.41,3.89
			C145.76,276.02,145.08,277.16,144.4,278.29z M147.53,282.59c-0.56-0.76-1.12-1.52-1.67-2.28c-0.31-0.43-0.63-0.87-0.94-1.3
			c0.7-1.12,1.41-2.25,2.12-3.38c0.87,1.07,1.71,2.16,2.52,3.28c0.02,0.03,0.04,0.06,0.06,0.09
			C148.93,280.2,148.23,281.4,147.53,282.59z M151.68,275.52c-0.51,0.88-1.02,1.76-1.54,2.63c-0.85-1.11-1.73-2.18-2.64-3.24
			c0.55-0.88,1.09-1.77,1.63-2.66c0.89,1.02,1.79,2.03,2.68,3.05C151.76,275.37,151.72,275.44,151.68,275.52z M152.3,274.43
			c-0.89-1.01-1.78-2.02-2.67-3.02c0.93-1.58,1.82-3.17,2.65-4.79c0.92,1,1.84,2,2.76,2.99
			C154.12,271.22,153.21,272.83,152.3,274.43z M156.92,278.35c-0.14,0.24-0.29,0.48-0.44,0.73c-0.58-0.61-1.16-1.23-1.7-1.84
			c-0.59-0.67-1.18-1.33-1.77-2c0.94-1.58,1.89-3.17,2.83-4.75c1.05,1.14,2.1,2.27,3.15,3.41c0.11,0.11,0.21,0.23,0.31,0.35
			C158.52,275.61,157.72,276.99,156.92,278.35z M159.85,273.31c-1.16-1.24-2.31-2.48-3.47-3.73c0.74-1.26,1.48-2.52,2.2-3.79
			c1.14,1.25,2.27,2.51,3.4,3.76C161.28,270.81,160.57,272.06,159.85,273.31z M163.63,266.63c-0.38,0.69-0.78,1.38-1.17,2.07
			c-1.15-1.23-2.3-2.45-3.45-3.68c0.81-1.45,1.59-2.92,2.33-4.4c0.02,0.02,0.02,0.04,0.05,0.06c1.27,1.06,2.49,2.16,3.68,3.3
			C164.6,264.87,164.12,265.75,163.63,266.63z M170,267.63c-0.4-0.42-0.79-0.84-1.18-1.26c-0.78-0.83-1.59-1.63-2.41-2.42
			c0.74-1.32,1.48-2.65,2.2-3.99c0.9,0.86,1.79,1.73,2.66,2.63c0.27,0.28,0.53,0.57,0.8,0.85C171.39,264.85,170.7,266.24,170,267.63
			z M172.51,262.53c-0.05-0.05-0.09-0.09-0.14-0.14c-1.08-1.1-2.2-2.15-3.34-3.18c0.98-1.82,1.93-3.66,2.85-5.52
			c1.1,1.08,2.15,2.19,3.18,3.33C174.23,258.87,173.38,260.71,172.51,262.53z M175.43,256.18c-1.05-1.06-2.15-2.07-3.28-3.04
			c0.55-1.12,1.08-2.24,1.59-3.36c0.93,0.82,1.85,1.64,2.77,2.47c0.15,0.14,0.31,0.28,0.46,0.42
			C176.48,253.84,175.95,255.01,175.43,256.18z M177.26,251.98c-0.09-0.07-0.18-0.14-0.26-0.22c-1.01-0.85-2.01-1.7-3.01-2.55
			c0.76-1.69,1.47-3.39,2.12-5.11c1.13,0.89,2.2,1.84,3.24,2.82C178.68,248.62,177.98,250.3,177.26,251.98z"/>
		<path class="st3" d="M89.66,252.85c-0.76,0.74-1.44,1.57-2.09,2.42c0.1,0.25,0.19,0.51,0.3,0.76c0.76-0.93,1.51-1.89,2.12-2.93
			C90.1,252.89,89.82,252.69,89.66,252.85z"/>
		<path class="st3" d="M86.73,252.91c0.94-0.8,1.82-1.61,2.61-2.57c0.13-0.15-0.03-0.4-0.22-0.29c-0.97,0.58-1.82,1.25-2.66,1.98
			C86.54,252.33,86.63,252.62,86.73,252.91z"/>
		<path class="st3" d="M89.87,260.22c1.3-1.48,2.88-2.59,4.35-3.87c0.19-0.16-0.01-0.53-0.25-0.43c-1.56,0.65-3.25,1.89-4.66,3.39
			c0.16,0.33,0.32,0.66,0.49,0.99C89.83,260.27,89.85,260.25,89.87,260.22z"/>
		<path class="st3" d="M176.35,216.63c0.18-0.21,0.35-0.45,0.51-0.71c-0.19-0.22-0.37-0.45-0.57-0.67
			c-0.13,0.43-0.21,0.86-0.23,1.26C176.06,216.65,176.26,216.74,176.35,216.63z"/>
		<path class="st3" d="M188.44,234.27c-0.54-0.88-1.26-1.65-1.97-2.38c-0.27-0.28-0.62-0.75-1.01-1.1c-0.04,0.37-0.07,0.73-0.1,1.1
			c0.17,0.2,0.33,0.4,0.5,0.59c0.68,0.77,1.39,1.53,2.23,2.13C188.3,234.77,188.56,234.48,188.44,234.27z"/>
		<path class="st3" d="M186.68,227.85c0.11,0.02,0.26-0.05,0.24-0.19c-0.06-0.5-0.47-0.88-0.83-1.22c-0.07,0.33-0.13,0.65-0.19,0.98
			C186.14,227.64,186.4,227.81,186.68,227.85z"/>
		<path class="st3" d="M215.19,209.31c0.44-0.57,0.86-1.16,1.27-1.76c-0.12-0.12-0.24-0.25-0.36-0.38
			c-0.37,0.67-0.72,1.35-1.05,2.03C215.01,209.29,215.12,209.4,215.19,209.31z"/>
		<path class="st3" d="M228.28,184.04c-0.05,0.08-0.04,0.21,0.04,0.28c0.37,0.31,0.97,0.34,1.48,0.32
			c-0.12-0.42-0.24-0.83-0.36-1.25C228.98,183.5,228.51,183.69,228.28,184.04z"/>
		<path class="st3" d="M227.67,181.23c-0.45,0.36,0.12,1.02,0.6,0.77c0.21-0.11,0.42-0.21,0.63-0.3c-0.13-0.41-0.26-0.81-0.4-1.21
			C228.23,180.74,227.97,181,227.67,181.23z"/>
		<path class="st3" d="M274.38,265.59c0.35-1.78,0.69-3.59,0.91-5.41c0.66,0.38,1.33,0.77,1.99,1.15c0.13-0.22,0.26-0.45,0.39-0.68
			c-0.77-0.41-1.54-0.81-2.31-1.22c0.09-0.98,0.15-1.95,0.13-2.92c0-0.05-0.07-0.06-0.09-0.01c-0.25,0.95-0.46,1.91-0.66,2.87
			c-0.11,0.1-0.15,0.27-0.08,0.4c-0.4,2.02-0.73,4.05-1.16,6.05c-0.01,0.06-0.03,0.11-0.04,0.17c-1.06-0.52-2.18-1.05-3.3-1.47
			c0.24-0.92,0.46-1.85,0.62-2.78c0.03-0.18-0.2-0.24-0.26-0.07c-0.34,0.87-0.65,1.76-0.95,2.64c-0.68-0.22-1.36-0.41-2.04-0.51
			c-0.19-0.03-0.32,0.21-0.14,0.33c0.6,0.38,1.24,0.72,1.89,1.04c-0.6,1.81-1.16,3.63-1.8,5.41c-0.01,0.02-0.02,0.05-0.03,0.07
			c-1.15-0.58-2.31-1.15-3.49-1.59c0.1-0.43,0.2-0.85,0.26-1.28c0.01-0.08-0.09-0.13-0.14-0.06c-0.25,0.36-0.48,0.74-0.7,1.13
			c-0.14-0.05-0.28-0.1-0.42-0.14c-0.18-0.05-0.25,0.18-0.12,0.28c0.11,0.08,0.22,0.16,0.34,0.24c-0.74,1.42-1.32,2.99-1.88,4.51
			c-1.17-0.57-2.37-1.11-3.59-1.55c0.15-0.58,0.24-1.16,0.22-1.75c0-0.04-0.05-0.05-0.08-0.02c-0.35,0.46-0.61,0.98-0.82,1.52
			c-0.2-0.06-0.32,0.24-0.14,0.34h0.01c-0.25,0.7-0.44,1.44-0.67,2.13c-0.16,0.48-0.32,0.95-0.47,1.43
			c-1.12-0.67-2.32-1.34-3.52-1.82c0.28-0.7,0.56-1.4,0.83-2.1c0.08-0.2-0.26-0.34-0.34-0.14c-0.31,0.69-0.61,1.39-0.92,2.08
			c-0.62-0.22-1.24-0.38-1.84-0.45c-0.07-0.01-0.11,0.09-0.06,0.14c0.47,0.42,1.02,0.74,1.58,1.03c-0.54,1.22-1.09,2.45-1.63,3.68
			c-1.09-0.66-2.17-1.34-3.27-2c0.58-1.4,1.15-2.81,1.7-4.23c0.1-0.25-0.32-0.42-0.43-0.18c-0.63,1.35-1.24,2.71-1.84,4.07
			c-1.33-0.79-2.65-1.57-3.98-2.35c0.07-0.16,0.14-0.32,0.21-0.49c0.12-0.27-0.27-0.51-0.4-0.23c-0.08,0.16-0.15,0.32-0.23,0.48
			c-0.41-0.24-0.83-0.49-1.24-0.73c-0.1-0.06-0.18,0.09-0.09,0.15c0.4,0.28,0.81,0.55,1.21,0.83c-0.78,1.61-1.56,3.22-2.34,4.84
			c-1.4-0.98-2.81-1.95-4.22-2.91c0.53-1.02,1.05-2.04,1.54-3.07c0.06-0.13-0.11-0.23-0.19-0.11c-0.63,0.94-1.24,1.89-1.85,2.84
			c-0.98-0.67-1.97-1.32-2.97-1.97c-0.12-0.08-0.27,0.11-0.16,0.2c0.95,0.74,1.91,1.46,2.87,2.18c-0.96,1.53-1.9,3.08-2.82,4.65
			c-1.56-1.22-3.16-2.42-4.8-3.53c0.87-1.59,1.75-3.18,2.61-4.78c0.04-0.08-0.07-0.14-0.12-0.07c-0.93,1.55-1.85,3.1-2.78,4.65
			c-1.15-0.77-2.31-1.49-3.5-2.15c-0.12-0.06-0.26,0.1-0.15,0.19c1.08,0.87,2.19,1.7,3.31,2.53c-0.88,1.47-1.76,2.94-2.64,4.42
			c-0.02,0.03-0.04,0.07-0.06,0.1c-1.36-1.05-2.72-2.09-4.08-3.14c0.79-1.26,1.56-2.54,2.28-3.84c0.17-0.31-0.27-0.55-0.47-0.27
			c-0.85,1.19-1.66,2.4-2.45,3.62c-1.25-0.96-2.51-1.92-3.76-2.89c0.23-0.39,0.46-0.79,0.68-1.19c0.15-0.28-0.24-0.62-0.46-0.36
			c-0.29,0.35-0.55,0.71-0.82,1.07c-1.16-0.89-2.32-1.79-3.48-2.69c-0.11-0.09-0.27,0.07-0.16,0.16c1.15,0.93,2.29,1.86,3.43,2.8
			c-0.68,0.92-1.33,1.85-1.96,2.81c-1.28-1.06-2.57-2.12-3.85-3.18c-0.14-0.12-0.29-0.24-0.43-0.36c0.63-0.99,1.24-1.99,1.77-3.03
			c0.11-0.23-0.19-0.5-0.37-0.28c-0.73,0.89-1.4,1.83-2.04,2.78c-1.03-0.86-2.07-1.72-3.1-2.59c0.82-1.29,1.59-2.62,2.16-4.02
			c0.12-0.3-0.32-0.52-0.52-0.3c-0.99,1.06-1.83,2.27-2.62,3.51c-1.31-1.1-2.62-2.2-3.93-3.29c0.5-0.62,0.99-1.25,1.42-1.91
			c0.16-0.24-0.19-0.48-0.39-0.3c-0.59,0.53-1.13,1.1-1.66,1.69c-1.49-1.24-2.99-2.47-4.5-3.69c0.52-0.76,1.02-1.51,1.52-2.28
			c1.2,1.08,2.42,2.14,3.7,3.13c0.33,0.26,0.67-0.27,0.43-0.55c-1.08-1.25-2.28-2.4-3.51-3.52c0.14-0.22,0.29-0.44,0.42-0.66
			c0.15-0.24-0.21-0.53-0.4-0.31c-0.15,0.19-0.3,0.39-0.46,0.58c-0.75-0.67-1.51-1.34-2.27-2c-0.37-0.32-0.74-0.63-1.11-0.94
			c0.74-1.13,1.45-2.28,1.98-3.49c0.11-0.24-0.19-0.53-0.39-0.3c-0.84,1-1.54,2.12-2.22,3.26c-0.6-0.5-1.22-0.99-1.83-1.48
			c-0.27-0.21-0.53-0.43-0.79-0.65c1.23-1.5,2.65-2.85,3.75-4.44c0.13-0.19-0.13-0.44-0.32-0.32c-0.36,0.23-0.69,0.5-1.02,0.77
			c-1-1.15-2.19-2.11-3.34-3.11c-0.2-0.18-0.41-0.36-0.61-0.54c0.45-0.6,0.88-1.22,1.26-1.88c0.11-0.2-0.15-0.4-0.32-0.24
			c-0.53,0.52-1.01,1.08-1.46,1.66c-0.26-0.23-0.52-0.45-0.78-0.67c0.07,0.36,0.14,0.71,0.22,1.07c0.05,0.05,0.1,0.1,0.15,0.14
			c-0.03,0.04-0.06,0.08-0.09,0.12c0.06,0.29,0.12,0.58,0.19,0.87c0.14-0.17,0.28-0.34,0.41-0.52c0.32,0.29,0.64,0.58,0.96,0.87
			c0.98,0.9,1.93,1.83,3.01,2.6c-0.96,0.91-1.79,1.98-2.56,3.05c0.25,0.69,0.52,1.37,0.8,2.05c0.61,0.53,1.22,1.06,1.83,1.59
			c-0.22,0.37-0.43,0.73-0.65,1.1c0.07,0.14,0.13,0.29,0.2,0.43c0.05,0.1,0.09,0.19,0.14,0.29c0.29-0.44,0.59-0.87,0.89-1.31
			c0.31,0.27,0.63,0.54,0.94,0.81c0.79,0.68,1.58,1.39,2.36,2.09c-0.57,0.72-1.13,1.45-1.69,2.19c-0.32-0.26-0.64-0.51-0.96-0.76
			c0.36,0.68,0.74,1.37,1.13,2.05c0.01-0.02,0.03-0.04,0.04-0.06c1.44,1.25,2.89,2.48,4.35,3.7c-0.41,0.47-0.8,0.95-1.2,1.43
			c0.16,0.23,0.32,0.45,0.49,0.67c0.46-0.52,0.92-1.03,1.36-1.56c1.34,1.12,2.68,2.24,4.02,3.35c-0.31,0.49-0.61,0.98-0.91,1.46
			c-0.26,0.42-0.53,0.84-0.8,1.26c0.28,0.3,0.57,0.6,0.86,0.9c0.2-0.32,0.41-0.64,0.61-0.95c0.4-0.61,0.81-1.23,1.21-1.85
			c1.03,0.86,2.06,1.72,3.09,2.58c-0.59,0.91-1.17,1.84-1.76,2.75c-0.05,0.07-0.1,0.15-0.15,0.22c0.2,0.16,0.4,0.31,0.6,0.47
			c0.65-0.96,1.31-1.93,1.96-2.9c0.27,0.23,0.55,0.46,0.82,0.69c1.14,0.96,2.28,1.92,3.42,2.89c-0.51,0.79-1.02,1.58-1.53,2.36
			c0.23,0.12,0.45,0.25,0.68,0.37c0.5-0.72,1.01-1.44,1.52-2.16c1.24,1.05,2.48,2.09,3.72,3.14c-0.09,0.14-0.18,0.29-0.27,0.43
			c-0.13,0.2-0.25,0.4-0.38,0.61c0.25,0.09,0.49,0.17,0.74,0.26c0.1-0.16,0.2-0.32,0.3-0.47c0.07-0.11,0.14-0.21,0.21-0.32
			c0.61,0.52,1.23,1.02,1.85,1.54c0.76,0.21,1.53,0.41,2.31,0.58c-1.19-1.01-2.38-2.01-3.58-3.01c0.63-0.97,1.25-1.93,1.86-2.91
			c1.33,1.1,2.67,2.19,4,3.28c-0.55,0.92-1.09,1.85-1.64,2.77c0.24,0.05,0.48,0.1,0.72,0.15c0.46-0.84,0.93-1.69,1.39-2.53
			c1.34,1.09,2.68,2.17,4.02,3.25c0.58,0.04,1.15,0.08,1.73,0.1c0.88-1.51,1.75-3.03,2.61-4.55c0.6,0.46,1.19,0.93,1.77,1.42
			c0.86,0.71,1.69,1.44,2.52,2.18c-0.13,0.28-0.26,0.56-0.4,0.84c0.33-0.03,0.66-0.06,0.99-0.09c0.02-0.05,0.05-0.1,0.07-0.15
			c0.05,0.04,0.09,0.09,0.14,0.13c0.41-0.04,0.82-0.09,1.24-0.14c-0.33-0.28-0.66-0.56-1-0.83c0.19-0.42,0.38-0.84,0.57-1.26
			c0.61-1.35,1.21-2.71,1.82-4.06c1.12,0.81,2.24,1.61,3.35,2.42c0.15,0.11,0.31,0.23,0.46,0.34c-0.42,0.91-0.87,1.83-1.31,2.77
			c0.39-0.08,0.78-0.16,1.16-0.24c0.26-0.69,0.53-1.38,0.8-2.04c0.62,0.46,1.24,0.94,1.86,1.41c0.38-0.1,0.76-0.21,1.15-0.32
			c-0.91-0.6-1.82-1.2-2.71-1.81c0.7-1.69,1.42-3.37,2.12-5.06c1.06,0.72,2.12,1.43,3.19,2.13c-0.27,0.61-0.54,1.21-0.81,1.82
			c-0.4,0.91-0.83,1.83-1.26,2.76c0.36-0.11,0.71-0.22,1.07-0.33c0.19-0.5,0.39-1,0.59-1.49c0.33-0.79,0.64-1.59,0.97-2.39
			c1.07,0.71,2.16,1.41,3.24,2.11c0.59-0.25,1.17-0.51,1.75-0.77c0.13-0.45,0.26-0.9,0.4-1.35c0.23-0.75,0.46-1.5,0.69-2.26
			c0.3,0.18,0.6,0.35,0.89,0.53c0.6,0.36,1.18,0.76,1.75,1.17c0.44-0.25,0.88-0.5,1.31-0.75c0.19-0.11,0.38-0.23,0.57-0.35
			c0.15-0.41,0.3-0.83,0.45-1.24c0.2-0.52,0.42-1.06,0.65-1.6c0.59,0.31,1.18,0.63,1.77,0.95c0.25-0.18,0.51-0.35,0.76-0.54
			c-0.05-0.03-0.11-0.06-0.17-0.09c-0.67-0.36-1.36-0.72-2.05-1.07c0.63-1.47,1.26-2.98,1.69-4.49c1.06,0.68,2.2,1.26,3.34,1.82
			c-0.32,0.81-0.66,1.62-1,2.43c0.46-0.36,0.91-0.74,1.35-1.11c0.11-0.33,0.22-0.66,0.33-0.98c0.17,0.08,0.34,0.17,0.51,0.25
			c0.23-0.21,0.46-0.42,0.68-0.63c-0.3-0.15-0.6-0.3-0.9-0.46c0.63-1.81,1.27-3.65,1.8-5.52c1.1,0.51,2.24,0.99,3.34,1.5
			c0,0.02-0.01,0.03-0.01,0.05C273.63,266.55,274.01,266.07,274.38,265.59z M216.43,281.32c-1.23-1.02-2.47-2.04-3.7-3.06
			c0.65-0.94,1.29-1.9,1.88-2.87c1.22,1,2.44,2.01,3.66,3.01C217.64,279.36,217.03,280.34,216.43,281.32z M228.33,285.54
			c-1.53-1.2-3.06-2.4-4.6-3.59c0.85-1.55,1.69-3.1,2.53-4.65c1.59,1.18,3.19,2.34,4.77,3.55
			C230.12,282.41,229.23,283.97,228.33,285.54z M236.95,283.07c-0.18,0.38-0.36,0.75-0.54,1.13c-0.8-0.64-1.6-1.27-2.39-1.9
			c-0.64-0.51-1.28-1.02-1.93-1.53c0.9-1.6,1.77-3.2,2.62-4.82c1.38,1.03,2.78,2.04,4.18,3.05
			C238.24,280.36,237.59,281.71,236.95,283.07z M243.63,281.42c-0.01,0.03-0.03,0.06-0.04,0.09c-1.29-0.89-2.57-1.79-3.85-2.69
			c0.73-1.65,1.46-3.3,2.19-4.95c1.28,0.88,2.57,1.76,3.86,2.63C245.06,278.13,244.35,279.78,243.63,281.42z M254.67,279.15
			c-0.19,0.57-0.38,1.14-0.58,1.71c-1.22-0.76-2.44-1.52-3.67-2.27c0.51-1.26,1.02-2.53,1.52-3.79c0.43,0.21,0.87,0.42,1.29,0.64
			c0.76,0.4,1.51,0.83,2.25,1.26C255.21,277.52,254.94,278.33,254.67,279.15z M260.59,275.59c-0.34,0.83-0.71,1.66-1.07,2.49
			c-0.68-0.41-1.35-0.8-2-1.19c-0.34-0.2-0.7-0.42-1.07-0.65c0.17-0.55,0.34-1.1,0.51-1.64c0.2-0.64,0.44-1.29,0.64-1.95
			c1.13,0.63,2.29,1.22,3.44,1.82C260.88,274.85,260.74,275.23,260.59,275.59z"/>
		<path class="st3" d="M185.95,105.81c-0.22,0.03-0.44,0.07-0.64,0.14c-0.29,0.1-0.29,0.48,0,0.58c0.28,0.1,0.58,0.14,0.88,0.17
			C186.11,106.41,186.03,106.11,185.95,105.81z"/>
		<path class="st3" d="M155.17,181.59c-0.09,0.11-0.11,0.32,0.05,0.39c0.18,0.08,0.31,0.13,0.51,0.13c0.07,0,0.14,0.01,0.21,0.02
			c0.13-0.41,0.26-0.82,0.4-1.23c-0.04,0-0.08,0.01-0.12,0.03C155.85,181.05,155.41,181.3,155.17,181.59z"/>
		<path class="st3" d="M145.16,207c1.19,0.11,2.4,0.22,3.6,0.25c0.11-0.45,0.22-0.9,0.33-1.35c-1.3-0.11-2.62-0.1-3.93-0.1
			c-0.92,0-1.9-0.18-2.65,0.41c-0.05,0.04-0.04,0.12,0,0.15C143.19,207.01,144.25,206.92,145.16,207z"/>
		<path class="st3" d="M228.82,198.38c0.56,0.59,1.5,0.58,2.27,0.67c0.59,0.06,1.31,0.25,1.94,0.18c-0.13-0.47-0.22-0.94-0.31-1.43
			c-0.43-0.04-0.89,0-1.28-0.02c-0.82-0.03-1.9-0.22-2.59,0.31C228.76,198.17,228.73,198.29,228.82,198.38z"/>
		<path class="st3" d="M229.22,186.54c-0.42,0.25-0.2,0.81,0.23,0.86c0.35,0.04,0.72,0.03,1.1-0.02c-0.11-0.43-0.23-0.85-0.35-1.28
			C229.86,186.22,229.52,186.36,229.22,186.54z"/>
		<path class="st3" d="M183.27,80.62c0.2,0.17,0.41,0.34,0.6,0.52c0.08,0.07,0.19,0.11,0.3,0.08c0.03-0.01,0.05-0.02,0.08-0.03
			c0.08-0.03,0.15-0.1,0.14-0.19c0-0.03,0-0.05,0-0.08c0-0.02-0.01-0.04-0.01-0.05c-0.37-0.17-0.77-0.29-1.17-0.34
			C183.22,80.56,183.23,80.59,183.27,80.62z"/>
		<path class="st3" d="M221.51,210.53c0.03-0.04,0.06-0.08,0.09-0.11c-0.12-0.03-0.24-0.05-0.36-0.08
			C221.17,210.5,221.39,210.68,221.51,210.53z"/>
		<path class="st3" d="M230.71,189.15c-0.41,0.13-0.79,0.26-1.11,0.55c-0.18,0.17-0.07,0.43,0.13,0.5c0.37,0.14,0.75,0.12,1.14,0.1
			c0.13-0.01,0.27-0.01,0.4-0.02c-0.09-0.41-0.19-0.81-0.29-1.22C230.89,189.09,230.8,189.12,230.71,189.15z"/>
		<path class="st3" d="M219.41,210.17c0.07-0.13,0.15-0.26,0.22-0.39c-0.11-0.05-0.21-0.1-0.31-0.15c-0.05,0.15-0.1,0.29-0.14,0.44
			C219.14,210.21,219.34,210.3,219.41,210.17z"/>
		<path class="st3" d="M184.16,101.14c0.29,0.05,0.6,0.09,0.9,0.09c-0.05-0.4-0.09-0.8-0.12-1.21c-0.26,0.03-0.53,0.08-0.78,0.15
			C183.71,100.29,183.66,101.06,184.16,101.14z"/>
		<path class="st3" d="M106.43,203.97c0.2,0.16,0.41,0.33,0.63,0.51c-0.66,0.51-1.3,1.03-1.88,1.61c-0.17,0.17,0,0.5,0.24,0.41
			c0.08-0.03,0.16-0.06,0.24-0.09c0.05-0.02,0.08-0.06,0.09-0.1c0.7-0.39,1.38-0.83,2.04-1.29c0.26,0.17,0.54,0.3,0.83,0.37
			c0.2,0.05,0.38-0.16,0.27-0.35s-0.25-0.35-0.41-0.5c0.61-0.44,1.2-0.89,1.8-1.33c0.34,0.25,0.69,0.5,1.03,0.75
			c-0.71,0.61-1.35,1.27-1.72,2.02c-0.01,0.03,0.01,0.06,0.04,0.05c0.91-0.24,1.72-0.85,2.49-1.51c1.22,0.83,2.47,1.6,3.73,2.2
			c-0.28,0.24-0.56,0.49-0.84,0.73c-0.1,0.09,0.03,0.26,0.14,0.18c0.37-0.25,0.75-0.5,1.13-0.76c0.09-0.01,0.17-0.07,0.21-0.14
			c0.88-0.58,1.77-1.16,2.65-1.76c0.36,0.23,0.72,0.46,1.07,0.69c0.81,0.53,1.61,1.09,2.42,1.64c-0.65,0.47-1.26,0.97-1.78,1.55
			c-0.05,0.06,0,0.16,0.08,0.14c0.84-0.3,1.63-0.73,2.4-1.21c0.96,0.65,1.93,1.3,2.93,1.9c-0.62,0.42-1.25,0.83-1.86,1.27
			c-0.13,0.09-0.05,0.32,0.11,0.27c0.85-0.28,1.66-0.68,2.44-1.14c0.71,0.41,1.44,0.81,2.18,1.15c0.15,0.07,0.33-0.12,0.19-0.25
			c-0.53-0.47-1.08-0.91-1.65-1.34c0.34-0.22,0.67-0.44,1-0.67c0.39-0.28,0.84-0.58,1.28-0.91c0.51,0.28,1.03,0.55,1.53,0.83
			c0.6,0.33,1.21,0.67,1.81,1c-0.83,0.55-1.7,1.09-2.45,1.74c-0.17,0.15,0.01,0.46,0.22,0.38c0.16-0.06,0.33-0.12,0.49-0.18
			c0.03-0.01,0.03-0.06,0-0.07l0,0c0.8-0.43,1.56-0.95,2.32-1.44c0.03-0.02,0.06-0.04,0.09-0.06c1.04,0.58,2.08,1.16,3.12,1.74
			c-0.58,0.48-1.14,0.97-1.67,1.5c-0.16,0.16,0.05,0.43,0.24,0.31c0.73-0.44,1.43-0.93,2.11-1.44c1.16,0.64,2.33,1.26,3.51,1.86
			c-0.28,0.33-0.55,0.66-0.8,1.01c-0.09,0.13,0.09,0.31,0.22,0.22c0.4-0.29,0.78-0.61,1.16-0.93c1.12,0.57,2.25,1.1,3.38,1.62
			c-0.34,0.43-0.66,0.88-0.9,1.36c-0.07,0.15,0.08,0.35,0.24,0.24c0.52-0.35,0.97-0.8,1.41-1.27c0.22,0.1,0.43,0.2,0.65,0.29
			c0.22,0.1,0.4-0.19,0.19-0.33c-0.16-0.11-0.33-0.21-0.49-0.32c0.09-0.09,0.18-0.19,0.27-0.28c0.55-0.57,1.39-1.27,1.53-2.09
			c0.03-0.17-0.1-0.35-0.29-0.29c-0.81,0.24-1.35,1.13-1.85,1.76c-0.12,0.15-0.24,0.29-0.36,0.44c-0.98-0.64-1.97-1.25-2.97-1.85
			c0.46-0.44,0.92-0.88,1.37-1.33c0.33-0.33,0.7-0.65,1.06-0.99c0.38,0.13,0.77,0.21,1.14,0.21c0.16,0,0.22-0.19,0.12-0.3
			c-0.18-0.2-0.39-0.37-0.62-0.53c0.52-0.52,0.99-1.07,1.31-1.7c0.1-0.2-0.1-0.4-0.3-0.3c-0.71,0.37-1.32,0.93-1.9,1.53
			c-0.57-0.25-1.18-0.44-1.71-0.67c-0.28-0.12-0.56-0.23-0.84-0.35c-0.62,0.02-1.24,0.01-1.85-0.03c-0.57,0.39-1.11,0.86-1.65,1.28
			c-0.24,0.19-0.49,0.38-0.73,0.58c-1.01-0.55-2.03-1.1-3.05-1.64c0.39-0.27,0.76-0.56,1.11-0.88c-0.21-0.05-0.41-0.1-0.62-0.15
			c-0.4,0.2-0.8,0.43-1.18,0.67c-0.77-0.41-1.54-0.83-2.31-1.24c-0.4-0.21-0.79-0.44-1.19-0.65c0.07-0.06,0.13-0.13,0.19-0.19
			c-0.38-0.14-0.76-0.27-1.13-0.41c-0.02,0.02-0.04,0.04-0.06,0.05c-0.14-0.08-0.28-0.15-0.42-0.23c-2.24-0.84-4.49-1.73-6.78-2.45
			c0.88,0.49,1.76,0.98,2.65,1.46c-0.02,0.01-0.03,0.02-0.05,0.03c-0.58,0.39-1.19,0.78-1.79,1.18c-0.74-0.47-1.48-0.94-2.21-1.42
			c-0.44-0.29-0.87-0.58-1.31-0.88c0.39-0.27,0.78-0.55,1.17-0.83c-0.41-0.11-0.82-0.22-1.24-0.32c-0.24,0.2-0.49,0.4-0.73,0.6
			c-0.51-0.35-1.03-0.7-1.54-1.05c-0.67-0.1-1.34-0.17-2-0.22c0.94,0.64,1.9,1.26,2.85,1.87c-0.71,0.61-1.41,1.23-2.1,1.83
			c-1.01-0.91-2.16-1.74-3.36-2.52c0.19-0.17,0.38-0.33,0.57-0.48c0.31-0.25,0.64-0.5,0.97-0.75c-0.47-0.02-0.94-0.02-1.41-0.01
			c-0.31,0.23-0.63,0.47-0.94,0.71c-0.33-0.2-0.66-0.41-0.99-0.6c-0.68,0.06-1.35,0.15-2.02,0.27c-0.46,0.33-0.93,0.66-1.39,1.01
			c-0.22-0.15-0.45-0.3-0.66-0.44c-0.04-0.03-0.09-0.06-0.14-0.1c-0.3,0.08-0.59,0.15-0.89,0.24
			C106.16,203.77,106.3,203.87,106.43,203.97z M139.22,211.25c0.65-0.5,1.35-0.99,1.95-1.57c0.5,0.26,1.02,0.49,1.54,0.73
			c0.45,0.21,0.94,0.48,1.43,0.72c-0.25,0.27-0.49,0.54-0.73,0.79c-0.49,0.5-0.98,1-1.46,1.52c-1.06-0.62-2.13-1.22-3.21-1.82
			C138.9,211.5,139.06,211.38,139.22,211.25z M125.6,206.27c0.15-0.1,0.3-0.19,0.45-0.29c0.98,0.53,1.97,1.05,2.95,1.58
			c-0.17,0.16-0.33,0.32-0.5,0.46c-0.48,0.41-0.99,0.78-1.5,1.14c-0.92-0.67-1.88-1.3-2.84-1.92
			C124.64,206.91,125.12,206.58,125.6,206.27z"/>
		<path class="st3" d="M229.77,192.48c-0.56,0.18-0.4,0.87,0,1l0,0c0.01,0,0.03,0,0.05,0.01c0.05,0.01,0.09,0.02,0.14,0.01
			c0.65,0.08,1.33,0.07,2.01,0.02c-0.1-0.46-0.19-0.93-0.29-1.39C231.01,192.19,230.35,192.29,229.77,192.48z"/>
		<path class="st3" d="M229.51,201.34c-0.36-0.07-0.62,0.55-0.15,0.74c0.74,0.3,1.61,0.33,2.41,0.42c0.72,0.08,1.45,0.22,2.18,0.23
			c0.02-0.13,0.02-0.27,0-0.42c-0.04-0.29-0.06-0.57-0.09-0.86c-0.56-0.07-1.14-0.06-1.7-0.09
			C231.29,201.3,230.37,201.18,229.51,201.34z"/>
		<path class="st3" d="M230.61,209.1c-0.15,0.06-0.31,0.12-0.46,0.18c0.06,0.01,0.13,0.03,0.19,0.03
			C230.49,209.33,230.58,209.23,230.61,209.1z"/>
		<path class="st3" d="M229.6,204.86c0.03,0,0.05,0,0.08,0C229.65,204.85,229.63,204.85,229.6,204.86z"/>
		<path class="st3" d="M149.13,195.26c-0.08,0.09-0.07,0.2,0,0.29c0.31,0.37,0.85,0.49,1.33,0.52c0.4,0.03,0.81,0.04,1.21,0.05
			c0.13-0.45,0.25-0.9,0.38-1.35c-0.43,0-0.87,0-1.3,0.01C150.2,194.79,149.53,194.83,149.13,195.26z"/>
		<path class="st3" d="M188.03,239.52c-0.23-0.62-0.88-1.03-1.37-1.44c-0.39-0.34-0.87-0.86-1.38-1.13
			c0.01,0.28,0.02,0.55,0.04,0.83c0.24,0.22,0.49,0.42,0.7,0.61c0.49,0.46,1.12,1.19,1.8,1.35
			C187.93,239.76,188.08,239.65,188.03,239.52z"/>
		<path class="st3" d="M147.22,199.52c1.21-0.15,2.35-0.07,3.49,0.07c0.13-0.47,0.25-0.95,0.38-1.42c-1.35-0.12-2.75,0.06-4.01,0.33
			C146.52,198.63,146.64,199.6,147.22,199.52z"/>
		<path class="st3" d="M145.46,201.5c1.16,0.27,2.36,0.27,3.55,0.38c0.35,0.03,0.71,0.07,1.06,0.12c0.12-0.46,0.24-0.92,0.37-1.38
			c-1.71-0.2-3.51-0.14-4.97,0.39C145.24,201.1,145.2,201.44,145.46,201.5z"/>
		<path class="st3" d="M150.97,192.45c0.56,0.1,1.16,0.2,1.73,0.14c0.14-0.46,0.27-0.93,0.41-1.39c-0.02,0-0.03-0.01-0.06-0.01
			c-0.79,0.02-1.49,0.39-2.16,0.77C150.71,192.06,150.73,192.41,150.97,192.45z"/>
		<path class="st3" d="M181.1,222.94c-0.1-0.25-0.22-0.48-0.33-0.73c-1.1,2.15-1.92,4.46-2.25,6.65c-0.02,0.14,0.18,0.26,0.25,0.11
			c0.75-1.55,1.36-3.16,2.07-4.73c0.29,0.14,0.58,0.27,0.89,0.36c-0.14-0.41-0.3-0.81-0.46-1.21c-0.01,0-0.02-0.01-0.03-0.01
			c0-0.01,0.01-0.02,0.01-0.02C181.21,223.21,181.16,223.07,181.1,222.94z"/>
		<path class="st3" d="M154.16,184.58c-0.29,0.09-0.56,0.23-0.87,0.25c-0.35,0.03-0.35,0.52,0,0.54c0.31,0.02,0.57,0.18,0.87,0.25
			c0.21,0.05,0.42,0.09,0.63,0.1c0.13-0.4,0.25-0.81,0.38-1.21c-0.05-0.01-0.09-0.03-0.15-0.04
			C154.74,184.45,154.44,184.49,154.16,184.58z"/>
		<path class="st3" d="M151.69,189.08c0.69,0.09,1.33,0.17,2.01,0.18c0.14-0.44,0.27-0.89,0.41-1.33c-0.12-0.03-0.25-0.04-0.38-0.02
			c-0.75,0.11-1.41,0.31-2.13,0.53C151.22,188.55,151.34,189.04,151.69,189.08z"/>
		<path class="st3" d="M143.16,203.63c1.8,0.76,4.14,1.04,6.2,1.12c0.11-0.45,0.23-0.91,0.35-1.36c-2.12-0.32-4.54-0.48-6.55-0.03
			C143.01,203.39,143.04,203.58,143.16,203.63z"/>
		<path class="st3" d="M184.56,99.22c0.11-0.01,0.22-0.04,0.33-0.06c-0.02-0.44-0.03-0.87-0.02-1.31c-0.16,0.01-0.31,0.03-0.48,0.06
			c-0.82,0.13-1.58,0.15-1.98,0.92c-0.02,0.05-0.02,0.1,0.02,0.14C183.05,99.58,183.73,99.33,184.56,99.22z"/>
		<path class="st3" d="M177.59,96.04L177.59,96.04c0.35,0.25,0.76,0.59,1.2,0.73c0.05,0.06,0.12,0.08,0.2,0.05
			c0.1,0.02,0.19,0.03,0.29,0.02c0.13-0.01,0.26-0.13,0.21-0.28c-0.02-0.06-0.06-0.1-0.08-0.15c0.26-0.27,0.53-0.55,0.77-0.84
			c0.34,0.22,0.7,0.4,1.09,0.45c0.13,0.02,0.24-0.05,0.3-0.15c0.12,0.25,0.53,0.36,0.75,0.06c0.36-0.5,0.73-1.01,1.09-1.51
			c0.15-0.2,0.32-0.41,0.48-0.63c0.37,0.2,0.74,0.31,0.91,0.02s-0.12-0.55-0.33-0.71c-0.04-0.03-0.09-0.06-0.14-0.09
			c0.03-0.08,0.07-0.16,0.08-0.24c0.05-0.26-0.2-0.49-0.45-0.35c-0.09,0.05-0.17,0.12-0.24,0.19c-0.09-0.06-0.19-0.12-0.28-0.17
			c-0.48-0.31-0.92,0.45-0.44,0.76c0.04,0.02,0.09,0.06,0.15,0.1c-0.11,0.17-0.22,0.34-0.33,0.5l-0.28,0.4
			c-0.12-0.22-0.44-0.41-0.59-0.5c-0.06-0.03-0.11-0.07-0.17-0.11c0.16-0.25,0.31-0.5,0.4-0.78c0.07-0.22-0.2-0.43-0.39-0.3
			c-0.27,0.18-0.49,0.41-0.7,0.66c-0.21-0.12-0.43-0.21-0.65-0.25c-0.17-0.03-0.34,0.14-0.24,0.31c0.11,0.19,0.28,0.35,0.46,0.5
			c-0.12,0.18-0.25,0.36-0.37,0.53c-0.04,0.06-0.08,0.11-0.12,0.17c-0.03-0.02-0.05-0.03-0.08-0.05c-0.17-0.11-0.36-0.23-0.54-0.35
			c0.07-0.06,0.13-0.13,0.2-0.19c0.19-0.19-0.01-0.49-0.25-0.43c-0.23,0.05-0.44,0.14-0.64,0.25c-0.01,0-0.01-0.01-0.02-0.01
			c-0.22,0.13-0.44,0.24-0.67,0.34c0.03,0.04,0.06,0.08,0.09,0.12c-0.24,0.23-0.46,0.49-0.66,0.75c-0.02,0.03-0.05,0.06-0.08,0.1
			c-0.21-0.12-0.43-0.24-0.65-0.35c-0.08,0.04-0.15,0.08-0.25,0.11c-0.11,0.11-0.23,0.2-0.35,0.28c0.24,0.2,0.49,0.4,0.74,0.59
			c-0.34,0.4-0.66,0.81-0.94,1.24c0.11,0.13,0.27,0.22,0.49,0.23C176.94,96.8,177.28,96.41,177.59,96.04z M180.86,94.75
			c0.14-0.17,0.28-0.34,0.42-0.51c0.2,0.16,0.56,0.48,0.87,0.5c-0.18,0.26-0.37,0.53-0.55,0.79c-0.03,0.04-0.04,0.07-0.05,0.11
			c-0.19-0.32-0.48-0.56-0.78-0.78C180.8,94.82,180.83,94.78,180.86,94.75z M178.88,94.66c0.17,0.12,0.35,0.24,0.5,0.36
			c0.08,0.06,0.16,0.11,0.24,0.17c-0.18,0.27-0.35,0.55-0.51,0.84c-0.26-0.24-0.58-0.43-0.86-0.6c-0.02-0.01-0.04-0.02-0.06-0.04
			C178.41,95.14,178.64,94.89,178.88,94.66z"/>
		<path class="st3" d="M185.04,94.23c0.5-0.14,1.16-0.41,1.31-0.97c0.05-0.2-0.1-0.45-0.33-0.43c-0.59,0.06-0.96,0.62-1.19,1.12
			C184.75,94.09,184.86,94.28,185.04,94.23z"/>
		<path class="st3" d="M186.33,89.21c0.15-0.09,0.3-0.17,0.44-0.26c0.41-0.24,0-0.89-0.36-0.62c-0.14,0.1-0.28,0.21-0.41,0.31
			C185.66,88.88,185.95,89.43,186.33,89.21z"/>
		<path class="st3" d="M149.51,216.28c0.01-0.01,0.02-0.02,0.03-0.04c0.06-0.08,0.06-0.22,0-0.31c-0.01-0.01-0.02-0.02-0.03-0.04
			c-0.2-0.3-0.7-0.2-0.7,0.19C148.81,216.48,149.31,216.58,149.51,216.28z"/>
		<path class="st3" d="M178.07,112.24c-0.31-0.03-0.53,0.38-0.36,0.63c0.12,0.18,0.28,0.35,0.46,0.51c0.11-0.35,0.21-0.71,0.32-1.07
			C178.34,112.27,178.2,112.25,178.07,112.24z"/>
		<path class="st3" d="M175.84,119.87c-0.33-0.29-0.67-0.5-1.08-0.64c-0.11-0.04-0.23,0.08-0.2,0.2c0.12,0.38,0.29,0.66,0.54,0.98
			c0.18,0.23,0.36,0.45,0.57,0.63c0.11-0.34,0.22-0.68,0.34-1.02C175.96,119.97,175.9,119.92,175.84,119.87z"/>
		<path class="st3" d="M177.54,115.39c-0.04-0.04-0.08-0.09-0.13-0.13c-0.5-0.44-1.35,0.13-0.96,0.74c0.14,0.22,0.3,0.44,0.49,0.63
			c0.05,0.05,0.11,0.08,0.16,0.11c0.13-0.38,0.25-0.76,0.38-1.14C177.5,115.52,177.52,115.46,177.54,115.39z"/>
		<path class="st3" d="M278.11,231.13c-0.18,0.13-0.26,0.34-0.14,0.55c0.14,0.24,0.25,0.46,0.31,0.73c0.04,0.18,0.33,0.14,0.32-0.04
			c-0.01-0.19,0.01-0.36,0.05-0.53c0.44-0.07,0.93-0.24,1.02-0.72c0.01-0.07,0.01-0.17-0.06-0.22
			C279.13,230.51,278.53,230.82,278.11,231.13z"/>
		<path class="st3" d="M237.79,200.79c-0.23,0.63-0.44,1.26-0.56,1.92c-0.01,0.06,0.01,0.1,0.04,0.14c0.13-0.07,0.26-0.15,0.39-0.22
			c0.36-0.55,0.67-1.13,0.94-1.74C238.33,200.86,238.06,200.83,237.79,200.79z"/>
		<path class="st3" d="M178.11,109.73c-0.17,0.16-0.07,0.41,0.13,0.48c0.28,0.1,0.55,0.16,0.82,0.28c0.12-0.36,0.24-0.72,0.36-1.08
			C178.97,109.34,178.43,109.43,178.11,109.73z"/>
		<path class="st3" d="M226.98,179.46c0.31,0.16,0.66,0.1,0.91-0.15c0.09-0.09,0.12-0.19,0.12-0.29c-0.02-0.07-0.05-0.14-0.07-0.21
			c-0.07-0.11-0.19-0.19-0.34-0.2c-0.29-0.03-0.61,0.14-0.73,0.41C226.79,179.17,226.81,179.38,226.98,179.46z"/>
		<path class="st3" d="M211.51,207.79c1.69-2.49,3.08-5.24,4.52-7.89c0.05-0.1,0.11-0.2,0.17-0.29c-0.35,0-0.7,0.01-1.05,0.02
			c-0.29,0.56-0.57,1.12-0.86,1.69c-0.77-0.55-1.68-0.95-2.51-1.39c-0.49,0.07-0.98,0.15-1.47,0.24c-1.19,1.87-2.53,3.82-3.22,5.86
			c-0.04,0.12,0.12,0.21,0.21,0.12c1.62-1.63,2.75-3.92,3.98-5.86c0.02-0.03,0.04-0.05,0.05-0.08c0.04,0.02,0.08,0.05,0.12,0.07
			c0.85,0.48,1.7,1.08,2.62,1.46c-1,1.95-1.98,3.93-2.76,5.95C211.24,207.83,211.44,207.89,211.51,207.79z"/>
		<path class="st3" d="M179.98,83.28c0.16-0.15,0.31-0.33,0.46-0.5c0.09,0.04,0.17,0.08,0.27,0.1c0.24,0.05,0.55-0.17,0.44-0.44
			c-0.04-0.1-0.1-0.18-0.16-0.27c0.05-0.05,0.09-0.11,0.14-0.16c0.18-0.19,0.38-0.38,0.57-0.56c0.16,0.17,0.34,0.33,0.51,0.42
			c-0.01,0.04-0.04,0.09-0.05,0.13c-0.02,0.11,0.07,0.23,0.19,0.19c0.44-0.14,0.91-0.58,1.05-1.02c0.08-0.23-0.19-0.37-0.37-0.29
			c-0.14,0.06-0.27,0.18-0.4,0.31c-0.09-0.14-0.22-0.28-0.34-0.41c0.02-0.02,0.04-0.04,0.05-0.07c0.04-0.06,0.04-0.13,0.02-0.19
			c-0.42,0.05-0.83,0.18-1.23,0.41c-0.08,0.04-0.32,0.23-0.64,0.48c-0.05,0.06-0.11,0.11-0.17,0.17c-0.01-0.01-0.02-0.01-0.03-0.02
			c-0.2,0.16-0.41,0.34-0.62,0.53c0.05,0.06,0.09,0.12,0.14,0.17c-0.14,0.23-0.27,0.47-0.36,0.7c-0.08,0.21,0.09,0.36,0.28,0.37
			c0.04,0,0.07-0.01,0.11-0.01C179.91,83.33,179.95,83.31,179.98,83.28z"/>
		<path class="st3" d="M183.83,104.39c0.58,0.14,1.21,0.13,1.77-0.05c-0.09-0.4-0.17-0.79-0.24-1.19c-0.56-0.04-1.13,0.08-1.64,0.32
			C183.31,103.66,183.43,104.29,183.83,104.39z"/>
		<path class="st3" d="M176.33,91.12c-0.07,0.33-0.11,0.66-0.14,0.98c0.37-0.35,0.72-0.73,1.07-1.1c0.08-0.08,0.15-0.17,0.23-0.25
			c0.03,0.02,0.06,0.04,0.09,0.07c0.36,0.32,0.67,0.74,1.1,0.95c0.08,0.04,0.15,0.03,0.22,0c-0.01,0.01-0.01,0.03-0.02,0.04
			c-0.08,0.2,0.21,0.28,0.32,0.13c0.39-0.53,0.77-1.08,1.19-1.59c0.16-0.2,0.33-0.39,0.5-0.59c0.33,0.23,0.69,0.36,0.95,0.11
			c0.23-0.23,0-0.59-0.2-0.74c-0.07-0.05-0.14-0.09-0.21-0.13l0,0c0.1-0.18-0.1-0.39-0.29-0.29c-0.03,0.02-0.06,0.05-0.1,0.07
			c-0.15-0.08-0.31-0.15-0.46-0.22c-0.35-0.15-0.77,0.27-0.44,0.57c0.06,0.05,0.14,0.13,0.22,0.21c-0.16,0.17-0.31,0.36-0.46,0.56
			c-0.12-0.12-0.26-0.23-0.38-0.33c-0.24-0.2-0.49-0.38-0.73-0.57c0.01-0.02,0.02-0.04,0.03-0.06c0.12-0.23-0.14-0.57-0.39-0.39
			c-0.08,0.05-0.14,0.12-0.21,0.18c0.04,0.24-0.04,0.5-0.27,0.64c-0.41,0.23-0.8,0.46-1.23,0.66c-0.04,0.02-0.07,0.05-0.1,0.08
			c0.05,0.03,0.1,0.07,0.14,0.1c-0.12,0.14-0.24,0.29-0.36,0.44C176.38,90.84,176.35,91.02,176.33,91.12z M178.46,89.57
			c0.21,0.22,0.41,0.43,0.63,0.64c0.13,0.12,0.26,0.26,0.41,0.35c-0.17,0.3-0.32,0.59-0.44,0.88c-0.13-0.5-0.55-0.93-1.05-1.28
			C178.17,89.97,178.32,89.77,178.46,89.57z"/>
		<path class="st3" d="M177.75,87.96c0.5-0.12,0.91-0.6,1.26-1c0.18,0.15,0.37,0.28,0.58,0.36c0.32,0.12,0.52-0.27,0.4-0.52
			c-0.04-0.08-0.19-0.26-0.4-0.47c0.3-0.34,0.58-0.7,0.79-1.1c0.28,0.22,0.56,0.44,0.84,0.66c-0.3,0.36-0.61,0.73-0.84,1.14
			c-0.1,0.17,0.11,0.3,0.25,0.19c0.44-0.34,0.81-0.77,1.18-1.18c0.3-0.33,0.65-0.66,0.85-1.07c0.05,0.06,0.11,0.12,0.16,0.19
			c0.27,0.33,0.58,0.72,1.02,0.81c0.24,0.05,0.42-0.12,0.42-0.35c0.2-0.2,0.45-0.41,0.6-0.66c0.01,0.05,0.04,0.11,0.08,0.16
			c0.21,0.23,0.41,0.46,0.68,0.62c0.12,0.07,0.29,0.08,0.4,0c0.06-0.04,0.11-0.08,0.14-0.14c0.08-0.18,0.06-0.33-0.06-0.48
			c-0.13-0.15-0.29-0.27-0.46-0.39c-0.22-0.02-0.44-0.06-0.65-0.15c-0.01,0-0.01,0.01-0.02,0.01c0-0.01-0.01-0.02-0.02-0.03
			c-0.06-0.03-0.13-0.07-0.19-0.11c-0.01,0-0.02,0-0.04,0c-0.29,0.1-0.51,0.35-0.71,0.6c-0.13-0.16-0.29-0.31-0.44-0.45
			c-0.3-0.28-0.64-0.63-1.04-0.77c-0.04-0.01-0.07-0.01-0.1-0.01c-0.07,0.04-0.14,0.07-0.21,0.11c-0.05,0.08-0.07,0.18-0.05,0.28
			c-0.01,0-0.01,0-0.02,0c0.05,0.16,0.14,0.31,0.24,0.45c-0.22,0.13-0.41,0.3-0.58,0.5c-0.29-0.23-0.59-0.46-0.89-0.68
			c-0.33,0.1-0.65,0.2-0.97,0.28c0,0.02,0,0.03,0,0.05c-0.39,0.27-0.72,0.6-1.03,0.95c-0.17-0.13-0.34-0.25-0.49-0.33
			c-0.19,0.11-0.36,0.23-0.51,0.37c0.12,0.21,0.34,0.41,0.49,0.56c-0.37,0.43-0.82,0.92-0.88,1.46
			C177.53,87.91,177.66,87.98,177.75,87.96z"/>
		<path class="st3" d="M183.09,89.2c-0.18,0.21-0.32,0.44-0.3,0.67c0.01,0.15,0.12,0.27,0.27,0.27c0.44,0.01,0.81-0.49,1.1-0.77
			c0.29-0.29,0.57-0.6,0.75-0.98c-0.38,0.05-0.78,0.08-1.16,0.11c-0.05,0.05-0.1,0.1-0.15,0.16c-0.11-0.05-0.22-0.1-0.34-0.13
			c-0.33,0.01-0.66,0.02-0.97,0.02c0,0.03,0.02,0.07,0.05,0.1C182.58,88.83,182.83,89.04,183.09,89.2z"/>
		<path class="st3" d="M278.89,231.91c-0.16,0.48-0.16,1.01-0.12,1.51c0.04,0.62,0.3,1.13,0.45,1.72c0.06,0.23,0.37,0.16,0.39-0.05
			c0.06-0.58,0.22-1.08,0.2-1.67c-0.02-0.53-0.12-1.11-0.36-1.58C279.32,231.58,278.96,231.67,278.89,231.91z"/>
		<path class="st3" d="M278.2,226.16c0.02-0.04,0.04-0.09,0.06-0.13c0.09-0.12,0.04-0.3-0.05-0.4c-0.02-0.02-0.04-0.04-0.06-0.06
			c-0.09-0.1-0.26-0.1-0.35,0c-0.02,0.02-0.04,0.04-0.06,0.06c-0.1,0.1-0.14,0.28-0.05,0.4c0.02,0.04,0.04,0.09,0.06,0.13
			C277.79,226.38,278.14,226.38,278.2,226.16z"/>
		<path class="st3" d="M275.83,238.54c0.04,0.83,0.19,1.67,0.22,2.49c0.01,0.28,0.4,0.27,0.42,0c0.05-0.73,0.24-1.45,0.3-2.18
			c0.02-0.22,0.06-0.45,0.09-0.68c0.42,0.05,0.84,0.1,1.27,0.15c0.68,0.08,1.35,0.27,1.99-0.02c0.26-0.12,0.19-0.47,0-0.6
			c-0.49-0.34-1.11-0.3-1.69-0.33c-0.52-0.03-1.03-0.07-1.55-0.1c-0.03-0.17-0.08-0.33-0.18-0.49c-0.16-0.27-0.53-0.25-0.7,0
			c-0.1,0.15-0.16,0.31-0.19,0.47c-0.27,0.12-0.27,0.53-0.02,0.73C275.8,238.16,275.82,238.35,275.83,238.54z"/>
		<path class="st3" d="M254.44,256.3c-0.13-0.03-0.23,0.16-0.09,0.22c0.02,0.01,0.03,0.01,0.05,0.02c-0.51,1.29-0.94,2.6-1.39,3.91
			c-0.11,0.32-0.22,0.63-0.33,0.95c-0.65-0.2-1.31-0.4-1.96-0.6c0.05-0.29-0.38-0.52-0.53-0.21c-0.01,0.01-0.01,0.03-0.02,0.04
			c-0.3-0.09-0.6-0.18-0.89-0.28c-0.24-0.07-0.33,0.29-0.1,0.37c0.27,0.1,0.55,0.2,0.82,0.3c-0.52,1.16-1.02,2.41-1.26,3.67
			c-0.91-0.27-1.83-0.52-2.76-0.71c-0.14-0.03-0.33,0.07-0.31,0.24c0.07,0.59,0.21,0.83,0.83,0.94c0.17,0.03,0.25-0.22,0.08-0.27
			c0.34,0.08,1.15,0.28,1.22,0.3c0.28,0.1,0.56,0.19,0.84,0.28c-0.02,0.17-0.03,0.33-0.04,0.5c0,0.17,0.22,0.21,0.3,0.08
			c0.09-0.13,0.17-0.27,0.25-0.41c0.42,0.14,0.84,0.28,1.26,0.42c0.29,0.09,0.58,0.19,0.87,0.3c0,0.02-0.01,0.04-0.01,0.05
			c-0.02,0.14,0.16,0.23,0.23,0.1c0.01-0.02,0.02-0.04,0.03-0.06c1.17,0.41,2.37,0.81,3.59,0.93c0.27,0.03,0.35-0.37,0.13-0.49
			c-1.03-0.58-2.19-0.9-3.33-1.23c0.54-1.11,0.95-2.27,1.35-3.44c0.79,0.29,1.58,0.58,2.37,0.86c0.17,0.06,0.34,0.13,0.51,0.19
			c-0.19,0.77-0.33,1.54-0.38,2.31c-0.01,0.13,0.18,0.17,0.24,0.07c0.39-0.64,0.7-1.34,0.97-2.06c1.72,0.67,3.5,1.39,5.27,1.58
			c0.24,0.03,0.3-0.32,0.12-0.43c-1.53-0.92-3.39-1.37-5.13-1.89c0.42-1.24,0.75-2.53,1.14-3.73c0.1-0.31,0.2-0.63,0.31-0.94
			c0.48,0.16,0.97,0.32,1.44,0.49c1.01,0.35,2.02,0.75,3.04,1.11c-0.14,0.81-0.23,1.62-0.23,2.42c0,0.17,0.24,0.24,0.32,0.09
			c0.35-0.69,0.63-1.42,0.87-2.18c0.83,0.27,1.66,0.49,2.51,0.63c0.24,0.04,0.42-0.29,0.17-0.41c-0.78-0.4-1.6-0.72-2.44-1.01
			c0.49-1.75,0.81-3.59,1.23-5.29c0.03-0.1,0.05-0.2,0.08-0.31c1.36,0.61,2.73,1.17,4.12,1.65c0.28,0.1,0.5-0.16,0.5-0.41
			c0.1,0.08,0.27,0.05,0.33-0.09c0.63-1.59,0.95-3.31,1.28-5c1.07,0.31,2.14,0.55,3.21,0.66c0.28,0.03,0.4-0.41,0.14-0.54
			c-0.98-0.48-2.05-0.84-3.14-1.15c0.01-0.06,0.02-0.12,0.04-0.18c0.38-1.77,0.73-3.57,0.84-5.38c1.6,0.48,3.22,0.95,4.84,1.21
			c0.48,0.07,0.68-0.57,0.2-0.74c-1.6-0.56-3.31-0.92-5.01-1.26c0-0.09,0.01-0.19,0.01-0.28c0-0.36-0.49-0.39-0.6-0.08
			c-0.03,0.07-0.05,0.15-0.07,0.23c-0.63-0.13-1.26-0.26-1.88-0.4c-0.35-0.08-0.5,0.45-0.15,0.54c0.6,0.17,1.2,0.35,1.81,0.53
			c-0.54,1.73-0.84,3.53-1.13,5.32c-0.01,0.06-0.02,0.13-0.03,0.19c-1.3-0.32-2.61-0.59-3.88-0.89c0.17-0.92,0.3-1.84,0.37-2.76
			c0.02-0.25-0.32-0.24-0.39-0.05c-0.35,0.84-0.63,1.7-0.9,2.58c-0.04-0.01-0.09-0.02-0.13-0.03c-0.32-0.09-0.45,0.4-0.14,0.5
			c0.04,0.01,0.08,0.03,0.12,0.04c-0.42,1.47-0.77,2.98-1.11,4.47c-1.76-0.67-3.55-1.28-5.31-1.89c-0.13-0.05-0.22,0.17-0.1,0.23
			c1.71,0.86,3.44,1.74,5.2,2.55c-0.04,0.16-0.07,0.31-0.11,0.47c-0.39,1.68-0.94,3.45-1.3,5.22c-0.79-0.24-1.59-0.47-2.37-0.72
			c-0.69-0.22-1.38-0.45-2.07-0.68c0.6-1.89,1.18-3.8,1.62-5.73c0.1-0.43-0.49-0.57-0.64-0.18c-0.72,1.83-1.32,3.72-1.89,5.6
			c-0.93-0.3-1.86-0.57-2.8-0.8c0.1-0.35,0.2-0.71,0.29-1.07c0.07-0.3-0.39-0.53-0.53-0.22C254.75,255.55,254.6,255.92,254.44,256.3
			C254.47,256.31,254.46,256.3,254.44,256.3z M251.43,265.52c-0.05-0.01-0.1-0.03-0.14-0.04c-0.59-0.18-1.18-0.36-1.77-0.54
			c0.54-1.16,0.85-2.45,1.1-3.68c0.62,0.23,1.25,0.45,1.87,0.68C252.08,263.11,251.68,264.3,251.43,265.52z M267.03,248.24
			c1.25,0.42,2.53,0.89,3.82,1.3c-0.3,1.72-0.6,3.48-0.58,5.2c-0.03-0.04-0.07-0.07-0.12-0.1c-1.36-0.69-2.76-1.29-4.19-1.86
			C266.34,251.28,266.73,249.77,267.03,248.24z M255.1,256.85c0.89,0.38,1.8,0.71,2.72,1.03c-0.1,0.33-0.2,0.67-0.3,1
			c-0.36,1.19-0.81,2.44-1.16,3.69c-0.96-0.31-1.92-0.61-2.88-0.91c0.04-0.11,0.08-0.22,0.11-0.33
			C254.11,259.85,254.66,258.36,255.1,256.85z"/>
		<path class="st3" d="M178.75,106.63c-0.55,0.1-0.45,0.85,0,1c0.39,0.14,0.8,0.23,1.2,0.35c0.17-0.42,0.36-0.84,0.55-1.25
			C179.91,106.57,179.28,106.53,178.75,106.63z"/>
		<path class="st3" d="M278.44,256c0.28,0.09,0.55,0.19,0.83,0.28c-0.01,0.47-0.03,0.95-0.06,1.42c0.37-0.78,0.72-1.56,1.04-2.34
			c-0.1-1.74-0.34-3.44-0.76-5.01c-0.04-0.15-0.28-0.12-0.27,0.04c0.04,1.7,0.08,3.37,0.07,5.04c-0.21-0.06-0.43-0.11-0.64-0.17
			C278.16,255.13,277.97,255.85,278.44,256z"/>
		<path class="st3" d="M282.83,244.99c-0.08-0.55-0.18-1.09-0.33-1.61c-0.03-0.09-0.17-0.1-0.19,0c-0.4,1.96-0.18,4.12-0.13,6.12
			c0,0.06,0,0.12,0.01,0.17c0.3-1.11,0.56-2.22,0.77-3.34c-0.01-0.17-0.02-0.34-0.03-0.51c0.04,0.01,0.08,0.03,0.12,0.05
			c0.05-0.29,0.11-0.59,0.15-0.88c-0.02-0.01-0.03-0.01-0.05-0.02C283.02,244.93,282.92,244.95,282.83,244.99z"/>
		<path class="st3" d="M281.73,251.25c0.08-0.27,0.17-0.54,0.24-0.81C281.68,250.57,281.53,251,281.73,251.25z"/>
	</g>
	<path class="st4" d="M285.04,230.19c-0.43-5.06-1.72-10.05-3.92-14.71c-1.87-3.95-4.81-7.78-8.45-10.53
		c-6.6-5.78-15.21-7.99-23.95-6.65c-2.18,0.34-4.23,1.01-6.21,1.86c-0.08-0.24-0.29-0.41-0.54-0.51c-1.9-0.75-4.31-1.18-6.39-1.01
		c-0.05-3.07-1.32-6.53-2.01-9.23c-1.28-4.94-2.97-9.77-4.84-14.52c-3.67-9.32-8.76-17.93-14.53-26.08
		c-5.77-8.15-12.07-15.91-17.37-24.39c-2.78-4.45-5.13-9.16-7.11-14.01c-1.75-4.32-2.61-8.82-3.83-13.28
		c0.98-0.41,1.84-1.04,2.43-2.03c0.69-1.17,0.48-2.95-0.6-3.74c0.56-0.4,0.99-1.02,1.05-1.61c0.07-0.68-0.17-1.43-0.61-1.96
		c0.7-0.51,1.19-1.36,1.26-2.2c0.06-0.75-0.31-1.49-0.8-2.03c-0.02-0.02-0.04-0.03-0.05-0.05c0.05-0.17,0.06-0.34,0.01-0.5
		c-1.08-3.16-4.63-5.4-7.9-3.88c-1.51,0.7-2.61,1.8-3,3.44c-0.09,0.37-0.09,0.88,0.08,1.21c-0.57,0.19-1.11,0.61-1.45,1.12
		c-0.45,0.66-0.58,1.31-0.47,2.1c0.08,0.53,0.5,0.9,0.94,1.22c-0.73,0.27-1.36,0.58-1.67,1.35c-0.42,1.06-0.22,2.17,0.31,3.11
		c-0.4,0.18-0.73,0.42-0.94,0.73c-0.01,0.01-0.03,0.02-0.04,0.03c-0.7,0.78-1.04,1.66-1.01,2.72c0.04,1.57,1.38,3.08,2.92,3.1
		c-3.57,8.64-5.3,18.31-7.66,27.31c-2.55,9.71-5.02,19.44-7.91,29.06c-5.6,18.63-13.43,35.85-25.68,51.05
		c-6.16-2.08-12.1-5.38-18.5-6.39c-8.03-1.27-16.09,2.08-22.18,7.11c-14.5,11.98-15.1,34.54-8.33,50.66
		c6.86,16.34,22.57,28.26,40.13,30.59c18.19,2.41,36.67-5.02,47.8-19.68c4.94-6.5,8.73-14.49,10.08-22.74
		c1.97,9.35,6.31,18.33,12.09,25.77c5.78,7.43,13.07,12.54,22.19,14.99c8.79,2.37,18.34,1.84,27.14-0.18
		c17.57-4.04,32.54-16.28,38.3-33.54c1.29-3.86,1.92-8.29,1.84-12.62C285.95,237.21,285.71,233.61,285.04,230.19z M240.5,201.09
		c-1.43,0.72-2.82,1.51-4.2,2.32c0.1-0.88-0.09-1.9-0.4-2.91C237.41,200.78,238.96,200.96,240.5,201.09z M183.52,222.27
		c-1.63-4.28-4.41-8-7.88-10.94c-6.36-5.4-17.53-8.34-25.48-4.71c6.48-16.43,11.12-33.75,16.45-50.57
		c2.67-8.44,5.35-16.87,7.99-25.31c1.39-4.44,2.72-8.91,4.08-13.36c0.85-2.78,1.99-5.67,2.68-8.58
		c4.24,13.64,15.19,25.51,23.64,36.29c6.42,8.19,11.91,16.89,15.53,26.69c3.13,8.45,4.82,17.69,5.58,26.74
		c-3-1.5-7.68-2.06-11.36-1.26c-4.02,0.21-8.06,1.33-11.65,2.91c-7.76,3.4-13.79,10.47-16.96,18.22c-0.8,1.97-1.44,3.97-1.94,6
		C184,223.63,183.77,222.91,183.52,222.27z M278.84,258.47c-4.12,8.3-10.82,14.87-18.71,19.59c-15.31,9.17-37.06,11.33-52.5,1.44
		c-7.75-4.96-13.07-13.29-16.98-21.41c-4.51-9.37-6.53-20.08-4.8-30.39c1.51-8.98,6.26-17.45,13.64-22.86
		c7.87-5.77,17.1-6.12,26.3-4.22c0.2,0.04,0.37-0.04,0.48-0.17c0.04,0.63,0.08,1.27,0.12,1.9c0.03,0.5,0.72,0.49,0.77,0
		c2.21-19.68-5.06-37.87-16.51-53.6c-5.71-7.85-12.19-15.11-17.84-23c-6.04-8.44-10.15-17.38-12.78-27.39
		c-0.06-0.24-0.45-0.19-0.44,0.06c0.07,2.71,0.46,5.35,1.1,7.92c-1.45,2.88-2.21,6.22-3.2,9.25c-1.45,4.43-2.95,8.84-4.37,13.28
		c-2.84,8.87-5.65,17.75-8.47,26.63c-5.53,17.44-11.97,34.9-16.12,52.72c-0.14,0.6,0.68,0.8,0.9,0.25c0.08-0.19,0.15-0.38,0.23-0.57
		c3.67-0.47,7.06-1.05,10.81-0.71c4.99,0.46,9.78,2.51,13.54,5.78c3.13,2.72,5.5,6.16,7.1,9.97c0.7,1.66,1.23,3.4,1.73,5.13
		c0.19,0.65,0.3,1.3,0.39,1.96c-0.42,3.8-0.38,7.65,0.09,11.46c-1.27,7.53-3.6,14.48-7.78,21.11c-4.92,7.8-11.69,14.2-19.83,18.55
		c-19.14,10.25-43.23,5.48-58.09-9.87c-14.47-14.95-18.57-41.27-5.32-58.25c6.46-8.27,17.12-12.17,27.3-9.78
		c9.38,2.2,17.71,8.41,27.69,5.32c0.18-0.06,0.16-0.38-0.05-0.35c-3.74,0.5-7.28-0.08-10.74-1.13
		c12.84-13.14,20.25-31.03,25.71-48.29c3.16-9.99,5.69-20.17,8.32-30.31c2.49-9.62,5.99-19.57,7.06-29.49
		c0.26-0.07,0.52-0.14,0.77-0.25c0.12-0.05,1.63-0.8,1.56-0.85c0.16,0.12,0.31-0.06,0.36-0.18c0.02-0.04-0.04-0.07-0.07-0.06
		c0,0.01-0.01,0.03-0.01,0.04c0.05-0.12-0.05-0.26-0.16-0.29c-1.14-0.32-2.2-0.41-3.39-0.35c-1.01,0.05-0.89-1.22-0.6-1.95
		c0.21-0.1,0.39-0.23,0.55-0.4c0.33-0.1,0.56-0.26,0.71-0.45c0.04-0.01,0.08-0.02,0.13-0.03c0.98-0.26,1.93-0.86,2.69-1.53
		c0.13-0.12,0.06-0.36-0.11-0.4c-0.81-0.19-2.49-0.26-3.83,0.08c0.02-0.42,0.07-0.84,0.16-1.26c0.05-0.25,0.14-0.97,0.41-1.1
		c0.43-0.2,0.82-0.42,1.23-0.66c0.25-0.14,0.33-0.44,0.26-0.7c0.04,0.04,0.03-0.01-0.03-0.13c0,0,0-0.01-0.01-0.01l0,0
		c-0.06-0.1-0.13-0.17-0.22-0.22c-0.16-0.09-0.35-0.2-0.54-0.24c0.04-0.23,0.06-0.46,0.02-0.71c-0.07-0.45-0.04-0.78,0.17-1.18
		c0.3-0.58,1.11-0.9,1.67-1.26c0.11-0.03,0.23-0.06,0.33-0.08c0.96-0.25,2.06-0.53,2.9-1.07c0.05-0.03,0.06-0.12,0-0.14
		c-0.8-0.4-2.62-0.43-4.09,0c0.21-0.77,2.44-2.52,2.7-2.67c1.95-1.11,4.26,0.03,5.3,1.81c-0.69,0.2-1.39,0.26-2.02,0.68
		c-0.23,0.15-0.27,0.45-0.08,0.65c0.79,0.86,1.9,0.73,2.92,0.35c0.23,0.07,0.14-0.1,0.36,0.11c0.18,0.18,0.26,0.43,0.32,0.67
		c0.18,0.73-0.28,1.07-0.83,1.22c-0.09,0.02-0.19,0.05-0.29,0.06c-0.17,0.03-0.34,0.04-0.49,0.05c-0.12,0-0.22,0.03-0.31,0.06
		c-0.78,0.08-1.57,0.09-1.98,0.17c-1.32,0.25-2.98,0.6-4.11,1.36c-0.08,0.06-0.07,0.18,0.03,0.21c0.8,0.24,4.04,0.36,6.33-0.19
		c0.17,0.04,0.33,0.07,0.49,0.07c0.49,0.27,0.89,0.7,0.6,1.3c-0.07,0.16-0.18,0.25-0.31,0.32c-0.73-0.07-1.57,0.13-2.21,0.24
		c-1.21,0.21-1.95,1.04-2.91,1.68c-0.09,0.06-0.06,0.2,0.06,0.21c1.22,0.09,2.14,0.3,3.38,0.02c0.22-0.05,0.49-0.13,0.76-0.22
		c0.03,0.04,0.05,0.08,0.09,0.12c0.96,0.86,1.09,1.93,0.17,2.89c-0.9,0.94-2.44,1.01-3.65,1.19c-1,0.15-0.76,1.82,0.24,1.75
		c0.63-0.04,1.26-0.14,1.86-0.29c-0.17,8.25,3.84,16.7,7.73,23.72c5,9.03,11.5,17.13,17.59,25.42c5.9,8.05,11.15,16.41,15.17,25.56
		c2.19,4.99,3.89,10.15,5.27,15.42c0.65,2.47,1.17,4.97,1.68,7.47c0.42,2.1,0.44,4.29,1.55,6.13c0.04,0.38,0.07,0.75,0.12,1.13
		c0.31,2.4-4.29,2.75-5.88,2.49c-0.16-0.03-0.25,0.17-0.11,0.27c0.97,0.67,2.03,1.13,3.09,1.31c-4.92,2.4-10.64,3.83-15.28,0.13
		c-0.1-0.08-0.23,0.04-0.14,0.14c6.73,8.17,16.69,1.96,23.85-2.18c8.64-5,18.53-5.26,27.22-1.5c5.52,3.18,9.82,7.5,12.86,13.43
		c3.22,6.28,3.89,13.4,4.29,20.4C283.83,244.38,282.33,251.43,278.84,258.47z"/>
</g>
</svg>
