<svg xmlns="http://www.w3.org/2000/svg" viewBox="0 0 237.03 252.89"><defs><style>.cls-1,.cls-5{fill:#2f2f2f;}.cls-1{opacity:0.3;}.cls-2{fill:#fff;}.cls-3{fill:#ec1c24;}.cls-4{fill:#4c4c4c;}</style></defs><g id="Layer_2" data-name="Layer 2"><g id="Layer_1-2" data-name="Layer 1"><path class="cls-1" d="M231.68,168.44a36,36,0,0,0-37.2-19.72,28.78,28.78,0,0,0-7.13,2.14,1,1,0,0,0-.62-.59,17.2,17.2,0,0,0-7.33-1.16c-.06-3.53-1.51-7.5-2.31-10.6a143.37,143.37,0,0,0-5.56-16.66,142.51,142.51,0,0,0-16.68-29.94c-6.62-9.36-13.85-18.27-19.94-28a105.11,105.11,0,0,1-8.16-16.08c-2-5-3-10.13-4.39-15.25a5.63,5.63,0,0,0,2.79-2.33,3.44,3.44,0,0,0-.69-4.3,2.84,2.84,0,0,0,1.21-1.84,3.12,3.12,0,0,0-.71-2.26,3.55,3.55,0,0,0,1.45-2.52,3.23,3.23,0,0,0-.92-2.33l-.06-.05a.86.86,0,0,0,0-.57c-1.23-3.63-5.31-6.2-9.06-4.46a5.81,5.81,0,0,0-3.45,3.95,2.23,2.23,0,0,0,.09,1.38,3.36,3.36,0,0,0-1.66,1.29,3.16,3.16,0,0,0-.54,2.4,2.27,2.27,0,0,0,1.08,1.4A2.83,2.83,0,0,0,110,23.89a4.09,4.09,0,0,0,.36,3.57,2.43,2.43,0,0,0-1.08.84l0,0a4.31,4.31,0,0,0-1.16,3.12A3.69,3.69,0,0,0,111.42,35c-4.1,9.91-6.09,21-8.8,31.34C99.7,77.49,96.86,88.66,93.54,99.7c-6.42,21.38-15.41,41.15-29.47,58.59C57,155.91,50.18,152.12,42.84,151c-9.22-1.46-18.47,2.38-25.47,8.16C.73,172.87,0,198.76,7.81,217.26a58.91,58.91,0,0,0,100.93,12.53,60.08,60.08,0,0,0,11.56-26.1,73.44,73.44,0,0,0,13.89,29.58,47.06,47.06,0,0,0,25.47,17.21c10.09,2.72,21.05,2.11,31.15-.21,20.16-4.64,37.34-18.69,44-38.5a44.37,44.37,0,0,0,2.1-14.49,42.7,42.7,0,0,0-.69-12A49.07,49.07,0,0,0,231.68,168.44Zm-112,7.8a31,31,0,0,0-9-12.56c-7.31-6.2-20.12-9.58-29.25-5.41,7.43-18.86,12.77-38.74,18.88-58.05q4.6-14.52,9.18-29c1.59-5.1,3.12-10.23,4.68-15.34,1-3.19,2.29-6.5,3.08-9.84,4.87,15.66,17.43,29.28,27.13,41.65,7.37,9.41,13.66,19.38,17.82,30.63a117.87,117.87,0,0,1,6.41,30.7,21.67,21.67,0,0,0-13-1.45,38.92,38.92,0,0,0-13.37,3.34c-8.91,3.9-15.83,12-19.46,20.91a49.32,49.32,0,0,0-2.22,6.89C120.21,177.79,119.94,177,119.66,176.24Z"/><path class="cls-2" d="M182,140.56c-1.63.83-3.23,1.73-4.81,2.67a8.39,8.39,0,0,0-.46-3.34C178.49,140.2,180.27,140.41,182,140.56Z"/><path class="cls-3" d="M226.05,206.42c-4.73,9.53-12.42,17.07-21.48,22.49-17.57,10.52-42.54,13-60.26,1.66-8.89-5.69-15-15.26-19.49-24.58-5.18-10.75-7.49-23.05-5.5-34.88,1.73-10.3,7.18-20,15.66-26.23,9-6.62,19.62-7,30.18-4.85a.56.56,0,0,0,.55-.19c0,.72.1,1.45.14,2.17a.44.44,0,0,0,.88,0c2.53-22.58-5.81-43.46-18.95-61.52-6.56-9-14-17.34-20.49-26.41a93.88,93.88,0,0,1-14.67-31.43.26.26,0,0,0-.5.07,42.37,42.37,0,0,0,1.26,9.09c-1.66,3.31-2.54,7.14-3.68,10.61-1.66,5.09-3.38,10.15-5,15.24Q99.79,72.94,95,88.23c-6.34,20-13.74,40.06-18.51,60.52a.54.54,0,0,0,1,.28l.26-.66c4.22-.53,8.1-1.2,12.41-.81a27.69,27.69,0,0,1,15.54,6.63,31.13,31.13,0,0,1,8.15,11.45,54.93,54.93,0,0,1,2,5.88,16.25,16.25,0,0,1,.44,2.25,56.71,56.71,0,0,0,.1,13.15,64.32,64.32,0,0,1-8.93,24.24A60.91,60.91,0,0,1,84.7,232.45c-22,11.76-49.62,6.3-66.68-11.32C1.42,204-3.29,173.76,11.91,154.27A30.92,30.92,0,0,1,43.25,143c10.77,2.52,20.33,9.65,31.78,6.1.21-.07.18-.43,0-.4a29,29,0,0,1-12.34-1.3C77.38,132.36,85.89,111.83,92.16,92c3.62-11.47,6.53-23.15,9.54-34.79,2.87-11,6.87-22.47,8.11-33.85a5.78,5.78,0,0,0,.89-.29,13.9,13.9,0,0,0,1.8-1c.18.15.35-.06.4-.21s0-.08-.08-.06v.05a.27.27,0,0,0-.19-.33,11.83,11.83,0,0,0-3.89-.4c-1.16.06-1-1.4-.69-2.23a2.37,2.37,0,0,0,.63-.46,1.61,1.61,0,0,0,.82-.51l.14,0a7.84,7.84,0,0,0,3.08-1.76.27.27,0,0,0-.12-.46,10.93,10.93,0,0,0-4.39.09,8.09,8.09,0,0,1,.18-1.45c.06-.29.17-1.11.47-1.26.49-.23.94-.48,1.41-.75a.7.7,0,0,0,.3-.8s0,0,0-.16h0a.78.78,0,0,0-.26-.25,2.31,2.31,0,0,0-.62-.28,2.19,2.19,0,0,0,0-.81,2.06,2.06,0,0,1,.19-1.36c.35-.67,1.28-1,1.92-1.44l.38-.1a11.69,11.69,0,0,0,3.33-1.23.1.1,0,0,0,0-.17,7.9,7.9,0,0,0-4.7,0c.24-.89,2.81-2.89,3.11-3.06,2.24-1.28,4.88,0,6.08,2.07a7.66,7.66,0,0,0-2.32.78.49.49,0,0,0-.1.75c.91,1,2.18.83,3.36.4.26.08.15-.11.41.13a1.53,1.53,0,0,1,.36.77c.21.83-.32,1.22-1,1.4L120.4,9a3.81,3.81,0,0,1-.57.06,1,1,0,0,0-.35.07c-.9.09-1.8.11-2.27.19a13.29,13.29,0,0,0-4.71,1.56.14.14,0,0,0,0,.25,20.25,20.25,0,0,0,7.26-.22,2.24,2.24,0,0,0,.57.08c.56.31,1,.81.69,1.49a.84.84,0,0,1-.35.37,9.82,9.82,0,0,0-2.53.28c-1.4.24-2.25,1.19-3.35,1.93a.13.13,0,0,0,.07.24,12,12,0,0,0,3.88,0,6.22,6.22,0,0,0,.87-.25.63.63,0,0,0,.11.13,2.11,2.11,0,0,1,.19,3.32c-1,1.09-2.8,1.16-4.19,1.37-1.14.18-.87,2.09.28,2a12.87,12.87,0,0,0,2.14-.33c-.2,9.46,4.4,19.16,8.86,27.22,5.74,10.36,13.21,19.67,20.19,29.19a154.47,154.47,0,0,1,17.41,29.34,119,119,0,0,1,6,17.69c.75,2.84,1.35,5.71,1.93,8.58.48,2.41.5,4.93,1.78,7,0,.43.08.86.14,1.29.35,2.75-4.92,3.16-6.75,2.86a.17.17,0,0,0-.13.31,8.82,8.82,0,0,0,3.55,1.5c-5.65,2.75-12.21,4.4-17.54.14a.12.12,0,0,0-.16.17c7.72,9.38,19.16,2.25,27.37-2.51a34.32,34.32,0,0,1,31.24-1.71,36.55,36.55,0,0,1,14.76,15.41c3.69,7.2,4.47,15.38,4.92,23.41A54.68,54.68,0,0,1,226.05,206.42Z"/><path class="cls-4" d="M138.65,146.87c1.22-1.77,2.42-3.66,3.54-5.6.83.56,1.6,1.19,2.46,1.7.28.16.7-.19.48-.48a8.15,8.15,0,0,0-2.08-1.83c-.73.25-1.46.54-2.18.85-.89,1.74-1.72,3.5-2.46,5.22A.14.14,0,0,0,138.65,146.87Z"/><path class="cls-4" d="M138.18,144.84a.3.3,0,0,0,.26-.45,3,3,0,0,0-1.31-.94l-.87.55.36.24A3.13,3.13,0,0,0,138.18,144.84Z"/><path class="cls-4" d="M112.07,26.33c-.33.07-.94.27-.8.73s.46.45.8.49a.62.62,0,0,0,.46-.09c0-.37-.09-.75-.13-1.13A.62.62,0,0,0,112.07,26.33Z"/><path class="cls-4" d="M169.37,134.36a.17.17,0,0,0,0,.2,2.43,2.43,0,0,0,1.77.67,17.77,17.77,0,0,0,1.79.17c-.08-.52-.16-1-.26-1.54-.45,0-.89,0-1.34,0C170.67,133.87,169.81,133.85,169.37,134.36Z"/><path class="cls-4" d="M158,140.83c-1,1.65-2,3.3-3,5a.1.1,0,0,0-.06.1l-.72,1.28c.17.12.34.25.51.36l.77-1.15a26.81,26.81,0,0,0,2.92,2.09c-.08.17-.14.35-.22.53.23.05.45.11.68.15l.17-.3.81.43a13,13,0,0,0,2.07,0l-.09-.07c.56-.79,1.11-1.59,1.66-2.38l.84.43c.68.35,1.39.78,2.12,1.19.65-.2,1.3-.42,1.94-.67l-.2-.1c.41-.55.78-1.1,1.13-1.67-.21-.09-.42-.19-.62-.3-.42.52-.83,1.06-1.21,1.62-1.13-.52-2.31-1-3.29-1.43l0,0a19.39,19.39,0,0,0,2.26-3.53.41.41,0,0,1-.57-.25,22.52,22.52,0,0,0-2.42,3.43l-1.83-.88.74-1.17c.37-.59.76-1.19,1.16-1.78.3.17.59.34.9.49s.65-.16.44-.45a7.22,7.22,0,0,0-.78-.88l.63-1-1.35-.25-.25.42c-.3-.22-.63-.42-1-.62-1.07-.16-2.13-.31-3.19-.41C158.65,139.68,158.32,140.26,158,140.83Zm.93,6.63a27.84,27.84,0,0,0-3.17-1.43c.55-.85,1.09-1.71,1.63-2.58a27.75,27.75,0,0,0,2.82,1.7C159.74,145.91,159.31,146.68,158.91,147.46Zm3.93-.93c-.52.78-1,1.56-1.54,2.35-.53-.35-1.08-.69-1.64-1,.46-.75.92-1.5,1.39-2.25ZM161.48,143c-.25.42-.5.84-.76,1.26a29.11,29.11,0,0,0-3.07-1.26l.66-1.06c.51-.8,1.07-1.61,1.63-2.44.9.49,1.75,1.07,2.6,1.63C162.19,141.78,161.84,142.4,161.48,143Z"/><path class="cls-4" d="M110.54,29.2a.16.16,0,0,0-.08.29,12.35,12.35,0,0,0,1.35.92,6.58,6.58,0,0,0,1.36.45c-.13-.55-.24-1.11-.35-1.67l-.46-.08A7.37,7.37,0,0,0,110.54,29.2Z"/><path class="cls-4" d="M133.31,148.15a13.31,13.31,0,0,0,1.89-3.42l-.22.15c-.5.36-1,.74-1.46,1.12a5.42,5.42,0,0,0-.36,2.09C133.17,148.16,133.26,148.22,133.31,148.15Z"/><path class="cls-4" d="M110.19,164.76a12.5,12.5,0,0,0,1.77-2.92c-.18-.3-.35-.61-.54-.91a14.84,14.84,0,0,0-1.38,3.74C110,164.75,110.13,164.84,110.19,164.76Z"/><path class="cls-4" d="M113,193q.88-2.52,1.7-5.07c.41.41.84.83,1.28,1.21.09-.45.17-.91.25-1.37-.38-.32-.78-.64-1.17-1,.35-1.11.68-2.22,1-3.34,0-.44,0-.89-.07-1.33-.49,1.4-1,2.8-1.5,4.19l-.17-.14c-1-.91-2.14-2.21-3.44-2.76.8-1.51,1.54-3.07,2.24-4.64.45.38,1,.66,1.45,1a8.89,8.89,0,0,1,1.4,1.41c0-.51,0-1,0-1.53a6.65,6.65,0,0,0-.59-.46,5,5,0,0,0-2-1c.5-1.13,1-2.26,1.49-3.37l.13-.3.14.07a2.15,2.15,0,0,1,.7.64,2.63,2.63,0,0,0,.28.39c0-.43.07-.86.11-1.29a4.42,4.42,0,0,0-.66-.32l-.29-.08.76-1.63c-.06-.27-.12-.54-.19-.81l-.3-1c-.45,1.11-.89,2.23-1.33,3.31a4.14,4.14,0,0,0-.77.09c-.2.05-.16.39,0,.37a2.44,2.44,0,0,1,.54,0c0,.07-.06.13-.08.19a102.28,102.28,0,0,0-4.18,10.6.09.09,0,0,0,.16.07c.25-.42.47-.86.71-1.29a15.79,15.79,0,0,0,3,3c.16.15.32.3.47.46-.62,1.67-1.27,3.34-1.93,5-1.28-1-2.59-2-3.84-2.91l0-.08c.06-.17-.2-.27-.28-.12v0l-.17-.12c-.28-.21-.54.26-.27.47l.16.12c-1,1.77-2,3.56-3,5.36l-1-.88c-.29-.25-.72.17-.43.43l1.15,1q-1,1.88-2,3.75-1.82-1.5-3.72-2.87c-.12-.08-.27.11-.16.21,1.25,1,2.44,2.1,3.6,3.2l-3.33,6.37c-1.21-1.06-2.43-2.1-3.69-3.11-.39-.31-1,.24-.56.57q1.95,1.64,3.82,3.38c-.81,1.55-1.62,3.1-2.45,4.65q-2-1.81-4-3.5a.53.53,0,0,0-.39-.12c.25-.5.5-1,.73-1.52a.22.22,0,0,0-.38-.22c-1.51,2.13-2.93,4.33-4.3,6.58l-1.67-1.77c-.39-.43-1,.21-.63.63.6.66,1.19,1.32,1.79,2-.87,1.44-1.71,2.9-2.55,4.35-1.07-1.15-2.15-2.3-3.22-3.46,0-.06.06-.11.08-.17a.12.12,0,0,0-.21-.12l-.06.09L80,213.26c-.5-.52-1.28.26-.79.79l1.26,1.37c-1.19,1.64-2.33,3.33-3.42,5.05L74,217c-.45-.51-1.19.24-.75.75l3.21,3.65c-.63,1-1.25,2-1.86,3q-2-2.23-4-4.35c.2-.38.4-.77.58-1.16.1-.21-.16-.45-.33-.26s-.51.59-.76.89l-.12-.12a.36.36,0,0,0-.51.5l.16.17c-.76,1-1.49,1.95-2.18,3l-1.48-2c-.23-.31-.75,0-.52.3L67,223.71c-.92,1.38-1.81,2.8-2.69,4.21-1.41-1.77-2.87-3.48-4.39-5.16a15.41,15.41,0,0,0,1.09-2c.1-.25-.17-.51-.39-.3a16.43,16.43,0,0,0-1.39,1.6c-.46-.51-.93-1-1.41-1.52-.14-.15-.36.07-.22.23.47.54.92,1.09,1.38,1.64-.8,1.09-1.53,2.25-2.28,3.35l-1.29,1.93q-1.9-2.11-3.91-4.13c.94-1.22,1.87-2.44,2.77-3.69.15-.21-.17-.43-.34-.27q-1.62,1.59-3.1,3.29c-.18-.18-.36-.37-.55-.55s-.66.14-.4.39l.57.61c-.84,1-1.65,2-2.44,3-1.42-1.79-2.84-3.57-4.28-5.35-.1-.12-.31,0-.21.17,1.39,1.87,2.76,3.76,4.12,5.65-.76,1-1.51,2-2.26,3q-1.55-2.52-3.15-5c.5-.92,1-1.85,1.43-2.78a.39.39,0,0,0-.68-.4c-.47.74-.92,1.49-1.37,2.24-1.09-1.65-2.19-3.29-3.33-4.9a.13.13,0,1,0-.22.13l3.2,5.35-2.29,3.86c-.76-1.37-1.53-2.73-2.34-4.06a30.15,30.15,0,0,0,1.84-2.86.33.33,0,0,0-.52-.4c-.68.71-1.32,1.47-1.94,2.25-.82-1.32-1.66-2.64-2.53-3.94.33-.39.67-.77,1-1.16a.25.25,0,0,0-.36-.36c-.36.28-.72.58-1.07.88-.45-.66-.9-1.33-1.36-2-.09-.13-.3,0-.21.12.44.7.87,1.41,1.3,2.12A41.9,41.9,0,0,0,29.61,222q-1.16-2.1-2.32-4.2l1-.94a.26.26,0,0,0-.32-.41c-.35.2-.7.42-1,.65-.5-.9-1-1.8-1.49-2.69-.12-.2-.42,0-.32.19.46.93.93,1.86,1.39,2.8a28.6,28.6,0,0,0-3.28,2.75c-.55-1.06-1.1-2.13-1.67-3.18.76-.69,1.52-1.38,2.27-2.09a.25.25,0,0,0-.3-.38,26.43,26.43,0,0,0-2.36,1.73c-.87-1.61-1.75-3.21-2.67-4.79a27.26,27.26,0,0,0,2.8-3.31c.15-.21-.15-.53-.36-.37a28.84,28.84,0,0,0-3,2.74.14.14,0,0,0-.17.17c-.82.85-1.62,1.74-2.42,2.6-.61-1.22-1.24-2.43-1.89-3.62a35.55,35.55,0,0,0,2.25-3,.18.18,0,0,0-.28-.22,18.69,18.69,0,0,0-2.39,2.4L11.94,207c-.06-.09-.21,0-.17.07q.44,1.08.9,2.16c-.65.78-1.26,1.58-1.88,2.37l.43.71L13,210.11c.55,1.25,1.13,2.5,1.72,3.74l-.13.14c-.45.47-.9.95-1.36,1.42l.52.72.92-.94.47-.47q1.17,2.44,2.37,4.87l0,0-.45.47c.19.21.37.42.57.62l.3-.31c.2.42.41.83.61,1.25.77.77,1.55,1.52,2.36,2.25l.18-.21c.62-.66,1.27-1.3,1.93-1.92l2.56,5.09-.39.52.66.46.14-.18.22.45c.56.39,1.13.77,1.7,1.15-.1-.21-.21-.42-.32-.63l-.93-1.8.35-.43c.82-1,1.68-1.92,2.54-2.86q1.27,2.53,2.58,5.06l-.59.83-1,1.42.63.36.57-.75c.27-.36.55-.71.83-1.07l.62,1.21c.39.75.77,1.51,1.16,2.27.67.32,1.34.63,2,.93.9-1.23,1.79-2.48,2.64-3.76l.18.36c.8,1.58,1.53,3.21,2.24,4.84l-.28.41c.65.22,1.3.43,2,.63-.16-.34-.32-.68-.49-1,.68-1,1.37-2,2.07-2.94.22-.3.45-.59.67-.88l1,1.76c.82,1.43,1.6,2.89,2.37,4.35l-.06.09,1.54.28c-.15-.25-.29-.5-.44-.74.88-1.23,1.76-2.47,2.62-3.7l1.14,1.6c.82,1.16,1.62,2.33,2.43,3.5.82,0,1.65.09,2.48.1.7-1,1.38-2.09,2.05-3.14.71,1,1.39,2,2.06,3.06.46,0,.92-.06,1.38-.1-.94-1.34-1.91-2.64-2.85-3.88.58-.91,1.16-1.81,1.74-2.69s1.07-1.58,1.62-2.37c.62.88,1.23,1.75,1.82,2.64s1.27,1.92,1.88,2.89c-.64,1.06-1.27,2.12-1.9,3.18l1-.13,1.39-2.21c.36.6.73,1.19,1.09,1.78v0l1.14-.24-.2-.33c-.46-.75-.94-1.48-1.41-2.22l2.28-3.69.24-.4c.26.38.51.76.77,1.13.72,1.05,1.43,2.12,2.14,3.19-.32.54-.61,1.08-.92,1.62.56-.15,1.11-.32,1.66-.49h0l1.19-.38-.54-.75q1.2-2.05,2.37-4.11c.74,1.1,1.44,2.22,2.14,3.35.43-.18.86-.38,1.28-.58C81,232.51,80,231.24,79.09,230c.65-1.13,1.29-2.25,2-3.36l1.29,1.48,2.63,3-1.13,1.78c.29-.15.58-.28.87-.44.69-.37,1.38-.76,2-1.16l-.39-.41.27-.43c1-1.67,2-3.34,3-5,.73.82,1.46,1.66,2.19,2.5.38-.27.75-.55,1.12-.83-.9-.92-1.8-1.83-2.66-2.74q1.25-2.12,2.47-4.25l.5.55c1,1.15,2.07,2.37,3.12,3.59l1-.92c-1-1-1.9-1.92-2.8-2.88l-1.26-1.33c.39-.67.79-1.34,1.17-2l1.92-3.4c.69.68,1.37,1.36,2,2.07s1.38,1.54,2,2.34c-.77,1.5-1.56,3-2.35,4.48,1-.92,1.88-1.88,2.77-2.86l.36-.65.11.13.87-1c-.1-.12-.2-.24-.31-.35.84-1.55,1.64-3.11,2.43-4.69l.95,1.12c.25-.35.5-.71.74-1.07-.37-.39-.75-.78-1.13-1.16q1.53-3.09,2.92-6.24c.54.62,1.06,1.26,1.59,1.89.19-.35.38-.69.55-1-.55-.63-1.11-1.25-1.69-1.86.61-1.38,1.19-2.76,1.75-4.15.64.6,1.27,1.2,1.93,1.77l.42-1c-.65-.56-1.33-1.09-2-1.62.77-1.93,1.52-3.87,2.23-5.83l.7.67c.35.35.68.73,1,1.11.12-.41.24-.82.35-1.23C114.17,194,113.6,193.46,113,193ZM15.75,214.16c.81-.8,1.64-1.6,2.44-2.43.75,1.68,1.54,3.35,2.34,5-.83.72-1.63,1.48-2.4,2.26C17.35,217.38,16.55,215.77,15.75,214.16Zm5.15,8.35-.68.73c-.06-.14-.13-.27-.2-.4-.5-1-1-2-1.49-3,.78-.78,1.57-1.53,2.38-2.27l1.63,3.27C22,221.36,21.44,221.94,20.9,222.51Zm5.51,3.29-.17.22q-1.26-2.45-2.53-4.89c1.06-1,2.13-1.94,3.17-2.93.72,1.47,1.46,2.94,2.2,4.4C28.16,223.65,27.28,224.73,26.41,225.8Zm6.31,1.94c-.87-1.61-1.73-3.22-2.6-4.82,1-1.11,2-2.22,3-3.35q1.24,2.06,2.41,4.14C34.58,225,33.65,226.39,32.72,227.74Zm4,4-1,1.52-1.32-2.47-1.21-2.24c1-1.25,2-2.51,3-3.81.78,1.41,1.54,2.84,2.28,4.27Q37.63,230.42,36.74,231.77Zm7.52-.55c-.72,1-1.45,2-2.17,3l-1.87-3.61c-.24-.46-.5-.91-.74-1.37.82-1.27,1.59-2.56,2.33-3.86,1,1.69,2,3.39,3,5.1Zm5.14,5.32c-.62-1-1.25-2.09-1.85-3.12s-1.1-1.83-1.65-2.74c.77-1,1.55-2,2.34-3.05,1.23,1.71,2.44,3.43,3.66,5.15C51.06,234,50.23,235.29,49.4,236.54Zm3-4.5q-1.86-2.47-3.77-4.91c.82-1,1.63-2.09,2.44-3.13,1.33,1.39,2.6,2.83,3.85,4.3l-2.36,3.49Zm4.83,6.45c-1-1.31-2-2.6-2.91-3.87-.46-.64-.93-1.26-1.4-1.89l2.6-3.73q2.2,2.66,4.23,5.46l.09.13C59,235.88,58.07,237.18,57.23,238.49Zm5.21-7.72c-.65,1-1.33,2-2,3q-2.12-2.81-4.44-5.41l1-1.47c.84-1.21,1.78-2.42,2.6-3.68,1.45,1.78,2.84,3.61,4.18,5.47C63.34,229.37,62.9,230.08,62.44,230.77Zm8.74-.68-2.44,4c-.66-1-1.35-2-2.06-3-.55-.78-1.13-1.55-1.71-2.31.92-1.31,1.85-2.64,2.74-4L71.23,230Zm.55-.92q-1.78-2.5-3.59-5c.72-1.11,1.4-2.24,2-3.38q2,2.17,3.92,4.46Zm3.59,4.94c-.64-.87-1.29-1.74-1.91-2.62-.35-.5-.72-1-1.07-1.49.8-1.29,1.62-2.58,2.43-3.88,1,1.24,2,2.49,2.9,3.77l.07.11ZM80.09,226c-.58,1-1.17,2-1.77,3-1-1.27-2-2.51-3-3.72.63-1,1.25-2,1.87-3l3.07,3.5Zm.71-1.25-3.07-3.47c1.07-1.81,2.09-3.64,3-5.5L84,219.21C82.89,221.05,81.85,222.9,80.8,224.74Zm5.3,4.5c-.16.28-.34.55-.51.83-.66-.71-1.32-1.41-1.94-2.11l-2-2.29c1.07-1.82,2.16-3.64,3.25-5.46l3.62,3.91.36.4C87.94,226.1,87,227.67,86.1,229.24Zm3.37-5.78-4-4.28Q86.77,217,88,214.83l3.91,4.32C91.1,220.58,90.29,222,89.47,223.46Zm4.34-7.67c-.44.79-.9,1.58-1.34,2.38l-4-4.22q1.39-2.5,2.67-5l.06.06c1.45,1.22,2.85,2.48,4.22,3.79C94.92,213.77,94.37,214.78,93.81,215.79Zm7.31,1.15c-.45-.49-.91-1-1.35-1.44-.89-1-1.82-1.88-2.77-2.78.85-1.52,1.7-3.05,2.53-4.58,1,1,2,2,3,3,.31.32.61.65.91,1C102.71,213.74,101.93,215.34,101.12,216.94Zm2.87-5.86-.16-.15Q102,209,100,207.27q1.69-3.14,3.27-6.33c1.27,1.23,2.47,2.52,3.65,3.82Q105.5,207.94,104,211.08Zm3.36-7.28c-1.21-1.22-2.46-2.38-3.76-3.5.63-1.28,1.24-2.56,1.83-3.86l3.18,2.83.53.49C108.55,201.11,108,202.45,107.35,203.8Zm2.1-4.83-.3-.24-3.45-2.93q1.3-2.91,2.44-5.86c1.29,1,2.52,2.11,3.71,3.23C111.08,195.12,110.27,197.05,109.45,199Z"/><path class="cls-4" d="M8.9,200a25.44,25.44,0,0,0-2.41,2.77l.34.88a28.46,28.46,0,0,0,2.44-3.36A.24.24,0,0,0,8.9,200Z"/><path class="cls-4" d="M5.53,200a22,22,0,0,0,3-2.95c.14-.17,0-.46-.26-.33a20.64,20.64,0,0,0-3,2.27C5.32,199.37,5.42,199.71,5.53,200Z"/><path class="cls-4" d="M9.14,208.43a49,49,0,0,1,5-4.44c.21-.19,0-.61-.29-.49a16.47,16.47,0,0,0-5.35,3.89c.19.38.37.76.57,1.13Z"/><path class="cls-4" d="M108.41,158.4a6.24,6.24,0,0,0,.59-.81c-.22-.26-.43-.52-.65-.77a5.87,5.87,0,0,0-.27,1.44A.2.2,0,0,0,108.41,158.4Z"/><path class="cls-4" d="M122.28,178.65a16,16,0,0,0-2.27-2.74c-.31-.32-.71-.85-1.15-1.26,0,.43-.08.85-.11,1.27.19.23.38.46.58.68a15.55,15.55,0,0,0,2.56,2.44C122.13,179.22,122.42,178.88,122.28,178.65Z"/><path class="cls-4" d="M120.27,171.28c.12,0,.3-.06.28-.22a2.58,2.58,0,0,0-1-1.4c-.07.38-.15.75-.21,1.13A1.76,1.76,0,0,0,120.27,171.28Z"/><path class="cls-4" d="M153,150c.51-.66,1-1.34,1.46-2l-.41-.44c-.42.77-.83,1.55-1.2,2.34C152.78,150,152.91,150.09,153,150Z"/><path class="cls-4" d="M168,121a.24.24,0,0,0,0,.32,2.47,2.47,0,0,0,1.69.37c-.14-.48-.27-1-.42-1.43A2.25,2.25,0,0,0,168,121Z"/><path class="cls-4" d="M167.32,117.77c-.52.41.14,1.17.68.88.24-.12.48-.24.73-.34-.15-.47-.31-.93-.46-1.4C168,117.2,167.65,117.5,167.32,117.77Z"/><path class="cls-4" d="M220.93,214.59c.4-2,.8-4.12,1-6.21l2.29,1.32.45-.78-2.65-1.41a31.41,31.41,0,0,0,.15-3.35.05.05,0,0,0-.1,0c-.29,1.08-.53,2.18-.76,3.29a.4.4,0,0,0-.09.46c-.45,2.31-.83,4.65-1.32,6.95,0,.06,0,.12-.05.19a38,38,0,0,0-3.79-1.69c.28-1.06.52-2.12.71-3.19a.16.16,0,0,0-.3-.08c-.39,1-.75,2-1.1,3a15.26,15.26,0,0,0-2.33-.58.2.2,0,0,0-.16.37,22.72,22.72,0,0,0,2.17,1.2c-.69,2.07-1.34,4.16-2.07,6.21l0,.08a36,36,0,0,0-4-1.82c.12-.49.23-1,.3-1.47a.09.09,0,0,0-.16-.06,14.12,14.12,0,0,0-.8,1.3l-.48-.16c-.21-.06-.29.2-.14.32l.39.27a45.38,45.38,0,0,0-2.16,5.17c-1.35-.65-2.72-1.27-4.12-1.78a7.32,7.32,0,0,0,.26-2s-.06-.06-.09,0a7.2,7.2,0,0,0-.94,1.75.21.21,0,0,0-.16.39h0c-.29.8-.51,1.64-.77,2.44-.19.55-.37,1.1-.55,1.64a28.56,28.56,0,0,0-4-2.08l1-2.41c.09-.23-.3-.39-.39-.17-.36.8-.71,1.6-1.06,2.39a9.75,9.75,0,0,0-2.12-.51c-.08,0-.12.11-.06.16a9.24,9.24,0,0,0,1.81,1.18c-.62,1.4-1.25,2.81-1.87,4.22-1.25-.76-2.49-1.54-3.75-2.29q1-2.42,2-4.85c.11-.29-.36-.48-.49-.21q-1.08,2.33-2.11,4.67c-1.52-.9-3-1.81-4.57-2.69l.24-.56c.14-.31-.31-.58-.46-.27s-.17.37-.26.55l-1.42-.84a.1.1,0,1,0-.1.17l1.38,1q-1.35,2.78-2.68,5.55c-1.61-1.12-3.22-2.24-4.85-3.35q.92-1.74,1.77-3.51a.12.12,0,1,0-.21-.13c-.72,1.07-1.43,2.16-2.12,3.26-1.13-.76-2.26-1.52-3.41-2.26-.14-.09-.31.13-.18.23,1.09.84,2.19,1.68,3.3,2.5-1.11,1.76-2.18,3.54-3.24,5.33-1.79-1.39-3.62-2.77-5.5-4,1-1.83,2-3.65,3-5.49a.08.08,0,0,0-.14-.07c-1.07,1.77-2.12,3.56-3.19,5.34-1.31-.88-2.65-1.72-4-2.47-.13-.07-.3.12-.17.23,1.25,1,2.52,2,3.8,2.9l-3,5.07-.06.11-4.68-3.6c.9-1.45,1.78-2.92,2.62-4.41a.31.31,0,0,0-.54-.32c-1,1.37-1.91,2.76-2.82,4.16l-4.31-3.31c.27-.45.53-.9.78-1.36s-.28-.71-.53-.41-.63.82-.95,1.24l-4-3.09c-.12-.1-.31.07-.18.18,1.32,1.06,2.63,2.14,3.94,3.21-.78,1.05-1.53,2.13-2.25,3.22l-4.41-3.64-.5-.42a37.83,37.83,0,0,0,2-3.47c.13-.26-.22-.58-.42-.33-.84,1-1.6,2.1-2.34,3.19l-3.56-3a30.22,30.22,0,0,0,2.49-4.61c.13-.34-.37-.6-.6-.35a27.71,27.71,0,0,0-3,4l-4.52-3.77a25.12,25.12,0,0,0,1.64-2.2c.18-.28-.22-.55-.45-.34-.67.61-1.29,1.27-1.9,1.94-1.71-1.42-3.43-2.84-5.16-4.23.59-.87,1.17-1.74,1.74-2.62,1.38,1.24,2.77,2.46,4.24,3.59.38.3.77-.3.49-.63a46.56,46.56,0,0,0-4-4c.16-.25.33-.5.48-.75s-.24-.62-.45-.36l-.53.67c-.86-.78-1.74-1.54-2.61-2.3l-1.27-1.08a29,29,0,0,0,2.28-4c.12-.27-.23-.61-.45-.34a27.07,27.07,0,0,0-2.55,3.74c-.69-.58-1.39-1.14-2.1-1.7-.3-.24-.6-.5-.91-.74,1.42-1.72,3-3.28,4.3-5.1a.27.27,0,0,0-.36-.37,11.27,11.27,0,0,0-1.17.89,38.09,38.09,0,0,0-3.84-3.56l-.7-.63a19.78,19.78,0,0,0,1.44-2.16.23.23,0,0,0-.36-.28,20.14,20.14,0,0,0-1.68,1.91l-.9-.77c.08.41.16.81.25,1.22l.17.16-.1.14c.07.34.14.67.22,1l.48-.59c.37.33.74.66,1.1,1a34.76,34.76,0,0,0,3.45,3,25.23,25.23,0,0,0-2.94,3.5c.28.79.59,1.57.91,2.35l2.1,1.82c-.24.43-.49.85-.74,1.26.07.16.14.33.22.49l.16.33,1-1.51,1.08.94c.91.78,1.81,1.59,2.71,2.4-.66.82-1.3,1.66-1.94,2.51l-1.1-.87c.41.79.85,1.57,1.29,2.35l.05-.06c1.65,1.43,3.32,2.84,5,4.25-.46.54-.92,1.09-1.37,1.64l.55.77c.53-.59,1.05-1.18,1.57-1.79,1.53,1.29,3.08,2.57,4.62,3.85-.36.57-.7,1.13-1,1.68l-.92,1.45c.33.34.66.69,1,1l.71-1.09c.45-.7.92-1.41,1.39-2.12l3.55,3c-.69,1.05-1.35,2.11-2,3.16l-.17.25c.22.19.45.36.68.54.75-1.11,1.51-2.21,2.25-3.33l.94.79,3.93,3.32c-.58.9-1.17,1.81-1.76,2.7l.78.43,1.75-2.48,4.26,3.6-.31.5-.43.69.85.29.34-.54.24-.37,2.12,1.77c.88.25,1.76.47,2.65.67q-2-1.74-4.11-3.46c.72-1.11,1.44-2.22,2.14-3.34l4.59,3.77c-.62,1.06-1.25,2.12-1.88,3.18l.83.18c.53-1,1.06-1.94,1.6-2.91q2.3,1.88,4.62,3.73l2,.12q1.51-2.61,3-5.23c.69.53,1.37,1.07,2,1.63,1,.8,1.94,1.64,2.89,2.49l-.45,1,1.13-.11.08-.17c.06,0,.11.1.16.14.48,0,.95-.1,1.42-.16l-1.15-1,.66-1.44c.7-1.56,1.39-3.11,2.08-4.67l3.85,2.79.53.39c-.48,1-1,2.1-1.51,3.17.45-.08.9-.18,1.34-.27.3-.8.6-1.59.91-2.35l2.14,1.62,1.31-.37c-1-.69-2.09-1.38-3.1-2.08.8-1.93,1.62-3.87,2.43-5.8q1.81,1.23,3.66,2.44l-.93,2.09c-.45,1-.95,2.11-1.44,3.17l1.22-.38c.23-.58.45-1.15.68-1.71.38-.91.74-1.83,1.11-2.74,1.23.82,2.48,1.62,3.72,2.42.68-.29,1.35-.58,2-.89.15-.52.3-1,.46-1.54l.8-2.6,1,.62c.69.41,1.35.87,2,1.34q.77-.42,1.5-.87l.65-.4c.18-.47.35-.95.52-1.42s.49-1.22.75-1.84c.68.36,1.36.72,2,1.1l.87-.62-.19-.1c-.77-.42-1.56-.82-2.35-1.22a44.21,44.21,0,0,0,1.94-5.16,41.61,41.61,0,0,0,3.84,2.09c-.37.93-.76,1.86-1.15,2.79.53-.42,1-.84,1.55-1.28.13-.37.26-.75.38-1.12l.58.29c.27-.23.53-.48.79-.72l-1-.52c.72-2.07,1.46-4.19,2.07-6.34,1.26.59,2.57,1.14,3.83,1.73l0,.06C220.07,215.69,220.5,215.15,220.93,214.59ZM154.4,232.65q-2.11-1.77-4.25-3.52c.75-1.08,1.48-2.17,2.16-3.29l4.21,3.45C155.8,230.4,155.1,231.52,154.4,232.65Zm13.67,4.84q-2.62-2.07-5.28-4.12c1-1.77,1.94-3.56,2.91-5.34,1.82,1.36,3.66,2.7,5.47,4.07Q169.61,234.78,168.07,237.49Zm9.89-2.83-.61,1.29-2.74-2.18L172.39,232c1-1.83,2-3.67,3-5.53,1.59,1.18,3.19,2.34,4.79,3.5C179.45,231.54,178.7,233.1,178,234.66Zm7.67-1.9,0,.1-4.42-3.09c.84-1.89,1.67-3.79,2.51-5.68l4.42,3Zm12.67-2.6c-.21.65-.44,1.3-.67,2q-2.1-1.31-4.21-2.6.89-2.17,1.75-4.35c.49.24,1,.48,1.48.73.87.46,1.73,1,2.58,1.45Zm6.79-4.09c-.39,1-.81,1.9-1.23,2.86-.77-.47-1.55-.92-2.29-1.36l-1.22-.75c.19-.62.38-1.25.58-1.88s.5-1.49.72-2.25c1.3.73,2.63,1.41,3.95,2.1Z"/><path class="cls-4" d="M119.43,31.2a3.47,3.47,0,0,0-.74.16.35.35,0,0,0,0,.67,4.29,4.29,0,0,0,1,.19C119.6,31.88,119.52,31.54,119.43,31.2Z"/><path class="cls-4" d="M84.09,118.18c-.1.13-.12.37.06.45a1.32,1.32,0,0,0,.59.15l.23,0c.16-.48.31-1,.46-1.42a.58.58,0,0,0-.14,0A3,3,0,0,0,84.09,118.18Z"/><path class="cls-4" d="M72.6,147.35c1.37.12,2.76.25,4.13.28.13-.52.25-1,.38-1.55-1.5-.13-3-.12-4.51-.12-1.06,0-2.18-.21-3,.47a.12.12,0,0,0,0,.18C70.34,147.36,71.56,147.25,72.6,147.35Z"/><path class="cls-4" d="M168.63,137.45a4,4,0,0,0,2.6.76,11.05,11.05,0,0,0,2.24.22c-.15-.54-.26-1.09-.36-1.64-.49,0-1,0-1.47,0-.93,0-2.18-.25-3,.36A.21.21,0,0,0,168.63,137.45Z"/><path class="cls-4" d="M169.09,123.86a.54.54,0,0,0,.27,1,5.93,5.93,0,0,0,1.26,0c-.13-.49-.27-1-.4-1.47A5.47,5.47,0,0,0,169.09,123.86Z"/><path class="cls-4" d="M116.34,2.28l.7.6a.36.36,0,0,0,.34.09l.09,0a.25.25,0,0,0,.17-.22V2.63s0,0,0-.06a4.57,4.57,0,0,0-1.34-.39A.21.21,0,0,0,116.34,2.28Z"/><path class="cls-4" d="M160.24,151.39a1.13,1.13,0,0,0,.1-.13c-.14,0-.28,0-.42-.09C159.85,151.36,160.1,151.57,160.24,151.39Z"/><path class="cls-4" d="M170.8,126.86a3.08,3.08,0,0,0-1.28.63.35.35,0,0,0,.15.58,3.05,3.05,0,0,0,1.31.11l.45,0c-.1-.46-.21-.93-.33-1.39Z"/><path class="cls-4" d="M157.83,151c.08-.15.17-.3.26-.45l-.36-.17a4.83,4.83,0,0,0-.16.5A.14.14,0,0,0,157.83,151Z"/><path class="cls-4" d="M117.37,25.84a5.89,5.89,0,0,0,1,.1c-.05-.46-.1-.92-.13-1.38a5.3,5.3,0,0,0-.9.17C116.85,24.86,116.79,25.75,117.37,25.84Z"/><path class="cls-4" d="M28.15,143.86l.72.58a25.79,25.79,0,0,0-2.17,1.85c-.19.19,0,.57.28.47l.28-.1a.21.21,0,0,0,.1-.11c.8-.45,1.58-1,2.34-1.48a3.21,3.21,0,0,0,.95.42.28.28,0,0,0,.31-.4,2.6,2.6,0,0,0-.48-.57c.7-.5,1.39-1,2.07-1.53.39.3.79.58,1.19.86a7.81,7.81,0,0,0-2,2.32,0,0,0,0,0,0,.06,7.63,7.63,0,0,0,2.86-1.73A30.4,30.4,0,0,0,39,147l-1,.84c-.12.1,0,.3.16.21l1.3-.87a.31.31,0,0,0,.24-.16c1-.66,2-1.33,3-2l1.23.8c.92.61,1.84,1.25,2.77,1.88a14,14,0,0,0-2,1.78c0,.07,0,.19.09.16a14.57,14.57,0,0,0,2.76-1.39c1.1.75,2.22,1.49,3.35,2.17-.71.49-1.43,1-2.13,1.46-.15.11-.07.37.12.31a15.19,15.19,0,0,0,2.8-1.31c.82.47,1.65.93,2.5,1.32.17.09.38-.13.22-.28-.61-.54-1.24-1-1.89-1.54.39-.25.77-.51,1.14-.77s1-.67,1.46-1.05c.59.32,1.18.63,1.76,1l2.08,1.15a24.22,24.22,0,0,0-2.81,2,.26.26,0,0,0,.25.43l.56-.2s0-.07,0-.08h0c.92-.49,1.79-1.1,2.67-1.66l.1-.06,3.58,2c-.66.55-1.3,1.11-1.91,1.72a.23.23,0,0,0,.27.36c.84-.5,1.64-1.07,2.43-1.65,1.33.73,2.68,1.44,4,2.14a14.5,14.5,0,0,0-.91,1.16c-.11.15.1.36.24.25.47-.33.9-.7,1.33-1.07,1.28.65,2.58,1.26,3.89,1.86a8.83,8.83,0,0,0-1,1.56c-.08.17.1.4.28.28a11.14,11.14,0,0,0,1.62-1.46l.74.34a.22.22,0,0,0,.22-.38c-.18-.13-.38-.25-.56-.37l.3-.33c.63-.66,1.6-1.46,1.75-2.4a.27.27,0,0,0-.33-.33c-.92.28-1.55,1.29-2.13,2-.13.17-.27.34-.41.5-1.12-.72-2.26-1.44-3.41-2.12l1.58-1.52c.38-.37.8-.75,1.22-1.13a4,4,0,0,0,1.31.23.2.2,0,0,0,.14-.34,3.18,3.18,0,0,0-.71-.6,8.18,8.18,0,0,0,1.51-1.95.26.26,0,0,0-.35-.35,8.44,8.44,0,0,0-2.18,1.76c-.66-.29-1.36-.51-2-.77l-1-.4c-.72,0-1.43,0-2.13,0-.66.45-1.28,1-1.89,1.47l-.84.66-3.5-1.88a12.72,12.72,0,0,0,1.28-1l-.71-.17a13.82,13.82,0,0,0-1.35.77l-2.65-1.43c-.46-.24-.91-.5-1.37-.75l.22-.22L55,147l-.07.06-.47-.27c-2.58-1-5.16-2-7.79-2.81l3,1.68-.05,0-2,1.36c-.85-.54-1.7-1.08-2.54-1.63l-1.5-1c.45-.31.89-.63,1.34-1l-1.42-.37c-.28.23-.57.46-.84.7l-1.78-1.21c-.76-.12-1.53-.2-2.29-.26,1.07.74,2.18,1.45,3.27,2.15-.81.7-1.62,1.4-2.41,2.1a29.86,29.86,0,0,0-3.86-2.89l.65-.55c.36-.29.74-.57,1.12-.86-.54,0-1.08,0-1.62,0l-1.08.82-1.14-.7c-.78.08-1.55.18-2.32.31-.54.38-1.07.77-1.6,1.16l-.75-.51-.16-.11-1,.28Zm37.64,8.36a22.5,22.5,0,0,0,2.23-1.8c.58.3,1.18.57,1.77.84s1.07.55,1.65.82l-.84.91c-.56.58-1.13,1.15-1.68,1.74-1.22-.71-2.45-1.4-3.68-2.08Zm-15.64-5.71.52-.34L54.05,148c-.19.19-.38.37-.57.53-.56.47-1.14.89-1.73,1.3-1.06-.77-2.15-1.49-3.26-2.2Z"/><path class="cls-4" d="M169.72,130.67a.61.61,0,0,0,0,1.15h.05a.29.29,0,0,0,.16,0,11.76,11.76,0,0,0,2.3,0c-.11-.53-.22-1.06-.34-1.59A10.79,10.79,0,0,0,169.72,130.67Z"/><path class="cls-4" d="M169.42,140.84a.44.44,0,0,0-.17.86,10.37,10.37,0,0,0,2.77.47,23.27,23.27,0,0,0,2.5.26,1.93,1.93,0,0,0,0-.48c-.05-.33-.08-.66-.11-1-.64-.07-1.31-.06-1.95-.1A12.88,12.88,0,0,0,169.42,140.84Z"/><path class="cls-4" d="M170.68,149.76l-.53.2a.78.78,0,0,0,.22,0A.28.28,0,0,0,170.68,149.76Z"/><path class="cls-4" d="M169.53,144.88h0Z"/><path class="cls-4" d="M77.17,133.87a.24.24,0,0,0,0,.33,2.12,2.12,0,0,0,1.52.6c.46,0,.93,0,1.39.06.15-.52.29-1,.44-1.55-.5,0-1,0-1.49,0A2.49,2.49,0,0,0,77.17,133.87Z"/><path class="cls-4" d="M121.81,184.67c-.26-.71-1-1.18-1.57-1.66a10.43,10.43,0,0,0-1.59-1.3c0,.32,0,.64,0,.95.27.25.56.48.8.71a5.4,5.4,0,0,0,2.06,1.54C121.7,184.94,121.86,184.82,121.81,184.67Z"/><path class="cls-4" d="M75,138.76a16.24,16.24,0,0,1,4,.08c.14-.54.29-1.09.44-1.63a15.7,15.7,0,0,0-4.61.38C74.16,137.73,74.3,138.85,75,138.76Z"/><path class="cls-4" d="M73,141a27.67,27.67,0,0,0,4.07.43c.41,0,.81.09,1.22.15.13-.53.27-1.06.42-1.58a12.71,12.71,0,0,0-5.71.45A.29.29,0,0,0,73,141Z"/><path class="cls-4" d="M79.27,130.65a6.67,6.67,0,0,0,2,.15c.16-.53.31-1.06.47-1.6h-.06a5.37,5.37,0,0,0-2.47.88A.32.32,0,0,0,79.27,130.65Z"/><path class="cls-4" d="M113.86,165.64c-.12-.29-.25-.56-.38-.84a25.6,25.6,0,0,0-2.58,7.63c0,.17.2.3.29.13.85-1.79,1.56-3.64,2.38-5.43a8.89,8.89,0,0,0,1,.41c-.16-.47-.34-.93-.52-1.39l0,0v0Z"/><path class="cls-4" d="M82.94,121.61a5.08,5.08,0,0,1-1,.29.31.31,0,0,0,0,.62,5.89,5.89,0,0,1,1,.29,3.58,3.58,0,0,0,.73.11l.43-1.39a.69.69,0,0,0-.17,0A2.79,2.79,0,0,0,82.94,121.61Z"/><path class="cls-4" d="M80.1,126.78a20,20,0,0,0,2.31.21c.15-.51.31-1,.46-1.53a1.25,1.25,0,0,0-.43,0A17.37,17.37,0,0,0,80,126,.38.38,0,0,0,80.1,126.78Z"/><path class="cls-4" d="M70.31,143.47a21.15,21.15,0,0,0,7.12,1.28c.13-.52.27-1,.4-1.56a21.36,21.36,0,0,0-7.52,0C70.13,143.2,70.18,143.41,70.31,143.47Z"/><path class="cls-4" d="M117.82,23.63l.38-.07c0-.5,0-1,0-1.5l-.55.07c-.94.15-1.81.17-2.28,1.05a.17.17,0,0,0,0,.17C116.1,24.05,116.88,23.76,117.82,23.63Z"/><path class="cls-4" d="M109.83,20h0a5.31,5.31,0,0,0,1.37.84.19.19,0,0,0,.23.06,1.22,1.22,0,0,0,.33,0,.26.26,0,0,0,.25-.32c0-.07-.07-.11-.1-.17.3-.32.6-.64.89-1A3.13,3.13,0,0,0,114,20a.34.34,0,0,0,.34-.17.51.51,0,0,0,.86.07c.42-.58.83-1.16,1.25-1.73l.55-.72c.42.23.85.35,1,0s-.13-.63-.38-.81l-.16-.11a1.33,1.33,0,0,0,.1-.28.35.35,0,0,0-.52-.39,1.37,1.37,0,0,0-.28.21l-.32-.2c-.55-.35-1,.52-.51.87l.17.12-.38.57-.33.47a1.82,1.82,0,0,0-.68-.58l-.2-.13a3.42,3.42,0,0,0,.46-.89.31.31,0,0,0-.45-.35,3.64,3.64,0,0,0-.81.76,2.16,2.16,0,0,0-.75-.29.25.25,0,0,0-.27.36,2.2,2.2,0,0,0,.53.57l-.42.61-.14.2-.09-.06-.62-.4c.07-.08.15-.15.23-.23A.3.3,0,0,0,112,17a2.36,2.36,0,0,0-.74.28h0a6.88,6.88,0,0,1-.77.38,1.71,1.71,0,0,0,.11.14,7.76,7.76,0,0,0-.76.87l-.09.11-.74-.41a1.28,1.28,0,0,1-.29.13,2,2,0,0,1-.4.32c.27.23.56.46.85.68A15.53,15.53,0,0,0,108,20.88a.74.74,0,0,0,.57.27A5.59,5.59,0,0,0,109.83,20Zm3.75-1.49.48-.59a2.38,2.38,0,0,0,1,.58l-.63.9a1.39,1.39,0,0,0-.06.13,2.94,2.94,0,0,0-.9-.89Zm-2.27-.1.58.41.27.2c-.21.31-.4.63-.59,1a6.59,6.59,0,0,0-1-.7l-.07,0C110.77,19,111,18.67,111.31,18.4Z"/><path class="cls-4" d="M118.37,17.9c.58-.16,1.34-.47,1.5-1.11a.39.39,0,0,0-.37-.49c-.69.06-1.1.71-1.37,1.28A.22.22,0,0,0,118.37,17.9Z"/><path class="cls-4" d="M119.86,12.14l.51-.3c.47-.28,0-1-.42-.72l-.47.36C119.09,11.77,119.43,12.39,119.86,12.14Z"/><path class="cls-4" d="M77.6,158l0-.05a.32.32,0,0,0,0-.35l0,0a.43.43,0,1,0,0,.44Z"/><path class="cls-4" d="M110.38,38.57a.49.49,0,0,0-.42.73,3.57,3.57,0,0,0,.53.58l.36-1.23A4.2,4.2,0,0,0,110.38,38.57Z"/><path class="cls-4" d="M107.82,47.33a3.39,3.39,0,0,0-1.24-.73.19.19,0,0,0-.22.23A3.17,3.17,0,0,0,107,48a5.63,5.63,0,0,0,.65.72L108,47.5Z"/><path class="cls-4" d="M109.77,42.19l-.15-.15c-.57-.5-1.55.15-1.1.85a5,5,0,0,0,.56.72.8.8,0,0,0,.19.13c.14-.44.29-.88.43-1.32A1.55,1.55,0,0,0,109.77,42.19Z"/><path class="cls-4" d="M225.2,175a.46.46,0,0,0-.16.62,3.49,3.49,0,0,1,.36.84.19.19,0,0,0,.37-.05,3.08,3.08,0,0,1,0-.61c.51-.09,1.07-.28,1.17-.83a.29.29,0,0,0-.07-.25C226.38,174.33,225.69,174.69,225.2,175Z"/><path class="cls-4" d="M178.93,140.22a13.16,13.16,0,0,0-.64,2.2.18.18,0,0,0,.05.16l.44-.25a13.66,13.66,0,0,0,1.08-2Z"/><path class="cls-4" d="M110.42,35.69a.34.34,0,0,0,.15.56,9.25,9.25,0,0,1,.93.32l.42-1.24A1.88,1.88,0,0,0,110.42,35.69Z"/><path class="cls-4" d="M166.52,115.73a.89.89,0,0,0,1-.16.41.41,0,0,0,.14-.34l-.09-.24a.48.48,0,0,0-.38-.23.83.83,0,0,0-.84.46A.38.38,0,0,0,166.52,115.73Z"/><path class="cls-4" d="M148.76,148.25c1.93-2.87,3.54-6,5.18-9.06l.19-.33-1.21,0c-.32.65-.65,1.29-1,1.94a25.94,25.94,0,0,0-2.87-1.6c-.57.08-1.13.18-1.69.28a32.37,32.37,0,0,0-3.69,6.73.14.14,0,0,0,.24.14c1.86-1.87,3.16-4.49,4.56-6.72l.06-.09.14.08a27.5,27.5,0,0,0,3,1.67,75.32,75.32,0,0,0-3.18,6.83C148.45,148.29,148.68,148.36,148.76,148.25Z"/><path class="cls-4" d="M112.58,5.33a7.19,7.19,0,0,0,.52-.57,1.32,1.32,0,0,0,.31.12c.27,0,.63-.19.5-.51a1.33,1.33,0,0,0-.18-.3c0-.06.1-.13.16-.19.21-.22.44-.43.66-.65a2.16,2.16,0,0,0,.58.49s0,.1,0,.14a.18.18,0,0,0,.22.22,2,2,0,0,0,1.2-1.17c.09-.27-.21-.43-.43-.33a1.35,1.35,0,0,0-.45.36,4.22,4.22,0,0,0-.39-.47l.06-.07a.28.28,0,0,0,0-.22,3.79,3.79,0,0,0-1.41.47,8.71,8.71,0,0,0-.73.55,1.8,1.8,0,0,0-.19.2l0,0c-.22.18-.47.39-.71.61.06.07.11.14.17.2A4.67,4.67,0,0,0,112,5c-.1.24.11.41.32.43h.13A.39.39,0,0,0,112.58,5.33Z"/><path class="cls-4" d="M117,29.56a3.68,3.68,0,0,0,2,0c-.1-.46-.2-.91-.28-1.37a4,4,0,0,0-1.89.37A.58.58,0,0,0,117,29.56Z"/><path class="cls-4" d="M108.38,14.34a7.29,7.29,0,0,0-.15,1.13c.43-.4.82-.84,1.23-1.27l.27-.29.1.08a6.55,6.55,0,0,0,1.26,1.1.33.33,0,0,0,.26,0l0,0c-.09.23.24.32.36.16.45-.62.88-1.24,1.36-1.83l.58-.68c.38.27.8.42,1.09.13s0-.67-.23-.85a1.94,1.94,0,0,0-.24-.15h0a.24.24,0,0,0-.33-.33l-.11.07-.53-.25c-.4-.17-.89.32-.51.66l.26.24a5.27,5.27,0,0,0-.52.63c-.14-.14-.3-.26-.44-.38l-.85-.65,0-.06c.14-.27-.16-.65-.45-.45l-.24.21a.68.68,0,0,1-.31.73c-.47.27-.92.52-1.41.75a.35.35,0,0,0-.11.1l.16.11c-.13.17-.27.34-.41.5S108.41,14.22,108.38,14.34Zm2.45-1.79c.24.25.47.5.72.74a3.55,3.55,0,0,0,.47.4,8.09,8.09,0,0,0-.51,1,2.86,2.86,0,0,0-1.2-1.47C110.49,13,110.67,12.79,110.83,12.55Z"/><path class="cls-4" d="M110,10.7a3.23,3.23,0,0,0,1.46-1.15,2.31,2.31,0,0,0,.66.42c.37.13.59-.31.46-.6a2.86,2.86,0,0,0-.46-.54,6.51,6.51,0,0,0,.9-1.27l1,.75a9.43,9.43,0,0,0-1,1.31c-.11.19.13.34.29.22a11.65,11.65,0,0,0,1.36-1.36,5.54,5.54,0,0,0,1-1.23l.18.22A2.32,2.32,0,0,0,117,8.4a.4.4,0,0,0,.49-.4,4.11,4.11,0,0,0,.68-.76.61.61,0,0,0,.09.18,3.79,3.79,0,0,0,.78.72.47.47,0,0,0,.46,0,.46.46,0,0,0,.17-.17.49.49,0,0,0-.07-.55,2.87,2.87,0,0,0-.53-.45,2.41,2.41,0,0,1-.75-.17h0v0a1.55,1.55,0,0,1-.22-.12h0a2.06,2.06,0,0,0-.82.68,6.23,6.23,0,0,0-.51-.52,3.69,3.69,0,0,0-1.19-.88.25.25,0,0,0-.12,0c-.07.05-.16.09-.23.13a.44.44,0,0,0-.06.32h0a1.79,1.79,0,0,0,.27.51,2.56,2.56,0,0,0-.66.57l-1-.78c-.38.12-.75.23-1.12.32a.13.13,0,0,0,0,.06,6.48,6.48,0,0,0-1.19,1.09,3.47,3.47,0,0,0-.56-.38,3.72,3.72,0,0,0-.59.43,4,4,0,0,0,.56.64,3.56,3.56,0,0,0-1,1.68A.19.19,0,0,0,110,10.7Z"/><path class="cls-4" d="M116.14,12.13a1.14,1.14,0,0,0-.34.77.32.32,0,0,0,.31.32c.5,0,.93-.57,1.26-.89a4,4,0,0,0,.86-1.12c-.44,0-.89.09-1.34.12l-.17.18a1.77,1.77,0,0,0-.38-.15l-1.12,0a.15.15,0,0,0,.06.11A10.65,10.65,0,0,0,116.14,12.13Z"/><path class="cls-4" d="M226.1,175.93a4.43,4.43,0,0,0-.14,1.74,11.18,11.18,0,0,0,.51,2c.06.27.42.18.45-.06a15.09,15.09,0,0,0,.23-1.91,4.56,4.56,0,0,0-.41-1.82A.35.35,0,0,0,226.1,175.93Z"/><path class="cls-4" d="M225.3,169.33l.07-.15a.38.38,0,0,0-.06-.46l-.06-.07a.3.3,0,0,0-.41,0l-.06.07a.36.36,0,0,0-.06.46l.06.15A.27.27,0,0,0,225.3,169.33Z"/><path class="cls-4" d="M222.59,183.55c0,.95.22,1.91.25,2.86a.24.24,0,0,0,.48,0c.06-.83.27-1.66.35-2.5,0-.26.06-.52.1-.78l1.45.17a4.24,4.24,0,0,0,2.29,0c.3-.14.22-.54,0-.7a3.66,3.66,0,0,0-1.94-.38l-1.78-.11a1.64,1.64,0,0,0-.2-.56.48.48,0,0,0-.81,0,1.61,1.61,0,0,0-.22.53.5.5,0,0,0,0,.84C222.55,183.11,222.58,183.33,222.59,183.55Z"/><path class="cls-4" d="M198,203.93c-.15,0-.27.18-.11.26l0,0c-.58,1.48-1.08,3-1.59,4.49-.13.36-.25.73-.38,1.09l-2.25-.69c.05-.34-.44-.6-.61-.24l0,0-1-.32c-.27-.09-.38.33-.11.43l.94.34a18.86,18.86,0,0,0-1.44,4.21c-1.05-.31-2.11-.6-3.17-.82-.17,0-.39.08-.36.27.08.68.24,1,.95,1.08.2,0,.29-.25.09-.3l1.4.34,1,.32c0,.19,0,.38-.05.57a.19.19,0,0,0,.35.1l.28-.47,1.46.48,1,.34a.13.13,0,0,1,0,.06c0,.16.18.27.27.11a.25.25,0,0,0,0-.07,17.61,17.61,0,0,0,4.12,1.07c.31,0,.41-.42.16-.57a17.65,17.65,0,0,0-3.82-1.4,34.42,34.42,0,0,0,1.55-4l2.72,1,.59.22a15.4,15.4,0,0,0-.43,2.65.15.15,0,0,0,.28.08A13.43,13.43,0,0,0,201,212.3a25,25,0,0,0,6.06,1.81c.27,0,.34-.37.13-.49a25.09,25.09,0,0,0-5.88-2.17c.48-1.43.85-2.91,1.3-4.28.12-.36.24-.72.35-1.08l1.66.56c1.16.4,2.32.86,3.49,1.28a17.54,17.54,0,0,0-.26,2.78.2.2,0,0,0,.37.1,17.27,17.27,0,0,0,1-2.51,19.8,19.8,0,0,0,2.87.73c.28.05.48-.33.2-.47a19.17,19.17,0,0,0-2.8-1.16c.57-2,.94-4.12,1.42-6.07L211,201c1.56.7,3.14,1.34,4.73,1.89a.46.46,0,0,0,.58-.47.24.24,0,0,0,.37-.11,32.65,32.65,0,0,0,1.47-5.74,21.12,21.12,0,0,0,3.68.76c.32,0,.45-.47.17-.61a22.46,22.46,0,0,0-3.61-1.32,1.77,1.77,0,0,1,0-.2,42.79,42.79,0,0,0,1-6.17,42.19,42.19,0,0,0,5.56,1.38.44.44,0,0,0,.23-.84,43.6,43.6,0,0,0-5.75-1.46c0-.1,0-.21,0-.32a.36.36,0,0,0-.7-.09l-.08.26c-.72-.15-1.44-.29-2.15-.45a.32.32,0,0,0-.17.62c.68.19,1.38.4,2.07.61a43.51,43.51,0,0,0-1.29,6.1,1.7,1.7,0,0,0,0,.22c-1.49-.37-3-.68-4.45-1a31.28,31.28,0,0,0,.42-3.17c0-.28-.36-.28-.45-.06a30.45,30.45,0,0,0-1,3l-.15,0a.3.3,0,0,0-.16.57l.14,0c-.49,1.7-.89,3.42-1.28,5.13-2-.77-4.07-1.47-6.09-2.16a.14.14,0,0,0-.11.26c2,1,4,2,6,2.93l-.12.54c-.45,1.93-1.08,4-1.5,6l-2.72-.82c-.79-.25-1.58-.52-2.38-.79.7-2.17,1.36-4.36,1.87-6.57a.38.38,0,0,0-.74-.2c-.83,2.1-1.51,4.26-2.17,6.43-1.06-.35-2.13-.66-3.21-.92.11-.41.23-.81.33-1.22s-.44-.61-.6-.26-.37.85-.55,1.28Zm-3.46,10.58-.17,0-2-.62a19.13,19.13,0,0,0,1.26-4.22l2.15.78A32.84,32.84,0,0,0,194.58,214.51Zm17.91-19.83c1.44.48,2.91,1,4.39,1.49a33.59,33.59,0,0,0-.67,6,.4.4,0,0,0-.14-.11c-1.56-.79-3.17-1.49-4.81-2.13C211.7,198.17,212.14,196.43,212.49,194.68Zm-13.7,9.88c1,.44,2.07.82,3.13,1.18-.12.39-.23.77-.35,1.15-.4,1.37-.92,2.8-1.33,4.23l-3.3-1,.12-.37C197.66,208,198.28,206.3,198.79,204.56Z"/><path class="cls-4" d="M111.16,32.14c-.63.12-.51,1,0,1.15s.92.27,1.38.4c.2-.48.41-1,.63-1.43A4.48,4.48,0,0,0,111.16,32.14Z"/><path class="cls-4" d="M225.58,203.59l1,.32c0,.54,0,1.08-.07,1.63.42-.89.82-1.79,1.19-2.68a28.55,28.55,0,0,0-.87-5.75.16.16,0,0,0-.31,0c0,1.94.09,3.86.07,5.78l-.74-.19A.44.44,0,0,0,225.58,203.59Z"/><path class="cls-4" d="M230.63,191a14,14,0,0,0-.38-1.84c0-.1-.2-.11-.22,0a31.66,31.66,0,0,0-.15,7v.2c.35-1.27.64-2.55.89-3.83,0-.2,0-.4,0-.59l.14.05c.06-.34.12-.67.17-1l0,0A.43.43,0,0,0,230.63,191Z"/><path class="cls-4" d="M229.36,198.14c.1-.31.19-.62.28-.93A.65.65,0,0,0,229.36,198.14Z"/><path class="cls-5" d="M233.15,174a49.13,49.13,0,0,0-4.5-16.89,36,36,0,0,0-37.19-19.72,29.38,29.38,0,0,0-7.13,2.14,1,1,0,0,0-.62-.59,17.54,17.54,0,0,0-7.33-1.16c-.07-3.53-1.51-7.49-2.32-10.59a143.48,143.48,0,0,0-5.55-16.67,143,143,0,0,0-16.68-29.94c-6.62-9.36-13.85-18.26-19.94-28a103.88,103.88,0,0,1-8.16-16.09c-2-4.95-3-10.12-4.4-15.24a5.61,5.61,0,0,0,2.79-2.34,3.43,3.43,0,0,0-.69-4.3,2.84,2.84,0,0,0,1.21-1.84,3.09,3.09,0,0,0-.7-2.25A3.62,3.62,0,0,0,123.39,8a3.19,3.19,0,0,0-.92-2.32l-.06-.06a1,1,0,0,0,0-.57c-1.23-3.62-5.32-6.19-9.07-4.45a5.78,5.78,0,0,0-3.44,3.94A2.19,2.19,0,0,0,110,5.89a3.33,3.33,0,0,0-1.66,1.28,3.22,3.22,0,0,0-.53,2.41A2.22,2.22,0,0,0,108.88,11,2.84,2.84,0,0,0,107,12.52a4.12,4.12,0,0,0,.36,3.57,2.65,2.65,0,0,0-1.08.84s0,0,0,0A4.27,4.27,0,0,0,105,20.09a3.67,3.67,0,0,0,3.35,3.55c-4.1,9.91-6.09,21-8.8,31.34-2.92,11.15-5.76,22.32-9.07,33.35C84.09,109.71,75.1,129.48,61,146.93c-7.06-2.39-13.89-6.18-21.23-7.34-9.21-1.46-18.47,2.38-25.46,8.16C-2.3,161.5-3,187.39,4.78,205.89a58.9,58.9,0,0,0,100.93,12.53,60.22,60.22,0,0,0,11.57-26.1,73.55,73.55,0,0,0,13.88,29.58,47.06,47.06,0,0,0,25.47,17.21c10.09,2.72,21.06,2.11,31.15-.21,20.17-4.64,37.35-18.69,44-38.5a44,44,0,0,0,2.11-14.49A42.25,42.25,0,0,0,233.15,174ZM182,140.56c-1.63.83-3.23,1.73-4.81,2.67a8.39,8.39,0,0,0-.46-3.34C178.49,140.2,180.27,140.41,182,140.56Zm-65.39,24.31a31,31,0,0,0-9-12.56c-7.3-6.19-20.12-9.58-29.25-5.41,7.44-18.86,12.77-38.73,18.89-58q4.6-14.53,9.17-29.06c1.6-5.1,3.12-10.22,4.68-15.33,1-3.19,2.29-6.51,3.08-9.85C119,50.28,131.6,63.9,141.29,76.27c7.37,9.41,13.67,19.39,17.83,30.63a117.45,117.45,0,0,1,6.4,30.7,21.56,21.56,0,0,0-13-1.44,39,39,0,0,0-13.37,3.33c-8.91,3.91-15.84,12-19.46,20.91a48.09,48.09,0,0,0-2.23,6.89C117.19,166.43,116.92,165.61,116.64,164.87Zm109.41,41.55c-4.73,9.53-12.42,17.07-21.48,22.49-17.57,10.52-42.54,13-60.26,1.66-8.89-5.69-15-15.26-19.49-24.58-5.18-10.75-7.49-23.05-5.5-34.88,1.73-10.3,7.18-20,15.66-26.23,9-6.62,19.62-7,30.18-4.85a.56.56,0,0,0,.55-.19c0,.72.1,1.45.14,2.17a.44.44,0,0,0,.88,0c2.53-22.58-5.81-43.46-18.95-61.52-6.56-9-14-17.34-20.49-26.41a93.88,93.88,0,0,1-14.67-31.43.26.26,0,0,0-.5.07,42.37,42.37,0,0,0,1.26,9.09c-1.66,3.31-2.54,7.14-3.68,10.61-1.66,5.09-3.38,10.15-5,15.24Q99.79,72.94,95,88.23c-6.34,20-13.74,40.06-18.51,60.52a.54.54,0,0,0,1,.28l.26-.66c4.22-.53,8.1-1.2,12.41-.81a27.69,27.69,0,0,1,15.54,6.63,31.13,31.13,0,0,1,8.15,11.45,54.93,54.93,0,0,1,2,5.88,16.25,16.25,0,0,1,.44,2.25,56.71,56.71,0,0,0,.1,13.15,64.32,64.32,0,0,1-8.93,24.24A60.91,60.91,0,0,1,84.7,232.45c-22,11.76-49.62,6.3-66.68-11.32C1.42,204-3.29,173.76,11.91,154.27A30.92,30.92,0,0,1,43.25,143c10.77,2.52,20.33,9.65,31.78,6.1.21-.07.18-.43,0-.4a29,29,0,0,1-12.34-1.3C77.38,132.36,85.89,111.83,92.16,92c3.62-11.47,6.53-23.15,9.54-34.79,2.87-11,6.87-22.47,8.11-33.85a5.78,5.78,0,0,0,.89-.29,13.9,13.9,0,0,0,1.8-1c.18.15.35-.06.4-.21s0-.08-.08-.06v.05a.27.27,0,0,0-.19-.33,11.83,11.83,0,0,0-3.89-.4c-1.16.06-1-1.4-.69-2.23a2.37,2.37,0,0,0,.63-.46,1.61,1.61,0,0,0,.82-.51l.14,0a7.84,7.84,0,0,0,3.08-1.76.27.27,0,0,0-.12-.46,10.93,10.93,0,0,0-4.39.09,8.09,8.09,0,0,1,.18-1.45c.06-.29.17-1.11.47-1.26.49-.23.94-.48,1.41-.75a.7.7,0,0,0,.3-.8s0,0,0-.16h0a.78.78,0,0,0-.26-.25,2.31,2.31,0,0,0-.62-.28,2.19,2.19,0,0,0,0-.81,2.06,2.06,0,0,1,.19-1.36c.35-.67,1.28-1,1.92-1.44l.38-.1a11.69,11.69,0,0,0,3.33-1.23.1.1,0,0,0,0-.17,7.9,7.9,0,0,0-4.7,0c.24-.89,2.81-2.89,3.11-3.06,2.24-1.28,4.88,0,6.08,2.07a7.66,7.66,0,0,0-2.32.78.49.49,0,0,0-.1.75c.91,1,2.18.83,3.36.4.26.08.15-.11.41.13a1.53,1.53,0,0,1,.36.77c.21.83-.32,1.22-1,1.4L120.4,9a3.81,3.81,0,0,1-.57.06,1,1,0,0,0-.35.07c-.9.09-1.8.11-2.27.19a13.29,13.29,0,0,0-4.71,1.56.14.14,0,0,0,0,.25,20.25,20.25,0,0,0,7.26-.22,2.24,2.24,0,0,0,.57.08c.56.31,1,.81.69,1.49a.84.84,0,0,1-.35.37,9.82,9.82,0,0,0-2.53.28c-1.4.24-2.25,1.19-3.35,1.93a.13.13,0,0,0,.07.24,12,12,0,0,0,3.88,0,6.22,6.22,0,0,0,.87-.25.63.63,0,0,0,.11.13,2.11,2.11,0,0,1,.19,3.32c-1,1.09-2.8,1.16-4.19,1.37-1.14.18-.87,2.09.28,2a12.87,12.87,0,0,0,2.14-.33c-.2,9.46,4.4,19.16,8.86,27.22,5.74,10.36,13.21,19.67,20.19,29.19a154.47,154.47,0,0,1,17.41,29.34,119,119,0,0,1,6,17.69c.75,2.84,1.35,5.71,1.93,8.58.48,2.41.5,4.93,1.78,7,0,.43.08.86.14,1.29.35,2.75-4.92,3.16-6.75,2.86a.17.17,0,0,0-.13.31,8.82,8.82,0,0,0,3.55,1.5c-5.65,2.75-12.21,4.4-17.54.14a.12.12,0,0,0-.16.17c7.72,9.38,19.16,2.25,27.37-2.51a34.32,34.32,0,0,1,31.24-1.71,36.55,36.55,0,0,1,14.76,15.41c3.69,7.2,4.47,15.38,4.92,23.41A54.68,54.68,0,0,1,226.05,206.42Z"/></g></g></svg>