<?xml version="1.0" encoding="utf-8"?>
<!-- Generator: Adobe Illustrator 23.0.6, SVG Export Plug-In . SVG Version: 6.00 Build 0)  -->
<svg version="1.1" id="Layer_1" xmlns="http://www.w3.org/2000/svg" xmlns:xlink="http://www.w3.org/1999/xlink" x="0px" y="0px"
	 viewBox="0 0 172.34 172.34" style="enable-background:new 0 0 172.34 172.34;" xml:space="preserve">
<style type="text/css">
	.st0{fill:none;}
	.st1{fill:#FFFFFF;}
</style>
<rect x="-100.7" y="-100.7" class="st0" width="373" height="373"/>
<g id="viber_2_">
	<g>
		<path class="st1" d="M118.91,98.9c-11-5.5-12.79-4.6-14.58-0.9c-1.79,3.71-3.32,8.83-7.04,10.36c-3.71,1.53-11,2.81-20.21-4.6
			c-9.21-7.42-10.36-11.39-8.44-18.04c1.92-6.65,6.52-8.7,8.32-11.26c1.79-2.56,0.51-8.96-3.84-12.54
			c-0.91-0.75-8.44-10.23-17.4-14.2s-14.84,0-17.4,2.3s-9.85,12.41-11.13,23.15c-1.28,10.75,3.32,22.51,10.49,30.96
			s21.11,23.41,40.55,34.03c19.44,10.62,30.45,13.81,44.26,5.63s15.61-8.44,15.99-14.58c0.38-6.14,0.9-11-2.3-14.84
			C132.98,110.54,129.91,104.4,118.91,98.9z M135.41,122.53c-0.6,0.51-1.45,1.88-1.45,1.88s-3.92-7.25-4.6-7.25
			c-0.68,0-1.88,0.94-1.53,1.45c0.34,0.51,4.52,6.99,4.18,7.51c-0.34,0.51-1.62,1.96-1.96,1.79c-0.34-0.17-4.95-8.19-4.95-8.19
			s-1.71,0.94-1.45,1.36c0.26,0.43,4.86,8.44,4.52,8.87c-0.34,0.43-2.56,1.36-2.56,1.36s-3.75-7.16-4.09-7.16
			c-0.34,0-1.88,0.85-1.79,1.11s4.01,7.08,3.67,7.25c-0.34,0.17-2.47,1.36-2.81,1.28c-0.34-0.08-2.98-5.63-3.41-5.71
			c-0.43-0.09-1.88,0.51-1.79,0.94c0.09,0.43,3.24,6.06,2.9,6.23c-0.34,0.17-2.05,1.02-2.3,0.85c-0.26-0.17-2.73-5.8-2.98-5.8
			s-1.71,0.34-1.71,1.02s2.9,5.88,2.39,5.97c-0.51,0.09-3.32,0.94-3.5,0.6c-0.17-0.34-2.22-5.97-2.64-6.05
			c-0.43-0.09-2.13-0.17-1.79,0.43c0.34,0.6,2.9,5.88,2.3,5.97c-0.6,0.09-3.92,0.26-4.09-0.17c-0.17-0.43-1.71-4.69-1.96-4.86
			c-0.26-0.17-2.13-0.34-2.13,0.26c0,0.6,1.79,4.43,1.53,4.43c-0.26,0-3.24,0.17-20.81-10.32S52.43,108.97,41.94,94.9
			s-10.23-22.17-8.7-30.45s10.4-13.99,11.94-14.84c3.18-1.77,8.02-2.13,17.65,5.8c9.64,7.93,12.28,13.9,11.68,16.29
			c-0.6,2.39-6.57,8.7-8.1,12.37c-1.53,3.67-2.39,10.57,3.75,17.06c6.14,6.48,13.81,10.75,19.79,11.51
			c5.97,0.77,10.23-0.94,12.02-3.75c1.79-2.81,4.95-10.66,5.97-11c1.02-0.34,10.06,1.79,17.4,8.53s7.68,7.33,7.25,7.85
			c-0.43,0.51-1.02,1.11-0.68,1.36c0.34,0.26,2.39,3.24,2.98,4.35C135.49,121.08,136,122.01,135.41,122.53z M88.33,70.42
			c0.34,0.26,3.84,0,10.06,4.18c6.23,4.18,6.99,9.72,7.59,10.23c0.6,0.51,8.61-1.62,9.13-1.88c0.51-0.26,0-5.03,0-5.46
			s-1.11-6.74-7.33-13.64c-6.23-6.91-16.71-7.08-17.48-6.74c-0.77,0.34-3.75,6.05-4.09,6.99C85.86,65.05,88.33,70.42,88.33,70.42z
			 M91.15,59.33c0.26,0,10.15-0.09,15.43,6.4c5.29,6.48,5.88,11.26,5.37,11.43c-0.51,0.17-3.84,0.51-3.84,0.51
			s-2.22-7.42-8.61-10.49c-6.4-3.07-9.64-3.32-10.23-3.58C89.27,63.6,90.89,59.33,91.15,59.33z M110.85,59.84
			c9.3,7.85,8.36,18.42,8.53,20.64s0.89,2.14,1.28,2.47c0.68,0.6,8.1-1.11,8.78-1.53c0.68-0.43,0.51-4.78,0.43-6.14
			c-0.09-1.36-2.56-16.89-15.86-26.86s-26.27-7.08-26.78-6.57c-0.51,0.51,0.68,9.47,2.39,9.89C91.32,52.17,101.55,52,110.85,59.84z
			 M90.04,44.41c0.17-0.68,4.6-0.94,9.21,0s12.2,3.41,19.79,11.34s7.76,19.96,7.76,20.98s-2.73,1.11-3.5,1.11
			c0,0,1.36-8.7-7.93-19.7s-24.22-10.57-24.9-10.49C89.78,47.73,89.87,45.09,90.04,44.41z M142.49,60.87
			c-3.15-10.92-6.57-21.83-22.86-31.55c-16.29-9.72-34.2-5.12-34.37-4.61c-0.17,0.51,2.24,12.21,2.64,12.37
			c0.68,0.26,4.26-1.79,14.5-0.34s18.59,8.1,23.96,15.95s7.25,26.27,7.42,26.95c0.17,0.68,10.15-0.77,10.4-0.85
			C144.45,78.69,145.64,71.78,142.49,60.87z M142.23,71.61c-0.6,0.34-4.35,0.85-4.6,0.34c-0.26-0.51-3.41-19.27-11.26-27.89
			c-7.85-8.61-23.11-15.18-37.69-12.11l-1.02-5.46c0,0,12.37-3.24,25.75,2.64s20.21,15.26,23.96,23.79
			C141.12,61.46,142.83,71.27,142.23,71.61z"/>
	</g>
</g>
</svg>
