<?xml version="1.0" encoding="utf-8"?>
<!-- Generator: Adobe Illustrator 16.0.0, SVG Export Plug-In . SVG Version: 6.00 Build 0)  -->
<!DOCTYPE svg PUBLIC "-//W3C//DTD SVG 1.1//EN" "http://www.w3.org/Graphics/SVG/1.1/DTD/svg11.dtd">
<svg version="1.1" id="Layer_1" xmlns="http://www.w3.org/2000/svg" xmlns:xlink="http://www.w3.org/1999/xlink" x="0px" y="0px"
	 width="150px" height="150px" viewBox="0 0 150 150" enable-background="new 0 0 150 150" xml:space="preserve">
<path fill="#A8D04B" d="M1507.656,52.875c-0.095,0.375-0.196,0.749-0.293,1.125c-0.008,0.005-0.018,0.004-0.025,0.011
	c-1.911,1.369-4.083,2.756-5.786,4.493c0.331-1.294,0.677-2.585,1.023-3.875c0.622-0.058,1.237-0.143,1.836-0.282
	c0.532-0.125,0.838-0.538,0.929-1c0.52-0.03,1.041-0.062,1.561-0.091c0.257-0.015,0.257-0.38,0-0.395
	c-0.52-0.03-1.042-0.061-1.563-0.091c-0.09-0.462-0.397-0.874-0.927-1c-2.857-0.676-6.03-0.333-8.961-0.396
	c-3.195-0.067-6.39-0.182-9.582-0.311c-6.332-0.256-12.659-0.621-18.985-0.981c-12.725-0.727-25.502-1.544-38.226-0.562
	c-0.894,0.068-0.892,1.313,0,1.385c3.286,0.264,6.576,0.498,9.868,0.715c-0.008,0.075,0.064,0.156,0.14,0.101
	c0.037-0.028,0.075-0.056,0.112-0.084c0.937,0.061,1.871,0.12,2.808,0.178c0.071,0.046,0.144,0.087,0.214,0.147
	c0.968,0.81,1.266,2.226,2.282,2.903c0.292,0.195,0.66-0.066,0.67-0.384c0.012-0.387-0.106-0.788-0.303-1.183
	c0.9,0.188,1.665,0.642,2.307,1.315c0.146,0.153,0.271,0.325,0.386,0.502c-3.843-0.134-7.672-0.012-11.437,0.55
	c-0.286,0.043-0.202,0.479,0.065,0.486c4.099,0.126,8.165,0.437,12.217,0.852c0.084,0.203,0.19,0.396,0.342,0.568
	c0.169,0.191,0.526,0.095,0.579-0.153c0.022-0.1,0.023-0.205,0.027-0.31c4.899,0.521,9.781,1.184,14.677,1.864
	c-0.253,3.878-0.222,7.76-0.106,11.644c-4.67,0.081-9.524,0.9-14.302,1.165c-0.258-1.563-0.503-3.128-0.712-4.699
	c-0.437-3.284-0.471-6.591-0.958-9.86c-0.06-0.396-0.678-0.361-0.765,0c-1.108,4.636-0.648,9.736-0.056,14.639
	c-3.715,0.024-7.355-0.428-10.793-1.986c-0.288-0.131-0.628,0.224-0.36,0.466c3.163,2.866,7.298,3.414,11.41,3.595
	c0.128,1.023,0.252,2.037,0.36,3.029c0.311,2.865,0.658,5.723,0.921,8.582c-3.107-0.653-6.162-1.56-9.147-2.789
	c-0.047-0.123-0.094-0.246-0.139-0.371c-1.112-3.094-2.058-6.246-3.004-9.392c-1.669-5.551-3.176-11.201-5.652-16.46
	c-0.378-0.804-0.783-1.6-1.206-2.394c-1.211-5.345-4.01-10.232-6.858-15.1c0.121-0.414-0.142-0.818-0.538-0.919
	c-0.383-0.654-0.765-1.309-1.141-1.964c-0.22-3.331-0.974-6.616-2.405-9.642c-0.27-0.569-0.992-0.924-1.598-0.916
	c-5.332,0.064-10.699,0.321-16.005,0.867c-5.248,0.539-11.071,0.416-16.149,1.881c-0.438,0.126-0.506,0.683-0.198,0.94
	c0.526,4.118,0.989,8.227,0.891,12.387c-0.013,0.515,0.41,0.824,0.875,0.876c6.664,0.733,13.274,1.52,19.994,1.468
	c3.304-0.027,8.319,0.026,12.063-1.467c3.255,9.519,6.62,19.131,10.672,28.408c0.683,1.934,1.338,3.874,1.825,5.866
	c0.647,2.652,1.308,5.301,2.007,7.94c0.284,1.079,0.497,3.273,1.604,3.931c0.097,0.059,0.194,0.07,0.288,0.061
	c0.213,1.468,0.495,2.916,1.008,4.225c0.135,0.346,0.687,0.325,0.681-0.092c-0.037-2.537-0.874-5.174-1.347-7.666
	c-0.172-0.907-0.345-1.813-0.52-2.719c0.512,0.965,1.035,1.923,1.568,2.875c0.299,1.123,0.599,2.246,0.896,3.373
	c0.128,0.48,0.693,0.43,0.893,0.099c0.491,0.762,1.11,1.444,1.956,2.005c0.663,0.438,1.328-0.167,1.414-0.813
	c0.267-2.006-0.452-3.83-1.211-5.654c2.47,1.85,5.724,2.945,8.685,3.593c0.144,2.031,0.224,4.063,0.199,6.103
	c-1.899-0.4-3.782-0.94-5.636-1.673c-0.522-0.206-0.885,0.664-0.381,0.905c1.961,0.938,3.956,1.673,5.981,2.239
	c-0.029,0.753-0.075,1.506-0.138,2.262c-3.858-0.104-7.803-0.733-10.812-2.896c-0.88-0.633-1.893,0.748-1.139,1.477
	c2.217,2.14,4.963,3.188,7.862,3.743c1.156,4.064,1.207,8.399,1.952,12.546c0.29,1.609,0.71,4.248,1.686,6.289
	c-0.711,0.437-1.354,1.016-1.901,1.765c-0.27,0.368-0.204,0.863,0.039,1.242c-0.042,0.083-0.08,0.169-0.12,0.253
	c-0.024-0.056-0.05-0.111-0.072-0.167c-0.999-2.476-1.563-5.127-2.088-7.735c-0.982-4.875-1.663-9.779-3.609-14.397
	c-0.119-0.284-0.563-0.187-0.477,0.131c1.386,5.062,1.524,10.431,2.3,15.61c0.394,2.633,0.955,5.229,1.827,7.746
	c0.28,0.808,0.59,1.793,1.064,2.619c-0.017,0.207-0.027,0.413-0.03,0.618c-0.062,4.22,2.838,8.038,6.248,10.209
	c3.581,2.28,7.928,2.073,11.184-0.6c2.442-2.003,3.437-5.084,3.076-8.035c1.468,0.246,2.956,0.386,4.422,0.636
	c1.556,3.565,5.715,6.467,9.077,7.485c6.59,1.996,12.904-4.653,13.667-10.736c0.648-5.17-3.036-9.075-7.602-10.489
	c1.007-3.98,1.591-8.297,2.101-12.283c0.021-0.166-0.262-0.204-0.291-0.04c-0.705,3.938-2.355,8.017-2.881,12.044
	c-0.131-0.028-0.262-0.057-0.393-0.08c0.756-4.38,2.131-8.639,3.259-12.939c1.661,0.039,3.322,0.004,4.979-0.153
	c1.784-0.169,4.809-0.4,5.844-2.168c0.572-0.979-0.008-1.687-0.824-1.925c1.804-2.065,2.632-5.848,3.503-8.285
	c1.403-3.926,2.586-7.93,3.698-11.948c2.192-7.915,3.586-16.023,4.965-24.113C1509.14,52.378,1507.878,51.993,1507.656,52.875
	 M1429.779,69.904c-2.203-6.247-4.883-12.345-6.326-18.828c1.576,3.528,3.049,7.097,4.255,10.78
	c0.191,0.584,0.704,0.779,1.153,0.668c1.547,4.044,2.516,8.344,3.355,12.559C1431.384,73.368,1430.57,71.643,1429.779,69.904
	 M1421.092,40.63c0.111-0.109,0.217-0.222,0.319-0.339c1.025,1.931,2.039,3.867,2.945,5.827
	C1423.236,44.303,1422.124,42.482,1421.092,40.63 M1429.136,62.413c0.691,2.066,1.308,4.165,1.896,6.269
	c-0.635-2.082-1.353-4.133-2.159-6.16C1428.965,62.498,1429.054,62.461,1429.136,62.413 M1404.441,41.294
	c-5.876,0.163-11.773-0.233-17.646-0.46c-0.26-3.801-0.942-7.531-1.697-11.263c0.812,0.191,1.641,0.328,2.486,0.422
	c-0.565,0.533-1.243,0.896-1.651,1.7c-0.023,0.048,0.042,0.107,0.078,0.061c0.573-0.735,1.312-1.001,1.986-1.414
	c-0.078,0.895,0.03,1.812,0.155,2.732c0.25,1.87,0.655,4.412,1.664,6.01c0.203,0.322,0.842,0.336,0.904-0.119
	c0.206-1.498-0.415-2.896-0.811-4.336c-0.422-1.528-0.442-2.988-0.534-4.49c1.506,0.073,3.036,0.049,4.557-0.011
	c-0.04,1.712-0.039,3.424,0.108,5.135c0.141,1.631,0.361,2.894,1.693,3.912c0.314,0.241,0.624-0.155,0.582-0.446
	c-0.425-2.91-0.883-5.745-1.14-8.656c1.058-0.051,2.106-0.107,3.134-0.149c-0.242,3.635-0.247,7.051,1.033,10.569
	c0.39,1.075,2.128,0.596,1.718-0.473c-1.235-3.218-1.548-6.704-1.809-10.128c0.079-0.002,0.159-0.005,0.237-0.007
	c1.919-0.046,3.835-0.13,5.75-0.218c-0.631,3.729-0.424,8.616,2.168,11.507C1406.418,41.229,1405.428,41.268,1404.441,41.294
	 M1409.077,41.055c-0.716-1.801-1.71-3.426-2.216-5.341c-0.514-1.95-0.623-4.071-0.52-6.099c2.431-0.114,4.861-0.227,7.295-0.279
	c-0.316,1.772-0.398,3.568-0.101,5.358c0.27,1.633,0.438,4.039,2.157,4.711c0.312,0.122,0.638-0.132,0.73-0.414
	c0.407-1.25-0.433-2.272-0.824-3.465c-0.265-0.803-0.442-1.629-0.547-2.465c0.523,1.306,1.1,2.598,1.701,3.879
	c0.004,0.157,0.011,0.315,0.012,0.47c0.009,0.814,0.435,1.356,0.998,1.637c0.02,0.043,0.041,0.085,0.063,0.128
	c-1.215,0.405-2.427,0.812-3.682,1.109C1412.482,40.676,1410.784,40.908,1409.077,41.055 M1419.215,42.005
	c0.424,0.867,0.846,1.731,1.25,2.594c0.935,1.993,1.866,3.985,2.769,5.991c0.473,2.764,1.046,5.489,1.718,8.196
	c-2.272-5.443-4.468-10.91-6.718-16.313C1418.572,42.331,1418.899,42.175,1419.215,42.005 M1433.702,83.537
	c-0.404-1.461-0.798-2.926-1.181-4.393c0.228,0.458,0.453,0.918,0.687,1.374C1433.376,81.524,1433.541,82.53,1433.702,83.537
	 M1432.813,75.486c-0.204-0.924-0.425-1.841-0.655-2.754c0.201,0.727,0.406,1.452,0.614,2.172c0.312,1.076,0.631,2.148,0.955,3.22
	c-0.201-0.396-0.406-0.792-0.604-1.189C1433.02,76.452,1432.919,75.968,1432.813,75.486 M1502.182,73.128
	c-1.363,1.282-2.727,2.561-4.089,3.842c-0.333,0.313-0.675,0.621-1.02,0.931c0.096-0.451,0.195-0.9,0.292-1.353
	c0.677-0.466,1.217-1.063,1.557-1.825c0.167-0.379,0.046-0.819-0.385-0.945c-0.182-0.053-0.364-0.091-0.549-0.121
	c0.03-0.135,0.062-0.27,0.091-0.405c0.067,0.082,0.165,0.133,0.287,0.12c1.223-0.144,2.644-1.488,3.507-2.333
	c0.46-0.451,0.9-0.935,1.293-1.455C1502.837,70.766,1502.51,71.947,1502.182,73.128 M1498.009,86.877
	c-0.135,0.393-0.282,0.78-0.422,1.17c-0.874,1.224-1.789,2.432-2.765,3.563c-0.259,0.3-0.53,0.588-0.805,0.873
	c0.276-1.325,0.553-2.649,0.829-3.976c0.83-0.632,1.438-1.637,2.052-2.447c1.143-1.512,2.117-3.144,2.953-4.842
	C1499.267,83.115,1498.652,85.001,1498.009,86.877 M1467.111,94.551c-0.003-1.726-0.054-3.452-0.136-5.18
	c3.911-0.048,7.813-0.248,11.71-0.549c-0.042,1.355-0.063,2.712-0.052,4.07c0.002,0.158,0.032,0.297,0.077,0.424
	c-3.479,0.314-6.948,0.762-10.423,1.12C1467.896,94.477,1467.504,94.514,1467.111,94.551 M1466.134,77.243
	c-0.086-1.166-0.162-2.333-0.24-3.5c4.612,0.162,9.114,1.544,13.62,2.656c-0.269,3.245-0.543,6.49-0.713,9.739
	c-3.977,0.379-7.975,0.689-11.956,0.805C1466.646,83.705,1466.372,80.469,1466.134,77.243 M1499.459,61.793
	c-1.158,3.919-2.201,7.863-3.167,11.828c-1.548,0.155-3.136,0.716-4.661,0.937c0.43-4.827,1.145-9.731,2.395-14.409
	c1.847,0.188,3.678,0.517,5.474,1.073c0.012,0.004,0.023,0.004,0.036,0.008c-0.028,0.055-0.062,0.108-0.09,0.165
	C1499.375,61.543,1499.393,61.685,1499.459,61.793 M1489.818,74.678c-2.619,0.036-5.246-0.41-7.801-0.921
	c-0.104-0.022-0.209-0.045-0.314-0.066c0.225-4.51,0.485-9.059,0.074-13.547c0.555-0.017,1.109-0.035,1.666-0.056
	c3.246-0.127,6.531-0.272,9.77-0.014C1491.327,64.757,1490.465,69.65,1489.818,74.678 M1483.74,77.317
	c1.393,0.246,3.477,0.572,5.672,0.679c-0.275,2.346-0.512,4.728-0.657,7.109c-2.479,0.261-4.979,0.535-7.493,0.791
	c0.08-3.005,0.179-6.01,0.301-9.016C1482.288,77.042,1483.014,77.189,1483.74,77.317 M1481.108,92.893
	c0.024-1.426,0.052-2.85,0.085-4.274c2.48-0.217,4.959-0.463,7.437-0.729c-0.044,1.671-0.035,3.332,0.06,4.966
	c-2.446-0.327-5.199,0.104-7.447,0.254c-0.053,0.004-0.106,0.01-0.16,0.014C1481.096,93.049,1481.106,92.975,1481.108,92.893
	 M1490.968,92.893c0.109-1.758,0.156-3.52,0.185-5.281c0.677-0.075,1.354-0.152,2.029-0.23c-0.468,2.19-0.93,4.385-1.392,6.582
	c-0.052-0.076-0.116-0.148-0.213-0.203c-0.24-0.138-0.491-0.252-0.748-0.357C1490.904,93.258,1490.956,93.09,1490.968,92.893
	 M1493.781,84.601c-0.859,0.08-1.724,0.166-2.59,0.253c0.027-2.275,0.063-4.553,0.186-6.828c1.41-0.032,2.793-0.192,4.002-0.557
	c-0.203,0.873-0.403,1.746-0.6,2.619c-0.364,0.39-0.711,0.795-1.023,1.225c-0.23,0.314,0.227,0.771,0.541,0.541
	c0.035-0.026,0.07-0.055,0.104-0.082C1494.193,82.713,1493.986,83.656,1493.781,84.601 M1503.869,67.042
	c-0.028,0.023-0.051,0.055-0.069,0.093c-0.606,1.354-1.739,2.354-2.899,3.235c-0.577,0.44-1.123,0.919-1.705,1.354
	c-0.337,0.251-0.674,0.438-0.938,0.726c0.271-1.225,0.542-2.45,0.821-3.675c1.364-0.823,2.413-2.326,3.479-3.462
	c0.842-0.898,1.684-1.796,2.525-2.694C1504.681,64.094,1504.277,65.568,1503.869,67.042 M1506.91,55.75
	c-0.454,1.749-0.916,3.495-1.387,5.238c-1.091,1.023-2.182,2.047-3.272,3.069c-0.785,0.735-1.76,1.483-2.609,2.309
	c0.406-1.742,0.824-3.48,1.253-5.214C1502.915,59.363,1504.833,57.487,1506.91,55.75 M1501.066,56.622
	c-0.336-0.6-0.479-1.313-0.849-1.902c0.5,0.005,0.996-0.005,1.491-0.029C1501.49,55.334,1501.275,55.978,1501.066,56.622
	 M1471.878,53.532c0.585,0.462,1.146,0.963,1.692,1.46c0.396,0.362,0.74,0.77,1.043,1.209c0.3,0.432,0.423,0.952,0.78,1.335
	c0.188,0.199,0.493,0.036,0.507-0.21c0.061-1.053-1.104-2.185-1.821-2.843c-0.409-0.375-0.853-0.665-1.325-0.904
	c2.4,0.132,4.804,0.259,7.205,0.378c0.414,0.312,0.765,0.719,1.065,1.179c0.54,0.826,0.688,1.804,1.343,2.54
	c0.306,0.345,0.82,0.051,0.844-0.35c0.073-1.203-0.865-2.36-1.655-3.204c-0.03-0.033-0.063-0.059-0.094-0.09
	c1.47,0.069,2.938,0.136,4.406,0.199c0.422,0.017,0.846,0.03,1.269,0.047c0.223,0.353,0.477,0.688,0.776,0.994
	c0.546,0.557,1.202,1.105,2.009,0.966c0.235-0.041,0.297-0.327,0.207-0.509c-0.305-0.621-0.943-0.794-1.457-1.216
	c-0.071-0.058-0.132-0.123-0.197-0.187c2.323,0.085,4.647,0.159,6.973,0.215c0.017,0.021,0.039,0.035,0.073,0.038
	c1.386,0.098,2.058,0.994,2.588,2.186c0.154,0.343,0.71,0.038,0.515-0.3c-0.498-0.861-1.083-1.55-1.899-1.877
	c0.984,0.045,1.987,0.101,2.99,0.125c0.582,0.758,0.6,1.801,1.128,2.599c-0.202,0.626-0.4,1.253-0.595,1.882
	c-0.054-0.027-0.107-0.053-0.169-0.072c-4.767-1.476-9.754-1.442-14.694-1.284c-5.528,0.177-10.879,0.288-16.35-0.324
	c-0.521-0.466-1.023-0.948-1.469-1.531c-0.641-0.839-1.122-1.794-1.493-2.779c0.271,0.015,0.539,0.03,0.811,0.045
	C1468.548,53.345,1470.213,53.439,1471.878,53.532 M1447.454,53.913c-0.806-0.925-1.968-1.189-3.148-1.052
	c-0.032,0.004-0.056,0.025-0.08,0.041c-0.217-0.339-0.482-0.667-0.768-0.97c7.283,0.442,14.571,0.818,21.857,1.229
	c0.491,1.432,1.273,2.967,2.339,4.188c-0.055-0.008-0.107-0.012-0.161-0.02c-1.012-0.139-2.031-0.282-3.053-0.424
	c-0.096-0.049-0.202-0.061-0.306-0.044c-1.003-0.14-2.01-0.278-3.02-0.415c-1.363-1.828-3.007-3.317-5.428-3.417
	c-0.037-0.002-0.037,0.054,0,0.054c1.789,0.104,3.424,1.733,4.606,3.254c-2.02-0.267-4.05-0.515-6.084-0.722
	c-1.32-0.983-2.769-1.828-4.114-2.73c-0.161-0.107-0.386,0.11-0.271,0.271c0.586,0.822,1.299,1.574,2.088,2.245
	c-1.188-0.099-2.378-0.178-3.568-0.236C1448.07,54.688,1447.745,54.247,1447.454,53.913 M1467.826,59.556
	c4.343,0.597,8.612,0.708,12.951,0.611c-0.505,4.344-0.718,8.729-1.023,13.099c-4.421-1.02-8.789-2.306-13.34-2.591
	c-0.241-0.014-0.483-0.025-0.727-0.035c-0.244-3.833-0.494-7.666-0.819-11.493C1465.854,59.283,1466.84,59.42,1467.826,59.556
	 M1450.363,78.564c-0.261-1.521-0.526-3.04-0.788-4.559c4.678,0.068,9.354-0.301,14.032-0.299c0.042,1.179,0.086,2.358,0.126,3.537
	c0.111,3.247,0.174,6.496,0.234,9.744c-4.231,0.017-8.434-0.226-12.56-0.866C1451.154,83.586,1450.793,81.063,1450.363,78.564
	 M1451.617,88.555c4.096,0.617,8.264,0.804,12.399,0.832c0.035,1.806,0.079,3.61,0.129,5.414c-4.148,0.3-8.294,0.348-12.371-0.183
	C1451.812,92.598,1451.76,90.574,1451.617,88.555 M1461.369,97.146c-2.475,0.198-4.948,0.446-7.413,0.567
	c-0.752,0.038-1.531,0.071-2.326,0.096c0.037-0.506,0.075-1.008,0.1-1.514C1454.888,96.911,1458.108,97.161,1461.369,97.146
	 M1445.46,100.326c1.315,0.198,2.655,0.315,3.981,0.397c5.72,0.353,11.469-0.218,17.185-0.397c5.43-0.17,10.872,0.848,16.269,1.293
	c0.284,0.023,0.568,0.044,0.853,0.065c-2.552,3.192-3.194,8.521-3.261,12.901c-0.965,0.063-1.92,0.239-2.839,0.549
	c-2.374,0.799-4.186,2.649-5.124,4.889c-0.895,0.721-1.658,1.554-2.232,2.501c-0.053-0.095-0.139-0.168-0.26-0.187
	c-0.992-0.145-1.946,0.359-2.9,0.625c-0.793,0.22-1.599,0.398-2.41,0.529c-1.547-4.617-6.889-8.279-11.9-7.101
	c-1.017,0.239-1.968,0.672-2.836,1.243c-0.029-0.059-0.061-0.114-0.09-0.175c-1.004-2.063-1.426-4.463-1.869-6.694
	C1447.337,107.301,1446.714,103.67,1445.46,100.326 M1469.779,123.527c-0.037-0.016-0.075-0.03-0.113-0.044
	c0.057-0.031,0.117-0.06,0.171-0.095C1469.816,123.436,1469.8,123.481,1469.779,123.527 M1457.417,131.262
	c-2.447,0.88-5.604-0.06-7.174-1.943c-0.396-0.719-0.66-1.46-0.735-2.178c-0.1-0.938,0.066-1.823,0.414-2.631
	c0.052-0.088,0.102-0.179,0.159-0.27c0.021-0.031,0.018-0.059,0.006-0.083c0.3-0.582,0.698-1.112,1.167-1.584
	c3.357,0.328,7.137,1.39,8.885,3.655c-0.193,0.137-0.383,0.277-0.57,0.422c-0.489,0.383,0.146,1.185,0.661,0.855
	c0.163-0.104,0.327-0.203,0.492-0.299c0.144,0.321,0.26,0.655,0.325,1.016C1460.439,129.596,1459.111,130.652,1457.417,131.262
	 M1465.158,125.937c-0.004-0.138-0.008-0.275-0.018-0.412c0.127-0.027,0.252-0.058,0.38-0.081c1.214-0.236,2.627-0.072,3.824-0.423
	c-0.06,0.362-0.086,0.725-0.082,1.084C1467.904,125.949,1466.537,125.9,1465.158,125.937 M1475.384,129.881
	c-1.038-0.921-1.632-1.797-1.885-2.619c0.334,0.336,0.706,0.619,1.11,0.836c2.207,2.865,5.23,4.556,8.19,4.715
	C1480.136,133.385,1477.628,131.869,1475.384,129.881 M1487.443,121.273c2.07,1.246,0.187,4.615-0.821,6.089
	c-2.494,3.655-7.031,1.065-9.081-1.611c-0.657-0.858-1.372-2.001-1.532-3.151c1.34-0.844,3.004-1.471,4.56-1.827
	C1482.733,120.275,1485.463,120.083,1487.443,121.273 M1482.218,114.598c-0.022-0.001-0.043-0.002-0.063-0.004
	c0.089-4.34,0.158-9.006,2.017-12.881c0.624,0.043,1.247,0.075,1.872,0.101C1484.565,106.022,1483.056,110.201,1482.218,114.598
	 M1488.275,98.471c-6.054,0.041-12.057-1.094-18.082-1.522c-1.012-0.072-2.027-0.089-3.043-0.084
	c4.037-0.337,8.058-0.847,12.093-1.192c1.997-0.17,3.997-0.269,6.001-0.315c2.066-0.049,4.163,0.324,6.129-0.405
	c-0.163,0.184-0.308,0.383-0.42,0.612c-0.138,0.278,0.085,0.571,0.392,0.508c0.56-0.114,1.091-0.43,1.59-0.847
	c0.279-0.051,0.522-0.235,0.623-0.582c0.746-0.771,1.404-1.685,1.947-2.35c0.342-0.417,0.665-0.841,0.974-1.271
	c-0.182,0.467-0.358,0.935-0.544,1.398c-0.627,1.565-1.59,3.037-1.65,4.741c-0.009,0.202,0.032,0.381,0.104,0.536
	c-0.014,0.013-0.029,0.025-0.043,0.037C1492.334,98.045,1490.384,98.456,1488.275,98.471 M1500.005,80.71
	c-0.074-0.165-0.317-0.239-0.43-0.036c-0.847,1.545-1.82,2.993-2.905,4.379c-0.164-0.348-0.487-0.596-0.977-0.607
	c0.334-1.612,0.674-3.224,1.016-4.835c0.494-0.534,0.978-1.079,1.471-1.604c1.253-1.334,2.505-2.667,3.758-4
	c-0.156,0.565-0.313,1.129-0.471,1.694C1501.004,77.376,1500.514,79.047,1500.005,80.71"/>
<path fill="#A8D04B" d="M116.707,55.118c-0.064,0.256-0.134,0.511-0.2,0.768c-0.006,0.003-0.012,0.003-0.018,0.007
	c-1.303,0.934-2.784,1.88-3.947,3.065c0.227-0.883,0.463-1.763,0.699-2.643c0.424-0.04,0.844-0.098,1.251-0.192
	c0.363-0.085,0.573-0.367,0.634-0.682c0.355-0.021,0.711-0.042,1.066-0.062c0.174-0.011,0.174-0.259,0-0.27
	c-0.355-0.021-0.713-0.042-1.066-0.062c-0.063-0.315-0.272-0.596-0.634-0.682c-1.948-0.461-4.112-0.228-6.11-0.27
	c-2.181-0.046-4.36-0.124-6.536-0.212c-4.32-0.174-8.637-0.423-12.95-0.669c-8.681-0.496-17.395-1.053-26.074-0.383
	c-0.609,0.046-0.608,0.896,0,0.944c2.241,0.18,4.486,0.34,6.731,0.488c-0.005,0.051,0.044,0.106,0.095,0.068
	c0.025-0.02,0.052-0.038,0.077-0.058c0.639,0.042,1.276,0.083,1.916,0.122c0.048,0.031,0.098,0.06,0.146,0.101
	c0.66,0.553,0.863,1.519,1.556,1.98c0.199,0.133,0.45-0.045,0.458-0.262c0.008-0.264-0.073-0.538-0.207-0.807
	c0.614,0.128,1.135,0.438,1.573,0.896c0.1,0.104,0.185,0.222,0.263,0.342c-2.62-0.091-5.232-0.008-7.8,0.375
	c-0.195,0.029-0.138,0.327,0.044,0.332c2.796,0.086,5.569,0.298,8.333,0.581c0.057,0.138,0.129,0.27,0.232,0.388
	c0.115,0.13,0.359,0.064,0.395-0.104c0.017-0.068,0.017-0.14,0.02-0.211c3.342,0.355,6.672,0.807,10.011,1.271
	c-0.172,2.645-0.151,5.293-0.073,7.942c-3.186,0.056-6.496,0.614-9.755,0.795c-0.176-1.066-0.344-2.134-0.485-3.206
	c-0.298-2.24-0.321-4.496-0.653-6.726c-0.04-0.271-0.462-0.247-0.521,0c-0.756,3.162-0.442,6.641-0.038,9.985
	c-2.534,0.017-5.017-0.291-7.362-1.354c-0.197-0.089-0.429,0.152-0.246,0.318c2.158,1.955,4.978,2.329,7.784,2.454
	c0.086,0.697,0.171,1.389,0.245,2.064c0.212,1.954,0.449,3.904,0.627,5.855c-2.119-0.446-4.202-1.063-6.239-1.902
	c-0.032-0.085-0.064-0.17-0.095-0.254c-0.758-2.11-1.403-4.26-2.049-6.406c-1.139-3.786-2.166-7.64-3.855-11.228
	c-0.258-0.548-0.534-1.091-0.823-1.633c-0.825-3.646-2.734-6.979-4.678-10.299c0.083-0.282-0.097-0.558-0.367-0.627
	c-0.261-0.446-0.521-0.893-0.778-1.34c-0.15-2.272-0.664-4.513-1.641-6.576c-0.184-0.389-0.677-0.63-1.09-0.625
	c-3.637,0.044-7.298,0.219-10.917,0.591c-3.58,0.368-7.551,0.284-11.015,1.284c-0.298,0.085-0.345,0.466-0.135,0.641
	c0.359,2.809,0.674,5.612,0.607,8.45c-0.009,0.352,0.28,0.562,0.597,0.598c4.545,0.5,9.054,1.037,13.638,1.001
	c2.254-0.019,5.675,0.018,8.228-1c2.22,6.493,4.516,13.049,7.279,19.377c0.466,1.319,0.913,2.643,1.245,4.001
	c0.442,1.809,0.892,3.616,1.369,5.417c0.194,0.735,0.339,2.233,1.094,2.681c0.065,0.041,0.132,0.049,0.196,0.041
	c0.146,1.003,0.338,1.99,0.688,2.883c0.092,0.236,0.468,0.222,0.464-0.063c-0.025-1.731-0.596-3.53-0.918-5.229
	c-0.117-0.619-0.235-1.237-0.354-1.855c0.349,0.658,0.706,1.313,1.069,1.96c0.204,0.769,0.409,1.532,0.612,2.302
	c0.087,0.328,0.473,0.292,0.609,0.068c0.335,0.519,0.757,0.984,1.334,1.366c0.453,0.299,0.906-0.112,0.965-0.555
	c0.182-1.367-0.309-2.61-0.826-3.855c1.685,1.262,3.904,2.009,5.923,2.45c0.098,1.385,0.152,2.771,0.136,4.163
	c-1.294-0.273-2.579-0.643-3.843-1.141c-0.356-0.142-0.604,0.452-0.26,0.615c1.338,0.641,2.699,1.143,4.079,1.528
	c-0.02,0.514-0.051,1.027-0.094,1.543c-2.631-0.071-5.321-0.5-7.374-1.975c-0.6-0.433-1.291,0.51-0.777,1.007
	c1.512,1.46,3.386,2.175,5.363,2.554c0.789,2.771,0.824,5.729,1.332,8.558c0.197,1.098,0.483,2.896,1.149,4.289
	c-0.485,0.299-0.923,0.692-1.296,1.203c-0.184,0.251-0.139,0.59,0.026,0.849c-0.028,0.057-0.054,0.114-0.081,0.171
	c-0.017-0.036-0.035-0.074-0.05-0.112c-0.681-1.69-1.066-3.497-1.424-5.277c-0.67-3.325-1.134-6.67-2.462-9.82
	c-0.081-0.194-0.384-0.128-0.325,0.09c0.945,3.452,1.04,7.114,1.569,10.647c0.269,1.796,0.652,3.568,1.246,5.284
	c0.191,0.552,0.403,1.222,0.726,1.787c-0.011,0.139-0.019,0.28-0.021,0.422c-0.042,2.876,1.936,5.48,4.261,6.962
	c2.442,1.557,5.408,1.415,7.629-0.407c1.666-1.367,2.344-3.469,2.099-5.48c1.001,0.167,2.017,0.262,3.017,0.432
	c1.06,2.433,3.898,4.411,6.191,5.107c4.494,1.36,8.802-3.176,9.322-7.324c0.442-3.526-2.071-6.191-5.186-7.156
	c0.687-2.715,1.086-5.658,1.433-8.377c0.015-0.113-0.178-0.14-0.197-0.026c-0.48,2.685-1.607,5.466-1.967,8.214
	c-0.089-0.019-0.178-0.038-0.267-0.055c0.516-2.987,1.454-5.893,2.223-8.826c1.133,0.026,2.266,0.003,3.396-0.104
	c1.218-0.115,3.28-0.272,3.987-1.478c0.39-0.668-0.006-1.151-0.563-1.314c1.231-1.408,1.797-3.989,2.391-5.651
	c0.956-2.678,1.764-5.408,2.523-8.15c1.495-5.399,2.444-10.93,3.385-16.448C117.719,54.779,116.858,54.516,116.707,55.118
	 M63.586,66.734c-1.503-4.261-3.33-8.42-4.315-12.843c1.075,2.407,2.08,4.841,2.902,7.354c0.13,0.398,0.48,0.531,0.787,0.455
	c1.055,2.759,1.716,5.692,2.289,8.566C64.681,69.097,64.126,67.919,63.586,66.734 M57.661,46.766
	c0.076-0.075,0.148-0.152,0.218-0.231c0.699,1.316,1.391,2.638,2.009,3.975C59.124,49.271,58.365,48.029,57.661,46.766
	 M63.147,61.624c0.472,1.41,0.892,2.841,1.294,4.276c-0.433-1.42-0.922-2.819-1.473-4.202
	C63.031,61.682,63.091,61.657,63.147,61.624 M46.304,47.219c-4.008,0.111-8.031-0.159-12.037-0.314
	c-0.177-2.592-0.643-5.137-1.158-7.683c0.554,0.13,1.119,0.224,1.696,0.288c-0.386,0.363-0.848,0.611-1.126,1.16
	c-0.016,0.033,0.028,0.073,0.053,0.042c0.391-0.501,0.895-0.683,1.355-0.964c-0.053,0.61,0.021,1.236,0.106,1.863
	c0.171,1.276,0.447,3.01,1.135,4.1c0.138,0.22,0.574,0.229,0.617-0.081c0.141-1.022-0.283-1.976-0.553-2.958
	c-0.288-1.042-0.302-2.038-0.364-3.063c1.027,0.05,2.071,0.034,3.108-0.008c-0.027,1.168-0.027,2.336,0.074,3.503
	c0.096,1.113,0.246,1.974,1.154,2.668c0.215,0.165,0.426-0.105,0.397-0.304c-0.29-1.985-0.602-3.919-0.777-5.905
	c0.721-0.035,1.437-0.073,2.137-0.102c-0.165,2.479-0.168,4.81,0.705,7.209c0.266,0.733,1.452,0.406,1.172-0.323
	c-0.843-2.195-1.056-4.573-1.234-6.908c0.054-0.001,0.108-0.004,0.162-0.005c1.309-0.031,2.616-0.088,3.922-0.149
	c-0.43,2.544-0.289,5.877,1.479,7.849C47.651,47.174,46.976,47.201,46.304,47.219 M49.465,47.055
	c-0.488-1.229-1.167-2.337-1.511-3.643c-0.351-1.33-0.425-2.777-0.354-4.161c1.658-0.078,3.316-0.154,4.976-0.19
	c-0.216,1.209-0.271,2.434-0.069,3.655c0.184,1.114,0.298,2.755,1.472,3.213c0.212,0.083,0.435-0.09,0.498-0.283
	c0.278-0.853-0.295-1.55-0.562-2.363c-0.181-0.547-0.302-1.111-0.373-1.682c0.357,0.891,0.75,1.772,1.16,2.646
	c0.002,0.108,0.008,0.215,0.008,0.321c0.006,0.556,0.296,0.925,0.681,1.117c0.013,0.029,0.028,0.058,0.042,0.087
	c-0.829,0.276-1.655,0.554-2.511,0.756C51.788,46.797,50.63,46.956,49.465,47.055 M56.38,47.704c0.289,0.591,0.577,1.181,0.853,1.77
	c0.637,1.359,1.272,2.719,1.888,4.086c0.323,1.885,0.713,3.744,1.172,5.591c-1.55-3.713-3.048-7.442-4.583-11.127
	C55.942,47.926,56.166,47.82,56.38,47.704 M66.262,76.033c-0.275-0.996-0.544-1.995-0.805-2.996
	c0.155,0.312,0.309,0.626,0.468,0.937C66.04,74.661,66.152,75.347,66.262,76.033 M65.656,70.542c-0.139-0.631-0.29-1.257-0.447-1.88
	c0.137,0.496,0.277,0.991,0.419,1.482c0.212,0.733,0.431,1.465,0.651,2.196c-0.137-0.271-0.277-0.541-0.411-0.812
	C65.797,71.201,65.729,70.871,65.656,70.542 M112.973,68.933c-0.931,0.874-1.859,1.746-2.79,2.62
	c-0.227,0.214-0.46,0.424-0.694,0.637c0.064-0.31,0.133-0.615,0.199-0.923c0.461-0.319,0.83-0.727,1.063-1.246
	c0.112-0.258,0.03-0.559-0.263-0.645c-0.125-0.035-0.248-0.062-0.375-0.083c0.02-0.092,0.042-0.185,0.063-0.275
	c0.046,0.055,0.112,0.091,0.195,0.081c0.834-0.098,1.803-1.015,2.393-1.591c0.313-0.308,0.613-0.638,0.882-0.993
	C113.418,67.321,113.196,68.127,112.973,68.933 M110.126,78.313c-0.091,0.267-0.191,0.531-0.287,0.797
	c-0.597,0.834-1.221,1.658-1.887,2.432c-0.176,0.203-0.361,0.4-0.55,0.595c0.19-0.904,0.378-1.809,0.567-2.713
	c0.565-0.43,0.981-1.116,1.399-1.669c0.779-1.03,1.443-2.144,2.015-3.301C110.984,75.745,110.566,77.032,110.126,78.313
	 M89.051,83.545c-0.002-1.176-0.036-2.354-0.093-3.532c2.668-0.032,5.329-0.17,7.988-0.375c-0.029,0.925-0.045,1.851-0.037,2.777
	c0.002,0.106,0.022,0.201,0.054,0.288c-2.373,0.214-4.739,0.52-7.109,0.766C89.586,83.495,89.318,83.52,89.051,83.545 M88.384,71.74
	c-0.059-0.796-0.11-1.591-0.164-2.388c3.146,0.111,6.217,1.053,9.291,1.812c-0.184,2.215-0.371,4.428-0.486,6.644
	c-2.713,0.259-5.44,0.471-8.155,0.549C88.734,76.147,88.546,73.941,88.384,71.74 M111.115,61.201
	c-0.789,2.673-1.502,5.364-2.16,8.067c-1.056,0.107-2.14,0.49-3.18,0.641c0.293-3.293,0.781-6.639,1.634-9.829
	c1.26,0.128,2.509,0.352,3.734,0.732c0.008,0.002,0.016,0.002,0.024,0.005c-0.021,0.037-0.043,0.073-0.063,0.112
	C111.059,61.031,111.07,61.127,111.115,61.201 M104.54,69.99c-1.786,0.025-3.579-0.279-5.321-0.628
	c-0.071-0.015-0.144-0.031-0.215-0.045c0.152-3.076,0.331-6.179,0.051-9.24c0.378-0.011,0.756-0.024,1.137-0.038
	c2.213-0.087,4.454-0.186,6.664-0.01C105.567,63.223,104.98,66.561,104.54,69.99 M100.394,71.79c0.949,0.169,2.37,0.392,3.868,0.465
	c-0.188,1.599-0.35,3.224-0.448,4.848c-1.691,0.179-3.396,0.365-5.111,0.54c0.055-2.049,0.123-4.1,0.206-6.15
	C99.402,71.602,99.897,71.703,100.394,71.79 M98.599,82.415c0.017-0.974,0.035-1.944,0.057-2.915
	c1.692-0.148,3.384-0.316,5.073-0.499c-0.03,1.141-0.024,2.273,0.041,3.388c-1.67-0.224-3.547,0.07-5.079,0.173
	c-0.037,0.004-0.073,0.007-0.11,0.011C98.589,82.521,98.598,82.47,98.599,82.415 M105.323,82.415
	c0.075-1.199,0.107-2.401,0.125-3.604c0.463-0.051,0.925-0.104,1.385-0.156c-0.318,1.494-0.634,2.99-0.948,4.489
	c-0.036-0.052-0.079-0.103-0.146-0.139c-0.163-0.093-0.335-0.171-0.511-0.244C105.279,82.663,105.315,82.549,105.323,82.415
	 M107.243,76.758c-0.587,0.055-1.177,0.114-1.769,0.173c0.021-1.551,0.045-3.104,0.128-4.658c0.963-0.021,1.905-0.131,2.729-0.378
	c-0.137,0.593-0.274,1.188-0.407,1.784c-0.249,0.267-0.484,0.543-0.699,0.837c-0.157,0.215,0.156,0.525,0.37,0.369
	c0.024-0.019,0.048-0.039,0.07-0.056C107.523,75.472,107.383,76.114,107.243,76.758 M114.123,64.781
	c-0.019,0.016-0.034,0.038-0.047,0.064c-0.413,0.923-1.187,1.605-1.978,2.207c-0.395,0.3-0.766,0.627-1.163,0.923
	c-0.23,0.171-0.46,0.299-0.64,0.495c0.186-0.836,0.369-1.672,0.561-2.507c0.931-0.562,1.646-1.587,2.372-2.361
	c0.575-0.613,1.148-1.226,1.722-1.838C114.676,62.771,114.401,63.776,114.123,64.781 M116.198,57.079
	c-0.311,1.193-0.626,2.384-0.947,3.573c-0.742,0.698-1.487,1.396-2.232,2.094c-0.535,0.501-1.199,1.012-1.778,1.575
	c0.276-1.188,0.562-2.374,0.854-3.557C113.473,59.544,114.781,58.264,116.198,57.079 M112.211,57.674
	c-0.228-0.41-0.324-0.896-0.579-1.298c0.341,0.004,0.681-0.003,1.018-0.02C112.5,56.795,112.354,57.234,112.211,57.674
	 M92.302,55.566c0.398,0.315,0.782,0.657,1.155,0.996c0.27,0.247,0.504,0.525,0.711,0.824c0.204,0.295,0.289,0.65,0.532,0.911
	c0.128,0.136,0.336,0.025,0.346-0.144c0.041-0.717-0.754-1.49-1.243-1.939c-0.278-0.256-0.581-0.454-0.903-0.617
	c1.637,0.09,3.277,0.177,4.914,0.258c0.283,0.212,0.522,0.49,0.728,0.804c0.368,0.563,0.47,1.23,0.916,1.732
	c0.208,0.235,0.56,0.035,0.575-0.239c0.051-0.82-0.59-1.609-1.129-2.185c-0.021-0.022-0.043-0.04-0.063-0.062
	c1.002,0.047,2.004,0.093,3.006,0.136c0.286,0.011,0.577,0.02,0.863,0.032c0.153,0.241,0.325,0.469,0.531,0.678
	c0.371,0.38,0.819,0.753,1.371,0.659c0.159-0.028,0.201-0.223,0.139-0.347c-0.206-0.423-0.642-0.542-0.993-0.829
	c-0.048-0.04-0.089-0.084-0.135-0.127c1.586,0.058,3.171,0.109,4.758,0.146c0.01,0.015,0.026,0.024,0.049,0.026
	c0.946,0.067,1.404,0.678,1.766,1.491c0.105,0.234,0.484,0.026,0.352-0.205c-0.341-0.587-0.739-1.057-1.296-1.28
	c0.67,0.031,1.354,0.069,2.039,0.085c0.397,0.517,0.409,1.229,0.769,1.773c-0.137,0.427-0.272,0.854-0.405,1.283
	c-0.036-0.018-0.073-0.036-0.115-0.049c-3.25-1.007-6.653-0.984-10.022-0.875c-3.771,0.121-7.421,0.196-11.151-0.221
	c-0.356-0.318-0.699-0.646-1.004-1.044c-0.436-0.573-0.765-1.224-1.018-1.896c0.185,0.011,0.368,0.021,0.554,0.031
	C90.03,55.439,91.166,55.503,92.302,55.566 M75.643,55.826c-0.55-0.631-1.342-0.811-2.148-0.717
	c-0.022,0.002-0.038,0.017-0.054,0.028c-0.148-0.231-0.329-0.455-0.524-0.661c4.968,0.302,9.938,0.558,14.908,0.838
	c0.335,0.977,0.868,2.024,1.596,2.857c-0.037-0.006-0.073-0.008-0.109-0.013c-0.69-0.095-1.386-0.192-2.083-0.29
	c-0.065-0.033-0.138-0.041-0.209-0.03c-0.684-0.095-1.37-0.189-2.059-0.283c-0.931-1.247-2.051-2.263-3.702-2.331
	c-0.026-0.002-0.026,0.036,0,0.036c1.219,0.071,2.336,1.183,3.141,2.22c-1.376-0.182-2.761-0.352-4.149-0.493
	c-0.9-0.671-1.888-1.247-2.806-1.862c-0.11-0.073-0.264,0.075-0.185,0.185c0.399,0.561,0.886,1.074,1.424,1.532
	c-0.811-0.067-1.622-0.122-2.435-0.162C76.063,56.355,75.841,56.054,75.643,55.826 M89.538,59.675
	c2.963,0.407,5.875,0.483,8.834,0.417c-0.344,2.963-0.489,5.955-0.697,8.935c-3.016-0.695-5.996-1.573-9.101-1.768
	c-0.163-0.01-0.329-0.017-0.494-0.023c-0.168-2.615-0.337-5.229-0.56-7.84C88.193,59.489,88.865,59.583,89.538,59.675
	 M77.626,72.642c-0.178-1.039-0.358-2.074-0.537-3.111c3.19,0.047,6.38-0.205,9.572-0.204c0.027,0.805,0.058,1.609,0.085,2.413
	c0.076,2.215,0.118,4.431,0.161,6.648c-2.887,0.01-5.754-0.153-8.567-0.592C78.166,76.068,77.92,74.345,77.626,72.642
	 M78.482,79.455c2.793,0.421,5.637,0.549,8.457,0.567c0.024,1.233,0.055,2.464,0.089,3.693c-2.83,0.205-5.658,0.237-8.439-0.124
	C78.614,82.213,78.58,80.833,78.482,79.455 M85.135,85.315c-1.688,0.136-3.375,0.305-5.057,0.387
	c-0.513,0.027-1.045,0.05-1.587,0.065c0.024-0.345,0.051-0.688,0.067-1.032C80.713,85.156,82.91,85.326,85.135,85.315
	 M74.283,87.484c0.897,0.137,1.81,0.216,2.714,0.271c3.902,0.24,7.823-0.149,11.723-0.271c3.703-0.116,7.416,0.578,11.097,0.883
	c0.194,0.016,0.388,0.031,0.581,0.045c-1.739,2.176-2.178,5.812-2.225,8.8c-0.657,0.044-1.309,0.163-1.936,0.373
	c-1.619,0.545-2.854,1.809-3.494,3.335c-0.61,0.492-1.133,1.062-1.524,1.708c-0.035-0.066-0.094-0.115-0.177-0.129
	c-0.677-0.1-1.327,0.246-1.979,0.426c-0.541,0.151-1.091,0.272-1.644,0.361c-1.055-3.149-4.698-5.646-8.117-4.843
	c-0.693,0.163-1.343,0.458-1.936,0.848c-0.02-0.04-0.041-0.077-0.061-0.119c-0.685-1.407-0.973-3.044-1.274-4.566
	C75.563,92.241,75.138,89.766,74.283,87.484 M90.871,103.311c-0.025-0.011-0.052-0.021-0.078-0.028
	c0.038-0.022,0.081-0.043,0.117-0.067C90.896,103.247,90.884,103.28,90.871,103.311 M82.438,108.587
	c-1.669,0.6-3.821-0.04-4.894-1.326c-0.27-0.49-0.45-0.995-0.501-1.485c-0.068-0.641,0.045-1.244,0.282-1.795
	c0.035-0.061,0.069-0.121,0.109-0.184c0.014-0.021,0.012-0.041,0.004-0.057c0.204-0.396,0.476-0.759,0.796-1.08
	c2.289,0.224,4.867,0.946,6.061,2.493c-0.133,0.093-0.262,0.189-0.39,0.286c-0.333,0.263,0.101,0.81,0.451,0.586
	c0.112-0.07,0.223-0.14,0.336-0.204c0.098,0.218,0.178,0.446,0.222,0.692C84.5,107.45,83.595,108.171,82.438,108.587
	 M87.719,104.955c-0.002-0.095-0.006-0.188-0.013-0.282c0.087-0.019,0.172-0.038,0.26-0.055c0.827-0.161,1.792-0.051,2.608-0.289
	c-0.041,0.247-0.059,0.495-0.056,0.739C89.592,104.964,88.659,104.929,87.719,104.955 M94.693,107.645
	c-0.708-0.628-1.112-1.226-1.286-1.787c0.229,0.23,0.482,0.422,0.758,0.569c1.505,1.956,3.568,3.109,5.587,3.218
	C97.936,110.034,96.225,109.001,94.693,107.645 M102.919,101.773c1.413,0.851,0.128,3.147-0.559,4.153
	c-1.702,2.492-4.797,0.727-6.195-1.099c-0.448-0.585-0.936-1.366-1.046-2.149c0.914-0.576,2.049-1.004,3.11-1.246
	C99.706,101.092,101.568,100.962,102.919,101.773 M99.354,97.22c-0.015,0-0.028-0.002-0.043-0.002
	c0.061-2.962,0.107-6.144,1.375-8.787c0.426,0.03,0.852,0.052,1.278,0.069C100.956,91.371,99.927,94.22,99.354,97.22 M103.486,86.22
	c-4.128,0.027-8.224-0.747-12.334-1.038c-0.689-0.05-1.383-0.062-2.075-0.058c2.753-0.23,5.497-0.578,8.248-0.813
	c1.363-0.116,2.728-0.183,4.094-0.214c1.409-0.035,2.841,0.22,4.181-0.278c-0.11,0.125-0.21,0.262-0.286,0.419
	c-0.095,0.188,0.059,0.388,0.267,0.346c0.381-0.079,0.745-0.293,1.086-0.578c0.189-0.034,0.355-0.16,0.424-0.397
	c0.509-0.524,0.959-1.148,1.328-1.603c0.232-0.282,0.454-0.572,0.664-0.867c-0.123,0.318-0.244,0.639-0.371,0.954
	c-0.428,1.068-1.084,2.071-1.124,3.234c-0.007,0.138,0.02,0.26,0.07,0.365c-0.01,0.01-0.021,0.018-0.03,0.025
	C106.256,85.929,104.926,86.21,103.486,86.22 M111.488,74.105c-0.052-0.113-0.218-0.164-0.295-0.024
	c-0.577,1.054-1.241,2.042-1.979,2.987c-0.113-0.238-0.333-0.407-0.667-0.415c0.229-1.1,0.459-2.199,0.693-3.298
	c0.337-0.363,0.666-0.735,1.003-1.094c0.854-0.909,1.708-1.819,2.563-2.729c-0.106,0.386-0.214,0.771-0.321,1.156
	C112.169,71.831,111.834,72.969,111.488,74.105"/>
</svg>
