<?xml version="1.0" encoding="utf-8"?>
<!-- Generator: Adobe Illustrator 23.0.6, SVG Export Plug-In . SVG Version: 6.00 Build 0)  -->
<svg version="1.1" id="Layer_1" xmlns="http://www.w3.org/2000/svg" xmlns:xlink="http://www.w3.org/1999/xlink" x="0px" y="0px"
	 viewBox="0 0 166.8 171.6" style="enable-background:new 0 0 166.8 171.6;" xml:space="preserve">
<style type="text/css">
	.st0{fill:#E08B03;}
	.st1{fill:#FAA919;}
	.st2{opacity:0.3;}
	.st3{fill:#F43E67;}
	.st4{opacity:0.3;fill:#E08B03;enable-background:new    ;}
	.st5{opacity:0.3;enable-background:new    ;}
	.st6{fill:#FFFFFF;}
</style>
<g>
	<g>
		<ellipse class="st0" cx="85.6" cy="90.2" rx="75.7" ry="75.7"/>
		<ellipse class="st1" cx="80.2" cy="84.6" rx="75.7" ry="75.7"/>
		<g class="st2">
			<g>
				<g>
					<path class="st0" d="M28.6,43.2c2.3,1.6,1.6,6.7-1.6,11.4s-7.7,7.2-10,5.6c-2.3-1.6-1.6-6.7,1.6-11.4S26.3,41.7,28.6,43.2z"/>
				</g>
				<g>
					<path class="st0" d="M38.5,32.4c1,0.9,0.3,3.4-1.6,5.6c-1.9,2.1-4.3,3.1-5.4,2.1c-1-0.9-0.3-3.4,1.6-5.6
						C35.1,32.4,37.5,31.5,38.5,32.4z"/>
				</g>
			</g>
		</g>
		<g>
			<g>
				<path class="st3" d="M121.9,55.4c0.6,0.4,1.2,0.8,1.7,1.3C123.1,56.2,122.5,55.8,121.9,55.4z"/>
				<path class="st3" d="M38.7,54.9c-0.6,0.4-1.1,0.8-1.6,1.3C37.5,55.7,38.1,55.3,38.7,54.9z"/>
			</g>
		</g>
		<path class="st4" d="M102.8,12.3c4.1,6.4,7.2,13.6,9.2,21.3c10.5,40.5-13.7,81.8-54.2,92.4c-14.2,3.7-28.6,3.1-41.7-1
			c17.1,27.2,50.4,41.4,83.2,32.9c40.5-10.5,64.7-51.9,54.2-92.4C146.7,39.3,126.9,19.9,102.8,12.3z"/>
		<path class="st1" d="M90.8,9.6c25,7.1,45.8,26.8,52.8,53.8c10.5,40.5-13.7,81.8-54.2,92.4c-10,2.6-20,3.1-29.7,1.7
			c12.5,3.5,26.1,3.9,39.5,0.4c40.5-10.5,64.7-51.9,54.2-92.4C145.6,35,120.2,13.8,90.8,9.6z"/>
	</g>
	<g class="st5">
		<path class="st0" d="M28.6,43.2c2.3,1.6,1.6,6.7-1.6,11.4s-7.7,7.2-10,5.6c-2.3-1.6-1.6-6.7,1.6-11.4
			C21.8,44.2,26.3,41.7,28.6,43.2z"/>
		<path class="st0" d="M38.5,32.4c1,0.9,0.3,3.4-1.6,5.6c-1.9,2.1-4.3,3.1-5.4,2.1c-1-0.9-0.3-3.4,1.6-5.6
			C35.1,32.4,37.5,31.5,38.5,32.4z"/>
	</g>
	<g>
		<path class="st6" d="M109.2,133.3c-9.9,6.4-16.7,6.5-25.2-1.4c-7.9-7.3-15.2-15.6-21.5-24.3c-9-12.5-15.2-26.6-18-41.9
			c-2.4-13.1,0.2-18.5,11.4-24.5c4.7,8,9.4,16.1,13.9,24.2c0.3,0.6-0.6,1.9-0.9,2.9c-1,3.9-3,7.9-2.6,11.6
			c1.1,9.2,5.5,17.2,12.2,23.8c3.9,3.8,8.4,6.4,14.2,5c0.9-0.2,2.5,0.6,3,1.4C100.2,117.7,104.6,125.4,109.2,133.3z"/>
		<path class="st6" d="M124.4,125.5c-0.7,0.8-1.4,2.1-2.5,2.9c-1.4,1.1-3.2,1.8-4.7,2.8c-3.5,2.4-5.9,1.6-7.9-2.1
			c-3.7-6.8-7.6-13.5-11.6-20.1c-2.1-3.6-1.7-6.1,2.2-7.9c1.6-0.8,3.1-2.3,4.7-2.6c1.6-0.3,4.3,0.1,5,1.2c4.9,7.8,9.4,15.9,14,23.9
			C124,123.9,124,124.4,124.4,125.5z"/>
		<path class="st6" d="M86.2,59.4c-1.2,1.1-2.3,2.4-3.8,3.3c-8.3,5.1-8.3,5.1-13.2-3.3c-3.3-5.7-6.5-11.5-10-17.1
			c-2.2-3.5-1.3-5.8,2.2-7.5c1.5-0.7,2.9-1.6,4.3-2.4c2.6-1.6,4.6-1.2,6.2,1.5c4.3,7.4,8.6,14.8,12.9,22.3
			C85.3,57,85.5,57.9,86.2,59.4z"/>
	</g>
</g>
</svg>
