<?xml version="1.0" encoding="utf-8"?>
<!-- Generator: Adobe Illustrator 23.0.6, SVG Export Plug-In . SVG Version: 6.00 Build 0)  -->
<svg version="1.1" id="Layer_1" xmlns="http://www.w3.org/2000/svg" xmlns:xlink="http://www.w3.org/1999/xlink" x="0px" y="0px"
	 viewBox="0 0 166.8 171.6" style="enable-background:new 0 0 166.8 171.6;" xml:space="preserve">
<style type="text/css">
	.st0{fill:#3B5998;}
	.st1{opacity:0.5;}
	.st2{fill:#1D3E77;}
	.st3{fill:#FFFFFF;}
	.st4{opacity:0.5;fill:#1D3E77;enable-background:new    ;}
</style>
<g>
	<ellipse class="st0" cx="85.6" cy="90.2" rx="75.7" ry="75.7"/>
	<ellipse class="st0" cx="80.2" cy="84.6" rx="75.7" ry="75.7"/>
	<g class="st1">
		<path class="st2" d="M28.6,43.2c2.3,1.6,1.6,6.7-1.6,11.4s-7.7,7.2-10,5.6c-2.3-1.6-1.6-6.7,1.6-11.4S26.3,41.7,28.6,43.2z"/>
		<path class="st2" d="M38.5,32.4c1,0.9,0.3,3.4-1.6,5.6c-1.9,2.1-4.3,3.1-5.4,2.1c-1-0.9-0.3-3.4,1.6-5.6
			C35.1,32.4,37.5,31.5,38.5,32.4z"/>
	</g>
	<path class="st3" d="M94.5,86.8h-9.2v33.6H71.4V86.8h-6.6V75h6.6v-7.6c0-5.5,2.6-14,14-14h10.3v11.5h-7.5c-1.2,0-2.9,0.6-2.9,3.2
		V75h10.4L94.5,86.8z"/>
	<path class="st4" d="M102.8,12.3c4.1,6.4,7.2,13.6,9.2,21.3c10.5,40.5-13.7,81.8-54.2,92.4c-14.2,3.7-28.6,3.1-41.7-1
		c17.1,27.2,50.4,41.4,83.2,32.9c40.5-10.5,64.7-51.9,54.2-92.4C146.7,39.3,126.9,19.9,102.8,12.3z"/>
	<path class="st4" d="M90.8,9.6c25,7.1,45.8,26.8,52.8,53.8c10.5,40.5-13.7,81.8-54.2,92.4c-10,2.6-20,3.1-29.7,1.7
		c12.5,3.5,26.1,3.9,39.5,0.4c40.5-10.5,64.7-51.9,54.2-92.4C145.6,35,120.2,13.8,90.8,9.6z"/>
</g>
</svg>
