<?xml version="1.0" encoding="utf-8"?>
<!-- Generator: Adobe Illustrator 23.0.6, SVG Export Plug-In . SVG Version: 6.00 Build 0)  -->
<svg version="1.1" id="Layer_1" xmlns="http://www.w3.org/2000/svg" xmlns:xlink="http://www.w3.org/1999/xlink" x="0px" y="0px"
	 viewBox="0 0 166.8 171.6" style="enable-background:new 0 0 166.8 171.6;" xml:space="preserve">
<style type="text/css">
	.st0{fill:#101F51;}
	.st1{fill:#FFFFFF;}
	.st2{fill:#A8CF4B;}
	.st3{fill:#E08B03;}
	.st4{fill:#F3A712;}
	.st5{opacity:0.3;fill:#2F2F2F;}
	.st6{fill:#EC1C24;}
	.st7{fill:#122129;}
	.st8{fill:none;stroke:#122129;}
	.st9{opacity:0.3;}
	.st10{fill:#00A551;}
	.st11{fill:#F6921E;}
	.st12{fill:#4C4C4C;}
	.st13{fill:#2F2F2F;}
	.st14{fill:#652D90;}
	.st15{opacity:0.68;}
	.st16{fill-rule:evenodd;clip-rule:evenodd;fill:#FFC0FB;}
	.st17{fill:url(#SVGID_1_);}
	.st18{opacity:0.5;fill:url(#SVGID_2_);}
	.st19{fill:url(#SVGID_3_);}
	.st20{fill:url(#SVGID_4_);}
	.st21{fill:url(#SVGID_5_);}
	.st22{opacity:0.5;}
	.st23{fill:url(#SVGID_6_);}
	.st24{fill:#88B704;}
	.st25{fill:url(#SVGID_7_);}
	.st26{fill:url(#SVGID_8_);}
	.st27{fill:url(#SVGID_9_);}
	.st28{fill:url(#SVGID_10_);}
	.st29{fill:url(#SVGID_11_);}
	.st30{fill:#FF0084;}
	.st31{fill:url(#SVGID_12_);}
	.st32{fill:url(#SVGID_13_);}
	.st33{fill:#7EB8E4;}
	.st34{fill:#006EC6;}
	.st35{fill:#DB3812;}
	.st36{fill:#E200A3;}
	.st37{fill:#FFB26A;}
	.st38{opacity:0.25;fill:#FF764C;}
	.st39{fill:#001466;}
	.st40{fill:#FF764C;}
	.st41{opacity:0.45;fill:#001466;}
	.st42{opacity:0.45;}
	.st43{opacity:0.45;fill:#0086CB;}
	.st44{opacity:0.71;}
	.st45{opacity:0.25;}
	.st46{opacity:0.6;fill:#FFB26A;}
	.st47{opacity:0.6;fill:url(#SVGID_14_);}
	.st48{fill:#E56248;}
	.st49{fill:#CFEAFF;}
	.st50{fill:#FF0080;}
	.st51{fill:#E4572E;}
	.st52{fill:url(#SVGID_15_);}
	.st53{fill:url(#SVGID_16_);}
	.st54{fill:url(#SVGID_17_);}
	.st55{fill:url(#SVGID_18_);}
	.st56{fill:url(#SVGID_19_);}
	.st57{fill:url(#SVGID_20_);}
	.st58{fill:url(#SVGID_21_);}
	.st59{fill:url(#SVGID_22_);}
	.st60{fill:url(#SVGID_23_);}
	.st61{fill:#3B5998;}
	.st62{fill:#1D3E77;}
	.st63{opacity:0.5;fill:#1D3E77;}
	.st64{fill:url(#SVGID_24_);}
	.st65{fill:url(#SVGID_25_);}
	.st66{opacity:0.5;fill:url(#SVGID_26_);}
	.st67{opacity:0.5;fill:url(#SVGID_27_);}
	.st68{fill:url(#SVGID_28_);}
	.st69{fill:#FAA919;}
	.st70{fill:#F43E67;}
	.st71{opacity:0.3;fill:#E08B03;}
	.st72{fill:#0086CB;}
	.st73{fill:#F9EC31;}
	.st74{fill:#37B34A;}
	.st75{fill:#15A44A;}
	.st76{fill:#FFF100;}
	.st77{fill:url(#SVGID_29_);}
	.st78{opacity:0.5;fill:url(#SVGID_30_);}
	.st79{fill:url(#SVGID_31_);}
	.st80{fill:url(#SVGID_32_);}
	.st81{fill:url(#SVGID_33_);}
	.st82{fill:url(#SVGID_34_);}
	.st83{fill:url(#SVGID_35_);}
	.st84{fill:url(#SVGID_36_);}
	.st85{fill:url(#SVGID_37_);}
	.st86{fill:url(#SVGID_38_);}
	.st87{fill:url(#SVGID_39_);}
	.st88{fill:url(#SVGID_40_);}
	.st89{fill:url(#SVGID_41_);}
	.st90{opacity:0.6;fill:url(#SVGID_42_);}
	.st91{fill:url(#SVGID_43_);}
	.st92{fill:url(#SVGID_44_);}
	.st93{fill:url(#SVGID_45_);}
	.st94{fill:url(#SVGID_46_);}
	.st95{fill:url(#SVGID_47_);}
	.st96{fill:url(#SVGID_48_);}
	.st97{fill:url(#SVGID_49_);}
	.st98{fill:url(#SVGID_50_);}
	.st99{fill:url(#SVGID_51_);}
	.st100{fill:#21B14B;}
	.st101{clip-path:url(#SVGID_55_);fill:#FAA919;}
</style>
<g>
	<linearGradient id="SVGID_1_" gradientUnits="userSpaceOnUse" x1="9.8208" y1="90.2139" x2="161.3198" y2="90.2139">
		<stop  offset="0" style="stop-color:#E09B3D"/>
		<stop  offset="0.3" style="stop-color:#C74C4D"/>
		<stop  offset="0.6" style="stop-color:#C21975"/>
		<stop  offset="1" style="stop-color:#7024C4"/>
	</linearGradient>
	<circle class="st17" cx="85.6" cy="90.2" r="75.7"/>
	<linearGradient id="SVGID_2_" gradientUnits="userSpaceOnUse" x1="4.4772" y1="84.6134" x2="155.9762" y2="84.6134">
		<stop  offset="0" style="stop-color:#E09B3D"/>
		<stop  offset="0.3" style="stop-color:#C74C4D"/>
		<stop  offset="0.6" style="stop-color:#C21975"/>
		<stop  offset="1" style="stop-color:#7024C4"/>
	</linearGradient>
	<circle style="fill:url(#SVGID_2_);" cx="80.2" cy="84.6" r="75.7"/>
	<g class="st9">
		<g>
			<g>
				<path class="st3" d="M28.6,43.2c2.3,1.6,1.6,6.7-1.6,11.4c-3.2,4.7-7.7,7.2-10,5.6c-2.3-1.6-1.6-6.7,1.6-11.4
					S26.3,41.7,28.6,43.2z"/>
			</g>
			<g>
				<path class="st3" d="M38.5,32.4c1,0.9,0.3,3.4-1.6,5.6c-1.9,2.1-4.3,3.1-5.4,2.1c-1-0.9-0.3-3.4,1.6-5.6
					C35.1,32.4,37.5,31.5,38.5,32.4z"/>
			</g>
		</g>
	</g>
	<linearGradient id="SVGID_3_" gradientUnits="userSpaceOnUse" x1="59.7711" y1="84.9842" x2="155.9762" y2="84.9842">
		<stop  offset="0" style="stop-color:#E09B3D"/>
		<stop  offset="0.3" style="stop-color:#C74C4D"/>
		<stop  offset="0.6" style="stop-color:#C21975"/>
		<stop  offset="1" style="stop-color:#7024C4"/>
	</linearGradient>
	<path style="opacity:0.5;fill:url(#SVGID_3_);" d="M90.8,9.6c25,7.1,45.8,26.8,52.8,53.8c10.5,40.5-13.7,81.8-54.2,92.4
		c-10,2.6-20,3.1-29.7,1.7c12.5,3.5,26.1,3.9,39.5,0.4c40.5-10.5,64.7-51.9,54.2-92.4C145.6,35,120.2,13.8,90.8,9.6z"/>
	<g>
		<path class="st1" d="M93.8,53H66.7c-11,0-20,9-20,20v27.2c0,11,9,20,20,20h27.2c11,0,20-9,20-20V73C113.9,62,104.9,53,93.8,53z
			 M107.1,100.2c0,7.3-5.9,13.3-13.3,13.3H66.7c-7.3,0-13.3-5.9-13.3-13.3V73c0-7.3,5.9-13.3,13.3-13.3h27.2
			c7.3,0,13.3,5.9,13.3,13.3L107.1,100.2L107.1,100.2z"/>
		<path class="st1" d="M80.3,69.2c-9.6,0-17.4,7.8-17.4,17.4S70.7,104,80.3,104s17.4-7.8,17.4-17.4S89.8,69.2,80.3,69.2z M80.3,97.2
			c-5.9,0-10.6-4.8-10.6-10.6c0-5.9,4.8-10.6,10.6-10.6c5.9,0,10.6,4.8,10.6,10.6C90.9,92.5,86.1,97.2,80.3,97.2z"/>
		<circle class="st1" cx="97.7" cy="69.4" r="4.2"/>
	</g>
	<linearGradient id="SVGID_4_" gradientUnits="userSpaceOnUse" x1="16.1648" y1="86.3459" x2="155.9762" y2="86.3459">
		<stop  offset="0" style="stop-color:#E09B3D"/>
		<stop  offset="0.3" style="stop-color:#C74C4D"/>
		<stop  offset="0.6" style="stop-color:#C21975"/>
		<stop  offset="1" style="stop-color:#7024C4"/>
	</linearGradient>
	<path style="opacity:0.5;fill:url(#SVGID_4_);" d="M102.8,12.3c4.1,6.4,7.2,13.6,9.2,21.3c10.5,40.5-13.7,81.8-54.2,92.4
		c-14.2,3.7-28.6,3.1-41.7-1c17.1,27.2,50.4,41.4,83.2,32.9c40.5-10.5,64.7-51.9,54.2-92.4C146.7,39.3,126.9,19.9,102.8,12.3z"/>
	<linearGradient id="SVGID_5_" gradientUnits="userSpaceOnUse" x1="59.7445" y1="84.9906" x2="155.9497" y2="84.9906">
		<stop  offset="0" style="stop-color:#E09B3D"/>
		<stop  offset="0.3" style="stop-color:#C74C4D"/>
		<stop  offset="0.6" style="stop-color:#C21975"/>
		<stop  offset="1" style="stop-color:#7024C4"/>
	</linearGradient>
	<path class="st21" d="M90.8,9.6c25,7.1,45.8,26.8,52.8,53.8c10.5,40.5-13.7,81.8-54.2,92.4c-10,2.6-20,3.1-29.7,1.7
		c12.5,3.5,26.1,3.9,39.5,0.4c40.5-10.5,64.7-51.9,54.2-92.4C145.5,35.1,120.1,13.8,90.8,9.6z"/>
</g>
</svg>
