<svg xmlns="http://www.w3.org/2000/svg" viewBox="0 0 35.18 52.8"><defs><style>.cls-1{fill:#fff;}</style></defs><g id="Layer_2" data-name="Layer 2"><g id="Layer_1-2" data-name="Layer 1"><path class="cls-1" d="M1.41,1A3.18,3.18,0,0,0,.34,5.07a3.36,3.36,0,0,0,4.59,1.1A3.28,3.28,0,0,0,6.11,1.39,3,3,0,0,0,1.39,1c-.08.09,0,.2.12.15a3.3,3.3,0,0,1,4,.92A2.53,2.53,0,0,1,4,5.79,2.53,2.53,0,0,1,.68,4.29,3.81,3.81,0,0,1,1.54,1.1C1.6,1,1.49.92,1.41,1Z"/><path class="cls-1" d="M1.31,5.82c0,15.25,1.38,30.61,2.47,45.82,0,.5.82.5.78,0C3.48,36.39,2.94,21,1.46,5.82c0-.09-.15-.09-.15,0Z"/><path class="cls-1" d="M4.42,52.71C5.3,37.1,5.49,21.43,6,5.81a.44.44,0,0,0-.88,0c-.32,15.62-.94,31.27-.86,46.9a.1.1,0,0,0,.2,0Z"/><path class="cls-1" d="M5.61,5.91A27.88,27.88,0,0,1,13.94,5c2.55.24,4.78,1.54,7.24,2.12A19,19,0,0,0,32.93,6c.54-.23.3-1.12-.25-.9C27.45,7.28,22.75,6.8,17.52,5c-4.06-1.41-8-.62-12,.62a.16.16,0,0,0,.09.3Z"/><path class="cls-1" d="M32.8,5.78a41.63,41.63,0,0,0-4,6.66c-.22.45.45.83.65.39,1.08-2.38,2.3-4.63,3.57-6.9a.14.14,0,0,0-.23-.15Z"/><path class="cls-1" d="M28.82,12.86A38,38,0,0,0,34.18,21c.34.42.93-.17.59-.59a81.69,81.69,0,0,1-5.68-7.67.15.15,0,0,0-.27.15Z"/><path class="cls-1" d="M5.21,24.13a12.71,12.71,0,0,1,5.9-1.92c2,0,3.36.76,5.17,1.48A21,21,0,0,0,23,25.17,16.59,16.59,0,0,0,35,21.07c.46-.42-.22-1.08-.68-.68a16.82,16.82,0,0,1-16.51,2.87c-2.22-.75-4.34-2.1-6.75-2s-4.2,1.38-6,2.67a.13.13,0,1,0,.13.22Z"/><path class="cls-1" d="M18.07,10.42c.07,2,.18,4,.28,6,0,.22.36.22.34,0-.11-2-.21-4-.36-6a.13.13,0,1,0-.26,0Z"/><path class="cls-1" d="M18.76,9.16c0,3.89.23,7.79.44,11.67,0,.36.58.36.56,0C19.48,17,19.32,13.05,19,9.16a.11.11,0,1,0-.21,0Z"/><path class="cls-1" d="M2.21,1.46a2,2,0,0,0-.87,2.42c.12.36.69.19.56-.15a1.91,1.91,0,0,1,.5-2c.13-.12,0-.33-.19-.24Z"/><path class="cls-1" d="M6.29,6.5c-.1,5.3-.09,10.62-.06,15.93a.11.11,0,1,0,.21,0c0-5.3,0-10.62-.05-15.93a.05.05,0,0,0-.1,0Z"/><path class="cls-1" d="M6.94,5.61q.13,8.06-.17,16.11c0,.13.19.13.2,0,.19-5.36.23-10.74.08-16.11,0-.06-.11-.06-.11,0Z"/><path class="cls-1" d="M8.08,5.78a140.71,140.71,0,0,0-.44,15.77.13.13,0,0,0,.25,0c-.08-5.27.16-10.5.29-15.77a.05.05,0,0,0-.1,0Z"/><path class="cls-1" d="M8.79,6c-.23,4.65-.21,9.33-.26,14a.13.13,0,0,0,.25,0c.07-4.65.23-9.33.12-14a.06.06,0,0,0-.11,0Z"/><path class="cls-1" d="M14,4.73c-.21,5.66-.44,11.33-.63,17,0,.13.19.13.19,0,.21-5.66.38-11.33.57-17a.07.07,0,0,0-.13,0Z"/><path class="cls-1" d="M15.43,5.08c-.36,5.37-.64,10.74-.8,16.11a.12.12,0,0,0,.23,0c.14-5.37.36-10.75.71-16.11,0-.09-.13-.09-.14,0Z"/><path class="cls-1" d="M16,6.5c0,4.78-.11,9.56-.4,14.34,0,.13.19.13.2,0,.22-4.78.35-9.55.33-14.34a.07.07,0,0,0-.13,0Z"/><path class="cls-1" d="M14.62,4.91c-.22,5-.36,10-.45,15,0,.14.22.14.23,0q.11-7.53.34-15a.06.06,0,1,0-.12,0Z"/><path class="cls-1" d="M16.85,6.67Q16.61,13.84,16.7,21a.09.09,0,1,0,.18,0c-.11-4.78-.08-9.55.07-14.34,0-.07-.1-.07-.1,0Z"/><path class="cls-1" d="M17.65,7q-.15,7.35.13,14.69c0,.12.19.12.18,0q-.3-7.34-.17-14.69a.07.07,0,0,0-.14,0Z"/><path class="cls-1" d="M19.74,7c0,2.9,0,5.79,0,8.68a.09.09,0,0,0,.18,0c0-2.89,0-5.78,0-8.68a.05.05,0,0,0-.1,0Z"/><path class="cls-1" d="M20.6,7.39c0,2.54,0,5.07,0,7.61,0,.11.19.11.19,0,0-2.54,0-5.07,0-7.61a.08.08,0,0,0-.15,0Z"/><path class="cls-1" d="M21.49,8.45a38.23,38.23,0,0,0,.14,5.13c0,.13.22.13.21,0a38.29,38.29,0,0,1-.22-5.13c0-.09-.12-.09-.13,0Z"/><path class="cls-1" d="M22.54,8.09a40,40,0,0,0-.2,5.13c0,.13.22.13.21,0a36.65,36.65,0,0,1,.16-5.13c0-.1-.16-.1-.17,0Z"/><path class="cls-1" d="M23.42,7.92c0,1.59,0,3.18,0,4.78a.1.1,0,0,0,.21,0c0-1.59,0-3.18,0-4.78a.09.09,0,0,0-.17,0Z"/><path class="cls-1" d="M24.5,7.56q0,2,0,4.08a.1.1,0,0,0,.2,0c0-1.36,0-2.72,0-4.08a.07.07,0,0,0-.13,0Z"/><path class="cls-1" d="M25.39,7.74c0,.88-.05,1.77,0,2.65,0,.11.17.11.18,0,0-.88,0-1.77,0-2.65a.07.07,0,0,0-.14,0Z"/><path class="cls-1" d="M26.27,7.56c0,.43,0,.85,0,1.28,0,.24-.1.63,0,.84s.35.15.37-.08c0,0,0-.07-.05-.08l0,0c-.11-.07-.21.11-.1.17a4.66,4.66,0,0,1,0-1.06v-1c0-.11-.16-.11-.16,0Z"/><path class="cls-1" d="M27.25,7.62c.26.35-.32.74,0,1.09.13.15.34.18.42,0a.08.08,0,0,0-.15,0,.16.16,0,0,1-.2-.1.27.27,0,0,1,0-.26A3,3,0,0,1,27.45,8a.43.43,0,0,0-.07-.41c-.06-.07-.18,0-.13.08Z"/><path class="cls-1" d="M28.28,8.52a.07.07,0,1,0,0-.14c-.08,0-.08.14,0,.14Z"/><path class="cls-1" d="M20.26,18.89a25.45,25.45,0,0,0,.17,4.62c0,.08.14.06.13,0a32.26,32.26,0,0,1-.18-4.61c0-.08-.12-.08-.12,0Z"/><path class="cls-1" d="M21.13,19.07c.11,1.54.24,3.07.34,4.61,0,.1.17.1.16,0-.14-1.53-.26-3.07-.39-4.61,0-.07-.12-.07-.11,0Z"/><path class="cls-1" d="M22,18.36c.12,1.9.22,3.78.36,5.67a.09.09,0,0,0,.17,0c-.11-1.89-.25-3.77-.38-5.67a.08.08,0,0,0-.15,0Z"/><path class="cls-1" d="M23.07,18.71c.11,1.78.21,3.54.34,5.31a.09.09,0,1,0,.18,0c-.11-1.77-.26-3.53-.38-5.31,0-.08-.15-.08-.14,0Z"/><path class="cls-1" d="M24,17.3q.33,3.11.64,6.2c0,.11.18.11.17,0l-.69-6.2c0-.07-.13-.08-.12,0Z"/><path class="cls-1" d="M25.19,17q.35,3.18.67,6.37c0,.14.24.14.22,0-.25-2.13-.5-4.25-.73-6.37,0-.1-.18-.11-.16,0Z"/><path class="cls-1" d="M26.08,16.41c.11,2.37.2,4.72.33,7.09,0,.12.21.12.2,0-.1-2.37-.25-4.72-.38-7.09a.08.08,0,0,0-.15,0Z"/><path class="cls-1" d="M26.79,16.26a48.61,48.61,0,0,1,.69,6.7.1.1,0,1,0,.19,0,48,48,0,0,0-.73-6.75c0-.09-.17-.05-.15.05Z"/><path class="cls-1" d="M27.89,15.52c.29,2.48.56,5,.87,7.43,0,.14.23.14.21,0-.29-2.48-.62-4.95-.93-7.43,0-.08-.16-.08-.15,0Z"/><path class="cls-1" d="M28.91,17c.22,1.89.44,3.77.67,5.66,0,.14.23.14.22,0-.25-1.89-.49-3.77-.73-5.66,0-.1-.18-.11-.16,0Z"/><path class="cls-1" d="M29.8,16.26c.28,2,.54,4,.82,6,0,.14.23.08.21-.06-.29-2-.6-4-.89-6,0-.09-.15-.06-.14,0Z"/><path class="cls-1" d="M30.55,17.31A35.48,35.48,0,0,1,31,21.9c0,.14.22.14.21,0a37.75,37.75,0,0,0-.52-4.62c0-.1-.15-.06-.14,0Z"/><path class="cls-1" d="M31.57,18A11.81,11.81,0,0,0,32,21.24a.11.11,0,0,0,.22-.06A11.82,11.82,0,0,1,31.74,18c0-.1-.17-.1-.17,0Z"/><path class="cls-1" d="M32.41,19.63l.36,1.6c0,.12.22.06.19-.05-.13-.53-.25-1.06-.38-1.59,0-.11-.19-.06-.17,0Z"/><path class="cls-1" d="M33.47,20c.06.53.11,1.06.16,1.59,0,.17.29.17.28,0-.07-.53-.13-1.06-.2-1.59,0-.16-.25-.16-.24,0Z"/></g></g></svg>