<svg xmlns="http://www.w3.org/2000/svg" viewBox="0 0 264.85 266.6"><defs><style>.cls-1,.cls-3{fill:#2f2f2f;}.cls-1{opacity:0.3;}.cls-2{fill:#652d90;}.cls-4{fill:#4c4c4c;}</style></defs><g id="Layer_2" data-name="Layer 2"><g id="Layer_1-2" data-name="Layer 1"><path class="cls-1" d="M256.25,67.57a22.48,22.48,0,0,0-16.62-5c-.4-3.19-3.83-6.46-6-8.45a25.71,25.71,0,0,0-11.8-5.95c-8-1.87-19,1-23.72,8.13a21.65,21.65,0,0,0-5.19-.92,15.53,15.53,0,0,0,4.17-6c2.21-5.26,1.72-12-.72-17.1A22.59,22.59,0,0,0,168,21,21.48,21.48,0,0,0,155.8,33.27c-2.34-.69-5.78,1.2-7.66,2.27-2.56,1.46-5.26,3.93-6.22,6.83a20.43,20.43,0,0,0-9.79,1.53,22.74,22.74,0,0,0-12.92,13.62c-.9-1.75-2.09-3.41-2.88-5.22a38.55,38.55,0,0,1-2.8-10.67c-.94-7.35,1.17-14.66.48-22a9.37,9.37,0,0,0,0-1.07,1.1,1.1,0,0,0-1.38-1.05c-8.13,2.77-9.94,12.33-9,19.85.64,5.25,2.44,10.28,3.34,15.48.93,5.36-.24,9.73-1.74,14.65l-.36-.33c-5.73-4.81-13.31-6.07-20.5-4.6a24.18,24.18,0,0,0-13.84,9.11,18.41,18.41,0,0,0-16.72-1.45c-2.66,1-8.45,4.81-8.93,8.41a28,28,0,0,0-17.43,16A23.48,23.48,0,0,0,31.21,119a17.79,17.79,0,0,0,6.1,4.47c-7,4.23-9.52,14.3-6,21.63a17.82,17.82,0,0,0,9.86,9.4c2.8,1,7,1.76,10.39.91-7.14,7-10.68,16.67-6.94,26.81A22,22,0,0,0,58.8,195.6a14.11,14.11,0,0,0-6.6,5.84c-2.89-8.52-13.56-11.53-21.76-9.91-10.09,2-19.16,11.64-20.47,21.82-1.35,10.5,5.46,18.76,15.52,21.08a21.4,21.4,0,0,0,9.22,0A21.75,21.75,0,0,0,32,252.09c2.07,8,9.4,13.14,17.3,14.29a20.39,20.39,0,0,0,20-9,23.66,23.66,0,0,0,3.4-9.16,24.74,24.74,0,0,0,15,11.73c7.71,2.19,16.9-.49,21.63-7.09a23.94,23.94,0,0,0,2.9-22.23,32.49,32.49,0,0,0,7.59,4.37c8.43,3.5,19,3.34,26.51-2.22,4.51-3.33,8.72-11.17,6.82-17.05a17.57,17.57,0,0,0,10.85-1,21.7,21.7,0,0,0,3.06-1.72.21.21,0,0,0,.2-.14,21.49,21.49,0,0,0,5.32-5,1.74,1.74,0,0,0,.1.19.23.23,0,0,0,.41-.18c0-.19-.1-.38-.15-.57a21.91,21.91,0,0,0,3.69-9.51,28.26,28.26,0,0,0-2.71-16.31,17.88,17.88,0,0,0-1.5-12.06,22.5,22.5,0,0,0,10,3c12.06.68,21.76-10,22.35-21.46s-7-23.37-17.51-27.95a17,17,0,0,0,3.32-1.15,22.52,22.52,0,0,0,4.26-2.48,23.88,23.88,0,0,0,3.09,7.83,22.64,22.64,0,0,0,1.35,1.92l-.76.62a.13.13,0,0,0,.16.21l.82-.53a21.22,21.22,0,0,0,4.13,3.92.1.1,0,0,0,.09.07,22.21,22.21,0,0,0,8.07,3.6.76.76,0,0,0,.09.09.18.18,0,0,0,.27,0A24.24,24.24,0,0,0,234,130.81c6.81-6.68,8.06-16.41,4.94-24.59,9.48,2.36,18.93-2,23.57-11C267.42,85.66,264.25,74.24,256.25,67.57ZM207.8,90.75a16.22,16.22,0,0,0,2.94,1.67A21.68,21.68,0,0,0,203,96.89a4.78,4.78,0,0,0-.67-1.09A23.47,23.47,0,0,0,207.8,90.75ZM95.87,213.89c0-.38,0-.76,0-1.14a19.56,19.56,0,0,0-2.39-8.49,24.66,24.66,0,0,1,1.32-2.68,28.09,28.09,0,0,1,3.11-4.2,25.25,25.25,0,0,0,12.66.26l-.23.31a16,16,0,0,0-5.16,5.53,17.83,17.83,0,0,0-2.3,11.69,22.19,22.19,0,0,0,.71,3.2C101.36,216.26,98.48,214,95.87,213.89Z"/><path class="cls-2" d="M211.46,32.79a23.77,23.77,0,0,1,10.65,5.56c2.26,1.94,3.48,4.91,5.39,7a26,26,0,0,0-10.36,4.47C210,55,205.27,66.81,211.59,74a23,23,0,0,0-7.18,0,9.49,9.49,0,0,0-2.51-.83,12.17,12.17,0,0,1-2.16-.94c-.24-.13-.47-.28-.69-.42,5.5-7.73,4.95-18.53-.87-26.25a19.15,19.15,0,0,0-8.67-6.43C196.26,34.45,202.84,31.1,211.46,32.79Z"/><path class="cls-2" d="M195.48,46.4c6.06,6.58,6.16,16.51,1.44,23.66h0a11.64,11.64,0,0,1-.72,1.25c-1.06,1.64-2.49,3.7-4.52,4.14h-.07c-6.24,4.22-15.26,5.56-20.5-.34A19.42,19.42,0,0,0,165,66.85c-.59-3.3-1.69-6.28-1.52-9.82a16.85,16.85,0,0,1,1.24-5.55,1.07,1.07,0,0,0,.2-.48,19.35,19.35,0,0,1,5-6.75C177.34,37.78,189.14,39.52,195.48,46.4Z"/><path class="cls-2" d="M126.22,147.52c-2.21-.52-4.11-1.88-6.18-2.66,0-.36,0-.73,0-1.1-.27-7.07-4.39-14.62-8.69-20a20,20,0,0,0-3.65-3.53,12.93,12.93,0,0,0,.22-1.86l.27.1a24,24,0,0,0,26.8-8.54c5.32,1.9,9.8,4,13.24,8.92,3.81,5.47,3.78,12.46,1.16,18.39A18.92,18.92,0,0,1,136.13,148,21.58,21.58,0,0,1,126.22,147.52Z"/><path class="cls-2" d="M131.81,151a22.18,22.18,0,0,0-8.06,6.09c-.14.17-.27.35-.41.53-.2-.4-.41-.77-.5-1-1-2.44-.28-4.85.47-7.22A24,24,0,0,0,131.81,151Z"/><path class="cls-2" d="M122,159.49a17.62,17.62,0,0,0-2.22,5.8,20,20,0,0,0-.62,8.44c-1.88-.86-4.48-.63-6.84,0a21.24,21.24,0,0,0,2.71-3.48c2.27-3.64,3.1-9.7.2-13.24a18.13,18.13,0,0,0,4.59-9.8,10.05,10.05,0,0,0,2.37,1.69C119.54,151.41,119.54,156.79,122,159.49Z"/><path class="cls-2" d="M83.15,178.44a.71.71,0,0,0,.26-.53c.85.45,1.67.84,2.43,1.16l.68.27a11.19,11.19,0,0,0-2.91,3.17,12.25,12.25,0,0,0-1.16,2.25,26,26,0,0,0-3-3.67A27.24,27.24,0,0,0,83.15,178.44Z"/><path class="cls-2" d="M78.36,180.08a20.84,20.84,0,0,0-8.51-4.55,24.57,24.57,0,0,0,5.4-5c1.23,2.71,4,5,6.81,6.62A27.13,27.13,0,0,0,78.36,180.08Z"/><path class="cls-2" d="M99.18,177.71a22.12,22.12,0,0,1-14.11-1.84c-3.54-1.65-5.73-4.69-8.68-6.88a23.11,23.11,0,0,0,4.18-13.32,29.63,29.63,0,0,0,10.06,6.65,22.52,22.52,0,0,0,23-3.74c.73,4,.88,7.25-1.58,11.16C109.27,174.14,104.06,176.6,99.18,177.71Z"/><path class="cls-2" d="M137.26,94.37c.49,14.42-12.58,24.29-26.31,21.74-6.85-1.27-12.12-6-15.11-12.17a20.29,20.29,0,0,1-2-9.46c1.1-9.48,6.64-18.07,16.72-20.56C123.9,70.6,136.8,80.94,137.26,94.37Z"/><path class="cls-2" d="M114,70.59a21.48,21.48,0,0,1,1.31-3.18,24.09,24.09,0,0,1,1.89-2.8c3.76,3,8.3,4.86,12.49,3.81a35,35,0,0,0-4.48,4.22A26,26,0,0,0,114,70.59Z"/><path class="cls-2" d="M106.11,117.65v0a14.85,14.85,0,0,0,0,1.49,21.44,21.44,0,0,0-6.83-2.68c-1.1-2.29-2.93-4.18-4.31-6.3a15.73,15.73,0,0,1-2.26-6.66A25.9,25.9,0,0,0,106.11,117.65Z"/><path class="cls-2" d="M97.51,116.17a24.26,24.26,0,0,0-4.9-.15c-.3,0-.6.06-.91.1a6.81,6.81,0,0,0-1.94-3.93c.18-.42.36-.83.52-1.25a23.75,23.75,0,0,0,1.12-3.88A19.45,19.45,0,0,0,97.51,116.17Z"/><path class="cls-2" d="M89,113.86c.27.31.56.6.83.88a9.31,9.31,0,0,1,1.11,1.49,19,19,0,0,0-4,1.13A29.88,29.88,0,0,0,89,113.86Z"/><path class="cls-2" d="M76.69,123a21.24,21.24,0,0,1-18.26,1.49c-7.06-2.48-11.15-8.72-12.61-15.78-3-14.64,6.32-29.76,21.91-30.12,10.07-.23,17.64,6.54,20.85,15.16C90.44,104.94,87.05,116.69,76.69,123Z"/><path class="cls-2" d="M64.94,128.84a22.64,22.64,0,0,0,10.39-1.93c.42-.18.82-.37,1.23-.58a19.61,19.61,0,0,0-2.67,8.17,16.36,16.36,0,0,0-7.21-5,13.15,13.15,0,0,0-1.77-.52Z"/><path class="cls-2" d="M92.61,118.39c13.58-1.66,22.18,11.47,24.65,23.17,1.43,6.73-1.81,13.06-7.36,16.77s-12.59,3.43-18.54,1.33c-9-3.2-14.89-12.51-15.64-22C76.42,128.15,82.14,119.67,92.61,118.39Z"/><path class="cls-2" d="M151.66,138.56c.21-.45.4-.89.58-1.34.36,4,3.06,8,5.59,10.86a19.72,19.72,0,0,0,2.2,2.09A24.72,24.72,0,0,1,162.36,161a26.41,26.41,0,0,0-19-11.89q-1-.1-1.92-.12A22.15,22.15,0,0,0,151.66,138.56Z"/><path class="cls-2" d="M150.77,118.8c0-.07-.07-.14-.11-.2-2.83-4.93-8.72-9.63-14.67-10.11a26.09,26.09,0,0,0,1.4-2.41,27,27,0,0,0,20.43-1.54,7.65,7.65,0,0,0,2.64,1.13C155.12,108.16,151,112.82,150.77,118.8Z"/><path class="cls-2" d="M138.21,104.33a25.84,25.84,0,0,0,1.92-7.9C141,86,135,77.33,126.41,73.19c6.69-5,14.07-9.27,22.66-9.4s17,4.84,19.77,13c2.66,7.82-.87,16.67-6.77,22C155.49,104.65,146.52,105.2,138.21,104.33Z"/><path class="cls-2" d="M152.31,48.3a25.23,25.23,0,0,0-.86-7.83c4,3.83,9.19,6.23,14.14,4.78a20.68,20.68,0,0,0-2.67,4.6A83.23,83.23,0,0,0,152.31,48.3Z"/><path class="cls-2" d="M162.28,51.52c-.24.69-.44,1.39-.61,2.1a16.13,16.13,0,0,0-.33,1.83c-1.59-1.23-3.87-1.53-5.77-2a33.67,33.67,0,0,0-3.81-1,25.27,25.27,0,0,0,.49-3.27A81,81,0,0,0,162.28,51.52Z"/><path class="cls-2" d="M155,55.55c1.95.4,4.25,1.12,6.24.63A18,18,0,0,0,162.36,65a24.91,24.91,0,0,0-10.15-3.47,28.05,28.05,0,0,0-5.34-.06,15.39,15.39,0,0,0,4.23-6.64A29.46,29.46,0,0,0,155,55.55Z"/><path class="cls-2" d="M157.26,6.65c8.07-4.66,18.64-1.82,24.53,4.9,6.39,7.29,6.68,22.39-3.32,26.42a.58.58,0,0,0-.23.17,22.53,22.53,0,0,0-8.1,3A16.33,16.33,0,0,0,167,43.63c-8.8,1.7-17-6.14-19.52-14.06C144.61,20.6,149.41,11.18,157.26,6.65Z"/><path class="cls-2" d="M139.41,19.87a16.62,16.62,0,0,1,4.18-1.73c.64-.18,1.19-.23,1.71-.34a22.81,22.81,0,0,0-.21,12.43l.09.3a22.64,22.64,0,0,0-11.32-5.45A26,26,0,0,1,139.41,19.87Z"/><path class="cls-2" d="M122.62,28.88c9.44-4.53,19.87.07,25,8.61a18.84,18.84,0,0,1,2,14.23c-1.11,4.54-4.11,7.84-7.66,10.55a32.14,32.14,0,0,0-7.89,3.18.31.31,0,0,0-.23,0c-10,5.07-20-4.85-22.58-13.82C108.49,42.07,114.05,33,122.62,28.88Z"/><path class="cls-2" d="M98.47,29.77c-2.1-8.95-5.34-20.9,3.62-26.81a10.24,10.24,0,0,1-1.3,4.66C100,9.2,98.46,10,97.59,11.48a.3.3,0,0,0,.26.44,5,5,0,0,0,3.51-1.72,51.66,51.66,0,0,0,.07,15.42c.78,4.93,2.79,12.86,7.56,15.8a22.28,22.28,0,0,0,.57,12.81,23.74,23.74,0,0,0,6.35,9.27c-2.34,1.34-3.48,4.46-3.26,7.19l-.56,0c-9.49,1.09-17.6,9-19.93,18.1a19,19,0,0,0-1,4.36,22.87,22.87,0,0,0-2.92-6.3c11-8.28,22-24.5,14.27-38.15a.68.68,0,0,0-1.16,0c-.82,1.65-1.67,3.28-2.52,4.92a27.9,27.9,0,0,0-2.75-3C101.81,46.13,99.88,35.77,98.47,29.77Z"/><path class="cls-2" d="M102.51,60.06a21.72,21.72,0,0,0-2.93-5.47.57.57,0,0,0,.34-.28c.62-1.17,1.25-2.33,1.88-3.5A24.81,24.81,0,0,1,102.51,60.06Z"/><path class="cls-2" d="M74.13,47.73A21.66,21.66,0,0,1,92.69,51c4.76,3.3,7.12,8.15,9,13.3a30.82,30.82,0,0,1-1.94,5.23c-3,6.26-8.13,10.83-12.41,16.12a25.68,25.68,0,0,0-18.5-10,22.12,22.12,0,0,0-9.66,1.5c-1.14-5.61-1.53-10.73.42-16.34C61.92,54.23,67.62,49.69,74.13,47.73Z"/><path class="cls-2" d="M37.7,60.39a18.37,18.37,0,0,1,6.12-5.2c4.89-2.62,10.86-1.68,15.45,1.06a24.15,24.15,0,0,0-3.61,9.64c-4-4.66-10.62-6.65-16.92-5.61-.37.06-.74.15-1.12.22A1,1,0,0,0,37.7,60.39Z"/><path class="cls-2" d="M23.08,99.85c-5.82-6.07-6-15.48-2.77-22.79A25.88,25.88,0,0,1,37,63.08c6.63-1.84,13.47.55,18.46,5a17.72,17.72,0,0,0,2.45,9.58,28.1,28.1,0,0,0-8.58,6c-5.3,5.47-7.17,13.29-6.89,20.76C35.22,105.91,28.65,105.65,23.08,99.85Z"/><path class="cls-2" d="M41.47,135.33a16,16,0,0,1-7.28,0c-4.51-.89-8-4-10.2-7.93-4.33-7.64-.48-15.39,5.32-20.67,4.47,1.55,9.49,1.58,13.22-1,0,.68.11,1.36.19,2a24,24,0,0,0,20.46,20.88v0c-5.12-.53-10.44,1.57-14.73,4.12a35.39,35.39,0,0,0-3.13,2.08.49.49,0,0,0-.3-.1A10.52,10.52,0,0,0,41.47,135.33Z"/><path class="cls-2" d="M38.17,165.63c-5.58-10.32-.46-21,7.79-27.84,4.6-3.83,10.2-6.54,16.26-6.53,5.37,0,9.23,3.52,11.72,7.83A23.3,23.3,0,0,0,76,149a21.37,21.37,0,0,0,2.56,4.33c-.69,9.32-4.64,18-13.91,21.83l-.29.11c-.26,0-.51.1-.77.17a.52.52,0,0,0-.27.21A21.12,21.12,0,0,1,38.17,165.63Z"/><path class="cls-2" d="M51.58,178.78a25.92,25.92,0,0,0,12.77-.59,21.34,21.34,0,0,0,2.55-1,17.35,17.35,0,0,1,3.36,1.05,29.15,29.15,0,0,1,6,3.55,19.56,19.56,0,0,1,7,11.73c2.07,10.49-5.58,20.63-15.51,23.12s-20-3.06-24.32-12.11C38.77,194.94,42.14,183.34,51.58,178.78Z"/><path class="cls-2" d="M19.17,214.76A16.66,16.66,0,0,1,2.58,198c.17-9.46,8-17.63,16.43-20.8,9-3.39,17.7.43,22.61,8.07-.17.3-.33.6-.48.91-2.46,5-2.34,11-.9,16.28.11.42.24.83.38,1.24C34.34,209.48,28.39,215,19.17,214.76Z"/><path class="cls-2" d="M57.83,237.81c-3.69,6.76-11.34,9.63-18.71,8.57-14.62-2.09-19.48-18.93-12-30.07a25.2,25.2,0,0,0,14.23-10.76,23.9,23.9,0,0,0,17.6,13.82c.49,3,1.56,5.6,1.58,8.74A20.28,20.28,0,0,1,57.83,237.81Z"/><path class="cls-2" d="M98.7,231.39c-3.82,7.49-12.31,10.18-20.18,8.6-6.56-1.31-11.63-6.21-15.41-11.54a14.33,14.33,0,0,0-1.88-8.79,22.69,22.69,0,0,0,5-.17A23.15,23.15,0,0,0,86,198.36c1.52,1.54,3.76,2.53,5.42,3.87a30.08,30.08,0,0,1,6.94,8.29A22.09,22.09,0,0,1,98.7,231.39Z"/><path class="cls-2" d="M140.2,205.06a15.78,15.78,0,0,1-7,9.1c-6.3,4.1-14.69,3.38-21.49,1.12A24,24,0,0,1,96,199.37a17,17,0,0,1,1.31-12.27c1.46-3,4.14-4.4,6-6.9.74-.56,1.49-1.12,2.26-1.65a22,22,0,0,0,2.93-1.62c.26-.12.51-.24.79-.34a22.21,22.21,0,0,1,6.1-1.08c1.47-.08,2.73.24,4.1-.14,1.53,7.48,7,13.3,12.89,17.76a29.42,29.42,0,0,0,7.87,4.28C140.45,200,140.89,202.32,140.2,205.06Z"/><path class="cls-2" d="M164.12,177.91a19.56,19.56,0,0,1-9.44,15.87c-6.53,4-14,1.5-19.87-2.34-7.11-4.65-13.43-13.21-13.77-21.73A24,24,0,0,1,125,159.32c3.81-5.63,10.71-8,17.23-7.8C155.8,151.85,164.64,165.34,164.12,177.91Z"/><path class="cls-2" d="M192.09,133.44c0,10.42-9.47,18.54-19.48,18.65-4.92.06-9.5-2.53-12.93-5.86-3.66-3.54-4.44-7.9-6.37-12.33a.36.36,0,0,0-.07-.1,21.47,21.47,0,0,0-1-11.79c.77-12.23,11.75-18.57,23.08-14.87C185.9,110.58,192,123,192.09,133.44Z"/><path class="cls-2" d="M184.62,98.83l-.07.07a19.23,19.23,0,0,1-4.23,3.11c-1.82,1-4.7,1.11-6.48,2.23l-.09,0a19.79,19.79,0,0,0-10,.26c-.72-.15-1.5-.18-2.19-.34a6.51,6.51,0,0,1-1.71-.65c8-4.76,13.52-13.41,12.39-23.44,3.28,4,11.93,2.39,15.81.71A27.24,27.24,0,0,0,191.4,79a4.21,4.21,0,0,0,.87,1.23,19.87,19.87,0,0,0-2.38,2.94A21.85,21.85,0,0,0,184.62,98.83Z"/><path class="cls-2" d="M222.13,111.26c-8.82,9.62-24.52,7.25-31.57-3-4.84-7-4.27-16-.09-22.88,6.07-8.1,16.29-11.7,26.16-7.07C229.34,84.28,231.13,101.44,222.13,111.26Z"/><path class="cls-2" d="M250.37,76.34c-3.63,8-13.41,12.22-21.93,10.78a23.43,23.43,0,0,0-9.53-10.52,21,21,0,0,0-5.5-2.2C208.17,65.74,212,56,220.26,50.65a21.27,21.27,0,0,1,25.18,1.89C252.41,58.41,254,68.2,250.37,76.34Z"/><path class="cls-3" d="M110.33,117.32c-1.82-2.31-4-4.28-5.82-6.63a77,77,0,0,1-4.53-6.93.11.11,0,0,0-.2.11,39.8,39.8,0,0,0,4.52,7.68,41.88,41.88,0,0,0,3.52,4.35,14.88,14.88,0,0,0-1.25,1.12c-.58.56-1.17,1.11-1.7,1.71-.09.1,0,.29.15.2.52-.4,1-.84,1.5-1.28a16.82,16.82,0,0,0,1.56-1.48,16,16,0,0,0,1.89,1.62C110.27,118,110.52,117.56,110.33,117.32Z"/><path class="cls-3" d="M110.53,111.85c-1.87-2.29-3.74-4.61-5.75-6.78-.08-.08-.23,0-.16.13,1.54,2.26,3.25,4.43,4.92,6.59,1.56,2,3.12,4.9,5.26,6.3.14.09.36-.06.29-.23C114.25,115.62,112,113.68,110.53,111.85Z"/><path class="cls-3" d="M115.5,111.58c-1.61-2-3.26-4-4.9-6-.12-.14-.37,0-.26.2,1.37,1.92,2.75,3.83,4.13,5.75,1.18,1.65,2.37,4,4.09,5.08a.23.23,0,0,0,.33-.25C118.31,114.54,116.65,113,115.5,111.58Z"/><path class="cls-3" d="M124.9,109.59c-1.09-1.37-2.23-2.7-3.35-4-.12-.14-.37,0-.26.21,1,1.43,2,2.87,3,4.29.78,1.07,1.52,2.61,2.74,3.2a.15.15,0,0,0,.22-.18C127,111.77,125.7,110.6,124.9,109.59Z"/><path class="cls-3" d="M131.86,109.13a5.73,5.73,0,0,0-.23-.7.23.23,0,0,0-.3-.14c-.53-.8-1.1-1.59-1.65-2.38a17.64,17.64,0,0,0-2.35-3c-.11-.1-.32,0-.26.15a15.87,15.87,0,0,0,1.6,2.91c.74,1.19,1.46,2.41,2.28,3.55C131.26,110,132,109.7,131.86,109.13Z"/><path class="cls-3" d="M133.59,101.18a27.18,27.18,0,0,0-2-2.14c-.15-.14-.41,0-.29.23a24,24,0,0,0,1.62,2.17c.42.55,1,1.73,1.75,1.75a.19.19,0,0,0,.19-.19C135,102.28,134,101.66,133.59,101.18Z"/><path class="cls-3" d="M138.29,95.09a2.31,2.31,0,0,0-.8-.48c-.33-.15-.64-.33-1-.45-.15-.06-.28.17-.16.27.29.22.6.4.9.59a2.21,2.21,0,0,0,.89.45C138.35,95.49,138.39,95.22,138.29,95.09Z"/><path class="cls-3" d="M151.09,49.25a14.19,14.19,0,0,1-.78-1.23c-.08-.12-.3,0-.25.11s0,.08,0,.12c-1-1-2-2-3-3-.2-.2-.51.11-.31.32,1.28,1.38,2.54,2.79,3.82,4.17C150.92,50,151.34,49.57,151.09,49.25Z"/><path class="cls-3" d="M149.85,43.83l-1-1.57a.15.15,0,0,0-.25.15l1,1.6a6.84,6.84,0,0,0,.92,1.39c.09.1.28,0,.23-.13A7,7,0,0,0,149.85,43.83Z"/><path class="cls-3" d="M168.78,37.74c-1.49-1.81-3-3.61-4.47-5.42-.14-.17-.44.06-.3.23l4.25,5.59c1.08,1.43,2.17,3.42,3.7,4.39a.16.16,0,0,0,.23-.18C171.59,40.61,169.94,39.15,168.78,37.74Z"/><path class="cls-3" d="M175.35,36c-1-1.3-2-2.62-3-3.94-.14-.2-.48,0-.34.2.87,1.22,1.73,2.44,2.58,3.68a10.78,10.78,0,0,0,2.19,2.85c.13.1.32-.06.28-.21A9.09,9.09,0,0,0,175.35,36Z"/><path class="cls-3" d="M182.86,36.17a22.2,22.2,0,0,0-2.24-2.41l-2.51-2.6c-.11-.12-.27.05-.17.16L180,33.8a24.9,24.9,0,0,0,2.36,2.76C182.62,36.78,183.08,36.48,182.86,36.17Z"/><path class="cls-3" d="M185.35,30.24l-.68-.9c-.23-.3-.73,0-.5.29l.68.9a3.3,3.3,0,0,0,.73.84.24.24,0,0,0,.36-.27A3.14,3.14,0,0,0,185.35,30.24Z"/><path class="cls-4" d="M162.28,44.93a8.83,8.83,0,0,0-.59-.91c-.05-.06-.15,0-.11.07a7.16,7.16,0,0,0,.6.91C162.23,45.06,162.3,45,162.28,44.93Z"/><path class="cls-3" d="M65,76.87A16,16,0,0,0,62.27,74a32.19,32.19,0,0,0-2.93-2.68c-.09-.07-.22.06-.16.15a35.51,35.51,0,0,0,2.68,2.94,15.29,15.29,0,0,0,2.91,2.72A.16.16,0,0,0,65,76.87Z"/><path class="cls-3" d="M72.73,77.15a16.47,16.47,0,0,0-3.45-3,13.58,13.58,0,0,0-3.36-2.4.09.09,0,0,0-.1.13,13.23,13.23,0,0,0,2.93,2.8,16.59,16.59,0,0,0,3.64,2.85C72.6,77.58,72.89,77.38,72.73,77.15Z"/><path class="cls-4" d="M103.14,67.54c-1.32-2.13-3.75-3.89-5.58-5.61-2.08-2-4.13-4-6.24-5.88a.15.15,0,0,0-.21.21c2,2.07,4,4.09,6,6.13,1.75,1.8,3.56,4.21,5.72,5.49A.25.25,0,0,0,103.14,67.54Z"/><path class="cls-3" d="M168.44,45.63l-.2-.27,0,0c-1.51-2-3.22-3.89-4.81-5.85A12.85,12.85,0,0,0,166.26,37a.2.2,0,0,0-.24-.32,23.33,23.33,0,0,0-3.2,2c-.22-.28-.44-.54-.65-.83-2-2.68-3.68-5.52-5.52-8.28a.11.11,0,0,0-.19.11,53,53,0,0,0,5,8.59l.64.92c-.52.36-1,.72-1.57,1s-.92.56-1.39.83c-3.81-4.49-7.29-9.14-10.79-13.9a.11.11,0,0,0-.19.11,78.25,78.25,0,0,0,10.24,14.2l-.55.3.27-.29a.14.14,0,0,0-.17-.21,11.63,11.63,0,0,0-2.24,1.52l-.19.06a31.73,31.73,0,0,0-2.45-2.34.17.17,0,0,0-.26.21l.23.5c0,.06.12,0,.12,0,0,.48,1,1.37,1.62,1.94l-.1.29a.25.25,0,0,0,0,.17,5.49,5.49,0,0,0-1.93,1.83.09.09,0,0,0,.1.13A7.09,7.09,0,0,0,155.31,44l.12-.09,2,2.27c-.9.72-1.78,1.47-2.67,2.19L154,49c-.72-.72-1.44-1.44-2.18-2.13a.19.19,0,0,0-.27.26c.64.77,1.29,1.52,1.95,2.26l-1,.78a6.17,6.17,0,0,0-.78-.83c-.07-.07-.23,0-.18.1a6.33,6.33,0,0,0,.56,1.06c-.94.77-1.86,1.56-2.72,2.4a.17.17,0,0,0,.21.27c1-.63,2-1.34,2.9-2.06.2.29.4.57.59.86a17.55,17.55,0,0,0,1.09,1.61l-1.11,1a5.86,5.86,0,0,0-1.34-.64c-.06,0-.11.06-.08.11a6.69,6.69,0,0,0,.78,1.1c-1,.91-2,1.82-3.05,2.74-.33-.36-.68-.7-1-1h0a.34.34,0,0,0,.07-.32,5,5,0,0,1-.26-.83.15.15,0,0,0-.23-.09A28.49,28.49,0,0,0,142,49.09c-.17-.15-.42.1-.25.25a34.19,34.19,0,0,1,3.12,3.36c1.08,1.32,1.88,2.84,3,4.15a.33.33,0,0,0,.45,0v0c.27.41.57.81.88,1.2q-2,1.8-3.89,3.63a.24.24,0,0,0,0-.12l-.09-.88a.16.16,0,0,0-.32,0v0A24.28,24.28,0,0,0,143,57.62c.78-.65,1.56-1.31,2.31-2,.16-.15-.06-.44-.25-.32-.83.56-1.64,1.15-2.45,1.74a39.37,39.37,0,0,0-4.53-5.18c-.16-.15-.4.08-.24.24A30.26,30.26,0,0,1,142,57.48c-1.4,1.06-2.77,2.15-4.15,3.24a48.22,48.22,0,0,0-6-7c-.15-.16-.37.07-.23.23q1.56,1.86,2.95,3.79c-1.14.73-2.24,1.53-3.32,2.36q-1.81-2.64-3.7-5.21c-.11-.14-.35,0-.25.15,1.07,1.83,2.19,3.62,3.32,5.42a.56.56,0,0,1,0,.08l-1.91,1.48c-.49.39-1,.78-1.5,1.16-.84-1.24-1.69-2.49-2.52-3.74a15.34,15.34,0,0,0,1.92-1.95c.09-.11,0-.29-.15-.21-.75.48-1.47,1-2.18,1.55-1.25-1.88-2.5-3.77-3.73-5.68a.12.12,0,0,0-.2.12c1,2,2.09,4.07,3.25,6.07-.86.65-1.72,1.31-2.64,1.88l-.11.07c-1-1.34-2.14-2.64-3.13-3.93-2-2.56-3.87-5.16-5.93-7.63-.05-.06-.14,0-.1.08,1.87,2.88,3.92,5.66,5.91,8.46.81,1.13,1.59,2.33,2.4,3.51-1,.58-2,1.1-3.08,1.59,0,0,0,0,0,0a2.8,2.8,0,0,0-.76-1.26c-.36-.48-.73-1-1.09-1.44-.14-.18-.45,0-.32.19.34.49.66,1,1,1.49s.51.95.94,1.16h0l-.91.41a.15.15,0,0,0-.2.09l-1.21.53s0,.08,0,.07c.41-.11.83-.24,1.25-.37l1.66,1.92-1.18,1-.71.59c-.31-.2-.61-.39-.93-.56-.21-.69-1.07-1.12-1.61-1.55l-2.49-2c-.26-.21-.63.15-.37.37l2.43,2.07a5.39,5.39,0,0,0,1.67,1.3l.9.71-.6.49-.83.73c-.27.23-1.07,1.35-.86.18,0-.07-.1-.11-.11,0,0,.24-.12.46-.18.69a8.25,8.25,0,0,0-1-.86l.42-.47a.21.21,0,0,0-.3-.3l-.5.47c-.18-.14-.36-.28-.51-.42-.43-.37-.84-.75-1.26-1.13.56-.58,1.11-1.18,1.61-1.8.12-.14,0-.39-.21-.27a16,16,0,0,0-2,1.55c-.49-.44-1-.87-1.51-1.27-.14-.11-.29.12-.18.25.41.47.85.92,1.31,1.36-.67.63-1.3,1.31-1.92,2l-1.32-1.07c-.19-.15-.46.11-.27.28l1.28,1.14c-.49.54-1,1.09-1.43,1.63s-.79.93-1.18,1.41c-.4-.29-.8-.58-1.21-.85a39.13,39.13,0,0,0,2.52-5.17c.08-.19-.21-.29-.31-.14-1,1.61-2,3.23-2.93,4.84a2.2,2.2,0,0,0-.25-.17.21.21,0,0,0-.3.23c0,.22.07.44.11.66-.52.86-1.06,1.72-1.6,2.57A177,177,0,0,0,87,61.73a.12.12,0,0,0-.17.16c1.88,2.31,3.86,4.58,5.91,6.8,0,0-.06,0-.08,0-1.37,1.2-2.64,2.51-3.93,3.8l-.81-.79c-2.65-2.6-5.29-5.22-8-7.76-.11-.11-.27,0-.17.17C82,66.7,84.45,69.2,86.85,71.7l1.28,1.36c-.51.5-1,1-1.56,1.48s-1.33,1.17-2,1.74l-1.17-1.19c-3-3-5.94-5.93-9-8.85a.16.16,0,0,0-.23.23q4.26,4.64,8.62,9.18c.36.39.73.77,1.1,1.15l-.8.66c-.59.47-1.24.9-1.87,1.36-1.42-1.27-2.9-2.48-4.27-3.71-2.57-2.3-5.14-4.59-7.78-6.81-.11-.1-.27.06-.16.16,2.41,2.45,4.9,4.83,7.39,7.2,1.31,1.24,2.6,2.59,3.94,3.87a7.47,7.47,0,0,0-.73.76.1.1,0,0,0,.1.17A8.77,8.77,0,0,0,80.86,80a29.35,29.35,0,0,0,3.26,2.7.27.27,0,0,0,.11,0c-.4.32-.79.65-1.16,1-.09.08,0,.21.13.16a35.33,35.33,0,0,0,4.66-3A15.88,15.88,0,0,0,91.28,84a.17.17,0,0,0,.21,0l.46.5c-.51.56-1,1.11-1.59,1.66a1.89,1.89,0,0,0-.52-.43.09.09,0,0,0-.13.08,1.85,1.85,0,0,0,.23.78,20.76,20.76,0,0,0-2,2.37.06.06,0,0,0,.08.08,14,14,0,0,0,2.33-1.85c.09.15.18.28.26.42.36.61.72,1.55,1.37,1.9a.22.22,0,0,0,.32-.19,4.1,4.1,0,0,0-1-1.8c-.16-.24-.32-.52-.49-.79.56-.57,1.1-1.15,1.63-1.72.37.4.72,1,1.26,1.09a.13.13,0,0,0,.16-.16c-.14-.55-.7-.9-1.1-1.27.55-.59,1.08-1.19,1.61-1.79a1.21,1.21,0,0,0,.81.37.2.2,0,0,0,.18-.24,1.16,1.16,0,0,0-.55-.65c.45-.54.9-1.08,1.34-1.63h0a6,6,0,0,0,1.46,1c.28.09.42-.27.26-.46a5.85,5.85,0,0,0-1.23-.91l-.12-.08.81-1c.27-.35.53-.71.8-1.07l.26.15a1.8,1.8,0,0,0,1.08.38.09.09,0,0,0,.07,0c0,.06.11.09.16,0,1.35-1.71,2.64-3.46,4-5.16l.14.11c.66.53,1.5,1.53,2.4,1.52a.16.16,0,0,0,.15-.21c-.22-.8-1.16-1.19-1.8-1.65l-.45-.31c.23-.28.46-.57.69-.84.62-.73,1.28-1.41,2-2.09L108,71.16l.46.42a7.46,7.46,0,0,0-1.73,2.07.14.14,0,0,0,.18.19A7.71,7.71,0,0,0,109,72a9.41,9.41,0,0,0,1.93,1.49c.19.1.49-.12.33-.32a9.82,9.82,0,0,0-1.79-1.67c.55-.55,1.08-1.12,1.61-1.7A4.22,4.22,0,0,0,113,71.29a.15.15,0,0,0,.18-.19,2.05,2.05,0,0,0-.33-.64,30.24,30.24,0,0,0,2.77-2c.59.46,1.17.92,1.72,1.42l.12.12c-.86.83-1.65,1.69-2.34,2.5a.11.11,0,0,0,.15.15c.84-.78,1.71-1.51,2.6-2.22.94,1,1.76,2.06,2.72,3a.29.29,0,0,0,.45-.35c-.13-.23-.29-.45-.44-.67h0l1.4-.89a25.43,25.43,0,0,0,2.79,2.89c.22.19.62-.06.43-.34a25.87,25.87,0,0,0-2.55-3c.63-.43,1.25-.87,1.87-1.31a16.32,16.32,0,0,0,2.76,2.63.27.27,0,0,0,.37-.37,17.44,17.44,0,0,0-2.57-2.66l1.14-.82c.76-.54,1.39-1.53.74-2.36-.07-.1-.2,0-.19.11.14.8-.87,1.4-1.38,1.79l-.93.72-1.67-1.56c1.37-.92,2.69-1.92,4-2.92,1.21,1.8,2.47,3.55,3.79,5.21a.42.42,0,0,0,.7-.29,5.12,5.12,0,0,1-.09-1,.17.17,0,0,0-.33,0l-.08.22-.54-.79c.46-.79,2.37-2,3.27-2.63a8,8,0,0,0,.8.84c.18.16.51,0,.42-.25a7.81,7.81,0,0,0-.49-1.11L137.44,62l.06,0c.69,1,1.37,2.08,2.06,3.14.21.32.8.22.78-.21s-.06-.44-.27-.59a32.88,32.88,0,0,0-1.77-3c1.38-1.06,2.76-2.13,4.11-3.23.75,1.24,1.45,2.52,2.13,3.83a.31.31,0,0,0,.31.19.46.46,0,0,1-.07.07c-.11.11.05.25.16.16,1.54-1.21,3.05-2.47,4.55-3.73.31.38.63.75.94,1.12s.45.56.67.86c-1.29,1.1-2.56,2.23-3.79,3.4-.09.1,0,.27.15.19,1.38-1,2.73-2,4.06-3.06a6.09,6.09,0,0,0,1.62,1.55c.07,0,.19,0,.15-.12a6,6,0,0,0-1.3-1.81c1.14-.91,2.28-1.84,3.42-2.77.42.38.83.75,1.19,1.13.81.86,1.55,1.77,2.28,2.68-1,.94-1.9,1.92-2.72,2.89-.1.11,0,.31.16.22a37.79,37.79,0,0,0,3.13-2.4c.81,1,1.62,2.05,2.5,3,.3.32.78-.09.58-.45a19.08,19.08,0,0,0-2.28-3.25,32.55,32.55,0,0,0,2.5-2.48,6.25,6.25,0,0,0,.6.4.21.21,0,0,0,.28-.28,5.91,5.91,0,0,0-.39-.68l0,0c.15-.18,0-.49-.27-.35a25.34,25.34,0,0,0-3.4-3.65l1-.82A4.4,4.4,0,0,0,162,55c.16.06.36-.13.29-.29a4,4,0,0,0-1-1.38,20.13,20.13,0,0,0,1.5-1.41,7.11,7.11,0,0,0,.77.49.15.15,0,0,0,.2-.2,5.77,5.77,0,0,0-.45-.85c.14-.16.29-.31.42-.47a.23.23,0,0,0-.28-.36c-.17.09-.33.2-.5.3a16.74,16.74,0,0,0-1.88-2.09,51.42,51.42,0,0,0,4.72-4.61,20.8,20.8,0,0,0,2,2C168.12,46.41,168.72,46,168.44,45.63ZM86.62,75.5c.69-.6,1.38-1.22,2.06-1.86,1.1,1.17,2.2,2.34,3.32,3.48-1,.71-2,1.44-3,2.16l-.87.6-.05,0-3-3C85.64,76.37,86.14,75.91,86.62,75.5Zm-2,6.91a.38.38,0,0,0-.07-.27,29.88,29.88,0,0,0-2.66-2.75,23.47,23.47,0,0,0,2.6-2l2.45,2.55.44.47C86.45,81.05,85.51,81.71,84.62,82.41ZM94.19,82l-1.45-1c-.23-.17-.54.23-.31.41l1.38,1.09c-.52.61-1,1.21-1.58,1.8l-1-.89a18.46,18.46,0,0,0-2.66-2.94l1.32-.94,2.58-1.81c.69.7,1.4,1.38,2.12,2l.11.06,0,0,.76.55C95.1,80.87,94.65,81.42,94.19,82Zm3.5-4.48-.38-.16a.16.16,0,0,0-.16.28l.32.19c-.14.18-.27.37-.41.56-.37.51-.76,1-1.15,1.51-.21-.13-.41-.27-.61-.41a.38.38,0,0,0-.1-.34c-.61-.7-1.25-1.37-1.9-2,.9-.65,1.78-1.32,2.63-2,.19-.16-.06-.46-.26-.34-1,.58-1.93,1.2-2.86,1.85-1.17-1.18-2.36-2.33-3.55-3.48a25.73,25.73,0,0,0,3.56-4.19.06.06,0,0,0,0,0c2.06,2.23,4.18,4.42,6.29,6.54C98.66,76.09,98.18,76.79,97.69,77.48Zm1.86,1a1.66,1.66,0,0,0-.82-.57l-.32-.14c.46-.62.91-1.26,1.36-1.9a.46.46,0,0,0,.44-.64c.67-1,1.31-2,1.91-3l1.09.88A37,37,0,0,0,99.55,78.49ZM109.13,71c-.06.06-.12.13-.19.19l-.51-.4-1.3-1L109,67.79c.41.39.82.77,1.21,1.17l.44.46C110.16,69.93,109.64,70.44,109.13,71Zm8.59-1.51c-.52-.46-1.09-.93-1.68-1.36a1.56,1.56,0,0,1,.2-.16l1.62-1.25,1.45,1.68a18.56,18.56,0,0,0-1.44,1.22Zm2.65,2.64s0,0,0,0a17.42,17.42,0,0,0-2-2.11c.23-.18.45-.37.69-.54s.51-.36.77-.53l.14.16c.55.64,1.1,1.3,1.65,2C121.19,71.39,120.77,71.73,120.37,72.09Zm3.33-3.26.31.33-.54.41-1.27,1c-.44-.46-.89-.92-1.32-1.38l-.55-.59c.65-.42,1.3-.83,1.92-1.3h0l-.25.22c-.1.09,0,.25.14.18l.29-.2Zm-.88-2c.08-.15-.06-.37-.24-.31l-.36.16L120.45,65a.13.13,0,0,0-.19.19c.52.54,1,1.09,1.55,1.64a11.55,11.55,0,0,0-2,1.18l-1.55-1.64a23.92,23.92,0,0,0,1.86-1.59c.23-.22-.07-.61-.33-.44-.7.47-1.36,1-2,1.52-.55-.58-1.09-1.17-1.65-1.75a29.8,29.8,0,0,0,4.34-1.81,27.42,27.42,0,0,0,3.06,3.76.27.27,0,0,0,.1.06Zm1.14-1a.23.23,0,0,0,0-.11,26.93,26.93,0,0,0-2.58-3.91A21.71,21.71,0,0,0,124.1,60c.77,1.29,1.58,2.56,2.41,3.81Q125.22,64.83,124,65.85Zm6,1.27c-.77-1.15-1.54-2.3-2.32-3.44l1-.74L131,61.08c.65,1.1,1.31,2.3,2.08,3.35C132,65.3,131,66.19,130,67.12Zm4-3.31c-.66-1.08-1.5-2.1-2.19-3.11l-.06-.09c1.08-.84,2.13-1.71,3.14-2.63.79,1.1,1.56,2.22,2.31,3.35C136,62.15,135,63,133.9,63.81Zm20.9-14.5c1.07-.85,2.19-1.67,3.27-2.53.51.57,1,1.23,1.59,1.9L158,50.2l-.56-.46c-.14-.11-.35.11-.25.25s.29.37.44.55l-1.13,1c-.65-.68-1.29-1.36-2-2Zm-1.15,2.32c-.23-.29-.45-.59-.67-.89l1-.79c.64.71,1.29,1.4,1.93,2.1l-.29.26-.88.77C154.42,52.57,154,52.09,153.65,51.63Zm-2.14,8.59-.16-.17c-.51-.57-1-1.16-1.52-1.73l3.1-2.64c.58.61,1.25,1.19,1.9,1.76ZM153.72,55l1-.87.27.19a.14.14,0,0,0,.2-.16,2,2,0,0,0-.1-.35l.52-.45.83-.7.82.9.9,1c-.85.76-1.68,1.52-2.52,2.23A16.85,16.85,0,0,0,153.72,55Zm6.48,1.72c.68.72,1.32,1.53,2.06,2.19a32.73,32.73,0,0,0-2.62,2.17c-.66-.74-1.33-1.45-2-2.14l-1.46-1.6c.86-.68,1.77-1.36,2.67-2ZM158.81,54l-.47-.47L157,52.16l1.13-.95c.42.47.85.92,1.28,1.37l.43.48C159.52,53.36,159.16,53.66,158.81,54Zm3.31-2.61c-.56.37-1.1.78-1.64,1.21l-.24-.23c-.53-.51-1.05-1-1.59-1.54l1.63-1.37A17.78,17.78,0,0,0,162.12,51.36ZM160.38,48c-.46-.44-.91-.87-1.31-1.3-.14-.14-.27-.29-.4-.43.56-.47,1.12-.95,1.65-1.45.26-.26-.09-.72-.4-.51-.63.41-1.24.86-1.83,1.32-.69-.75-1.37-1.5-2.07-2.25l0,0q1.46-.6,2.85-1.32c.52.58,1.05,1.15,1.58,1.71.33.35.84-.18.53-.53l-1.37-1.57c.44-.23.87-.47,1.3-.72s1.12-.64,1.69-1a45.32,45.32,0,0,0,3,3.93A51.66,51.66,0,0,0,160.38,48Z"/><path class="cls-3" d="M57.82,61.57a11.4,11.4,0,0,0-2.5-2.45c-1.08-.95-2.19-1.87-3.27-2.82-.13-.12-.33.08-.2.21.93.9,1.82,1.83,2.74,2.73l.24.25a.17.17,0,0,0-.18,0,7.42,7.42,0,0,0-1.57,1.39c-.26.27-.51.54-.75.82L52,61.42a40.37,40.37,0,0,0-4.56-3.71c-.1-.06-.18.07-.12.15a42.63,42.63,0,0,0,4.6,4.41.4.4,0,0,1-.1.23.13.13,0,0,0,.18.18.85.85,0,0,1,.22-.13,41.1,41.1,0,0,0,4.3,3.72c.28.19.56-.23.35-.46a36.32,36.32,0,0,0-4-3.69l.61-.56A8.22,8.22,0,0,0,55,59.82a.19.19,0,0,0,0-.18,10,10,0,0,0,2.55,2.21A.21.21,0,0,0,57.82,61.57Z"/><path class="cls-3" d="M59.68,58.57a7,7,0,0,0-1.17-1.2L57,56c-.16-.15-.4.09-.24.24.43.43.87.86,1.3,1.3a8,8,0,0,0,1.4,1.27A.16.16,0,0,0,59.68,58.57Z"/><path class="cls-3" d="M42.94,100.9a32,32,0,0,0-4.7-4.44c.58-.68,1.15-1.36,1.67-2.08.12-.16-.13-.33-.27-.2-.66.58-1.29,1.21-1.91,1.84l-.55-.47c-2.14-1.91-4.25-3.85-6.46-5.66-.13-.11-.31.06-.19.18,2,2,4.13,4,6.2,5.92l.54.52c-1,1.09-2.05,2.22-3.06,3.34-2.48-2.18-4.95-4.43-7.55-6.47-.12-.1-.29.06-.18.18C28.67,95.8,31,97.89,33.33,100l.4.36c-.89,1-1.79,1.94-2.67,2.94-2.74-2.9-5.55-5.75-8.42-8.49-.1-.1-.24.05-.15.16,2.58,3,5.27,6,8,9-.58.69-1.15,1.39-1.66,2.12-.08.12.09.23.19.15.67-.57,1.3-1.18,1.91-1.8.65.69,1.3,1.39,2,2.07l.69,0,.42,0c-.81-.88-1.64-1.76-2.46-2.64.92-1,1.81-2,2.71-3l2.81,2.57,0,0c-.26.33-.51.67-.77,1-.54.7-1.26,1.26-1.15,2.18,0,.16.29.24.33,0,.15-1,1.06-1.7,1.65-2.43l.34-.4a14.21,14.21,0,0,0,3,2.4c.18.09.41-.11.29-.29a14.83,14.83,0,0,0-2.65-2.87,10.59,10.59,0,0,0,.88-1.23.19.19,0,0,0-.3-.24c-.36.35-.68.73-1,1.11-1-.83-2-1.62-2.94-2.4,1-1.1,2-2.19,3-3.31a32.19,32.19,0,0,0,4.87,4.28C42.9,101.46,43.1,101.11,42.94,100.9Z"/><path class="cls-3" d="M45.48,93.32a31.31,31.31,0,0,0-4.54-3.55c-1.71-1.26-3.4-2.56-5.18-3.71-.15-.09-.32.13-.19.24,1.57,1.42,3.28,2.71,4.93,4a30.35,30.35,0,0,0,4.62,3.45A.3.3,0,0,0,45.48,93.32Z"/><path class="cls-3" d="M49.57,86.49a13.84,13.84,0,0,0-3.18-2.38c-1.38-.92-2.76-1.87-4.17-2.77-.13-.09-.3.13-.17.23,1.18.93,2.39,1.82,3.59,2.73a16,16,0,0,0,3.72,2.54C49.58,86.92,49.69,86.64,49.57,86.49Z"/><path class="cls-3" d="M53,82.48c-1.93-1.64-4.05-3.09-6.1-4.58a.2.2,0,0,0-.21,0c-.33.16-.28.11-.45.41a0,0,0,0,0,0,0c1.05,0,2.27,1.51,3,2.16,1,.89,2.08,1.81,3.18,2.63C52.86,83.44,53.35,82.79,53,82.48Z"/><path class="cls-3" d="M58.14,80c-.82-1.35-2.36-2.38-3.53-3.43a24,24,0,0,0-3.77-3.14c-.08,0-.19.05-.13.13a24,24,0,0,0,3.4,3.51c1.14,1.08,2.29,2.55,3.7,3.26A.24.24,0,0,0,58.14,80Z"/><path class="cls-3" d="M59.68,129.83a16.08,16.08,0,0,1,1.8.11c-2-1.84-4.16-3.63-6.24-5.42l.29-.31c.19-.2-.06-.58-.31-.4l-.41.33-1-.83-3.22-2.84,0,0a.18.18,0,0,0-.15-.25l-.21,0c-1.77-1.55-3.56-3.1-5.35-4.63l1-.91c.34-.29-.14-.75-.47-.48l-1.12.93q-1.71-1.45-3.44-2.88l.4-.29a17.72,17.72,0,0,0,3.49-2.83c.06-.08,0-.22-.1-.18a17.82,17.82,0,0,0-3.7,2.47l-.57.43-.06,0c-.15-.12-.36.08-.21.22v0c-.92.69-1.84,1.4-2.73,2.14-.17.15.05.43.24.31,1-.64,2-1.33,2.94-2,1.08,1,2.17,2,3.26,3.06a64.69,64.69,0,0,0-6.77,6.12c-.06.07,0,.18.1.12,1-.65,2-1.36,2.91-2.11,2.64,2.63,5.33,5.21,7.91,7.89.39.41.78.82,1.16,1.24-.58.48-1.17,1-1.78,1.42s-1.41,1.06-2.13,1.57q-1.8-2-3.75-4c1-.93,2-1.88,3-2.87.15-.14,0-.42-.22-.29-1.12.85-2.19,1.75-3.25,2.67-1.36-1.32-2.76-2.6-4.16-3.83-.09-.08-.21,0-.13.12,1.33,1.33,2.61,2.7,3.87,4.08-.64.56-1.28,1.12-1.91,1.69l-1.58,1.41q-1.81-1.59-3.67-3.14c-.1-.09-.25,0-.15.15,1.14,1.12,2.3,2.22,3.46,3.31l-1.3,1.17-1.6,1.48-.53.49c-.4.16-.57.41-.52.74a.14.14,0,0,0-.19,0l-.3.29c-.15.14,0,.41.22.29a55.94,55.94,0,0,0,4.73-4l.79.74c.87.82,1.74,1.71,2.65,2.55a8.94,8.94,0,0,0-1.5,1.23.08.08,0,0,0,.08.13,8,8,0,0,0,1.92-.91,15,15,0,0,0,1.83,1.39c.2.13.36-.14.23-.3a14,14,0,0,0-1.39-1.51l1.49-1c.58-.37,1.14-.77,1.7-1.16L48,136a.32.32,0,0,0,.54-.23v-.69a.14.14,0,0,0-.26-.07l-.1.19c-.75-1-1.56-2-2.38-2.93l2-1.49c.65-.48,1.31-1,2-1.47.84.9,1.67,1.8,2.49,2.71l.14.16c.29-.17.59-.34.9-.5-.93-1-1.91-1.95-2.85-2.89a43.29,43.29,0,0,0,4.16-3.58C56.28,126.74,58,128.3,59.68,129.83Zm-16.59,3.49c-.54.37-1.11.72-1.68,1.09-1-.87-2-1.67-2.92-2.49l-.8-.7.46-.41c1-.87,2-1.74,3-2.63,1.2,1.33,2.38,2.68,3.55,4C44.15,132.58,43.62,133,43.09,133.32Zm6.78-5.11c-.26-.25-.51-.51-.76-.77a111.75,111.75,0,0,0-8.63-8.08c1.36-1.08,2.67-2.23,4-3.37,1.67,1.54,3.35,3.06,5,4.58-.25.18-.48.37-.71.52s-.74.5-1.1.76-.36.46-.58.61,0,.16.07.12c.24-.15.36,0,.55-.13.39-.22.77-.45,1.15-.69s.8-.41,1.18-.68l3.18,2.85.85.79C52.65,125.85,51.27,127,49.87,128.21Z"/><path class="cls-3" d="M88.06,114.47c0-.08,0-.16-.07-.25a.25.25,0,0,0-.45,0,11.68,11.68,0,0,0-1.72-1.91c.31-.39.61-.78.89-1.18.12-.17-.14-.36-.27-.22l-1,1c-1.56-1.56-3.46-3.4-3.76-3.7-2-2.06-4-4.18-6.12-6.13a.16.16,0,0,0-.22.22c1.8,2.15,3.7,4.25,5.63,6.32-1.32,1.42-2.55,3-3.74,4.53l-.78-.77q-4.2-4.09-8.41-8.18c-.12-.11-.3.07-.19.18q4.05,4.26,8.11,8.49l.83.87c-1,1.34-2,2.7-3,4-.36.47-.72.95-1.09,1.42-1-.94-2.1-1.87-3.12-2.8A40.15,40.15,0,0,0,72,113.05c.12-.19-.17-.42-.32-.24-.85,1-1.7,2.06-2.57,3.08l-7.75-7.17c-.13-.13-.34.07-.2.2l7.54,7.47c-.92,1.08-1.86,2.14-2.84,3.18-.32.34-.65.67-1,1l-.3-.27c-2.87-2.62-5.74-5.24-8.66-7.79-.14-.12-.34.07-.2.2,2.58,2.55,5.24,5,7.86,7.56l.82.78c-.57.56-1.15,1.11-1.73,1.66-.42.39-.88.76-1.32,1.14-3.73-3.36-7.58-6.62-11.46-9.78-.08-.06-.19,0-.11.11,3.57,3.47,7.24,6.91,11,10.21a5.9,5.9,0,0,0-.86,1,.1.1,0,0,0,.11.14,7.71,7.71,0,0,0,1.3-.68c.91.79,1.81,1.58,2.73,2.35a.33.33,0,0,0,.54-.31l-.08-.61a.15.15,0,0,0-.26,0c0,.06,0,.13-.08.19-.73-.68-1.47-1.35-2.21-2a23,23,0,0,0,3-2.83l2.82,2.67.63.61c-.86,1.18-1.69,2.39-2.46,3.62-.06.11.09.22.17.13,1-1,1.89-2.14,2.79-3.26a15.82,15.82,0,0,0,2.75,2.31.22.22,0,0,0,.21,0l.48.53-.15.13a16.21,16.21,0,0,0-1.72,1.47c-.55-.55-1.1-1.1-1.66-1.64-.29-.29-.32-.46-.67-.37A.2.2,0,0,0,68,128c0,.19,0,.2.21.27a.11.11,0,0,0,.13-.17c.6.68,1.2,1.39,1.8,2.09a3,3,0,0,0-.16.31.12.12,0,0,0,.14.14,2.07,2.07,0,0,0,.33-.1c.24.27.48.56.73.82l.85,1a1.64,1.64,0,0,0-.14.22.13.13,0,0,0,.17.17l.19-.13a12,12,0,0,0,2.08,2c.24.17.55-.16.4-.39a11.85,11.85,0,0,0-1.8-2.1c.57-.49,1.1-1.06,1.62-1.57a4.48,4.48,0,0,0,1.53,1.26c.14.06.33-.13.27-.27a4.45,4.45,0,0,0-1.26-1.52,16.7,16.7,0,0,0,1.82-2c.12-.15-.11-.38-.27-.27a18.93,18.93,0,0,0-2.06,1.84l-.15-.14L73.3,128.4A5.53,5.53,0,0,0,74.71,127a.22.22,0,0,0-.24-.32,5.7,5.7,0,0,0-1.76,1.24c-.27-.25-.54-.5-.82-.73a.18.18,0,0,0-.13,0,20.19,20.19,0,0,0-2.27-2.47c1.08-1.37,2.14-2.76,3.19-4.15a45.39,45.39,0,0,0,4.26,3.86.33.33,0,0,0,.47-.47c-.15-.18-.31-.35-.46-.52.11-.86,2.7-3.75,4-5.23a11.62,11.62,0,0,0,2.88,2.51.21.21,0,0,0,.29-.29,11.76,11.76,0,0,0-2.53-2.94l.08-.09c1.18-1.41,2.38-2.82,3.52-4.26l1.92,2a.45.45,0,0,0,.62,0c.06-.07.13-.13.2-.2A.36.36,0,0,0,88.06,114.47ZM72.82,128.76l1.12,1.18.15.15c-.52.53-1.11,1.06-1.61,1.65-.52-.49-1-1-1.53-1.44.53-.36,1-.88,1.48-1.24ZM69,124.12c-1.16-1.05-2.38-2-3.52-3,.31-.34.62-.68.92-1,1-1,1.93-2.08,2.83-3.19,1,1,2,2,3,3C71.07,121.31,70,122.7,69,124.12Zm7.61-1.22c-1-1.11-2.15-2.17-3.28-3.21.22-.3.44-.6.67-.89,1.14-1.47,2.32-2.94,3.48-4.43l2.62,2.73c.17.17.33.34.49.52C79.15,119.35,77.81,121.12,76.56,122.9Zm4.55-6-.44-.43-2.77-2.71a58.48,58.48,0,0,0,3.4-4.83c1.17,1.24,2.34,2.46,3.52,3.68Q82.93,114.71,81.11,116.91Z"/><path class="cls-3" d="M91.56,106.54a8.86,8.86,0,0,1-.67-.82.19.19,0,0,0-.18-.07c-.95-1-1.95-1.93-3-2.84l.25-.24a15.09,15.09,0,0,0,2.18-2.34.2.2,0,0,0-.27-.28,13.3,13.3,0,0,0-2.15,1.89l-.53.52a76.88,76.88,0,0,0-7-5.27c-.21-.15-.4.19-.2.34a79.46,79.46,0,0,1,6.6,5.5,17.87,17.87,0,0,0-1.33,1.43c-.19.24.13.58.35.35l.5-.39a.12.12,0,0,0,0-.07c.32-.27.62-.56.93-.86,1.3,1.21,2.59,2.45,3.88,3.7C91.37,107.45,91.89,106.92,91.56,106.54Z"/><path class="cls-3" d="M91.7,97.49a89.8,89.8,0,0,0-9.76-7.95c-.09-.06-.19.08-.11.15A89.05,89.05,0,0,0,91.29,98C91.61,98.25,92,97.75,91.7,97.49Z"/><path class="cls-3" d="M202.41,60.35a34.12,34.12,0,0,0-5-4.29c-1.52-1.24-3-2.52-4.61-3.66-.11-.07-.22.09-.14.18,1.55,1.54,3.24,3,4.88,4.39a30.21,30.21,0,0,0,4.56,3.75A.24.24,0,0,0,202.41,60.35Z"/><path class="cls-3" d="M199.92,52.73a8.75,8.75,0,0,0-6.56-5.55.21.21,0,0,0-.23.3c.11.28.21.57.31.85a.09.09,0,0,0,.18,0c0-.19-.05-.38-.07-.57a14.63,14.63,0,0,1,3.12,1.84,17.18,17.18,0,0,1,2.81,3.37A.24.24,0,0,0,199.92,52.73Z"/><path class="cls-3" d="M212.48,55.18a11,11,0,0,0-2-2.69c.51-.34,1-.7,1.5-1.08.13-.11,0-.27-.16-.21-.59.27-1.17.57-1.75.88-.67-.65-1.36-1.26-2-1.85-.81-.76-1.64-1.49-2.51-2.18a3.57,3.57,0,0,0,.27-.28c.06-.07,0-.22-.11-.18a5,5,0,0,0-.47.22c-.77-.6-1.55-1.18-2.36-1.73-.15-.1-.34.14-.2.26.69.59,1.36,1.19,2,1.8-.44.31-.86.66-1.29,1a21.16,21.16,0,0,0-2.16,1.72.09.09,0,0,0,.1.14,20.37,20.37,0,0,0,2.28-1.5c.46-.33,1-.64,1.45-1,.82.75,1.63,1.51,2.43,2.29.56.56,1.1,1.18,1.63,1.81-1.59.89-3.15,1.89-4.68,2.92a28.81,28.81,0,0,0-2.84-2.21.08.08,0,0,0-.09.12c.85.78,1.7,1.56,2.54,2.35L201,57.87a.12.12,0,0,0,.12.21l.4-.25a.08.08,0,0,0,0-.13.75.75,0,0,0,.81-.31l1.22-.7.91-.54c.52.5,1,1,1.55,1.51a27.89,27.89,0,0,1,1.87,2.25c-1.37.7-2.73,1.47-4.06,2.26-.43-.22-.86-.43-1.28-.61a.09.09,0,0,0-.09.16l1,.68c-1,.62-2,1.25-3,1.88a.13.13,0,0,0,.13.22c1.16-.52,2.34-1.07,3.52-1.65.9.63,1.78,1.28,2.62,2,.3.25.58.52.86.79-1.34.93-2.62,2-3.89,2.94l-.44.32c-.76-.6-1.53-1.18-2.32-1.73a.06.06,0,0,0-.09,0c-1.27-1.62-3.23-2.86-4.82-4.14-2.05-1.67-4.09-3.34-6.17-5-.14-.1-.34.08-.2.2,1.78,1.6,3.59,3.17,5.39,4.74s3.54,3.55,5.6,4.59a.24.24,0,0,0,.32-.13c.62.59,1.26,1.16,1.9,1.72A54.81,54.81,0,0,0,198,73c-.08.08,0,.21.13.16a55.24,55.24,0,0,0,5.22-3.56l2.18,1.85.48.42-.19.14a33.35,33.35,0,0,0-3.84,2.94.09.09,0,0,0,.11.15,33.66,33.66,0,0,0,4-2.65l.34-.23a26.75,26.75,0,0,0,3.45,2.76c.25.16.49-.19.3-.39a24.74,24.74,0,0,0-3.19-2.74,14.78,14.78,0,0,0,3-2.3.15.15,0,0,0-.18-.23,15.63,15.63,0,0,0-3.26,2.16c-.38-.29-.76-.58-1.13-.88l-1.62-1.3.26-.19c1.34-.95,2.82-1.85,4.15-2.88.67.68,1.32,1.38,2,2,.22.19.58,0,.41-.31a12.74,12.74,0,0,0-1.81-2.2c.36-.3.7-.6,1-.93a.2.2,0,0,0-.25-.31,13.33,13.33,0,0,0-1.31.75,21.22,21.22,0,0,0-3.61-2.61c1.28-.64,2.56-1.32,3.8-2a11.82,11.82,0,0,0,1.71,1.75.16.16,0,0,0,.25-.19,8.7,8.7,0,0,0-1.25-2c.91-.54,1.8-1.11,2.64-1.7.13-.09,0-.34-.11-.27-1,.41-2,.88-3,1.38-.72-.81-1.53-1.55-2.22-2.26-.47-.48-1-.94-1.47-1.4l1.67-1c1-.6,2-1.19,3-1.81a17.67,17.67,0,0,0,2.51,2.53C212.33,55.79,212.6,55.42,212.48,55.18Z"/><path class="cls-4" d="M217.72,50.05a18.6,18.6,0,0,0-2.62-2.3,31.27,31.27,0,0,0-2.48-2c-.12-.08-.24.1-.15.2a33.7,33.7,0,0,0,2.5,2.43,16.89,16.89,0,0,0,2.4,2.08C217.67,50.69,217.91,50.3,217.72,50.05Z"/><path class="cls-4" d="M221.48,46a12.21,12.21,0,0,0-1.2-.6c-.13-.06-.24.14-.13.23.3.25.65.47,1,.69s.63.55,1,.48a.16.16,0,0,0,.11-.2C222.15,46.22,221.78,46.11,221.48,46Z"/><path class="cls-3" d="M249,80.24c.26-.28.5-.56.74-.84-.8-.94-1.78-1.79-2.56-2.63l-.35-.37.49-.39c.16-.13,0-.39-.21-.28l-.55.37c-1.62-1.75-3.24-3.51-5-5.12-.2-.19-.45.08-.29.29,1.43,1.85,3,3.58,4.56,5.32-1.59,1.07-3.17,2.17-4.75,3.27-2.13-2.51-4.22-5.12-6.56-7.41-.1-.1-.3,0-.21.16,1.85,2.69,4,5.17,6.13,7.69l-3.2,2.2-1,.68A2.2,2.2,0,0,1,236,83l-3-3.42A33.06,33.06,0,0,0,236.49,77c.15-.13,0-.34-.2-.26A32.67,32.67,0,0,0,232.61,79l-2.77-3.21-.92-1.06A18.26,18.26,0,0,0,231,72.59a.15.15,0,0,0-.17-.23,16.94,16.94,0,0,0-2.42,1.78l-3.7-4.26.21-.21c.15-.16-.05-.43-.23-.3a2.4,2.4,0,0,0-.26.18c-2.5-2.87-5-5.73-7.61-8.52-.16-.17-.39.08-.25.25,2.35,3,4.76,5.85,7.19,8.73a57.12,57.12,0,0,0-4.63,3.69l-1-1.06c-.71-.72-1.41-1.47-2.12-2.22,1.14-.81,2.32-1.56,3.37-2.47a.16.16,0,0,0-.15-.27,16.64,16.64,0,0,0-3.76,2.17A23.28,23.28,0,0,0,212.26,67s-.12,0-.08.08a22.89,22.89,0,0,0,2.69,3.18,21.9,21.9,0,0,0-4.09,4.22c-.06.07.05.13.1.08,1.35-1,2.58-2.24,3.92-3.3l.61-.46c.76.75,1.53,1.49,2.25,2.24.34.35.67.7,1,1-1.41,1.26-2.79,2.55-4.14,3.79-.12.12.05.35.19.25,1.49-1.12,3-2.26,4.52-3.44l3.89,4a25.05,25.05,0,0,0-2,2c-.11.12,0,.33.18.23a23.68,23.68,0,0,0,2.28-1.74l.19.2q1.66,1.71,3.31,3.43A16.92,16.92,0,0,0,225.71,84c-.1.09,0,.22.13.17a17,17,0,0,0,1.67-.91c.79.83,1.58,1.65,2.38,2.47l.93,1c-1.4.9-2.79,1.81-4.15,2.75a.13.13,0,0,0,.14.23c1.5-.78,3-1.63,4.47-2.5.55.58,1.1,1.16,1.67,1.72.37,0,.73-.12,1.1-.19-.64-.68-1.29-1.34-2-2q1.92-1.16,3.81-2.39c.84,1,1.69,2.08,2.57,3.1l1.11-.46c-.92-1.09-1.89-2.14-2.83-3.2,1.41-.94,2.81-1.9,4.18-2.89,1,1.2,1.92,2.48,2.91,3.74.31-.21.63-.42.93-.64-1-1.1-2-2.18-2.94-3.26l-.26-.3q2.35-1.71,4.59-3.48C247.06,77.94,248,79.22,249,80.24Zm-25.34-2-3.93-3.94a56.48,56.48,0,0,0,4.4-3.86l3.62,4.27L226.37,76C225.49,76.73,224.57,77.48,223.68,78.25Zm.62.63-.15-.15,1.6-1.39c.81-.68,1.67-1.35,2.5-2l.48.57,3.12,3.66-.94.65c-1,.73-2.12,1.43-3.16,2.18Zm7.29,7.33-1.08-1.08-2.29-2.3c1-.67,2-1.4,3-2.08l1.05-.7,2.58,3c.18.21.36.44.53.65Q233.51,85,231.59,86.21Z"/><path class="cls-4" d="M253.24,74.38q.27-.47.51-1c-.79-.91-1.59-1.81-2.39-2.72a29.37,29.37,0,0,0-4.47-4.65s-.1,0-.08.08a26.92,26.92,0,0,0,3.46,4.64C251.26,72,252.24,73.19,253.24,74.38Z"/><path class="cls-4" d="M254.12,67l-.19-.57c-.49-.44-1-.85-1.5-1.27-1-.79-1.93-1.56-2.9-2.32-.23-.19-.56.12-.34.33.89.86,1.78,1.71,2.69,2.54a17,17,0,0,0,2.43,2.06A6.19,6.19,0,0,0,254.12,67Z"/><path class="cls-3" d="M218,110.72c.64-.68,1.28-1.36,1.9-2a.18.18,0,0,0-.26-.25c-.67.6-1.33,1.23-2,1.86-.39-.5-.77-1-1.12-1.48-1.54-2.19-3.09-4.38-4.69-6.53-.11-.14-.35,0-.25.15,1.43,2.26,2.91,4.48,4.38,6.7.37.55.73,1.15,1.09,1.75-.72.71-1.43,1.44-2.15,2.16l-1.34,1.36c-.33-.5-.68-1-1-1.48-.45-.67-.89-1.35-1.34-2,.17-.15.36-.3.53-.47a.22.22,0,0,0-.27-.34c-.18.12-.36.26-.55.38l-2-3c-2.3-3.47-4.61-6.93-7-10.34-.07-.1-.22,0-.16.09,2.12,3.57,4.33,7.09,6.54,10.61.65,1,1.32,2.09,2,3.14-1.53,1.09-3,2.31-4.45,3.48l-.89-1.36-2-3.18c.93-.65,1.83-1.33,2.69-2.06.19-.17-.06-.47-.27-.35-1,.56-1.88,1.19-2.78,1.83-.79-1.23-1.57-2.47-2.37-3.7-.2-.32-.4-.64-.61-1,0,0,0-.08-.07-.11l-2.59-4.08c.42-.35.84-.71,1.23-1.08.13-.11,0-.28-.16-.21-.48.22-.95.47-1.42.74-2-3.09-3.93-6.17-6.06-9.13a.14.14,0,0,0-.23.14c1.75,3.19,3.67,6.3,5.62,9.39a43.35,43.35,0,0,0-3.82,2.58c-.15-.26-.3-.52-.44-.79-1.15-2.14-2.06-4.64-3.52-6.58,0,0-.08,0-.07,0a25.45,25.45,0,0,0,2.41,5.67c.34.7.7,1.39,1.06,2.08-1.23.93-2.42,1.88-3.58,2.78-.09.07,0,.22.13.16,1.23-.73,2.52-1.48,3.8-2.27q1,1.93,2.13,3.84l.12.21c-1.86,1.38-3.66,2.85-5.39,4.26-.13.1,0,.3.16.22,1.86-1.2,3.79-2.45,5.66-3.77.87,1.48,1.79,2.94,2.73,4.38a40.26,40.26,0,0,0-3.43,2.66c-.11.1,0,.26.15.2,1.24-.7,2.43-1.52,3.61-2.35l.35.54a45.74,45.74,0,0,0,3.12,4.41.75.75,0,0,0-.05.16c0,.11.14.19.19.08s0,0,0-.05a11.78,11.78,0,0,0,.84.89.2.2,0,0,0,.32-.25c-.22-.41-.45-.82-.7-1.22a20.9,20.9,0,0,1,2-1.39l1.64-1.25a25.19,25.19,0,0,0,2.95,4.21c.19.21.6,0,.49-.28a26,26,0,0,0-2.6-4.57l.41-.31c1.34-1,2.75-2,4.05-3.12.27.44.55.87.82,1.3.48.77.94,1.58,1.44,2.37l-.54.54-1,1.05c-.07.07-.87,1-1,1.28a0,0,0,0,0-.05,0c-.29.06-.29.1-.44.38a.18.18,0,0,0,.28.22q1.58-1.45,3.14-3a11.88,11.88,0,0,0,1.64,2.06c.16.16.48,0,.4-.23a12.41,12.41,0,0,0-1.33-2.52q1.77-1.71,3.48-3.48a15.67,15.67,0,0,0,2.87,3.74c.14.12.41,0,.34-.2A16.29,16.29,0,0,0,218,110.72Zm-25.53-7.18a44.86,44.86,0,0,0,3.83-2.65q1.25,2,2.48,4c-1.37.8-2.72,1.7-4,2.66Q193.55,105.55,192.45,103.54Zm5.45,9.06c-.94-1.44-1.86-2.89-2.75-4.37a48,48,0,0,0,3.81-3l.11.17c.91,1.48,1.83,3,2.75,4.43-.77.56-1.53,1.13-2.3,1.68Zm4.9,4.21a12.85,12.85,0,0,0-1.29,1c-.91-1.41-2-2.75-2.89-4.12l-.39-.6,1.59-1.13c.78-.55,1.57-1.09,2.36-1.63l1.56,2.52c.44.7.86,1.42,1.29,2.15C204.28,115.61,203.54,116.21,202.8,116.81Z"/><path class="cls-3" d="M225.81,110a26.39,26.39,0,0,0-3.79-4.34c-1.44-1.55-2.85-3.18-4.41-4.63-.08-.07-.22,0-.16.12,1.15,1.53,2.45,2.94,3.7,4.38,1.37,1.59,2.67,3.52,4.37,4.76C225.7,110.45,225.91,110.2,225.81,110Z"/><path class="cls-3" d="M229,103.89a9.16,9.16,0,0,0-1.73-1.79L225,100c-.11-.11-.28,0-.17.16l1.91,2a10.3,10.3,0,0,0,2,2A.14.14,0,0,0,229,103.89Z"/><path class="cls-3" d="M196.38,83.22c-.56-1.29-1-3-2-4a.22.22,0,0,0-.37.16c.07,1.3.93,2.45,1.53,3.59.77,1.48,1.56,3,2.41,4.4.06.09.21,0,.17-.07C197.55,86,197,84.58,196.38,83.22Z"/><path class="cls-3" d="M202.43,75.73a.18.18,0,0,0-.33.09c-.1,1.34.68,2.7,1.11,4a.14.14,0,0,0,.27-.08C203.21,78.4,203.2,76.83,202.43,75.73Z"/><path class="cls-3" d="M196.13,72c-1.64-1.54-3.31-3.08-5-4.58.71-.49,1.41-1,2.08-1.52.19-.14,0-.38-.23-.3-.85.38-1.68.81-2.51,1.25-1.59-1.39-3.2-2.75-4.84-4.05a.12.12,0,0,0-.17.16c1.4,1.45,2.86,2.86,4.35,4.25-1.06.59-2.11,1.21-3.14,1.85A52.86,52.86,0,0,0,182.55,65c-.09-.07-.25,0-.17.13a54.2,54.2,0,0,0,3.71,4.32c-1.54,1-3.07,2-4.6,2.88l-.32.19-2.91-3.23A.17.17,0,0,0,178,69h0c-.69-.75-1.38-1.5-2.08-2.24-.08-.1-.26,0-.18.14l1.79,2.35c-1.4.7-2.74,1.54-4.08,2.36h0a61.07,61.07,0,0,0-5.08-5.32c-.11-.1-.27.05-.17.16,1.63,1.81,3.14,3.66,4.57,5.56a15,15,0,0,0-3.14,2.22.12.12,0,0,0,.12.2,15.29,15.29,0,0,0,3.45-1.84c.79,1.07,1.55,2.15,2.3,3.25a49.11,49.11,0,0,0-4.65,3.21c-.12.1,0,.25.15.2a46.41,46.41,0,0,0,5-2.64c1,1.52,2,3.06,3,4.65a.44.44,0,0,0,.75-.44,45.11,45.11,0,0,0-2.88-4.72c1.36-.82,2.71-1.68,4-2.51q1.91,2.37,3.88,4.65c-1,.54-2,1.07-3.07,1.57-.08,0,0,.16.06.14a16.73,16.73,0,0,0,3.47-1.18l.16.18c-1.78,1.23-3.46,2.63-5.13,4-.58-.78-1.16-1.55-1.77-2.3-.07-.08-.2,0-.15.12.49.85,1,1.67,1.54,2.49-.7.59-1.4,1.17-2.1,1.73l-2.52,2c-1-1.72-1.92-3.43-2.91-5.13-.13-.22-.44,0-.34.2.82,1.83,1.73,3.61,2.69,5.38q-1.91,1.55-3.77,3.13l-1-1.58c-.08-.11-.27,0-.19.11.32.57.66,1.12,1,1.68l-1.81,1.57a.08.08,0,0,0,.09.12l1.91-1.37,2.5,4.1q-2.19,1.35-4.44,2.63c-.52-.9-1-1.8-1.62-2.66a.17.17,0,0,0-.13,0c-.87-1.37-2-2.65-3-3.91q-1.71-2.31-3.52-4.56c-.08-.09-.24,0-.17.14,1.14,1.8,2.33,3.57,3.54,5.33a25.39,25.39,0,0,0,3.43,4.65.22.22,0,0,0,.26.05c.21.44.43.88.66,1.31l-.8.46c-1.16.66-2.37,1.26-3.58,1.86a6.46,6.46,0,0,0-1.1-1,.08.08,0,0,0-.12.1,5.5,5.5,0,0,0,.64,1.19,42.93,42.93,0,0,0-4.7,2.63c-.07,0,0,.17.06.14a28.46,28.46,0,0,0,5.05-2.21c.34.45.71.88,1,1.3.72.94,1.45,2.28,2.5,2.87a.13.13,0,0,0,.19-.15,8.56,8.56,0,0,0-1.89-2.75c-.4-.5-.8-1.06-1.22-1.59.76-.41,1.52-.83,2.27-1.22l2-1.08a32.53,32.53,0,0,0,1.76,2.77c.19.28.4.57.62.86a32.21,32.21,0,0,0-2.83,1.71c-.11.08,0,.26.09.22a19.36,19.36,0,0,0,3.22-1.33,9.64,9.64,0,0,0,3.58,3,.12.12,0,0,0,.14-.18,35.74,35.74,0,0,0-3-3.15c1.34-.72,2.65-1.53,3.92-2.27l.17-.1a38.38,38.38,0,0,0,2.2,3.24.24.24,0,0,0,.41-.24,35.61,35.61,0,0,0-2-3.36c1.18-.69,2.42-1.4,3.61-2.18a19.87,19.87,0,0,0,2.63,3.75c.25.26.6-.07.47-.36a24.08,24.08,0,0,0-2.37-3.89A17.61,17.61,0,0,0,184.08,95a.16.16,0,0,0-.19-.24,25.41,25.41,0,0,0-2.95,1.75.83.83,0,0,1-.08-.12c-.75-1.18-1.47-2.37-2.2-3.56,1.74-1.12,3.47-2.27,5.16-3.48a14.38,14.38,0,0,0,2.94,3.74c.11.09.32,0,.26-.15a14.6,14.6,0,0,0-2.47-4.12c1.48-1.07,2.94-2.18,4.35-3.33l0,.06c.09.1.23,0,.18-.14l0-.07c.78-.65,1.55-1.29,2.3-2,.27-.25-.1-.74-.4-.51l-2.31,1.73a47.93,47.93,0,0,0-3.28-4.47l.58-.51.34.39c.39.43.95-.18.62-.61l-.31-.38.22-.2c.25-.24-.08-.69-.38-.49l-.26.17-.07-.09a17,17,0,0,0,4.15-3c.15-.16-.06-.45-.25-.32-1.45,1-2.89,1.92-4.37,2.77-1.28-1.57-2.59-3.13-3.94-4.66.27-.17.54-.34.82-.5,1.38-.84,2.8-1.65,4.22-2.48,1.53,1.71,3.1,4.15,5.1,5.26a.19.19,0,0,0,.25-.25c-.89-1.9-3-3.47-4.41-5-.12-.12-.23-.25-.35-.38,1.05-.62,2.1-1.26,3.12-1.94,1.71,1.58,3.44,3.13,5.17,4.64C196,72.8,196.46,72.33,196.13,72Zm-19.78,3.34c-.77-1.08-1.58-2.15-2.43-3.18a45.82,45.82,0,0,0,3.9-2.55c.86,1.12,1.72,2.23,2.6,3.33ZM171.21,91q1.93-1.42,3.85-2.9,1.08,2,2.21,3.92c.11.21.24.41.35.61-.62.42-1.24.83-1.87,1.23L173.86,95C173,93.67,172.1,92.32,171.21,91Zm.6,11.06c-.24-.27-.48-.54-.71-.84a27.18,27.18,0,0,1-1.78-2.73c1.5-.84,3-1.72,4.47-2.61a2.39,2.39,0,0,0,.13.21c.73,1.2,1.45,2.43,2.19,3.64C174.72,100.54,173.25,101.27,171.81,102Zm8.32-5.26c0,.06.07.12.11.17-1.18.81-2.34,1.65-3.52,2.39-.65-1-1.31-2-1.94-2.92l-.55-.83,1.3-.8L178,93.24C178.69,94.43,179.4,95.61,180.13,96.78Zm-1.86-4.61c-.11-.19-.23-.37-.34-.55-.79-1.32-1.55-2.65-2.3-4l2.64-2c.7-.54,1.41-1.07,2.12-1.6.66,1,1.34,2,2,3,.32.48.63,1,.95,1.53Q180.85,90.41,178.27,92.17Zm10.08-7.36q-2.17,1.65-4.36,3.27c-.36-.47-.72-.93-1-1.38-.71-1-1.41-2-2.13-3,1.5-1.11,3-2.25,4.4-3.45A48.44,48.44,0,0,0,188.35,84.81Z"/><path class="cls-3" d="M162.3,101c-1.54-2-3.33-3.9-4.89-5.94a60.92,60.92,0,0,1-4.2-6.45c-.09-.16-.32,0-.24.14,2.18,4.45,5,9.4,8.75,12.7C162,101.66,162.56,101.31,162.3,101Z"/><path class="cls-3" d="M170.3,85.05c-.5-.55-1-1.13-1.47-1.7-.23-.26-.58.12-.38.38l1.27,1.59c.38.47.71,1.18,1.31,1.39.18.06.3-.13.28-.28C171.22,85.88,170.66,85.45,170.3,85.05Z"/><path class="cls-3" d="M154.83,103a29.76,29.76,0,0,0-2.45-4c-.23-.36-.44-.73-.66-1.1a.18.18,0,0,0-.17-.27c-.63-1.07-1.25-2.16-1.84-3.25a78,78,0,0,1-4.35-9.7.07.07,0,0,0-.14,0,71.12,71.12,0,0,0,3.62,9.39c.57,1.2,1.18,2.54,1.86,3.86a27.51,27.51,0,0,0-3.1,1.7c-.56-1.11-1.17-2.2-1.77-3.28l.15-.09a.12.12,0,0,0-.1-.22l-.19.05c-.19-.34-.38-.68-.56-1-1.51-2.79-3-5.59-4.52-8.37-2.89-5.32-5.54-10.92-8.84-16a.09.09,0,0,0-.15.09c2.3,5.34,5.37,10.45,8.07,15.6,1.36,2.59,2.74,5.17,4.11,7.76.38.71.75,1.43,1.12,2.16-.8.28-1.58.64-2.36,1s-1.44.61-2.16.94c-.21-.3-.42-.6-.66-.88-.06-.07-.19,0-.16.1a9.24,9.24,0,0,0,.39,1,14.22,14.22,0,0,0-1.58.88.12.12,0,0,0,.09.22,10.8,10.8,0,0,0,1.74-.59c.42.86.92,1.69,1.36,2.52.23.42.44.87.66,1.31a17.92,17.92,0,0,0-1.65,1.21.11.11,0,0,0,.11.18,14.28,14.28,0,0,0,1.84-.81,10.32,10.32,0,0,0,1.68,2.53.17.17,0,0,0,.28-.16,10.13,10.13,0,0,0-1.28-2.73c.93-.52,1.84-1.08,2.75-1.6.43-.25.87-.49,1.31-.73.37.61.75,1.2,1.16,1.77.12.17.43.08.35-.15-.25-.67-.55-1.32-.86-2a28.46,28.46,0,0,0,3-1.87,18.86,18.86,0,0,0,3.42,4.84A.28.28,0,0,0,154.83,103Zm-8.57-2.51c-1.11.66-2.29,1.28-3.41,2-.14-.23-.28-.46-.41-.69-.57-1-1.1-2-1.71-3l1.07-.47a33.38,33.38,0,0,0,3.35-1.51c.56,1.11,1.14,2.21,1.76,3.28C146.69,100.24,146.48,100.37,146.26,100.49Z"/><path class="cls-3" d="M163.91,42.64c-.38.24-.75.5-1.12.75-.07,0,0,.17.07.12.38-.25.76-.48,1.12-.75A.07.07,0,0,0,163.91,42.64Z"/><path class="cls-3" d="M145,30.17A37.71,37.71,0,0,0,142.11,27a28,28,0,0,0-3.41-3.3.08.08,0,0,0-.11.1,25.68,25.68,0,0,0,2.67,3.3,42.38,42.38,0,0,0,3.22,3.47C144.74,30.81,145.24,30.49,145,30.17Z"/><path class="cls-3" d="M146.43,25.91a14.58,14.58,0,0,0-1.51-2.15,21.84,21.84,0,0,0-2.12-2.48.13.13,0,0,0-.2.16,20.22,20.22,0,0,0,1.61,2.41,16.16,16.16,0,0,0,1.88,2.32A.22.22,0,0,0,146.43,25.91Z"/><path class="cls-4" d="M99.24,50.9c-.16-.23-.35-.45-.52-.67s-.43-.41-.58-.63a.13.13,0,0,0-.22.12c.08.16.13.44.21.61.14.33.29.65.44,1,.23.49.49,1.13,1,1.33a.28.28,0,0,0,.35-.26C100,51.82,99.52,51.32,99.24,50.9Z"/><path class="cls-4" d="M101,48.05a12.66,12.66,0,0,0-1.18-1.45.14.14,0,0,0-.23.13,13,13,0,0,0,.74,1.71c.24.49.49,1.19,1,1.43a.3.3,0,0,0,.45-.26C101.78,49,101.28,48.51,101,48.05Z"/><path class="cls-4" d="M102.45,45a5.52,5.52,0,0,0-.69-.59c-.15-.11-.3.09-.23.22a5,5,0,0,0,.44.74c.17.24.26.47.57.54a.26.26,0,0,0,.32-.25C102.85,45.37,102.67,45.25,102.45,45Z"/><path class="cls-4" d="M102.77,40.68a7.62,7.62,0,0,0-1-.65.14.14,0,0,0-.19.19,7.07,7.07,0,0,0,.65,1.05.4.4,0,0,0,.4.11.45.45,0,0,0,.3-.3A.4.4,0,0,0,102.77,40.68Z"/><path class="cls-3" d="M106.11,116.32a28.92,28.92,0,0,0-2.07-2.23,4,4,0,0,0,.47-.64.22.22,0,0,0-.31-.3,3.9,3.9,0,0,0-.64.45c-.24-.25-.48-.5-.7-.76a34.14,34.14,0,0,1-3.13-4.22c-1.85-2.88-2.74-6.07-4.22-9.11a.07.07,0,0,0-.13,0c.25,3.25,2.1,6.7,3.72,9.45a33.43,33.43,0,0,0,3.75,5.28l-.48.5c-.8-.42-1.62-.82-2.43-1.22a7,7,0,0,0,1-1.26c.11-.2-.12-.45-.32-.32a7.78,7.78,0,0,0-1.42,1.22c-.33-.17-.67-.34-1-.52l-.09,0c.55-.55,1.08-1.1,1.58-1.68a.26.26,0,0,0-.37-.36c-.65.52-1.29,1.07-1.91,1.66l-2.23-1.2a14.76,14.76,0,0,0,1.37-2c.07-.13-.08-.22-.18-.14a14.21,14.21,0,0,0-1.87,1.77l-1.12-.58c.3-.38.59-.76.86-1.15.14-.21-.16-.4-.34-.26-.41.34-.8.69-1.2,1.06-.91-.47-1.84-.92-2.77-1.33a.08.08,0,1,0-.08.14c.81.53,1.65,1,2.5,1.51-.51.49-1,1-1.49,1.53-.48-.21-1-.4-1.44-.56-.12,0-.17.12-.08.19.37.27.77.51,1.17.75-1.32,1.44-2.57,3-3.79,4.39a.25.25,0,0,0,.36.35h0c.83-.83,1.7-1.67,2.57-2.53a7.06,7.06,0,0,0,1.36.64,27.67,27.67,0,0,0-2.28,3c-.07.11.08.21.17.13a31.85,31.85,0,0,0,2.79-2.9l.35.12c.58.22,1.17.46,1.77.68q-.72.77-1.44,1.5c-.13.13.06.32.2.2.57-.51,1.16-1,1.75-1.52a10.32,10.32,0,0,0,1.21.33.17.17,0,0,0,.13-.31c-.29-.16-.59-.29-.89-.42.35-.29.69-.6,1-.9.43.23.86.46,1.28.7a15.43,15.43,0,0,0-1.52,1.82.17.17,0,0,0,.23.23,15.45,15.45,0,0,0,1.9-1.72c.81.44,1.63.87,2.46,1.23a3.2,3.2,0,0,0-.35.58c0,.08,0,.2.13.16a2.87,2.87,0,0,0,.81-.5l.66.24c.21.07.29-.22.14-.34l-.39-.26c.32-.32.63-.65.93-.94l.29-.26a18.88,18.88,0,0,0,3.21,1.41c.12,0,.23-.14.13-.22a17.22,17.22,0,0,0-2.7-1.77l.34-.31a13.67,13.67,0,0,0,2.38,2C106.06,117,106.31,116.57,106.11,116.32Zm-13-5.84c.36.2.72.41,1.08.6-.43.5-.85,1-1.26,1.51L91.76,112C92.21,111.51,92.66,111,93.08,110.48Zm-1.71,3.94a7.56,7.56,0,0,0-1.51-.42c.5-.5,1-1,1.48-1.54.38.21.76.42,1.15.62l-.31.38Zm2.86,1c-.54-.2-1.08-.37-1.62-.56l-.56-.21,1.07-1.25,0,0,2.06,1Zm1.4-1.45-.37-.18-1.7-.88c.43-.49.86-1,1.28-1.48L97,112.63C96.55,113.08,96.08,113.54,95.63,114Zm2,.94-1.29-.61c.48-.43,1-.87,1.42-1.31l.22.12.86.49-.82.9Zm3,1.58c-.75-.46-1.54-.88-2.34-1.27l.23-.24,1-1c.76.44,1.52.9,2.3,1.34C101.41,115.73,101,116.11,100.58,116.52Z"/><path class="cls-3" d="M40,107.13a41.15,41.15,0,0,0-4.84,3,.13.13,0,0,0,0,.19l.21.36a.13.13,0,0,0,.22-.13c-.24-.44,1.63-1.3,2-1.55a25.36,25.36,0,0,0,2.59-1.67C40.28,107.25,40.11,107.06,40,107.13Z"/><path class="cls-3" d="M156.86,108.91a11.73,11.73,0,0,0-1.93-2.24l-.41-.42a10.51,10.51,0,0,0,1.35-1.79c.06-.1-.07-.18-.15-.12-.58.45-1.11,1-1.64,1.45-.57-.58-1.14-1.16-1.74-1.7-.1-.09-.22,0-.14.15.5.63,1,1.24,1.57,1.85-.86.83-1.7,1.7-2.62,2.47l-.56.44c-.72-.86-1.45-1.7-2.16-2.54L149,106c.15-.13,0-.35-.2-.26a33.86,33.86,0,0,0-3.33,2.05c-.43-.51-.87-1-1.33-1.48a.09.09,0,0,0-.14.11c.33.57.69,1.11,1.07,1.65-.76.54-1.51,1.09-2.24,1.65a46.29,46.29,0,0,0-3.4-3.32.06.06,0,0,0-.09.09c1,1.23,2,2.38,3.1,3.52l-.51.39c-.17.13,0,.43.18.3l.63-.38.73.78c.54.56,1.06,1.15,1.59,1.73,0,0,0,.12.08.1h0l0,0h-.05a31.19,31.19,0,0,0-4.88,2.24.12.12,0,0,0,.09.21,31.39,31.39,0,0,0,5-2,.19.19,0,0,0,.12-.19,27,27,0,0,0,2.09,2.06c-.53.28-1.07.54-1.65.79-.08,0,0,.16.06.13.62-.19,1.23-.43,1.85-.69h0c.11.08.28,0,.27-.12.62-.28,1.24-.58,1.84-.92.46.59.94,1.17,1.45,1.72a.21.21,0,0,0,.33-.26c-.38-.62-.81-1.21-1.25-1.8a17.63,17.63,0,0,0,2.28-1.65.28.28,0,0,0,.29-.25,14.05,14.05,0,0,0,2.29-2.6c.08-.12-.11-.26-.21-.15-.8.79-1.6,1.53-2.4,2.23-.55-.79-1.14-1.56-1.76-2.31l.06,0a29.9,29.9,0,0,0,3.23-2.78l.13.14a12.71,12.71,0,0,0,2.33,2.36C156.8,109.17,156.92,109,156.86,108.91Zm-8.68-2.26c.64.9,1.28,1.81,1.94,2.71-.72.54-1.45,1.06-2.2,1.56-.67-.87-1.33-1.75-2-2.6C146.69,107.79,147.45,107.23,148.18,106.65Zm-3.88,4.6-1.13-1.19c.77-.47,1.54-1,2.3-1.45.65.88,1.33,1.75,2,2.61-.65.42-1.29.85-1.93,1.28Zm3.58,3.86a24.83,24.83,0,0,0-2.17-2.42,17.34,17.34,0,0,0,2-1.07l0,0c.6.81,1.2,1.64,1.82,2.45C149.05,114.45,148.48,114.79,147.88,115.11Zm4.4-3c-.7.59-1.41,1.14-2.15,1.66-.62-.81-1.27-1.6-1.89-2.4.75-.48,1.49-1,2.2-1.55C151,110.57,151.64,111.34,152.28,112.07Z"/><path class="cls-3" d="M121.49,150.94a12.09,12.09,0,0,0-2.6-1.75c-.14-.08-.25.13-.12.22a11.78,11.78,0,0,0,2.58,1.76C121.49,151.23,121.58,151,121.49,150.94Z"/><path class="cls-3" d="M201.36,42.72a16,16,0,0,0-3.23,2.76.22.22,0,0,0,0,.35,1.9,1.9,0,0,1,.44.3.11.11,0,0,0,.16-.16,2.31,2.31,0,0,1-.19-.28,14.81,14.81,0,0,0,2.95-2.8C201.61,42.79,201.47,42.67,201.36,42.72Z"/><path class="cls-3" d="M174.75,153.82c-.51-1-1.08-1.89-1.67-2.82.67-.37,1.18-.66,1.34-.77a.21.21,0,0,0-.21-.36c-.47.22-.94.45-1.41.7-1.09-1.68-2.24-3.33-3.34-5l.08-.06a.22.22,0,0,0-.27-.35l-.06,0c-.35-.55-.7-1.1-1-1.66-2.07-3.51-3.76-7.21-5.72-10.78,0,0-.07,0-.06,0a72.7,72.7,0,0,0,5.36,11l1,1.73c-1,.65-2,1.35-3,2.09q-1.52-1.93-3-3.9c.85-.61,1.69-1.26,2.46-1.93.16-.13-.05-.37-.22-.28-.9.48-1.81,1-2.7,1.61-.75-1-1.49-2-2.21-3.08-.16-.22-.3-.44-.45-.67.62-.4,1.23-.81,1.83-1.25a.17.17,0,0,0-.17-.29c-.67.33-1.33.69-2,1.06-1-1.54-2-3.11-3-4.69.59-.48,1.16-1,1.72-1.46.16-.13-.05-.39-.22-.28-.6.4-1.2.82-1.8,1.24-1-1.7-2.05-3.41-3.1-5.1,2-1.49,4-3.11,5.83-4.77.21.28.41.56.64.83,0,.05.13,0,.11-.07a36.41,36.41,0,0,0-2.55-4.77c.48-.35.95-.72,1.4-1.11.17-.15,0-.4-.23-.3a17.06,17.06,0,0,0-1.48.89c-1.24-2.07-2.81-4.26-2.83-6.73a.09.09,0,0,0-.18,0c-.68,2.19.42,3.88,1.55,5.72l.87,1.42-1.61,1.13A20.8,20.8,0,0,0,151,123.5c-.07.07,0,.22.1.18a20.66,20.66,0,0,0,3.75-2.35l1.62-1.12c.68,1.14,1.39,2.28,2.18,3.35-2,1.44-4,3-5.84,4.68-.37-.6-.75-1.21-1.14-1.81-.05-.08-.16,0-.12.08q.45,1,1,2c-.41.37-.81.73-1.2,1.1-.06,0,0,.16.09.11.42-.29.84-.6,1.26-.91.9,1.78,1.9,3.51,2.95,5.22a48.17,48.17,0,0,0-4.93,4c-.07.07,0,.2.11.14a45.44,45.44,0,0,0,5.14-3.67c1,1.55,2,3.08,3,4.59-.37.21-.73.41-1.09.63a12.15,12.15,0,0,0-2.95,2h0a.13.13,0,0,0,.12.21,11.84,11.84,0,0,0,3.15-1.69c.37-.22.73-.46,1.1-.69l.44.66c.7,1,1.42,2.09,2.15,3.14-1,.72-2.07,1.49-3,2.27-.2.17.05.46.26.35,1.07-.59,2.15-1.25,3.2-2,.94,1.34,1.92,2.67,2.93,4-.47.39-.93.78-1.37,1.18-.16.15,0,.4.23.3.51-.31,1-.63,1.53-1,1.14,1.45,2.32,2.85,3.56,4.18l-1,.66a.21.21,0,0,0-.09.23c.07.35,0,.28.3.52a.12.12,0,0,0,.19-.15c-.07-.13.37-.47,1-.9a.26.26,0,0,0,.3-.19c.76-.48,1.72-1,2.57-1.51a25.88,25.88,0,0,0,2.13,2.6A.15.15,0,0,0,174.75,153.82Zm-5.2-1.35c-1.11-1.46-2.24-2.9-3.36-4.35,1-.68,1.9-1.42,2.8-2.17a58.61,58.61,0,0,0,3.09,5C171.22,151.44,170.38,152,169.55,152.47Z"/><path class="cls-3" d="M179,153.14a50,50,0,0,0-3.51-5.29c-1.34-1.93-2.67-3.88-4.09-5.75-.08-.11-.26,0-.19.1,1.21,2,2.53,4,3.83,5.92a47.85,47.85,0,0,0,3.65,5.26C178.86,153.56,179.11,153.33,179,153.14Z"/><path class="cls-3" d="M184.14,150.63a35,35,0,0,0-2.7-2.75,26.91,26.91,0,0,1-2.87-3.61.12.12,0,0,0-.2.12c1.3,2.26,3.14,5.25,5.55,6.46C184.05,150.91,184.24,150.77,184.14,150.63Z"/><path class="cls-4" d="M189,145.93a8.28,8.28,0,0,0-.88-1.33c-.17-.24-.57,0-.39.23a7.56,7.56,0,0,0,1,1.31C188.87,146.28,189.06,146.1,189,145.93Z"/><path class="cls-3" d="M158.71,111.55a8.69,8.69,0,0,0-1.34-2.75.22.22,0,0,0-.36.15,8.65,8.65,0,0,0,1.1,2.85,28.18,28.18,0,0,0,1.77,3.46.09.09,0,0,0,.17-.07A27.33,27.33,0,0,0,158.71,111.55Z"/><path class="cls-3" d="M162.68,106.93c-.05-.37,0-.77-.33-1a.15.15,0,0,0-.22.06c-.22.3,0,.67,0,1a6.47,6.47,0,0,0,.41,1.34c0,.08.15,0,.15,0A6.26,6.26,0,0,0,162.68,106.93Z"/><path class="cls-3" d="M159.18,152.45a9.32,9.32,0,0,0,2.42-1.54.12.12,0,0,0-.12-.2,9,9,0,0,0-2.55,1.23c-.43-.87-.85-1.74-1.25-2.61-.11-.22-.21-.45-.31-.68.65-.32,1.29-.65,1.92-1,.22-.13.07-.53-.19-.44-.68.26-1.34.56-2,.87-.77-1.7-1.53-3.41-2.32-5.11l.23-.24a.1.1,0,0,0-.1-.17l-.28.09c-.7-1.5-1.42-3-2.23-4.42a0,0,0,0,0-.09,0c.55,1.53,1.2,3,1.88,4.54a19.72,19.72,0,0,0-3.67,2.2c-.45-1.34-.84-2.7-1.16-4.08-.07-.25-.49-.13-.39.11l.14.72s0,0,0,0a34.15,34.15,0,0,0,1,3.5c-.29.2-.57.4-.86.58a34.12,34.12,0,0,0-5.42,3.7c-.08.08,0,.24.12.19a33.71,33.71,0,0,0,5.64-3.31c.25-.16.51-.31.77-.46.36,1,.75,2,1.18,3,.21.47.44.95.67,1.44a12.94,12.94,0,0,0-2.24,1.35s0,.11.05.1a12.08,12.08,0,0,0,2.45-.92A17.67,17.67,0,0,0,156,156a.16.16,0,0,0,.25-.2c-.24-.48-.52-.94-.8-1.4,1.09-.5,2.13-1.1,3.18-1.68a53.5,53.5,0,0,0,3.26,6.67.14.14,0,0,0,.26-.11A51.43,51.43,0,0,0,159.18,152.45Zm-6.89-3.18a31.29,31.29,0,0,1-1.5-3.54,21.5,21.5,0,0,0,3.62-2.41c.75,1.65,1.54,3.28,2.27,4.92v0l-2.25,1.1-1.67.79C152.6,149.86,152.44,149.57,152.29,149.27Zm3,4.84c-.72-1.15-1.48-2.27-2.18-3.44l1-.49c.95-.44,1.92-.87,2.87-1.33.49,1.12,1,2.26,1.45,3.41C157.35,152.86,156.26,153.44,155.25,154.11Z"/><path class="cls-3" d="M131,150.63a44.89,44.89,0,0,0-6.45,2.24,24.67,24.67,0,0,1-1-3.35l.49.56s.09,0,.06-.05a8.42,8.42,0,0,1-.72-1.14.18.18,0,0,0-.32.09,12.94,12.94,0,0,0,.91,4.14c-.63.28-1.25.58-1.85.88-.07,0,0,.14,0,.13.66-.16,1.33-.35,2-.55a11.29,11.29,0,0,0,2,3.12c.1.11.26,0,.2-.16-.51-1.06-1.09-2.07-1.58-3.14a44.78,44.78,0,0,0,6.32-2.53C131.22,150.81,131.12,150.6,131,150.63Z"/><path class="cls-3" d="M135.11,109.82c-.28-.52-.57-1-.87-1.54a.06.06,0,1,0-.1.06c.23.54.49,1.08.75,1.61a5.48,5.48,0,0,0,.75,1.39c.07.08.19,0,.17-.1A5.52,5.52,0,0,0,135.11,109.82Z"/><path class="cls-3" d="M135.55,116.43a85.26,85.26,0,0,0-9.52,4.51c-.25-.31-.49-.63-.73-1-.68-.91-1.35-1.84-2-2.76,2.06-.82,4.13-1.66,6.17-2.54.12.17.23.33.33.49a7.7,7.7,0,0,0,1.36,1.79c.12.09.36,0,.3-.18a7.63,7.63,0,0,0-1.25-1.85l-.32-.43c1.26-.54,2.51-1.11,3.73-1.72a.16.16,0,0,0-.12-.3c-1.37.44-2.71.93-4.05,1.44a5,5,0,0,0-.66-.71c-.06-.06-.19,0-.15.08a4.9,4.9,0,0,0,.42.78c-1.59.62-3.17,1.27-4.75,1.93a.44.44,0,0,0,0-.15,10.6,10.6,0,0,1-.54-1l0,0c-1.78-3.13-4.1-6.71-6.9-8.78-.08-.06-.17,0-.13.13a50.91,50.91,0,0,0,3.33,4.72c1.22,1.77,2.31,3.62,3.41,5.47l0,0-.57.24c-.44-.58-.89-1.15-1.36-1.7a.1.1,0,0,0-.16.12c.35.6.73,1.17,1.11,1.75l-1.33.55-3.36,1.34c-.57-.79-1.14-1.58-1.75-2.33-.06-.07-.17,0-.12.1.45.81.93,1.61,1.43,2.4-1.17.46-2.35.93-3.52,1.41-.91-1.4-1.85-2.78-2.85-4.11a.1.1,0,0,0-.17.11c.74,1.44,1.57,2.85,2.42,4.25-1.51.64-3,1.31-4.43,2a.23.23,0,0,0-.1.17V123a.07.07,0,0,0,.11.06,12.93,12.93,0,0,1,2.91-1.13l1.89-.76c.94,1.53,1.91,3,2.85,4.56a28.8,28.8,0,0,0-3.69,2.33c-.07.06,0,.19.07.16a28.9,28.9,0,0,0,4.16-1.59c.89,1.45,1.76,2.91,2.67,4.37a24,24,0,0,0-4,3.67c-.09.1,0,.3.16.2l.55-.42a35,35,0,0,0,3.11,5.62,8.15,8.15,0,0,0-1.26.89c-.09.07,0,.18.1.17a7.88,7.88,0,0,0,1.49-.49,27.65,27.65,0,0,0,3.27,5,.24.24,0,0,0,.4-.23,27.46,27.46,0,0,0-3-5.13c.54-.26,1.06-.54,1.59-.79a41.84,41.84,0,0,0,4.77-2.54c.17-.11.06-.41-.14-.33a40.81,40.81,0,0,0-4.37,2c-.72.36-1.49.7-2.23,1.09a35,35,0,0,0-3.63-5.36l3.56-2.69c.89,1.41,1.81,2.8,2.8,4.11a.21.21,0,0,0,.37-.21c-.76-1.5-1.62-3-2.52-4.38,1.07-.78,2.14-1.56,3.23-2.33.71,1,1.44,2.07,2.21,3.06.14.18.41-.05.31-.24-.64-1.11-1.33-2.18-2-3.25a.18.18,0,0,0-.11-.17c-.89-1.33-1.82-2.65-2.73-4q1.28-.69,2.55-1.32L126,122a25.57,25.57,0,0,0,2.6,3.41c.19.2.49-.06.37-.29a24.31,24.31,0,0,0-2.32-3.43,81.83,81.83,0,0,0,9.12-4.84C136,116.74,135.82,116.33,135.55,116.43Zm-21.4,4.48.92-.36,2.6-1.06c.91,1.41,1.86,2.79,2.79,4.18-1.17.55-2.35,1.12-3.49,1.72C116,123.9,115.11,122.4,114.15,120.91Zm9.5,7.58a26.54,26.54,0,0,0-3.41,2c-.89-1.4-1.81-2.8-2.69-4.2,1.17-.56,2.33-1.18,3.48-1.79h0C121.91,125.85,122.76,127.18,123.65,128.49Zm.62-6.64c-1.08.54-2.2,1.06-3.32,1.59-.94-1.37-1.86-2.77-2.82-4.14l3.12-1.26,1.55-.63c.66,1,1.34,1.92,2,2.87l.65,1Z"/><path class="cls-3" d="M98.77,160.5A17.84,17.84,0,0,0,97,157.62a10.47,10.47,0,0,0,1.49-1.56c.2-.26-.18-.62-.44-.44-.57.39-1.13.77-1.69,1.13-.45-.6-.91-1.21-1.32-1.82-1.26-1.85-2.46-3.75-3.64-5.66-2.36-3.81-4.46-7.76-6.58-11.72,0-.09-.17,0-.13.08a108.18,108.18,0,0,0,6.18,12c.41.69.84,1.38,1.27,2.07a20,20,0,0,0-3.77,1.86l-.17.09c-.93-1.57-2-3.09-3-4.6a12.42,12.42,0,0,0,1.26-.89c.24-.2,0-.58-.29-.5a10.39,10.39,0,0,0-1.52.59c-.56-.8-1.1-1.59-1.63-2.38s-1.19-1.84-1.79-2.78c.87-.43,1.76-.83,2.63-1.26.25-.13.06-.49-.19-.44a12.74,12.74,0,0,0-2.91,1c-1.1-1.72-2.22-3.44-3.43-5.06l.1-.05a25,25,0,0,0,5.16-2.61.18.18,0,0,0-.14-.33,18.37,18.37,0,0,0-4.11,1.64c-.49.23-1,.45-1.52.68-.27-.35-.54-.69-.82-1,0,0-.07,0,0,0,.19.38.39.75.59,1.12a16.78,16.78,0,0,0-3.33,1.84.14.14,0,0,0,.1.25,17.38,17.38,0,0,0,3.63-1.38c1,1.76,2.11,3.46,3.25,5.15-.4.2-.79.41-1.17.64a18.75,18.75,0,0,0-1.82,1.16,28.05,28.05,0,0,0-6.68-5.67.14.14,0,0,0-.17.22c1.36,1.28,2.8,2.46,4.13,3.77.72.71,1.39,1.47,2.06,2.22a4.53,4.53,0,0,0-1,1.18c0,.1,0,.23.14.19a6.22,6.22,0,0,0,1.41-.71c.39.41.78.81,1.2,1.19a.24.24,0,0,0,.38-.29,16.12,16.12,0,0,0-.92-1.35c.56-.4,1.11-.81,1.67-1.14.4-.23.81-.45,1.22-.66.62.93,1.25,1.86,1.85,2.79.51.78,1,1.58,1.49,2.38-.65.32-1.29.68-1.92,1-1.09.59-2.58,1.1-3.24,2.19a.13.13,0,0,0,.11.2c1.28.05,2.55-.91,3.66-1.48.65-.34,1.31-.68,1.94-1,1,1.55,1.93,3.11,3,4.59a10,10,0,0,0-3.11,2.16.16.16,0,0,0,.15.27,10.83,10.83,0,0,0,3.56-1.63c.43.57.87,1.13,1.34,1.67.09.11.24,0,.19-.15-.3-.62-.62-1.23-1-1.84a20.78,20.78,0,0,0,3.7-2.37h0c.68,1.07,1.36,2.14,2.06,3.2.41.61.81,1.26,1.23,1.9A25.6,25.6,0,0,1,91,159.53c-.25.09-.47.43-.27.68l.28.37a.14.14,0,0,0,.21,0c.38-.48,1.65-.65,2.21-.89a17.06,17.06,0,0,0,1.77-.87,12.37,12.37,0,0,0,1.11-.71,14.87,14.87,0,0,0,2.18,2.59A.19.19,0,0,0,98.77,160.5Z"/><path class="cls-3" d="M85.07,126.05a44.08,44.08,0,0,0-4.33,1.61,16.77,16.77,0,0,0-4.07,2,.11.11,0,0,0,.08.18A16.48,16.48,0,0,0,81,128.39a44.34,44.34,0,0,0,4.19-1.95A.21.21,0,0,0,85.07,126.05Z"/><path class="cls-3" d="M123.38,157.63a.12.12,0,0,0-.17-.17,4.39,4.39,0,0,0-.51.32,17.31,17.31,0,0,0-2.63-2.12l-.5-.39a20.55,20.55,0,0,0,1.69-2c.17-.22-.18-.46-.37-.28a22.44,22.44,0,0,0-1.82,2c-.87-.66-1.75-1.31-2.67-1.88a.12.12,0,0,0-.14.18c.79.74,1.64,1.41,2.5,2.07l-1.29,1.55c-1,1.17-2,2.32-3,3.57-.08.11.09.22.18.14,1.25-1.19,2.36-2.51,3.51-3.78l1-1.11.14.11a21.07,21.07,0,0,0,3.06,2.24,33.58,33.58,0,0,0-3.06,3l-.76.76c-.92-.62-1.85-1.25-2.82-1.79-.1-.06-.23.09-.13.17.85.68,1.74,1.31,2.64,1.93-.9.89-1.78,1.8-2.65,2.73-.67-.77-1.41-1.48-2.12-2.2-.92-.93-1.8-1.92-2.76-2.82l.52-.46c.18-.16-.05-.47-.25-.33l-.63.47-.62-.56c-.07,0-.2,0-.13.11s.33.43.5.64q-2.55,1.88-5,3.87c-1-.94-2-1.86-3-2.76a.12.12,0,0,0-.17.17c.89,1,1.81,1.95,2.74,2.9-1.59,1.29-3.16,2.59-4.73,3.88q-1.83-1.92-3.77-3.71a23.27,23.27,0,0,0,2.22-1.95.13.13,0,0,0-.15-.2,23.07,23.07,0,0,0-2.73,1.53c-1.11-1-2.23-2-3.34-2.92-.1-.08-.23.05-.14.14,1,1,2,2.06,3,3.08-1.35.91-2.67,1.91-4,2.9-1.06-1.18-2.13-2.35-3.24-3.49,1.29-.58,2.58-1.18,3.82-1.86.18-.09,0-.38-.14-.32a27.1,27.1,0,0,0-4.26,1.6c-1.38-1.39-2.79-2.75-4.25-4.05-.12-.11-.29.06-.18.17,1.34,1.35,2.65,2.73,3.95,4.11-1.36.66-2.7,1.37-4,2.06l-.06,0a42,42,0,0,0-4.47-4.39s-.12,0-.09.07a40.45,40.45,0,0,0,3.84,4.7c-1.22.65-2.45,1.32-3.65,2.06l-1.35-1.53c-.42-.47-1-1.44-1.62-1.68a0,0,0,0,0,0-.06l-.38-.38c-.11-.11-.33.05-.23.18,1,1.28,2,2.53,3,3.78a28.77,28.77,0,0,0-3.7,2.7c-.08.06,0,.17.1.13,1.37-.71,2.7-1.51,4-2.32q1.48,1.78,3,3.55c.36.42.72.86,1.08,1.3l-2.88,2.12-.82.48-.68.36c-1.81-1.77-3.62-3.56-5.5-5.24-.18-.16-.49,0-.34.25l.41.58a.06.06,0,0,0,.11,0c1.54,1.61,3.14,3.17,4.74,4.74a6.56,6.56,0,0,0-2.61,1.94.08.08,0,0,0,.06.11,7.32,7.32,0,0,0,3.21-1.4l.27.26c1,1,2,2.2,3.13,3.28-.36.28-.81.59-1.22.93-.51-.34-1-.68-1.54-1-.13-.08-.25,0-.23.18s0,.54.05.8c0,0,.06,0,.06,0a2.38,2.38,0,0,1,.12-.59c.39.31.79.61,1.19.91a2.82,2.82,0,0,0-.57.71.2.2,0,0,0,.07.26.46.46,0,0,0,.28.08c.09,0,.11-.14,0-.17.1,0,.47-.29.71-.5l.81.59.64.48a4.39,4.39,0,0,0-.38.61c0,.08,0,.14.11.11a4,4,0,0,0,.68-.41,7.12,7.12,0,0,0,1.76,1c.12,0,.18-.12.12-.2A7,7,0,0,0,82.81,183c.3-.26.59-.55.87-.84a7,7,0,0,0,.63.38.09.09,0,0,0,.13-.12c-.12-.21-.26-.42-.4-.62l.11-.1A33.09,33.09,0,0,0,87,178.87l0,0,.3-.23c.4.41.8.81,1.22,1.19.17.16.48,0,.34-.26-.31-.47-.64-.92-1-1.37,1.16-.88,2.32-1.77,3.46-2.67a45.68,45.68,0,0,0,3.28,3.25c.18.16.51-.05.35-.27a44.2,44.2,0,0,0-2.93-3.53l3-2.41c1.16,1.58,2.31,3.17,3.54,4.68-.4.27-.82.54-1.22.83a.12.12,0,0,0,.13.21c.45-.24.89-.5,1.34-.75.35.42.7.85,1.07,1.26.16.17.41,0,.31-.24-.23-.46-.49-.92-.76-1.37,1.73-1,3.43-2,5.13-3.09.24.27.48.54.73.8s.52-.07.37-.28l-.61-.83,3.23-2c.86-.52,1.74-1,2.62-1.55a19.71,19.71,0,0,0,1.64,1.41c.17.13.43-.13.3-.3-.4-.51-.84-1-1.29-1.49,1.46-.84,2.93-1.7,4.35-2.61l1.56,1-.31.27-1.8,1.58-1.4-.82a.16.16,0,0,0-.24.18c0,.26.07.52.11.78,0,0,.1,0,.1,0s.05-.35.07-.52c.31.25.62.5.94.74-.83.74-1.66,1.48-2.47,2.24-.08.08,0,.26.13.21l.56-.23a.08.08,0,0,0,0-.16c.5-.12,1.31-1.07,1.71-1.41.16-.12.31-.25.46-.38.81.62,1.65,1.24,2.5,1.79l-.17.11a8.15,8.15,0,0,0-1.65,1.27,0,0,0,0,0,0,0,7.78,7.78,0,0,0,1.79-1l.31-.2.89.52c.26.14.57-.23.33-.43s-.41-.33-.62-.49a9.38,9.38,0,0,0,.8-.61c.11-.08,0-.23-.13-.17-.33.17-.65.36-1,.56-.84-.63-1.75-1.21-2.66-1.77l1.22-1c.3-.27.62-.52.94-.78a7.78,7.78,0,0,0,2.08,1.12.14.14,0,0,0,.14-.24,6.62,6.62,0,0,0-1.83-1.21,24.5,24.5,0,0,0,3.35-3.06c.1-.11,0-.3-.16-.21a26.94,26.94,0,0,0-3.67,3c-.52-.3-1.05-.6-1.58-.88,1-.64,1.92-1.29,2.81-2,.22-.16-.06-.45-.27-.35-.8.38-1.59.8-2.37,1.24a.22.22,0,0,0,0-.15c-.18-.23-.36-.45-.55-.66,1-.88,1.93-1.78,2.87-2.69l.34.24a17,17,0,0,0,3.55,2.31c.13.05.21-.13.13-.23a15.07,15.07,0,0,0-3-2.17l-.69-.46a2.39,2.39,0,0,1,.23-.22C120.65,160.54,122.43,159.26,123.38,157.63Zm-35.95,5.71c1.1,1.19,2.18,2.41,3.24,3.64-.64.49-1.28,1-1.91,1.42l-1.7,1.23,0,0c-1.26-1.37-2.5-2.83-3.78-4.27C84.61,164.62,86,164,87.43,163.34Zm-5.1,8.38q-1.65-1.91-3.32-3.8l-.1-.12c1.19-.73,2.39-1.45,3.62-2.11,1.19,1.28,2.41,2.53,3.55,3.8l.45.52-3.48,2.52Zm0,11-.39-.26-1-.71,1.1-.88c.39.35.78.69,1.18,1A11.5,11.5,0,0,0,82.3,182.68ZM84,181l-.33.32a14.42,14.42,0,0,0-1-1.11,10.42,10.42,0,0,0,1-.81,6.18,6.18,0,0,0,1.09.88Zm2.91-2.49a.17.17,0,0,0-.21,0A19.37,19.37,0,0,0,85.06,180a5.19,5.19,0,0,0-1-.93,5,5,0,0,0,.46-.57c.06-.09-.06-.17-.14-.13a5.41,5.41,0,0,0-.71.38,4.24,4.24,0,0,0-1.37-.92c-.06,0-.11.06-.08.12a3.73,3.73,0,0,0,1,1.1q-.48.36-.93.75c-1.13-1.1-2.38-2.12-3.41-3.12a1.37,1.37,0,0,1-.17-.17l.46-.27a32.47,32.47,0,0,0,4-2.47c1.28,1.58,2.57,3.17,4,4.62Zm.76-.65c-1.35-1.76-2.9-3.41-4.38-5.06l3.56-2.44c1.36,1.55,2.72,3.16,4.12,4.7C89.88,176,88.78,177,87.69,177.89Zm4-3.37c-1.4-1.52-2.86-3-4.25-4.51l1.63-1.12c.67-.46,1.37-.92,2.08-1.38.25.28.5.56.74.85,1,1.18,1.93,2.42,2.85,3.66Zm1.08-6.12c-.35-.42-.72-.83-1.08-1.24,1.39-.9,2.8-1.81,4.12-2.8,1,1.06,2.09,2.13,3.11,3.22l.54.61-.53.43-3.54,2.87C94.49,170.44,93.6,169.41,92.75,168.4Zm6.53,8.37A44.49,44.49,0,0,0,95.77,172l2.47-2,1.66-1.31c1.46,1.62,2.86,3.3,4.32,4.92C102.55,174.64,100.9,175.68,99.28,176.77Zm8.78-5.53c-1.09.69-2.19,1.36-3.29,2-1.32-1.73-2.76-3.42-4.28-5.05,1.61-1.27,3.22-2.54,4.81-3.82l2.15,2.18c1,1,2,2.09,3,3.1C109.66,170.22,108.86,170.74,108.06,171.24Zm8-5.23.1,0c-.27.15-.53.31-.79.47l0,0c-.11-.05-.18.05-.15.14-1.38.84-2.75,1.74-4.1,2.64-1-1.07-2.17-2.07-3.22-3.1l-2.16-2.1q2.43-2,4.77-4c.64.74,1.32,1.44,2,2.16.92,1,1.81,2.08,2.8,3-.14.15-.28.28-.41.43a.13.13,0,0,0,.18.18c.16-.13.3-.27.45-.4C115.67,165.64,115.87,165.83,116.08,166Z"/><path class="cls-3" d="M70.12,165.49c1.07-.84,2.12-1.68,3.13-2.57.22-.2-.06-.54-.3-.4a32.94,32.94,0,0,0-3.5,2.3c-.58-.57-1.17-1.14-1.74-1.72L66.63,162c.6-.5,1.21-1,1.79-1.51.14-.12,0-.35-.19-.25-.68.43-1.35.89-2,1.35Q63.61,159,61,156.43c-.1-.1-.25.06-.16.16q2.45,2.68,4.92,5.35c-2.35,1.63-4.63,3.36-6.91,5.1-2-2.5-4.11-5-6.21-7.43-.06-.07-.19,0-.13.11,1.87,2.51,3.76,5,5.7,7.47l.16.21-1.51,1.16c-1.13.85-2.33,1.7-3.53,2.56l-1.26-1.63c-1.92-2.53-3.84-5.05-5.84-7.52,0-.06-.14,0-.1.08,1.77,2.61,3.61,5.16,5.46,7.72.41.56.82,1.14,1.22,1.72-1.28.92-2.55,1.86-3.75,2.85-1.33-1.81-2.86-3.53-4.22-5.27-2.21-2.83-4.4-5.72-6.78-8.41a.09.09,0,0,0-.14.1c1.88,2.78,4,5.43,6,8.09,1.49,1.94,2.91,4.08,4.51,6a27.44,27.44,0,0,0-2.15,2c-.08.08,0,.21.13.16A23.11,23.11,0,0,0,49,175.44c.42.48.85.95,1.3,1.39a.19.19,0,0,0,.29-.23c-.31-.54-.65-1.06-1-1.59.79-.59,1.58-1.21,2.36-1.79l1.4-1c1.07,1.53,2.16,3,3.35,4.47-.19.24-.38.48-.55.72-.07.09.06.17.14.11l.65-.56.41.49a.25.25,0,0,0,.39-.29c-.12-.2-.25-.38-.37-.57,1.61-1.39,3.16-2.87,4.71-4.33A26.72,26.72,0,0,0,64.55,175a.21.21,0,0,0,.32-.25,26.2,26.2,0,0,0-2.19-3.12c.61-.57,1.22-1.13,1.85-1.68,1.59-1.38,3.28-2.65,5-3.94a32.66,32.66,0,0,0,3.39,3.27c.2.16.57,0,.39-.29A33.33,33.33,0,0,0,70.12,165.49ZM57.05,176.13c-1-1.49-2.1-2.93-3.21-4.36l4-3,1-.75c.88,1.15,1.74,2.36,2.65,3.53A42.53,42.53,0,0,0,57.05,176.13ZM64,169.38,62.16,171c-.93-1.12-1.9-2.21-2.8-3.31,2.3-1.72,4.6-3.44,6.83-5.26l.57.62c.69.74,1.38,1.51,2.08,2.27C67.16,166.6,65.55,168,64,169.38Z"/><path class="cls-3" d="M81,164.54c-1.67-2.56-4.19-4.73-6.3-6.93l-1.92-2c.79-.54,1.53-1.18,2.26-1.71a31.62,31.62,0,0,0,3.84-3,.27.27,0,0,0-.32-.42,34,34,0,0,0-4.34,3.15c-.62.47-1.3.92-1.93,1.42-1.5-1.57-3-3.14-4.55-4.68a.11.11,0,0,0-.16.16c1.41,1.64,2.86,3.25,4.31,4.86a6.63,6.63,0,0,0-.93,1c0,.07,0,.16.1.13a6,6,0,0,0,1.27-.63l1.93,2.14c2,2.27,4,4.94,6.44,6.79C80.9,165,81.13,164.72,81,164.54Z"/><path class="cls-3" d="M105.45,160c-.86-1.93-2.81-3.61-4.07-5.32a63,63,0,0,1-4-6.21.1.1,0,0,0-.18.1,67.45,67.45,0,0,0,3.74,6.36c1.14,1.71,2.52,4.18,4.29,5.28C105.38,160.28,105.51,160.11,105.45,160Z"/><path class="cls-3" d="M113,158.94c-1.84-2.55-4.51-4.7-6.72-6.93a.1.1,0,0,0-.14.14c2.07,2.33,4.06,5.11,6.48,7.08C112.83,159.39,113.18,159.18,113,158.94Z"/><path class="cls-4" d="M157,180.09c-.14-.14-.34.07-.22.22a41.19,41.19,0,0,1,3.52,5.16c.93,1.64,1.55,3.46,2.52,5.08a.23.23,0,0,0,.41-.18C162.5,186.59,159.59,182.84,157,180.09Z"/><path class="cls-3" d="M116.68,217.32c-1.36-2.47-3.13-4.76-4.7-7.13a29.91,29.91,0,0,0,2.33-2.31c.17-.18,0-.51-.27-.36-.87.59-1.71,1.24-2.54,1.93l-.1-.15c-1.82-2.9-3.47-5.9-5.15-8.89-.06-.12-.22,0-.17.1.23.47.46.94.7,1.41h0a27.33,27.33,0,0,0-3.85,2.23c-1.14-2.05-2.23-4.13-3.51-6.08a0,0,0,0,0-.06,0,31.65,31.65,0,0,0,3.05,6.39l-.27.17a31.2,31.2,0,0,0-3.91,2.7.11.11,0,0,0,.11.19,30.54,30.54,0,0,0,4.14-2.31l.28-.17c.59,1,1.19,1.91,1.77,2.82,1,1.65,2.13,3.35,3.32,5l-.85.89c-.11.12,0,.33.18.23l1-.7a29.49,29.49,0,0,0,3,3.52c.2.2.58-.07.41-.32-.89-1.26-1.83-2.48-2.78-3.7.93-.69,1.85-1.43,2.73-2.21a43.17,43.17,0,0,0,4.71,7.06C116.46,217.88,116.82,217.58,116.68,217.32Zm-8.26-5c-1.19-1.52-2.36-3.05-3.43-4.66-.61-.93-1.18-1.89-1.72-2.85A28.59,28.59,0,0,0,107,202.3c1.24,2.47,2.59,4.89,4,7.27l.13.23C110.16,210.59,109.27,211.43,108.42,212.28Z"/><path class="cls-3" d="M123.72,218.08a69.81,69.81,0,0,0-4.29-6.05c-1.53-2.23-3-4.51-4.33-6.85a.13.13,0,0,0-.22.12c1.23,2.41,2.53,4.78,4,7.06a29.54,29.54,0,0,0,4.42,6.06A.28.28,0,0,0,123.72,218.08Z"/><path class="cls-3" d="M132.27,217.18c-3.24-3.16-6.59-5.92-9.37-9.56-.08-.1-.25,0-.17.1,2.52,3.58,5.55,7.42,9.28,9.8C132.22,217.66,132.45,217.35,132.27,217.18Z"/><path class="cls-3" d="M157.4,195.25a45.39,45.39,0,0,0-3.43-6.41l-.39-.7c1-.63,2-1.29,2.92-2,.27-.22-.08-.59-.35-.46-1,.5-2,1.06-3,1.66-1-1.81-2-3.62-3.07-5.38-.06-.11-.23,0-.17.11.88,1.87,1.85,3.7,2.81,5.53-1.62,1-3.2,2-4.79,3l-.52.32c-.21-.35-.42-.69-.62-1.05a55,55,0,0,1-2.82-5.9,15.93,15.93,0,0,0,1.91-1.65.22.22,0,0,0-.26-.34,16.58,16.58,0,0,0-2,1.14c-.27-.69-.54-1.39-.79-2.09-.06-.16-.31-.09-.25.07.24.73.49,1.47.76,2.21-1.43,1-2.79,2.1-4.15,3.09l-.66.48c-.06-.11-.12-.22-.17-.33-1.19-2.38-2.28-4.8-3.29-7.26A11.9,11.9,0,0,0,137,178c.11-.09,0-.25-.13-.22a10.69,10.69,0,0,0-2.12.74c-.55-1.38-1.08-2.77-1.57-4.16-.05-.13-.25-.08-.21.05.46,1.43,1,2.84,1.47,4.24-1.24.59-2.44,1.32-3.61,1.93-.47.24-.94.48-1.4.73-.25-.49-.5-1-.73-1.46-.86-1.78-1.59-3.65-2.32-5.51l.29-.09c2-.62,4.28-1.06,6.09-2.15a.15.15,0,0,0-.08-.27c-2.1.16-4.19,1.11-6.19,1.75l-.36.12a53.19,53.19,0,0,0-2.49-5.6.09.09,0,0,0-.16.06,29.88,29.88,0,0,0,1.81,5.8,31.8,31.8,0,0,0-5.53,2c-.09,0,0,.16.06.15a34.7,34.7,0,0,0,5.75-1.55c.72,1.7,1.51,3.38,2.24,5,.3.68.61,1.38.93,2.08-1.42.74-2.82,1.49-4.19,2.3a3.34,3.34,0,0,0,.57-.73.15.15,0,0,0-.17-.22c-1.22.37-2.23,1.49-3.22,2.27l-1.13.93c-1.15-1.65-2.44-3.22-3.66-4.8l-1.29-1.66c.81-.29,1.61-.62,2.4-.92a12.8,12.8,0,0,0,3.55-1.6.14.14,0,0,0-.1-.24,14.68,14.68,0,0,0-4.22,1.41l-2,.81c-1.33-1.72-2.67-3.44-4.09-5.1-.07-.08-.22,0-.16.12,1.18,1.78,2.45,3.5,3.72,5.22a11.61,11.61,0,0,0-1.52.81.08.08,0,0,0,.06.14A13.07,13.07,0,0,0,115,180c.31.42.63.84.94,1.27,1.33,1.8,2.62,3.68,4.06,5.42l-.46.38c-.28.23-.56.46-.83.71s-.65.75-.59.06c0,0,0,0-.06,0,0,.25-.1.49-.16.74a.11.11,0,0,0,.16.12,18.48,18.48,0,0,0,2.33-1.55c.29.33.57.67.86,1a.22.22,0,0,0,.34-.26c-.22-.37-.47-.73-.72-1.1l1.2-.92c.68-.53,1.52-1,2.19-1.65,0,.06.06.12.13.09,1.53-.63,3-1.33,4.52-2.05a46.72,46.72,0,0,0,4.66,8.41c-.23.19-.47.37-.7.57-.08.07,0,.21.12.15.26-.15.51-.31.76-.47l0,0a.26.26,0,0,0,.45-.26s0,0,0,0c1.38-.86,2.72-1.79,4.06-2.72a57.46,57.46,0,0,0,3.49,6.63c-.47.34-.93.67-1.37,1-.18.15,0,.37.22.29.51-.23,1-.48,1.52-.74a20.7,20.7,0,0,0,1.68,2.21c.17.2.44-.05.34-.26a22.43,22.43,0,0,0-1.29-2.35c1.47-.82,2.89-1.73,4.3-2.63a35.59,35.59,0,0,0,3.61,5.33c.23.27.66-.08.48-.37-1.13-1.81-2.35-3.54-3.48-5.35L149,191c1.39-.85,2.8-1.67,4.19-2.54l0,0a51.35,51.35,0,0,0,3.76,7C157.09,195.67,157.52,195.55,157.4,195.25Zm-23.32-5c-1.3-2.86-2.93-5.59-4.4-8.38l.79-.38c1.36-.66,2.87-1.25,4.25-2,.87,2.28,1.81,4.54,2.84,6.76.15.33.31.66.46,1C136.69,188.24,135.36,189.22,134.08,190.26Zm8.41,3.77c-.45-.72-.91-1.43-1.33-2.16-.82-1.42-1.59-2.87-2.34-4.34l.7-.49c1.33-.92,2.78-1.81,4.12-2.8a57.21,57.21,0,0,0,3.15,7.08C145.35,192.2,143.89,193.08,142.49,194Z"/><path class="cls-3" d="M140,208.87a30.25,30.25,0,0,0-3.63-4.46,55.55,55.55,0,0,0-4.27-4.78s-.11,0-.08.05a48.3,48.3,0,0,0,3.56,4.51,32.52,32.52,0,0,0,4.19,4.86A.15.15,0,0,0,140,208.87Z"/><path class="cls-3" d="M132.08,190.12a7,7,0,0,0-2.77,1.09c-1.14.58-2.29,1.15-3.4,1.78-.22.13-.07.51.17.41,1.06-.42,2.1-.91,3.14-1.39a8.24,8.24,0,0,0,3-1.67A.13.13,0,0,0,132.08,190.12Z"/><path class="cls-3" d="M138.06,194.42a6.27,6.27,0,0,0-2.66.86c-.73.32-2,.56-2.32,1.32a.05.05,0,0,0,0,.07c.8.27,1.83-.43,2.58-.73a6.26,6.26,0,0,0,2.47-1.27A.15.15,0,0,0,138.06,194.42Z"/><path class="cls-3" d="M103.42,190.7a68.57,68.57,0,0,0-9.64,5.51c-.14.09-.15.36,0,.39l.37.06a0,0,0,0,0,0,0c-.08-.18,8.59-5.07,9.36-5.62A.18.18,0,0,0,103.42,190.7Z"/><path class="cls-3" d="M83.37,192.45c.1-.13-.06-.32-.21-.27a13.08,13.08,0,0,0-3.41,2.29c-.65.48-1.34,1-2,1.48-.45-.83-.89-1.67-1.31-2.5q-1.56-3.06-3.15-6.11l.15-.09c2.24-1.33,4.78-2.51,6.69-4.31a.14.14,0,0,0-.14-.24c-2.47.86-4.69,2.56-6.91,3.94l-.12.07c-.08-.17-.17-.33-.25-.49a59.33,59.33,0,0,0-3.89-7.14s-.07,0-.06,0a52.8,52.8,0,0,0,3.09,6.76l.57,1.18c-1.67,1-3.37,2-5,3.16-1.29-2.56-2.57-5.14-3.93-7.68a17.47,17.47,0,0,0,5.22-2.85.16.16,0,0,0-.15-.26,18.2,18.2,0,0,0-5.45,2.4c-.69-1.27-1.39-2.54-2.14-3.77-.12-.19-.47-.06-.38.16.55,1.35,1.16,2.68,1.79,4l-.49.25c-2,1-4.06,2-6,3.06-.28-.67-.56-1.35-.84-2-.4-1-.8-2-1.22-3a18.85,18.85,0,0,0,2.7-1.44.18.18,0,0,0-.14-.33,19.09,19.09,0,0,0-2.85,1.11c-.26-.56-.52-1.12-.81-1.67a.08.08,0,0,0-.14.06c.16.61.35,1.2.56,1.8-.85.4-1.68.84-2.51,1.24a5.32,5.32,0,0,0-1.76,1.15c-.35-1.09-.7-2.35-.43-2.53s.14-.32,0-.35l-.54-.1a.43.43,0,0,0-.52.52,36.91,36.91,0,0,0,2.81,7.83c0,.07.16,0,.15,0a22.77,22.77,0,0,0-.9-3.73c0-.15-.19-.55-.35-1,.68-1,2.61-1.5,3.44-1.89l.88-.39c.36,1,.75,2,1.13,2.95l.81,2.18c-.17.09-.34.18-.5.28s-.08.31.09.33l.7.13A20.86,20.86,0,0,0,56.77,189a.17.17,0,0,0,.31-.12,20.74,20.74,0,0,0-1-2.94,13.8,13.8,0,0,1,1.6-.72l4-1.87c.35-.17.73-.34,1.11-.5,1.18,2.46,2.43,4.89,3.64,7.33l.3.6-.26.18c-.08.07,0,.18.11.15l.25-.12c2,4.11,4,8.27,6.41,12.2.15.25.6.08.48-.2-1.68-4.11-3.77-8-5.79-12-.07-.15-.14-.29-.22-.44,1.74-.86,3.41-1.9,5.07-2.9q1.33,2.76,2.68,5.51c.54,1.11,1.07,2.24,1.6,3.37-.17.16-.35.31-.51.47s0,.33.2.25l.51-.3a86.31,86.31,0,0,0,5.6,10.71c.17.25.62.09.51-.21a88.11,88.11,0,0,0-5.29-11c.84-.55,1.65-1.17,2.46-1.74A11.63,11.63,0,0,0,83.37,192.45Z"/><path class="cls-3" d="M77.06,210.25a28.4,28.4,0,0,0-1.59-2.72c-.07-.08-.23,0-.19.08a23.26,23.26,0,0,0,1.18,2.53A14.81,14.81,0,0,0,78,212.92c.11.14.32,0,.28-.16A13,13,0,0,0,77.06,210.25Z"/><path class="cls-3" d="M74.12,207.83a.17.17,0,0,0-.16-.28,17.75,17.75,0,0,0-4.16,2.12l-1.08.6c-.5-.74-1-1.47-1.45-2.19a.14.14,0,0,0-.24.14c.41.75.81,1.53,1.21,2.31a27.49,27.49,0,0,0-3,1.87c-.11.08,0,.3.11.24a24.25,24.25,0,0,0,3.16-1.54,38.82,38.82,0,0,0,3.61,6c.17.22.45-.06.36-.28a37.39,37.39,0,0,0-3.44-6l.48-.26A20.38,20.38,0,0,0,74.12,207.83Z"/><path class="cls-3" d="M19.46,178.67l-.64-1.09c-.18-.31-.33-.76-.71-.84a.12.12,0,0,0-.16.09c-.06.37.24.61.46.88l.9,1.08C19.38,178.88,19.52,178.77,19.46,178.67Z"/><path class="cls-3" d="M60.89,227c.12-.17-.12-.41-.29-.29a33.56,33.56,0,0,0-4.13,4l-.32.32c-.77-.92-1.54-1.85-2.34-2.75-.06-.08-.19,0-.13.1.71,1,1.44,2,2.18,3-1.46,1.46-2.94,2.92-4.31,4.47a.12.12,0,0,0,.17.17c1.55-1.34,3-2.78,4.47-4.2l1.16,1.54a18.61,18.61,0,0,0,3.14,3.75c.12.1.24-.08.19-.19A18.84,18.84,0,0,0,57.77,233l-1.26-1.52A36.64,36.64,0,0,0,60.89,227Z"/><path class="cls-3" d="M57.94,219.47a.14.14,0,0,0-.19-.19,11.86,11.86,0,0,0-2.85,2.31c-.6-.77-1.22-1.51-1.75-2.24-1.23-1.67-2.44-3.38-3.69-5l.43-.66c.09-.14-.1-.27-.22-.17l-.5.45c-.4-.52-.81-1-1.22-1.54-.14-.17-.43,0-.3.23.36.57.73,1.13,1.11,1.69-1.33,1.24-2.56,2.6-3.81,3.94a52.82,52.82,0,0,0-3.58-5c-.24-.3-.48-.62-.73-.95,1.21-1.1,2.39-2.23,3.5-3.43.11-.12,0-.33-.18-.23-1.31,1-2.56,2-3.78,3-1.43-1.95-3-4.08-4.87-5.31,0,0,0,0,0,0,.88,2.13,2.81,4,4.32,5.8-1.19,1-2.36,2.12-3.54,3.18l-1.25,1.11c-.51-.84-1-1.7-1.51-2.55l0-.29a.13.13,0,0,0-.17-.07l-.3-.51a62.07,62.07,0,0,0-3.94-5.62l-.25-.35c1.68-1.29,3.51-2.54,5.25-3.87a42,42,0,0,0,3.74,4.33c.22.22.63-.07.44-.35a43.36,43.36,0,0,0-3.62-4.42,28.51,28.51,0,0,0,3.52-3.21.2.2,0,0,0-.23-.31,28.09,28.09,0,0,0-4,2.69c-1.49-1.73-3-3.46-4.51-5.14a28.85,28.85,0,0,0,6.06-4l.27.38A41.25,41.25,0,0,0,39.74,199c.23.24.58-.06.44-.35a40.64,40.64,0,0,0-4.07-5.83l-.32-.46.22-.18A49.45,49.45,0,0,0,39.88,189a1.79,1.79,0,0,0,.22.25c.09.1.29,0,.24-.14s-.12-.25-.18-.38a12.88,12.88,0,0,0,2.32-2.94c.1-.17-.11-.42-.29-.29a20.29,20.29,0,0,0-2.54,2.22,38.63,38.63,0,0,0-4.71-6c-.06-.08-.14-.15-.2-.23a13.84,13.84,0,0,0,3.1-2.33c.09-.11,0-.32-.16-.26a14.32,14.32,0,0,0-3.4,2.08,43.62,43.62,0,0,0-6.4-6c-.14-.1-.31.12-.18.24l1,.94-.06,0a9,9,0,0,0-4,1.78c0-.06-.11-.12-.16-.19-.81-1-1.72-2.43-2.91-2.94a.14.14,0,0,0-.2.15c.33,1.17,1.49,2.09,2.29,3l.42.48a6.54,6.54,0,0,0-1.39,1.67c-.05.09.06.22.15.15.57-.43,1.09-.91,1.64-1.36a7.74,7.74,0,0,0,2.16,1.9s0,0,0,0a7.79,7.79,0,0,0-1.61-2.33c.12-.09.24-.19.37-.27a26.42,26.42,0,0,1,3.32-1.67.13.13,0,0,0,.07-.15c1.71,1.62,3.41,3.24,5,5l-.53.37a50.73,50.73,0,0,0-4.2,3.07c-.12.09,0,.26.15.2a49,49,0,0,0,4.35-2.75l.66-.42c1.08,1.22,2.11,2.49,3.09,3.79.64.84,1.2,1.75,1.84,2.6-1.05,1.08-2.07,2.2-3.18,3.16-.21.18-.43.34-.64.51a32.52,32.52,0,0,0-3.64-4.64.09.09,0,0,0-.14.11,32,32,0,0,0,3.22,5c-1.91,1.49-3.94,2.81-5.81,4.35-.21-.22-.41-.46-.62-.68a.13.13,0,0,0-.2.16l.61.78h0c1.15,1.51,2.34,3,3.54,4.45l.81,1c-1.63,1.3-3.2,2.7-4.78,3.94l-.22.17c-1.33-1.88-2.69-3.75-4.12-5.55-.1-.12-.29,0-.22.17,1.17,2,2.46,3.92,3.73,5.85-1.59,1.23-3.26,2.45-4.86,3.73l-1-1.45c-.19-.29-2-2.51-1.23-2.53.06,0,.06-.1,0-.1-1.22,0-.22,1.33.05,1.77.51.86,1,1.82,1.57,2.78A36.22,36.22,0,0,0,19,214c-.23-.36-.47-.71-.68-1.06L17,210.84c-.09-.14-1.24-1.84-.91-1.87a.06.06,0,0,0,0-.12l-.59-.17c-.16-.05-.26.12-.2.26.7,1.5,1.58,2.93,2.39,4.37A15.55,15.55,0,0,0,20.05,217a.2.2,0,0,0,.33-.2A9.3,9.3,0,0,0,19,214.16a33.74,33.74,0,0,0,3.48-2.3,16.26,16.26,0,0,0,2.84,3.79c.1.09.3,0,.25-.15a18.31,18.31,0,0,0-2.4-4.06l-.05-.06c1.64-1.25,3.23-2.58,4.81-3.82l.18.27c.91,1.38,1.79,2.93,2.79,4.35.63,1,1.33,2,2,3,.41.63.82,1.27,1.27,1.9-2.31,2.05-4.62,4.11-6.77,6.32-.1.1,0,.29.16.2,2.43-1.86,4.73-3.91,7-5.94a9.85,9.85,0,0,0,2.54,2.45.08.08,0,0,0,.1-.12,22.47,22.47,0,0,1-2.06-2.85l.28-.25c1.54-1.35,3.11-2.68,4.63-4,1.53,1.95,2.89,4,4.31,6-.56.59-1.12,1.17-1.71,1.73-2.38,2.3-5,4.37-7.43,6.56-.1.09,0,.25.14.18a57.71,57.71,0,0,0,7.78-6.25l1.69-1.57q.48.69,1,1.38a.19.19,0,0,0,.33-.19c-.25-.57-.53-1.13-.82-1.67a32.87,32.87,0,0,0,3.73-4.19c1.13,1.64,2.31,3.25,3.45,4.87.57.79,1.12,1.68,1.7,2.57-.49.52-1,1-1.44,1.5-1.93,1.88-4,3.7-5.69,5.76a.12.12,0,0,0,.17.17,73,73,0,0,0,5.45-5c.61-.58,1.3-1.16,2-1.76a14.48,14.48,0,0,0,2.64,3c.09.08.28,0,.23-.13a14.65,14.65,0,0,0-2.14-3.56A12.19,12.19,0,0,0,57.94,219.47Z"/><path class="cls-3" d="M28.05,217.72a5.19,5.19,0,0,0-1.37-1.7s-.06,0-.06,0a5.26,5.26,0,0,0,.92,2A12.27,12.27,0,0,0,29,220.09c.13.14.43,0,.35-.21A12.25,12.25,0,0,0,28.05,217.72Z"/><path class="cls-3" d="M81.79,229.52a48.76,48.76,0,0,0-4.52-5.64,48.48,48.48,0,0,0,4-3.28.25.25,0,0,0-.3-.38,45.29,45.29,0,0,0-4.3,2.93c-1.14-1.34-2.25-2.75-3.43-4.09.83-.62,1.65-1.25,2.44-1.88.21-.16,0-.47-.26-.35-.91.52-1.82,1.07-2.72,1.62a27,27,0,0,0-2-2,.09.09,0,0,0-.15.11,26.65,26.65,0,0,0,1.57,2.25c-2,1.25-4,2.59-6,4a27.91,27.91,0,0,0-4-4.32.18.18,0,0,0,.11-.29,4,4,0,0,1-1.46-2.86.15.15,0,0,0-.29,0,3.1,3.1,0,0,0,1.17,2.92,25.63,25.63,0,0,0,3.79,5c-1.51,1.1-3,2.24-4.4,3.41-.11.09,0,.26.16.19,1.63-.89,3.26-1.86,4.88-2.88.35.4.69.79,1,1.19.88,1.07,1.76,2.17,2.65,3.25-1.85,1.39-3.81,2.95-4.8,4.88,0,.05,0,.14.1.09,1-.74,1.89-1.72,2.85-2.55.75-.65,1.53-1.25,2.32-1.84a50.25,50.25,0,0,0,3.59,4c.18.18.49,0,.35-.26a50.68,50.68,0,0,0-3.27-4.19l1.57-1.16c1.37-1,2.77-2,4.16-3a47.09,47.09,0,0,0,4.77,5.47C81.6,230,82,229.77,81.79,229.52Zm-10.3-2.37c-.35.27-.71.54-1.09.81-.78-.9-1.56-1.8-2.33-2.71-.45-.53-.89-1.09-1.34-1.66,2-1.29,4-2.67,5.91-4.09.9,1.12,1.84,2.2,2.74,3.3l.65.81C74.5,224.79,73,226,71.49,227.15Z"/><path class="cls-3" d="M83.44,220.45a21.12,21.12,0,0,0-2.84-3.88c-1.26-1.59-2.52-3.18-3.88-4.69-.07-.07-.2,0-.14.11,1,1.5,2.09,2.94,3.17,4.38a23,23,0,0,0,3.46,4.26A.15.15,0,0,0,83.44,220.45Z"/><path class="cls-3" d="M81.63,207.78c-.07,0-.16.05-.09.12.85.83,1.78,1.54,2.58,2.43s1.44,2.16,2.31,3.12c.11.13.31,0,.27-.16C86.18,211.08,83.67,208.64,81.63,207.78Z"/><path class="cls-3" d="M88.21,204.74a10.3,10.3,0,0,0-1.27-1.68,12.68,12.68,0,0,0-1.59-1.68c-.09-.07-.17.05-.13.13a11.46,11.46,0,0,0,1.34,1.85,9.46,9.46,0,0,0,1.4,1.56A.16.16,0,0,0,88.21,204.74Z"/><path class="cls-3" d="M79.82,231.27a20.53,20.53,0,0,0-5.07,3.39c-1.28,1.09-3.06,2.47-3.6,4.11,0,.09.08.15.15.12,1.37-.72,2.43-2.22,3.59-3.25,1.63-1.44,3.46-2.61,5.19-3.92A.26.26,0,0,0,79.82,231.27Z"/><path class="cls-3" d="M81.83,239.59a13.52,13.52,0,0,0-1.55,1c-.43.35-1.16.74-1.3,1.32a.16.16,0,0,0,.15.19c.53,0,1-.5,1.41-.81A14.67,14.67,0,0,0,82.11,240,.24.24,0,0,0,81.83,239.59Z"/><path class="cls-3" d="M246.44,50.06a22.44,22.44,0,0,0-16.61-5c-.4-3.18-3.83-6.46-6-8.44a25.77,25.77,0,0,0-11.8-6c-8-1.86-19,1-23.72,8.14a21.26,21.26,0,0,0-5.19-.92,15.58,15.58,0,0,0,4.16-6c2.22-5.26,1.73-12-.71-17.1A22.6,22.6,0,0,0,158.22,3.49,21.5,21.5,0,0,0,146,15.77c-2.34-.7-5.78,1.2-7.66,2.27-2.56,1.46-5.27,3.92-6.23,6.83a20.41,20.41,0,0,0-9.78,1.53A22.66,22.66,0,0,0,109.41,40c-.9-1.76-2.09-3.41-2.88-5.22a38.29,38.29,0,0,1-2.8-10.67c-.94-7.36,1.17-14.66.48-22,0-.37,0-.73,0-1.06A1.12,1.12,0,0,0,102.8.05c-8.13,2.77-9.94,12.34-9,19.86.64,5.24,2.44,10.28,3.34,15.48S96.89,45.11,95.39,50c-.12-.1-.24-.22-.37-.32-5.73-4.82-13.31-6.08-20.49-4.6a24.18,24.18,0,0,0-13.84,9.11A18.41,18.41,0,0,0,44,52.77c-2.66,1-8.45,4.81-8.94,8.41a28,28,0,0,0-17.42,16,23.5,23.5,0,0,0,3.79,24.39A18.09,18.09,0,0,0,27.51,106c-7,4.23-9.53,14.29-6,21.62a17.76,17.76,0,0,0,9.86,9.4c2.79,1,7,1.77,10.38.92-7.13,6.95-10.67,16.67-6.93,26.81A22,22,0,0,0,49,178.1a14.08,14.08,0,0,0-6.59,5.84c-2.89-8.52-13.56-11.54-21.77-9.92C10.55,176,1.48,185.66.17,195.85c-1.35,10.49,5.46,18.76,15.52,21.07a21.4,21.4,0,0,0,9.22,0,21.73,21.73,0,0,0-2.76,17.71c2.07,8,9.4,13.13,17.3,14.28a20.4,20.4,0,0,0,20-9,23.72,23.72,0,0,0,3.4-9.16,24.74,24.74,0,0,0,15,11.73c7.71,2.19,16.9-.49,21.63-7.1a23.92,23.92,0,0,0,2.89-22.22,33,33,0,0,0,7.59,4.36c8.44,3.5,19,3.35,26.52-2.21,4.5-3.34,8.72-11.18,6.81-17.05a17.52,17.52,0,0,0,10.86-1,21.65,21.65,0,0,0,12.63-17,28.24,28.24,0,0,0-2.72-16.3,17.85,17.85,0,0,0-1.49-12.07,22.52,22.52,0,0,0,10.05,3c12,.68,21.76-10,22.34-21.47s-7-23.37-17.5-27.95a16.39,16.39,0,0,0,3.32-1.14,22.18,22.18,0,0,0,4.25-2.48,24,24,0,0,0,3.1,7.82c7.82,12.7,25.78,13.7,36.06,3.62,6.82-6.69,8.07-16.42,4.95-24.59,9.47,2.36,18.93-2,23.57-11C257.62,68.16,254.45,56.74,246.44,50.06Zm-35-17.27a23.77,23.77,0,0,1,10.65,5.56c2.26,1.94,3.48,4.91,5.39,7a26,26,0,0,0-10.36,4.47C210,55,205.27,66.81,211.59,74a23,23,0,0,0-7.18,0,9.49,9.49,0,0,0-2.51-.83,12.17,12.17,0,0,1-2.16-.94c-.24-.13-.47-.28-.69-.42,5.5-7.73,4.95-18.53-.87-26.25a19.15,19.15,0,0,0-8.67-6.43C196.26,34.45,202.84,31.1,211.46,32.79ZM200.94,74.91a21.7,21.7,0,0,0-7.78,4.48,4.92,4.92,0,0,0-.67-1.09,23.9,23.9,0,0,0,5.51-5A15.63,15.63,0,0,0,200.94,74.91ZM195.48,46.4c6.06,6.58,6.16,16.51,1.44,23.66h0a11.64,11.64,0,0,1-.72,1.25c-1.06,1.64-2.49,3.7-4.52,4.14h-.07c-6.24,4.22-15.26,5.56-20.5-.34A19.42,19.42,0,0,0,165,66.85c-.59-3.3-1.69-6.28-1.52-9.82a16.85,16.85,0,0,1,1.24-5.55,1.07,1.07,0,0,0,.2-.48,19.35,19.35,0,0,1,5-6.75C177.34,37.78,189.14,39.52,195.48,46.4ZM126.22,147.52c-2.21-.52-4.11-1.88-6.18-2.66,0-.36,0-.73,0-1.1-.27-7.07-4.39-14.62-8.69-20a20,20,0,0,0-3.65-3.53,12.93,12.93,0,0,0,.22-1.86l.27.1a24,24,0,0,0,26.8-8.54c5.32,1.9,9.8,4,13.24,8.92,3.81,5.47,3.78,12.46,1.16,18.39A18.92,18.92,0,0,1,136.13,148,21.58,21.58,0,0,1,126.22,147.52Zm5.59,3.45a22.18,22.18,0,0,0-8.06,6.09c-.14.17-.27.35-.41.53-.2-.4-.41-.77-.5-1-1-2.44-.28-4.85.47-7.22A24,24,0,0,0,131.81,151ZM122,159.49a17.62,17.62,0,0,0-2.22,5.8,20,20,0,0,0-.62,8.44c-1.88-.86-4.48-.63-6.84,0a21.24,21.24,0,0,0,2.71-3.48c2.27-3.64,3.1-9.7.2-13.24a18.13,18.13,0,0,0,4.59-9.8,10.05,10.05,0,0,0,2.37,1.69C119.54,151.41,119.54,156.79,122,159.49Zm-29,38.17a24.85,24.85,0,0,0,.71,3.2c-2.21-2.1-5.09-4.34-7.69-4.48,0-.37,0-.75,0-1.13a19.66,19.66,0,0,0-2.39-8.49A25.74,25.74,0,0,1,85,184.07a27.91,27.91,0,0,1,3.11-4.2,25.37,25.37,0,0,0,12.66.27l-.24.31c-2.18,1.21-4,3.61-5.16,5.52A17.9,17.9,0,0,0,93.05,197.66Zm-9.9-19.22a.71.71,0,0,0,.26-.53c.85.45,1.67.84,2.43,1.16l.68.27a11.19,11.19,0,0,0-2.91,3.17,12.25,12.25,0,0,0-1.16,2.25,26,26,0,0,0-3-3.67A27.24,27.24,0,0,0,83.15,178.44Zm-4.79,1.64a20.84,20.84,0,0,0-8.51-4.55,24.57,24.57,0,0,0,5.4-5c1.23,2.71,4,5,6.81,6.62A27.13,27.13,0,0,0,78.36,180.08Zm20.82-2.37a22.12,22.12,0,0,1-14.11-1.84c-3.54-1.65-5.73-4.69-8.68-6.88a23.11,23.11,0,0,0,4.18-13.32,29.63,29.63,0,0,0,10.06,6.65,22.52,22.52,0,0,0,23-3.74c.73,4,.88,7.25-1.58,11.16C109.27,174.14,104.06,176.6,99.18,177.71Zm38.08-83.34c.49,14.42-12.58,24.29-26.31,21.74-6.85-1.27-12.12-6-15.11-12.17a20.29,20.29,0,0,1-2-9.46c1.1-9.48,6.64-18.07,16.72-20.56C123.9,70.6,136.8,80.94,137.26,94.37ZM114,70.59a21.48,21.48,0,0,1,1.31-3.18,24.09,24.09,0,0,1,1.89-2.8c3.76,3,8.3,4.86,12.49,3.81a35,35,0,0,0-4.48,4.22A26,26,0,0,0,114,70.59Zm-7.88,47.06v0a14.85,14.85,0,0,0,0,1.49,21.44,21.44,0,0,0-6.83-2.68c-1.1-2.29-2.93-4.18-4.31-6.3a15.73,15.73,0,0,1-2.26-6.66A25.9,25.9,0,0,0,106.11,117.65Zm-8.6-1.48a24.26,24.26,0,0,0-4.9-.15c-.3,0-.6.06-.91.1a6.81,6.81,0,0,0-1.94-3.93c.18-.42.36-.83.52-1.25a23.75,23.75,0,0,0,1.12-3.88A19.45,19.45,0,0,0,97.51,116.17ZM89,113.86c.27.31.56.6.83.88a9.31,9.31,0,0,1,1.11,1.49,19,19,0,0,0-4,1.13A29.88,29.88,0,0,0,89,113.86ZM76.69,123a21.24,21.24,0,0,1-18.26,1.49c-7.06-2.48-11.15-8.72-12.61-15.78-3-14.64,6.32-29.76,21.91-30.12,10.07-.23,17.64,6.54,20.85,15.16C90.44,104.94,87.05,116.69,76.69,123Zm-11.75,5.87a22.64,22.64,0,0,0,10.39-1.93c.42-.18.82-.37,1.23-.58a19.61,19.61,0,0,0-2.67,8.17,16.36,16.36,0,0,0-7.21-5,13.15,13.15,0,0,0-1.77-.52Zm27.67-10.45c13.58-1.66,22.18,11.47,24.65,23.17,1.43,6.73-1.81,13.06-7.36,16.77s-12.59,3.43-18.54,1.33c-9-3.2-14.89-12.51-15.64-22C76.42,128.15,82.14,119.67,92.61,118.39Zm59.05,20.17c.21-.45.4-.89.58-1.34.36,4,3.06,8,5.59,10.86a19.72,19.72,0,0,0,2.2,2.09A24.72,24.72,0,0,1,162.36,161a26.41,26.41,0,0,0-19-11.89q-1-.1-1.92-.12A22.15,22.15,0,0,0,151.66,138.56Zm-.89-19.76c0-.07-.07-.14-.11-.2-2.83-4.93-8.72-9.63-14.67-10.11a26.09,26.09,0,0,0,1.4-2.41,27,27,0,0,0,20.43-1.54,7.65,7.65,0,0,0,2.64,1.13C155.12,108.16,151,112.82,150.77,118.8Zm-12.56-14.47a25.84,25.84,0,0,0,1.92-7.9C141,86,135,77.33,126.41,73.19c6.69-5,14.07-9.27,22.66-9.4s17,4.84,19.77,13c2.66,7.82-.87,16.67-6.77,22C155.49,104.65,146.52,105.2,138.21,104.33Zm14.1-56a25.23,25.23,0,0,0-.86-7.83c4,3.83,9.19,6.23,14.14,4.78a20.68,20.68,0,0,0-2.67,4.6A83.23,83.23,0,0,0,152.31,48.3Zm10,3.22c-.24.69-.44,1.39-.61,2.1a16.13,16.13,0,0,0-.33,1.83c-1.59-1.23-3.87-1.53-5.77-2a33.67,33.67,0,0,0-3.81-1,25.27,25.27,0,0,0,.49-3.27A81,81,0,0,0,162.28,51.52Zm-7.28,4c1.95.4,4.25,1.12,6.24.63A18,18,0,0,0,162.36,65a24.91,24.91,0,0,0-10.15-3.47,28.05,28.05,0,0,0-5.34-.06,15.39,15.39,0,0,0,4.23-6.64A29.46,29.46,0,0,0,155,55.55Zm2.26-48.9c8.07-4.66,18.64-1.82,24.53,4.9,6.39,7.29,6.68,22.39-3.32,26.42a.58.58,0,0,0-.23.17,22.53,22.53,0,0,0-8.1,3A16.33,16.33,0,0,0,167,43.63c-8.8,1.7-17-6.14-19.52-14.06C144.61,20.6,149.41,11.18,157.26,6.65ZM139.41,19.87a16.62,16.62,0,0,1,4.18-1.73c.64-.18,1.19-.23,1.71-.34a22.81,22.81,0,0,0-.21,12.43l.09.3a22.64,22.64,0,0,0-11.32-5.45A26,26,0,0,1,139.41,19.87Zm-16.79,9c9.44-4.53,19.87.07,25,8.61a18.84,18.84,0,0,1,2,14.23c-1.11,4.54-4.11,7.84-7.66,10.55a32.14,32.14,0,0,0-7.89,3.18.31.31,0,0,0-.23,0c-10,5.07-20-4.85-22.58-13.82C108.49,42.07,114.05,33,122.62,28.88Zm-24.15.89c-2.1-8.95-5.34-20.9,3.62-26.81a10.24,10.24,0,0,1-1.3,4.66C100,9.2,98.46,10,97.59,11.48a.3.3,0,0,0,.26.44,5,5,0,0,0,3.51-1.72,51.66,51.66,0,0,0,.07,15.42c.78,4.93,2.79,12.86,7.56,15.8a22.28,22.28,0,0,0,.57,12.81,23.74,23.74,0,0,0,6.35,9.27c-2.34,1.34-3.48,4.46-3.26,7.19l-.56,0c-9.49,1.09-17.6,9-19.93,18.1a19,19,0,0,0-1,4.36,22.87,22.87,0,0,0-2.92-6.3c11-8.28,22-24.5,14.27-38.15a.68.68,0,0,0-1.16,0c-.82,1.65-1.67,3.28-2.52,4.92a27.9,27.9,0,0,0-2.75-3C101.81,46.13,99.88,35.77,98.47,29.77Zm4,30.29a21.72,21.72,0,0,0-2.93-5.47.57.57,0,0,0,.34-.28c.62-1.17,1.25-2.33,1.88-3.5A24.81,24.81,0,0,1,102.51,60.06ZM74.13,47.73A21.66,21.66,0,0,1,92.69,51c4.76,3.3,7.12,8.15,9,13.3a30.82,30.82,0,0,1-1.94,5.23c-3,6.26-8.13,10.83-12.41,16.12a25.68,25.68,0,0,0-18.5-10,22.12,22.12,0,0,0-9.66,1.5c-1.14-5.61-1.53-10.73.42-16.34C61.92,54.23,67.62,49.69,74.13,47.73ZM37.7,60.39a18.37,18.37,0,0,1,6.12-5.2c4.89-2.62,10.86-1.68,15.45,1.06a24.15,24.15,0,0,0-3.61,9.64c-4-4.66-10.62-6.65-16.92-5.61-.37.06-.74.15-1.12.22A1,1,0,0,0,37.7,60.39ZM23.08,99.85c-5.82-6.07-6-15.48-2.77-22.79A25.88,25.88,0,0,1,37,63.08c6.63-1.84,13.47.55,18.46,5a17.72,17.72,0,0,0,2.45,9.58,28.1,28.1,0,0,0-8.58,6c-5.3,5.47-7.17,13.29-6.89,20.76C35.22,105.91,28.65,105.65,23.08,99.85Zm18.39,35.48a16,16,0,0,1-7.28,0c-4.51-.89-8-4-10.2-7.93-4.33-7.64-.48-15.39,5.32-20.67,4.47,1.55,9.49,1.58,13.22-1,0,.68.11,1.36.19,2a24,24,0,0,0,20.46,20.88v0c-5.12-.53-10.44,1.57-14.73,4.12a35.39,35.39,0,0,0-3.13,2.08.49.49,0,0,0-.3-.1A10.52,10.52,0,0,0,41.47,135.33Zm-3.3,30.3c-5.58-10.32-.46-21,7.79-27.84,4.6-3.83,10.2-6.54,16.26-6.53,5.37,0,9.23,3.52,11.72,7.83A23.3,23.3,0,0,0,76,149a21.37,21.37,0,0,0,2.56,4.33c-.69,9.32-4.64,18-13.91,21.83l-.29.11c-.26,0-.51.1-.77.17a.52.52,0,0,0-.27.21A21.12,21.12,0,0,1,38.17,165.63Zm13.41,13.15a25.92,25.92,0,0,0,12.77-.59,21.34,21.34,0,0,0,2.55-1,17.35,17.35,0,0,1,3.36,1.05,29.15,29.15,0,0,1,6,3.55,19.56,19.56,0,0,1,7,11.73c2.07,10.49-5.58,20.63-15.51,23.12s-20-3.06-24.32-12.11C38.77,194.94,42.14,183.34,51.58,178.78Zm-32.41,36A16.66,16.66,0,0,1,2.58,198c.17-9.46,8-17.63,16.43-20.8,9-3.39,17.7.43,22.61,8.07-.17.3-.33.6-.48.91-2.46,5-2.34,11-.9,16.28.11.42.24.83.38,1.24C34.34,209.48,28.39,215,19.17,214.76Zm38.66,23.05c-3.69,6.76-11.34,9.63-18.71,8.57-14.62-2.09-19.48-18.93-12-30.07a25.2,25.2,0,0,0,14.23-10.76,23.9,23.9,0,0,0,17.6,13.82c.49,3,1.56,5.6,1.58,8.74A20.28,20.28,0,0,1,57.83,237.81Zm40.87-6.42c-3.82,7.49-12.31,10.18-20.18,8.6-6.56-1.31-11.63-6.21-15.41-11.54a14.33,14.33,0,0,0-1.88-8.79,22.69,22.69,0,0,0,5-.17A23.15,23.15,0,0,0,86,198.36c1.52,1.54,3.76,2.53,5.42,3.87a30.08,30.08,0,0,1,6.94,8.29A22.09,22.09,0,0,1,98.7,231.39Zm41.5-26.33a15.78,15.78,0,0,1-7,9.1c-6.3,4.1-14.69,3.38-21.49,1.12A24,24,0,0,1,96,199.37a17,17,0,0,1,1.31-12.27c1.46-3,4.14-4.4,6-6.9.74-.56,1.49-1.12,2.26-1.65a22,22,0,0,0,2.93-1.62c.26-.12.51-.24.79-.34a22.21,22.21,0,0,1,6.1-1.08c1.47-.08,2.73.24,4.1-.14,1.53,7.48,7,13.3,12.89,17.76a29.42,29.42,0,0,0,7.87,4.28C140.45,200,140.89,202.32,140.2,205.06Zm23.92-27.15a19.56,19.56,0,0,1-9.44,15.87c-6.53,4-14,1.5-19.87-2.34-7.11-4.65-13.43-13.21-13.77-21.73A24,24,0,0,1,125,159.32c3.81-5.63,10.71-8,17.23-7.8C155.8,151.85,164.64,165.34,164.12,177.91Zm28-44.47c0,10.42-9.47,18.54-19.48,18.65-4.92.06-9.5-2.53-12.93-5.86-3.66-3.54-4.44-7.9-6.37-12.33a.36.36,0,0,0-.07-.1,21.47,21.47,0,0,0-1-11.79c.77-12.23,11.75-18.57,23.08-14.87C185.9,110.58,192,123,192.09,133.44Zm-7.47-34.61-.07.07a19.23,19.23,0,0,1-4.23,3.11c-1.82,1-4.7,1.11-6.48,2.23l-.09,0a19.79,19.79,0,0,0-10,.26c-.72-.15-1.5-.18-2.19-.34a6.51,6.51,0,0,1-1.71-.65c8-4.76,13.52-13.41,12.39-23.44,3.28,4,11.93,2.39,15.81.71A27.24,27.24,0,0,0,191.4,79a4.21,4.21,0,0,0,.87,1.23,19.87,19.87,0,0,0-2.38,2.94A21.85,21.85,0,0,0,184.62,98.83Zm37.51,12.43c-8.82,9.62-24.52,7.25-31.57-3-4.84-7-4.27-16-.09-22.88,6.07-8.1,16.29-11.7,26.16-7.07C229.34,84.28,231.13,101.44,222.13,111.26Zm28.24-34.92c-3.63,8-13.41,12.22-21.93,10.78a23.43,23.43,0,0,0-9.53-10.52,21,21,0,0,0-5.5-2.2C208.17,65.74,212,56,220.26,50.65a21.27,21.27,0,0,1,25.18,1.89C252.41,58.41,254,68.2,250.37,76.34Z"/></g></g></svg>