<?xml version="1.0" encoding="utf-8"?>
<!-- Generator: Adobe Illustrator 23.0.6, SVG Export Plug-In . SVG Version: 6.00 Build 0)  -->
<svg version="1.1" id="Layer_1" xmlns="http://www.w3.org/2000/svg" xmlns:xlink="http://www.w3.org/1999/xlink" x="0px" y="0px"
	 viewBox="0 0 172.34 172.34" style="enable-background:new 0 0 172.34 172.34;" xml:space="preserve">
<style type="text/css">
	.st0{fill:none;}
	.st1{fill:#FFFFFF;}
</style>
<rect x="-100.7" y="-100.7" class="st0" width="373" height="373"/>
<g>
	<path class="st1" d="M85.8,34.15c16.82,0,18.81,0.06,25.46,0.37c6.14,0.28,9.48,1.31,11.7,2.17c2.94,1.14,5.04,2.51,7.24,4.71
		c2.2,2.2,3.57,4.3,4.71,7.24c0.86,2.22,1.89,5.56,2.17,11.7c0.3,6.64,0.37,8.64,0.37,25.46c0,16.82-0.06,18.82-0.37,25.46
		c-0.28,6.14-1.31,9.48-2.17,11.7c-1.14,2.94-2.51,5.04-4.71,7.24c-2.2,2.2-4.3,3.57-7.24,4.71c-2.22,0.86-5.56,1.89-11.7,2.17
		c-6.64,0.3-8.63,0.37-25.46,0.37c-16.82,0-18.82-0.06-25.46-0.37c-6.14-0.28-9.48-1.31-11.7-2.17c-2.94-1.14-5.04-2.51-7.24-4.71
		c-2.2-2.2-3.57-4.3-4.71-7.24c-0.86-2.22-1.89-5.56-2.17-11.7c-0.3-6.64-0.37-8.64-0.37-25.46c0-16.82,0.06-18.81,0.37-25.46
		c0.28-6.14,1.31-9.48,2.17-11.7c1.14-2.94,2.51-5.04,4.71-7.24c2.2-2.2,4.3-3.57,7.24-4.71c2.22-0.86,5.56-1.89,11.7-2.17
		C66.98,34.21,68.98,34.15,85.8,34.15 M85.8,22.79c-17.11,0-19.26,0.07-25.98,0.38c-6.71,0.31-11.29,1.37-15.29,2.93
		c-4.14,1.61-7.66,3.76-11.16,7.27c-3.5,3.5-5.66,7.02-7.27,11.16c-1.56,4.01-2.62,8.59-2.93,15.29c-0.31,6.72-0.38,8.87-0.38,25.98
		c0,17.11,0.07,19.26,0.38,25.98c0.31,6.71,1.37,11.29,2.93,15.29c1.61,4.14,3.76,7.66,7.27,11.16c3.5,3.5,7.02,5.66,11.16,7.27
		c4.01,1.56,8.59,2.62,15.29,2.93c6.72,0.31,8.87,0.38,25.98,0.38c17.11,0,19.26-0.07,25.98-0.38c6.71-0.31,11.29-1.37,15.29-2.93
		c4.14-1.61,7.66-3.76,11.16-7.27c3.5-3.5,5.66-7.02,7.27-11.16c1.56-4.01,2.62-8.59,2.93-15.29c0.31-6.72,0.38-8.87,0.38-25.98
		c0-17.11-0.07-19.26-0.38-25.98c-0.31-6.71-1.37-11.29-2.93-15.29c-1.61-4.14-3.76-7.66-7.27-11.16c-3.5-3.5-7.02-5.66-11.16-7.27
		c-4.01-1.56-8.59-2.62-15.29-2.93C105.05,22.87,102.91,22.79,85.8,22.79"/>
	<path class="st1" d="M85.8,53.45c-17.87,0-32.35,14.49-32.35,32.35c0,17.87,14.49,32.35,32.35,32.35s32.35-14.48,32.35-32.35
		C118.15,67.93,103.67,53.45,85.8,53.45 M85.8,106.8c-11.6,0-21-9.4-21-21s9.4-21,21-21s21,9.4,21,21S97.4,106.8,85.8,106.8"/>
	<path class="st1" d="M126.99,52.17c0,4.18-3.38,7.56-7.56,7.56c-4.18,0-7.56-3.39-7.56-7.56c0-4.18,3.39-7.56,7.56-7.56
		C123.6,44.61,126.99,47.99,126.99,52.17"/>
</g>
</svg>
