<?xml version="1.0" encoding="utf-8"?>
<!-- Generator: Adobe Illustrator 23.0.6, SVG Export Plug-In . SVG Version: 6.00 Build 0)  -->
<svg version="1.1" id="Layer_1" xmlns="http://www.w3.org/2000/svg" xmlns:xlink="http://www.w3.org/1999/xlink" x="0px" y="0px"
	 viewBox="0 0 172.34 172.34" style="enable-background:new 0 0 172.34 172.34;" xml:space="preserve">
<style type="text/css">
	.st0{fill:none;}
	.st1{fill:#FFFFFF;}
</style>
<rect x="-100.7" y="-100.7" class="st0" width="373" height="373"/>
<path class="st1" d="M-295.95,209.71c0.45-0.58,0.78-1.03-0.85-3.42c-1.62-2.39-5.22-3.05-5.85-2.71c-2.01,1.1-0.91,3.36,0.98,3.42
	c1.88,0.06,2.79,2.39,3.44,3.16S-296.41,210.3-295.95,209.71L-295.95,209.71z M-399.59,211.71c0.39-1.55,2.92-1.48,3.64-1.87
	c0.71-0.39,0.85-0.26,0.71-1.1c-0.13-0.84-0.98-1.74-3.57-1.29c-2.6,0.45-3.9,2.77-3.83,4.77c0.07,2-0.09,6.3,0.52,6.65
	c0.91,0.51,1.95,0.51,2.34,0.06S-399.98,213.26-399.59,211.71L-399.59,211.71z M-396.86,271.67c-0.71-0.64,0-4.97-0.39-5.68
	c-0.39-0.71-2.24-0.67-2.54,0c-0.45,1.03-0.32,4.39,0.2,6.19c0.52,1.81,1.88,2.9,3.7,2.65c1.82-0.26,1.75-2,1.56-2.45
	C-394.52,271.92-396.15,272.31-396.86,271.67L-396.86,271.67z M-343,243.27c-3.19,0.51-6.58-0.55-7.41-0.71
	c-1.36-0.26-1.63,1.42-0.78,2.2c0.85,0.77,2.66,1.29,7.47,1.23c4.81-0.06,8.05-1.94,8.58-2.78c0.52-0.84-0.26-2.07-1.17-2.2
	C-337.22,240.88-339.82,242.75-343,243.27L-343,243.27z M-385.37,258.44c-1.75,2.13-1.56,2.19-2.01,2.13
	c-0.45-0.06,0-19.56-0.2-23.17c-0.2-3.61-0.58-7.68-0.26-8.39c0.22-0.47,6.11,4.58,9.29,7.23c3.18,2.64,4.87,4.13,5,4.77
	C-373.41,241.66-383.61,256.3-385.37,258.44L-385.37,258.44z M-377.24,231.53c-4.23-4.07-14.66-12.93-15.79-12.91
	c-4.94,0.06-3.44,7.61-3.12,17.42c0.33,9.81,1.82,22.4,2.6,25.75c0.78,3.36,3.25,3.42,5.26,2.9c2.01-0.51,3.58-3.16,7.54-8.13
	s9.75-12.97,10.27-16.46C-369.97,236.62-373.02,235.59-377.24,231.53L-377.24,231.53z M-316.69,260.18
	c-0.39,0.39-14.55,1.55-32.29,2.26c-17.74,0.71-20.66,0.45-20.47,0.13s9.29-10.65,10.2-10.78c0.58-0.08,10.07,4.52,14.29,4.65
	c4.22,0.13,9.1-1.68,13.19-4.65c4.1-2.97,6.3-4.52,6.95-4.45s5.91,7.36,7.08,9.42C-316.56,258.83-316.3,259.79-316.69,260.18
	L-316.69,260.18z M-319.61,249.92c-2.8-3.42-4.68-6.71-6.76-6.65c-2.08,0.06-5.91,2.45-9.16,4.65c-3.25,2.19-6.17,3.49-9.1,3.49
	c-2.93,0-9.68-3.49-10.59-4.2s-5.68-2.22-6.76-2.07c-2.21,0.33-13.64,15.3-14.69,16.59c-1.04,1.29,1.43,3.61,2.99,3.81
	c1.56,0.19,5.85,0,26.38-0.84c20.54-0.84,30.41-1.55,32.23-1.94c1.82-0.39,1.88-2,1.49-3.23S-316.82,253.33-319.61,249.92
	L-319.61,249.92z M-302.65,253.6c-0.65-0.39-6.17-8.13-7.47-9.29s-3.51-2.9-3.7-3.74c-0.12-0.5,11.37-14.13,11.76-13.68
	C-301.68,227.33-302,253.98-302.65,253.6L-302.65,253.6z M-301.35,215.97c-1.75-0.32-7.73,7.23-11.5,11.94
	c-3.77,4.71-7.77,9.69-7.86,10c-0.39,1.29,0.91,1.55,4.68,4.84c3.77,3.29,8.45,10,10.33,12.33c1.88,2.33,3.05,2.84,4.42,1.87
	c1.36-0.97,1.04-2,1.23-6.45c0.19-4.45,0.45-20.07,0.78-26.4C-298.95,217.78-299.6,216.29-301.35,215.97L-301.35,215.97z
	 M-346.58,217.78c14.17,0.06,30.34-0.64,30.93,0c0.58,0.64-10.33,10.97-17.02,14.97s-9.75,6-15.73,5.16
	c-5.98-0.84-17.22-10.39-21.51-13.55s-6.89-5.42-6.69-5.88C-376.45,218.15-360.74,217.71-346.58,217.78L-346.58,217.78z
	 M-383.74,217.2c1.49,1.42,13.26,10.91,21.51,17.1c8.25,6.19,10.53,6.84,16.5,6.71c5.98-0.13,9.42-2.65,14.88-5.81
	c5.46-3.16,20.66-18.01,22.61-20.65c1.95-2.65,0.71-2.97-0.65-3.55c-1.36-0.58-6.69-0.58-25.6-0.19
	c-18.91,0.39-40.81,0.58-45.03,0.64c-4.22,0.06-7.19,0.59-7.47,1.03C-387.9,213.91-385.23,215.78-383.74,217.2L-383.74,217.2z
	 M-291.35,238.56c-0.45-0.52-4.03-5.87-4.74-5.81c-0.71,0.06-0.58,1.42-0.45,2.06c0.13,0.64,4.94,5.81,4.94,6.19
	c0,0.39,0.33,3.81,0.13,3.68c-0.2-0.13-3.77-6.71-4.61-6.32c-0.85,0.39-0.85,1.87-0.78,2.39c0.07,0.52,5.33,6.13,5.33,6.78
	s0.26,3.94,0,3.29c-0.26-0.64-4.36-7.16-5.07-6.78c-0.71,0.39-0.85,1.62-0.52,2.32c0.33,0.71,5.46,6.39,5.52,7.1
	c0.06,0.71,0.45,5.1,0.06,4.78c-0.39-0.32-3.83-7.03-5.33-7.36c-1.49-0.32-1.69,0.84-1.04,1.42c0.65,0.58,3.25,5.04,3.96,6.32
	c0.71,1.29,2.6,2.97,2.66,3.36s0.13,5.94-0.26,5.68c-0.39-0.26-3.18-6.9-4.94-8.97c-1.75-2.07-2.66-3.1-3.18-2.52
	c-0.52,0.58-0.26,1.55,0.26,2.32c0.52,0.77,5.39,8.52,5.78,9.16s0.71,1.23,0.58,1.68c-0.13,0.45-0.78,1.03-0.78,1.48
	s-0.2,0.58-0.26,0.13c-0.06-0.45-6.11-9.55-7.15-11.04c-1.04-1.48-1.17-1.87-2.14-1.42s0.06,1.8,0.39,2.25
	c0.33,0.45,8.12,11.62,8.19,12.46c0.07,0.84-0.98,1.81-1.49,1.55c-0.52-0.26-7.93-12.39-9.03-14.01c-1.1-1.62-1.56-1.62-2.14-0.9
	c-0.59,0.71,0.78,2,1.75,3.68c0.98,1.68,6.04,9.68,6.76,10.45c0.71,0.78,0.85,1.68,0.85,1.68s-2.14,0.71-2.6,0.32
	c-0.45-0.39-8.9-14.39-9.62-14.39s-1.36,0.97-1.17,1.29c0.2,0.32,9.03,13.17,8.19,13.23c-0.85,0.07-2.99,0.45-3.51,0.07
	s-6.24-11.04-7.21-11.1c-0.98-0.06-1.49,1.55-1.43,1.81c0.07,0.26,6.43,8.91,5.98,9.23c-0.45,0.32-1.82,0.77-2.6,0.19
	c-0.78-0.58-5.91-10.78-6.56-11.04s-2.21,0.77-1.82,1.16c0.39,0.39,6.69,10.26,5.78,10.26c-0.91,0-2.21,0.19-2.6-0.32
	s-5.78-9.36-6.37-9.55c-0.58-0.19-1.82,0.19-1.49,0.97c0.33,0.78,7.02,8.91,6.04,8.91c-0.98,0-3.7,0.58-4.1-0.06
	c-0.39-0.64-5-8.77-5.84-8.97c-0.84-0.2-1.5,0.84-1.37,1.29s5.07,7.68,4.48,7.74c-0.59,0.06-2.99,0.19-3.45-0.13
	c-0.45-0.32-3.96-7.68-4.61-7.74c-0.65-0.07-1.62,0.84-1.49,1.23c0.13,0.39,4.16,6.58,3.38,6.71c-0.78,0.13-2.14,0.32-2.73-0.13
	c-0.58-0.45-4.35-6.84-5.07-6.97c-0.71-0.13-2.08,0.45-1.82,1.03c0.26,0.58,4.22,6.13,3.57,6.2c-0.65,0.06-3.06,0.32-3.38,0
	c-0.32-0.32-4.42-5.61-4.81-5.81c-0.39-0.2-1.88,0.32-1.49,0.71c0.39,0.39,4.1,4.78,3.31,4.9c-0.78,0.13-18.06,0.78-29.3,0.91
	c-11.24,0.13-17.74,0.13-22.03-0.52c-4.29-0.65-6.04-2.13-7.02-2.97c-0.99-0.83-1.7-9.54-1.83-18.84
	c-0.13-9.29-0.78-30.78-0.91-36.21c-0.13-5.42-0.58-12,0.2-13.42c0.44-0.81,5.01-0.97,19.5-1.62s29.11-0.58,48.15-0.77
	c19.04-0.2,28.85-0.52,33.85-0.2c5,0.32,10.07,0.97,10.98,2.71c0.91,1.74,1.3,15.68,0.91,15.36c-0.39-0.32-2.34-2.65-2.79-2.13
	c-0.46,0.52-0.91,1.29-0.52,1.74c0.39,0.45,3.44,2.9,3.51,3.55c0.06,0.64,0.19,1.94,0,1.55c-0.2-0.39-2.27-2.97-2.86-2.39
	c-0.59,0.58-1.04,1.55-0.45,2.06c0.58,0.52,3.44,3.68,3.57,4.39c0.13,0.71,0.07,2.32-0.2,1.87c-0.26-0.45-3.31-4.97-4.1-4.32
	c-0.78,0.64-0.45,2.19-0.32,2.52c0.13,0.33,4.68,4.26,4.68,4.58C-291.48,234.89-290.89,239.08-291.35,238.56L-291.35,238.56z
	 M-288.55,260.44c0.13-6-1.37-50.92-1.63-54.99c-0.26-4.07-7.67-5.29-11.57-5.35c-3.9-0.06-13.19,0.39-14.88,0.39
	c-1.69,0-20.01-0.13-32.81,0c-12.8,0.13-41.52,0.45-46.72,0.45s-10.57,0.66-11.24,1.55c-2.67,3.55-0.33,27.43-0.33,43.69
	s0.78,25.3,1.49,27.56s3.58,8.45,4.61,9.42c1.04,0.97,2.99,0.84,10.59,0.97c7.6,0.13,8.25,0.52,26.25,0.52
	c18,0,36.58-0.58,52.44-1.03c15.86-0.45,17.35-0.71,21.18-3.36C-287.32,277.61-288.68,266.44-288.55,260.44L-288.55,260.44z"/>
<path class="st1" d="M115.17,52.82c-6.98-13.58-17.74-18.18-29.38-17.75C62,35.94,55.37,50.56,52.18,58.91
	c-3.19,8.36-2.59,14.62,1.03,24.2c3.62,9.57,15.68,32.99,19.82,41.08c4.14,8.09,9.14,12.36,14.22,12.36c5.08,0,7.93-1.13,11.8-5.22
	c3.88-4.09,14.13-23.41,19.3-37.34S122.16,66.4,115.17,52.82L115.17,52.82z M113.88,73.8c-0.69-0.09-1.03,1.74-0.95,2.09
	c0.09,0.35,5.17,6.44,5.17,7.14c0,0.69-0.26,4-0.6,3.65c-0.34-0.35-4.83-6.09-5.17-6.09c-0.34,0-1.03,0.96-0.78,1.74
	c0.26,0.78,5.09,6.44,5.09,7.31c0,0.87-0.86,5.05-1.38,4.53c-0.52-0.52-4.39-7.14-5.17-6.96c-0.77,0.17-0.95,1.48-0.86,1.83
	c0.09,0.35,5.34,6.7,5.17,7.66c-0.17,0.96-0.86,2.52-0.86,2.52s-4.91-7.05-5.43-7.05s-1.21,1.39-1.03,1.74
	c0.17,0.35,5.17,6.61,5,7.31c-0.17,0.7-1.46,3.22-1.46,3.22s-4.31-7.14-5-7.31c-0.69-0.17-1.55,1.31-1.29,1.48s5.34,7.05,5.08,7.57
	c-0.26,0.52-1.81,2.87-1.81,2.87s-5-6.79-5.35-6.79c-0.34,0-1.63,1.48-1.63,1.48s5.34,6.44,5.17,7.22c-0.17,0.78-1.47,3.39-1.9,3.05
	c-0.43-0.35-5.17-7.22-5.69-7.22s-1.72,1.13-1.55,1.74c0.17,0.61,5.77,8.01,5.69,8.44c-0.09,0.44-1.9,3.22-1.9,3.22
	s-4.74-7.75-5.26-7.75s-1.55,1.22-1.38,1.48c0.17,0.26,5.52,7.66,5.43,8.18c-0.08,0.52-1.89,2.18-1.89,2.18s-5.08-7.14-5.43-7.22
	c-0.34-0.09-1.21,1.13-1.12,1.57c0.09,0.43,5.34,6.35,4.91,7.22c-0.43,0.87-1.81,1.83-2.07,1.92s-4.14-7.14-5-7.22
	c-0.86-0.09-1.81,0.7-1.47,1.31c0.34,0.61,5.17,7.22,4.65,7.84c-0.52,0.61-2.5,0.43-2.5,0.43s-3.79-6.18-4.31-6.35
	c-0.52-0.17-1.72,0.52-1.55,0.78c0.17,0.26,3.71,5.92,3.45,6.01c-0.26,0.09-5-0.09-10.08-7.84c-5.08-7.75-18.53-32.38-21.72-42.21
	c-3.19-9.84-2.07-18.54,2.59-27.33c4.65-8.79,17.06-15.41,28.17-15.49c7.15-0.06,15.16,0.61,23.61,10.53
	c8.45,9.92,9.39,22.54,9.14,22.54s-2.5-3.66-3.02-3.66s-1.29,0.96-1.03,1.65c0.26,0.7,3.88,5.57,4.05,6.35
	c0.17,0.78,0.17,5.31-0.09,5.22C118.28,80.24,114.57,73.88,113.88,73.8L113.88,73.8z M64.33,50.91c-5.95,6.01-6.8,13.05-6.8,13.05
	s0.95,0.7,1.55,0.52c0.6-0.17,0.17-0.78,1.64-4.61c1.47-3.83,4.74-7.4,4.74-7.4S64.88,50.35,64.33,50.91L64.33,50.91z M84.58,49.6
	c-2.33,0.26-2.07,2.7-1.64,3.83c0.43,1.13-0.09,8.27-5.52,9.57c-5.43,1.31-8.71-2.79-8.96-2.61c-4.83,3.39-3.62,14.88,1.81,23.07
	c5.43,8.18,18.18,9.23,26.28,4.7c8.1-4.53,13.27-14.01,8.1-26.63C99.49,48.91,86.91,49.34,84.58,49.6L84.58,49.6z M102.6,71.19
	c-0.86,12.88-9.14,17.06-17.15,16.71c-8.02-0.35-11.37-6.18-12.84-9.31c-1.47-3.13-1.29-9.83-0.17-10.36
	c0.39-0.18,6.03,1.65,11.38-2.87c5.34-4.53,5.26-9.31,6.29-9.66C91.13,55.34,103.46,58.3,102.6,71.19L102.6,71.19z"/>
<g id="viber_2_">
	<g>
		<path class="st1" d="M886.51,62.45c-11-5.5-12.79-4.6-14.58-0.9c-1.79,3.71-3.33,8.83-7.04,10.36c-3.71,1.53-11,2.81-20.21-4.6
			c-9.21-7.42-10.36-11.39-8.44-18.04c1.92-6.65,6.52-8.7,8.32-11.26s0.51-8.96-3.84-12.54c-0.91-0.75-8.44-10.23-17.4-14.2
			s-14.84,0-17.4,2.3c-2.56,2.3-9.85,12.41-11.13,23.15c-1.28,10.75,3.32,22.51,10.49,30.96s21.11,23.41,40.55,34.03
			c19.44,10.62,30.45,13.81,44.26,5.63c13.81-8.19,15.61-8.44,15.99-14.58c0.38-6.14,0.9-11-2.3-14.84
			C900.58,74.09,897.51,67.95,886.51,62.45z M903.01,86.07c-0.6,0.51-1.45,1.88-1.45,1.88s-3.92-7.25-4.6-7.25
			c-0.68,0-1.88,0.94-1.53,1.45c0.34,0.51,4.52,6.99,4.18,7.51c-0.34,0.51-1.62,1.96-1.96,1.79c-0.34-0.17-4.95-8.19-4.95-8.19
			s-1.71,0.94-1.45,1.36c0.26,0.43,4.86,8.44,4.52,8.87s-2.56,1.36-2.56,1.36s-3.75-7.16-4.09-7.16c-0.34,0-1.88,0.85-1.79,1.11
			c0.09,0.26,4.01,7.08,3.67,7.25c-0.34,0.17-2.47,1.36-2.81,1.28s-2.98-5.63-3.41-5.71c-0.43-0.09-1.88,0.51-1.79,0.94
			c0.09,0.43,3.24,6.06,2.9,6.23s-2.05,1.02-2.3,0.85c-0.26-0.17-2.73-5.8-2.98-5.8c-0.26,0-1.71,0.34-1.71,1.02
			c0,0.68,2.9,5.88,2.39,5.97c-0.51,0.09-3.32,0.94-3.5,0.6c-0.17-0.34-2.22-5.97-2.64-6.05c-0.43-0.09-2.13-0.17-1.79,0.43
			c0.34,0.6,2.9,5.88,2.3,5.97c-0.6,0.09-3.92,0.26-4.09-0.17c-0.17-0.43-1.71-4.69-1.96-4.86c-0.26-0.17-2.13-0.34-2.13,0.26
			c0,0.6,1.79,4.43,1.53,4.43c-0.26,0-3.24,0.17-20.81-10.32c-17.57-10.49-28.14-18.59-38.63-32.66
			c-10.49-14.07-10.23-22.17-8.7-30.45s10.4-13.99,11.94-14.84c3.18-1.77,8.02-2.13,17.65,5.8c9.64,7.93,12.28,13.9,11.68,16.29
			c-0.6,2.39-6.57,8.7-8.1,12.37c-1.53,3.67-2.39,10.57,3.75,17.06c6.14,6.48,13.81,10.75,19.79,11.51
			c5.97,0.77,10.23-0.94,12.02-3.75c1.79-2.81,4.95-10.66,5.97-11c1.02-0.34,10.06,1.79,17.4,8.53c7.33,6.74,7.68,7.33,7.25,7.85
			s-1.02,1.11-0.68,1.36c0.34,0.26,2.39,3.24,2.98,4.35C903.09,84.62,903.6,85.56,903.01,86.07z M855.93,33.97
			c0.34,0.26,3.84,0,10.06,4.18c6.23,4.18,6.99,9.72,7.59,10.23c0.6,0.51,8.61-1.62,9.13-1.88c0.51-0.26,0-5.03,0-5.46
			s-1.11-6.74-7.33-13.64c-6.23-6.91-16.71-7.08-17.48-6.74c-0.77,0.34-3.75,6.05-4.09,6.99C853.46,28.59,855.93,33.97,855.93,33.97
			z M858.75,22.88c0.26,0,10.15-0.09,15.43,6.4c5.29,6.48,5.88,11.26,5.37,11.43c-0.51,0.17-3.84,0.51-3.84,0.51
			s-2.22-7.42-8.61-10.49s-9.64-3.32-10.23-3.58C856.87,27.14,858.49,22.88,858.75,22.88z M878.45,23.39
			c9.3,7.85,8.36,18.42,8.53,20.64c0.17,2.22,0.89,2.14,1.28,2.47c0.68,0.6,8.1-1.11,8.78-1.53c0.68-0.43,0.51-4.78,0.43-6.14
			c-0.09-1.36-2.56-16.89-15.86-26.86c-13.3-9.98-26.27-7.08-26.78-6.57c-0.51,0.51,0.68,9.47,2.39,9.89
			C858.92,15.72,869.15,15.55,878.45,23.39z M857.64,7.96c0.17-0.68,4.6-0.94,9.21,0s12.2,3.41,19.79,11.34s7.76,19.96,7.76,20.98
			s-2.73,1.11-3.5,1.11c0,0,1.36-8.7-7.93-19.7c-9.3-11-24.22-10.57-24.9-10.49C857.38,11.28,857.47,8.64,857.64,7.96z
			 M910.09,24.42c-3.15-10.92-6.57-21.83-22.86-31.55c-16.29-9.72-34.2-5.12-34.37-4.61c-0.17,0.51,2.24,12.21,2.64,12.37
			c0.68,0.26,4.26-1.79,14.5-0.34s18.59,8.1,23.96,15.95c5.37,7.85,7.25,26.27,7.42,26.95c0.17,0.68,10.15-0.77,10.4-0.85
			C912.05,42.24,913.24,35.33,910.09,24.42z M909.83,35.16c-0.6,0.34-4.35,0.85-4.6,0.34c-0.26-0.51-3.41-19.27-11.26-27.89
			C886.12-1,870.86-7.56,856.27-4.49l-1.02-5.46c0,0,12.37-3.24,25.75,2.64s20.21,15.26,23.96,23.79
			C908.72,25.01,910.43,34.82,909.83,35.16z"/>
	</g>
</g>
<g>
	<path class="st1" d="M897.33,280.37c11.25,7.21,24.62,11.42,38.97,11.42c47.21,0,73.87-39.87,72.27-75.63
		c4.97-3.58,9.28-8.06,12.69-13.16c-4.56,2.02-9.46,3.39-14.6,4c5.25-3.14,9.28-8.12,11.18-14.07c-4.91,2.91-10.35,5.03-16.14,6.17
		c-4.64-4.94-11.25-8.03-18.56-8.03c-16.41,0-28.47,15.31-24.77,31.22c-21.13-1.06-39.87-11.18-52.4-26.57
		c-6.66,11.43-3.46,26.38,7.87,33.95c-4.17-0.13-8.09-1.28-11.52-3.18c-0.27,11.78,8.17,22.8,20.39,25.25
		c-3.58,0.98-7.5,1.2-11.48,0.43c3.23,10.11,12.62,17.45,23.75,17.66C924.28,278.23,910.82,281.97,897.33,280.37z"/>
	<path class="st1" d="M781.56,305.37h25.37v-63.54h17.7l1.89-21.27h-19.59c0,0,0-7.94,0-12.12c0-5.02,1.01-7,5.86-7
		c3.9,0,13.73,0,13.73,0v-22.08c0,0-14.48,0-17.57,0c-18.88,0-27.39,8.32-27.39,24.23c0,13.86,0,16.96,0,16.96h-13.2v21.54h13.2
		V305.37z"/>
	<g>
		<path class="st1" d="M1135.99,190.71c16.82,0,18.81,0.06,25.46,0.37c6.14,0.28,9.48,1.31,11.7,2.17c2.94,1.14,5.04,2.51,7.24,4.71
			c2.2,2.2,3.57,4.3,4.71,7.24c0.86,2.22,1.89,5.56,2.17,11.7c0.3,6.64,0.37,8.64,0.37,25.46c0,16.82-0.06,18.82-0.37,25.46
			c-0.28,6.14-1.31,9.48-2.17,11.7c-1.14,2.94-2.51,5.04-4.71,7.24c-2.2,2.2-4.3,3.57-7.24,4.71c-2.22,0.86-5.56,1.89-11.7,2.17
			c-6.64,0.3-8.63,0.37-25.46,0.37s-18.82-0.06-25.46-0.37c-6.14-0.28-9.48-1.31-11.7-2.17c-2.94-1.14-5.04-2.51-7.24-4.71
			c-2.2-2.2-3.57-4.3-4.71-7.24c-0.86-2.22-1.89-5.56-2.17-11.7c-0.3-6.64-0.37-8.64-0.37-25.46c0-16.82,0.06-18.81,0.37-25.46
			c0.28-6.14,1.31-9.48,2.17-11.7c1.14-2.94,2.51-5.04,4.71-7.24c2.2-2.2,4.3-3.57,7.24-4.71c2.22-0.86,5.56-1.89,11.7-2.17
			C1117.17,190.78,1119.16,190.71,1135.99,190.71 M1135.99,179.36c-17.11,0-19.26,0.07-25.98,0.38c-6.71,0.31-11.29,1.37-15.29,2.93
			c-4.14,1.61-7.66,3.76-11.16,7.27c-3.5,3.5-5.66,7.02-7.27,11.16c-1.56,4.01-2.62,8.59-2.93,15.29
			c-0.31,6.72-0.38,8.87-0.38,25.98c0,17.11,0.07,19.26,0.38,25.98c0.31,6.71,1.37,11.29,2.93,15.29c1.61,4.14,3.76,7.66,7.27,11.16
			c3.5,3.5,7.02,5.66,11.16,7.27c4.01,1.56,8.59,2.62,15.29,2.93c6.72,0.31,8.87,0.38,25.98,0.38s19.26-0.07,25.98-0.38
			c6.71-0.31,11.29-1.37,15.29-2.93c4.14-1.61,7.66-3.76,11.16-7.27c3.5-3.5,5.66-7.02,7.27-11.16c1.56-4.01,2.62-8.59,2.93-15.29
			c0.31-6.72,0.38-8.87,0.38-25.98c0-17.11-0.07-19.26-0.38-25.98c-0.31-6.71-1.37-11.29-2.93-15.29
			c-1.61-4.14-3.76-7.66-7.27-11.16c-3.5-3.5-7.02-5.66-11.16-7.27c-4.01-1.56-8.59-2.62-15.29-2.93
			C1155.24,179.44,1153.1,179.36,1135.99,179.36"/>
		<path class="st1" d="M1135.99,210.01c-17.87,0-32.35,14.49-32.35,32.35c0,17.87,14.49,32.35,32.35,32.35s32.35-14.48,32.35-32.35
			C1168.34,224.5,1153.85,210.01,1135.99,210.01 M1135.99,263.37c-11.6,0-21-9.4-21-21s9.4-21,21-21s21,9.4,21,21
			S1147.58,263.37,1135.99,263.37"/>
		<path class="st1" d="M1177.18,208.73c0,4.18-3.38,7.56-7.56,7.56c-4.18,0-7.56-3.39-7.56-7.56c0-4.18,3.39-7.56,7.56-7.56
			C1173.79,201.17,1177.18,204.56,1177.18,208.73"/>
	</g>
</g>
</svg>
