<svg xmlns="http://www.w3.org/2000/svg" viewBox="0 0 35.55 49.68"><defs><style>.cls-1{fill:#fff;}</style></defs><g id="Layer_2" data-name="Layer 2"><g id="Layer_1-2" data-name="Layer 1"><path class="cls-1" d="M29.25,33.67a1.14,1.14,0,0,1-.23.38c-.1.16-.26.31-.46.23s-.18-.3-.13-.48c.13-.36.26-.72.41-1.06.64-1.33,1.28-2.66,1.92-4a8.81,8.81,0,0,1,.36-.82,1.71,1.71,0,0,1,.44-.49c.08-.05.26,0,.54,0-.36.89-.64,1.66-1,2.38-.54,1.16-1.16,2.28-1.72,3.41Z"/><path class="cls-1" d="M27.38,36c-.18-.46.07-.77.71-.8a.81.81,0,0,1-.05.93.4.4,0,0,1-.36.15C27.56,36.31,27.43,36.16,27.38,36Z"/><path class="cls-1" d="M28.61,30.36c.13-.26.28-.46.61-.41a.65.65,0,0,1,.06.74c-.54,1.16-1.11,2.29-1.67,3.44a.43.43,0,0,1-.62.23,3.87,3.87,0,0,1,.13-.61C27.58,32.62,28.09,31.49,28.61,30.36Z"/><path class="cls-1" d="M26.91,17h-2.1c0,.39-.08.75-.1,1.11h1.77A2.16,2.16,0,0,0,26.91,17Zm.44-1.72H24.89v1.16c.64-.05,1.2-.1,1.77-.13a.61.61,0,0,0,.23,0c.1-.05.26-.12.31-.23S27.3,15.58,27.35,15.32Zm-2.51-.64c.89.08,1.74-.13,2.66,0V13.4l-2.66.15Zm1.1,4.18-1.41-.07c-.05.18-.1.36-.18.61a3.6,3.6,0,0,1,.64-.18,2.39,2.39,0,0,1,.67.08A3.77,3.77,0,0,1,25.94,18.86ZM24.71,13l2.85-.23a11.82,11.82,0,0,1-.13-1.18c-1,.05-1.95.13-2.95.18C24.53,12.19,24.63,12.58,24.71,13ZM16,23.59a5.79,5.79,0,0,1-1.93-.9l.7-.57a1.61,1.61,0,0,0,.48.26,7.65,7.65,0,0,0,3,.59A6.9,6.9,0,0,0,22,22a.89.89,0,0,0,.38-.3,13.6,13.6,0,0,0,1.41-3.62,13.35,13.35,0,0,0,.16-4.41c-.13-1-.34-1.95-.57-2.93A11.25,11.25,0,0,0,22.76,9a3.39,3.39,0,0,0-.31-.67l.77-.18c.23.47.44.85.62,1.18H24l.06.49c.1.54.2,1,.3,1.49,1-.08,1.93-.18,3-.28-.15-.46-.31-.93-.49-1.44l.82-.44a8.94,8.94,0,0,1,.85,4.37,11.77,11.77,0,0,1-.74,4.26,7.17,7.17,0,0,1-1.67,2.51,12.84,12.84,0,0,1-5.24,3.28A8.24,8.24,0,0,1,16,23.59Z"/><path class="cls-1" d="M13.06,21.87A10.57,10.57,0,0,1,10.52,18a23.87,23.87,0,0,1-.95-2.56,11.08,11.08,0,0,1-.26-4.29,8.61,8.61,0,0,1,2.85-5.13,9.43,9.43,0,0,1,3.7-2.21,11.35,11.35,0,0,1,2.28-.43,12.35,12.35,0,0,1,3.64.25A5.45,5.45,0,0,1,24.3,4.86a14.9,14.9,0,0,1,2.41,2.66,10.59,10.59,0,0,1,.95,1.59l-.82.44L24,9.78l-.08-.49L26.48,9c-.28-.41-.51-.8-.77-1.18-.82.12-1.64.2-2.49.3l-.77.18a5.86,5.86,0,0,0-2.26-2.13A9.46,9.46,0,0,0,16.6,4.93a2.39,2.39,0,0,0-1.39.18,9.73,9.73,0,0,0-2.46,1.72,8.33,8.33,0,0,0-2.41,7.42A14.5,14.5,0,0,0,11,16.84a10.06,10.06,0,0,0,3.72,5.28l-.7.57A8.11,8.11,0,0,1,13.06,21.87Z"/><path class="cls-1" d="M8.24,5.16c.61.08.77,0,1.12-.61a1.51,1.51,0,0,0-1.74.56C7.85,5.14,8.06,5.14,8.24,5.16Zm-3.11,5c.23-.46.46-1,.72-1.49h0l-.08-.46c.54,0,.67-.15.87-.79H6.47V6.86A1.63,1.63,0,0,0,8.16,5.73,2.13,2.13,0,0,0,6,6.42L5.44,6A17.67,17.67,0,0,1,9.6,2.85a34.85,34.85,0,0,1,3.84-1.59A27,27,0,0,1,16.06.49,12.1,12.1,0,0,1,22.35.37l.2.07-.2.67L22,1a7.86,7.86,0,0,0-4,.05c-.57.18-1.21.21-1.77.44a26.43,26.43,0,0,0-4.88,2.57A13.09,13.09,0,0,0,8.75,6.37c-.15.18-.33.36-.51.54a11.57,11.57,0,0,0-2.42,3.54Z"/><path class="cls-1" d="M12.16,47.06c.28.39.28.34.64.44a5.64,5.64,0,0,0,1.59,0,13.17,13.17,0,0,0,1.31-.15c-.31-.36-.54-.62-.74-.87Zm1.21-2.69c-.93.36-1.77.72-2.67,1.08a1.23,1.23,0,0,0,1.72.71c.1,0,.23,0,.33,0,.51-.15,1-.31,1.59-.46ZM9,43.39c.34.46.67.88,1,1.26a8.83,8.83,0,0,0,3.1-.72l-.82-1.23a.35.35,0,0,0-.48-.15ZM6.7,40.08c1.15-.28,2.28-.56,3.49-.84-.41-.7-.77-1.31-1.16-2l-3.59.77A18.36,18.36,0,0,0,6.7,40.08Zm.46.77c.43.59.82,1.16,1.23,1.75l3.31-.7c-.44-.74-.82-1.43-1.21-2.1Zm-3-5.44c.33.67.64,1.23.94,1.88,1.21-.18,2.42-.36,3.65-.57-.34-.67-.62-1.28-.93-1.95C6.57,35,5.39,35.21,4.11,35.41ZM6.47,32.1l-3.6.52c.29.69.57,1.36.85,2.05,1.28-.15,2.51-.31,3.82-.49C7.16,33.51,6.82,32.85,6.47,32.1ZM3.54,15.79l-2.1.43a9.09,9.09,0,0,0-.29,1.72H3.36C3.44,17.2,3.49,16.5,3.54,15.79ZM1.85,29.13C3,29,4,28.9,5.05,28.79c-.18-.61-.38-1.23-.56-1.84l-3.05.41C1.57,28,1.72,28.59,1.85,29.13Zm3.38.25A12.73,12.73,0,0,0,2,29.9c.2.66.38,1.31.59,2a18,18,0,0,0,3.51-.38C5.82,30.77,5.54,30.08,5.23,29.38ZM3.64,15.27a10.35,10.35,0,0,0,.26-2l-1.82.31c-.16.64-.31,1.28-.49,2C2.31,15.43,3,15.35,3.64,15.27ZM2.28,12.83c.72-.07,1.31-.12,1.93-.2.15-.51.28-1,.43-1.59-.59.05-1.12.08-1.72.1C2.75,11.65,2.54,12.19,2.28,12.83Zm.88,8.65c-.75.33-1.62.18-2.34.54v1.92c1-.07,1.9-.15,2.9-.25C3.54,22.94,3.72,22.15,3.16,21.48Zm.23-3.1c-.8.12-1.57.23-2.39.33-.08.85-.15,1.67-.23,2.57a23.63,23.63,0,0,0,2.62-.47ZM1,24.66a5.13,5.13,0,0,0,.38,2c1-.07,2-.15,3-.25C4.13,25.66,4,25,3.8,24.2ZM0,23c0-1.28.15-2.54.18-3.82a8.66,8.66,0,0,1,.26-1.67c.07-.54.2-1.1.3-1.67a23.89,23.89,0,0,1,1.52-5A14.89,14.89,0,0,1,4.93,6.55c.18-.18.33-.36.51-.54L6,6.42c-.12.13-.2.26-.3.39.28,0,.53.05.77.05V7.4c-.36,0-.7,0-1,0A.71.71,0,0,0,5,7.57a3.53,3.53,0,0,0-.48.65h1.2l0,.46-1.41.15A.48.48,0,0,0,4,9c-.28.46-.57,1-.85,1.51H4.72a.43.43,0,0,0,.31-.2.46.46,0,0,1,.1-.21l.69.33a17.05,17.05,0,0,0-1.07,3.26,25.82,25.82,0,0,0-.44,7.85,25.93,25.93,0,0,0,2.28,8.86,91.65,91.65,0,0,0,4.62,9,51.31,51.31,0,0,0,4.34,6.36A12.6,12.6,0,0,0,18,48.29l.51-.15a2.43,2.43,0,0,0,.44-.26,22.51,22.51,0,0,0,4.38-4.23C24.58,42.11,25.81,40.57,27,39a5.22,5.22,0,0,0,.54-.74c.77-1.23,1.57-2.47,2.31-3.75a21.91,21.91,0,0,0,1.31-2.72c.67-1.67,1.26-3.33,1.9-5a17.35,17.35,0,0,0,1.15-4.42,32.55,32.55,0,0,0,.36-4.84c0-.65-.07-1.29-.1-1.95A17.21,17.21,0,0,0,33.59,11a26.19,26.19,0,0,0-1.7-3.74,7.63,7.63,0,0,0-2.2-2.52,18.62,18.62,0,0,0-5.32-2.87c-.69-.21-1.36-.57-2.05-.77l.21-.67a21.78,21.78,0,0,1,6.41,2.8,13.65,13.65,0,0,1,2.62,2.1,5.26,5.26,0,0,1,.69.9,20.77,20.77,0,0,1,3,8,27.35,27.35,0,0,1,.08,7.06,22.12,22.12,0,0,1-1.08,5.13c-.62,1.67-1.21,3.34-1.85,5A25,25,0,0,1,31,34.44a35.15,35.15,0,0,1-4.08,6.18c-1,1.1-1.82,2.31-2.72,3.47a22.13,22.13,0,0,1-5.16,4.82.68.68,0,0,0-.25.23,1.46,1.46,0,0,1-1.31.54c-.44,0-.87,0-1.31,0V49.6H14.83a3.28,3.28,0,0,1-2.57-1.18A45,45,0,0,1,8.18,43.7C7.08,42.16,6,40.6,5,39c-.44-.74-.77-1.54-1.21-2.28A31,31,0,0,1,.74,28.1c-.18-.82-.46-1.62-.59-2.44S0,23.94,0,23Z"/></g></g></svg>