<?xml version="1.0" encoding="utf-8"?>
<!-- Generator: Adobe Illustrator 23.0.6, SVG Export Plug-In . SVG Version: 6.00 Build 0)  -->
<svg version="1.1" id="Layer_1" xmlns="http://www.w3.org/2000/svg" xmlns:xlink="http://www.w3.org/1999/xlink" x="0px" y="0px"
	 viewBox="0 0 172.34 172.34" style="enable-background:new 0 0 172.34 172.34;" xml:space="preserve">
<style type="text/css">
	.st0{fill:none;}
	.st1{fill:#FFFFFF;}
</style>
<rect x="-100.7" y="-100.7" class="st0" width="373" height="373"/>
<path class="st1" d="M138.39,53.14c0.45-0.58,0.78-1.03-0.85-3.42c-1.62-2.39-5.22-3.05-5.85-2.71c-2.01,1.1-0.91,3.36,0.98,3.42
	c1.88,0.06,2.79,2.39,3.44,3.16S137.93,53.73,138.39,53.14L138.39,53.14z M34.75,55.15c0.39-1.55,2.92-1.48,3.64-1.87
	c0.71-0.39,0.85-0.26,0.71-1.1c-0.13-0.84-0.98-1.74-3.57-1.29c-2.6,0.45-3.9,2.77-3.83,4.77c0.07,2-0.09,6.3,0.52,6.65
	c0.91,0.51,1.95,0.51,2.34,0.06C34.95,61.92,34.36,56.69,34.75,55.15L34.75,55.15z M37.47,115.1c-0.71-0.64,0-4.97-0.39-5.68
	c-0.39-0.71-2.24-0.67-2.54,0c-0.45,1.03-0.32,4.39,0.2,6.19c0.52,1.81,1.88,2.9,3.7,2.65c1.82-0.26,1.75-2,1.56-2.45
	C39.81,115.36,38.19,115.74,37.47,115.1L37.47,115.1z M91.34,86.7c-3.19,0.51-6.58-0.55-7.41-0.71c-1.36-0.26-1.63,1.42-0.78,2.2
	c0.85,0.77,2.66,1.29,7.47,1.23c4.81-0.06,8.05-1.94,8.58-2.78c0.52-0.84-0.26-2.07-1.17-2.2C97.11,84.31,94.52,86.18,91.34,86.7
	L91.34,86.7z M48.97,101.87c-1.75,2.13-1.56,2.19-2.01,2.13c-0.45-0.06,0-19.56-0.2-23.17c-0.2-3.61-0.58-7.68-0.26-8.39
	c0.22-0.47,6.11,4.58,9.29,7.23c3.18,2.64,4.87,4.13,5,4.77C60.93,85.09,50.73,99.73,48.97,101.87L48.97,101.87z M57.09,74.96
	c-4.23-4.07-14.66-12.93-15.79-12.91c-4.94,0.06-3.44,7.61-3.12,17.42c0.33,9.81,1.82,22.4,2.6,25.75c0.78,3.36,3.25,3.42,5.26,2.9
	c2.01-0.51,3.58-3.16,7.54-8.13c3.96-4.97,9.75-12.97,10.27-16.46C64.37,80.05,61.32,79.02,57.09,74.96L57.09,74.96z M117.65,103.61
	c-0.39,0.39-14.55,1.55-32.29,2.26s-20.66,0.45-20.47,0.13c0.2-0.32,9.29-10.65,10.2-10.78c0.58-0.08,10.07,4.52,14.29,4.65
	c4.22,0.13,9.1-1.68,13.19-4.65c4.1-2.97,6.3-4.52,6.95-4.45s5.91,7.36,7.08,9.42C117.78,102.26,118.04,103.22,117.65,103.61
	L117.65,103.61z M114.73,93.35c-2.8-3.42-4.68-6.71-6.76-6.65c-2.08,0.06-5.91,2.45-9.16,4.65c-3.25,2.19-6.17,3.49-9.1,3.49
	c-2.93,0-9.68-3.49-10.59-4.2c-0.91-0.71-5.68-2.22-6.76-2.07c-2.21,0.33-13.64,15.3-14.69,16.59c-1.04,1.29,1.43,3.61,2.99,3.81
	c1.56,0.19,5.85,0,26.38-0.84c20.54-0.84,30.41-1.55,32.23-1.94c1.82-0.39,1.88-2,1.49-3.23
	C120.37,101.74,117.52,96.77,114.73,93.35L114.73,93.35z M131.69,97.03c-0.65-0.39-6.17-8.13-7.47-9.29c-1.3-1.16-3.51-2.9-3.7-3.74
	c-0.12-0.5,11.37-14.13,11.76-13.68C132.66,70.76,132.34,97.41,131.69,97.03L131.69,97.03z M132.98,59.4
	c-1.75-0.32-7.73,7.23-11.5,11.94c-3.77,4.71-7.77,9.69-7.86,10c-0.39,1.29,0.91,1.55,4.68,4.84c3.77,3.29,8.45,10,10.33,12.33
	c1.88,2.33,3.05,2.84,4.42,1.87c1.36-0.97,1.04-2,1.23-6.45c0.19-4.45,0.45-20.07,0.78-26.4C135.39,61.21,134.74,59.73,132.98,59.4
	L132.98,59.4z M87.76,61.21c14.17,0.06,30.34-0.64,30.93,0c0.58,0.64-10.33,10.97-17.02,14.97c-6.69,4-9.75,6-15.73,5.16
	c-5.98-0.84-17.22-10.39-21.51-13.55c-4.29-3.16-6.89-5.42-6.69-5.88C57.89,61.58,73.6,61.14,87.76,61.21L87.76,61.21z M50.6,60.63
	c1.49,1.42,13.26,10.91,21.51,17.1c8.25,6.19,10.53,6.84,16.5,6.71c5.98-0.13,9.42-2.65,14.88-5.81
	c5.46-3.16,20.66-18.01,22.61-20.65c1.95-2.65,0.71-2.97-0.65-3.55c-1.36-0.58-6.69-0.58-25.6-0.19
	c-18.91,0.39-40.81,0.58-45.03,0.64s-7.19,0.59-7.47,1.03C46.44,57.34,49.1,59.21,50.6,60.63L50.6,60.63z M142.99,81.99
	c-0.45-0.52-4.03-5.87-4.74-5.81c-0.71,0.06-0.58,1.42-0.45,2.06c0.13,0.64,4.94,5.81,4.94,6.19c0,0.39,0.33,3.81,0.13,3.68
	c-0.2-0.13-3.77-6.71-4.61-6.32c-0.85,0.39-0.85,1.87-0.78,2.39c0.07,0.52,5.33,6.13,5.33,6.78s0.26,3.94,0,3.29
	c-0.26-0.64-4.36-7.16-5.07-6.78c-0.71,0.39-0.85,1.62-0.52,2.32c0.33,0.71,5.46,6.39,5.52,7.1c0.06,0.71,0.45,5.1,0.06,4.78
	c-0.39-0.32-3.83-7.03-5.33-7.36c-1.49-0.32-1.69,0.84-1.04,1.42c0.65,0.58,3.25,5.04,3.96,6.32c0.71,1.29,2.6,2.97,2.66,3.36
	c0.07,0.39,0.13,5.94-0.26,5.68c-0.39-0.26-3.18-6.9-4.94-8.97c-1.75-2.07-2.66-3.1-3.18-2.52c-0.52,0.58-0.26,1.55,0.26,2.32
	c0.52,0.77,5.39,8.52,5.78,9.16c0.39,0.64,0.71,1.23,0.58,1.68c-0.13,0.45-0.78,1.03-0.78,1.48s-0.2,0.58-0.26,0.13
	c-0.06-0.45-6.11-9.55-7.15-11.04s-1.17-1.87-2.14-1.42c-0.97,0.45,0.06,1.8,0.39,2.25c0.33,0.45,8.12,11.62,8.19,12.46
	c0.07,0.84-0.98,1.81-1.49,1.55c-0.52-0.26-7.93-12.39-9.03-14c-1.1-1.62-1.56-1.62-2.14-0.9c-0.59,0.71,0.78,2,1.75,3.68
	c0.98,1.68,6.04,9.68,6.76,10.45c0.71,0.78,0.85,1.68,0.85,1.68s-2.14,0.71-2.6,0.32c-0.45-0.39-8.9-14.39-9.62-14.39
	s-1.36,0.97-1.17,1.29c0.2,0.32,9.03,13.17,8.19,13.23c-0.85,0.07-2.99,0.45-3.51,0.07c-0.52-0.39-6.24-11.04-7.21-11.1
	s-1.49,1.55-1.43,1.81c0.07,0.26,6.43,8.91,5.98,9.23c-0.45,0.32-1.82,0.77-2.6,0.19c-0.78-0.58-5.91-10.78-6.56-11.04
	c-0.65-0.26-2.21,0.77-1.82,1.16c0.39,0.39,6.69,10.26,5.78,10.26c-0.91,0-2.21,0.19-2.6-0.32c-0.39-0.52-5.78-9.36-6.37-9.55
	c-0.58-0.19-1.82,0.19-1.49,0.97c0.33,0.78,7.02,8.91,6.04,8.91c-0.98,0-3.7,0.58-4.1-0.06c-0.39-0.64-5-8.77-5.84-8.97
	s-1.5,0.84-1.37,1.29c0.13,0.45,5.07,7.68,4.48,7.74c-0.59,0.06-2.99,0.19-3.45-0.13c-0.45-0.32-3.96-7.68-4.61-7.74
	c-0.65-0.07-1.62,0.84-1.49,1.23c0.13,0.39,4.16,6.58,3.38,6.71c-0.78,0.13-2.14,0.32-2.73-0.13c-0.58-0.45-4.35-6.84-5.07-6.97
	c-0.71-0.13-2.08,0.45-1.82,1.03c0.26,0.58,4.22,6.13,3.57,6.2s-3.06,0.32-3.38,0c-0.32-0.32-4.42-5.61-4.81-5.81
	c-0.39-0.2-1.88,0.32-1.49,0.71c0.39,0.39,4.1,4.78,3.31,4.9c-0.78,0.13-18.06,0.78-29.3,0.91c-11.24,0.13-17.74,0.13-22.03-0.52
	c-4.29-0.65-6.04-2.13-7.02-2.97c-0.99-0.83-1.7-9.54-1.83-18.84c-0.13-9.29-0.78-30.78-0.91-36.21s-0.58-12,0.2-13.42
	c0.44-0.81,5.01-0.97,19.5-1.62c14.49-0.65,29.11-0.58,48.15-0.77c19.04-0.2,28.85-0.52,33.85-0.2c5,0.32,10.07,0.97,10.98,2.71
	c0.91,1.74,1.3,15.68,0.91,15.36c-0.39-0.32-2.34-2.65-2.79-2.13c-0.46,0.52-0.91,1.29-0.52,1.74c0.39,0.45,3.44,2.9,3.51,3.55
	c0.06,0.64,0.19,1.94,0,1.55c-0.2-0.39-2.27-2.97-2.86-2.39c-0.59,0.58-1.04,1.55-0.45,2.06c0.58,0.52,3.44,3.68,3.57,4.39
	c0.13,0.71,0.07,2.32-0.2,1.87c-0.26-0.45-3.31-4.97-4.1-4.32c-0.78,0.64-0.45,2.19-0.32,2.52s4.68,4.26,4.68,4.58
	S143.45,82.51,142.99,81.99L142.99,81.99z M145.79,103.87c0.13-6-1.37-50.92-1.63-54.99c-0.26-4.07-7.67-5.29-11.57-5.35
	s-13.19,0.39-14.88,0.39c-1.69,0-20.01-0.13-32.81,0s-41.52,0.45-46.72,0.45s-10.57,0.66-11.24,1.55
	c-2.67,3.55-0.33,27.43-0.33,43.69s0.78,25.3,1.49,27.56c0.71,2.26,3.58,8.45,4.61,9.42c1.04,0.97,2.99,0.84,10.59,0.97
	c7.6,0.13,8.25,0.52,26.25,0.52s36.58-0.58,52.44-1.03c15.86-0.45,17.35-0.71,21.18-3.36C147.02,121.04,145.66,109.87,145.79,103.87
	L145.79,103.87z"/>
</svg>
