<svg xmlns="http://www.w3.org/2000/svg" viewBox="0 0 77.39 48.99"><defs><style>.cls-1{fill:#fff;}</style></defs><g id="Layer_2" data-name="Layer 2"><g id="Layer_1-2" data-name="Layer 1"><path class="cls-1" d="M77.38,23.1a.48.48,0,0,0-.33-.25A.44.44,0,0,0,77,22.7a.54.54,0,0,0-.38-.17c-5.8-2.83-12.7-3-19.36-3.22-2,0-4.07-.11-6.08-.24a28.88,28.88,0,0,0,.74-4,13.51,13.51,0,0,0-2.64-9.81A9.1,9.1,0,0,0,43,1.86c-.27,0-.55,0-.81,0-5.3,0-8.64,5.68-8.68,11v.17a17.39,17.39,0,0,1-1.29-1.28.6.6,0,0,0-.66-.12A273.85,273.85,0,0,0,5.92,25.81L3.31,27.47C2.79,27.81.86,29,.73,29.05l-.06,0a.49.49,0,0,0-.41.19l-.19.29a.33.33,0,0,0,0,.32.42.42,0,0,0,.3.24.43.43,0,0,0,.36.15h0a30.33,30.33,0,0,1,14.13,2.53c3.79,1.67,7.15,4.27,10.4,6.78l1,.78C31.68,44.53,38.07,49,45.36,49a18,18,0,0,0,3.27-.3.64.64,0,0,0,.19-.08H49l.22,0c.07,0,.15,0,3.56-3.14a228.31,228.31,0,0,0,24.56-22A.29.29,0,0,0,77.38,23.1ZM64.53,25.85A27,27,0,0,0,61.12,24,36.64,36.64,0,0,1,67,20.77a.37.37,0,0,0,.21-.16,29.58,29.58,0,0,1,8.55,2.45l-5.89,5.33A18.38,18.38,0,0,1,64.53,25.85Zm-51.82-3.2c1.51-.9,3.14-1.84,5-2.87a33.68,33.68,0,0,0,4,3.4c-.79.52-1.45,1-2.06,1.4A23,23,0,0,0,12.71,22.65Zm7.09,2.87a37.17,37.17,0,0,1,5.1,3,31.64,31.64,0,0,0-5.38,5.6h0a39.88,39.88,0,0,0-6.2-3.51C15.31,28.89,17.49,27.17,19.8,25.52Zm26.64,3.92a36.12,36.12,0,0,0,3.15-5.78,19.88,19.88,0,0,1,9.72.5,67.62,67.62,0,0,0-7.49,6.21A30.58,30.58,0,0,0,46.44,29.44ZM20.53,25c.58-.4,1.2-.83,1.9-1.29a32.86,32.86,0,0,0,5.08,2.85c-.75.53-1.37,1-1.94,1.44A37.78,37.78,0,0,0,20.53,25Zm18.65,4.41h.42c.84,1.53,1.71,3,2.57,4.44a.47.47,0,0,0,.4.2.49.49,0,0,0,.51-.33.1.1,0,0,0,.05,0,37.38,37.38,0,0,0,2.79-3.51,28,28,0,0,1,5.21.84c-3.19,3.05-6.34,6.23-9.05,9a51.74,51.74,0,0,1-7.93-5.33A44.62,44.62,0,0,1,39.18,29.41ZM28.44,27A33.27,33.27,0,0,0,38,29.32a45.37,45.37,0,0,0-4.51,4.8l-2.36-1.91-.34-.28c-1.7-1.38-3.11-2.47-4.42-3.41C27,28,27.67,27.49,28.44,27Zm10.41,1.57-.08.08a31.8,31.8,0,0,1-9.53-2.2c2.29-1.55,4.68-3,6.75-4.18.2.43.39.86.59,1.28.73,1.57,1.53,3.16,2.44,4.87Zm-3.49-6.9c-2.19,1.27-4.71,2.76-7.07,4.39a32.14,32.14,0,0,1-5.08-2.8A82.93,82.93,0,0,1,31,18.8,48.55,48.55,0,0,0,35.46,21l.24.57A.54.54,0,0,0,35.36,21.62Zm6.08,19.05-.39.38q-2.28,2.34-4.57,4.65a46,46,0,0,1-6.86-4.15,43.35,43.35,0,0,1,4-6.19A52.94,52.94,0,0,0,41.44,40.67Zm18.73-17.1-.56-.19a21.72,21.72,0,0,0-6.11-.89,21.39,21.39,0,0,0-3.56.3,30.37,30.37,0,0,0,1-3.05c2,.12,4,.17,5.92.22,2.93.07,6,.14,8.88.47A37.66,37.66,0,0,0,60.17,23.57Zm-11.69.21a31.2,31.2,0,0,1-2.57,4.74l-.24.4c-1.64,2.65-2.65,4-3,4s-.75-1.11-.94-1.52a2.55,2.55,0,0,0-.15-.32c-.87-1.6-1.67-3.21-2.33-4.58l-.52-1c-2.34-4.77-4.77-9.7-3.67-15.25.73-3.65,3.06-7.55,7.44-7.55a8.73,8.73,0,0,1,1.33.11A7.57,7.57,0,0,1,49.46,6.7C51.89,11.22,50.66,18.72,48.48,23.78ZM31,17.84l-.05,0-.11-.06c-.72-.41-1.41-.86-2.23-1.4l-1.07-.74a1.74,1.74,0,0,0-.75-.47.33.33,0,0,0,0-.17l0-.08h0c1.56-.8,3.12-1.59,4.65-2.33l.07,0c.45,0,1.58,1.05,2.1,1.53A16.94,16.94,0,0,0,34,16.45C33,16.89,32,17.35,31,17.84Zm-.9.46a85.6,85.6,0,0,0-7.65,4.38,32.08,32.08,0,0,1-4-3.36l.23-.13c.93-.52,1.9-1.07,2.85-1.59,1.22-.66,2.51-1.34,4.19-2.21A11.48,11.48,0,0,0,29,17.68l.57.32.45.26ZM20.37,34.55a31,31,0,0,1,5.27-5.48c1.92,1.38,3.81,2.91,5.64,4.39.55.44,1.09.89,1.64,1.32A46.42,46.42,0,0,0,28.84,41c-1.17-.85-2.36-1.74-3.5-2.61-1.66-1.25-3.37-2.54-5.08-3.72A.38.38,0,0,0,20.37,34.55Zm20.78,7.71,1.14-1.15a20.47,20.47,0,0,0,11.14,2.18L49.8,46.56l-.4.31-.46.36a.36.36,0,0,0-.17.27l-.21.19a.38.38,0,0,0-.12.17A20.52,20.52,0,0,1,37.35,46.1ZM51.28,32.13c.2-.2.4-.4.61-.59l.27-.26A28.6,28.6,0,0,1,61.45,36l-7.07,6.4a.54.54,0,0,0-.18,0,17.14,17.14,0,0,1-2.48.18,20.31,20.31,0,0,1-8.78-2.15C45.44,37.92,48.34,35,51.28,32.13Zm9-7.63.17.06a6.37,6.37,0,0,1,.61.23,22.18,22.18,0,0,1,3.52,1.93A17.83,17.83,0,0,0,69.18,29l-7.07,6.41a29.51,29.51,0,0,0-9.29-4.78A61.94,61.94,0,0,1,60.31,24.5ZM31.89,18.32c.81-.39,1.62-.76,2.26-1,.22.81.51,1.67.86,2.59C33.91,19.37,32.89,18.86,31.89,18.32ZM12.5,30.17a.43.43,0,0,0-.09.1,21,21,0,0,0-7.87-1.59c-.54,0-1.07,0-1.61.07,2.78-1.82,5.67-3.63,8.6-5.39a20.72,20.72,0,0,1,7.35,1.76C16.61,26.75,14.46,28.45,12.5,30.17Zm1.12,1.37A30,30,0,0,0,4,29.47l.7,0A21.08,21.08,0,0,1,13.62,31.54Z"/><path class="cls-1" d="M46.3,8.07a5.77,5.77,0,0,0-3.49-1.31,5.15,5.15,0,0,0-4.72,3.69,5.23,5.23,0,0,0,1.82,6,5.46,5.46,0,0,0,3.29,1.09A4.7,4.7,0,0,0,46.74,16a5.94,5.94,0,0,0,1.45-4.47A4.89,4.89,0,0,0,46.3,8.07ZM40,9.21a3.45,3.45,0,0,1,2.85-1.57,4.53,4.53,0,0,1,3.4,1.76,4.92,4.92,0,0,1-.06,5.84,3.5,3.5,0,0,1-2.95,1.5A4.36,4.36,0,0,1,40,15.2c-1.44-1.72-1-4.13-.15-5.84A.51.51,0,0,0,40,9.21Z"/><path class="cls-1" d="M47.05.65A13.2,13.2,0,0,1,53.84,13a.29.29,0,0,0,.09.25.5.5,0,0,0,.39.15.47.47,0,0,0,.52-.39,14,14,0,0,0-7.13-13A.55.55,0,0,0,47.45,0c-.24,0-.54.13-.59.33A.29.29,0,0,0,47.05.65Z"/><path class="cls-1" d="M56.65,9.63a.36.36,0,0,0,.11.25.56.56,0,0,0,.4.14c.29,0,.5-.17.5-.39A11.27,11.27,0,0,0,53.53.82a.47.47,0,0,0-.31-.11.55.55,0,0,0-.51.29.32.32,0,0,0,.13.38A10.54,10.54,0,0,1,56.65,9.63Z"/><path class="cls-1" d="M41.6,19.2c.3,0,.44-.18.44-.36s-.15-.4-.47-.42a5.91,5.91,0,0,1-3-1,.49.49,0,0,0-.28-.08.59.59,0,0,0-.56.31.3.3,0,0,0,.17.35,7.12,7.12,0,0,0,3.62,1.19Z"/><path class="cls-1" d="M41.79,21.71a.5.5,0,0,0,.4-.17.35.35,0,0,0,.06-.31A.35.35,0,0,0,42,21l-2.73-.84a.59.59,0,0,0-.65.14.35.35,0,0,0-.06.31.43.43,0,0,0,.26.25l2.72.84A1.07,1.07,0,0,0,41.79,21.71Z"/><path class="cls-1" d="M42,23.46a.5.5,0,0,0,.49-.33.36.36,0,0,0-.23-.41,13.92,13.92,0,0,0-2.83-1.08.48.48,0,0,0-.61.34c0,.15.06.34.35.42a12.29,12.29,0,0,1,2.59,1A.64.64,0,0,0,42,23.46Z"/><path class="cls-1" d="M42.1,25.79a.53.53,0,0,0,.52-.35c0-.08,0-.26-.25-.38l-1.69-.74a.56.56,0,0,0-.73.31c0,.07,0,.26.25.38l1.69.74A.46.46,0,0,0,42.1,25.79Z"/><path class="cls-1" d="M42.85,27.41l-1-.57a.54.54,0,0,0-.73.27.36.36,0,0,0,.23.41l1,.57a.48.48,0,0,0,.24.06.51.51,0,0,0,.49-.33A.36.36,0,0,0,42.85,27.41Z"/><path class="cls-1" d="M32,42.33l3,2.11a.48.48,0,0,0,.29.09.59.59,0,0,0,.55-.31c0-.06,0-.21-.16-.35l-3-2.12a.49.49,0,0,0-.3-.09.58.58,0,0,0-.54.31A.32.32,0,0,0,32,42.33Z"/><path class="cls-1" d="M46.16,47.15c0-.14-.09-.3-.37-.33a17.9,17.9,0,0,1-5.91-1.69.55.55,0,0,0-.73.29c0,.08,0,.26.24.4a18.67,18.67,0,0,0,6.17,1.76h.06A.52.52,0,0,0,46.16,47.15Z"/><path class="cls-1" d="M45,5.59a.58.58,0,0,0-.74.32c0,.07,0,.26.26.37a6.21,6.21,0,0,1,3.78,4.51.43.43,0,0,0,.45.3.56.56,0,0,0,.45-.19.37.37,0,0,0,.07-.31A7.06,7.06,0,0,0,45,5.59Z"/></g></g></svg>