<svg xmlns="http://www.w3.org/2000/svg" viewBox="0 0 202.35 213.26"><defs><style>.cls-1{opacity:0.3;}.cls-2{fill:#00a551;}.cls-3{fill:#f6921e;}.cls-4{fill:#fff;}.cls-5{fill:#4c4c4c;}.cls-6{fill:#2f2f2f;}</style></defs><g id="Layer_2" data-name="Layer 2"><g id="Layer_1-2" data-name="Layer 1"><path class="cls-1" d="M193.13,81.87A88.07,88.07,0,0,0,174,56.19l-.62-.48c-4.72-5-11.31-8.93-17.9-9.66a68.18,68.18,0,0,0,7-7.45c5.06-6.25,9.26-17.19,19.06-15.84a.73.73,0,0,0,.56-1.32c-8.2-5.48-16.59-10.62-26.27-13a37.09,37.09,0,0,0-26.68,3.6c-10.4,5.65-18.68,15.77-23.13,27.09-9.36-1.14-19.84,1-28.89,3.15-7.09,1.7-14.79,4-21.49,7.61C28.16,62.19,10,90.66,8.57,121.15a84.54,84.54,0,0,0,16.5,53.29c11.27,15.42,27.22,25.62,45.11,31.77,19.43,6.69,41,9.28,61.15,4.87a92.66,92.66,0,0,0,46.45-26.43C203.86,157.51,209.52,115.39,193.13,81.87Z"/><path class="cls-2" d="M120.78,7.12c16.24-10,34.78-2.89,49.52,6.46-4.58.17-8.56,3.41-11.35,7.1-4.79,6.35-9.07,12.58-15.16,17.8A51.74,51.74,0,0,1,96.51,49.23c1.46-1.29,3-2.55,4.48-3.79a121.13,121.13,0,0,1,16.56-10.87c.35-.2.12-.8-.28-.66a61.84,61.84,0,0,0-12.26,6c.66-1.12,1.29-2.26,2-3.33a99.65,99.65,0,0,1,7-9.84c5.9-7.27,13.47-11.52,22.52-13.64a.11.11,0,0,0,0-.21c-8.54.87-15.82,5.51-21.82,11.41a61,61,0,0,0-7.73,9.66,57.26,57.26,0,0,0-4.83,7.87c-.52.36-1,.72-1.56,1.09A65.94,65.94,0,0,0,95,47.39C98.33,31.24,106.42,16,120.78,7.12Z"/><path class="cls-3" d="M151.39,188.59c-17.1,11.26-37.26,15.69-57.55,14.22-21.46-1.56-43.75-8.26-60.71-21.86a83.5,83.5,0,0,1-29.51-49.5A81.62,81.62,0,0,1,15.45,72.07,80.6,80.6,0,0,1,46.77,44.68l1.06-.49c3.32-1.32,6.61-2.67,10-3.93l3.83-1.36,1.16-.4q2.52-.82,5.12-1.52A114.66,114.66,0,0,1,82.7,34.19c4.74-.59,9.52-.48,14.25-.94a50.28,50.28,0,0,0-3,15.12c-.3.27-.6.54-.89.82a26.54,26.54,0,0,0-3,3.12,15.18,15.18,0,0,0-2.49-2.45,7.33,7.33,0,0,0-7.19-2.49c-4.84.76-6,7.15-5.9,11.07A14,14,0,0,0,79.67,68.9c-1.19.13-2.38.24-3.57.32-8.4.52-16.46-.09-24.39,3.26-6.7,2.84-11.31,7.9-14.9,14.06-.11.17.15.32.27.16,4.11-6,10.75-10.5,17.54-12.87,8.1-2.81,16.9-1.47,25.28-2.27a61.41,61.41,0,0,0,20.57-5.93c7.38-3.52,14.4-11.29,23.13-10.73a.18.18,0,0,0,.05-.35c-8.29-2.67-14.57,3-21.33,7a54.61,54.61,0,0,1-8.11,3.84c.68-2.74-.52-6-1.52-8.49a18.3,18.3,0,0,0-1.41-2.75c.91-.74,1.7-1.66,2.56-2.48.31-.3.64-.59,1-.88l.07,0c14.07,5.43,30.36,2.3,43-5.29a56,56,0,0,0,8.4-6.23c3.68,2,7.5,3.67,11.06,5.93,1.27.79,2.47,1.64,3.65,2.53a94.21,94.21,0,0,1,25.15,36.78c6.94,18.59,6.81,39.12.77,57.92A87.74,87.74,0,0,1,151.39,188.59Z"/><path class="cls-4" d="M82.5,63.33a7.91,7.91,0,0,0,6.81-8.1l.08,0A21.81,21.81,0,0,1,91,58.44c1,2.4.83,5.11,1.68,7.49a60.81,60.81,0,0,1-11,2.69c-3.14-4.21-5.59-8.38-4.56-14,.88-4.82,6.39-7,9.42-2.46,2.83,4.22-1.16,8.3-4.37,10.44A.39.39,0,0,0,82.5,63.33Z"/><path class="cls-5" d="M96.86,52.23a29.76,29.76,0,0,0-4,5c.07.16.13.32.19.48a30.31,30.31,0,0,0,4.14-5.27A.19.19,0,0,0,96.86,52.23Z"/><path class="cls-5" d="M83.21,58.07c1.24-1.54,2.72-3.13,3.92-4.82a5.91,5.91,0,0,0-.45-.86C85.23,54,84,56,82.71,57.68c-1.44,1.91-2.85,3.84-4.27,5.77l.15.31C80.13,61.87,81.69,60,83.21,58.07Z"/><path class="cls-5" d="M91.76,47.12a5.43,5.43,0,0,0-3.5,3.37l.3.27a16.81,16.81,0,0,1,1.3-1.65,14.46,14.46,0,0,1,2.06-1.61A.21.21,0,0,0,91.76,47.12Z"/><path class="cls-5" d="M78.72,54.32c1-1.59,2.27-3,3.38-4.58a4.8,4.8,0,0,0-1.11.2c-.9,1.15-1.69,2.41-2.45,3.58-.57.89-1.1,1.82-1.59,2.77a8.92,8.92,0,0,0,0,1C77.49,56.31,78.09,55.3,78.72,54.32Z"/><path class="cls-5" d="M62.1,72.25H62A.09.09,0,0,0,62.1,72.25Z"/><path class="cls-5" d="M84.92,50.52a4.46,4.46,0,0,0-.59-.34,32.44,32.44,0,0,0-7.17,9.51c0,.23.09.46.14.69A57.26,57.26,0,0,1,80.89,55C82.14,53.44,83.56,52,84.92,50.52Z"/><path class="cls-5" d="M81.7,68.6l.36-.28,0,0,.51-.4.71-.59c.51.24,1,.49,1.54.7.56-.11,1.12-.24,1.67-.36a18.26,18.26,0,0,0-2.48-1l.37-.33.49-.48,1,.44c.52.24,1.08.52,1.66.8a.14.14,0,0,0,.2.09l.23.11q.88-.22,1.77-.48l-1-.35A19.76,19.76,0,0,0,90.29,65c.67.36,1.34.76,2,1.09l.38-.12a8.7,8.7,0,0,1-.26-.87,14.68,14.68,0,0,0-1.52-.8l.07-.09c.34-.39.7-.79,1-1.21-.07-.41-.13-.81-.19-1.22l-.1.12a4.88,4.88,0,0,0-2.08-1.38c.42-.57.83-1.15,1.21-1.74a.46.46,0,0,0,.21-.13l0-.17c-.13-.31-.28-.61-.42-.91-.31-.17-.62-.34-.94-.5-.16-.08-.32-.17-.49-.24-.06.32-.13.64-.22,1l.21.14c.3.2.61.39.92.57-.41.59-.82,1.19-1.24,1.77a6.05,6.05,0,0,0-1-.15c-.11.15-.21.3-.33.44l.9.3c-.46.62-.92,1.23-1.41,1.83a8.22,8.22,0,0,0-1.61-.33c-.12.07-.24.14-.37.2a10.57,10.57,0,0,0,1.46.75q-.77.88-1.56,1.71c-.78-.38-1.57-.76-2.36-1.12l.55-.66-.61.13a.42.42,0,0,1-.16,0l-.25.33A18.48,18.48,0,0,0,80.25,63a.11.11,0,0,0-.11.18,11.12,11.12,0,0,0,1.51,1.08l-1,1.24L79.26,65c.14.25.3.51.46.76l.59.27-.23.3.21.3.37-.45,1.12.49c.33.14.68.31,1,.47L81.55,68.4Zm7.46-7.47.26.13a17.91,17.91,0,0,1,1.78,1.33c-.25.35-.5.7-.76,1l-.26.3-1-.43c-.47-.2-1-.41-1.46-.59C88.21,62.33,88.69,61.73,89.16,61.13Zm-2,2.43c.72.3,1.46.57,2.16.89l.29.15c-.5.57-1,1.13-1.52,1.71-.44-.16-.89-.31-1.3-.49s-.82-.35-1.23-.55C86.09,64.72,86.62,64.14,87.14,63.56Zm-6,2.07,1-1.15c.72.42,1.48.79,2.24,1.15l-.86.88-.19-.07Z"/><path class="cls-5" d="M89.39,55.2l-.08,0c0,.16,0,.31,0,.47l.22-.29Z"/><path class="cls-5" d="M100.15,53.39a.2.2,0,0,0-.31-.23A24,24,0,0,0,97,56.89c-1,1.43-2,2.86-2.9,4.35l.09.41c.91-1.09,1.75-2.23,2.59-3.37A31.13,31.13,0,0,0,100.15,53.39Z"/><path class="cls-5" d="M84.55,60.4c-.27.35-.53.71-.79,1.06a10.74,10.74,0,0,0,3.54-4.77C86.36,57.93,85.47,59.22,84.55,60.4Z"/><path class="cls-5" d="M19.8,99.19c-.61-.45-1.21-.93-1.82-1.39-.14-.11-.32.13-.19.24l1.59,1.33c.29.24.57.5.86.75s.32.38.66.43c.12,0,.27-.08.22-.22C20.93,99.8,20.24,99.52,19.8,99.19Z"/><path class="cls-5" d="M119,20.44c.47-.37.94-.73,1.42-1.08a10.33,10.33,0,0,0,.53-2.56c0-.16-.21-.19-.29-.07A14.12,14.12,0,0,0,119,20.44Z"/><path class="cls-5" d="M114.64,24.28l.16-.15a18.57,18.57,0,0,0,.46-4.75.29.29,0,0,0-.56-.08,51.78,51.78,0,0,0-1.4,6.36C113.74,25.19,114.18,24.73,114.64,24.28Z"/><path class="cls-5" d="M166.34,54.71c.48,0,.94-.12,1.41-.15-.17-.19-.34-.39-.52-.58a2.51,2.51,0,0,0-.95.58C166.23,54.61,166.27,54.72,166.34,54.71Z"/><path class="cls-5" d="M121.73,132a.24.24,0,0,0,.29-.37,21.25,21.25,0,0,0-3.67-2.69c-1.59-1.08-3.16-2.18-4.74-3.26-.11-.07-.2.1-.1.18,1.5,1.16,3,2.31,4.53,3.48A21.18,21.18,0,0,0,121.73,132Z"/><path class="cls-5" d="M24,91.54c-.22-.16-.5.21-.29.38l.44.36a22.86,22.86,0,0,0-2.59,2.9c0,.06,0,.15.11.11a22.93,22.93,0,0,0,3-2.61l.11.09a5.51,5.51,0,0,0,1.14.86c.19.08.5-.11.33-.33a4.56,4.56,0,0,0-1-.84l-.2-.15c.42-.42.83-.84,1.25-1.25a68.17,68.17,0,0,0,5.29-5.46.12.12,0,0,0-.17-.17,62.66,62.66,0,0,0-5.05,4.73c-.59.59-1.21,1.17-1.83,1.77Z"/><path class="cls-5" d="M28.38,91.57a.18.18,0,0,0,0,.36,2.19,2.19,0,0,0,.51,0,.14.14,0,0,0,0-.27A2.21,2.21,0,0,0,28.38,91.57Z"/><path class="cls-5" d="M112.05,149.07c.25.16.51-.2.31-.41a73.23,73.23,0,0,0-6.46-5.58l-6.58-5.46c-4.4-3.64-8.83-7.23-13.26-10.83-.13-.11-.33.08-.19.2,4.31,3.72,8.61,7.44,12.95,11.12l6.53,5.52A75.78,75.78,0,0,0,112.05,149.07Z"/><path class="cls-5" d="M116.19,138.94c-4.74-3.89-9.77-7.47-14.64-11.19-.17-.13-.39.16-.23.29,4.81,3.81,9.52,7.8,14.45,11.44C116.09,139.72,116.5,139.19,116.19,138.94Z"/><path class="cls-5" d="M92,155.73c-9.58-9.18-19.88-17.68-29.92-26.37-.08-.07-.21,0-.12.13,9.84,8.9,19.53,18.08,29.82,26.47C91.88,156.08,92.1,155.88,92,155.73Z"/><path class="cls-5" d="M76,154.06c.15.15.43-.05.3-.23a67.85,67.85,0,0,0-10.23-10.52,73.59,73.59,0,0,0-11.71-8.87c-.12-.07-.27.11-.15.2,3.79,3.06,7.75,5.88,11.4,9.13S72.45,150.7,76,154.06Z"/><path class="cls-5" d="M51.81,142.1a69.67,69.67,0,0,0,6.56,5.57c.23.16.46-.18.29-.37a67.34,67.34,0,0,0-6.31-5.74,55.72,55.72,0,0,0-6.62-5.47c-.11-.07-.21.09-.13.18A57.11,57.11,0,0,0,51.81,142.1Z"/><path class="cls-5" d="M104.64,155.29c.21.16.44-.18.27-.36-2.23-2.42-4.84-4.51-7.29-6.7l-7.43-6.57c-5.12-4.54-10.28-9-15.41-13.58-.15-.13-.37.08-.22.22,5.08,4.58,10.13,9.2,15.2,13.8q3.66,3.32,7.35,6.64C99.57,151,102,153.32,104.64,155.29Z"/><path class="cls-5" d="M138.13,16.19a6.53,6.53,0,0,0,1.33-.88,5.56,5.56,0,0,0,1.17-1.1c.25-.35-.22-.74-.55-.55a5.79,5.79,0,0,0-1.21,1.06,5.46,5.46,0,0,0-1,1.21A.19.19,0,0,0,138.13,16.19Z"/><path class="cls-5" d="M95.67,64.79l.82-.34c3.13-3.77,6.38-7.39,9.59-11.08l-1-.1A63.55,63.55,0,0,0,95.67,64.79Z"/><path class="cls-5" d="M168.92,55.94a3.88,3.88,0,0,0-.09,1.44.14.14,0,0,0,.28,0,7,7,0,0,1,.34-.94l-.51-.6A.14.14,0,0,0,168.92,55.94Z"/><path class="cls-5" d="M82.32,46.33c.08-.65,2.1-2,2.59-2.46.86-.81,1.7-1.63,2.55-2.45a37.2,37.2,0,0,0,4.4-4.65c.14-.18-.13-.44-.31-.31a37.26,37.26,0,0,0-4.74,4.32c-1.66,1.65-3.41,3.27-4.9,5.08a.26.26,0,0,0,0,.31l.17.24A.15.15,0,0,0,82.32,46.33Z"/><path class="cls-5" d="M125.26,122.6c-.24-.16-.45.22-.23.39l2.35,1.73a17.09,17.09,0,0,0,2.37,1.7c.27.13.57-.21.34-.44a13.57,13.57,0,0,0-2.14-1.52C127.05,123.85,126.16,123.22,125.26,122.6Z"/><path class="cls-5" d="M109.86,37.13l.67-.34c.14-.27.28-.54.4-.82.26.09.53.16.79.24.39-.19.79-.38,1.2-.56-.53-.19-1.07-.37-1.61-.53.44-1,.83-2.08,1.2-3.14l2.21.88c-.25.77-.48,1.54-.71,2.31l.71-.29c.24-.58.47-1.17.7-1.76a24.59,24.59,0,0,0,3.1,1c.33.07.58-.43.24-.58a24.94,24.94,0,0,0-3-1.29c.41-1.09.81-2.19,1.2-3.28a20.38,20.38,0,0,0,2.39.6c-.26.89-.51,1.77-.76,2.66-.06.2.23.27.3.09l1-2.67.2,0a.28.28,0,0,0,.26-.34l0-.11a.2.2,0,0,0-.2-.15h0c.5-1.35,1-2.69,1.47-4,.26.06.51.13.77.18a.27.27,0,0,0,.14-.53l-.71-.23c.17-.45.33-.91.49-1.37.56-1.66,1.22-3.36,1.78-5.07-.5.29-1,.59-1.46.91-.34,1.09-.66,2.19-1,3.25-.22.67-.42,1.34-.63,2-.69-.2-1.38-.38-2.07-.55l.51-1.41c.16-.45.33-.9.5-1.35-.51.4-1,.81-1.49,1.24-.14.43-.3.85-.44,1.28l-.73-.19-.41.4,1,.3-.92,2.67c-.17.47-.33.94-.49,1.41l-1.52-.4-.88-.22.27-.94c-.09.12-.19.22-.28.33-.41.51-.81,1-1.21,1.54-.05.21-.09.41-.14.61-.19.69-.39,1.37-.6,2.05l-.57-.19-.43-.15-.46.62,0,0c.39.14.78.3,1.18.46-.36,1.09-.74,2.17-1.13,3.25l-2.22-.63c-.15.22-.3.45-.44.68l2.35.8Zm7.65-9.69c.4-1.1.79-2.19,1.18-3.29.69.22,1.38.43,2.07.62-.41,1.35-.81,2.69-1.2,4h0c-.44-.13-.88-.26-1.33-.37l-1-.25Zm-4.26,2.29.56-1.83.87.27,1.45.48c-.37,1.09-.75,2.18-1.11,3.28l-2.24-.75C112.94,30.7,113.1,30.21,113.25,29.73Z"/><path class="cls-5" d="M88.43,46.46c1.23-1.13,2.6-2.11,3.75-3.31.1-.11,0-.33-.15-.27a12.7,12.7,0,0,0-3.49,2.4,15.87,15.87,0,0,0-2.8,3c.17.1.34.21.49.32C87,47.94,87.68,47.15,88.43,46.46Z"/><path class="cls-5" d="M97.56,38.58c0-.34.1-.68.14-1-.52,1.51-1,3-1.42,4.57-.22,1.56-.45,3.12-.62,4.69l.5-.44c.27-1.4.5-2.8.74-4.2.16-1,.37-1.94.55-2.94.54.17,1.09.32,1.63.48-.17,1.53-.32,3.07-.45,4.61l.54-.43q.35-2,.63-4l.62.17c.35.1.72.22,1.1.35,0,.61-.08,1.23-.09,1.84l.54-.38c.09-.41.17-.82.24-1.24l.38.11c.13-.26.28-.53.43-.79l-.66-.16c.14-.78.26-1.56.38-2.34h.1c.5.09,1,.19,1.49.31l.46-.71L103,36.77l-.17,0c.16-1.09.34-2.18.53-3.26,1,.35,2.09.68,3.14,1l.38-.56c.34-.51.69-1,1-1.52.17-.67.35-1.35.52-2l.73.28.42-.57-1-.35c.28-1,.59-2.1.9-3.17l2.32.72.34-.41-2.57-.64a25.9,25.9,0,0,0,1.14-6.39c0-.14-.21-.21-.27-.08-1.47,2.9-2,6.49-2.72,9.68-1.12-.39-2.24-.76-3.37-1.13.49-2.31,1-4.62,1.42-6.94-.22.32-.45.63-.67,1-.61,1.88-1.12,3.78-1.55,5.71l-.78-.26c-.2-.06-.26.23-.08.3l.78.32c-.3,1.33-.56,2.67-.81,4l0,.19c-.61-.17-1.22-.32-1.83-.47.13-1,.25-2,.35-3-.39.78-.76,1.58-1.13,2.38,0,.13,0,.27,0,.4l-.12,0-.12.27,0,0,.18.06L99.66,35c0,.45-.11.89-.16,1.33-.45,0-.9,0-1.35,0l-.17.48c.47.09,1,.18,1.43.24l-.24,2Zm6-5.93c.25-1.31.52-2.61.79-3.91,1.11.44,2.21.89,3.32,1.32-.3,1.24-.61,2.49-.9,3.74l-3.24-.95Zm-3.25,3.7c.17-1.26.35-2.52.52-3.78.59.22,1.18.43,1.78.63-.2,1.12-.4,2.25-.59,3.4-.56-.09-1.13-.17-1.71-.23Zm-.1.76,1.7.23c-.11.76-.21,1.53-.29,2.3l-.34-.09c-.45-.11-.9-.24-1.35-.36C100,38.49,100.09,37.8,100.18,37.11Z"/><path class="cls-5" d="M46.4,59.24c-.07.06,0,.16.11.1A74.55,74.55,0,0,0,60.16,45.16c.09-.13-.13-.3-.24-.18A146.89,146.89,0,0,1,46.4,59.24Z"/><path class="cls-5" d="M173,60.85c-.07.17-.14.34-.22.51a26.32,26.32,0,0,0-3.69-1.66c-.17-.06-.26.18-.12.27,1.17.72,2.35,1.4,3.51,2.11-.32.77-.63,1.54-.92,2.32a.11.11,0,0,0,.2.08c.39-.71.75-1.43,1.1-2.16.8.5,1.59,1,2.36,1.56h0q-.67-1-1.38-1.92c-.21-.12-.42-.26-.63-.37l.14-.28Z"/><path class="cls-5" d="M173.2,164l3.05-4.93,2.3,1.55c.16-.26.33-.52.49-.79l-2.33-1.52c.66-1.07,1.32-2.14,2-3.21.2-.31.39-.62.58-.93l2.09,1.52.35-.69c-.68-.49-1.36-1-2-1.46q1.26-2,2.5-4.05l1.66,1.08c.13-.31.28-.62.42-.93l-1.57-1,2.1-3.4.94.67c.11-.28.2-.57.3-.85l-.81-.52c.55-.88,1.09-1.76,1.63-2.65l.21.15c.08-.28.17-.56.26-.84l0,0,.07-.11c.28-.92.54-1.84.79-2.77-.51.82-1,1.64-1.52,2.45-1.72-1.12-3.43-2.23-5.12-3.36l-.73-.5,2.5-3.84,5.31,3.57c.07-.25.13-.5.19-.76l-4.6-3-.54-.35,3-4.63c1.14.7,2.27,1.39,3.41,2.07.06-.32.11-.64.16-.95-1-.61-2.09-1.2-3.13-1.79.7-1.09,1.41-2.18,2.1-3.27.54.35,1.07.72,1.6,1.08,0-.29.07-.58.1-.86l-1.31-.82,1.62-2.55q.08-1,.12-2l-.06.1-3-1.91-.77-.47c.69-1.17,1.39-2.33,2.07-3.5l.75.46,1.14.69c0-.38,0-.77,0-1.15l0,0L190,112.2c.44-.77.88-1.54,1.31-2.31,0-.67-.07-1.35-.12-2-.75,1.24-1.49,2.48-2.23,3.72l-3.53-2.09c.75-1.21,1.5-2.43,2.24-3.65l3.5,1.76-.09-1.07c-1-.49-1.95-1-2.94-1.46.05-.07.09-.15.14-.23s-.16-.33-.28-.16-.11.16-.16.25l-1.49-.72-2.24-1,2.65-4.35c.94.52,1.87,1,2.79,1.6l.86.53c-.06-.41-.13-.82-.2-1.23l-.19-.12c-.92-.53-1.85-1-2.79-1.54.67-1.11,1.33-2.22,2-3.33-.12-.52-.25-1-.38-1.55-.72-.42-1.45-.84-2.19-1.25l-1.91-1.07c.77-1.25,1.54-2.5,2.33-3.73-.15-.45-.3-.89-.46-1.33l-3.84-1.89c.64-1,1.3-2,2-2.92-.2-.46-.39-.92-.59-1.37h0l-3.41-1.7c.46-.84.94-1.68,1.42-2.52-.2-.4-.39-.79-.6-1.18-.58,1.1-1.14,2.21-1.69,3.27-1.67-.83-3.36-1.65-5.05-2.45.85-1.37,1.64-2.79,2.39-4.23,1.16.57,2.31,1.15,3.45,1.75-.22-.41-.45-.82-.68-1.23-.81-.38-1.63-.76-2.46-1.12.29-.54.56-1.08.84-1.62l-.65-1-.06.12c-.36.71-.74,1.41-1.12,2.11-1.24-.53-2.48-1.05-3.74-1.54-.26-.1-.45.34-.19.45q1.83.8,3.63,1.65c-.77,1.42-1.54,2.85-2.24,4.31-.76-.35-1.52-.71-2.29-1a.17.17,0,0,0-.23.23,11.17,11.17,0,0,1,.65,1.35c0,.06.13,0,.11,0-.12-.32-.23-.63-.34-1,0,0,1.36.63,1.48.69l.41.22c-.37.82-.73,1.65-1,2.5-.06.17.17.23.26.11.54-.71,1-1.46,1.52-2.22l1.93,1c1,.54,2.06,1.07,3.1,1.59l-.18.34c-.53,1-1.05,2-1.57,3l-3.32-1.63c-.4-.2-.75.39-.35.6l3.32,1.71c-.64,1.27-1.26,2.56-1.84,3.86-1-.45-1.92-.89-2.89-1.3-.12,0-.18.13-.08.19.9.57,1.82,1.11,2.74,1.64-.53,1.2-1,2.41-1.45,3.63a.15.15,0,0,0,.27.12c.63-1.11,1.23-2.23,1.83-3.36,1,.57,2,1.12,2.95,1.67-.79,1.53-1.54,3.07-2.24,4.64-1.73-.67-3.47-1.31-5.22-1.9-.3-.1-.42.36-.13.47,1.72.61,3.42,1.28,5.1,2-.78,1.74-1.5,3.51-2.2,5.3-1-.32-1.93-.61-2.9-.85-.06,0-.09.07,0,.09.89.48,1.79.92,2.7,1.36l-.09.22c0,.1.13.16.17.07a2,2,0,0,1,.1-.21c1.21.57,2.44,1.13,3.68,1.66-1.16,2.32-2.26,4.66-3.27,7-.07.17.16.32.25.15.6-1.14,1.2-2.26,1.8-3.39a.51.51,0,0,0,.13.12l3.73,2.26c-.72,1.2-1.41,2.41-2.12,3.61a23.35,23.35,0,0,0-2.83-1.31c-.11,0-.18.14-.08.2a3.54,3.54,0,0,1,.51.35l0,0c.52.37,1.15.66,1.71,1l.39.23c-.83,1.41-1.67,2.82-2.49,4.24-1.64-.73-3.3-1.44-5-2.11-.11,0-.19.15-.08.19q2.48,1.07,4.89,2.22l-1.81,3.17c-1.07-.59-2.15-1.17-3.24-1.71a.11.11,0,0,0-.11.19c1,.69,2,1.36,3.07,2-.27.46-.54.92-.8,1.38a.09.09,0,0,0,.16.09c.29-.44.56-.89.85-1.34,1,.63,2,1.24,3,1.84l-2.78,4.26-7.56-4.9c-.12-.08-.23.11-.11.18l7.45,5.06c-.85,1.31-1.69,2.63-2.53,3.94l-3.17-2.12.43-.64c.12-.18-.17-.34-.29-.17l-.44.61-3.33-2.22c-.09-.06-.18.09-.09.16l3.27,2.28-2.15,3c-.79-.52-1.57-1-2.37-1.55-.1-.07-.19.09-.09.16l2.3,1.62c-1,1.35-1.92,2.7-2.88,4.06a29.52,29.52,0,0,0-3.32-1.77c-.08,0-.16.06-.09.12a30.52,30.52,0,0,0,3,2.26L159,140.15c-2.76-1.62-5.54-3.22-8.34-4.77a.11.11,0,0,0-.11.18q4.16,2.4,8.21,4.93l-2.93,4.17L148.6,140l.39-.71a.27.27,0,0,0-.46-.27c-1.21,1.72-2.37,3.47-3.51,5.25l-.15-.11c-.15-.11-.3.15-.15.26l.14.1c-1.07,1.65-2.11,3.33-3.14,5-1.78-1.06-3.56-2.09-5.37-3.08a.08.08,0,0,0-.08.14l5.16,3.39-3.42,5.6-8-5.66c-.12-.09-.24.12-.12.21l3.66,2.66-.05,0c-.81,1.22-1.61,2.45-2.4,3.67-2.24-1.69-4.49-3.38-6.74-5.05-.11-.08-.25.1-.15.18q3.25,2.72,6.54,5.4-1.74,2.69-3.43,5.38c-3.54-2.24-7.08-4.46-10.65-6.63a.07.07,0,1,0-.07.11c3.48,2.33,7,4.62,10.46,6.93-1.18,1.88-2.34,3.76-3.5,5.65-1.07-.75-2.14-1.51-3.22-2.25l.69-1.11c.19-.31-.29-.58-.49-.28l-.71,1c-2.59-1.8-5.21-3.56-7.87-5.24-.11-.08-.25.1-.14.19,2.45,2,5,3.91,7.5,5.81-1.33,1.95-2.65,3.9-4,5.87l-3.82-2.94,1.52-2.25c.06-.1-.09-.22-.17-.13-.58.69-1.15,1.39-1.72,2.09L107,166l.34-.6c.1-.19-.16-.41-.31-.24l-.41.55-3.23-2.49c-.09-.07-.2.08-.12.14l3.2,2.55c-1,1.37-2,2.79-3,4.23q-2.85-2.18-5.76-4.28c-.12-.09-.26.11-.15.2q2.73,2.35,5.52,4.64c-1.27,1.89-2.5,3.81-3.76,5.68l-.27.41-5.68-4.76c.48-.87,1-1.74,1.42-2.62a.19.19,0,0,0-.32-.19c-.54.79-1.07,1.59-1.6,2.39l-1.28-1.06c-.09-.08-.23,0-.14.14l1.3,1.11q-1.32,2-2.59,4c-1.1-1.11-2.19-2.24-3.28-3.37q1.08-1.58,2.1-3.18c.14-.2-.18-.45-.34-.26-.8.93-1.57,1.88-2.34,2.84-1-1-1.94-2-2.9-3.07-.09-.09-.22,0-.14.14q1.38,1.62,2.81,3.21-1.74,2.15-3.4,4.35l-3.14-2.84,1.53-2c.14-.19-.16-.4-.31-.24-.59.57-1.17,1.16-1.74,1.76l-5.9-5.33c-.13-.12-.32.07-.19.19l5.87,5.37q-1.65,1.74-3.19,3.57c-1-.79-2.06-1.58-3.1-2.35.68-1,1.34-2,1.93-3.09.15-.26-.2-.55-.41-.32-.81.9-1.6,1.83-2.36,2.79-1.07-.79-2.15-1.57-3.23-2.34l.07-.11c.13-.18-.16-.41-.31-.24l-.09.11-1.31-.93s0,0,0,0l1.28,1c-.74.88-1.46,1.77-2.18,2.67l-3.11-2.95a20.75,20.75,0,0,0,1.52-2.22.21.21,0,0,0-.33-.26,21.56,21.56,0,0,0-1.74,2l-9.1-8.61c-.12-.11-.3.07-.18.18l9,8.72c-.57.73-1.12,1.48-1.68,2.22L58.91,175c-3.8-3.46-7.62-6.91-11.49-10.28-.08-.07-.2,0-.12.12q5.54,5.4,11.22,10.68c-.7.93-1.38,1.89-2,2.88a.11.11,0,0,0,.17.14A32.71,32.71,0,0,0,59,176l3.2,3-2.86,3.81C51,175.05,42.78,167.12,34.87,159a.15.15,0,0,0-.22.21q11.81,12.42,24.29,24.13c-.15.21-.31.41-.46.61-.51.69-1,1.37-1.55,2l-3.13-2.78.3-.37a.39.39,0,0,0-.56-.55c-.13.11-.25.24-.38.36-3-2.69-6.11-5.35-9.26-7.87.13-.24.28-.47.4-.7s-.24-.65-.48-.38-.34.41-.51.61l-1.29-1c-.06-.05-.14.06-.09.11.39.39.8.76,1.19,1.14-.55.67-1.08,1.37-1.59,2.09l-6.31-5.89a64.92,64.92,0,0,0,3.28-5.63.29.29,0,0,0-.5-.3c-1.27,1.67-2.41,3.45-3.52,5.24l-1.75-1.63c.58-.81,1.16-1.62,1.71-2.45.18-.27-.22-.56-.44-.34-.68.68-1.33,1.41-2,2.16l-2.2-2.06c1.8-2.83,3.59-5.68,5.19-8.63.17-.3-.26-.54-.46-.27-1.92,2.68-3.66,5.48-5.39,8.28L25,161.17c1.09-1.45,2.17-2.91,3.13-4.44.15-.24-.18-.48-.38-.3a33.89,33.89,0,0,0-3.51,4l-2.59-2.41c2.87-4.15,6.32-7.85,9.22-12,.2-.28-.21-.54-.44-.35-3.64,3.17-6.57,7.39-9.31,11.33l-.2.31L19,155.6c1.21-1.67,2.39-3.34,3.54-5l.35.34a.25.25,0,0,0,.4-.3c-.11-.21-.25-.41-.37-.61.78-1.15,1.55-2.32,2.29-3.5.13-.2-.18-.44-.33-.25-.82,1-1.62,2-2.41,3.06a27.83,27.83,0,0,0-2.51-3.07L22,143.6c3.12-3.92,6.33-7.82,9.17-12,.15-.22-.19-.48-.37-.28C27.46,135,24.4,139,21.3,142.86c-.7.87-1.39,1.75-2.08,2.62-.88-.91-1.77-1.78-2.6-2.64L15.8,142l1-1.32c3-3.88,6.61-7.16,9.89-10.79.2-.21-.06-.59-.32-.41-4,2.76-7.31,6.69-10.29,10.48l-1,1.32c-.95-1-1.93-1.93-3-2.83.47-.75,1-1.49,1.48-2.21s1-1.35,1.58-2a20.94,20.94,0,0,0,3.07,2.53c.28.18.53-.2.34-.43a20.8,20.8,0,0,0-2.88-2.74c1.25-1.5,2.56-2.95,3.87-4.39,4.09-4.47,8.57-8.68,12.31-13.46a.25.25,0,0,0-.35-.35,174.61,174.61,0,0,0-13,13.6c-1.2,1.31-2.34,2.66-3.45,4.05l-1.21-1-1.1-1c1.13-1.42,2.21-2.89,3.3-4.3a8.47,8.47,0,0,0,1.55,1.14c.26.14.63-.16.44-.44A8.11,8.11,0,0,0,16.65,126c2.29-2.9,4.6-5.79,6.64-8.88.15-.22-.19-.48-.37-.28-.6.65-1.19,1.32-1.77,2a.3.3,0,0,0-.08-.22c-.48-.56-1-1.1-1.51-1.63l3.6-3.85c4-4.28,8.4-8.43,11.89-13.13.17-.24-.19-.47-.39-.3-4.41,3.8-8.2,8.51-12.16,12.78q-1.79,1.92-3.56,3.86c-.87-.85-1.78-1.67-2.71-2.49,1.73-1.91,3.47-3.83,5.16-5.79a.37.37,0,0,0,.16-.17c1.06-1.23,2.1-2.48,3.08-3.76.14-.18-.15-.39-.31-.24-1.08,1-2.11,2.15-3.14,3.26a20.7,20.7,0,0,0-1.86-1.65l-.86-.77c2.58-2.55,5.12-5.15,7.67-7.72,3.76-3.79,7.83-7.49,11.33-11.56.33-.53.66-1,1-1.56a.23.23,0,0,0-.29,0c-4.49,3.79-8.47,8.38-12.57,12.59-2.53,2.61-5.09,5.19-7.6,7.82l-1.4-1.26c-.29-.27-.72.16-.44.43l1.37,1.32c-1.43,1.51-2.84,3-4.21,4.57-.07.09.05.22.13.14,1.54-1.4,3-2.84,4.51-4.3l.57.55a21.92,21.92,0,0,0,2,2c-1.66,1.83-3.28,3.7-4.9,5.56-1.06-.92-2.12-1.81-3.14-2.7a.28.28,0,0,0-.39.4l2.9,3-.24.28c-1.56,1.77-3.12,3.54-4.66,5.32-1.21,1.4-3,2.85-3.32,4.71,0,.12.15.17.18,0a5.51,5.51,0,0,1,1.66-2.24c.82-.85,1.61-1.72,2.4-2.59,1.51-1.66,3-3.34,4.49-5,.86.88,1.73,1.73,2.63,2.55l-1.91,2.07c-1.07,1.17-2.26,2.33-3.35,3.55a10.59,10.59,0,0,0-1.49-1c-.15-.08-.36.09-.25.25a9.42,9.42,0,0,0,1.23,1.38,21,21,0,0,0-1.73,2.3c-.09.13.09.32.22.22A20.46,20.46,0,0,0,13.08,124c.34.3.68.6,1,.91s.83.82,1.25,1.24c-1.11,1.41-2.28,2.81-3.4,4.26L9,127.82c-.28-.24-.68.15-.4.39l2.94,2.66a32.65,32.65,0,0,0-2.46,3.71.18.18,0,0,0,.28.22,31.47,31.47,0,0,0,3-3.22l1,.93q.6.56,1.2,1.14c-.43.56-.86,1.12-1.28,1.7-.61.81-1.23,1.68-1.81,2.57A19.4,19.4,0,0,0,9,136.13c-.11-.07-.21.08-.13.17.69.8,1.43,1.55,2.2,2.3a17.1,17.1,0,0,0-2,4.32.09.09,0,0,0,.17.07c.88-1.23,1.66-2.52,2.46-3.81,1,.92,2,1.82,2.95,2.75-1,1.35-1.91,2.73-2.81,4.14-.73,1.17-1.69,2.51-2.4,3.89.17.39.35.77.52,1.15.87-1.3,1.57-2.82,2.36-4.06,1-1.51,2-3,3.06-4.43l.74.75c.87.91,1.7,1.89,2.52,2.87L16.42,149c-.61.78-1.33,1.56-2,2.39L12,149.14c-.05,0-.13,0-.08.08l2.4,2.3a10.43,10.43,0,0,0-1.72,2.8h0c0,.15.14.34.3.23a10.31,10.31,0,0,0,2.27-2.21l2.94,2.82c-1.14,1.53-2.37,3.09-3.47,4.71.35.57.7,1.15,1.07,1.72l1.57,1.51-.24.39,0,0,.54.8.37-.59,2.43,2.32-.71,1.09.56.75c.26-.41.53-.82.8-1.22L25.5,171c-.37.59-.74,1.18-1.12,1.77.21.22.4.45.6.67l1.15-1.85,1.89,1.8h0c-.4.62-.81,1.24-1.21,1.87.22.22.43.45.65.66.32-.52.63-1,1-1.54.08-.13.17-.25.25-.37l2.11,2-1.22,1.87.71.65c.38-.64.77-1.27,1.15-1.9l2.65,2.52c-.39.53-.76,1.08-1.12,1.64l.18.15.61.47,1.1-1.53,2.75,2.61-.82,1.2c.2.14.41.27.61.42l.77-1.09,3,2.87-.3.42-.06.09.84.52.24-.35L43.39,188c.85.5,1.72,1,2.58,1.45L42.31,186c1-1.4,2.06-2.75,3-4.17.19-.27-.22-.53-.44-.33a21.58,21.58,0,0,0-3.32,3.82l-3-2.86.18-.25c1-1.43,2.12-2.86,3.16-4.32l8.44,8a32.88,32.88,0,0,0-2.7,4.48l.53.26c.53-.84,1.07-1.68,1.64-2.5.39-.55.8-1.07,1.22-1.59l3.19,3Q53.11,191,52,192.47l.89.41c.68-.89,1.36-1.77,2-2.67l1.28,1.21,1.79,1.7-1,1.47.8.33.87-1.19,2.58,2.46,1.92.64-.66-.62c.62-.91,1.27-1.81,1.9-2.71l3.54,3.19-1,1.33.78.22.77-1,2,1.79,2.06.52c-1.16-1-2.34-2.05-3.51-3.06l1.74-2.32c1.8,1.59,3.62,3.16,5.44,4.74l-.77,1.29,1.07.23c.17-.27.34-.55.5-.83l1.29,1.13.1.08c.49.1,1,.18,1.48.27l-1.06-.88-1.42-1.23,2.24-3.79,4.39,4.06-1.54,2.29,1.09.16,1.17-1.78,2,1.87.44.4c.82.1,1.64.21,2.47.29l1.75-2.9,3.43,3.33,1.59.08,2.17-3.35,3.23,3.47c.65,0,1.29,0,1.93,0,.87-1.41,1.72-2.82,2.57-4.23l3.22,3-.63,1c.34,0,.68-.06,1-.09l.23-.36.33.3,1-.09-.91-.81,2.4-3.83c.87.71,1.75,1.43,2.63,2.13l1.43,1.15-.49.72.66-.12.21-.3.28.22,1.17-.21-.95-.71,3.22-4.56,4.37,3.8,1-.27-5-4.11,4.58-6.51,4.9,3.91-2.58,4.06q-.81,1.29-1.65,2.58l1.19-.34,0,0,3.71-5.74.27.22,2.4,1.94c-.31.6-.61,1.2-.91,1.8.44-.16.88-.31,1.32-.48.12-.23.24-.46.37-.69l.44.36,1.17-.47c-.37-.27-.72-.55-1.09-.83.82-1.44,1.64-2.87,2.49-4.29l3.64,2.87c.26-.12.51-.26.77-.39l-4-3.13q2.08-3.42,4.32-6.77l4.08,3q-2.11,3.36-4.14,6.77c.63-.32,1.27-.63,1.9-1,1-1.71,2.1-3.42,3.17-5.12.82.61,1.65,1.2,2.48,1.8.33-.22.67-.42,1-.63a1.77,1.77,0,0,1,.17-.12c-1-.71-2-1.43-3-2.13,1.23-2,2.46-3.9,3.71-5.85,1.66,1.28,3.29,2.59,4.91,3.91l.61-.48q-2.54-2.05-5.13-4c.74-1.15,1.49-2.3,2.24-3.45,2,1.62,4.06,3.22,6.11,4.81.9-.79,1.79-1.59,2.66-2.41.61-.92,1.23-1.83,1.83-2.75l.57.41c.22-.22.43-.45.64-.67l-.71-.51c1.17-1.8,2.32-3.6,3.47-5.42l1.52,1.19c.22-.26.43-.54.65-.81L170.05,169q1.33-2.11,2.66-4.25l2.07,1.48.56-.76ZM15,124.64c-.46-.39-.92-.82-1.39-1.25,1.12-1.17,2.18-2.41,3.26-3.56l2-2.09c.58.51,1.16,1,1.76,1.46a.34.34,0,0,0,.18.07c-1.68,2-3.27,4-4.87,6.11Zm.24,27.54c.65-.83,1.25-1.7,1.86-2.46L19.28,147c.85,1,1.71,2,2.62,2.94q-1.61,2.09-3.13,4.24l-.52.72Zm2.25,10.49-2.14-2c1.19-1.59,2.28-3.28,3.39-4.82l0,0,1.92,1.84Q19,160.12,17.52,162.67Zm3.13,2.92-2.46-2.3c1-1.67,2.12-3.31,3.24-4.93L24,160.8c-1,1.3-1.87,2.64-2.77,3.95Zm5.2,4.87L21.3,166.2l.31-.46c1-1.44,2.06-2.83,3.11-4.23l4.19,4-2,3.23Zm2.53,2.38L26.47,171l1.17-1.87c.64-1,1.28-2,1.93-3l2.14,2C30.52,169.67,29.43,171.26,28.38,172.84Zm2.77,2.6-2.1-2c1.08-1.57,2.22-3.1,3.35-4.64l1.77,1.69c-.77,1.26-1.52,2.52-2.29,3.76Zm7.31,5.77-.47.69-2.54-2.4-.18-.18c.95-1.29,1.91-2.58,2.9-3.86a.28.28,0,0,0-.39-.4,25.83,25.83,0,0,0-3.29,3.53l-2.7-2.54c.15-.25.3-.5.46-.74.86-1.37,1.76-2.73,2.64-4.1l6.25,5.94C40.23,178.5,39.36,179.89,38.46,181.21ZM178.34,154,176,157.81c-2-1.34-4.06-2.68-6.09-4l-.17-.12,2.79-4.26c.67.46,1.35.9,2,1.37,1.35.93,2.68,1.89,4,2.85C178.5,153.78,178.42,153.91,178.34,154Zm-40.23,16.17c-1.34,1.95-2.67,3.91-4,5.87l-5.22-3.79,3.63-5.87Q135.33,168.3,138.11,170.21Zm-5.3-4.27,3-4.82,5.53,4.45q-1.44,2.06-2.86,4.13Q135.66,167.8,132.81,165.94Zm.73,11-4.32,6.31-4.79-3.71.76-1.23,3.15-5.09Zm.77.55,2.79,2,1.76,1.28-2,3.1-2.26,3.56-4.17-3.24-.53-.42C131.39,181.66,132.85,179.55,134.31,177.45Zm3.88,1.57-3.31-2.38,4.08-5.85c1.45,1,2.9,2,4.33,3l-3.87,6.07Zm1.12-8.74c.94-1.35,1.87-2.71,2.81-4.07l4,3.18-2.47,3.88C142.2,172.26,140.76,171.27,139.31,170.28Zm3.38-4.89,2.73-4,3.94,2.87q-1.34,2.1-2.68,4.2Zm3-4.41c1.29-1.87,2.56-3.74,3.85-5.62L153.4,158l-3.7,5.81Zm4.29-6.26,3-4.32c1.19.88,2.39,1.74,3.59,2.62l-2.74,4.28Q151.94,156,150,154.72Zm3.89,4.4.36-.55c2,1.37,3.94,2.76,5.88,4.18.55.4,1.09.82,1.63,1.22q-1.86,2.85-3.75,5.7l-.72-.51-6.77-4.79Zm7.19,3.31c-2.11-1.53-4.24-3.05-6.4-4.54q1.37-2.12,2.72-4.25l7.51,5.5-.83,1.28c-.61,1-1.24,1.9-1.86,2.85Zm-3.35-9.29q1.49-2.31,3-4.62l7.71,5.23-3,4.7ZM161,148c.93-1.45,1.87-2.9,2.8-4.36,2.62,1.68,5.21,3.41,7.79,5.15l-2.78,4.3Zm16.28-8-2.41,3.73L172,141.91c.79-1.3,1.58-2.61,2.38-3.91Zm-2.65-2.45,1.81-3,3,2.09c-.61.95-1.23,1.9-1.85,2.85Zm-2.81,4.25-3.29-2.08-1.57-1,2.58-4c1.5,1,3,2.07,4.53,3.11ZM167,139.55c1.48,1,3,1.94,4.46,2.92l-.41.72c0,.07.07.13.11.06.14-.23.28-.47.43-.7l2.84,1.86q-1.23,1.92-2.48,3.83c-2.6-1.71-5.21-3.4-7.86-5l2.5-3.91ZM179,153c-1.16-.82-2.33-1.65-3.5-2.46-.85-.58-1.7-1.13-2.55-1.7l2.5-3.83,1.08.7,5,3.26Q180.22,151,179,153Zm3-4.83c-1.49-.94-3-1.86-4.45-2.8l-1.65-1,2.41-3.68.84.58c1.66,1.14,3.32,2.32,5,3.5Zm4.2-6.78-1.65,2.67c-1.52-1-3-2-4.51-3l-1.42-.95c.62-.94,1.23-1.88,1.84-2.82l.17.11C182.46,138.76,184.31,140.09,186.17,141.41Zm-6.39-5.18-3.05-2c.81-1.32,1.62-2.63,2.42-3.95l3.14,2.13Zm2.86-4.38-3.2-2.07q1.4-2.28,2.78-4.58l.76.45c.89.53,1.78,1.08,2.67,1.63C184.65,128.8,183.64,130.32,182.64,131.85Zm1.07-11.26-2,3.52-4-2.35c.69-1.1,1.39-2.2,2.08-3.31C181.15,119.14,182.44,119.85,183.71,120.59Zm-3.61-2.54c.79-1.26,1.56-2.52,2.34-3.78,1.21.74,2.42,1.5,3.61,2.26-.68,1.19-1.38,2.37-2.05,3.56Q182.07,119,180.1,118.05Zm6,8.59-2.13-1.23c-.46-.26-.91-.53-1.36-.8l2.1-3.45c1,.62,2.07,1.23,3.09,1.88.16.09.31.2.47.3C187.51,124.44,186.79,125.54,186.07,126.64Zm4.66-7c-.7,1.05-1.41,2.1-2.11,3.16-1.19-.73-2.41-1.44-3.63-2.12.69-1.16,1.37-2.32,2-3.48l.21.13C188.42,118,189.58,118.82,190.73,119.6Zm-2.29-7.2-2,3.51c-1.2-.74-2.41-1.47-3.63-2.18l2.14-3.46ZM185.87,105l1.43.71c-.79,1.18-1.59,2.36-2.38,3.55l-3.34-2c.53-.87,1.07-1.73,1.59-2.6l.44-.71Zm-2.52-2.14c-1.43-.67-2.88-1.33-4.35-1.95q1.29-2.37,2.62-4.73,2.2,1.08,4.37,2.26Zm2.84-10.18,2.42,1.43c-.73,1.19-1.45,2.38-2.17,3.58q-2.2-1.14-4.45-2.18c.75-1.31,1.51-2.62,2.29-3.91C184.92,91.92,185.56,92.27,186.19,92.64Zm0-6c-.65,1-1.3,2.11-1.93,3.17l-.33.58c-1.27-.71-2.54-1.42-3.83-2.11.43-.75.86-1.51,1.31-2.26.28-.47.57-.94.87-1.4Zm-6-7.73.21-.39,2.9,1.47.46.24c-.66,1.06-1.31,2.13-1.93,3.2l-3.19-1.57C179.1,80.88,179.62,79.89,180.15,78.92Zm-3.85,7.43,1.94-3.79,3.13,1.61-.79,1.39c-.44.77-.86,1.55-1.27,2.33C178.32,87.36,177.31,86.84,176.3,86.35ZM179.68,89c1.27.71,2.55,1.41,3.82,2.13-.77,1.32-1.54,2.65-2.28,4-1.31-.59-2.64-1.14-4-1.67C178,92,178.85,90.47,179.68,89Zm-5.2,10.17c.79-1.74,1.62-3.45,2.49-5.15,1.31.56,2.61,1.14,3.89,1.75-.88,1.6-1.72,3.21-2.55,4.83C177,100.07,175.77,99.59,174.48,99.16Zm2.71,5.48a.37.37,0,0,0-.2,0c.51-1,1-1.92,1.55-2.87,1.45.62,2.9,1.24,4.35,1.88l-.38.64c-.53.87-1,1.75-1.56,2.62Zm3.94,3.33,3.29,2-2.25,3.4a1,1,0,0,1-.17-.1c-1-.57-2-1.19-3.07-1.77Zm-2.51,4c.84.48,1.67,1,2.5,1.46l.7.43c-.83,1.26-1.67,2.52-2.49,3.78-1.09-.53-2.18-1-3.28-1.54C176.92,114.76,177.76,113.38,178.62,112Zm-4.73,7.54c.66-1,1.32-2.07,2-3.11,1.08.53,2.16,1.06,3.22,1.61L177,121.29C176,120.7,174.92,120.11,173.89,119.54Zm3.51,2.81,4,2.36-2.61,4.65-4.12-2.68Zm-3,4.7,4.09,2.78-2.25,4.06-4.35-2.9Zm-2.7,4.25,4.31,3-1.69,3c-1.51-1-3-2-4.54-3Zm-4-2.79,3.13,2.18-2,3-3.24-2.12Zm-2.23,3.33,3.18,2.23q-1.29,2-2.59,4.05c-1.1-.74-2.21-1.48-3.34-2.18C163.68,134.57,164.6,133.21,165.51,131.84Zm-3.18,4.73c1.12.74,2.27,1.44,3.39,2.14q-1.26,2-2.51,3.93c-1.17-.72-2.36-1.41-3.54-2.11C160.56,139.22,161.44,137.89,162.33,136.57Zm-2.9,4.31c1.17.73,2.34,1.44,3.5,2.18l-2.79,4.37-3.57-2.32Zm-3.13,4.63,3.53,2.41-3,4.61L153.25,150C154.27,148.5,155.28,147,156.3,145.51Zm-7.8-5.36c2.36,1.64,4.74,3.26,7.11,4.88l-3.12,4.44-6.65-4.65C146.75,143.27,147.64,141.72,148.5,140.15Zm-2.82,4.94c2.19,1.58,4.36,3.17,6.54,4.76q-1.51,2.16-3,4.34-3.24-2.13-6.55-4.13Q144.19,147.58,145.68,145.09Zm-3.33,5.47q3.22,2.12,6.42,4.26l-3.88,5.57-6-4.24C140,154.29,141.2,152.43,142.35,150.56Zm-3.71,5.95,6,4.32-2.72,3.93q-2.82-2.19-5.64-4.35l1-1.58ZM133.73,153s0,0,0,0l4.06,3-1.11,1.8-1.29,2.08-3.84-2.93C132.29,155.56,133,154.26,133.73,153Zm-2.49,4.46,3.74,3.05-3,4.9c-1.28-.84-2.58-1.65-3.87-2.47Q129.69,160.17,131.24,157.42Zm-3.4,5.9,3.82,2.53-3.61,5.84-3.63-2.61Q126.14,166.21,127.84,163.32Zm-4,6.66,3.61,2.6-2.81,4.57c-.36.57-.71,1.15-1.07,1.73l-3.47-2.69Q122,173.09,123.89,170Zm-38.7,16,2,1.89c.92.86,1.82,1.74,2.71,2.62l-2.68,4-4.57-4.32ZM82,189.47l-.87-.82-3.57-3.38,2.8-3.69q2.09,1.83,4.13,3.71Zm5.83-2.16q-1.09-1-2.19-2l2.18-3.61,5,4.56c-.58.87-1.17,1.74-1.75,2.62l-.58.86Zm3.56,2.61,2-3.06,3.19,2.92-2.4,3.61c-1-1-2.07-2-3.12-3Zm2.29-3.45q1.25-1.86,2.47-3.72l3.13,3-2.4,3.6Zm6.21-.14q2,1.89,4,3.74l-1.64,2.54-.68,1-1-.94-3.09-2.79C98.22,188.71,99,187.52,99.84,186.33Zm.39-.6q1.6-2.35,3.24-4.68l4,3.44-3.18,4.94Q102.25,187.6,100.23,185.73Zm3.47-5,4.23-6,3.9,3.1q-2.06,3.15-4.1,6.32Zm4.45,4.34q1.71,1.49,3.44,2.95-1.55,2.55-3.07,5.11c-1.21-1-2.41-2.08-3.61-3.14Zm.26-.4,4.14-6.32,3.32,2.63-.18.3q-1.92,3.14-3.82,6.29Zm8.3-2.79.09-.16q1.73,1.35,3.42,2.71-2,3.35-4.1,6.69l-3.33-2.78Zm.53-.89q1.32-2.17,2.63-4.35l3.45,2.74q-1.32,2.16-2.65,4.32Zm2.56-14c1,.79,2.11,1.56,3.17,2.34q-1.89,3.08-3.76,6.15L116,173C117.29,171,118.55,169,119.8,167Zm-4,6.4L119,175.9l-2.64,4.35-3.3-2.62Zm-4.47-3.56,3.77,3c-.93,1.41-1.85,2.83-2.78,4.25q-1.94-1.55-3.89-3.07C109.37,172.61,110.35,171.21,111.3,169.81Zm-4.43-3.54,4,3.22c-1.07,1.33-2.1,2.68-3.12,4q-1.82-1.42-3.65-2.83C105.09,169.24,106,167.77,106.87,166.27Zm-3.12,5c1.18,1,2.36,1.92,3.55,2.88q-2.19,3-4.27,6l-3.35-2.79C101,175.35,102.41,173.34,103.75,171.3ZM99.23,178l.27-.39,3.31,2.84c-1.08,1.56-2.13,3.12-3.18,4.69-1.06-1-2.11-2-3.15-3Q97.86,180.11,99.23,178Zm-6-5.76,5.62,4.82-3,4.49c-1.7-1.65-3.39-3.32-5-5C91.63,175.15,92.45,173.72,93.24,172.27Zm-2.72,4.8q2.45,2.56,5,5.07L93,185.89l-5-4.52Q89.27,179.23,90.52,177.07Zm-3.88-4.22q1.59,1.77,3.21,3.5-1.34,2.15-2.64,4.32l-3.72-3.36Q85.1,175.11,86.64,172.85Zm-3.37,4.76L87,181c-.73,1.21-1.45,2.42-2.17,3.64q-2.05-1.82-4.16-3.55Q82,179.37,83.27,177.61Zm-4-3.64q1.56,1.44,3.13,2.87-1.34,1.77-2.64,3.56-1.69-1.38-3.42-2.73C77.36,176.45,78.34,175.21,79.31,174Zm-3.19,4q1.69,1.42,3.35,2.86l-2.7,3.72-3.36-3.19Zm-9.2,4.4,1.45-2,1.36-1.85,2.59,2.5q-1.44,1.84-2.83,3.71Zm2.14,3L67,188.17c-.23.32-.45.65-.69,1l-2.52-2.26-.07-.06c.94-1.28,1.87-2.57,2.81-3.86Zm4-3.55L76.45,185l-2.68,3.68-3.55-3.28C71.16,184.21,72.12,183,73.08,181.79Zm-.74-6.89c1,.8,2,1.62,3,2.44Q74,179,72.63,180.65L70,178.17C70.8,177.09,71.59,176,72.34,174.9Zm-4-3.09c1.06.8,2.1,1.61,3.14,2.43-.81,1-1.59,2-2.37,3.1l-2.76-2.62C67,173.76,67.71,172.79,68.36,171.81Zm-2.24,3.27,2.74,2.64c-.94,1.29-1.86,2.6-2.77,3.91L63.26,179Q64.72,177.07,66.12,175.08Zm-6.72.4,1.42-1.79c.56-.69,1.14-1.38,1.69-2.1l3.08,3c-1,1.28-2,2.56-3,3.86Zm3.45,4.11,2.83,2.63c-.91,1.32-1.81,2.63-2.72,3.93-1-.9-2-1.82-3-2.73Zm-4.42,5.92,1.18-1.58,3,2.77c-.3.43-.6.87-.91,1.29l-.93,1.31c-1-.9-2.07-1.81-3.09-2.72C57.9,186.22,58.16,185.86,58.43,185.51Zm-7.65-.24-8.49-8c.51-.73,1-1.48,1.42-2.24,2.49,2.33,5.11,4.54,7.65,6.81l1.33,1.19A22.79,22.79,0,0,0,50.78,185.27Zm3.9,3.65-3.18-3c.62-.76,1.26-1.5,1.88-2.26l3.14,2.81Zm3.79,3.55-1.19-1.11L55.4,189.6l1.83-2.48,3.09,2.75C59.71,190.74,59.09,191.61,58.47,192.47Zm3.36,3.14-2.71-2.53,1.9-2.59.34.3,2.32,2.08C63.06,193.78,62.44,194.69,61.83,195.61Zm2.29-3.37c-.9-.77-1.8-1.54-2.68-2.31l.63-.87,1.23-1.68c.85.78,1.72,1.55,2.59,2.33C65.29,190.55,64.7,191.39,64.12,192.24ZM68.46,196l-3.63-3.1c.59-.84,1.16-1.68,1.76-2.51,1.2,1.08,2.39,2.17,3.6,3.25C69.61,194.37,69,195.16,68.46,196ZM70.61,193c-1.22-1.07-2.42-2.16-3.62-3.24l.42-.6c.78-1.07,1.57-2.12,2.37-3.17l3.56,3.29C72.42,190.54,71.52,191.78,70.61,193Zm6,5.22c-1.81-1.55-3.62-3.09-5.4-4.67l2.16-2.88.6-.79q2.46,2.29,4.94,4.57Q77.77,196.35,76.63,198.24Zm2.69-4.42-4.89-4.5,2.73-3.6,3.49,3.36,1,.94-.16.26C80.76,191.46,80,192.64,79.32,193.82Zm5.16,4.76-4.42-4.08c.74-1.25,1.49-2.5,2.24-3.74l0-.06,4.51,4.37C86.05,196.23,85.27,197.41,84.48,198.58Zm4,3.67-.61-.55-2.66-2.46,2.32-3.51,3.13,3C89.91,199.92,89.18,201.08,88.47,202.25Zm2.61-4.16-3.16-3,2.63-4c1,1,2,2.07,3,3.12C92.76,195.51,91.92,196.8,91.08,198.09Zm4.7,4.42-3.9-3.67q1.19-2,2.38-3.92,1.93,2,3.82,4.07Zm-1-8.47q1.13-1.81,2.28-3.6l.07-.11,3,2.74,1.12,1c-.87,1.33-1.74,2.65-2.6,4C97.41,196.71,96.13,195.36,94.81,194Zm7.92,8.68c-1.13-1.37-2.29-2.72-3.49-4l2.63-4.05,3.69,3.41C104.61,199.6,103.66,201.15,102.73,202.72Zm3.16-5.21-3.72-3.33c.25-.39.5-.78.76-1.17l1.57-2.39c1.19,1.07,2.4,2.13,3.61,3.18l-.91,1.52C106.77,196.05,106.33,196.78,105.89,197.51Zm4.07,3.66-3.24-2.91c.35-.59.71-1.18,1.07-1.76s.8-1.3,1.2-1.95c1.09.94,2.2,1.87,3.31,2.79Zm2.78-4.55v0c-1.12-.91-2.22-1.84-3.32-2.77,1-1.69,2.07-3.37,3.1-5.07l3.29,2.83Zm4.79,3.86-1.32-1q-1.41-1.11-2.79-2.25l3.09-5,1.25,1.06,2.91,2.52Zm3.53-5.25-2.86-2.37-1.36-1.15L121,185l4.54,3.62Zm5-7.33-4.59-3.61,2.67-4.29q2.35,1.89,4.73,3.76Zm5.52,4.32-4.89-3.83,2.86-4.08,1,.79,3.71,2.92Zm3.34,2.6c-.74-.57-1.48-1.13-2.2-1.71-.15-.11-.3-.22-.44-.34l2.7-4.17,2.38,1.88C136.49,191.9,135.68,193.36,134.9,194.82Zm2.83-5L135.35,188l1.2-1.84,3.09-4.82,2.57,1.9C140.63,185.35,139.13,187.56,137.73,189.84Zm9.92-4.16-4.12-2.9c.81-1.19,1.62-2.38,2.46-3.57.16-.23-.21-.51-.39-.3-.94,1.11-1.84,2.25-2.72,3.42l-2.67-1.89,3.89-6.05,2.15,1.54q2.59,1.9,5.16,3.87Q149.51,182.73,147.65,185.68Zm4.15-6.48c-1.56-1.17-3.12-2.33-4.7-3.47l-2.65-1.89,2.46-3.82,7.15,5.71Zm2.92-4.47c-2.4-1.86-4.8-3.71-7.19-5.58l-.05,0c.91-1.4,1.81-2.81,2.71-4.21l6.17,4.48,1.26.91C156.65,171.77,155.69,173.26,154.72,174.73Zm7.13,5.61c-2.07-1.66-4.16-3.29-6.25-4.93,1-1.49,1.92-3,2.9-4.47l6.41,4.68Q163.4,178,161.85,180.34Zm3.55-5.48-6.49-4.56,3.72-5.69c2.09,1.56,4.17,3.15,6.22,4.76Q167.14,172.13,165.4,174.86Zm4-6.34c-2.08-1.58-4.19-3.11-6.28-4.63L165,161l.78-1.19q3.11,2.27,6.23,4.51C171.15,165.69,170.27,167.1,169.38,168.52Zm3.14-5.05-6.27-4.41,3.07-4.7,6.23,4.2Z"/><path class="cls-5" d="M109,49.24a0,0,0,0,0,.08,0,35.44,35.44,0,0,0,2.65-5.77,38.56,38.56,0,0,0,2.59-6.64l.21,0c.31.06.53-.37.22-.54l-.17-.09-1.09.64-.06.22a.07.07,0,0,0,0,.06A41.33,41.33,0,0,0,111.55,42,42.62,42.62,0,0,0,109,49.24Z"/><path class="cls-5" d="M56.13,55.1q-1.62,1.82-3.23,3.69c-.44-.23-.88-.46-1.33-.68a.08.08,0,0,0-.08.13l1.23.76c-1.2,1.41-2.38,2.84-3.52,4.29L49,63.12c-.09-.07-.2.08-.12.15l.23.18a101,101,0,0,0-6.18,8.71c0,.07.07.15.12.09,2.18-2.82,4.34-5.63,6.55-8.41l3.13,2.47c-2.36,2.76-4.68,5.56-6.9,8.42a.08.08,0,0,0,.12.11c2.53-2.61,5-5.31,7.4-8l.88.69c.87.68,1.73,1.43,2.63,2.12L55.6,71.14l1.08-.28c.26-.26.51-.52.76-.79.23.17.46.32.69.47l.58-.11c-.28-.26-.58-.52-.88-.77.64-.68,1.27-1.39,1.91-2.09,1.12.79,2.26,1.57,3.43,2.27l1.07-.09c.73-.88,1.44-1.77,2.15-2.66,1.37.82,2.75,1.63,4.16,2.36l1.71-.06L71.64,69c.61-.81,1.19-1.64,1.77-2.48.13-.21.28-.41.43-.62l.88.61c.67.45,1.34.94,2,1.41a2.35,2.35,0,0,1-1,.49c-.35.09-.19.58.15.53a3.33,3.33,0,0,0,1.41-.6l1.07.71,1.27-.13c-.56-.43-1.15-.83-1.74-1.22a1.34,1.34,0,0,0,.12-.24l-.48-.56-.28.38-1-.66-2-1.33c.44-.6.87-1.23,1.25-1.86-.15-.35-.27-.7-.39-1a20.55,20.55,0,0,0-1.6,2.41l-3.1-2.07L70,62.43c.87-1.08,1.76-2.16,2.61-3.27.68.55,1.38,1.08,2.08,1.59-.08-.38-.14-.77-.19-1.15-.44-.39-.88-.78-1.35-1.15.44-.59.87-1.19,1.28-1.8A16.67,16.67,0,0,1,74.63,55a33.35,33.35,0,0,0-2.34,2.8c-.8-.6-1.63-1.18-2.47-1.73.65-.75,1.3-1.51,2-2.25l.69-.79a9.66,9.66,0,0,0,1.86,1.67.2.2,0,0,0,.27-.27,5.26,5.26,0,0,0-1.79-1.78l1.62-1.85a9.18,9.18,0,0,0,1.13.8L75.8,51c-.32-.22-.67-.4-1-.6l0,0c.46-.51.91-1,1.37-1.55l.6.32.22.13a4.4,4.4,0,0,1,.35-.39L77,48.77l-.54-.27c1.33-1.52,2.66-3,4-4.57,2.56-3,5.33-6.11,7.21-9.58.08-.15-.12-.32-.24-.19-2.8,3.09-5.29,6.49-8,9.65-1.24,1.44-2.49,2.86-3.74,4.29l-.39-.19c-.24-.12-.45.23-.21.36l.31.16L74,50l-1.68-1c-.16-.09-.3.15-.15.26.52.35,1,.71,1.54,1.07l-1.62,1.85a15.28,15.28,0,0,0-2.79-1.5c-.12-.05-.21.16-.09.21a19.24,19.24,0,0,1,2.6,1.59h0L70.7,53.72c-.54.62-1.09,1.23-1.64,1.85-1.31-.83-2.66-1.6-4-2.34,5.45-6.21,11-12.36,16.18-18.83l-.75.1c-5.58,5.91-10.78,12.21-16.1,18.37-.65-.35-1.29-.7-1.93-1a.1.1,0,0,0-.1.18l1.79,1.13-.4.47-2.62,3L58.69,55c-.14-.09-.25.12-.13.21l2.33,1.65-3.63,4.17c-1.25-.68-2.51-1.34-3.77-2,.87-1,1.75-2.06,2.65-3.07C61,50.63,66.37,45.93,71.34,40.74c.1-.11,0-.31-.17-.22C65.6,44.6,60.73,50,56.13,55.1ZM52.92,66c-1.06-.79-2.13-1.59-3.21-2.37l1.62-2L54.67,64Zm4.27,3.13c-.91-.69-1.86-1.33-2.74-2l-.89-.66c.59-.67,1.18-1.35,1.76-2L57.46,66,59,67C58.39,67.75,57.78,68.45,57.19,69.17Zm6.48.35c-1.12-.86-2.32-1.64-3.52-2.41l2.18-2.44h0c1.12.64,2.25,1.33,3.38,2C65,67.62,64.34,68.56,63.67,69.52ZM66.25,66c-1.16-.61-2.32-1.21-3.44-1.83Q64.4,62.3,66,60.47l2.88,2-.08.11Zm6.89-.54a.61.61,0,0,1-.07.1c-.49.76-1,1.53-1.45,2.3-.1.16-.33.47-.56.81-1.32-.81-2.7-1.56-4.08-2.29l1.72-2.22L69.59,63ZM69.33,56.6c.83.6,1.63,1.24,2.43,1.88-.85,1.14-1.67,2.31-2.51,3.44L66.37,60Zm-5.52-1.93,1-1.12c1.28.82,2.56,1.65,3.81,2.53-1,1.14-2,2.28-3,3.42C64.32,58.67,63,57.85,61.77,57Zm-2.3,2.67,3.69,2.59c-1.09,1.23-2.19,2.46-3.27,3.7l-4-2.18Zm-4,4.57,3.91,2.26c-.7.81-1.41,1.62-2.1,2.43l-1.06-.68c-.89-.59-1.8-1.16-2.71-1.74Zm-.68-.4-1.95,2.24c-1.15-.75-2.3-1.5-3.46-2.23l1.81-2.18C54.46,60.08,55.66,60.8,56.87,61.51Z"/><path class="cls-5" d="M43.6,142.63a.17.17,0,0,0,.2-.27,18.44,18.44,0,0,0-3.6-2.91c-.19-.13-.41.16-.24.32A18.29,18.29,0,0,0,43.6,142.63Z"/><path class="cls-5" d="M128,13.23a18.74,18.74,0,0,0-1.11,2.3c.41-.19.82-.37,1.24-.54.15-.51.28-1,.39-1.54A.29.29,0,0,0,128,13.23Z"/><path class="cls-5" d="M124.72,13.5A24.62,24.62,0,0,0,123,17.63c.47-.29.94-.57,1.42-.84a24.54,24.54,0,0,0,.69-3.12C125.14,13.44,124.84,13.27,124.72,13.5Z"/><path class="cls-5" d="M105.68,38.74c-.06.28-.11.56-.16.84l.54-.32c.1-.33.21-.66.3-1l1,.21.8-.45a12.44,12.44,0,0,0-1.59-.55l.15-.54C106.38,37.53,106,38.13,105.68,38.74Z"/><path class="cls-5" d="M132.83,13.08c-.16.17-.32.34-.47.52l1-.25A.33.33,0,0,0,132.83,13.08Z"/><path class="cls-5" d="M102.87,50.49c.35-.51,1.2-2.15,1.36-2.39.73-1.17,1.43-2.37,2.15-3.55,1-1.69,2.09-3.37,3-5.11l-1.24.81a106.77,106.77,0,0,0-5.93,10.14Z"/><path class="cls-5" d="M115.53,45.82c0,.12.16.13.2,0,.64-1.81,1.15-3.67,1.8-5.48s1.74-3.54,2-5.39c0-.21-.22-.44-.4-.23-1.1,1.31-1.55,3.22-2.08,4.82A31.49,31.49,0,0,0,115.53,45.82Z"/><path class="cls-5" d="M135,14.94a6.09,6.09,0,0,0-1.39,2.15,14,14,0,0,0-1.18,2.69.18.18,0,0,0,.3.17,13.67,13.67,0,0,0,1.58-2.45,6.5,6.5,0,0,0,1-2.43C135.37,14.89,135.14,14.85,135,14.94Z"/><path class="cls-5" d="M122.67,37.22a9.22,9.22,0,0,0,1.13-2.42c.31-.78.92-1.73.69-2.57a.2.2,0,0,0-.3-.12c-.66.47-.78,1.39-1,2.13a10.39,10.39,0,0,0-.78,2.86C122.37,37.24,122.58,37.35,122.67,37.22Z"/><path class="cls-5" d="M123.23,27.07c.64-1.36,1.23-2.72,1.81-4.1a3.25,3.25,0,0,0,1.21.29.17.17,0,0,0,.09-.32,3,3,0,0,0-1-.39l-.07,0c.26-.63.53-1.26.78-1.9.6-1.51,1.29-3.05,1.83-4.62-.46.21-.91.42-1.36.65-.38,1-.73,2.07-1.09,3.08s-.59,1.72-.89,2.59l-.56-.16a.22.22,0,0,0-.12.42l.54.16c-.47,1.4-.92,2.81-1.33,4.23C123,27.1,123.18,27.19,123.23,27.07Z"/><path class="cls-5" d="M128.15,30.27a1.58,1.58,0,0,0,0,1.19.13.13,0,0,0,.25,0,2,2,0,0,1,.36-.9c.14-.24.38-.42.45-.7a.22.22,0,0,0-.21-.28C128.59,29.51,128.29,29.93,128.15,30.27Z"/><path class="cls-5" d="M130,17.5a30.5,30.5,0,0,0-2.41,5.38.14.14,0,0,0,.26.11c.88-1.49,1.66-3,2.52-4.52s2-2.92,2.79-4.48l-1.4.46C131.07,15.42,130.52,16.5,130,17.5Z"/><path class="cls-6" d="M184.63,74.44a88.22,88.22,0,0,0-19.1-25.68l-.62-.48c-4.72-5-11.31-8.94-17.9-9.66a69.17,69.17,0,0,0,7-7.45c5-6.25,9.26-17.19,19.06-15.84A.72.72,0,0,0,173.6,14C165.41,8.53,157,3.39,147.34,1a37.09,37.09,0,0,0-26.68,3.61C110.25,10.3,102,20.42,97.52,31.74c-9.35-1.14-19.83,1-28.88,3.15a92.59,92.59,0,0,0-21.49,7.6C19.67,54.76,1.46,83.23.08,113.72A84.48,84.48,0,0,0,16.58,167c11.26,15.42,27.22,25.62,45.1,31.77,19.43,6.68,41,9.28,61.16,4.87a92.66,92.66,0,0,0,46.45-26.43C195.37,150.07,201,108,184.63,74.44ZM120.78,7.12c16.24-10,34.78-2.89,49.52,6.46-4.58.17-8.56,3.41-11.35,7.1-4.79,6.35-9.07,12.58-15.16,17.8A51.74,51.74,0,0,1,96.51,49.23c1.46-1.29,3-2.55,4.48-3.79a121.13,121.13,0,0,1,16.56-10.87c.35-.2.12-.8-.28-.66a61.84,61.84,0,0,0-12.26,6c.66-1.12,1.29-2.26,2-3.33a99.65,99.65,0,0,1,7-9.84c5.9-7.27,13.47-11.52,22.52-13.64a.11.11,0,0,0,0-.21c-8.54.87-15.82,5.51-21.82,11.41a61,61,0,0,0-7.73,9.66,57.26,57.26,0,0,0-4.83,7.87c-.52.36-1,.72-1.56,1.09A65.94,65.94,0,0,0,95,47.39C98.33,31.24,106.42,16,120.78,7.12Zm30.61,181.47c-17.1,11.26-37.26,15.69-57.55,14.22-21.46-1.56-43.75-8.26-60.71-21.86a83.5,83.5,0,0,1-29.51-49.5A81.62,81.62,0,0,1,15.45,72.07,80.6,80.6,0,0,1,46.77,44.68l1.06-.49c3.32-1.32,6.61-2.67,10-3.93l3.83-1.36,1.16-.4q2.52-.82,5.12-1.52A114.66,114.66,0,0,1,82.7,34.19c4.74-.59,9.52-.48,14.25-.94a50.28,50.28,0,0,0-3,15.12c-.3.27-.6.54-.89.82a26.54,26.54,0,0,0-3,3.12,15.18,15.18,0,0,0-2.49-2.45,7.33,7.33,0,0,0-7.19-2.49c-4.84.76-6,7.15-5.9,11.07A14,14,0,0,0,79.67,68.9c-1.19.13-2.38.24-3.57.32-8.4.52-16.46-.09-24.39,3.26-6.7,2.84-11.31,7.9-14.9,14.06-.11.17.15.32.27.16,4.11-6,10.75-10.5,17.54-12.87,8.1-2.81,16.9-1.47,25.28-2.27a61.41,61.41,0,0,0,20.57-5.93c7.38-3.52,14.4-11.29,23.13-10.73a.18.18,0,0,0,.05-.35c-8.29-2.67-14.57,3-21.33,7a54.61,54.61,0,0,1-8.11,3.84c.68-2.74-.52-6-1.52-8.49a18.3,18.3,0,0,0-1.41-2.75c.91-.74,1.7-1.66,2.56-2.48.31-.3.64-.59,1-.88l.07,0c14.07,5.43,30.36,2.3,43-5.29a56,56,0,0,0,8.4-6.23c3.68,2,7.5,3.67,11.06,5.93,1.27.79,2.47,1.64,3.65,2.53a94.21,94.21,0,0,1,25.15,36.78c6.94,18.59,6.81,39.12.77,57.92A87.74,87.74,0,0,1,151.39,188.59ZM82.5,63.33a7.91,7.91,0,0,0,6.81-8.1l.08,0A21.81,21.81,0,0,1,91,58.44c1,2.4.83,5.11,1.68,7.49a60.81,60.81,0,0,1-11,2.69c-3.14-4.21-5.59-8.38-4.56-14,.88-4.82,6.39-7,9.42-2.46,2.83,4.22-1.16,8.3-4.37,10.44A.39.39,0,0,0,82.5,63.33Z"/></g></g></svg>