<?xml version="1.0" encoding="utf-8"?>
<!-- Generator: Adobe Illustrator 23.0.6, SVG Export Plug-In . SVG Version: 6.00 Build 0)  -->
<svg version="1.1" id="Layer_1" xmlns="http://www.w3.org/2000/svg" xmlns:xlink="http://www.w3.org/1999/xlink" x="0px" y="0px"
	 viewBox="0 0 368.43 368.43" style="enable-background:new 0 0 368.43 368.43;" xml:space="preserve">
<style type="text/css">
	.st0{fill:none;}
	.st1{fill:#00A551;}
	.st2{fill:#F6921E;}
	.st3{fill:#FFFFFF;}
	.st4{fill:#4C4C4C;}
	.st5{fill:#2F2F2F;}
</style>
<rect x="-2.66" y="-2.66" class="st0" width="373" height="373"/>
<g>
	<g>
		<g>
			<path class="st1" d="M208.81,83.55c17-10.51,36.41-3.02,51.84,6.76c-4.8,0.18-8.96,3.57-11.88,7.43
				c-5.02,6.64-9.49,13.17-15.88,18.64c-13.9,11.9-31.98,15.8-49.5,11.25c1.54-1.35,3.1-2.67,4.69-3.96
				c5.37-4.37,11.34-7.95,17.34-11.38c0.37-0.21,0.12-0.84-0.29-0.7c-4.55,1.6-8.79,3.74-12.83,6.27c0.69-1.18,1.35-2.37,2.05-3.49
				c2.23-3.57,4.68-7.03,7.33-10.3c6.17-7.61,14.1-12.06,23.58-14.28c0.12-0.03,0.1-0.23-0.03-0.22
				c-8.94,0.91-16.57,5.76-22.85,11.94c-3.09,3.04-5.68,6.52-8.09,10.11c-1.69,2.53-3.74,5.32-5.06,8.25
				c-0.55,0.37-1.09,0.75-1.63,1.14c-2.02,1.45-3.93,3.04-5.78,4.7C185.31,108.8,193.78,92.84,208.81,83.55z"/>
			<path class="st2" d="M240.86,273.53c-17.9,11.8-39.01,16.43-60.25,14.89c-22.48-1.63-45.81-8.65-63.56-22.88
				c-16.14-12.94-27.07-31.56-30.9-51.83c-4.04-21.35,0.48-44.02,12.39-62.16c8.15-12.42,19.67-22.06,32.78-28.69
				c0.37-0.17,0.74-0.34,1.11-0.51c3.48-1.39,6.93-2.8,10.43-4.11c1.33-0.48,2.67-0.95,4-1.43c0.4-0.14,0.81-0.28,1.21-0.42
				c1.76-0.58,3.55-1.12,5.37-1.59c5.09-1.34,10.29-2.26,15.51-2.92c4.96-0.62,9.96-0.51,14.92-0.98
				c-1.86,5.16-2.96,10.52-3.15,15.82c-0.31,0.29-0.62,0.57-0.93,0.86c-1.04,0.98-2.27,2.05-3.19,3.27
				c-0.77-0.95-1.64-1.82-2.6-2.57c-1.58-1.95-4.11-3.14-7.53-2.61c-5.07,0.8-6.34,7.48-6.18,11.59c0.16,4.05,2.14,8.52,5.49,10.95
				c-1.24,0.15-2.49,0.26-3.73,0.34c-8.79,0.55-17.24-0.09-25.53,3.42c-7.02,2.97-11.85,8.27-15.61,14.72
				c-0.11,0.19,0.16,0.34,0.28,0.17c4.31-6.25,11.26-10.99,18.37-13.46c8.47-2.95,17.69-1.55,26.46-2.38
				c7.51-0.71,14.75-2.97,21.54-6.21c7.73-3.68,15.08-11.82,24.22-11.24c0.22,0.01,0.24-0.31,0.05-0.37
				c-8.68-2.8-15.26,3.17-22.33,7.31c-2.71,1.58-5.56,2.91-8.49,4.02c0.71-2.87-0.55-6.32-1.6-8.89c-0.41-1-0.9-1.96-1.47-2.88
				c0.95-0.77,1.77-1.74,2.67-2.59c0.33-0.31,0.67-0.62,1-0.93c0.03,0.01,0.05,0.03,0.08,0.04c14.73,5.69,31.79,2.42,45.01-5.53
				c3.13-1.88,6.06-4.09,8.8-6.52c3.85,2.1,7.84,3.84,11.58,6.2c1.32,0.83,2.58,1.73,3.82,2.65c11.62,10.6,20.74,23.52,26.33,38.5
				c7.26,19.47,7.13,40.96,0.81,60.64C271.63,245.14,258.25,262.07,240.86,273.53z"/>
			<path class="st3" d="M168.73,142.39c4.85-0.79,7.13-4.65,7.13-8.48c0.03-0.01,0.06-0.02,0.09-0.03c0.64,1.07,1.22,2.19,1.7,3.39
				c1,2.52,0.88,5.35,1.76,7.84c-3.73,1.3-7.59,2.23-11.5,2.82c-3.29-4.41-5.86-8.78-4.78-14.64c0.93-5.04,6.7-7.27,9.86-2.57
				c2.97,4.41-1.21,8.68-4.57,10.93C168.03,141.92,168.29,142.46,168.73,142.39z"/>
		</g>
		<g>
			<path class="st4" d="M183.77,130.78c-1.6,1.51-2.97,3.4-4.21,5.25c0.07,0.17,0.13,0.33,0.2,0.5c1.58-1.69,3.18-3.53,4.33-5.51
				C184.2,130.82,183.93,130.62,183.77,130.78z"/>
			<path class="st4" d="M169.48,136.89c1.29-1.61,2.85-3.28,4.1-5.05c-0.12-0.3-0.28-0.59-0.46-0.89c-1.52,1.71-2.84,3.78-4.16,5.54
				c-1.51,2-2.99,4.02-4.47,6.04c0.05,0.11,0.1,0.22,0.16,0.32C166.26,140.86,167.88,138.89,169.48,136.89z"/>
			<path class="st4" d="M178.43,125.43c-1.59,0.39-3.14,1.91-3.67,3.52c0.1,0.09,0.21,0.19,0.31,0.29c0.43-0.59,0.86-1.19,1.36-1.73
				c0.64-0.68,1.42-1.14,2.16-1.69C178.79,125.68,178.69,125.37,178.43,125.43z"/>
			<path class="st4" d="M164.78,132.97c1.07-1.67,2.37-3.19,3.54-4.8c-0.39,0.03-0.78,0.09-1.16,0.21c-0.94,1.2-1.77,2.52-2.56,3.74
				c-0.61,0.94-1.15,1.91-1.67,2.9c-0.02,0.37-0.04,0.73-0.03,1.08C163.49,135.04,164.12,133.99,164.78,132.97z"/>
			<path class="st4" d="M147.38,151.74c-0.04,0-0.08,0.01-0.11,0.01C147.3,151.77,147.34,151.77,147.38,151.74z"/>
			<path class="st4" d="M171.27,128.98c-0.2-0.14-0.41-0.25-0.62-0.36c-3.03,2.65-5.66,6.34-7.51,9.96c0.05,0.24,0.1,0.48,0.15,0.72
				c1.17-1.92,2.36-3.8,3.76-5.59C168.36,132.04,169.85,130.54,171.27,128.98z"/>
			<path class="st4" d="M167.9,147.92c0.13-0.1,0.25-0.2,0.38-0.3c0.01,0.01,0.01,0.02,0.02,0.03c0.18-0.14,0.36-0.28,0.53-0.42
				c0.26-0.2,0.5-0.41,0.75-0.62c0.53,0.25,1.07,0.51,1.61,0.74c0.58-0.12,1.16-0.25,1.74-0.38c-0.81-0.43-1.73-0.72-2.6-1.02
				c0.13-0.12,0.26-0.23,0.39-0.35c0.18-0.16,0.34-0.34,0.51-0.5c0.34,0.15,0.67,0.31,0.99,0.46c0.54,0.26,1.13,0.55,1.74,0.84
				c0.03,0.08,0.11,0.13,0.21,0.1c0.08,0.04,0.16,0.08,0.25,0.11c0.62-0.16,1.24-0.32,1.85-0.5c-0.35-0.13-0.71-0.25-1.07-0.38
				c0.6-0.5,1.15-1.06,1.68-1.63c0.71,0.38,1.4,0.8,2.13,1.14c0.13-0.05,0.27-0.08,0.4-0.13c-0.11-0.3-0.2-0.6-0.28-0.9
				c-0.51-0.31-1.04-0.59-1.59-0.84c0.03-0.03,0.05-0.06,0.08-0.09c0.35-0.41,0.73-0.83,1.07-1.27c-0.07-0.42-0.13-0.85-0.2-1.27
				c-0.03,0.04-0.07,0.08-0.1,0.13c-0.49-0.62-1.3-1.12-2.18-1.45c0.44-0.59,0.86-1.2,1.26-1.82c0.09-0.03,0.16-0.08,0.23-0.14
				c-0.02-0.06-0.04-0.12-0.06-0.17c-0.13-0.33-0.29-0.64-0.43-0.96c-0.33-0.18-0.65-0.36-0.98-0.52c-0.17-0.08-0.34-0.18-0.52-0.26
				c-0.06,0.34-0.14,0.68-0.23,1.01c0.08,0.05,0.15,0.1,0.23,0.15c0.31,0.21,0.63,0.4,0.96,0.6c-0.43,0.62-0.85,1.24-1.29,1.85
				c-0.36-0.09-0.71-0.14-1.05-0.16c-0.11,0.16-0.22,0.31-0.35,0.46c0.31,0.1,0.63,0.21,0.94,0.32c-0.48,0.65-0.96,1.29-1.47,1.91
				c-0.55-0.17-1.12-0.29-1.68-0.35c-0.13,0.07-0.26,0.14-0.39,0.21c0.48,0.31,1,0.56,1.53,0.79c-0.53,0.61-1.07,1.21-1.63,1.79
				c-0.82-0.4-1.64-0.8-2.47-1.17c0.19-0.23,0.38-0.46,0.57-0.69c-0.21,0.05-0.42,0.1-0.64,0.13c-0.06,0.01-0.11,0.01-0.16,0
				c-0.09,0.12-0.18,0.23-0.26,0.35c-0.64-0.27-1.28-0.52-1.93-0.71c-0.1-0.03-0.19,0.11-0.11,0.19c0.48,0.42,1.02,0.79,1.57,1.14
				c-0.33,0.44-0.66,0.87-0.99,1.3c-0.5-0.19-1.01-0.35-1.52-0.53c0.16,0.27,0.32,0.53,0.48,0.8c0.21,0.09,0.41,0.19,0.62,0.29
				c-0.08,0.11-0.16,0.21-0.24,0.32c0.07,0.11,0.14,0.21,0.21,0.32c0.13-0.16,0.26-0.31,0.39-0.47c0.39,0.17,0.78,0.34,1.17,0.51
				c0.35,0.15,0.71,0.32,1.09,0.5c-0.44,0.44-0.88,0.89-1.32,1.34C167.79,147.78,167.85,147.85,167.9,147.92z M175.7,140.1
				c0.09,0.04,0.19,0.08,0.28,0.13c0.7,0.37,1.23,0.96,1.86,1.39c-0.26,0.37-0.52,0.73-0.8,1.08c-0.09,0.11-0.18,0.21-0.27,0.32
				c-0.35-0.15-0.7-0.3-1.05-0.45c-0.49-0.21-1-0.43-1.52-0.62C174.72,141.35,175.22,140.73,175.7,140.1z M173.59,142.64
				c0.76,0.31,1.53,0.59,2.26,0.93c0.1,0.05,0.2,0.1,0.3,0.15c-0.53,0.6-1.07,1.19-1.59,1.78c-0.47-0.16-0.93-0.32-1.37-0.51
				c-0.43-0.18-0.86-0.38-1.29-0.58C172.49,143.85,173.04,143.25,173.59,142.64z M167.27,144.81c0.33-0.4,0.66-0.8,0.99-1.2
				c0.76,0.44,1.55,0.83,2.35,1.2c-0.3,0.31-0.6,0.62-0.9,0.92c-0.06-0.02-0.13-0.05-0.19-0.07
				C168.77,145.37,168.02,145.09,167.27,144.81z"/>
			<path class="st4" d="M175.95,133.89c-0.03,0.01-0.06,0.02-0.09,0.03c0,0.16-0.01,0.33-0.02,0.49c0.08-0.1,0.15-0.2,0.22-0.31
				C176.03,134.03,175.99,133.96,175.95,133.89z"/>
			<path class="st4" d="M187.21,131.99c0.09-0.2-0.14-0.41-0.32-0.24c-1.17,1.13-2.03,2.57-2.95,3.91c-1.03,1.5-2.09,2.99-3.04,4.55
				c0.03,0.14,0.06,0.28,0.09,0.43c0.96-1.13,1.83-2.33,2.71-3.53C184.91,135.47,186.34,133.84,187.21,131.99z"/>
			<path class="st4" d="M170.89,139.33c-0.28,0.36-0.56,0.74-0.84,1.1c1.62-1.34,3.13-3.07,3.71-4.99
				C172.78,136.75,171.85,138.09,170.89,139.33z"/>
			<path class="st4" d="M103.09,179.94c-0.64-0.48-1.27-0.97-1.91-1.46c-0.15-0.11-0.34,0.14-0.2,0.26
				c0.55,0.46,1.11,0.92,1.66,1.39c0.31,0.26,0.6,0.52,0.91,0.79c0.27,0.24,0.33,0.4,0.7,0.45c0.12,0.02,0.28-0.08,0.23-0.23
				C104.27,180.58,103.56,180.28,103.09,179.94z"/>
			<path class="st4" d="M206.93,97.5c0.49-0.39,0.99-0.76,1.49-1.13c0.28-0.88,0.5-1.77,0.55-2.68c0.01-0.17-0.21-0.2-0.3-0.08
				C207.86,94.76,207.39,96.15,206.93,97.5z"/>
			<path class="st4" d="M202.38,101.52c0.06-0.05,0.11-0.11,0.17-0.16c0.35-1.68,0.56-3.37,0.48-4.98
				c-0.02-0.34-0.49-0.41-0.59-0.08c-0.68,2.14-1.04,4.41-1.46,6.66C201.44,102.47,201.9,101.99,202.38,101.52z"/>
			<path class="st4" d="M256.51,133.37c0.5-0.05,0.98-0.13,1.47-0.16c-0.18-0.2-0.36-0.4-0.54-0.6c-0.37,0.13-0.72,0.33-0.99,0.61
				C256.4,133.27,256.43,133.38,256.51,133.37z"/>
			<path class="st4" d="M209.81,214.29c0.25,0.12,0.5-0.18,0.3-0.39c-1.07-1.15-2.55-1.94-3.84-2.81c-1.66-1.13-3.31-2.28-4.97-3.41
				c-0.11-0.08-0.21,0.1-0.11,0.18c1.58,1.22,3.17,2.42,4.75,3.65C207.18,212.46,208.4,213.63,209.81,214.29z"/>
			<path class="st4" d="M107.46,171.93c-0.23-0.17-0.53,0.22-0.3,0.4c0.16,0.12,0.31,0.25,0.47,0.37c-0.98,0.96-1.93,1.95-2.71,3.04
				c-0.05,0.06,0.04,0.15,0.11,0.11c1.13-0.78,2.14-1.75,3.12-2.73c0.04,0.03,0.08,0.07,0.12,0.1c0.37,0.3,0.75,0.71,1.19,0.9
				c0.2,0.09,0.52-0.12,0.35-0.35c-0.28-0.36-0.7-0.6-1.06-0.88c-0.07-0.05-0.14-0.1-0.21-0.16c0.44-0.44,0.87-0.88,1.31-1.31
				c1.89-1.85,3.87-3.66,5.54-5.71c0.11-0.13-0.05-0.28-0.18-0.18c-1.89,1.5-3.57,3.26-5.28,4.95c-0.62,0.62-1.27,1.23-1.92,1.85
				L107.46,171.93z"/>
			<path class="st4" d="M112.07,171.96c-0.25-0.01-0.25,0.39,0,0.38c0.18-0.01,0.36-0.01,0.54-0.05c0.14-0.03,0.14-0.25,0-0.28
				C112.43,171.97,112.26,171.97,112.07,171.96z"/>
			<path class="st4" d="M199.67,232.16c0.27,0.18,0.54-0.21,0.33-0.43c-2.04-2.15-4.49-3.95-6.77-5.84
				c-2.29-1.91-4.59-3.82-6.89-5.72c-4.6-3.81-9.25-7.57-13.88-11.33c-0.14-0.11-0.34,0.08-0.2,0.2c4.51,3.89,9.02,7.8,13.56,11.65
				c2.28,1.93,4.55,3.85,6.83,5.77C194.95,228.39,197.17,230.51,199.67,232.16z"/>
			<path class="st4" d="M204.01,221.55c-4.97-4.07-10.23-7.82-15.33-11.71c-0.18-0.13-0.41,0.17-0.24,0.31
				c5.03,3.99,9.97,8.16,15.13,11.98C203.9,222.37,204.33,221.81,204.01,221.55z"/>
			<path class="st4" d="M178.63,239.14c-10.03-9.62-20.82-18.52-31.33-27.61c-0.09-0.08-0.22,0.05-0.13,0.13
				c10.3,9.32,20.45,18.93,31.22,27.71C178.56,239.5,178.79,239.29,178.63,239.14z"/>
			<path class="st4" d="M161.92,237.39c0.16,0.15,0.45-0.05,0.31-0.24c-2.99-4.11-6.92-7.66-10.71-11.02
				c-3.79-3.35-7.86-6.76-12.26-9.28c-0.13-0.07-0.28,0.11-0.16,0.21c3.98,3.21,8.11,6.16,11.94,9.56
				C154.87,230.02,158.21,233.87,161.92,237.39z"/>
			<path class="st4" d="M136.61,224.86c2.22,2,4.41,4.13,6.87,5.83c0.24,0.17,0.48-0.19,0.3-0.39c-1.98-2.2-4.36-4.08-6.6-6.01
				s-4.42-4.15-6.93-5.72c-0.12-0.08-0.23,0.09-0.15,0.19C131.96,221.03,134.43,222.9,136.61,224.86z"/>
			<path class="st4" d="M191.91,238.67c0.23,0.17,0.46-0.18,0.29-0.37c-2.34-2.53-5.06-4.73-7.64-7.02
				c-2.59-2.3-5.18-4.59-7.77-6.88c-5.37-4.75-10.77-9.46-16.13-14.22c-0.16-0.14-0.39,0.09-0.23,0.23
				c5.32,4.8,10.6,9.63,15.91,14.44c2.56,2.32,5.13,4.64,7.7,6.95C186.61,234.13,189.11,236.61,191.91,238.67z"/>
			<path class="st4" d="M226.98,93.04c0.51-0.23,0.95-0.57,1.39-0.91c0.43-0.35,0.91-0.69,1.23-1.15c0.25-0.37-0.23-0.77-0.58-0.58
				c-0.49,0.27-0.87,0.73-1.27,1.11c-0.39,0.38-0.76,0.8-1.03,1.27C226.61,92.96,226.81,93.11,226.98,93.04z"/>
			<path class="st4" d="M182.53,143.92c0.29-0.12,0.57-0.23,0.86-0.35c3.27-3.94,6.68-7.74,10.04-11.6
				c-0.34-0.03-0.68-0.07-1.02-0.1C188.65,135.39,185.32,139.63,182.53,143.92z"/>
			<path class="st4" d="M259.21,134.66c-0.19,0.57-0.09,0.94-0.09,1.51c0,0.17,0.25,0.2,0.29,0.04c0.09-0.34,0.22-0.67,0.35-0.98
				c-0.18-0.21-0.36-0.42-0.54-0.63C259.22,134.62,259.21,134.63,259.21,134.66z"/>
			<path class="st4" d="M168.55,124.6c0.09-0.68,2.2-2.1,2.71-2.58c0.9-0.84,1.78-1.7,2.66-2.56c1.6-1.55,3.29-3.07,4.61-4.87
				c0.14-0.19-0.14-0.46-0.33-0.33c-1.82,1.29-3.38,2.95-4.96,4.52c-1.74,1.73-3.56,3.42-5.13,5.32c-0.07,0.09-0.12,0.22-0.04,0.33
				c0.06,0.08,0.12,0.16,0.17,0.25C168.35,124.81,168.53,124.75,168.55,124.6z"/>
			<path class="st4" d="M213.5,204.45c-0.25-0.17-0.47,0.23-0.24,0.4c0.82,0.6,1.64,1.2,2.46,1.81c0.8,0.59,1.58,1.34,2.48,1.78
				c0.29,0.14,0.6-0.21,0.35-0.46c-0.64-0.64-1.49-1.09-2.23-1.59C215.38,205.75,214.44,205.1,213.5,204.45z"/>
			<path class="st4" d="M197.38,114.97c0.23-0.12,0.47-0.24,0.71-0.36c0.14-0.28,0.29-0.56,0.42-0.85c0.27,0.09,0.55,0.17,0.82,0.25
				c0.42-0.2,0.84-0.39,1.26-0.58c-0.56-0.2-1.12-0.39-1.68-0.56c0.46-1.08,0.87-2.18,1.25-3.29c0.77,0.31,1.54,0.63,2.31,0.93
				c-0.26,0.8-0.5,1.61-0.74,2.42c0.25-0.1,0.5-0.2,0.74-0.3c0.25-0.61,0.49-1.22,0.73-1.84c1.07,0.39,2.15,0.74,3.24,0.99
				c0.35,0.08,0.61-0.44,0.25-0.6c-1-0.52-2.05-0.95-3.13-1.35c0.43-1.14,0.84-2.29,1.26-3.44c0.82,0.26,1.66,0.49,2.49,0.63
				c-0.27,0.93-0.53,1.86-0.79,2.79c-0.06,0.21,0.25,0.29,0.32,0.09c0.35-0.93,0.7-1.86,1.05-2.79c0.07,0.01,0.14,0.02,0.21,0.03
				c0.19,0.02,0.31-0.19,0.27-0.35c-0.01-0.04-0.02-0.08-0.03-0.11c-0.02-0.1-0.11-0.15-0.21-0.16c-0.01,0-0.01,0-0.02,0
				c0.53-1.41,1.04-2.82,1.54-4.23c0.27,0.07,0.53,0.14,0.8,0.2c0.37,0.08,0.5-0.43,0.15-0.56c-0.24-0.09-0.49-0.16-0.74-0.24
				c0.17-0.48,0.34-0.96,0.51-1.44c0.59-1.74,1.28-3.51,1.86-5.31c-0.52,0.31-1.02,0.63-1.53,0.96c-0.35,1.14-0.69,2.29-1.05,3.4
				c-0.23,0.7-0.45,1.41-0.66,2.12c-0.72-0.21-1.44-0.39-2.17-0.58c0.18-0.49,0.35-0.98,0.53-1.48c0.17-0.47,0.35-0.94,0.53-1.42
				c-0.53,0.42-1.04,0.86-1.55,1.31c-0.16,0.45-0.31,0.89-0.47,1.34c-0.26-0.07-0.51-0.13-0.76-0.2c-0.14,0.14-0.28,0.28-0.43,0.42
				c0.34,0.1,0.67,0.2,1.01,0.31c-0.32,0.93-0.64,1.87-0.97,2.8c-0.17,0.49-0.34,0.98-0.51,1.48c-0.53-0.14-1.06-0.28-1.59-0.41
				c-0.3-0.08-0.61-0.15-0.91-0.23c0.1-0.33,0.19-0.65,0.28-0.98c-0.1,0.12-0.2,0.23-0.29,0.34c-0.43,0.53-0.85,1.07-1.27,1.61
				c-0.05,0.21-0.1,0.43-0.15,0.64c-0.19,0.72-0.4,1.44-0.63,2.15c-0.2-0.07-0.39-0.13-0.59-0.2c-0.15-0.05-0.3-0.1-0.46-0.16
				c-0.16,0.22-0.32,0.43-0.48,0.65c0.01,0,0.02,0.01,0.04,0.01c0.41,0.16,0.82,0.32,1.24,0.49c-0.37,1.14-0.77,2.27-1.18,3.4
				c-0.78-0.22-1.56-0.44-2.33-0.66c-0.16,0.24-0.31,0.48-0.46,0.72c0.82,0.28,1.64,0.56,2.47,0.84
				C197.71,114.02,197.55,114.5,197.38,114.97z M205.39,104.82c0.42-1.15,0.83-2.3,1.23-3.44c0.72,0.23,1.44,0.45,2.17,0.65
				c-0.43,1.41-0.85,2.81-1.26,4.22c-0.01,0-0.01-0.01-0.02-0.01c-0.46-0.14-0.93-0.27-1.4-0.39c-0.34-0.09-0.67-0.17-1.01-0.26
				C205.2,105.33,205.3,105.08,205.39,104.82z M200.93,107.22c0.19-0.62,0.39-1.26,0.59-1.91c0.3,0.1,0.61,0.19,0.91,0.28
				c0.5,0.16,1.01,0.33,1.52,0.49c-0.4,1.14-0.79,2.29-1.17,3.44c-0.78-0.27-1.57-0.53-2.34-0.79
				C200.6,108.23,200.77,107.72,200.93,107.22z"/>
			<path class="st4" d="M174.94,124.74c1.29-1.18,2.72-2.21,3.93-3.47c0.11-0.11,0-0.35-0.16-0.28c-1.39,0.58-2.54,1.51-3.65,2.51
				c-1,0.9-2.16,1.97-2.93,3.17c0.18,0.11,0.35,0.21,0.52,0.33C173.44,126.29,174.16,125.46,174.94,124.74z"/>
			<path class="st4" d="M184.5,116.49c0.06-0.36,0.1-0.71,0.15-1.07c-0.54,1.57-1.04,3.17-1.48,4.78c-0.23,1.63-0.47,3.27-0.65,4.91
				c0.17-0.15,0.35-0.31,0.52-0.46c0.28-1.46,0.53-2.92,0.78-4.39c0.17-1,0.39-2.04,0.57-3.08c0.57,0.17,1.14,0.34,1.72,0.49
				c-0.19,1.61-0.34,3.22-0.47,4.83c0.19-0.15,0.38-0.3,0.57-0.45c0.24-1.39,0.46-2.78,0.65-4.18c0.22,0.06,0.43,0.12,0.65,0.18
				c0.37,0.1,0.76,0.23,1.15,0.36c-0.05,0.65-0.08,1.29-0.09,1.93c0.19-0.13,0.38-0.27,0.57-0.4c0.09-0.43,0.18-0.86,0.26-1.29
				c0.13,0.04,0.26,0.08,0.39,0.11c0.14-0.28,0.3-0.56,0.45-0.83c-0.23-0.06-0.46-0.11-0.68-0.16c0.14-0.82,0.27-1.64,0.4-2.46
				c0.03,0.01,0.07,0.01,0.1,0.01c0.52,0.09,1.04,0.2,1.56,0.32c0.16-0.25,0.32-0.5,0.49-0.74c-0.62-0.12-1.23-0.22-1.84-0.33
				c-0.06-0.01-0.12-0.02-0.19-0.03c0.18-1.14,0.36-2.28,0.56-3.41c1.09,0.36,2.19,0.71,3.29,1.07c0.13-0.2,0.27-0.4,0.4-0.59
				c0.36-0.53,0.72-1.06,1.08-1.58c0.18-0.71,0.37-1.42,0.55-2.13c0.25,0.1,0.51,0.2,0.76,0.3c0.15-0.2,0.29-0.4,0.44-0.6
				c-0.34-0.12-0.69-0.24-1.03-0.36c0.29-1.08,0.62-2.2,0.94-3.33c0.81,0.25,1.62,0.5,2.43,0.75c0.12-0.14,0.24-0.28,0.36-0.43
				c-0.9-0.22-1.8-0.45-2.69-0.67c0.62-2.23,1.16-4.5,1.19-6.69c0-0.15-0.22-0.22-0.29-0.08c-1.54,3.03-2.07,6.79-2.85,10.13
				c-1.17-0.4-2.35-0.79-3.53-1.18c0.51-2.42,1.03-4.84,1.48-7.27c-0.23,0.33-0.47,0.67-0.7,1.01c-0.64,1.97-1.17,3.96-1.63,5.98
				c-0.27-0.09-0.54-0.18-0.81-0.27c-0.21-0.07-0.28,0.24-0.09,0.32c0.27,0.11,0.54,0.22,0.82,0.33c-0.31,1.39-0.59,2.79-0.84,4.2
				c-0.01,0.07-0.02,0.13-0.04,0.2c-0.64-0.17-1.27-0.34-1.91-0.5c0.14-1.04,0.26-2.08,0.37-3.13c-0.41,0.82-0.8,1.65-1.18,2.49
				c-0.02,0.14-0.04,0.28-0.06,0.42c-0.04-0.01-0.08-0.02-0.12-0.03c-0.04,0.09-0.08,0.18-0.12,0.27c0.01,0.01,0.01,0.02,0.02,0.02
				c0.06,0.02,0.12,0.05,0.19,0.07c-0.12,0.95-0.23,1.89-0.35,2.84c-0.06,0.46-0.11,0.93-0.17,1.4c-0.47-0.03-0.94-0.04-1.41-0.03
				c-0.06,0.17-0.12,0.34-0.18,0.51c0.5,0.09,1,0.18,1.5,0.25c-0.09,0.69-0.17,1.39-0.25,2.08
				C185.63,116.76,185.06,116.62,184.5,116.49z M190.75,110.28c0.26-1.37,0.54-2.73,0.83-4.1c1.15,0.47,2.31,0.93,3.47,1.39
				c-0.32,1.3-0.63,2.6-0.94,3.91c-1.13-0.34-2.26-0.67-3.39-1C190.73,110.42,190.74,110.35,190.75,110.28z M187.35,114.15
				c0.17-1.32,0.36-2.64,0.54-3.96c0.62,0.23,1.24,0.45,1.86,0.67c-0.21,1.17-0.42,2.35-0.61,3.55c-0.59-0.09-1.19-0.18-1.79-0.24
				C187.35,114.16,187.35,114.16,187.35,114.15z M187.25,114.95c0.59,0.08,1.19,0.16,1.78,0.24c-0.12,0.8-0.23,1.6-0.31,2.41
				c-0.12-0.03-0.24-0.06-0.35-0.09c-0.47-0.12-0.94-0.25-1.42-0.38C187.05,116.4,187.15,115.67,187.25,114.95z"/>
			<path class="st4" d="M130.94,138.11c-0.07,0.07,0.03,0.17,0.11,0.11c5.22-4.34,10.39-9.25,14.29-14.84
				c0.1-0.14-0.13-0.32-0.24-0.19C140.56,128.4,136.14,133.53,130.94,138.11z"/>
			<path class="st4" d="M263.47,139.8c-0.08,0.18-0.15,0.36-0.23,0.54c-1.3-0.7-2.62-1.29-3.87-1.74c-0.17-0.06-0.26,0.19-0.12,0.28
				c1.22,0.75,2.46,1.47,3.68,2.21c-0.33,0.8-0.66,1.61-0.96,2.43c-0.05,0.12,0.15,0.2,0.21,0.09c0.4-0.74,0.78-1.5,1.16-2.27
				c0.84,0.52,1.66,1.05,2.47,1.63c0,0,0.01,0,0.01,0.01c-0.47-0.67-0.95-1.35-1.44-2.01c-0.22-0.13-0.44-0.27-0.66-0.39
				c0.05-0.1,0.09-0.19,0.14-0.29C263.72,140.12,263.6,139.96,263.47,139.8z"/>
			<path class="st4" d="M263.7,247.75c1.06-1.72,2.12-3.45,3.18-5.17c0.81,0.54,1.61,1.08,2.42,1.63c0.17-0.27,0.34-0.54,0.51-0.82
				c-0.81-0.53-1.62-1.07-2.43-1.6c0.69-1.12,1.38-2.24,2.06-3.35c0.2-0.33,0.4-0.66,0.61-0.98c0.73,0.53,1.46,1.06,2.19,1.59
				c0.12-0.24,0.24-0.48,0.36-0.72c-0.71-0.51-1.43-1.03-2.14-1.53c0.87-1.41,1.75-2.83,2.62-4.24c0.58,0.38,1.15,0.76,1.73,1.14
				c0.14-0.33,0.3-0.65,0.44-0.97c-0.55-0.34-1.09-0.69-1.63-1.03c0.73-1.19,1.46-2.37,2.2-3.56c0.33,0.23,0.66,0.46,0.99,0.7
				c0.11-0.29,0.2-0.59,0.31-0.89c-0.28-0.18-0.56-0.37-0.84-0.55c0.57-0.92,1.13-1.85,1.7-2.77c0.07,0.05,0.14,0.1,0.22,0.15
				c0.09-0.29,0.18-0.58,0.27-0.87c-0.01-0.01-0.02-0.01-0.03-0.02c0.02-0.04,0.05-0.08,0.07-0.12c0.29-0.96,0.57-1.93,0.83-2.9
				c-0.53,0.85-1.06,1.71-1.6,2.56c-1.79-1.17-3.59-2.34-5.35-3.53c-0.26-0.17-0.52-0.34-0.77-0.52c0.87-1.34,1.75-2.68,2.62-4.03
				c1.85,1.25,3.71,2.5,5.56,3.74c0.07-0.27,0.13-0.53,0.2-0.8c-1.6-1.05-3.21-2.1-4.81-3.15c-0.19-0.12-0.38-0.25-0.58-0.37
				c1.04-1.61,2.08-3.23,3.12-4.84c1.18,0.73,2.37,1.45,3.57,2.17c0.06-0.33,0.11-0.67,0.17-1c-1.09-0.63-2.18-1.25-3.28-1.87
				c0.73-1.14,1.47-2.28,2.2-3.42c0.56,0.37,1.11,0.75,1.67,1.13c0.04-0.3,0.07-0.6,0.11-0.9c-0.46-0.29-0.91-0.58-1.37-0.86
				c0.57-0.89,1.13-1.78,1.7-2.67c0.05-0.68,0.09-1.36,0.13-2.03c-0.02,0.03-0.04,0.06-0.06,0.1c-1.07-0.67-2.13-1.33-3.16-1.99
				c-0.26-0.17-0.53-0.33-0.8-0.5c0.72-1.22,1.45-2.44,2.16-3.66c0.26,0.16,0.53,0.32,0.79,0.48c0.4,0.24,0.79,0.48,1.19,0.72
				c0-0.4,0-0.81-0.01-1.21c-0.01-0.01-0.02-0.01-0.03-0.01c-0.48-0.28-0.96-0.57-1.44-0.85c0.46-0.8,0.92-1.61,1.37-2.41
				c-0.03-0.71-0.08-1.42-0.13-2.13c-0.78,1.29-1.56,2.59-2.33,3.89c-1.23-0.73-2.46-1.46-3.69-2.19c0.78-1.28,1.56-2.55,2.34-3.83
				c1.23,0.61,2.45,1.22,3.66,1.85c-0.03-0.38-0.06-0.75-0.09-1.13c-1.02-0.51-2.05-1.03-3.08-1.52c0.05-0.08,0.1-0.16,0.15-0.24
				c0.11-0.19-0.17-0.35-0.29-0.17c-0.06,0.09-0.12,0.17-0.17,0.26c-0.52-0.25-1.04-0.51-1.56-0.75c-0.77-0.36-1.55-0.73-2.34-1.1
				c0.92-1.52,1.85-3.03,2.78-4.55c0.98,0.54,1.95,1.1,2.91,1.67c0.31,0.18,0.6,0.37,0.91,0.56c-0.07-0.43-0.14-0.86-0.21-1.29
				c-0.07-0.04-0.13-0.08-0.2-0.12c-0.96-0.56-1.94-1.1-2.92-1.62c0.7-1.16,1.4-2.32,2.08-3.48c-0.13-0.54-0.25-1.08-0.39-1.62
				c-0.76-0.44-1.53-0.88-2.3-1.31c-0.66-0.37-1.33-0.75-2-1.12c0.8-1.31,1.61-2.61,2.43-3.91c-0.16-0.46-0.31-0.93-0.48-1.39
				c-1.34-0.66-2.68-1.32-4.03-1.98c0.67-1.03,1.36-2.05,2.06-3.06c-0.2-0.48-0.4-0.95-0.61-1.43c0,0,0,0.01-0.01,0.01
				c-1.19-0.59-2.38-1.19-3.57-1.78c0.49-0.89,0.99-1.76,1.49-2.64c-0.21-0.41-0.41-0.83-0.62-1.24c-0.61,1.15-1.19,2.31-1.77,3.43
				c-1.76-0.87-3.52-1.73-5.29-2.57c0.89-1.43,1.72-2.92,2.5-4.42c1.21,0.59,2.42,1.2,3.61,1.83c-0.24-0.43-0.47-0.86-0.71-1.29
				c-0.85-0.4-1.71-0.79-2.57-1.17c0.29-0.57,0.58-1.13,0.87-1.7c-0.22-0.36-0.45-0.72-0.67-1.08c-0.02,0.04-0.04,0.08-0.06,0.13
				c-0.38,0.74-0.77,1.47-1.17,2.21c-1.3-0.56-2.6-1.1-3.92-1.61c-0.27-0.11-0.47,0.36-0.2,0.48c1.28,0.55,2.54,1.13,3.8,1.72
				c-0.81,1.49-1.62,2.99-2.34,4.51c-0.8-0.37-1.6-0.74-2.4-1.1c-0.15-0.07-0.34,0.08-0.24,0.24c0.27,0.46,0.47,0.92,0.68,1.42
				c0.03,0.06,0.14,0.02,0.11-0.05c-0.12-0.33-0.24-0.66-0.35-0.99c0.02,0.04,1.43,0.66,1.56,0.73c0.14,0.08,0.29,0.15,0.43,0.23
				c-0.4,0.86-0.77,1.73-1.08,2.62c-0.06,0.17,0.18,0.24,0.27,0.11c0.56-0.74,1.08-1.53,1.59-2.32c0.67,0.35,1.35,0.71,2.02,1.06
				c1.08,0.56,2.16,1.11,3.24,1.66c-0.06,0.12-0.12,0.24-0.18,0.36c-0.55,1.05-1.1,2.1-1.65,3.16l-3.48-1.71
				c-0.42-0.2-0.78,0.41-0.37,0.63l3.48,1.8c-0.67,1.33-1.32,2.68-1.93,4.04c-1-0.48-2.01-0.94-3.02-1.37
				c-0.12-0.05-0.19,0.14-0.09,0.2c0.94,0.59,1.91,1.16,2.87,1.72c-0.55,1.25-1.06,2.52-1.51,3.8c-0.06,0.17,0.19,0.26,0.28,0.12
				c0.66-1.16,1.29-2.33,1.91-3.51c1.02,0.59,2.06,1.17,3.09,1.74c-0.82,1.6-1.61,3.22-2.35,4.86c-1.81-0.71-3.63-1.37-5.47-1.99
				c-0.31-0.1-0.44,0.38-0.13,0.49c1.8,0.64,3.58,1.34,5.34,2.08c-0.81,1.83-1.57,3.68-2.3,5.55c-1.01-0.33-2.02-0.64-3.04-0.89
				c-0.06-0.01-0.09,0.07-0.04,0.1c0.93,0.5,1.88,0.96,2.83,1.42c-0.03,0.08-0.06,0.16-0.09,0.24c-0.04,0.1,0.13,0.17,0.17,0.07
				c0.03-0.07,0.07-0.15,0.1-0.22c1.27,0.6,2.56,1.18,3.86,1.74c-1.21,2.42-2.37,4.87-3.43,7.36c-0.07,0.18,0.17,0.33,0.26,0.15
				c0.63-1.18,1.26-2.37,1.89-3.55c0.03,0.05,0.08,0.09,0.14,0.13c1.3,0.79,2.6,1.58,3.9,2.37c-0.75,1.26-1.48,2.52-2.21,3.79
				c-0.97-0.52-1.95-1-2.96-1.37c-0.12-0.05-0.19,0.14-0.09,0.21c0.19,0.1,0.36,0.23,0.53,0.36c0.01,0.02,0.01,0.02,0.03,0.04
				c0.54,0.39,1.2,0.7,1.78,1.03c0.14,0.08,0.27,0.16,0.41,0.24c-0.87,1.48-1.74,2.96-2.6,4.44c-1.72-0.77-3.46-1.51-5.22-2.21
				c-0.11-0.05-0.2,0.15-0.08,0.2c1.73,0.73,3.43,1.51,5.12,2.32c-0.63,1.1-1.27,2.21-1.9,3.31c-1.12-0.62-2.25-1.22-3.39-1.79
				c-0.14-0.07-0.25,0.12-0.12,0.21c1.05,0.72,2.13,1.42,3.21,2.1c-0.28,0.48-0.56,0.96-0.83,1.45c-0.06,0.11,0.1,0.2,0.16,0.09
				c0.3-0.47,0.59-0.94,0.89-1.4c1.04,0.65,2.09,1.29,3.15,1.92c-0.97,1.49-1.94,2.97-2.9,4.46c-2.64-1.71-5.28-3.43-7.92-5.14
				c-0.12-0.08-0.24,0.12-0.12,0.2c2.6,1.77,5.2,3.53,7.81,5.3c-0.89,1.37-1.77,2.74-2.65,4.12c-1.11-0.74-2.21-1.48-3.32-2.21
				c0.15-0.22,0.3-0.45,0.45-0.67c0.13-0.19-0.17-0.36-0.3-0.18c-0.15,0.21-0.3,0.43-0.46,0.64c-1.16-0.77-2.32-1.55-3.49-2.33
				c-0.1-0.07-0.19,0.09-0.09,0.16c1.14,0.8,2.28,1.59,3.43,2.39c-0.75,1.06-1.5,2.12-2.26,3.17c-0.83-0.54-1.65-1.09-2.48-1.62
				c-0.11-0.07-0.2,0.1-0.1,0.17c0.8,0.57,1.6,1.13,2.41,1.69c-1.01,1.42-2.01,2.84-3.02,4.25c-1.14-0.69-2.29-1.32-3.47-1.85
				c-0.08-0.03-0.17,0.06-0.1,0.12c0.97,0.85,2.02,1.63,3.12,2.36c-0.97,1.37-1.94,2.73-2.91,4.1c-2.89-1.7-5.79-3.38-8.73-5
				c-0.13-0.07-0.24,0.12-0.11,0.19c2.89,1.67,5.75,3.4,8.59,5.16c-1.03,1.45-2.05,2.91-3.07,4.37c-2.54-1.64-5.07-3.28-7.61-4.91
				c0.14-0.25,0.28-0.5,0.41-0.74c0.17-0.32-0.28-0.58-0.48-0.28c-1.26,1.8-2.48,3.64-3.68,5.49c-0.05-0.04-0.1-0.07-0.15-0.11
				c-0.16-0.12-0.32,0.15-0.16,0.27c0.05,0.03,0.09,0.07,0.14,0.1c-1.11,1.74-2.2,3.49-3.29,5.25c-1.86-1.11-3.73-2.19-5.62-3.23
				c-0.1-0.05-0.18,0.09-0.09,0.15c1.8,1.19,3.61,2.37,5.41,3.55c-1.2,1.95-2.39,3.91-3.58,5.86c-2.81-1.97-5.62-3.95-8.42-5.92
				c-0.13-0.09-0.26,0.12-0.13,0.22c1.27,0.93,2.55,1.86,3.83,2.79c-0.02,0.01-0.04,0.01-0.05,0.03c-0.85,1.27-1.68,2.56-2.51,3.84
				c-2.34-1.78-4.69-3.54-7.05-5.29c-0.11-0.08-0.26,0.11-0.15,0.2c2.27,1.89,4.56,3.77,6.85,5.65c-1.21,1.87-2.41,3.75-3.6,5.64
				c-3.7-2.35-7.41-4.68-11.15-6.95c-0.08-0.05-0.15,0.07-0.07,0.12c3.64,2.43,7.3,4.84,10.96,7.25c-1.23,1.97-2.45,3.94-3.67,5.92
				c-1.12-0.79-2.24-1.58-3.36-2.36c0.24-0.39,0.48-0.77,0.72-1.15c0.2-0.33-0.3-0.61-0.52-0.3c-0.25,0.36-0.49,0.72-0.74,1.08
				c-2.72-1.88-5.46-3.72-8.24-5.49c-0.12-0.08-0.26,0.11-0.15,0.2c2.57,2.08,5.19,4.1,7.85,6.08c-1.39,2.04-2.77,4.09-4.14,6.15
				c-1.33-1.03-2.66-2.05-3.99-3.08c0.53-0.78,1.06-1.57,1.59-2.36c0.07-0.1-0.09-0.23-0.17-0.13c-0.61,0.72-1.21,1.46-1.8,2.19
				c-1.44-1.11-2.88-2.22-4.33-3.34c0.12-0.21,0.24-0.42,0.36-0.63c0.11-0.19-0.17-0.43-0.32-0.24c-0.15,0.19-0.28,0.38-0.43,0.57
				c-1.13-0.87-2.26-1.74-3.39-2.61c-0.09-0.07-0.2,0.08-0.12,0.15c1.12,0.89,2.23,1.78,3.35,2.67c-1.1,1.43-2.14,2.92-3.16,4.42
				c-1.99-1.52-4-3.01-6.03-4.48c-0.12-0.09-0.28,0.11-0.16,0.21c1.9,1.64,3.84,3.26,5.78,4.86c-1.33,1.98-2.62,3.98-3.94,5.95
				c-0.09,0.14-0.19,0.28-0.28,0.42c-1.98-1.66-3.97-3.32-5.95-4.97c0.5-0.91,1-1.83,1.48-2.75c0.12-0.22-0.19-0.4-0.33-0.19
				c-0.57,0.83-1.12,1.67-1.67,2.51c-0.45-0.37-0.89-0.75-1.34-1.12c-0.1-0.08-0.25,0.06-0.14,0.14c0.45,0.39,0.9,0.77,1.36,1.16
				c-0.92,1.4-1.82,2.82-2.71,4.25c-1.15-1.17-2.29-2.35-3.43-3.53c0.75-1.1,1.49-2.21,2.2-3.33c0.14-0.22-0.19-0.47-0.36-0.28
				c-0.83,0.97-1.64,1.97-2.45,2.97c-1.02-1.06-2.03-2.13-3.04-3.21c-0.09-0.1-0.23,0.05-0.14,0.14c0.97,1.13,1.95,2.25,2.94,3.36
				c-1.21,1.5-2.39,3.02-3.56,4.56c-1.1-0.99-2.19-1.98-3.29-2.97c0.54-0.69,1.07-1.38,1.6-2.08c0.15-0.19-0.16-0.41-0.33-0.25
				c-0.62,0.6-1.22,1.22-1.81,1.85c-2.06-1.86-4.12-3.72-6.18-5.58c-0.13-0.12-0.33,0.08-0.2,0.2c2.05,1.87,4.09,3.75,6.14,5.62
				c-1.15,1.21-2.26,2.46-3.34,3.74c-1.08-0.83-2.16-1.66-3.25-2.47c0.72-1.06,1.4-2.13,2.03-3.23c0.15-0.27-0.22-0.57-0.43-0.33
				c-0.85,0.94-1.67,1.92-2.48,2.92c-1.12-0.82-2.24-1.64-3.37-2.45c0.02-0.04,0.05-0.07,0.07-0.11c0.13-0.2-0.18-0.44-0.33-0.26
				c-0.03,0.04-0.06,0.08-0.09,0.11c-0.46-0.32-0.91-0.65-1.37-0.98c-0.02-0.02-0.04,0.02-0.02,0.04c0.45,0.33,0.89,0.67,1.34,1.01
				c-0.77,0.92-1.53,1.85-2.27,2.79c-1.09-1.03-2.17-2.06-3.26-3.09c0.57-0.75,1.12-1.52,1.58-2.33c0.13-0.22-0.17-0.44-0.34-0.27
				c-0.65,0.64-1.25,1.33-1.82,2.05c-3.18-3-6.35-6.01-9.53-9.01c-0.12-0.12-0.31,0.07-0.19,0.19c3.16,3.04,6.31,6.09,9.46,9.13
				c-0.6,0.76-1.18,1.55-1.76,2.32c-0.47,0.62-0.95,1.24-1.42,1.86c-3.98-3.63-7.98-7.23-12.03-10.77
				c-0.08-0.07-0.21,0.04-0.12,0.12c3.86,3.78,7.79,7.49,11.75,11.19c-0.73,0.98-1.44,1.98-2.07,3.02
				c-0.07,0.11,0.09,0.24,0.18,0.14c0.85-0.85,1.62-1.77,2.38-2.7c1.11,1.04,2.23,2.08,3.35,3.12c-1,1.33-2,2.66-3,3.99
				c-8.75-8.09-17.31-16.4-25.6-24.96c-0.14-0.15-0.37,0.08-0.23,0.23c8.24,8.66,16.71,17.09,25.43,25.26
				c-0.16,0.21-0.32,0.42-0.47,0.64c-0.54,0.72-1.08,1.43-1.63,2.15c-1.09-0.97-2.18-1.94-3.28-2.91c0.1-0.13,0.21-0.25,0.31-0.38
				c0.32-0.41-0.18-0.95-0.58-0.58c-0.13,0.12-0.26,0.25-0.4,0.38c-3.18-2.82-6.4-5.6-9.7-8.24c0.14-0.24,0.29-0.48,0.42-0.73
				c0.16-0.31-0.25-0.67-0.51-0.39c-0.18,0.2-0.35,0.43-0.53,0.64c-0.45-0.36-0.9-0.72-1.35-1.07c-0.07-0.05-0.15,0.06-0.09,0.11
				c0.41,0.4,0.83,0.79,1.24,1.19c-0.58,0.71-1.14,1.43-1.67,2.19c-2.2-2.06-4.41-4.11-6.61-6.17c1.23-1.93,2.42-3.88,3.44-5.9
				c0.18-0.36-0.3-0.62-0.53-0.31c-1.33,1.75-2.52,3.61-3.68,5.49c-0.61-0.57-1.22-1.14-1.83-1.71c0.61-0.85,1.22-1.7,1.79-2.57
				c0.19-0.28-0.23-0.59-0.46-0.35c-0.72,0.71-1.39,1.47-2.04,2.26c-0.77-0.72-1.54-1.44-2.31-2.15c1.89-2.97,3.76-5.95,5.44-9.03
				c0.18-0.32-0.28-0.57-0.48-0.28c-2.01,2.8-3.84,5.73-5.65,8.67c-1.47-1.36-2.94-2.72-4.41-4.09c1.15-1.52,2.27-3.05,3.28-4.65
				c0.16-0.25-0.19-0.5-0.4-0.31c-1.34,1.28-2.55,2.72-3.67,4.22c-0.91-0.84-1.81-1.68-2.72-2.52c3.01-4.35,6.62-8.23,9.66-12.53
				c0.2-0.29-0.22-0.57-0.46-0.36c-3.81,3.31-6.88,7.73-9.75,11.86c-0.07,0.1-0.14,0.21-0.21,0.32c-0.68-0.63-1.35-1.25-2.03-1.88
				c1.26-1.74,2.49-3.5,3.7-5.27c0.12,0.12,0.24,0.24,0.37,0.36c0.22,0.2,0.57-0.05,0.42-0.32c-0.12-0.21-0.26-0.42-0.39-0.63
				c0.81-1.21,1.62-2.43,2.4-3.67c0.13-0.21-0.19-0.46-0.34-0.27c-0.86,1.06-1.69,2.13-2.52,3.21c-0.77-1.12-1.67-2.19-2.62-3.21
				c0.74-0.92,1.48-1.84,2.21-2.76c3.27-4.1,6.64-8.18,9.6-12.51c0.16-0.23-0.2-0.51-0.39-0.3c-3.53,3.82-6.74,7.97-9.98,12.04
				c-0.73,0.91-1.45,1.83-2.18,2.74c-0.91-0.95-1.84-1.87-2.72-2.76c-0.28-0.29-0.57-0.58-0.85-0.87c0.35-0.46,0.7-0.93,1.06-1.38
				c3.16-4.06,6.92-7.49,10.36-11.29c0.2-0.22-0.07-0.62-0.34-0.44c-4.18,2.9-7.65,7-10.77,10.98c-0.36,0.45-0.7,0.91-1.05,1.38
				c-0.99-1.01-2.02-2.02-3.1-2.96c0.5-0.78,1.01-1.56,1.56-2.31c0.53-0.72,1.08-1.42,1.64-2.11c1.02,0.97,2.06,1.91,3.22,2.66
				c0.3,0.19,0.55-0.22,0.35-0.45c-0.87-1.05-1.93-1.98-3.01-2.87c1.31-1.57,2.68-3.09,4.05-4.59c4.28-4.68,8.97-9.09,12.89-14.09
				c0.21-0.26-0.11-0.6-0.37-0.37c-4.89,4.34-9.27,9.4-13.66,14.24c-1.25,1.38-2.45,2.79-3.6,4.24c-0.43-0.35-0.86-0.7-1.27-1.06
				c-0.39-0.33-0.77-0.67-1.15-1.01c1.18-1.49,2.31-3.02,3.46-4.49c0.51,0.45,1.04,0.87,1.62,1.19c0.28,0.15,0.66-0.17,0.46-0.46
				c-0.4-0.58-0.91-1.08-1.44-1.56c2.4-3.04,4.81-6.07,6.95-9.3c0.15-0.23-0.2-0.5-0.39-0.3c-0.63,0.69-1.25,1.39-1.85,2.1
				c0-0.08-0.03-0.17-0.09-0.23c-0.5-0.58-1.03-1.15-1.58-1.71c1.25-1.34,2.51-2.68,3.76-4.03c4.17-4.48,8.8-8.82,12.45-13.75
				c0.18-0.25-0.2-0.49-0.4-0.31c-4.62,3.98-8.59,8.91-12.73,13.38c-1.25,1.35-2.49,2.7-3.74,4.05c-0.91-0.89-1.86-1.76-2.83-2.61
				c1.8-2.01,3.63-4.01,5.4-6.06c0.07-0.05,0.13-0.11,0.16-0.19c1.11-1.29,2.2-2.59,3.23-3.93c0.15-0.19-0.16-0.41-0.32-0.25
				c-1.13,1.1-2.21,2.25-3.29,3.41c-0.57-0.64-1.32-1.17-1.95-1.73c-0.3-0.27-0.6-0.54-0.9-0.81c2.7-2.67,5.35-5.39,8.03-8.08
				c3.94-3.97,8.2-7.84,11.86-12.1c0.34-0.55,0.69-1.1,1.05-1.63c-0.08-0.06-0.19-0.08-0.3,0.01c-4.71,3.97-8.87,8.77-13.16,13.18
				c-2.65,2.73-5.33,5.43-7.96,8.19c-0.49-0.44-0.98-0.88-1.46-1.33c-0.31-0.28-0.76,0.17-0.46,0.45c0.48,0.46,0.95,0.92,1.43,1.38
				c-1.49,1.57-2.97,3.16-4.41,4.79c-0.08,0.09,0.04,0.22,0.14,0.14c1.6-1.46,3.17-2.97,4.71-4.49c0.2,0.19,0.4,0.38,0.6,0.58
				c0.68,0.67,1.35,1.55,2.14,2.14c-1.74,1.92-3.44,3.88-5.14,5.82c-1.1-0.96-2.21-1.89-3.28-2.82c-0.28-0.24-0.68,0.14-0.41,0.41
				c1,1.03,2.01,2.1,3.04,3.16c-0.08,0.1-0.17,0.19-0.25,0.29c-1.63,1.85-3.27,3.7-4.88,5.57c-1.27,1.46-3.15,2.98-3.47,4.93
				c-0.02,0.12,0.16,0.18,0.19,0.05c0.23-0.97,1.08-1.65,1.74-2.34c0.85-0.89,1.68-1.81,2.51-2.72c1.58-1.73,3.14-3.49,4.7-5.24
				c0.9,0.91,1.81,1.81,2.75,2.67c-0.66,0.72-1.33,1.44-2,2.16c-1.13,1.23-2.36,2.45-3.51,3.72c-0.5-0.42-1.01-0.8-1.56-1.1
				c-0.16-0.09-0.38,0.1-0.26,0.26c0.37,0.52,0.82,0.99,1.29,1.44c-0.66,0.77-1.28,1.57-1.82,2.41c-0.09,0.14,0.09,0.34,0.23,0.23
				c0.8-0.6,1.55-1.28,2.27-2c0.36,0.32,0.71,0.63,1.05,0.95c0.44,0.41,0.87,0.86,1.31,1.3c-1.16,1.47-2.4,2.94-3.56,4.46
				c-1.02-0.89-2.04-1.78-3.06-2.67c-0.28-0.25-0.7,0.16-0.42,0.42c1.03,0.93,2.05,1.85,3.08,2.78c-0.95,1.26-1.83,2.54-2.58,3.89
				c-0.11,0.19,0.14,0.38,0.3,0.23c1.11-1.03,2.13-2.18,3.1-3.37c0.36,0.33,0.72,0.65,1.08,0.97c0.42,0.39,0.84,0.79,1.26,1.19
				c-0.46,0.59-0.91,1.18-1.35,1.77c-0.63,0.86-1.28,1.76-1.89,2.69c-0.84-0.69-1.71-1.34-2.62-1.88c-0.12-0.07-0.22,0.08-0.14,0.18
				c0.72,0.84,1.5,1.63,2.31,2.41c-0.89,1.44-1.67,2.96-2.11,4.53c-0.03,0.11,0.12,0.17,0.18,0.08c0.92-1.29,1.74-2.65,2.57-3.99
				c1.03,0.96,2.08,1.91,3.09,2.87c-1.03,1.41-2.01,2.86-2.94,4.34c-0.77,1.22-1.77,2.63-2.51,4.08c0.18,0.4,0.36,0.8,0.55,1.2
				c0.9-1.37,1.64-2.95,2.46-4.25c1.01-1.58,2.09-3.13,3.2-4.64c0.26,0.26,0.52,0.52,0.78,0.78c0.92,0.95,1.78,1.97,2.64,3
				c-0.77,0.96-1.53,1.93-2.3,2.89c-0.64,0.81-1.4,1.64-2.1,2.5c-0.85-0.78-1.69-1.57-2.54-2.35c-0.06-0.05-0.14,0.03-0.09,0.09
				c0.84,0.8,1.68,1.6,2.51,2.41c-0.74,0.92-1.41,1.89-1.8,2.93c0,0,0,0,0.01,0c-0.04,0.16,0.14,0.35,0.31,0.24
				c0.89-0.59,1.66-1.42,2.37-2.32c1.03,0.99,2.05,1.97,3.08,2.95c-1.19,1.61-2.48,3.24-3.63,4.94c0.37,0.6,0.74,1.21,1.12,1.8
				c0.55,0.53,1.09,1.06,1.64,1.58c-0.08,0.14-0.17,0.27-0.25,0.41c-0.01,0.01-0.01,0.02-0.02,0.03c0.19,0.28,0.38,0.56,0.57,0.83
				c0.13-0.2,0.26-0.41,0.39-0.61c0.84,0.81,1.69,1.62,2.54,2.43c-0.25,0.38-0.49,0.76-0.74,1.14c0.2,0.26,0.39,0.52,0.59,0.78
				c0.28-0.42,0.55-0.85,0.84-1.27c1.58,1.51,3.15,3.02,4.73,4.53c-0.39,0.62-0.78,1.24-1.17,1.86c0.21,0.23,0.41,0.47,0.63,0.7
				c0.4-0.64,0.8-1.29,1.2-1.93c0.66,0.63,1.32,1.26,1.98,1.88c0,0,0,0.01-0.01,0.01c-0.42,0.64-0.85,1.3-1.27,1.96
				c0.23,0.23,0.45,0.46,0.68,0.69c0.33-0.54,0.66-1.08,1.01-1.61c0.09-0.13,0.18-0.26,0.27-0.39c0.73,0.7,1.47,1.4,2.2,2.1
				c-0.42,0.65-0.85,1.3-1.27,1.96c0.25,0.22,0.49,0.46,0.74,0.68c0.4-0.67,0.81-1.34,1.21-2c0.92,0.88,1.85,1.76,2.77,2.64
				c-0.41,0.56-0.8,1.14-1.17,1.72c0.06,0.05,0.12,0.11,0.19,0.16c0.21,0.17,0.43,0.32,0.64,0.49c0.38-0.53,0.77-1.07,1.15-1.6
				c0.96,0.91,1.92,1.82,2.87,2.72c-0.29,0.42-0.57,0.84-0.86,1.26c0.21,0.15,0.43,0.29,0.64,0.44c0.27-0.38,0.54-0.76,0.81-1.14
				c1.06,1,2.11,2,3.17,3c-0.1,0.15-0.21,0.29-0.31,0.44c-0.02,0.03-0.05,0.07-0.07,0.1c0.29,0.18,0.58,0.36,0.87,0.54
				c0.08-0.12,0.17-0.25,0.25-0.37c0.52,0.5,1.05,0.99,1.57,1.49c0.89,0.52,1.79,1.02,2.7,1.51c-1.28-1.21-2.56-2.42-3.84-3.63
				c1.04-1.47,2.16-2.88,3.18-4.36c0.2-0.29-0.22-0.56-0.46-0.35c-1.33,1.17-2.45,2.56-3.47,4.01c-1.06-1-2.11-2-3.17-3
				c0.06-0.09,0.12-0.17,0.18-0.26c1.07-1.5,2.22-2.99,3.31-4.53c2.94,2.79,5.89,5.58,8.84,8.37c-1.07,1.48-2.02,3.07-2.83,4.68
				c0.18,0.1,0.37,0.19,0.55,0.28c0.55-0.88,1.11-1.76,1.72-2.62c0.41-0.58,0.84-1.13,1.27-1.67c1.12,1.05,2.23,2.11,3.35,3.17
				c-0.77,1.02-1.54,2.05-2.3,3.08c0.31,0.14,0.62,0.29,0.94,0.43c0.7-0.93,1.42-1.86,2.11-2.8c0.45,0.42,0.89,0.84,1.34,1.27
				c0.63,0.59,1.25,1.19,1.88,1.78c-0.36,0.51-0.73,1.02-1.09,1.54c0.28,0.11,0.56,0.23,0.84,0.34c0.3-0.42,0.61-0.83,0.92-1.25
				c0.9,0.86,1.8,1.72,2.7,2.58c0.67,0.23,1.33,0.45,2,0.67c-0.23-0.22-0.46-0.44-0.69-0.65c0.65-0.95,1.33-1.89,1.99-2.84
				c1.23,1.11,2.47,2.23,3.71,3.34c-0.34,0.46-0.68,0.93-1.02,1.39c0.27,0.08,0.54,0.16,0.82,0.23c0.27-0.36,0.54-0.72,0.81-1.08
				c0.7,0.63,1.41,1.26,2.11,1.88c0.72,0.19,1.44,0.36,2.16,0.54c-1.22-1.07-2.45-2.14-3.68-3.2c0.61-0.81,1.22-1.62,1.83-2.43
				c1.89,1.67,3.79,3.32,5.7,4.96c-0.27,0.45-0.54,0.9-0.81,1.36c0.37,0.08,0.75,0.16,1.12,0.24c0.17-0.29,0.35-0.58,0.52-0.87
				c0.45,0.39,0.9,0.79,1.35,1.17c0.04,0.03,0.07,0.06,0.11,0.09c0.51,0.1,1.03,0.19,1.54,0.28c-0.37-0.31-0.74-0.61-1.1-0.92
				c-0.5-0.43-0.99-0.87-1.5-1.29c0.79-1.32,1.57-2.64,2.35-3.96c1.53,1.42,3.06,2.83,4.59,4.25c-0.54,0.8-1.07,1.6-1.61,2.39
				c0.38,0.06,0.76,0.11,1.14,0.17c0.41-0.62,0.82-1.24,1.23-1.86c0.71,0.65,1.41,1.31,2.12,1.96c0.15,0.14,0.3,0.28,0.45,0.42
				c0.86,0.11,1.73,0.22,2.59,0.3c0.61-1.01,1.22-2.03,1.83-3.04c1.2,1.16,2.4,2.33,3.6,3.49c0.55,0.03,1.1,0.06,1.66,0.09
				c0.76-1.17,1.52-2.34,2.28-3.51c1.13,1.21,2.25,2.43,3.38,3.64c0.67,0,1.35-0.02,2.02-0.04c0.91-1.47,1.8-2.95,2.69-4.43
				c1.12,1.03,2.24,2.07,3.36,3.1c-0.22,0.36-0.44,0.71-0.65,1.07c0.36-0.03,0.71-0.07,1.07-0.1c0.08-0.12,0.16-0.25,0.23-0.37
				c0.12,0.11,0.23,0.21,0.35,0.32c0.33-0.03,0.67-0.06,1-0.1c-0.32-0.28-0.63-0.57-0.95-0.85c0.83-1.34,1.67-2.67,2.51-4.01
				c0.91,0.75,1.83,1.5,2.76,2.24c0.5,0.4,1,0.8,1.5,1.2c-0.17,0.25-0.34,0.5-0.51,0.75c0.23-0.04,0.46-0.08,0.69-0.12
				c0.07-0.1,0.15-0.21,0.22-0.31c0.09,0.08,0.19,0.15,0.28,0.22c0.41-0.07,0.82-0.14,1.22-0.22c-0.33-0.25-0.66-0.5-0.99-0.75
				c1.12-1.59,2.25-3.18,3.37-4.77c1.53,1.32,3.05,2.65,4.58,3.97c0.36-0.09,0.71-0.18,1.07-0.28c-1.74-1.43-3.48-2.87-5.21-4.3
				c1.6-2.27,3.19-4.54,4.79-6.82c1.71,1.36,3.42,2.73,5.13,4.09c-0.9,1.42-1.8,2.83-2.7,4.25c-0.57,0.9-1.15,1.8-1.73,2.7
				c0.42-0.11,0.83-0.23,1.24-0.35c0.01-0.01,0.01-0.02,0.02-0.03c1.3-2,2.59-4,3.88-6c0.09,0.08,0.19,0.15,0.28,0.23
				c0.84,0.67,1.68,1.35,2.52,2.03c-0.33,0.62-0.65,1.25-0.96,1.88c0.46-0.17,0.92-0.33,1.38-0.5c0.13-0.24,0.26-0.48,0.39-0.72
				c0.15,0.13,0.31,0.25,0.47,0.38c0.41-0.16,0.81-0.32,1.22-0.49c-0.38-0.29-0.75-0.58-1.13-0.87c0.85-1.51,1.71-3.01,2.6-4.49
				c1.27,1,2.54,2.01,3.81,3.01c0.27-0.13,0.54-0.28,0.81-0.41c-1.4-1.09-2.81-2.19-4.21-3.28c1.45-2.39,2.96-4.75,4.52-7.09
				c1.42,1.05,2.85,2.1,4.27,3.15c-1.47,2.35-2.92,4.71-4.34,7.09c0.67-0.34,1.33-0.66,1.99-1.01c1.1-1.79,2.2-3.58,3.32-5.36
				c0.86,0.63,1.73,1.25,2.59,1.88c0.35-0.22,0.7-0.43,1.05-0.66c0.06-0.04,0.12-0.08,0.18-0.13c-1.04-0.74-2.07-1.49-3.11-2.22
				c1.29-2.05,2.58-4.09,3.89-6.13c1.73,1.34,3.44,2.71,5.14,4.09c0.22-0.17,0.43-0.34,0.64-0.51c-1.77-1.43-3.56-2.84-5.37-4.22
				c0.77-1.21,1.56-2.41,2.34-3.61c2.12,1.69,4.25,3.37,6.4,5.03c0.94-0.82,1.87-1.66,2.78-2.52c0.64-0.96,1.29-1.92,1.92-2.88
				c0.2,0.14,0.4,0.29,0.6,0.43c0.23-0.23,0.45-0.47,0.67-0.7c-0.25-0.18-0.5-0.35-0.75-0.53c1.22-1.88,2.43-3.78,3.63-5.68
				c0.53,0.42,1.06,0.83,1.59,1.25c0.23-0.28,0.46-0.57,0.69-0.85c-0.57-0.44-1.14-0.87-1.71-1.31c0.93-1.48,1.86-2.97,2.78-4.46
				c0.72,0.52,1.45,1.03,2.17,1.55c0.19-0.27,0.39-0.53,0.58-0.79C265.19,248.82,264.44,248.28,263.7,247.75z M98.09,206.58
				c-0.48-0.41-0.96-0.86-1.45-1.31c1.17-1.22,2.28-2.53,3.41-3.73c0.68-0.73,1.36-1.46,2.05-2.19c0.61,0.53,1.22,1.05,1.85,1.53
				c0.06,0.05,0.13,0.07,0.19,0.07c-1.76,2.09-3.43,4.24-5.1,6.4C98.71,207.1,98.4,206.84,98.09,206.58z M98.35,235.42
				c0.68-0.87,1.31-1.78,1.95-2.58c0.75-0.93,1.5-1.87,2.25-2.81c0.89,1.06,1.78,2.11,2.74,3.08c-1.11,1.46-2.2,2.94-3.27,4.44
				c-0.18,0.25-0.36,0.5-0.55,0.75C100.43,237.34,99.39,236.38,98.35,235.42z M100.71,246.4c-0.75-0.7-1.5-1.39-2.24-2.08
				c1.25-1.66,2.39-3.43,3.55-5.04c0.01-0.01,0.01-0.02,0.02-0.03c0.67,0.64,1.34,1.28,2.01,1.92
				C102.88,242.87,101.77,244.62,100.71,246.4z M103.98,249.46c-0.86-0.8-1.71-1.6-2.57-2.41c1.1-1.74,2.22-3.47,3.39-5.17
				c0.89,0.85,1.78,1.7,2.67,2.56c-1.01,1.36-1.96,2.77-2.9,4.14C104.37,248.87,104.17,249.16,103.98,249.46z M109.42,254.55
				c-1.58-1.49-3.17-2.97-4.76-4.45c0.11-0.16,0.21-0.32,0.32-0.48c1.04-1.51,2.15-2.97,3.26-4.43c1.46,1.4,2.92,2.8,4.39,4.2
				c-0.69,1.13-1.39,2.26-2.09,3.38C110.17,253.36,109.8,253.95,109.42,254.55z M112.08,257.05c-0.67-0.63-1.33-1.26-2-1.88
				c0.41-0.66,0.82-1.31,1.23-1.96c0.67-1.06,1.34-2.12,2.02-3.17c0.75,0.71,1.49,1.42,2.24,2.13
				C114.31,253.73,113.17,255.39,112.08,257.05z M114.97,259.77c-0.73-0.69-1.46-1.38-2.19-2.06c1.13-1.65,2.33-3.25,3.5-4.86
				c0.62,0.59,1.24,1.18,1.86,1.77c-0.8,1.32-1.6,2.64-2.4,3.94C115.49,258.96,115.23,259.37,114.97,259.77z M122.63,265.81
				c-0.16,0.24-0.33,0.48-0.49,0.72c-0.89-0.84-1.77-1.68-2.66-2.52c-0.07-0.06-0.13-0.12-0.2-0.18c1-1.35,2.01-2.7,3.04-4.05
				c0.23-0.29-0.12-0.67-0.41-0.41c-1.22,1.08-2.39,2.34-3.44,3.69c-0.94-0.89-1.89-1.77-2.83-2.66c0.16-0.26,0.32-0.52,0.48-0.77
				c0.91-1.43,1.85-2.86,2.77-4.29c2.18,2.07,4.36,4.15,6.54,6.22C124.48,262.97,123.57,264.43,122.63,265.81z M269.07,237.37
				c-0.81,1.31-1.62,2.63-2.43,3.94c-2.12-1.4-4.24-2.8-6.37-4.19c-0.06-0.04-0.12-0.08-0.18-0.12c0.97-1.49,1.95-2.98,2.92-4.47
				c0.7,0.48,1.41,0.95,2.11,1.43c1.41,0.98,2.81,1.98,4.21,2.98C269.24,237.09,269.16,237.23,269.07,237.37z M226.96,254.29
				c-1.41,2.04-2.8,4.1-4.2,6.14c-1.82-1.32-3.64-2.64-5.46-3.96c1.27-2.05,2.53-4.1,3.8-6.15
				C223.06,251.63,225.01,252.96,226.96,254.29z M221.41,249.82c1.04-1.68,2.08-3.36,3.11-5.04c1.93,1.56,3.86,3.11,5.79,4.65
				c-1,1.44-2,2.88-2.99,4.33C225.36,252.43,223.39,251.12,221.41,249.82z M222.17,261.3c-1.51,2.2-3.02,4.4-4.52,6.61
				c-1.67-1.3-3.35-2.59-5.02-3.88c0.27-0.43,0.53-0.86,0.8-1.29c1.1-1.78,2.2-3.55,3.29-5.33C218.54,258.7,220.36,260,222.17,261.3
				z M222.98,261.88c0.98,0.7,1.95,1.4,2.92,2.11c0.62,0.45,1.23,0.9,1.84,1.35c-0.69,1.08-1.38,2.16-2.07,3.25
				c-0.79,1.24-1.58,2.48-2.37,3.72c-1.45-1.13-2.91-2.26-4.36-3.4c-0.19-0.14-0.37-0.29-0.56-0.43
				C219.92,266.28,221.45,264.08,222.98,261.88z M227.04,263.51c-1.16-0.82-2.31-1.65-3.46-2.49c1.42-2.04,2.85-4.08,4.27-6.12
				c1.52,1.05,3.04,2.09,4.54,3.16c-1.35,2.12-2.7,4.24-4.06,6.36C227.89,264.12,227.46,263.82,227.04,263.51z M228.21,254.37
				c0.98-1.42,1.96-2.84,2.95-4.27c1.39,1.11,2.79,2.22,4.18,3.33c-0.86,1.35-1.73,2.71-2.59,4.06
				C231.24,256.44,229.73,255.4,228.21,254.37z M231.75,249.25c0.95-1.38,1.91-2.76,2.86-4.14c1.38,1,2.75,2,4.13,3
				c-0.94,1.46-1.87,2.93-2.8,4.39C234.54,251.42,233.14,250.33,231.75,249.25z M234.93,244.63c1.35-1.96,2.69-3.92,4.03-5.88
				c1.34,0.9,2.67,1.81,4,2.73c-1.29,2.02-2.58,4.05-3.88,6.08C237.7,246.58,236.32,245.61,234.93,244.63z M239.42,238.08
				c1.03-1.51,2.07-3.01,3.1-4.53c1.25,0.92,2.51,1.82,3.76,2.74c-0.95,1.49-1.91,2.99-2.86,4.48
				C242.09,239.86,240.76,238.97,239.42,238.08z M243.5,242.68c0.12-0.19,0.25-0.38,0.37-0.58c2.07,1.44,4.13,2.89,6.16,4.38
				c0.57,0.42,1.13,0.85,1.7,1.28c-1.3,1.99-2.61,3.98-3.92,5.97c-0.25-0.18-0.5-0.36-0.75-0.53c-2.36-1.68-4.73-3.35-7.09-5.02
				C241.14,246.35,242.33,244.52,243.5,242.68z M251.02,246.15c-2.21-1.6-4.44-3.19-6.7-4.75c0.95-1.48,1.9-2.96,2.85-4.45
				c2.62,1.92,5.24,3.84,7.86,5.75c-0.29,0.45-0.58,0.9-0.87,1.34c-0.64,0.99-1.3,1.99-1.95,2.98
				C251.82,246.73,251.42,246.44,251.02,246.15z M247.52,236.42c1.03-1.61,2.07-3.22,3.1-4.83c2.69,1.83,5.38,3.66,8.07,5.48
				c-1.06,1.64-2.12,3.28-3.19,4.92C252.84,240.13,250.18,238.27,247.52,236.42z M250.96,231.05c0.98-1.52,1.95-3.04,2.93-4.56
				c2.74,1.76,5.46,3.56,8.16,5.39c-0.97,1.5-1.94,3-2.91,4.5C256.41,234.6,253.69,232.82,250.96,231.05z M268.01,222.68
				c-0.84,1.3-1.68,2.6-2.53,3.9c-1.01-0.64-2.02-1.28-3.03-1.91c0.83-1.36,1.66-2.73,2.49-4.09
				C265.97,221.27,266.99,221.98,268.01,222.68z M265.23,220.11c0.63-1.03,1.26-2.06,1.9-3.09c1.05,0.73,2.09,1.46,3.14,2.19
				c-0.65,0.99-1.29,1.98-1.94,2.98C267.3,221.49,266.27,220.8,265.23,220.11z M262.29,224.56c-1.15-0.73-2.3-1.46-3.45-2.18
				c-0.55-0.34-1.09-0.7-1.64-1.06c0.9-1.4,1.8-2.81,2.7-4.21c1.58,1.09,3.16,2.17,4.74,3.26
				C263.86,221.76,263.08,223.16,262.29,224.56z M257.24,222.2c1.56,1.02,3.11,2.03,4.67,3.05c-0.14,0.25-0.28,0.51-0.42,0.76
				c-0.04,0.07,0.07,0.14,0.11,0.06c0.15-0.24,0.3-0.49,0.45-0.73c0.99,0.65,1.99,1.3,2.98,1.95c-0.87,1.34-1.74,2.68-2.6,4.02
				c-2.72-1.8-5.46-3.57-8.23-5.28c0.88-1.36,1.75-2.73,2.62-4.09C256.95,222.02,257.1,222.11,257.24,222.2z M269.74,236.3
				c-1.22-0.86-2.44-1.73-3.67-2.57c-0.88-0.6-1.78-1.18-2.67-1.78c0.88-1.34,1.75-2.68,2.62-4.01c0.38,0.24,0.75,0.49,1.12,0.73
				c1.74,1.13,3.47,2.27,5.2,3.42C271.48,233.49,270.61,234.89,269.74,236.3z M272.87,231.23c-1.56-0.97-3.12-1.95-4.66-2.93
				c-0.57-0.36-1.15-0.73-1.72-1.09c0.84-1.28,1.68-2.57,2.52-3.85c0.29,0.2,0.59,0.4,0.88,0.61c1.74,1.19,3.48,2.43,5.22,3.67
				C274.36,228.84,273.62,230.04,272.87,231.23z M277.28,224.15c-0.58,0.93-1.16,1.86-1.74,2.79c-1.59-1.03-3.17-2.05-4.72-3.09
				c-0.49-0.33-0.99-0.66-1.48-0.99c0.64-0.99,1.28-1.97,1.92-2.96c0.06,0.04,0.11,0.08,0.17,0.12
				C273.39,221.37,275.33,222.76,277.28,224.15z M270.59,218.72c-1.06-0.71-2.13-1.42-3.19-2.13c0.84-1.38,1.69-2.75,2.53-4.13
				c1.1,0.74,2.19,1.49,3.29,2.23C272.33,216.03,271.46,217.38,270.59,218.72z M273.57,214.13c-1.12-0.72-2.23-1.45-3.35-2.17
				c0.98-1.59,1.94-3.2,2.91-4.79c0.26,0.16,0.53,0.31,0.79,0.47c0.93,0.56,1.86,1.13,2.8,1.71
				C275.67,210.94,274.62,212.53,273.57,214.13z M274.7,202.34c-0.7,1.23-1.38,2.46-2.07,3.69c-1.38-0.82-2.77-1.65-4.15-2.46
				c0.73-1.16,1.46-2.31,2.18-3.47C272.01,200.83,273.36,201.57,274.7,202.34z M270.92,199.68c0.82-1.31,1.63-2.64,2.45-3.95
				c1.27,0.78,2.53,1.56,3.78,2.36c-0.72,1.24-1.44,2.48-2.15,3.72C273.65,201.08,272.29,200.37,270.92,199.68z M277.16,208.68
				c-0.75-0.43-1.49-0.85-2.23-1.28c-0.47-0.28-0.95-0.56-1.42-0.83c0.73-1.2,1.47-2.4,2.2-3.61c1.09,0.64,2.17,1.28,3.24,1.96
				c0.16,0.1,0.32,0.21,0.49,0.32C278.68,206.37,277.92,207.52,277.16,208.68z M282.04,201.31c-0.73,1.1-1.47,2.2-2.2,3.31
				c-1.25-0.77-2.52-1.5-3.8-2.22c0.73-1.21,1.43-2.43,2.15-3.64c0.07,0.05,0.14,0.09,0.22,0.14
				C279.63,199.68,280.84,200.49,282.04,201.31z M279.65,193.77c-0.72,1.22-1.41,2.45-2.12,3.67c-1.26-0.78-2.53-1.54-3.81-2.28
				c0.75-1.21,1.5-2.42,2.25-3.63C277.19,192.28,278.42,193.03,279.65,193.77z M276.95,185.98c0.5,0.24,1,0.49,1.5,0.74
				c-0.83,1.24-1.66,2.47-2.48,3.71c-1.17-0.69-2.34-1.38-3.51-2.07c0.56-0.91,1.12-1.82,1.67-2.73c0.15-0.25,0.3-0.49,0.45-0.74
				C275.38,185.25,276.17,185.61,276.95,185.98z M274.32,183.74c-1.5-0.7-3.02-1.39-4.56-2.04c0.9-1.66,1.81-3.31,2.74-4.96
				c1.54,0.75,3.07,1.55,4.58,2.37C276.16,180.66,275.24,182.2,274.32,183.74z M277.29,173.08c0.85,0.49,1.69,1,2.54,1.5
				c-0.77,1.24-1.53,2.49-2.28,3.75c-1.53-0.8-3.09-1.56-4.66-2.28c0.78-1.37,1.58-2.74,2.4-4.1
				C275.96,172.32,276.63,172.7,277.29,173.08z M277.27,166.81c-0.68,1.11-1.36,2.21-2.02,3.33c-0.12,0.2-0.23,0.41-0.35,0.61
				c-1.33-0.74-2.66-1.48-4.01-2.21c0.45-0.79,0.9-1.59,1.37-2.37c0.3-0.49,0.6-0.98,0.91-1.47
				C274.54,165.4,275.9,166.1,277.27,166.81z M270.97,158.71c0.07-0.13,0.15-0.27,0.22-0.4c1.01,0.51,2.02,1.02,3.03,1.53
				c0.16,0.08,0.32,0.17,0.49,0.25c-0.7,1.11-1.38,2.23-2.02,3.35c-1.12-0.55-2.23-1.1-3.35-1.64
				C269.87,160.77,270.41,159.74,270.97,158.71z M266.94,166.49c0.68-1.32,1.36-2.64,2.03-3.96c1.09,0.56,2.18,1.12,3.27,1.69
				c-0.28,0.49-0.56,0.97-0.83,1.45c-0.46,0.81-0.89,1.62-1.32,2.44C269.05,167.55,268,167.01,266.94,166.49z M270.47,169.26
				c1.34,0.74,2.67,1.48,4,2.22c-0.81,1.39-1.61,2.78-2.39,4.19c-1.37-0.61-2.76-1.19-4.15-1.75
				C268.75,172.36,269.6,170.81,270.47,169.26z M265.03,179.91c0.83-1.82,1.7-3.62,2.61-5.39c1.37,0.59,2.73,1.2,4.07,1.84
				c-0.92,1.67-1.8,3.36-2.67,5.05C267.72,180.86,266.38,180.35,265.03,179.91z M267.87,185.65c-0.07-0.04-0.14-0.06-0.21-0.06
				c0.54-1,1.08-2,1.62-3c1.52,0.66,3.04,1.3,4.55,1.97c-0.13,0.22-0.26,0.44-0.4,0.67c-0.55,0.91-1.08,1.83-1.63,2.75
				C270.5,187.2,269.18,186.42,267.87,185.65z M271.99,189.13c1.15,0.7,2.3,1.4,3.45,2.09c-0.79,1.19-1.57,2.38-2.36,3.57
				c-0.06-0.03-0.12-0.07-0.18-0.11c-1.06-0.6-2.12-1.25-3.21-1.86C270.46,191.59,271.23,190.37,271.99,189.13z M269.37,193.35
				c0.88,0.51,1.75,1.02,2.62,1.54c0.25,0.15,0.49,0.3,0.73,0.45c-0.87,1.32-1.75,2.63-2.61,3.95c-1.13-0.55-2.28-1.09-3.43-1.61
				C267.58,196.24,268.47,194.79,269.37,193.35z M264.42,201.24c0.69-1.08,1.38-2.17,2.06-3.25c1.13,0.55,2.26,1.11,3.37,1.69
				c-0.74,1.13-1.48,2.27-2.21,3.4C266.57,202.46,265.5,201.84,264.42,201.24z M268.09,204.18c1.4,0.83,2.8,1.65,4.19,2.48
				c-0.91,1.62-1.82,3.24-2.73,4.87c-1.44-0.93-2.88-1.87-4.32-2.8C266.18,207.21,267.13,205.7,268.09,204.18z M264.99,209.1
				c1.43,0.97,2.86,1.94,4.29,2.91c-0.79,1.42-1.58,2.83-2.36,4.25c-1.52-1.01-3.03-2.03-4.55-3.04
				C263.24,211.86,264.11,210.48,264.99,209.1z M262.16,213.55c1.5,1.05,3.01,2.1,4.52,3.15c-0.59,1.06-1.18,2.13-1.77,3.19
				c-1.58-1.06-3.16-2.13-4.75-3.18C260.82,215.66,261.49,214.6,262.16,213.55z M257.98,210.64c1.09,0.76,2.18,1.52,3.28,2.28
				c-0.68,1.05-1.36,2.11-2.04,3.16c-1.13-0.75-2.26-1.48-3.4-2.22C256.54,212.79,257.26,211.71,257.98,210.64z M255.65,214.12
				c1.11,0.78,2.22,1.56,3.33,2.34c-0.91,1.41-1.81,2.82-2.71,4.23c-1.15-0.77-2.32-1.55-3.5-2.28
				C253.72,216.98,254.69,215.55,255.65,214.12z M252.31,219.08c1.17,0.77,2.37,1.5,3.55,2.24c-0.88,1.37-1.76,2.74-2.63,4.11
				c-1.22-0.75-2.47-1.47-3.7-2.2C250.46,221.84,251.38,220.46,252.31,219.08z M249.28,223.59c1.22,0.76,2.45,1.51,3.66,2.28
				c-0.97,1.52-1.95,3.05-2.92,4.57c-1.25-0.81-2.5-1.62-3.75-2.42C247.28,226.54,248.28,225.07,249.28,223.59z M246,228.43
				c1.23,0.84,2.46,1.69,3.7,2.53c-1.03,1.61-2.06,3.22-3.09,4.83c-1.27-0.88-2.53-1.77-3.8-2.66
				C243.88,231.57,244.93,230,246,228.43z M237.83,222.83c2.48,1.71,4.96,3.41,7.44,5.11c-1.09,1.55-2.18,3.09-3.26,4.64
				c-2.32-1.62-4.65-3.24-6.96-4.87C236,226.09,236.93,224.47,237.83,222.83z M234.88,227.99c2.29,1.65,4.57,3.32,6.85,4.99
				c-1.06,1.51-2.1,3.03-3.16,4.54c-2.26-1.48-4.54-2.93-6.85-4.32C232.79,231.47,233.85,229.73,234.88,227.99z M231.4,233.72
				c2.25,1.48,4.48,2.96,6.71,4.46c-1.35,1.94-2.71,3.89-4.06,5.84c-2.1-1.48-4.2-2.96-6.31-4.44
				C228.96,237.62,230.19,235.67,231.4,233.72z M227.51,239.95c2.07,1.51,4.15,3.02,6.22,4.52c-0.95,1.37-1.89,2.74-2.84,4.11
				c-1.97-1.52-3.94-3.04-5.91-4.55c0.34-0.55,0.68-1.1,1.02-1.65C226.5,241.57,227.01,240.76,227.51,239.95z M222.37,236.23
				c0.01-0.01,0-0.02,0-0.03c1.42,1.03,2.83,2.07,4.25,3.1c-0.39,0.63-0.77,1.26-1.16,1.89c-0.45,0.72-0.89,1.45-1.34,2.18
				c-1.34-1.03-2.68-2.05-4.03-3.07C220.86,238.95,221.62,237.6,222.37,236.23z M219.76,240.91c1.3,1.06,2.61,2.13,3.92,3.19
				c-1.06,1.71-2.11,3.42-3.17,5.13c-1.34-0.88-2.7-1.73-4.05-2.59C217.57,244.73,218.67,242.82,219.76,240.91z M216.2,247.08
				c1.33,0.88,2.67,1.76,4,2.64c-1.26,2.04-2.52,4.08-3.78,6.12c-1.26-0.91-2.53-1.83-3.8-2.73
				C213.82,251.11,215.02,249.1,216.2,247.08z M212.07,254.05c1.26,0.91,2.52,1.82,3.78,2.73c-0.98,1.59-1.97,3.18-2.95,4.78
				c-0.37,0.6-0.74,1.21-1.11,1.81c-1.21-0.94-2.43-1.88-3.64-2.82C209.46,258.39,210.76,256.22,212.07,254.05z M171.55,270.8
				c0.71,0.66,1.42,1.31,2.12,1.98c0.96,0.9,1.9,1.82,2.83,2.75c-0.93,1.39-1.86,2.78-2.8,4.17c-1.6-1.51-3.2-3.01-4.79-4.52
				C169.79,273.72,170.67,272.26,171.55,270.8z M168.15,274.46c-0.3-0.29-0.6-0.57-0.91-0.85c-1.25-1.18-2.5-2.36-3.74-3.55
				c0.98-1.28,1.96-2.57,2.93-3.86c1.46,1.28,2.9,2.57,4.33,3.88C169.9,271.54,169.02,273,168.15,274.46z M174.26,272.19
				c-0.76-0.7-1.52-1.39-2.29-2.07c0.76-1.26,1.53-2.51,2.29-3.77c1.73,1.59,3.47,3.18,5.2,4.76c-0.61,0.92-1.22,1.83-1.83,2.74
				c-0.2,0.3-0.41,0.61-0.61,0.91C176.1,273.9,175.18,273.04,174.26,272.19z M177.99,274.93c0.71-1.07,1.42-2.14,2.13-3.21
				c1.11,1.02,2.22,2.04,3.34,3.06c-0.83,1.26-1.68,2.52-2.52,3.79c-1.08-1.07-2.16-2.12-3.26-3.17
				C177.78,275.24,177.88,275.09,177.99,274.93z M180.39,271.32c0.86-1.3,1.73-2.6,2.59-3.9c1.08,1.06,2.18,2.11,3.28,3.16
				c-0.84,1.26-1.68,2.52-2.51,3.77C182.62,273.34,181.51,272.33,180.39,271.32z M186.88,271.17c1.4,1.32,2.81,2.63,4.24,3.92
				c-0.57,0.89-1.14,1.78-1.72,2.66c-0.23,0.36-0.47,0.72-0.7,1.08c-0.36-0.33-0.73-0.65-1.09-0.98c-1.08-0.98-2.16-1.95-3.24-2.93
				C185.2,273.66,186.04,272.41,186.88,271.17z M187.3,270.54c1.12-1.64,2.25-3.28,3.39-4.9c1.4,1.2,2.8,2.4,4.2,3.6
				c-1.11,1.73-2.22,3.45-3.34,5.17C190.12,273.14,188.7,271.85,187.3,270.54z M190.93,265.3c1.48-2.11,2.96-4.22,4.43-6.33
				c1.36,1.08,2.72,2.16,4.08,3.24c-1.43,2.2-2.86,4.41-4.28,6.62C193.74,267.66,192.34,266.48,190.93,265.3z M195.59,269.84
				c1.2,1.03,2.4,2.06,3.6,3.09c-1.08,1.78-2.14,3.56-3.21,5.34c-1.27-1.08-2.53-2.18-3.78-3.28
				C193.33,273.28,194.46,271.56,195.59,269.84z M195.86,269.43c1.45-2.2,2.89-4.41,4.33-6.62c1.16,0.92,2.32,1.83,3.48,2.75
				c-0.06,0.1-0.13,0.21-0.19,0.31c-1.33,2.19-2.67,4.39-4,6.58C198.27,271.44,197.07,270.43,195.86,269.43z M204.55,266.5
				c0.03-0.06,0.07-0.11,0.1-0.17c1.2,0.95,2.39,1.89,3.58,2.84c-1.43,2.33-2.87,4.67-4.3,7c-1.16-0.97-2.32-1.94-3.48-2.91
				C201.82,271.01,203.18,268.75,204.55,266.5z M205.11,265.57c0.92-1.52,1.84-3.04,2.76-4.56c1.2,0.96,2.41,1.91,3.61,2.87
				c-0.93,1.5-1.85,3.01-2.77,4.52C207.5,267.46,206.3,266.52,205.11,265.57z M207.78,250.91c1.1,0.82,2.21,1.63,3.32,2.44
				c-1.32,2.15-2.63,4.3-3.93,6.45c-1.12-0.86-2.23-1.73-3.35-2.59C205.16,255.11,206.48,253.01,207.78,250.91z M203.56,257.6
				c1.11,0.88,2.22,1.77,3.33,2.65c-0.92,1.52-1.84,3.04-2.77,4.55c-1.15-0.91-2.3-1.82-3.46-2.74
				C201.64,260.58,202.61,259.09,203.56,257.6z M198.89,253.87c1.32,1.05,2.63,2.1,3.95,3.15c-0.98,1.48-1.95,2.96-2.91,4.45
				c-1.36-1.07-2.71-2.14-4.07-3.21C196.87,256.8,197.89,255.34,198.89,253.87z M194.25,250.17c1.41,1.13,2.82,2.25,4.23,3.38
				c-1.11,1.38-2.2,2.8-3.27,4.23c-1.27-0.99-2.55-1.98-3.83-2.96C192.38,253.28,193.35,251.74,194.25,250.17z M190.98,255.44
				c1.24,1.01,2.48,2.01,3.72,3.01c-1.53,2.06-3.02,4.15-4.48,6.27c-1.17-0.98-2.33-1.95-3.5-2.93
				C188.13,259.68,189.58,257.57,190.98,255.44z M186.25,262.48c0.09-0.14,0.18-0.27,0.27-0.41c1.15,0.99,2.31,1.98,3.47,2.97
				c-1.12,1.63-2.23,3.27-3.33,4.91c-1.11-1.03-2.21-2.08-3.3-3.13C184.33,265.38,185.3,263.93,186.25,262.48z M179.98,256.45
				c1.96,1.68,3.92,3.36,5.88,5.04c-1.05,1.57-2.09,3.14-3.13,4.7c-1.78-1.73-3.55-3.48-5.29-5.24
				C178.3,259.46,179.15,257.96,179.98,256.45z M177.13,261.47c1.71,1.8,3.44,3.57,5.21,5.31c-0.87,1.31-1.75,2.62-2.62,3.93
				c-1.75-1.58-3.5-3.16-5.25-4.74C175.37,264.48,176.26,262.98,177.13,261.47z M173.07,257.06c1.11,1.23,2.23,2.45,3.36,3.66
				c-0.93,1.5-1.86,3.01-2.77,4.52l-3.89-3.52C170.89,260.18,171.99,258.63,173.07,257.06z M169.54,262.04
				c1.3,1.19,2.6,2.38,3.9,3.57c-0.76,1.27-1.52,2.54-2.28,3.81c-1.43-1.26-2.89-2.5-4.36-3.71
				C167.73,264.49,168.64,263.27,169.54,262.04z M165.39,258.23c1.09,1,2.18,2,3.28,3c-0.93,1.24-1.85,2.48-2.76,3.73
				c-1.18-0.97-2.38-1.92-3.59-2.86C163.35,260.82,164.38,259.53,165.39,258.23z M162.06,262.44c1.18,0.99,2.35,1.98,3.51,2.99
				c-0.95,1.3-1.89,2.6-2.83,3.9c-1.18-1.11-2.35-2.23-3.53-3.34C160.16,264.81,161.11,263.63,162.06,262.44z M152.42,267.05
				c0.5-0.69,1.01-1.39,1.51-2.08c0.47-0.65,0.95-1.29,1.42-1.94c0.9,0.87,1.81,1.75,2.72,2.62c-1.01,1.28-1.99,2.58-2.96,3.88
				C154.22,268.7,153.32,267.87,152.42,267.05z M154.66,270.14c-0.73,0.99-1.46,1.97-2.18,2.96c-0.25,0.34-0.48,0.69-0.73,1.03
				c-0.88-0.79-1.77-1.57-2.64-2.36c-0.02-0.02-0.05-0.04-0.07-0.07c0.98-1.35,1.96-2.69,2.94-4.04
				C152.88,268.48,153.77,269.31,154.66,270.14z M158.88,266.41c1.17,1.13,2.35,2.26,3.52,3.39c-0.93,1.29-1.87,2.57-2.8,3.85
				c-1.24-1.14-2.48-2.28-3.71-3.43C156.87,268.95,157.87,267.68,158.88,266.41z M158.1,259.2c1.05,0.84,2.1,1.69,3.14,2.55
				c-0.96,1.14-1.9,2.3-2.83,3.47c-0.92-0.87-1.83-1.74-2.75-2.6C156.49,261.49,157.31,260.36,158.1,259.2z M153.93,255.97
				c1.1,0.84,2.2,1.68,3.29,2.54c-0.85,1.06-1.67,2.14-2.48,3.24c-0.97-0.91-1.93-1.83-2.9-2.74
				C152.55,258.01,153.25,256.99,153.93,255.97z M151.59,259.39c0.96,0.92,1.91,1.84,2.87,2.77c-0.98,1.35-1.94,2.72-2.9,4.1
				c-0.99-0.91-1.97-1.82-2.96-2.73C149.61,262.15,150.61,260.78,151.59,259.39z M144.55,259.81c0.5-0.63,0.99-1.25,1.49-1.87
				c0.59-0.73,1.19-1.45,1.76-2.2c1.07,1.04,2.15,2.07,3.23,3.11c-1.06,1.33-2.1,2.68-3.13,4.04
				C146.79,261.86,145.67,260.84,144.55,259.81z M148.16,264.12c0.99,0.92,1.98,1.83,2.97,2.75c-0.95,1.38-1.9,2.76-2.85,4.12
				c-1.04-0.95-2.07-1.91-3.1-2.87C146.18,266.79,147.17,265.46,148.16,264.12z M143.53,270.31c0.41-0.55,0.83-1.11,1.24-1.66
				c1.03,0.97,2.06,1.94,3.1,2.9c-0.32,0.45-0.64,0.91-0.96,1.35c-0.33,0.46-0.65,0.91-0.98,1.37c-1.08-0.95-2.16-1.9-3.24-2.85
				C142.98,271.06,143.25,270.68,143.53,270.31z M135.53,270.06c-2.96-2.78-5.92-5.56-8.89-8.34c0.53-0.77,1.02-1.55,1.48-2.35
				c2.6,2.44,5.35,4.75,8,7.12c0.47,0.42,0.93,0.83,1.4,1.25C136.83,268.46,136.16,269.24,135.53,270.06z M139.61,273.89
				c-1.11-1.04-2.22-2.08-3.33-3.13c0.66-0.79,1.32-1.57,1.97-2.37c1.1,0.98,2.19,1.96,3.29,2.94
				C140.9,272.18,140.26,273.03,139.61,273.89z M143.58,277.6c-0.42-0.39-0.83-0.77-1.25-1.16c-0.66-0.62-1.31-1.23-1.97-1.85
				c0.64-0.87,1.28-1.73,1.92-2.59c1.08,0.96,2.15,1.92,3.23,2.88C144.87,275.79,144.22,276.69,143.58,277.6z M147.1,280.88
				c-0.95-0.88-1.9-1.77-2.84-2.65c0.66-0.9,1.32-1.8,1.99-2.71c0.12,0.1,0.23,0.21,0.35,0.31c0.81,0.72,1.62,1.45,2.43,2.17
				C148.38,278.97,147.74,279.92,147.1,280.88z M149.49,277.35c-0.94-0.81-1.88-1.61-2.81-2.42c0.22-0.3,0.44-0.6,0.67-0.91
				c0.43-0.59,0.85-1.17,1.28-1.76c0.9,0.82,1.81,1.63,2.71,2.44C150.72,275.58,150.1,276.47,149.49,277.35z M154.03,281.24
				c-1.27-1.08-2.53-2.16-3.8-3.24c0.61-0.87,1.21-1.76,1.84-2.63c1.26,1.13,2.51,2.28,3.77,3.4
				C155.24,279.59,154.64,280.42,154.03,281.24z M156.28,278.17c-1.27-1.12-2.53-2.26-3.79-3.39c0.15-0.21,0.3-0.42,0.45-0.63
				c0.81-1.12,1.64-2.22,2.48-3.31c1.24,1.15,2.48,2.29,3.72,3.44C158.19,275.57,157.24,276.87,156.28,278.17z M162.59,283.64
				c-1.89-1.62-3.78-3.24-5.65-4.89c0.75-1.01,1.51-2.01,2.27-3.02c0.21-0.28,0.42-0.55,0.63-0.83c1.72,1.6,3.45,3.19,5.17,4.78
				C164.19,281.01,163.39,282.32,162.59,283.64z M165.4,279.01c-1.71-1.57-3.41-3.15-5.12-4.71c0.95-1.26,1.9-2.51,2.86-3.77
				c1.22,1.17,2.43,2.35,3.65,3.52c0.34,0.32,0.67,0.65,1.01,0.98c-0.05,0.09-0.11,0.18-0.16,0.27
				C166.91,276.54,166.16,277.78,165.4,279.01z M170.81,283.99c-1.54-1.42-3.09-2.85-4.63-4.27c0.78-1.31,1.56-2.62,2.34-3.92
				c0.01-0.02,0.02-0.04,0.04-0.06c1.58,1.52,3.15,3.04,4.72,4.57C172.45,281.54,171.64,282.77,170.81,283.99z M174.98,287.84
				c-0.21-0.19-0.42-0.38-0.63-0.58c-0.93-0.86-1.86-1.71-2.79-2.57c0.81-1.23,1.62-2.45,2.43-3.68c1.09,1.06,2.19,2.12,3.28,3.18
				C176.5,285.39,175.73,286.61,174.98,287.84z M177.72,283.48c-1.1-1.04-2.2-2.08-3.31-3.12c0.91-1.4,1.83-2.79,2.75-4.17
				c1.08,1.08,2.14,2.16,3.2,3.26C179.47,280.79,178.59,282.13,177.72,283.48z M182.64,288.11c-1.36-1.29-2.72-2.57-4.08-3.85
				c0.83-1.37,1.66-2.74,2.5-4.1c1.34,1.41,2.67,2.83,4,4.26C184.24,285.65,183.44,286.88,182.64,288.11z M181.62,279.24
				c0.79-1.27,1.58-2.53,2.39-3.78c0.02-0.04,0.05-0.07,0.07-0.11c1.05,0.96,2.09,1.92,3.14,2.88c0.39,0.36,0.78,0.72,1.17,1.07
				c-0.9,1.39-1.81,2.78-2.72,4.16C184.35,282.03,183,280.62,181.62,279.24z M189.91,288.33c-1.18-1.43-2.4-2.84-3.65-4.22
				c0.91-1.41,1.83-2.83,2.75-4.24c1.29,1.19,2.58,2.38,3.87,3.57C191.89,285.06,190.89,286.69,189.91,288.33z M193.22,282.88
				c-1.3-1.16-2.6-2.33-3.89-3.49c0.27-0.41,0.53-0.82,0.8-1.22c0.55-0.83,1.1-1.67,1.64-2.5c1.25,1.12,2.52,2.23,3.79,3.33
				c-0.32,0.53-0.64,1.06-0.96,1.59C194.14,281.35,193.68,282.11,193.22,282.88z M197.49,286.71c-1.13-1.02-2.27-2.03-3.4-3.05
				c0.37-0.62,0.75-1.23,1.13-1.84c0.42-0.68,0.83-1.36,1.25-2.04c1.15,0.98,2.3,1.96,3.47,2.92
				C199.12,284.03,198.3,285.37,197.49,286.71z M200.39,281.95c0,0.01-0.01,0.01-0.01,0.02c-1.17-0.96-2.33-1.93-3.48-2.9
				c1.09-1.77,2.17-3.53,3.25-5.3c1.15,0.99,2.3,1.97,3.45,2.96C202.53,278.46,201.46,280.2,200.39,281.95z M205.41,285.98
				c-0.46-0.36-0.93-0.71-1.38-1.07c-0.98-0.78-1.95-1.56-2.92-2.35c1.08-1.74,2.16-3.47,3.24-5.21c0.43,0.37,0.87,0.75,1.3,1.12
				c1.02,0.87,2.04,1.75,3.05,2.63C207.6,282.73,206.5,284.35,205.41,285.98z M209.11,280.49c-1-0.83-2-1.66-2.99-2.49
				c-0.48-0.4-0.95-0.8-1.43-1.2c1.45-2.33,2.9-4.66,4.35-6.99c1.58,1.27,3.17,2.53,4.75,3.79
				C212.22,275.9,210.66,278.19,209.11,280.49z M214.32,272.81c-1.6-1.26-3.21-2.52-4.81-3.77c0.93-1.5,1.86-2.99,2.79-4.49
				c1.65,1.31,3.3,2.62,4.95,3.94C216.28,269.92,215.3,271.37,214.32,272.81z M220.1,277.34c-1.71-1.34-3.42-2.68-5.12-4.02
				c1-1.42,2-2.85,3-4.27c0.35,0.27,0.69,0.55,1.04,0.82c1.29,1.02,2.59,2.04,3.88,3.06C221.96,274.41,221.03,275.87,220.1,277.34z
				 M223.59,280.06c-0.77-0.59-1.54-1.19-2.31-1.79c-0.15-0.12-0.31-0.24-0.46-0.36c0.94-1.46,1.89-2.91,2.83-4.37
				c0.83,0.66,1.67,1.32,2.5,1.97C225.26,277,224.41,278.53,223.59,280.06z M226.56,274.84c-0.83-0.65-1.66-1.29-2.49-1.94
				c0.42-0.65,0.83-1.29,1.25-1.93c1.08-1.68,2.16-3.36,3.24-5.04c0.9,0.66,1.79,1.32,2.69,1.98
				C229.59,270.15,228.02,272.45,226.56,274.84z M236.94,270.49c-1.44-1.01-2.88-2.02-4.31-3.03c0.84-1.25,1.7-2.5,2.57-3.74
				c0.17-0.24-0.22-0.53-0.4-0.31c-0.98,1.16-1.93,2.36-2.85,3.58c-0.93-0.66-1.87-1.31-2.8-1.97c1.36-2.11,2.72-4.23,4.07-6.34
				c0.75,0.54,1.5,1.07,2.25,1.61c1.82,1.32,3.61,2.68,5.4,4.05C239.55,266.37,238.24,268.43,236.94,270.49z M241.28,263.7
				c-1.63-1.22-3.26-2.44-4.91-3.63c-0.92-0.66-1.85-1.32-2.78-1.98c0.86-1.33,1.71-2.67,2.57-4c2.5,1.99,4.99,3.99,7.49,5.98
				C242.86,261.29,242.07,262.49,241.28,263.7z M244.34,259.03c-2.51-1.95-5.03-3.89-7.53-5.84c-0.01-0.01-0.03-0.02-0.04-0.03
				c0.95-1.47,1.89-2.94,2.84-4.41c2.15,1.56,4.3,3.13,6.46,4.69c0.44,0.32,0.88,0.64,1.32,0.96
				C246.37,255.93,245.36,257.48,244.34,259.03z M251.81,264.9c-2.17-1.74-4.36-3.45-6.55-5.16c1.01-1.56,2.02-3.13,3.03-4.69
				c2.24,1.63,4.48,3.27,6.72,4.9C253.96,261.61,252.89,263.26,251.81,264.9z M255.52,259.16c-2.26-1.59-4.53-3.18-6.79-4.78
				c1.29-1.99,2.59-3.97,3.89-5.96c2.19,1.64,4.37,3.3,6.52,4.99C257.94,255.34,256.74,257.25,255.52,259.16z M259.7,252.52
				c-2.19-1.65-4.39-3.26-6.58-4.85c0.67-1.02,1.34-2.05,2-3.07c0.27-0.42,0.54-0.83,0.82-1.25c2.17,1.58,4.34,3.16,6.52,4.72
				C261.54,249.56,260.62,251.04,259.7,252.52z M262.98,247.24c-2.18-1.55-4.37-3.08-6.56-4.62c1.07-1.64,2.15-3.28,3.22-4.92
				c2.17,1.47,4.35,2.93,6.52,4.39C265.1,243.81,264.04,245.52,262.98,247.24z"/>
			<path class="st4" d="M196.51,127.65c-0.01,0.05,0.05,0.08,0.08,0.03c1.19-1.84,1.94-4.01,2.78-6.03
				c0.92-2.21,2.22-4.58,2.71-6.96c0.07,0.01,0.15,0.03,0.22,0.04c0.33,0.06,0.56-0.39,0.24-0.56c-0.06-0.03-0.12-0.07-0.18-0.1
				c-0.38,0.22-0.76,0.45-1.14,0.67c-0.02,0.08-0.04,0.15-0.06,0.23c-0.01,0.02,0,0.04,0.01,0.07c-0.84,1.58-1.37,3.41-2,5.04
				C198.21,122.53,196.99,125.06,196.51,127.65z"/>
			<path class="st4" d="M141.13,133.78c-1.14,1.27-2.27,2.55-3.38,3.86c-0.46-0.24-0.93-0.48-1.39-0.71
				c-0.09-0.05-0.17,0.08-0.08,0.14c0.42,0.27,0.85,0.53,1.28,0.79c-1.25,1.47-2.48,2.97-3.68,4.49c-0.08-0.06-0.16-0.12-0.24-0.18
				c-0.09-0.07-0.21,0.09-0.12,0.16c0.08,0.06,0.15,0.12,0.23,0.18c-2.31,2.94-4.49,5.97-6.46,9.12c-0.05,0.07,0.07,0.17,0.12,0.1
				c2.28-2.95,4.55-5.89,6.86-8.8c1.09,0.87,2.18,1.72,3.27,2.58c-2.47,2.89-4.89,5.82-7.22,8.82c-0.06,0.08,0.04,0.19,0.12,0.12
				c2.66-2.73,5.22-5.56,7.75-8.42c0.31,0.24,0.62,0.49,0.93,0.73c0.9,0.71,1.81,1.49,2.75,2.22c-0.43,0.53-0.86,1.07-1.29,1.6
				c0.38-0.1,0.75-0.2,1.13-0.29c0.26-0.28,0.53-0.55,0.79-0.83c0.24,0.17,0.48,0.34,0.72,0.5c0.2-0.04,0.4-0.08,0.6-0.12
				c-0.3-0.28-0.6-0.55-0.92-0.81c0.68-0.72,1.33-1.46,2-2.2c1.18,0.83,2.37,1.65,3.6,2.38c0.37-0.03,0.75-0.07,1.12-0.09
				c0.76-0.92,1.51-1.85,2.24-2.79c1.43,0.86,2.88,1.71,4.35,2.48c0.6-0.02,1.2-0.04,1.8-0.06c-0.22-0.14-0.43-0.29-0.66-0.43
				c0.64-0.85,1.25-1.72,1.85-2.61c0.15-0.21,0.3-0.43,0.45-0.64c0.31,0.21,0.61,0.42,0.92,0.63c0.7,0.48,1.4,0.98,2.11,1.49
				c-0.29,0.24-0.64,0.41-1.02,0.51c-0.37,0.1-0.2,0.61,0.15,0.55c0.47-0.07,1.03-0.3,1.48-0.63c0.37,0.26,0.74,0.5,1.12,0.75
				c0.44-0.04,0.88-0.09,1.33-0.14c-0.59-0.45-1.2-0.87-1.82-1.27c0.05-0.08,0.09-0.17,0.13-0.25c-0.17-0.19-0.34-0.38-0.5-0.58
				c-0.1,0.13-0.2,0.26-0.29,0.4c-0.35-0.23-0.71-0.46-1.05-0.69c-0.69-0.47-1.39-0.93-2.09-1.39c0.46-0.63,0.91-1.28,1.3-1.95
				c-0.15-0.36-0.28-0.73-0.4-1.09c-0.64,0.77-1.16,1.66-1.68,2.52c-1.08-0.72-2.16-1.45-3.24-2.16c-0.14-0.1-0.29-0.19-0.43-0.29
				c0.91-1.13,1.84-2.27,2.73-3.42c0.72,0.57,1.44,1.13,2.18,1.66c-0.08-0.4-0.15-0.8-0.2-1.2c-0.46-0.41-0.93-0.81-1.42-1.2
				c0.46-0.62,0.91-1.25,1.34-1.88c0.04-0.57,0.1-1.15,0.19-1.75c-0.87,0.92-1.67,1.91-2.45,2.92c-0.84-0.63-1.7-1.23-2.59-1.81
				c0.68-0.79,1.37-1.58,2.06-2.36c0.24-0.27,0.48-0.55,0.72-0.82c0.63,0.62,1.22,1.34,1.95,1.75c0.19,0.11,0.36-0.1,0.28-0.28
				c-0.34-0.75-1.15-1.35-1.88-1.87c0.57-0.64,1.13-1.29,1.7-1.93c0.37,0.27,0.76,0.6,1.18,0.83c0.08-0.19,0.17-0.38,0.26-0.56
				c-0.33-0.23-0.71-0.42-1.05-0.63c-0.02-0.01-0.03-0.02-0.05-0.03c0.48-0.54,0.95-1.09,1.43-1.63c0.21,0.11,0.42,0.23,0.63,0.34
				c0.08,0.04,0.15,0.08,0.22,0.13c0.12-0.14,0.24-0.28,0.37-0.41c-0.11-0.05-0.23-0.1-0.34-0.16c-0.19-0.09-0.37-0.18-0.56-0.28
				c1.39-1.59,2.79-3.18,4.16-4.79c2.67-3.13,5.58-6.4,7.54-10.03c0.08-0.15-0.12-0.33-0.25-0.19c-2.93,3.23-5.54,6.79-8.39,10.1
				c-1.3,1.5-2.61,3-3.92,4.49c-0.13-0.07-0.27-0.13-0.4-0.2c-0.25-0.12-0.47,0.24-0.22,0.37c0.11,0.06,0.21,0.12,0.32,0.17
				c-0.47,0.53-0.93,1.07-1.39,1.6c-0.59-0.35-1.17-0.7-1.76-1.05c-0.17-0.1-0.31,0.15-0.15,0.26c0.54,0.37,1.08,0.75,1.62,1.13
				c-0.57,0.65-1.13,1.29-1.7,1.94c-0.91-0.63-1.9-1.14-2.92-1.57c-0.13-0.05-0.22,0.16-0.09,0.22c0.96,0.48,1.86,1.03,2.72,1.67
				l0.01,0.01c-0.39,0.45-0.78,0.89-1.17,1.34c-0.56,0.65-1.14,1.29-1.71,1.93c-1.38-0.87-2.78-1.68-4.18-2.44
				c5.71-6.51,11.56-12.94,16.94-19.72c-0.26,0.04-0.52,0.07-0.78,0.11c-5.85,6.19-11.29,12.79-16.85,19.23
				c-0.68-0.37-1.36-0.73-2.02-1.07c-0.12-0.06-0.23,0.11-0.11,0.19c0.63,0.39,1.25,0.79,1.88,1.18c-0.14,0.16-0.28,0.33-0.42,0.49
				c-0.91,1.05-1.83,2.1-2.74,3.14c-0.86-0.55-1.71-1.11-2.57-1.66c-0.14-0.09-0.26,0.13-0.13,0.22c0.81,0.58,1.63,1.15,2.44,1.73
				c-1.27,1.45-2.54,2.91-3.81,4.36c-1.31-0.71-2.63-1.4-3.95-2.08c0.91-1.08,1.83-2.16,2.78-3.22
				c5.03-5.63,10.71-10.55,15.91-15.98c0.11-0.12-0.04-0.33-0.18-0.23C151.04,122.79,145.94,128.43,141.13,133.78z M137.77,145.24
				c-1.12-0.83-2.23-1.67-3.36-2.49c0.56-0.7,1.13-1.38,1.69-2.07c1.16,0.82,2.33,1.64,3.49,2.46
				C138.99,143.84,138.37,144.53,137.77,145.24z M142.24,148.51c-0.95-0.72-1.95-1.39-2.87-2.09c-0.31-0.23-0.62-0.46-0.93-0.69
				c0.62-0.7,1.23-1.42,1.84-2.13c0.74,0.52,1.49,1.04,2.23,1.55c0.53,0.37,1.07,0.74,1.61,1.12
				C143.49,147.02,142.86,147.76,142.24,148.51z M149.03,148.88c-1.18-0.9-2.43-1.72-3.69-2.52c0.77-0.85,1.52-1.7,2.28-2.56
				c0,0,0.01,0,0.01,0.01c1.18,0.67,2.36,1.39,3.54,2.11C150.44,146.89,149.72,147.88,149.03,148.88z M151.72,145.14
				c-1.22-0.64-2.43-1.27-3.6-1.92c1.11-1.27,2.22-2.54,3.32-3.82c1,0.7,2.01,1.39,3.01,2.09c-0.03,0.04-0.05,0.07-0.08,0.11
				C153.49,142.78,152.6,143.95,151.72,145.14z M158.94,144.57c-0.02,0.04-0.05,0.08-0.07,0.11c-0.52,0.8-1.02,1.6-1.52,2.41
				c-0.1,0.16-0.34,0.49-0.58,0.84c-1.39-0.85-2.83-1.63-4.28-2.39c0.6-0.77,1.2-1.55,1.8-2.32c0.31-0.4,0.62-0.8,0.94-1.19
				C156.46,142.87,157.7,143.72,158.94,144.57z M154.95,135.35c0.86,0.63,1.71,1.29,2.54,1.96c-0.89,1.2-1.75,2.42-2.62,3.61
				c-1.01-0.67-2.01-1.33-3.02-1.99C152.88,137.74,153.92,136.54,154.95,135.35z M149.17,133.33c0.34-0.39,0.69-0.79,1.03-1.18
				c1.35,0.86,2.68,1.74,3.99,2.65c-1.06,1.19-2.11,2.39-3.17,3.58c-1.32-0.87-2.66-1.73-3.99-2.59
				C147.75,134.98,148.46,134.15,149.17,133.33z M146.76,136.12c1.29,0.91,2.57,1.82,3.87,2.72c-1.14,1.29-2.29,2.58-3.43,3.87
				c-1.38-0.77-2.77-1.53-4.16-2.29C144.28,138.99,145.52,137.56,146.76,136.12z M142.62,140.91c1.36,0.8,2.73,1.58,4.09,2.36
				c-0.74,0.85-1.48,1.69-2.2,2.55c-0.37-0.24-0.74-0.47-1.1-0.71c-0.94-0.62-1.89-1.22-2.84-1.83
				C141.25,142.5,141.93,141.7,142.62,140.91z M141.9,140.49c-0.68,0.78-1.36,1.56-2.04,2.34c-1.21-0.78-2.41-1.56-3.62-2.33
				c0.62-0.76,1.26-1.52,1.89-2.28C139.38,138.99,140.64,139.75,141.9,140.49z"/>
			<path class="st4" d="M128.01,225.42c0.18,0.1,0.35-0.13,0.22-0.28c-1.04-1.16-2.47-2.19-3.77-3.05c-0.2-0.13-0.43,0.17-0.26,0.34
				C125.32,223.51,126.63,224.66,128.01,225.42z"/>
			<path class="st4" d="M216.39,89.95c-0.44,0.77-0.82,1.58-1.16,2.41c0.43-0.2,0.86-0.38,1.3-0.56c0.16-0.54,0.3-1.07,0.41-1.62
				C217,89.85,216.57,89.64,216.39,89.95z"/>
			<path class="st4" d="M212.93,90.23c-0.74,1.35-1.3,2.82-1.8,4.32c0.49-0.3,0.98-0.59,1.48-0.87c0.31-1.09,0.58-2.18,0.73-3.27
				C213.38,90.17,213.07,89.99,212.93,90.23z"/>
			<path class="st4" d="M193,116.65c-0.06,0.29-0.11,0.59-0.16,0.88c0.19-0.12,0.38-0.23,0.57-0.35c0.11-0.34,0.21-0.68,0.32-1.03
				c0.35,0.08,0.71,0.15,1.06,0.22c0.28-0.16,0.56-0.32,0.84-0.47c-0.54-0.23-1.09-0.42-1.66-0.58c0.05-0.19,0.1-0.37,0.15-0.56
				C193.74,115.39,193.37,116.01,193,116.65z"/>
			<path class="st4" d="M221.43,89.79c-0.17,0.17-0.34,0.36-0.49,0.55c0.36-0.09,0.72-0.18,1.09-0.26
				C222.03,89.78,221.69,89.52,221.43,89.79z"/>
			<path class="st4" d="M190.06,128.95c0.37-0.54,1.26-2.25,1.42-2.5c0.77-1.23,1.51-2.48,2.26-3.72c1.07-1.77,2.19-3.52,3.17-5.35
				c-0.44,0.28-0.87,0.56-1.3,0.84c-2.28,3.39-4.34,7.06-6.2,10.62C189.62,128.89,189.84,128.92,190.06,128.95z"/>
			<path class="st4" d="M203.32,124.07c-0.01,0.12,0.17,0.13,0.21,0.03c0.67-1.9,1.21-3.84,1.88-5.73c0.66-1.84,1.82-3.71,2.1-5.64
				c0.03-0.22-0.24-0.46-0.42-0.24c-1.15,1.37-1.62,3.38-2.18,5.05C204.19,119.64,203.58,121.85,203.32,124.07z"/>
			<path class="st4" d="M223.72,91.73c-0.7,0.58-1.07,1.45-1.46,2.25c-0.45,0.91-0.98,1.83-1.23,2.82
				c-0.04,0.17,0.18,0.33,0.31,0.18c0.68-0.76,1.15-1.69,1.65-2.57c0.46-0.8,0.98-1.6,1.07-2.54
				C224.08,91.68,223.84,91.64,223.72,91.73z"/>
			<path class="st4" d="M210.79,115.07c0.57-0.73,0.85-1.69,1.19-2.54c0.32-0.81,0.96-1.81,0.72-2.69c-0.03-0.12-0.2-0.21-0.31-0.13
				c-0.7,0.49-0.82,1.45-1.08,2.23c-0.32,0.96-0.78,1.98-0.82,2.99C210.48,115.08,210.69,115.19,210.79,115.07z"/>
			<path class="st4" d="M211.38,104.43c0.67-1.41,1.28-2.85,1.89-4.28c0.41,0.13,0.84,0.33,1.27,0.31c0.19-0.01,0.24-0.24,0.09-0.34
				c-0.32-0.23-0.72-0.3-1.1-0.4c-0.03-0.01-0.05-0.01-0.08-0.02c0.27-0.66,0.55-1.32,0.82-1.99c0.63-1.59,1.34-3.2,1.91-4.84
				c-0.48,0.22-0.95,0.44-1.42,0.68c-0.4,1.08-0.76,2.17-1.14,3.23c-0.32,0.9-0.62,1.8-0.93,2.7c-0.2-0.06-0.4-0.11-0.59-0.17
				c-0.28-0.08-0.4,0.35-0.12,0.44c0.19,0.06,0.37,0.12,0.56,0.18c-0.49,1.46-0.96,2.93-1.39,4.42
				C211.12,104.47,211.32,104.56,211.38,104.43z"/>
			<path class="st4" d="M216.52,107.78c-0.18,0.43-0.13,0.82,0.02,1.25c0.05,0.14,0.25,0.11,0.26-0.03c0.02-0.33,0.2-0.66,0.37-0.94
				c0.15-0.25,0.4-0.44,0.48-0.73c0.04-0.16-0.07-0.28-0.23-0.3C216.99,106.99,216.67,107.43,216.52,107.78z"/>
			<path class="st4" d="M218.43,94.42c-0.99,1.79-1.89,3.67-2.52,5.62c-0.05,0.17,0.19,0.26,0.28,0.12
				c0.92-1.55,1.73-3.17,2.64-4.73c0.92-1.57,2.1-3.07,2.92-4.69c-0.49,0.15-0.98,0.31-1.47,0.48
				C219.58,92.24,219.01,93.36,218.43,94.42z"/>
		</g>
		<path class="st5" d="M275.66,154.03c-4.87-9.97-11.74-19.24-20-26.89c-0.22-0.16-0.43-0.33-0.65-0.5
			c-4.94-5.28-11.84-9.36-18.74-10.12c2.63-2.42,5.08-5.04,7.31-7.8c5.29-6.54,9.69-17.99,19.95-16.59
			c0.83,0.11,1.33-0.88,0.58-1.38c-8.58-5.74-17.37-11.12-27.5-13.57c-9.56-2.32-19.34-0.9-27.94,3.77
			c-10.89,5.92-19.55,16.51-24.22,28.36c-9.8-1.19-20.77,1.03-30.24,3.3c-7.43,1.78-15.48,4.24-22.5,7.96
			c-28.77,12.84-47.83,42.65-49.28,74.57c-0.91,19.95,5.54,39.74,17.27,55.79c11.79,16.14,28.5,26.82,47.22,33.26
			c20.34,7,42.88,9.71,64.03,5.1c18.49-4.04,35.56-14.07,48.63-27.67C286.9,233.21,292.82,189.12,275.66,154.03z M208.81,83.55
			c17-10.51,36.41-3.02,51.84,6.76c-4.8,0.18-8.96,3.57-11.88,7.43c-5.02,6.64-9.49,13.17-15.88,18.64
			c-13.9,11.9-31.98,15.8-49.5,11.25c1.54-1.35,3.1-2.67,4.69-3.96c5.37-4.37,11.34-7.95,17.34-11.38c0.37-0.21,0.12-0.84-0.29-0.7
			c-4.55,1.6-8.79,3.74-12.83,6.27c0.69-1.18,1.35-2.37,2.05-3.49c2.23-3.57,4.68-7.03,7.33-10.3c6.17-7.61,14.1-12.06,23.58-14.28
			c0.12-0.03,0.1-0.23-0.03-0.22c-8.94,0.91-16.57,5.76-22.85,11.94c-3.09,3.04-5.68,6.52-8.09,10.11
			c-1.69,2.53-3.74,5.32-5.06,8.25c-0.55,0.37-1.09,0.75-1.63,1.14c-2.02,1.45-3.93,3.04-5.78,4.7
			C185.31,108.8,193.78,92.84,208.81,83.55z M240.86,273.53c-17.9,11.8-39.01,16.43-60.25,14.89c-22.48-1.63-45.81-8.65-63.56-22.88
			c-16.14-12.94-27.07-31.56-30.9-51.83c-4.04-21.35,0.48-44.02,12.39-62.16c8.15-12.42,19.67-22.06,32.78-28.69
			c0.37-0.17,0.74-0.34,1.11-0.51c3.48-1.39,6.93-2.8,10.43-4.11c1.33-0.48,2.67-0.95,4-1.43c0.4-0.14,0.81-0.28,1.21-0.42
			c1.76-0.58,3.55-1.12,5.37-1.59c5.09-1.34,10.29-2.26,15.51-2.92c4.96-0.62,9.96-0.51,14.92-0.98
			c-1.86,5.16-2.96,10.52-3.15,15.82c-0.31,0.29-0.62,0.57-0.93,0.86c-1.04,0.98-2.27,2.05-3.19,3.27c-0.77-0.95-1.64-1.82-2.6-2.57
			c-1.58-1.95-4.11-3.14-7.53-2.61c-5.07,0.8-6.34,7.48-6.18,11.59c0.16,4.05,2.14,8.52,5.49,10.95c-1.24,0.15-2.49,0.26-3.73,0.34
			c-8.79,0.55-17.24-0.09-25.53,3.42c-7.02,2.97-11.85,8.27-15.61,14.72c-0.11,0.19,0.16,0.34,0.28,0.17
			c4.31-6.25,11.26-10.99,18.37-13.46c8.47-2.95,17.69-1.55,26.46-2.38c7.51-0.71,14.75-2.97,21.54-6.21
			c7.73-3.68,15.08-11.82,24.22-11.24c0.22,0.01,0.24-0.31,0.05-0.37c-8.68-2.8-15.26,3.17-22.33,7.31
			c-2.71,1.58-5.56,2.91-8.49,4.02c0.71-2.87-0.55-6.32-1.6-8.89c-0.41-1-0.9-1.96-1.47-2.88c0.95-0.77,1.77-1.74,2.67-2.59
			c0.33-0.31,0.67-0.62,1-0.93c0.03,0.01,0.05,0.03,0.08,0.04c14.73,5.69,31.79,2.42,45.01-5.53c3.13-1.88,6.06-4.09,8.8-6.52
			c3.85,2.1,7.84,3.84,11.58,6.2c1.32,0.83,2.58,1.73,3.82,2.65c11.62,10.6,20.74,23.52,26.33,38.5
			c7.26,19.47,7.13,40.96,0.81,60.64C271.63,245.14,258.25,262.07,240.86,273.53z M168.73,142.39c4.85-0.79,7.13-4.65,7.13-8.48
			c0.03-0.01,0.06-0.02,0.09-0.03c0.64,1.07,1.22,2.19,1.7,3.39c1,2.52,0.88,5.35,1.76,7.84c-3.73,1.3-7.59,2.23-11.5,2.82
			c-3.29-4.41-5.86-8.78-4.78-14.64c0.93-5.04,6.7-7.27,9.86-2.57c2.97,4.41-1.21,8.68-4.57,10.93
			C168.03,141.92,168.29,142.46,168.73,142.39z"/>
	</g>
</g>
</svg>
