<svg xmlns="http://www.w3.org/2000/svg" viewBox="0 0 49.09 48.41"><defs><style>.cls-1{fill:#fff;}</style></defs><g id="Layer_2" data-name="Layer 2"><g id="Layer_1-2" data-name="Layer 1"><path class="cls-1" d="M49.07,11.65A24.14,24.14,0,0,0,45.28,5C43.72,2.92,41.72.84,39.22,0a.47.47,0,0,0-.54.23c-.81,1.52-1.28,3.17-2,4.71a.46.46,0,0,0,0,.43c-.21.15-.4.32-.6.47C35.34,6.39,34.66,7,34,7.56a53.24,53.24,0,0,0-4.38,4.38c-2.44,2.69-4.78,5.47-7.11,8.24a.2.2,0,0,0,.28.28c2.57-2.19,4.67-4.93,7-7.4,1.33-1.44,2.7-2.84,4.13-4.19q1.07-1,2.22-1.95c.44-.35,1.07-.68,1.51-1.09,2.18,1.68,4.68,3.8,5.79,6.33a.4.4,0,0,0,.57.2.2.2,0,0,0,.08.08l-.69.68-.33.31c-.13-.26-.27-.51-.39-.77-.31-.68-.53-1.41-.8-2.1a.08.08,0,0,0-.15,0,6.38,6.38,0,0,0,.85,3.32l-1.35,1.26c-1.46,1.35-3,2.68-4.42,4-.66.6-1.31,1.21-2,1.82h0a7.84,7.84,0,0,1-.51-3.28c0-.16-.24-.19-.27,0a4.46,4.46,0,0,0,.45,3.45.17.17,0,0,0,.11.08c-.87.83-1.73,1.68-2.57,2.54a7.55,7.55,0,0,0-.28-1.4,3,3,0,0,1,.1-1.75c0-.06,0-.12-.1-.07A2.08,2.08,0,0,0,31.14,22c-.06.55,0,1.84.53,2.11h0c-.84.88-1.67,1.78-2.47,2.69a.77.77,0,0,0-.69.17l-.14-.12a20.77,20.77,0,0,1-2.18-2.12c-1.5-1.59-2.94-3.26-4.56-4.72,0,0-.09,0-.06,0s.16.27.25.4a.26.26,0,0,0-.22-.06c-4.76.55-9.54,1.25-13.94,3.25a.68.68,0,0,0-.26.93,27.39,27.39,0,0,0,7.12,7.81c-2.36,2.42-4.74,4.83-7,7.3C5,42.34,2.3,45,.06,47.9c-.21.27.18.66.45.45a104.67,104.67,0,0,0,8-7.19c2.63-2.44,5.18-5,7.75-7.45a42.91,42.91,0,0,1,7.53,7c.51.64,1.33-.08,1.23-.71-.34-2.18.76-4.51,1.66-6.43s2.37-3.89,3-6a.62.62,0,0,0-.05-.51C32,24.59,34.5,22.32,37,20c1.47-1.35,3-2.68,4.42-4L43,14.52h0a.2.2,0,0,0,.34-.19l0-.1a3.07,3.07,0,0,1,.26-.25,11.81,11.81,0,0,0,1.6-1.64l.56,0c0,.09.07.18.11.27s.33.08.33-.09a1.33,1.33,0,0,0,0-.2c.82,0,1.65,0,2.47-.12C48.92,12.14,49.17,11.91,49.07,11.65ZM27.25,27.26a7.64,7.64,0,0,0,.65.59c-.36.57-.69,1.17-1,1.79a16.61,16.61,0,0,1-.25-3C26.84,26.86,27,27.06,27.25,27.26ZM23.58,38.18l-.24-.25A19.31,19.31,0,0,1,20.9,33.3a26,26,0,0,1-1-4.19s0,0,0,0a7.71,7.71,0,0,0,0,1.44l-.39-1s-.05,0,0,0l.45,1.2a16.61,16.61,0,0,0,.95,4.05c.12.36.26.71.4,1.06C17,32.21,12,29.27,9,24.48c4-1.77,8.48-2.59,12.71-3.51a.33.33,0,0,0,.21-.45,38.45,38.45,0,0,0,3.18,4.4c.43.52.88,1,1.34,1.51a11.49,11.49,0,0,0,.07,4c-.45.9-.86,1.82-1.26,2.71a24.28,24.28,0,0,1-1-6.85c0-.05-.07-.05-.08,0a17.66,17.66,0,0,0,0,4A12.47,12.47,0,0,0,24.86,34,15.64,15.64,0,0,0,23.58,38.18Zm22.6-26.55a11.07,11.07,0,0,0-2-5.12.06.06,0,0,0-.1.06,9.44,9.44,0,0,1,1.11,3c.15.7.21,1.44.39,2.15l-.21,0a.29.29,0,0,0-.36-.08l-.17.11a3.51,3.51,0,0,0-2.11-4.13.08.08,0,0,0-.06.14,3.27,3.27,0,0,1,1.5,1.79A8.59,8.59,0,0,1,44.44,12l-.18.05a.46.46,0,0,0,0-.32C42.94,9,40.3,7.11,37.8,5.62a1.15,1.15,0,0,0,.2-.29.28.28,0,0,0-.24-.41h0c.56-1.27,1-2.58,1.6-3.82a13.41,13.41,0,0,1,5,4.3,26,26,0,0,1,3.72,6C47.46,11.48,46.81,11.54,46.18,11.63Z"/><path class="cls-1" d="M21.83,28.15s-.08,0-.08,0a31.13,31.13,0,0,0,1.6,7.7.36.36,0,0,0,.69-.19C23.36,33.16,22.63,30.63,21.83,28.15Z"/><path class="cls-1" d="M29.34,21.49c-.29.86-.41,2.43.44,3,.15.1.29-.07.27-.21-.07-.43-.33-.83-.43-1.26a4.45,4.45,0,0,1-.16-1.54C29.47,21.44,29.36,21.43,29.34,21.49Z"/><path class="cls-1" d="M36.68,18.7a3.66,3.66,0,0,0,.09-1.48c0-.63-.09-1.26-.14-1.89a.1.1,0,0,0-.2,0c0,.55-.09,1.11-.13,1.66a3.93,3.93,0,0,0,.07,1.71A.16.16,0,0,0,36.68,18.7Z"/><path class="cls-1" d="M38.26,13.86a3.35,3.35,0,0,0,.52,3c.1.11.33,0,.3-.12a4.6,4.6,0,0,0-.34-1.09A3.35,3.35,0,0,1,38.6,14C38.64,13.73,38.31,13.63,38.26,13.86Z"/><path class="cls-1" d="M40.2,12a3.1,3.1,0,0,0,.49,3,.17.17,0,0,0,.28-.12,5.37,5.37,0,0,0-.33-1.08A4.06,4.06,0,0,1,40.47,12C40.49,11.87,40.25,11.79,40.2,12Z"/></g></g></svg>