<svg xmlns="http://www.w3.org/2000/svg" viewBox="0 0 48.9 50.41"><defs><style>.cls-1{fill:#fff;}</style></defs><g id="Layer_2" data-name="Layer 2"><g id="Layer_1-2" data-name="Layer 1"><path class="cls-1" d="M11.93,3.49c-2.76,0-4.91,2-6.26,4.24a9.94,9.94,0,0,0-1.62,6.74,14.38,14.38,0,0,0,.8,2.88.15.15,0,0,0-.1.12c-.06,2.09,1.73,3.82,3.42,4.78a10.29,10.29,0,0,0,5.67,1.29c3.17-.23,5.46-2.5,6.53-5.37C22.64,12.09,19.19,3.5,11.93,3.49Zm7.38,14.66a6.58,6.58,0,0,1-5.47,4.29A8.65,8.65,0,0,1,10.41,22a2.79,2.79,0,0,0,.89-.51s0,0,0,0a3.58,3.58,0,0,1-1.46.32,9.9,9.9,0,0,1-3-1.85,14,14,0,0,1-2-4.51A7.56,7.56,0,0,1,5,10.76,10.88,10.88,0,0,1,8.76,5.31c3.43-2.46,8-.23,9.89,3A11.42,11.42,0,0,1,19.31,18.15Z"/><path class="cls-1" d="M48.47,44.72A15.23,15.23,0,0,0,45,40.26a59,59,0,0,0-5.4-4.57c-1.69-1.3-3.42-2.54-5.14-3.8-.64-.48-1.27-1-1.89-1.46-.28-.23-.52-.49-.78-.71h0a1,1,0,0,0-1.8-.58,3.29,3.29,0,0,1-.4.62c-2.9-2.48-5.35-5.43-8.24-7.91.46-.54.88-1.09,1.25-1.62C25,16.76,24.5,12.59,23,8.9S19.16,1.44,15.1.29s-8,1.22-10.87,3.84A12.66,12.66,0,0,0,.05,12a12.56,12.56,0,0,0,2.13,7.79c1.84,3,5.5,7.13,9.29,6.41a.41.41,0,0,0,.3.51c2.76.48,5.45-.91,7.64-2.83,2.46,2.83,5.1,5.5,7.76,8.13a4,4,0,0,0-.77,1.19c-.29.68.54,1.16,1.09.88a7.51,7.51,0,0,0,1,1.89,25.36,25.36,0,0,0,4.14,4.21c.88.79,1.76,1.55,2.58,2.39a6.17,6.17,0,0,0,1.37,1.62.08.08,0,0,0,.11,0c1,1.09,1.9,2.17,2.93,3.19,2,2,4.72,4.25,7.52,2.37A3.78,3.78,0,0,0,48.47,44.72ZM29.89,32.86A52.24,52.24,0,0,1,33,38.55c-.43-.45-.85-.91-1.25-1.37a17.77,17.77,0,0,1-2.69-3.71A3.17,3.17,0,0,0,29.89,32.86ZM15.32,25.08a10.67,10.67,0,0,1-2.42.58l.48-.28s0,0,0,0a5.52,5.52,0,0,1-.7.33l-.9.16a.4.4,0,0,0-.2.11c-2.8.32-5.5-2.13-7.17-4.2C2,18.75.14,15,.92,11c.87-4.46,5-8.19,9.22-9.56s8,.92,10.21,4.6c2,3.47,3.8,8,2.14,12a15,15,0,0,1-4.32,5.25A10.26,10.26,0,0,1,15.32,25.08Zm4.29-1.41a19.69,19.69,0,0,0,1.57-1.6A64.7,64.7,0,0,0,29,30.36l-.8.65c-.17.14-.32.28-.47.42C25.11,28.77,22.44,26.13,19.61,23.67ZM31,37.52a27.84,27.84,0,0,1-2.41-2.45,5.53,5.53,0,0,1-.83-1.23l0,0a3.55,3.55,0,0,1,.23-.31,1,1,0,0,0,.9.07,13.25,13.25,0,0,0,2.18,3.5c.56.7,1.16,1.37,1.76,2C32.19,38.57,31.56,38.06,31,37.52Zm16.71,10.4a1.84,1.84,0,0,1-.17.25,18.92,18.92,0,0,0-1.3-1.39c-.54-.63-1-1.35-1.49-2,0,0,0,0,0,0a7,7,0,0,0,1.08,2.27,4.62,4.62,0,0,0,1.35,1.53,4.1,4.1,0,0,1-.68.5,16.25,16.25,0,0,1-4-6.23,0,0,0,0,0,0,0,22.34,22.34,0,0,0,1.55,4A5.92,5.92,0,0,0,46,49.33a2.64,2.64,0,0,1-1.22.22,5.11,5.11,0,0,1-2.59-1.15,45.36,45.36,0,0,0-2.9-5.13,32.47,32.47,0,0,1-3.07-6.7s0,0,0,0a24.87,24.87,0,0,0,2.37,6.25c.57,1.05,1.17,2.07,1.77,3.11.3.52.57,1.06.86,1.6-.49-.45-.93-.92-1.32-1.31-1.44-1.48-2.72-3.1-4.15-4.59-.23-.24-.47-.47-.71-.7a.12.12,0,0,0,0-.17,7.2,7.2,0,0,0-1.3-1.46.8.8,0,0,1-.13-.13L33,38.11A50.53,50.53,0,0,0,30,32.77a9.19,9.19,0,0,0,1.44-2.11,11.78,11.78,0,0,0,1,.85c.91.73,1.87,1.41,2.81,2.1,2.5,1.83,5,3.65,7.34,5.68,2,1.69,4.15,3.64,5.16,6.08A3.35,3.35,0,0,1,48,46.92a3.63,3.63,0,0,0-.59-1.07,7.13,7.13,0,0,0-1.16-1.29.05.05,0,1,0-.08.07c.31.45.56.94.83,1.42a2.9,2.9,0,0,0,.78,1.15.17.17,0,0,0,.18,0A2.2,2.2,0,0,1,47.67,47.92Z"/><path class="cls-1" d="M33,34.88s-.08,0-.06,0c1,1.49,1.85,3,2.69,4.57a39.58,39.58,0,0,0,2.55,4.61c.09.11.29,0,.25-.12A21.8,21.8,0,0,0,36,39.33C35.07,37.81,34.08,36.32,33,34.88Z"/><path class="cls-1" d="M39.6,40.33s-.08,0-.07,0c.53,1.6,1,3.22,1.65,4.78s1.49,3.34,2.88,4.26c.13.08.32-.07.23-.21A50.3,50.3,0,0,1,41.5,45C40.76,43.47,40.21,41.88,39.6,40.33Z"/></g></g></svg>