<?xml version="1.0" encoding="utf-8"?>
<!-- Generator: Adobe Illustrator 23.0.6, SVG Export Plug-In . SVG Version: 6.00 Build 0)  -->
<svg version="1.1" id="Layer_1" xmlns="http://www.w3.org/2000/svg" xmlns:xlink="http://www.w3.org/1999/xlink" x="0px" y="0px"
	 viewBox="0 0 368.43 368.43" style="enable-background:new 0 0 368.43 368.43;" xml:space="preserve">
<style type="text/css">
	.st0{fill:none;}
	.st1{fill:#00A551;}
	.st2{fill:#4C4C4C;}
	.st3{fill:#2F2F2F;}
</style>
<rect x="-2.66" y="-2.66" class="st0" width="373" height="373"/>
<g>
	<g>
		<path class="st1" d="M280.79,178.06c0.56,0.84,1.18,1.65,1.78,2.54c1.85,2.74,3.29,5.69,4.43,8.8c1.25,3.42,1.72,6.98,2.12,10.55
			c-1.93-5.33-5.21-9.97-9.89-12.14C280.68,184.81,281.12,181.43,280.79,178.06z"/>
		<path class="st1" d="M247.33,121.15c3.85,0.81,7.17,3.72,9.72,6.54c6.22,6.86,6.13,17.34,2.49,25.27
			c-0.36,0.79,0.64,1.37,1.15,0.67c1.88-2.57,3.2-5.44,3.92-8.42c1.71,1.53,3.72,2.71,5.5,4.21c2.49,2.09,4.33,4.82,5.9,7.64
			c1.91,3.46,2.55,7.52,2.67,11.4c0.02,0.53-0.01,1.05-0.04,1.57c-0.65-1.46-1.41-2.85-2.26-4.12c-3.54-5.28-11.26-10.64-18.01-9.61
			c0.63-7.97-2.93-16.58-8.55-21.74c-2.69-2.47-6.86-4.31-11.14-4.95c1.76-2.2,2.17-5.17,1.78-8.23
			C242.74,121.12,244.81,120.62,247.33,121.15z"/>
		<path class="st1" d="M91.2,232.58c-4.09-2.81-7.67-5.4-10.3-9.75c-3.3-5.46-3.42-12.06-2.14-18.12
			c2.18-10.28,9.36-20.1,19.05-24.16c-0.35,1.44-0.61,2.92-0.76,4.39c-4.56,1.94-7.32,8.31-8.88,12.52
			c-2.35,6.34-2.13,13.42-0.12,19.79c1.09,3.47,2.97,6.54,5.3,9.27C92.22,228.39,91.52,230.44,91.2,232.58z"/>
		<path class="st1" d="M160.67,278.56c-1.99,0.97-4.27,1.22-6.43,0.91c-3.32-0.47-5.51-2.73-7.39-5.23
			c2.41-0.47,4.46-1.72,5.75-4.14c0.06-0.11,0.08-0.23,0.08-0.33c2.12,3.48,5.06,6.51,8.26,8.66
			C160.85,278.47,160.77,278.51,160.67,278.56z"/>
		<path class="st1" d="M289.45,230.56c-0.16,2.51-1.1,4.79-2.04,7.06c-0.45-1.39-1.08-2.77-1.92-4.11c-0.4-0.64-1.23-0.19-1.14,0.48
			c1.18,8.54,0.06,16.72-6.27,23.07c-6.03,6.05-14.62,5.62-22.33,4.33c6.69-6.26,10.24-16.82,5.25-25.12
			c-0.43-0.72-1.76-0.48-1.68,0.45c0.78,8.29,0.01,15.98-6.29,22.06c-3.11,3-7.59,4.33-11.78,4.72c-3.7,0.34-7.21-1.17-10.82-0.83
			c-0.28,0.03-0.53,0.33-0.34,0.6c4.68,6.89,17.45,4.05,23.5-0.13c0.03,1.16,0.02,2.32-0.14,3.48c-0.19,1.35-0.78,2.53-1.03,3.83
			c-0.03,0.16,0.11,0.26,0.25,0.2c2.24-0.99,3.52-3.89,3.75-6.38c5.37,3.02,11.35,2.76,16.66,0.44c-0.9,5.44-2.1,10.44-6.14,14.65
			c-5.31,5.54-11.71,4.21-18.3,4.36c1.4-1.67,2.34-3.55,2.44-5.54c0.03-0.68-0.77-1.09-1.33-0.76c-1.99,1.16-3.17,2.96-4.8,4.58
			c-2.51,2.49-5.57,4.09-8.9,5.17c-6.62,2.14-12.37-0.31-18.4-2.6c0.29-0.41,0.56-0.82,0.79-1.26c0.36-0.67-0.24-1.73-1.07-1.4
			c-2.88,1.14-5.33,2.99-8.06,4.45c-4.5,2.41-9.7,3.23-14.75,3.16c-7.15-0.1-12.97-3.35-18.48-7.3c7.14-0.37,14.17-3.36,16.5-9.76
			c0.29-0.8-0.67-1.29-1.3-1c-4.03,1.87-7.12,4.74-11.46,6.14c-5.03,1.62-10.43,0.7-15.12-1.47c-10.2-4.72-11.53-14.34-12.34-24.21
			c-0.05-0.66-0.99-1.05-1.34-0.36c-2.95,5.79-1.83,12.23,1.31,17.67c-0.14-0.08-0.32-0.12-0.51-0.1
			c-4.35,0.61-7.41,2.15-12.03,1.24c-4.72-0.92-9.08-4-12.55-7.18c-6.18-5.65-9.84-13.97-11.37-22.07
			c-0.04-0.22-0.34-0.14-0.36,0.05c-0.74,7.93,1.79,15.2,6.51,21.16c-3.09-0.86-6.26-1.14-9.35-2.12
			c-4.59-1.46-8.55-4.44-11.81-7.91c-6.54-6.96-6.06-15.39-5.96-24.03c1.37,1.4,2.83,2.7,4.38,3.88c4.42,3.39,11.84,6.92,17.44,5.07
			c0.58-0.19,0.84-1.12,0.19-1.42c-4.3-2.01-8.98-2.44-13.24-4.81c-5.71-3.17-10.01-8.6-12.32-14.64
			c-2.2-5.75-1.76-12.21-0.06-18.01c1.09-3.72,3.65-6.58,5.58-9.7c0.05,3.3,0.62,6.49,1.71,9.23c2.96,7.43,11.07,13.49,19.15,14.35
			c-5.51,9.95-1.46,22.82,6.62,30.31c6.94,6.42,23.51,11.6,29.91,1.89c0.42-0.63-0.28-1.57-1.01-1.31
			c-10,3.54-19.16,3.02-27.29-4.49c-7.49-6.93-7.79-17.03-6-26.29c4.32-0.07,8.5-1.75,11.7-5.65c0.53-0.65-0.12-1.46-0.87-1.13
			c-12.33,5.46-25.14,1.9-29.57-11.76c-1.81-5.58-0.67-11.63,1.84-16.77c2-4.11,5.25-6.82,8.58-9.6
			c2.38,8.84,10.88,18.95,19.68,19.91c0.69,2.64,1.41,5.25,1.91,7.93c0.05,0.25,0.38,0.19,0.45,0c1.01-2.61,1.32-5.31,0.82-8.01
			c2.14-0.34,4.25-1.29,6.26-3.02c0.66-0.57,0.16-1.88-0.74-1.79c-5.09,0.53-9.54,0.7-14.2-1.86c-5.31-2.92-8.66-8.89-10.16-14.53
			c-1.59-5.95,0.53-12.17,4.79-16.39c4.13-4.1,9.97-3.45,15.21-3.12c0.4,0.03,0.52-0.47,0.3-0.72c-1.88-2.19-4.33-3.15-6.91-3.3
			c-0.55-3.97-1.57-7.56-0.89-11.69c1.03-6.26,5.86-10.62,11.65-12.54c13.49-4.48,21.97,7.38,26.39,18.02
			c0.16,0.38,0.86,0.54,0.93,0c2.1-14.98-13.69-24.67-26.89-22.52c-1.24,0.2-2.41,0.53-3.53,0.96c1.3-2.48,1.13-5.34,1.65-8.1
			c0.79-4.23,3.23-7.9,6.25-10.84c6.6-6.42,21.25-8.19,25.07,2.17c0.33,0.88,1.54,0.72,1.61-0.22c0.59-7.08-4.89-10.26-11.04-10.9
			c3.97-3.76,7.76-6.88,13.52-8.42c6.59-1.76,12.69,0.16,18.14,3.46c-7.96-1.1-16.45,0.69-22.05,6.68c-0.56,0.6,0.14,1.37,0.83,1.07
			c8.53-3.64,16.62-5.96,25.78-3.02c4.15,1.33,7.77,4.08,10.79,7.13c1.96,1.97,3.19,4.51,4.93,6.61c-1.96,0.91-3.55,2.25-4.5,4.15
			c-0.1,0.19,0.02,0.4,0.24,0.42c2.54,0.15,4.57-0.98,6.97-1.77c3.31-1.08,6.85-1.22,10.3-1.04c4.2,0.22,8.35,1.88,11.62,4.47
			c3.59,2.83,3.68,6.91,4.92,10.82c-0.72,0.21-1.39,0.53-1.98,0.95c-1.07-3.85-3.13-7.53-5.1-9.74c-4.88-5.48-15.96-8.51-21.76-2.9
			c-0.27,0.26-0.06,0.7,0.29,0.71c7.05,0.24,13.11-0.31,18.66,4.99c2.57,2.45,3.85,6.11,4.29,9.54c0.36,2.88-0.68,5.61-0.62,8.41
			c-4.93-0.01-9.56,1.8-11.72,6.41c-0.21,0.44,0.13,1.08,0.68,0.89c8.75-3.09,15.96-5.3,23.65,1.81c3.93,3.64,5.84,9.13,6.51,14.29
			c0.6,4.62-0.93,9.02-1.19,13.57c-0.03,0.59,0.71,0.65,1,0.27c1.92-2.49,3.07-5.35,3.59-8.35c5.83,2.49,11.13,3.79,15.38,9.32
			c5.11,6.64,3.82,14.4,2.51,21.99c-0.19,1.1,1.1,1.62,1.75,0.74c0.18-0.24,0.33-0.5,0.49-0.75c2.08,3.24,4.65,5.97,6.34,9.54
			c2.14,4.53,2.82,9.58,2.6,14.54c-0.52,12.01-10.59,22.77-23.08,19.36c-0.65-0.18-0.93,0.67-0.43,1.03
			c10.24,7.39,20.51-1.17,25.02-10.74c0.07,0.19,0.13,0.39,0.2,0.6C289.58,226.06,289.59,228.33,289.45,230.56z"/>
	</g>
	<g>
		<path class="st2" d="M253.72,214.93c-0.09-0.25-0.5-0.15-0.41,0.11c1.27,3.79,2.19,7.93,3.9,11.54c0.21,0.45,0.89,0.12,0.77-0.33
			C257.04,222.41,255.12,218.64,253.72,214.93z"/>
		<path class="st2" d="M231.97,266.21c0.12,0.35,0.7,0.54,0.89,0.12c0.06-0.14,0.12-0.27,0.18-0.4c-0.54-0.3-1.04-0.66-1.51-1.06
			C231.68,265.31,231.81,265.77,231.97,266.21z"/>
		<path class="st2" d="M258.86,243.02c0.17,0.75,0.34,1.49,0.53,2.23c0.09-0.86,0.15-1.74,0.17-2.62
			C259.33,242.36,258.75,242.58,258.86,243.02z"/>
		<path class="st2" d="M261.67,218.81c-0.01-1.1-0.61-2.11-1.05-3.1c-0.55-1.25-1.11-2.51-1.66-3.76c-0.27-0.61-1.14-0.08-0.89,0.52
			c0.47,1.1,0.94,2.21,1.41,3.31c0.47,1.1,0.81,2.4,1.69,3.23C261.35,219.18,261.67,219.07,261.67,218.81z"/>
		<path class="st2" d="M269.05,191.12c0.17,0.17,0.48,0.05,0.48-0.2c0.01-1.69-1.03-3.27-1.68-4.79c-0.86-1.99-1.7-3.99-2.56-5.99
			c-0.22-0.51-1.1-0.14-0.89,0.38c0.82,2.01,1.63,4.02,2.44,6.04c0.02,0.05,0.04,0.1,0.06,0.16c-1.47,0.9-2.89,1.9-4.29,2.93
			c-0.32-1.01-0.72-2.01-1.02-2.98c-0.39-1.27-0.79-2.54-1.19-3.8c0.29-0.2,0.59-0.4,0.87-0.6c0.24-0.17,0.1-0.64-0.22-0.51
			c-0.3,0.12-0.59,0.25-0.89,0.38c-0.42-1.29-0.84-2.57-1.27-3.85c-0.16-0.49-0.9-0.29-0.78,0.21c0.33,1.38,0.68,2.75,1.03,4.12
			c-1.25,0.63-2.53,1.39-3.76,2.25c-0.29-0.79-0.58-1.58-0.88-2.36c-0.3-0.8-0.67-2.89-1.37-3.42c0.09,0.07,0.17-0.07,0.11-0.14
			c-0.16-0.19-0.31-0.39-0.47-0.58c-0.13-0.15-0.34,0.02-0.31,0.18c0.49,2.35,1.28,4.66,2.05,6.95c-2.68,1.98-5.12,4.38-6.7,6.84
			c-0.11,0.18,0.13,0.32,0.27,0.21c2.29-1.81,4.27-3.97,6.59-5.76c0.07-0.05,0.15-0.1,0.22-0.16c0.03,0.09,0.06,0.18,0.09,0.27
			c0.73,2.2,1.28,4.68,2.28,6.83c-0.58,0.45-1.15,0.91-1.72,1.36c-0.32,0.25,0.1,0.79,0.43,0.56c0.55-0.38,1.12-0.77,1.68-1.15
			c0.13,0.24,0.26,0.48,0.41,0.71c0.18,0.28,0.72,0.2,0.69-0.19c-0.04-0.39-0.1-0.77-0.18-1.16c1.01-0.69,2.02-1.4,3.02-2.11
			c0.26,0.59,0.58,1.14,1.01,1.61c0.12,0.13,0.39,0.07,0.42-0.11c0.15-0.83,0.07-1.65-0.1-2.47c1.46-1.07,2.89-2.18,4.24-3.35
			C267.63,188.74,268.07,190.15,269.05,191.12z M258.35,192.87c-0.57-2.14-1.57-4.25-2.31-6.28c-0.08-0.21-0.16-0.42-0.24-0.64
			c1.18-0.84,2.39-1.62,3.59-2.42c0.3,1.16,0.6,2.31,0.91,3.47c0.31,1.17,0.52,2.46,0.89,3.66
			C260.24,191.39,259.29,192.13,258.35,192.87z"/>
		<path class="st2" d="M239.46,188.33c-1.26,0.99-2.49,2.03-3.7,3.1l-2.6-4.6c0.62-0.6,1.24-1.2,1.85-1.82
			c0.22-0.22-0.08-0.64-0.34-0.44c-0.65,0.5-1.29,1.01-1.92,1.53c-0.21-0.38-0.42-0.75-0.64-1.12c-0.18-0.32-0.65-0.04-0.49,0.29
			l0.62,1.25c-0.86,0.71-1.71,1.44-2.56,2.17c-0.67-1.69-1.35-3.39-2.1-5.05c0.11-0.11,0.01-0.31-0.14-0.32
			c-0.37-0.8-0.75-1.59-1.16-2.35c-0.1-0.19-0.4-0.06-0.35,0.15c0.21,0.85,0.46,1.69,0.72,2.53c-1.74,0.78-3.45,1.92-4.99,3.28
			c-0.86-2.55-1.75-5.08-2.8-7.54c-0.01-0.04-0.03-0.07-0.04-0.11c0-0.01-0.01-0.01-0.01-0.02c-0.01-0.02-0.02-0.04-0.03-0.07l0,0
			c-0.17-0.32-0.71-0.14-0.63,0.26c0.63,2.88,1.48,5.72,2.37,8.55c-1.31,1.31-2.46,2.73-3.35,4.16c-0.12,0.19,0.15,0.39,0.31,0.24
			c1.12-1.14,2.21-2.3,3.35-3.41c0.31,0.97,0.62,1.95,0.92,2.92c0.31,0.98,0.61,1.95,0.92,2.93c-2.01,1.72-4.01,3.49-5.55,5.53
			c-0.08,0.1,0.07,0.23,0.17,0.17c2.07-1.21,3.94-2.86,5.75-4.53c0.22,0.69,0.44,1.39,0.65,2.08c0.42,1.32,0.69,2.68,1.29,3.88
			c-0.66,0.68-1.32,1.36-1.98,2.03c-0.11,0.12,0.06,0.28,0.18,0.18c0.68-0.59,1.37-1.17,2.06-1.76c0.18,0.3,0.38,0.59,0.63,0.86
			c0.23,0.25,0.57,0.03,0.6-0.25c0.06-0.55,0.02-1.08-0.07-1.61c1.7-1.45,3.41-2.92,5.09-4.42c0.3,0.53,0.64,1.02,1.03,1.45
			c0.19,0.2,0.52,0.04,0.52-0.22c0.01-0.76-0.13-1.54-0.35-2.32c0.95-0.86,1.89-1.74,2.81-2.62c0.65,1.51,1.34,3.09,2.5,4.12
			c0.19,0.16,0.59,0.08,0.55-0.23c-0.22-1.73-1.31-3.21-2.2-4.71c1.22-1.2,2.41-2.43,3.54-3.69
			C240.15,188.46,239.76,188.09,239.46,188.33z M223.18,191.49c-0.4-1.2-0.79-2.4-1.19-3.61c0.08-0.07,0.16-0.15,0.25-0.23
			c1.45-1.27,3.07-2.31,4.61-3.47c0.59,1.78,1.26,3.54,1.9,5.3c-1.04,0.91-2.07,1.83-3.1,2.75c-0.56,0.5-1.14,1-1.72,1.5
			C223.67,192.99,223.43,192.24,223.18,191.49z M226.23,200.67c-0.27-1.01-0.69-2.01-1.02-3.02l-0.93-2.81
			c0.43-0.39,0.86-0.79,1.29-1.16c1.18-1.04,2.37-2.08,3.55-3.13c0.57,1.67,1.05,3.64,1.82,5.37
			C229.35,197.49,227.79,199.08,226.23,200.67z M232.26,194.65c-0.62-1.62-1.48-3.22-2.07-4.67c-0.04-0.09-0.07-0.19-0.11-0.28
			c0.86-0.78,1.72-1.56,2.56-2.36l2.19,4.45c0.05,0.1,0.1,0.22,0.15,0.32C234.06,192.94,233.16,193.79,232.26,194.65z"/>
		<path class="st2" d="M246.5,159.54c0.34,0.9,0.71,1.78,1.07,2.68c0.72,1.8,1.41,3.8,2.52,5.39c0.33,0.47,1.1,0.19,0.95-0.4
			c-0.83-3.21-2.89-6.35-4.46-9.25c-0.07-0.12-0.23-0.19-0.36-0.15c-0.48,0.14-0.96,0.27-1.44,0.4c-0.3,0.08-0.17,0.51,0.13,0.46
			C245.93,158.49,246.09,158.48,246.5,159.54z"/>
		<path class="st2" d="M230.52,127.69c-0.66-1.12-1.32-2.24-1.98-3.36c-0.29-0.49-1.04-0.05-0.76,0.45c0.94,1.7,1.78,3.64,2.87,5.31
			c0.37-0.11,0.74-0.21,1.12-0.3C231.39,129.06,230.93,128.38,230.52,127.69z"/>
		<path class="st2" d="M270.82,190.61c1.21-1.1,2.43-2.18,3.53-3.39c0.21-0.23-0.08-0.67-0.36-0.46c-1.34,0.99-2.56,2.11-3.8,3.22
			C269.78,190.37,270.4,191,270.82,190.61z"/>
		<path class="st2" d="M230.04,229.99c-0.7,0.49-1.39,1.02-2.07,1.54c-0.87-1.96-2.2-3.85-3.22-5.67c-0.3-0.54-1.12-0.06-0.82,0.48
			c1.04,1.86,1.96,4.03,3.22,5.82c-0.63,0.5-1.26,0.99-1.88,1.49c-0.77,0.61-1.51,1.26-2.25,1.91c-0.6,0.53-0.54,0.54-0.51,1.32
			c0.01,0.24,0.31,0.25,0.39,0.05c0.51-1.22,2.47-2.17,3.49-3c0.44-0.35,0.87-0.71,1.31-1.06c0.1,0.12,0.19,0.25,0.3,0.37
			c0.21,0.24,0.61-0.01,0.52-0.3c-0.06-0.19-0.13-0.38-0.2-0.57c0.73-0.6,1.45-1.21,2.14-1.85
			C230.73,230.27,230.35,229.77,230.04,229.99z"/>
		<path class="st2" d="M273.43,178.21c0,0.7,0.38,1.36,0.63,2.01c0.29,0.75,0.54,1.5,0.81,2.26c0.11,0.31,0.39,0.49,0.72,0.41
			c0.05-0.01,0.1-0.03,0.14-0.06c0.27-0.19,0.37-0.5,0.21-0.8c-0.38-0.71-0.76-1.41-1.11-2.13c-0.31-0.62-0.54-1.36-1.05-1.83
			C273.65,177.94,273.43,178.02,273.43,178.21z"/>
		<path class="st2" d="M281.77,218.2c0.3-0.29-0.1-0.83-0.45-0.58c-1.69,1.21-3.35,2.49-5,3.79c-0.87-1.24-1.76-2.47-2.6-3.67
			c-0.15-0.21-0.48-0.03-0.35,0.21c0.72,1.33,1.44,2.71,2.19,4.08c-1.28,1.03-2.54,2.09-3.78,3.17c-0.58-1.85-1.16-3.7-1.74-5.55
			c-0.09-0.28-0.52-0.16-0.44,0.12c0.56,1.95,1.13,3.9,1.69,5.85c-1.13,0.99-2.23,2-3.31,3.02c-0.69-2.24-1.45-4.47-2.31-6.61
			c3.35-2.62,6.69-5.36,9.72-8.33c0.21-0.21-0.08-0.61-0.33-0.42c-3.61,2.7-7.04,5.78-10.31,8.87c-0.23,0.22,0.1,0.52,0.34,0.34
			c0.05-0.04,0.1-0.08,0.16-0.12c0.72,3.77,1.82,7.59,2.95,11.27c0.42,0.01,0.83,0.01,1.24,0c-0.4-1.42-0.81-2.86-1.24-4.3
			c1.15-0.82,2.29-1.66,3.43-2.52c0.43,1.67,0.82,3.41,1.66,4.88c0.08,0.13,0.31,0.08,0.3-0.08c-0.13-1.78-0.87-3.49-1.4-5.18
			c0-0.01-0.01-0.03-0.01-0.04c1.36-1.05,2.7-2.13,4.03-3.24c1.18,2.11,2.44,4.17,3.89,6.02c0.21-0.19,0.42-0.39,0.62-0.59
			c-1.01-2.11-2.3-4.15-3.66-6.15C278.65,221.05,280.24,219.65,281.77,218.2z"/>
		<path class="st2" d="M238.59,152.96c-0.19-0.38-0.83-0.11-0.69,0.29c0.96,2.7,2.04,5.35,3.16,7.98c1.2,2.83,2.16,6.11,3.92,8.64
			c0.32,0.46,1.01,0.18,0.89-0.38c-0.59-2.75-2.13-5.39-3.26-7.96C241.33,158.65,240.04,155.76,238.59,152.96z"/>
		<path class="st2" d="M183.69,284.28c0.3,1,0.6,2.01,0.97,2.99c0.33,0.15,0.67,0.28,1.01,0.42c-0.28-1.24-0.72-2.44-1.13-3.65
			c-0.36-1.06-0.68-2.2-1.15-3.25c-0.22,0.08-0.44,0.16-0.66,0.23C182.97,282.13,183.38,283.22,183.69,284.28z"/>
		<path class="st2" d="M153.47,273.15c-1.01,0.79-2.03,1.57-3.04,2.36c-0.1-0.85-0.21-1.72-0.41-2.56c-0.2,0.14-0.41,0.27-0.63,0.38
			c0.04,0.92,0.18,1.84,0.3,2.74c-0.25,0.2-0.5,0.39-0.75,0.59c0.2,0.19,0.4,0.38,0.61,0.56c0.09-0.07,0.18-0.13,0.26-0.2
			c0.02,0.16,0.04,0.32,0.06,0.48c0.29,0.23,0.58,0.44,0.89,0.64c-0.07-0.56-0.15-1.12-0.22-1.69c1.03-0.8,2.06-1.59,3.09-2.39
			c0.06,0.34,0.13,0.68,0.19,1.02c0.26,1.42,0.42,2.98,0.82,4.41c0.3,0.03,0.6,0.05,0.9,0.06c-0.15-1.29-0.55-2.57-0.83-3.82
			c-0.16-0.71-0.31-1.43-0.47-2.15c0.25-0.19,0.51-0.39,0.76-0.58c-0.18-0.22-0.36-0.43-0.54-0.66c-0.14,0.11-0.29,0.22-0.43,0.34
			c-0.12-0.48-0.24-0.96-0.37-1.43c-0.2-0.29-0.4-0.59-0.59-0.88C153.17,271.32,153.31,272.24,153.47,273.15z"/>
		<path class="st2" d="M179.59,281.8c-0.62,0.11-1.25,0.2-1.89,0.27c-0.27,0.23-0.54,0.46-0.81,0.69c0.29,0.2,0.58,0.4,0.87,0.6
			C178.37,282.84,178.98,282.32,179.59,281.8z"/>
		<path class="st2" d="M278.27,247.16c-0.3,0.24-0.6,0.48-0.9,0.72c-0.42-0.84-0.96-1.64-1.39-2.44c-0.56-1.04-1.11-2.1-1.67-3.14
			c0.1-0.08,0.2-0.17,0.3-0.25c0.33-0.27-0.12-0.85-0.46-0.59c-0.07,0.06-0.15,0.12-0.22,0.17c-0.46-0.82-0.93-1.62-1.46-2.4
			l-0.01,0.01c-0.18-0.26-0.66-0.12-0.53,0.22c0.36,0.95,0.78,1.86,1.22,2.77c-1.35,1.04-2.69,2.08-4.03,3.12
			c-0.39-0.87-0.77-1.74-1.19-2.58c-0.13-0.27-0.57-0.08-0.48,0.2c0.31,0.97,0.65,1.94,1.01,2.9c-1.09,0.84-2.18,1.68-3.27,2.53
			c-0.24-0.63-0.49-1.27-0.73-1.9c-0.12-0.32-0.64-0.19-0.53,0.14c0.24,0.72,0.47,1.45,0.7,2.18c-0.71,0.55-1.42,1.12-2.13,1.67
			c-0.19,0.67-0.42,1.32-0.67,1.97c1.05-0.85,2.11-1.7,3.16-2.55c0.67,2.11,1.33,4.22,2.05,6.32c-1.48,1.21-2.97,2.43-4.45,3.65
			c-0.22-0.78-0.44-1.55-0.68-2.33c-0.17-0.56-0.33-1.11-0.5-1.66c0,0.01-0.25-0.83-0.45-1.12c0.05-0.14,0.04-0.25,0-0.35
			c-0.13,0.26-0.28,0.51-0.42,0.77c0.32,1.75,0.81,3.54,1.38,5.24c-0.62,0.51-1.22,1.02-1.84,1.53c0.7,0.07,1.4,0.12,2.11,0.16
			c0.11-0.09,0.21-0.18,0.32-0.27c0.21,0.11,0.5,0,0.52-0.3c0.02-0.06,0.03-0.13,0.05-0.19c1.48-1.26,2.96-2.53,4.44-3.8
			c0.5,1.4,1.02,2.79,1.59,4.16c0.27-0.05,0.54-0.12,0.81-0.18c0.12-0.24,0.23-0.48,0.35-0.71c0.12-0.25-0.19-0.52-0.39-0.3
			c-0.07,0.08-0.15,0.15-0.22,0.23c-0.39-1.31-0.83-2.62-1.29-3.91c1.07-0.92,2.14-1.85,3.21-2.78c0.44,1.13,0.96,2.22,1.73,3.13
			c0.11,0.13,0.35,0.03,0.34-0.14c-0.09-1.31-0.53-2.6-1.08-3.86c1.42-1.23,2.83-2.47,4.24-3.71c0.2,0.25,0.42,0.48,0.66,0.67
			c0.19,0.15,0.54,0.08,0.52-0.22c-0.02-0.43-0.12-0.85-0.27-1.26c0.37-0.33,0.74-0.65,1.11-0.97
			C279.23,247.38,278.66,246.85,278.27,247.16z M267.89,255.54c-0.75-2.04-1.54-4.07-2.32-6.09c1.07-0.88,2.15-1.76,3.22-2.63
			c0.55,1.45,1.13,2.88,1.69,4.32c0.23,0.58,0.44,1.18,0.65,1.78C270.06,253.79,268.97,254.66,267.89,255.54z M272.09,252.14
			c-0.36-0.78-0.73-1.54-1.04-2.29c-0.51-1.21-1.01-2.42-1.53-3.63c1.33-1.09,2.66-2.17,3.99-3.26c0.27,0.54,0.54,1.08,0.81,1.62
			c0.62,1.25,1.16,2.88,1.97,4.18C274.88,249.89,273.48,251.01,272.09,252.14z"/>
		<path class="st2" d="M231.4,287.97c0.25-0.01,0.5-0.02,0.75-0.04c0.02-0.08,0.02-0.18-0.03-0.28c-0.04-0.08-0.09-0.17-0.13-0.25
			c1.53-1.26,3.06-2.53,4.59-3.8c0.4,0.99,0.82,1.96,1.24,2.93c0.32-0.13,0.64-0.26,0.95-0.4c-0.41-1.1-0.82-2.2-1.26-3.31
			c1.66-1.37,3.31-2.74,4.96-4.11c0.71,1.2,1.43,2.41,2.16,3.6c0.11-0.11,0.23-0.21,0.34-0.32c0.18-0.17,0.34-0.35,0.51-0.53
			c-0.64-1.19-1.36-2.35-2.14-3.48c1.62-1.35,3.24-2.7,4.86-4.05c0.47,1.03,0.94,2.07,1.43,3.09c0.27,0.56,1.11,0.16,0.97-0.41
			c-0.09-0.35-0.16-0.69-0.27-1.04c-0.05-0.16-0.21-0.2-0.33-0.14c-0.36-0.7-0.74-1.39-1.1-2.09c0.96-0.81,1.93-1.61,2.89-2.42
			c0.05,0.03,0.1,0.06,0.15,0.08c0.29,0.11,0.6-0.28,0.42-0.54l-0.01-0.01c0.03-0.03,0.07-0.06,0.1-0.09
			c0.19-0.93,0.54-1.79,0.78-2.7c-0.72,0.6-1.44,1.2-2.16,1.8c-0.36-0.25-0.72-0.51-1.07-0.77c-0.31-0.23-0.72,0.3-0.41,0.54
			c0.3,0.24,0.61,0.48,0.91,0.72c-0.78,0.66-1.56,1.32-2.35,1.98c-0.36-0.67-0.71-1.34-1.06-2.01c-0.19-0.36-0.7-0.04-0.54,0.31
			c0.33,0.74,0.66,1.48,0.99,2.22c-1.69,1.43-3.39,2.85-5.08,4.29c-1.02-1.4-2.1-2.75-3.16-4.05c-0.19-0.23-0.58,0.07-0.41,0.31
			c1,1.42,1.91,2.9,2.8,4.39c-1.58,1.34-3.16,2.68-4.73,4.02c-0.91-2.25-1.86-4.49-2.86-6.68c3.22-2.56,6.43-5.13,9.65-7.7
			c-0.89,0.16-1.77,0.28-2.66,0.34c-2.54,2.01-5.07,4.02-7.61,6.04c-0.19-0.41-0.38-0.83-0.57-1.23c-0.12-0.25-0.53-0.07-0.45,0.19
			c0.16,0.49,0.33,0.97,0.49,1.46c-3.37,2.69-6.74,5.38-10.11,8.08c-0.01-0.02-0.02-0.04-0.05-0.06c-0.37-0.2-0.71-0.39-1.05-0.63
			c-0.18-0.13-0.44,0.08-0.37,0.29c0.14,0.41,0.3,0.81,0.46,1.21c-0.97,0.77-1.93,1.54-2.89,2.32c0.49,0.19,0.98,0.37,1.46,0.55
			c0.65-0.52,1.3-1.03,1.96-1.55c0.21,0.51,0.43,1.01,0.64,1.52c0.15,0.37,0.3,0.73,0.45,1.1c0.37,0.12,0.74,0.23,1.12,0.34
			c-0.24-0.6-0.53-1.18-0.81-1.76c-0.27-0.56-0.53-1.12-0.8-1.68c3.49-2.77,6.99-5.53,10.47-8.3c0.8,2.32,1.67,4.65,2.58,6.95
			c-1.55,1.32-3.1,2.63-4.65,3.95c-1-1.83-2.22-3.6-3.32-5.31c-0.17-0.27-0.57-0.03-0.43,0.25c0.95,1.86,1.9,3.87,3.02,5.69
			c-0.44,0.38-0.88,0.75-1.33,1.13c0.65,0.06,1.31,0.08,1.98,0.07c0.03-0.02,0.05-0.04,0.08-0.06
			C231.38,287.93,231.39,287.95,231.4,287.97z"/>
		<path class="st2" d="M203.17,288.62c0.33-0.08,0.66-0.15,0.99-0.24c-0.28-0.77-0.55-1.53-0.85-2.3c1.63-1.32,3.26-2.65,4.9-3.97
			c0.59,1.2,1.1,2.69,2.14,3.54c0.04,0.03,0.08,0.04,0.12,0.05c0.11-0.06,0.21-0.13,0.32-0.19c0-0.02,0.02-0.03,0.01-0.06
			c-0.09-1.28-0.92-2.39-1.51-3.51c-0.09-0.16-0.17-0.33-0.26-0.49c2.07-1.66,4.16-3.3,6.25-4.95c0.8,1.76,1.53,3.56,2.67,5.12
			c0.2,0.27,0.71,0.12,0.58-0.25c-0.66-1.88-1.77-3.54-2.79-5.25c5.04-3.97,10.11-7.9,15.2-11.81c-0.31-0.32-0.6-0.67-0.86-1.05
			c-0.03-0.04-0.03-0.08-0.04-0.12c-7.33,5.54-14.56,11.22-21.68,17.03c-0.55-1.04-1.09-2.07-1.64-3.11
			c-0.29-0.56-1.13-0.07-0.84,0.49c0.56,1.09,1.12,2.18,1.68,3.26c-1.6,1.31-3.18,2.64-4.77,3.95c-0.95-2.37-2-4.71-3.18-6.88
			c3.41-2.83,6.84-5.65,10.27-8.45c0.43,0.9,0.88,1.79,1.37,2.66c0.25,0.44,0.87,0.22,0.9-0.24c0.05-0.72,0.2-1.82,0.29-2.6
			c0.03-0.3-0.44-0.35-0.52-0.07c-0.11,0.41-0.22,0.83-0.33,1.24c-0.25-0.59-0.49-1.17-0.74-1.75c1.4-1.14,2.81-2.26,4.22-3.39
			c0.34,1.13,0.68,2.26,1.08,3.36c0.15,0.41,0.84,0.51,0.93,0c0.23-1.26,0.59-2.5,0.88-3.75c0.07-0.31-0.37-0.43-0.48-0.13
			c-0.28,0.75-0.54,1.5-0.81,2.25c-0.24-0.8-0.5-1.6-0.77-2.4c1.37-1.1,2.74-2.21,4.11-3.31c0.18,0.63,0.38,1.25,0.64,1.81
			c0.19,0.4,0.9,0.22,0.85-0.23c-0.09-0.77-0.3-1.55-0.54-2.33c0.99-0.79,1.98-1.57,2.98-2.35c0.02,0.05,0.04,0.1,0.06,0.15
			c0.22,0.54,0.32,1.22,0.93,1.41c0.09,0.03,0.23-0.01,0.27-0.11c0.26-0.6-0.16-1.08-0.44-1.62c-0.06-0.11-0.12-0.23-0.18-0.34
			c1.45-1.14,2.89-2.29,4.34-3.43c0.53,2.77,1.15,5.56,1.91,8.27c-0.05,0.04-0.1,0.08-0.15,0.12c0.8-0.06,1.59-0.04,2.38,0.04
			c1.15-0.88,2.3-1.77,3.46-2.65c0.45,1.16,0.96,2.28,1.52,3.36c0.32,0.04,0.64,0.07,0.96,0.09c-0.38-1.42-0.89-2.82-1.47-4.22
			c1.4-1.06,2.8-2.12,4.19-3.18c0.84,1.99,1.78,3.93,3.03,5.53c0.16,0.21,0.46-0.02,0.41-0.24c-0.45-2.05-1.39-4.07-2.43-6.05
			c1.73-1.31,3.46-2.62,5.19-3.93c1,2.26,2.06,4.51,3.44,6.45c0.23,0.32,0.82,0.14,0.68-0.29c-0.78-2.34-2.03-4.58-3.31-6.78
			c1.8-1.35,3.59-2.71,5.39-4.06c0.94,2.18,1.89,4.38,3.05,6.42c0.19-0.38,0.36-0.76,0.52-1.14c-0.86-1.96-1.89-3.87-2.92-5.77
			c0.12-0.09,0.23-0.18,0.35-0.27c0.36-0.27,0.03-0.88-0.36-0.62c-0.11,0.08-0.22,0.16-0.34,0.23c-0.31-0.58-0.62-1.15-0.91-1.73
			c-0.18-0.35-0.68-0.04-0.52,0.31c0.28,0.61,0.55,1.23,0.82,1.85c-1.88,1.28-3.74,2.58-5.6,3.89c-0.58-0.99-1.16-1.98-1.69-2.96
			c-0.18-0.33-0.65-0.04-0.49,0.29c0.5,1.03,0.97,2.1,1.44,3.19c-1.79,1.26-3.57,2.53-5.35,3.8c-0.72-1.33-1.46-2.63-2.09-3.9
			c-0.18-0.37-0.71-0.05-0.55,0.32c0.6,1.34,1.15,2.79,1.73,4.24c-1.42,1.03-2.84,2.05-4.26,3.09c-0.89-2.02-1.87-4.02-2.7-6
			c-0.13-0.31-0.67-0.09-0.55,0.23c0.79,2.09,1.49,4.31,2.28,6.47c-1.35,1-2.69,2.02-4.04,3.03c-0.68-2.67-1.51-5.34-2.39-7.94
			c6.8-5.35,13.61-10.68,20.37-16.09c0.32-0.25-0.1-0.8-0.43-0.56c-6.93,4.93-13.7,10.07-20.39,15.32
			c-0.17-0.49-0.33-0.98-0.51-1.46c-0.06-0.17-0.31-0.1-0.28,0.08c0.1,0.58,0.22,1.16,0.32,1.75c-1.57,1.23-3.13,2.47-4.7,3.72
			c-0.13-0.24-0.26-0.48-0.4-0.7c-0.15-0.24-0.56-0.09-0.47,0.2c0.1,0.31,0.22,0.62,0.34,0.93c-0.97,0.78-1.94,1.55-2.91,2.33
			c-0.27-0.77-0.56-1.54-0.78-2.28c-0.14-0.46-0.84-0.27-0.72,0.2c0.24,0.88,0.43,1.83,0.64,2.77c-1.4,1.13-2.8,2.27-4.2,3.4
			c-0.6-1.73-1.23-3.46-1.81-5.18c-0.12-0.35-0.65-0.2-0.55,0.15c0.55,1.87,1.05,3.77,1.59,5.66c-1.44,1.18-2.88,2.35-4.32,3.53
			c-1.11-2.62-2.2-5.24-3.14-7.93c10.65-8.11,21.57-15.84,32.23-23.92c0.1,0.19,0.2,0.38,0.3,0.56c0.13,0.22,0.54,0.15,0.52-0.14
			c-0.03-0.31-0.09-0.63-0.13-0.95c1.12-0.85,2.23-1.69,3.34-2.55c0.41-0.32-0.12-0.97-0.55-0.71c-1.02,0.64-2.03,1.31-3.04,1.96
			c-0.51-2.3-1.41-4.62-2.28-6.87c1.65-1.58,3.34-3.1,5.08-4.56c1.01,3.93,1.8,8.08,3.33,11.82c0.17,0.41,0.91,0.41,0.84-0.11
			c-0.06-0.49-0.12-0.96-0.19-1.45c-0.01-0.06-0.04-0.09-0.09-0.11c-0.69-3.37-1.91-6.71-2.86-9.99c-0.08-0.27-0.16-0.55-0.24-0.82
			c1.36-1.12,2.75-2.2,4.17-3.27c0.59,1.88,1.19,3.76,1.78,5.64c0.72,2.29,1.12,5.03,2.65,6.93c0.13,0.17,0.37,0.02,0.38-0.16
			c0.15-2.37-1.13-4.85-1.85-7.09l-1.97-6.06c1.05-0.77,2.11-1.53,3.19-2.28c0.32-0.22,0.04-0.71-0.31-0.52
			c-1.08,0.59-2.14,1.22-3.18,1.89l-0.62-1.92c-0.23-0.7-1.33-0.4-1.11,0.31c0.24,0.76,0.48,1.53,0.72,2.29
			c-1.44,0.96-2.84,1.97-4.2,3.06c-0.7-2.45-1.39-4.9-2.15-7.33c0.87-0.51,1.74-1.02,2.61-1.53c0.31-0.18,0.1-0.71-0.25-0.58
			c-0.92,0.32-1.8,0.73-2.67,1.18c-0.23-0.71-0.45-1.41-0.69-2.11c-0.08-0.24-0.44-0.15-0.38,0.11c0.16,0.77,0.34,1.53,0.52,2.3
			c-1.29,0.72-2.52,1.56-3.68,2.49c-0.75,0.6-1.56,1.26-2.34,1.96c-0.88-2.57-1.78-5.14-2.75-7.68c-0.09-0.22-0.43-0.14-0.37,0.1
			c0.76,2.74,1.61,5.46,2.47,8.18c-1.04,1-1.98,2.09-2.59,3.27c-0.08,0.15-0.05,0.29,0.05,0.41c0.05,0.06,0.1,0.12,0.15,0.18
			c0.13,0.15,0.43,0.08,0.46-0.12c0.04-0.1,0.08-0.19,0.11-0.29c0.01-0.02-0.02-0.05-0.04-0.02c0.42-0.65,1.25-1.52,2.18-2.4
			c0.45,1.4,0.9,2.81,1.35,4.21c0.41,1.29,0.78,2.67,1.16,4.06c-1.55,1.66-3.01,3.4-4.36,5.18c-0.18,0.23,0.21,0.52,0.4,0.31
			c1.38-1.55,2.79-3.03,4.24-4.47c0.62,2.26,1.3,4.54,2.25,6.57c-11.08,7.27-21.68,15.46-32.09,23.71
			c-0.17-0.52-0.36-1.02-0.51-1.55c-0.14-0.46-0.84-0.27-0.72,0.2c0.17,0.63,0.35,1.27,0.53,1.9c-1.74,1.38-3.48,2.77-5.22,4.15
			c-0.03,0.02-0.06,0.05-0.09,0.08c-0.97-2.56-2.02-5.09-2.97-7.62c2.12-1.67,4.23-3.35,6.34-5.02c0.05,0.13,0.1,0.26,0.15,0.39
			c0.23,0.56,0.97,0.47,1.04-0.14c0.05-0.44,0.1-0.88,0.16-1.31c1.07-0.86,2.15-1.72,3.22-2.57c0.58,1.92,1.19,3.82,1.86,5.7
			c0.15,0.4,0.74,0.45,0.87,0c0.15-0.62,0.33-1.24,0.55-1.84c0.06-0.2-0.23-0.31-0.33-0.14c-0.15,0.27-0.33,0.52-0.49,0.77
			c-0.48-1.74-1.02-3.48-1.58-5.2c1.66-1.33,3.31-2.67,4.96-4.01c0.69,2.17,1.43,4.31,2.25,6.41c0.22,0.54,1.15,0.53,1.1-0.15
			c-0.08-1.03-0.14-2.05-0.24-3.08c-0.02-0.22-0.38-0.32-0.42-0.06c0,0.03-0.01,0.05-0.01,0.08c-0.36-1.47-0.76-2.94-1.18-4.41
			c0.16-0.13,0.33-0.27,0.5-0.4c0.29-0.24-0.1-0.75-0.4-0.52c-0.1,0.07-0.19,0.15-0.29,0.22c-1.58-5.4-3.47-10.76-5.07-16.09
			c-0.24-0.81-1.51-0.47-1.27,0.35c1.65,5.55,3.06,11.31,4.8,16.9c-1.68,1.27-3.35,2.54-5.03,3.82c-0.68-2.09-1.38-4.17-2.06-6.25
			c-0.2-0.6-0.38-1.22-0.57-1.83c0.27-0.17,0.53-0.35,0.8-0.52c0.29-0.18,0.03-0.63-0.27-0.46c-0.24,0.14-0.47,0.29-0.71,0.43
			c-1.13-3.67-2.19-7.41-3.66-10.93c-0.09-0.21-0.39-0.14-0.34,0.09c0.81,3.8,2.1,7.55,3.28,11.28c-1.48,0.9-2.95,1.8-4.42,2.71
			c-0.33-0.85-0.65-1.7-0.97-2.55c-0.78-2.06-1.56-4.12-2.35-6.17l-1.19-3.08c-0.05-0.12-0.19-0.38-0.33-0.63
			c0.06,0.03,0.15-0.03,0.1-0.1c-0.21-0.44-0.41-0.87-0.62-1.31c-0.09-0.22-0.43-0.14-0.36,0.1c1.43,4.79,3.01,9.61,4.7,14.38
			c-4.88,3.05-9.71,6.18-14.49,9.4c-0.36-2.61-1.54-5.35-2.52-7.89c1.74-1.17,3.48-2.33,5.23-3.48c0.58,1.34,1.08,2.86,2.05,3.94
			c0.15,0.17,0.38-0.01,0.35-0.2c-0.24-1.35-1.09-2.57-1.72-3.78c-0.05-0.1-0.1-0.2-0.16-0.3c1.98-1.3,3.95-2.62,5.95-3.9
			c0.35-0.23,0.03-0.78-0.33-0.56c-2.02,1.2-4.03,2.43-6.03,3.66c-0.64-1.25-1.28-2.49-1.91-3.74c-0.13-0.25-0.48-0.03-0.37,0.21
			c0.59,1.28,1.19,2.56,1.78,3.84c-1.75,1.08-3.5,2.18-5.24,3.29c-0.11-0.31-0.23-0.62-0.33-0.92c-0.72-2.16-1.44-4.31-2.17-6.46
			c1.4-0.86,2.8-1.73,4.21-2.59c0.42-0.26,0.05-0.89-0.38-0.66c-1.39,0.75-2.77,1.53-4.15,2.31c-0.54-1.59-1.08-3.18-1.64-4.76
			c-0.07-0.19-0.36-0.12-0.31,0.08c0.46,1.66,0.94,3.31,1.42,4.97c-1.9,1.08-3.78,2.18-5.65,3.31c-0.77-2.53-1.54-5.07-2.36-7.58
			c1.68-0.98,3.36-1.95,5.05-2.92c0.38-0.22,0.04-0.78-0.34-0.58c-1.67,0.86-3.33,1.74-4.98,2.64c-0.06-0.19-0.12-0.38-0.18-0.57
			c-0.08-0.25-0.46-0.15-0.4,0.11c0.06,0.23,0.12,0.45,0.17,0.68c-1.53,0.83-3.06,1.67-4.58,2.52c-0.41-1.33-0.81-2.67-1.23-4
			c-0.05-0.17-0.29-0.1-0.26,0.07c0.3,1.41,0.62,2.82,0.94,4.23c-1.22,0.69-2.43,1.38-3.64,2.08c-0.35-1.88-0.73-3.74-1.32-5.52
			c-0.03-0.1-0.17-0.08-0.18,0.02c-0.14,1.96,0.08,4.03,0.46,6.09c-4.22,2.46-8.4,5-12.54,7.59c-0.56-1.75-1.27-3.47-1.97-5.17
			c1.82-1.37,3.63-2.74,5.45-4.11c0.3,0.74,0.63,1.47,1.13,2.1c0.18,0.22,0.47-0.03,0.43-0.25c-0.15-0.83-0.53-1.59-0.91-2.33
			c2.31-1.75,4.64-3.48,6.94-5.23c0.27-0.2,0.02-0.67-0.27-0.46c-2.35,1.66-4.67,3.35-7.01,5.02c-0.02-0.03-0.03-0.06-0.05-0.09
			c-0.65-1.3-1.31-2.61-1.96-3.91c-0.1-0.2-0.44-0.05-0.36,0.15c0.56,1.34,1.11,2.69,1.67,4.03c0.03,0.08,0.07,0.16,0.1,0.24
			c-1.84,1.31-3.68,2.63-5.51,3.95c-0.16-0.39-0.31-0.78-0.46-1.17l-2.77-7.19c3.14-2.29,6.27-4.6,9.39-6.93
			c0.35,1.34,0.78,2.63,1.38,3.77c0.18,0.35,0.68,0.16,0.7-0.19c0.09-1.54-0.14-3.16-0.48-4.78c2.02-1.52,4.03-3.05,6.04-4.6
			c0.42,2.65,0.85,5.34,1.67,7.84c0.19,0.57,1.13,0.5,1.09-0.15c-0.03-0.38-0.08-0.76-0.13-1.14c0.28-0.15,0.57-0.3,0.85-0.45
			c0.13-0.05,0.08-0.25-0.06-0.21c-0.95,0.3,1.13-1.13,1.16-1.15c0.95-0.85,1.92-1.67,2.89-2.5c0.4-0.35,0.83-0.67,1.24-1.01
			c0.21,0.58,0.43,1.15,0.68,1.7c0.25,0.57,1.03,0.14,0.94-0.4c-0.13-0.74-0.3-1.48-0.5-2.21c1.41-1.12,2.84-2.22,4.29-3.28
			c2.3-1.67,4.71-3.17,7.12-4.67c0.09,0.23,0.19,0.47,0.28,0.7c0.73,1.8,1.36,3.92,2.22,5.84c-0.21,0.24-0.42,0.49-0.62,0.74
			c-0.07,0.09,0.05,0.25,0.16,0.2c0.25-0.1,0.5-0.22,0.75-0.34c0.47,0.98,1.01,1.89,1.67,2.67c0.2,0.23,0.65,0.05,0.62-0.26
			c-0.12-1.08-0.45-2.16-0.88-3.21c1.03-0.66,2.02-1.43,2.98-2.2c0.79,2.01,1.65,4.04,2.88,5.68c0.32,0.42,0.97,0.18,0.86-0.36
			c-0.44-2.16-1.53-4.23-2.57-6.25c0.19-0.15,0.38-0.3,0.57-0.44c2.14-1.61,4.56-3.16,6.5-5.06c0.66,1.44,1.31,2.88,1.98,4.31
			c0.16,0.35,0.32,0.71,0.48,1.08c-2.92,2.16-5.56,4.72-7.54,7.44c-0.12,0.17,0.14,0.34,0.28,0.22c2.55-2.24,4.9-4.56,7.65-6.57
			c0.02-0.01,0.04-0.02,0.05-0.04c0.69,1.64,1.45,3.31,2.67,4.47c0.21,0.2,0.68,0.08,0.63-0.26c-0.22-1.81-1.2-3.43-2.12-5.03
			c1.34-0.91,2.71-1.75,4.1-2.58c0.64,1.22,1.33,2.39,2.16,3.41c0.24,0.31,0.76-0.02,0.64-0.37c-0.41-1.26-1.01-2.5-1.69-3.72
			c0.46-0.28,0.93-0.56,1.38-0.84c0.31-0.19,0.11-0.75-0.26-0.61c-0.52,0.2-1.05,0.45-1.57,0.69c-0.95-1.62-2-3.2-2.89-4.74
			c-0.22-0.38-0.78-0.05-0.58,0.34c0.8,1.57,1.53,3.28,2.34,4.94c-1.43,0.72-2.83,1.56-4.2,2.49c-0.94-1.78-1.91-3.54-2.86-5.31
			c0.08-0.09,0.16-0.17,0.24-0.25c0.24-0.27-0.06-0.66-0.38-0.5c-0.07,0.03-0.14,0.07-0.2,0.11c-0.27-0.5-0.54-1-0.81-1.5
			c-0.23-0.42-0.83-0.05-0.63,0.37c0.23,0.51,0.47,1.02,0.7,1.53c-2.12,1.23-4.03,2.94-5.95,4.43c-0.4,0.31-0.81,0.62-1.23,0.92
			c-0.13-0.26-0.26-0.52-0.38-0.78c-1.39-2.93-2.78-5.87-4.29-8.74c-0.17-0.32-0.73-0.1-0.59,0.25c0.47,1.22,0.97,2.43,1.47,3.64
			c-1.23,0.53-2.43,1.12-3.61,1.77c-0.76-1.66-1.54-3.33-2.35-4.97c0.01,0,0.01-0.01,0.02-0.01c0.18-0.12,0.03-0.38-0.17-0.29
			c-0.43-0.85-0.86-1.7-1.31-2.54c-0.07-0.12-0.27-0.04-0.23,0.1c0.31,0.92,0.64,1.83,0.97,2.73c-1.19,0.61-2.34,1.28-3.49,1.97
			c-1.15,0.69-2.45,1.29-3.43,2.22c-0.07,0.07,0,0.2,0.1,0.17c1.29-0.4,2.44-1.24,3.6-1.92c1.13-0.66,2.26-1.33,3.36-2.06
			c0.64,1.71,1.32,3.41,2.01,5.11c-2.51,1.46-4.91,3.13-7.24,4.84c-1.36,0.99-2.7,2.03-4.03,3.1c-0.66-2.2-1.49-4.39-2.16-6.54
			c-0.21-0.68-1.27-0.39-1.07,0.29c0.7,2.35,1.28,4.84,2.06,7.22c-2.05,1.74-4.01,3.59-5.78,5.57c-0.32-2.2-0.86-4.4-1.35-6.56
			c1.11-0.86,2.23-1.72,3.34-2.59c0.19-0.15-0.06-0.48-0.26-0.34c-1.08,0.74-2.16,1.49-3.23,2.23c-0.03-0.16-0.07-0.31-0.1-0.47
			c-0.83-3.89-1.67-7.79-2.67-11.65c-0.08-0.3-0.48-0.16-0.44,0.12c0.49,3.6,1.11,7.2,1.74,10.78c0.12,0.66,0.22,1.34,0.33,2.01
			c-2.06,1.43-4.11,2.88-6.15,4.34c-0.5-2.05-1.14-4.09-1.58-5.98c-0.1-0.46-0.21-0.91-0.31-1.37c0.64-0.49,1.29-0.98,1.93-1.48
			c0.2-0.16-0.06-0.49-0.27-0.35c-0.6,0.4-1.2,0.81-1.8,1.21c-0.8-3.57-1.6-7.16-2.7-10.63c-0.08-0.24-0.5-0.21-0.47,0.06
			c0.47,3.79,1.3,7.56,2.07,11.31c-1.62,1.09-3.23,2.18-4.83,3.29c-0.37-2.27-1-4.55-1.43-6.7c-0.07-0.36-0.14-0.73-0.22-1.1
			c0.36-0.27,0.72-0.53,1.08-0.8c0.21-0.16,0.02-0.51-0.21-0.36c-0.32,0.22-0.65,0.44-0.97,0.66c-0.65-3.32-1.24-6.67-2.13-9.92
			c-0.04-0.14-0.28-0.12-0.26,0.04c0.34,3.49,1.03,6.96,1.6,10.42c-8.1,5.43-16.11,10.98-24.1,16.59c0.02,0.5,0.04,1,0.08,1.5
			c8.09-5.77,16.15-11.59,24.11-17.53c0.4,2.57,0.65,5.39,1.27,8.01c-3.7,2.56-7.37,5.17-11.02,7.8c-0.14-0.01-0.27,0.07-0.32,0.23
			c-2.24,1.61-4.48,3.23-6.71,4.86c-0.68-1.66-1.42-3.28-2.35-4.74c-0.05-0.08-0.17-0.03-0.15,0.06c0.3,1.8,0.88,3.59,1.56,5.36
			c-1.57,1.15-3.14,2.29-4.72,3.44c0.13,0.33,0.29,0.66,0.44,0.99c1.57-1.11,3.13-2.23,4.7-3.34c0.63,1.58,1.31,3.13,1.9,4.65
			c0.28,0.71,0.55,1.45,0.82,2.19c-1.09,0.81-2.19,1.62-3.28,2.43c0.19,0.19,0.36,0.38,0.56,0.56c0.03,0.03,0.07,0.06,0.1,0.09
			c0.99-0.72,1.97-1.43,2.96-2.15c0.78,2.14,1.62,4.29,2.76,6.18c0.37,0.19,0.75,0.37,1.12,0.54c0.01-0.06,0.02-0.12,0-0.19
			c-0.54-2.49-1.65-4.94-2.77-7.33c1.72-1.25,3.45-2.49,5.17-3.74c0.27,0.91,0.56,1.82,0.86,2.72c0.63,1.87,1.32,3.84,2.16,5.73
			c-1.48,1.08-2.96,2.16-4.43,3.24c0.44,0.17,0.88,0.32,1.33,0.46c1.2-0.89,2.4-1.77,3.6-2.66c0.63,1.31,1.37,2.55,2.2,3.68
			c0.88,0.04,1.78,0.03,2.68-0.02c1.4-0.88,2.8-1.77,4.2-2.64c0.25,0.53,0.51,1.06,0.8,1.57c0.19,0.33,0.64,0.1,0.58-0.24
			c-0.12-0.64-0.27-1.27-0.45-1.9c4.12-2.54,8.26-5.04,12.43-7.5c0.41,1.97,0.91,3.91,1.34,5.73c0.2,0.84,0.41,1.69,0.63,2.55
			c-6.06,3.97-12,8.11-17.84,12.35c-0.54,0.39-1.06,0.8-1.6,1.19c-0.35-0.73-0.69-1.45-1.01-2.16c-0.23-0.53-0.99-0.07-0.77,0.45
			c0.32,0.76,0.63,1.54,0.94,2.34c-1.18,0.87-2.35,1.75-3.52,2.63c-0.95-2.67-1.86-5.35-2.63-8.09c-0.09-0.33-0.59-0.19-0.52,0.14
			c0.66,2.85,1.36,5.78,2.16,8.68c-1.58,1.2-3.16,2.42-4.72,3.65c-0.6-1.84-1.31-3.66-1.9-5.45c-0.5-1.5-1.02-3-1.52-4.49
			c2.19-1.49,4.39-2.98,6.61-4.44c0.19-0.13,0.39-0.25,0.58-0.38c-0.44-0.1-0.88-0.21-1.32-0.33c-2.08,1.37-4.15,2.76-6.21,4.15
			c-0.45-1.31-0.88-2.63-1.34-3.94c0.9-0.66,1.8-1.33,2.7-1.99c-0.41-0.19-0.81-0.38-1.2-0.58c-0.63,0.47-1.27,0.93-1.9,1.39
			c-0.07-0.2-0.14-0.4-0.21-0.6c-0.12-0.33-0.63-0.2-0.53,0.15c0.07,0.28,0.16,0.55,0.23,0.83c-1.56,1.14-3.13,2.28-4.68,3.43
			c-0.9-2.88-1.78-5.83-3.06-8.53l0,0c0.95-0.7,1.91-1.39,2.87-2.08c-0.2-0.21-0.38-0.44-0.58-0.67c-0.91,0.67-1.81,1.35-2.72,2.02
			c-0.97,0.72-1.94,1.43-2.91,2.15c0.07,0.28,0.16,0.56,0.24,0.83c0.97-0.7,1.94-1.41,2.91-2.12c0.51,3.02,1.52,6.02,2.45,8.98
			c-0.69,0.51-1.38,1.02-2.07,1.53c0.18,0.36,0.38,0.71,0.58,1.06c0.62-0.45,1.25-0.9,1.87-1.36c0.07,0.22,0.14,0.44,0.2,0.66
			c0.3,1.04,0.6,2.09,0.9,3.14c-0.34,0.24-0.67,0.48-1,0.71c0.19,0.27,0.38,0.55,0.58,0.82c0.24-0.17,0.48-0.34,0.72-0.51
			c0.21,0.73,0.42,1.46,0.63,2.19c0.64,0.75,1.32,1.47,2.03,2.16c-0.53-1.69-1.08-3.37-1.66-5.05c1.5-1.04,3-2.07,4.51-3.1
			c0.41,1.42,0.81,2.84,1.23,4.26c0.59,1.99,1.09,4.1,1.73,6.14c-0.54,0.43-1.08,0.86-1.62,1.28c0.27,0.19,0.53,0.39,0.8,0.57
			c0.38-0.3,0.76-0.6,1.14-0.9c0.25,0.73,0.54,1.43,0.84,2.13c0.41,0.24,0.83,0.47,1.26,0.68c-0.17-1.26-0.47-2.52-0.85-3.77
			c1.56-1.2,3.13-2.4,4.71-3.58c0.88,3.03,1.91,6.02,3.17,8.85c-0.19,0.15-0.37,0.3-0.55,0.45c0.81,0.07,1.58,0.05,2.32,0
			c-0.02-0.06-0.06-0.11-0.12-0.13c1.36-1.05,2.71-2.11,4.07-3.16c0.01,0.01,0.01,0.02,0.02,0.03c0.22,0.33,0.72,0.12,0.63-0.27
			c-0.02-0.07-0.04-0.14-0.06-0.22c0.73-0.56,1.47-1.1,2.2-1.65c-0.16-0.46-0.31-0.92-0.44-1.39c-0.71,0.55-1.44,1.08-2.16,1.63
			c-0.88-2.78-2.28-5.54-3.59-8.23c0.56-0.41,1.11-0.82,1.68-1.23c1.49-1.08,3-2.15,4.51-3.2c0.17-0.42,0.35-0.83,0.56-1.24
			c0.28-0.55,0.93-0.4,1.21,0.02c3.75-2.59,7.53-5.12,11.35-7.6c0.72,2.68,1.62,5.36,2.83,7.79c-2.92,2.04-5.81,4.12-8.67,6.23
			c-0.33-1.41-0.67-2.81-1.03-4.2c-0.03-0.11-0.21-0.09-0.2,0.03c0.2,1.52,0.43,3.05,0.67,4.58c-1.21,0.9-2.4,1.83-3.61,2.73
			c0.11,0.5,0.22,1,0.35,1.49c1.17-0.87,2.33-1.76,3.5-2.63c0.48,2.96,1.01,5.93,1.59,8.88c-0.57,0.43-1.13,0.87-1.69,1.3
			c0.17,0.23,0.35,0.46,0.53,0.68c0.45-0.34,0.9-0.69,1.36-1.03c0.21,1.07,0.45,2.13,0.67,3.19c0.34,0.3,0.71,0.59,1.08,0.87
			c-0.28-1.58-0.55-3.15-0.86-4.73c1.17-0.88,2.34-1.74,3.51-2.61c0.1,0.5,0.21,0.99,0.3,1.49c0.54,2.76,0.82,5.85,1.8,8.52
			c0.3,0.12,0.59,0.25,0.89,0.37c-0.1-2.7-1.07-5.45-1.68-8.06c-0.22-0.94-0.43-1.88-0.64-2.83c1.11-0.82,2.21-1.66,3.33-2.47
			c5.84-4.26,11.76-8.4,17.73-12.47c0.04,0.06,0.08,0.13,0.12,0.2c0.13,0.19,0.46,0.13,0.46-0.12c0-0.15-0.02-0.3-0.03-0.45
			c4.85-3.3,9.73-6.55,14.64-9.75c1.01,2.83,2.06,5.63,3.16,8.4c-3.29,2.55-6.57,5.1-9.84,7.67c-0.44-1.3-0.87-2.6-1.32-3.89
			c-0.08-0.23-0.44-0.14-0.37,0.1c0.41,1.38,0.83,2.76,1.24,4.14c-4.63,3.64-9.26,7.28-13.88,10.92c-0.62,0.49-1.24,0.98-1.87,1.47
			c-0.04-0.15-0.07-0.28-0.09-0.35c-0.69-2.37-1.38-4.74-2.06-7.11c-0.08-0.28-0.5-0.16-0.43,0.12c0.64,2.62,1.28,5.25,1.92,7.87
			c-1.84,1.45-3.67,2.9-5.51,4.34c-0.13-0.37-0.27-0.74-0.39-1.11c-0.87-2.73-1.37-5.56-1.67-8.4c-0.05-0.51-0.85-0.52-0.8,0
			c0.29,3.24,0.73,6.97,1.85,10.31c-0.83,0.65-1.65,1.3-2.48,1.95c0.39,0.12,0.78,0.22,1.18,0.32c0.55-0.43,1.1-0.86,1.65-1.29
			c0.24,0.61,0.5,1.2,0.79,1.77c0.39,0.06,0.79,0.1,1.19,0.13c-0.29-0.91-0.63-1.8-0.96-2.69c1.81-1.41,3.62-2.82,5.43-4.23
			c0.36,1.46,0.72,2.93,1.09,4.39c0.3,1.2,1.51,2.47,2.5,1.14c0.15-0.2-0.13-0.39-0.31-0.31c-0.93,0.41-2.03-3.5-2.6-5.75
			c0.2-0.16,0.4-0.31,0.61-0.47c1.89-1.48,3.78-2.95,5.68-4.43c1.28,0.99,2.27,2.18,3.05,3.61c0.62,1.14,0.74,2.32,0.99,3.5
			c0.96-0.58,1.95-1.14,3.01-1.63c0.27-0.13,0.6-0.1,0.87,0.03c1.51-1.21,3.01-2.43,4.53-3.63c0.16,0.38,0.31,0.76,0.5,1.13
			c0.13,0.25,0.44,0.06,0.41-0.17c-0.07-0.49-0.17-0.97-0.28-1.46c0.98-0.78,1.95-1.57,2.93-2.34c0.67,1.99,1.39,3.95,2.24,5.84
			c0.19,0.43,0.85,0.12,0.74-0.31c-0.55-2.11-1.25-4.2-2.02-6.28c1.74-1.37,3.49-2.73,5.25-4.07c0.81,2.76,1.77,5.53,2.92,8.17
			c-3.48,2.85-6.93,5.73-10.37,8.63c-0.05,0.01-0.09,0.04-0.1,0.09c-2.14,1.81-4.28,3.62-6.41,5.44c-0.78-1.94-1.57-3.89-2.48-5.77
			c-0.01-0.02-0.03-0.03-0.05-0.04c-0.08,0.09-0.17,0.16-0.25,0.25c0.63,2.06,1.38,4.09,2.14,6.11c-0.38,0.32-0.76,0.64-1.14,0.97
			c-1.51,1.29-3.06,2.58-4.62,3.87c0.4,0.15,0.8,0.29,1.2,0.42c1.11-0.98,2.21-1.95,3.33-2.89c0.53-0.45,1.07-0.89,1.61-1.34
			c0.1,0.28,0.21,0.56,0.31,0.83c0.57,1.52,1.08,3.09,1.71,4.61c0.1,0,0.19,0.01,0.29,0.01c0.26,0,0.53-0.01,0.79-0.01
			c-0.68-1.98-1.6-3.92-2.38-5.83c-0.02-0.06-0.05-0.11-0.07-0.17c2.1-1.76,4.19-3.51,6.3-5.26c0.69,2.45,1.62,4.92,2.63,7.34
			c-1.54,1.28-3.08,2.58-4.62,3.87c0.73-0.04,1.46-0.1,2.19-0.18c0.99-0.81,1.97-1.63,2.96-2.44
			C202.64,287.44,202.91,288.03,203.17,288.62z M236.39,223.66c-0.64-1.87-1.27-3.74-1.9-5.61c0.72-0.66,1.46-1.29,2.08-1.8
			c1.2-1,2.5-1.84,3.83-2.65c0.63,2.55,1.32,5.08,1.99,7.61c-1.8,1.5-3.52,3.1-5.15,4.78C236.94,225.21,236.65,224.43,236.39,223.66
			z M185.58,203.33c0.53,1.26,1.07,2.52,1.61,3.77c0.27,0.63,0.53,1.28,0.79,1.95c-1.02,0.74-2.04,1.51-2.97,2.35
			c-0.64-1.38-1.38-2.73-1.97-4.04c-0.28-0.61-0.56-1.22-0.84-1.84C183.33,204.8,184.46,204.07,185.58,203.33z M129.77,234.83
			c-0.42-0.91-0.83-1.81-1.21-2.7c-0.55-1.31-1.05-2.68-1.59-4.04c2.15-1.53,4.3-3.05,6.45-4.59c0.4,2.5,0.96,4.97,1.64,7.4
			C133.29,232.21,131.53,233.52,129.77,234.83z M134.01,223.08c3.64-2.61,7.26-5.24,10.85-7.91c0.22,0.76,0.46,1.51,0.77,2.21
			c0.09,0.21,0.39,0.09,0.4-0.11c0.05-0.95-0.01-1.91-0.12-2.89c1.62-1.21,3.23-2.43,4.83-3.65c0.48,2.39,0.78,5.11,1.35,7.68
			c-3.19,2.29-6.37,4.61-9.54,6.94l-0.7-1.82c-0.12-0.32-0.63-0.19-0.52,0.14c0.24,0.68,0.47,1.37,0.71,2.05
			c-2.06,1.52-4.12,3.04-6.17,4.57C135.16,227.91,134.55,225.51,134.01,223.08z M137.26,234.42c-0.38-1.01-0.73-2.02-1.06-3.05
			c2.08-1.51,4.16-3.01,6.23-4.53c0.81,2.35,1.62,4.69,2.43,7.04c0.17,0.5,0.34,1.01,0.51,1.52c-1.94,1.39-3.88,2.77-5.81,4.17
			C138.75,237.88,137.93,236.18,137.26,234.42z M141.96,245.06c-0.54-1.52-1.21-2.99-1.9-4.45c1.88-1.4,3.75-2.83,5.63-4.24
			c0.55,1.73,1.13,3.48,1.83,5.15C145.66,242.69,143.8,243.87,141.96,245.06z M124.72,256.58c-0.31-0.91-0.62-1.82-0.93-2.73
			c-0.11-0.33-0.21-0.67-0.32-1c1.55-1.13,3.09-2.28,4.64-3.42c0.37,1.35,0.78,2.68,1.16,4.02
			C127.75,254.49,126.23,255.53,124.72,256.58z M147.01,266.13c-1.35,1.06-2.7,2.13-4.04,3.2c-1-2.96-2.07-5.89-3.13-8.82
			c1.18-0.88,2.36-1.75,3.55-2.62C144.45,260.7,145.55,263.6,147.01,266.13z M179.87,233.7c0.62,2.12,1.25,4.24,1.87,6.35
			c0.12,0.4,0.23,0.81,0.34,1.23c-1.82,1.17-3.63,2.34-5.44,3.54c-0.47-1.44-0.94-2.86-1.35-4.25c-0.33-1.13-0.68-2.26-1.01-3.39
			C176.14,236.01,178,234.85,179.87,233.7z M174.29,240.84c0.41,1.54,0.77,3.15,1.15,4.77c-1.36,0.91-2.72,1.82-4.07,2.74
			c-0.7-2.67-1.4-5.33-2.14-8c1.41-0.89,2.82-1.78,4.23-2.66C173.73,238.74,174.01,239.79,174.29,240.84z M171.12,228.69
			c0.65,2.61,1.33,5.21,2.02,7.81c-1.43,0.86-2.85,1.73-4.26,2.62c-0.73-2.61-1.48-5.21-2.26-7.8
			C168.12,230.44,169.62,229.56,171.12,228.69z M163.59,239.91c-0.54-1.98-0.89-4.03-1.26-6.07c1.22-0.72,2.44-1.44,3.67-2.16
			c0.61,2.69,1.26,5.37,1.93,8.04c-1.23,0.78-2.46,1.55-3.68,2.35C164.02,241.35,163.79,240.63,163.59,239.91z M164.64,243.29
			c1.2-0.77,2.4-1.54,3.61-2.31c0.68,2.7,1.39,5.38,2.1,8.06c-1.03,0.7-2.05,1.42-3.07,2.13
			C166.49,248.52,165.52,245.92,164.64,243.29z M167.18,262.76c-1.03,0.76-2.05,1.54-3.08,2.31c-0.43-1.87-0.89-3.74-1.48-5.54
			c-0.04-0.11-0.23-0.1-0.21,0.03c0.22,2.02,0.62,4.01,1.04,6.01c-1.17,0.87-2.33,1.74-3.49,2.62c-0.56-2.9-1.17-5.81-1.83-8.68
			c3.06-2.25,6.13-4.48,9.22-6.68c0.07-0.03,0.14-0.07,0.19-0.13c1.06-0.75,2.12-1.49,3.19-2.24c0.19,0.72,0.37,1.44,0.56,2.15
			c0.2,0.74,1.27,0.42,1.14-0.31c-0.05-0.26-0.09-0.52-0.14-0.78c-0.01-0.07-0.05-0.11-0.1-0.13c-0.14-0.55-0.3-1.1-0.44-1.64
			c1.34-0.94,2.67-1.89,4.02-2.82c0.57,2.3,1.23,4.56,2.22,6.61c0.16,0.33,0.72,0.18,0.69-0.19c-0.21-2.43-0.88-4.88-1.63-7.3
			c1.77-1.22,3.55-2.42,5.34-3.63c0.65,2.67,1.28,5.58,2.53,7.88C178.91,254.33,173.01,258.49,167.18,262.76z M201.6,240.28
			c1.45-0.94,2.89-1.88,4.34-2.81c0.17,0.53,0.33,1.06,0.49,1.58c0.67,2.22,1.31,4.47,1.97,6.7c-1.25,0.95-2.49,1.91-3.73,2.87
			C203.71,245.82,202.66,243.05,201.6,240.28z M189.31,272.32c-0.46-2.62-2.7-5.23-4.68-6.64c3.06-2.38,6.11-4.77,9.16-7.16
			c0.31,1.03,0.62,2.07,0.93,3.11c0.5,1.65,0.93,3.39,1.51,5.05C193.92,268.55,191.61,270.42,189.31,272.32z M197,266.07
			c-0.47-1.56-1.1-3.1-1.6-4.62c-0.37-1.1-0.75-2.2-1.12-3.3c1.02-0.8,2.05-1.6,3.08-2.41c0.85,2.64,1.64,5.34,2.51,8.01
			C198.9,264.51,197.95,265.3,197,266.07z"/>
		<path class="st2" d="M272.27,267.29c-0.61,0.48-1.21,0.96-1.81,1.44c-0.76-0.51-1.63-0.85-2.54-0.99
			c-0.21-0.03-0.3,0.26-0.09,0.33c0.78,0.23,1.48,0.59,2.11,1.08c-1.62,1.29-3.23,2.59-4.83,3.89c-1.25-2.03-2.52-4.05-3.76-6.08
			c-0.26-0.43-0.93-0.04-0.68,0.4c1.21,2.11,2.4,4.24,3.6,6.37c-1.25,1.02-2.5,2.05-3.74,3.07c-1.2-1.89-2.47-3.73-3.6-5.58
			c-0.35-0.57-1.25-0.05-0.9,0.53c1.15,1.92,2.25,3.96,3.41,5.96c-1.23,1.02-2.46,2.04-3.68,3.06c-0.26-0.41-0.52-0.81-0.72-1.19
			c-0.79-1.45-1.45-3.12-2.59-4.34c-0.12-0.13-0.3,0.01-0.27,0.16c0.32,1.64,1.28,3.19,1.99,4.69c0.21,0.44,0.4,0.97,0.62,1.49
			c-0.86,0.72-1.72,1.44-2.58,2.16c0.5,0.01,0.99,0.02,1.49,0.02c0.51-0.42,1.01-0.83,1.52-1.25c0.25,0.47,0.54,0.9,0.92,1.22
			c0.23-0.01,0.47-0.02,0.7-0.04c0.05-0.68-0.2-1.37-0.56-2.05c1.23-1.01,2.46-2.03,3.69-3.05c0.81,1.34,1.68,2.63,2.62,3.84
			c0.35-0.15,0.7-0.32,1.04-0.51c-0.01-0.06-0.01-0.13-0.02-0.19c-0.02-0.21-0.24-0.26-0.37-0.14c-0.63-1.33-1.38-2.63-2.17-3.92
			c1.23-1.02,2.46-2.05,3.69-3.08c0.84,1.47,1.68,2.92,2.56,4.36c0.39-0.43,0.75-0.86,1.08-1.3c-0.02-0.3-0.03-0.61-0.06-0.91
			c-0.03-0.27-0.4-0.35-0.48-0.07c-0.06,0.21-0.11,0.42-0.16,0.63c-0.68-1.15-1.38-2.28-2.08-3.42c1.65-1.39,3.3-2.79,4.93-4.2
			c0.01,0.01,0.02,0.01,0.02,0.02c0.41,0.41,0.72,0.89,0.99,1.39c0.03,0.05,0.05,0.11,0.07,0.16c0.12-0.38,0.23-0.76,0.34-1.14
			c-0.24-0.28-0.49-0.53-0.7-0.74c-0.06-0.06-0.13-0.1-0.18-0.15c0.47-0.4,0.94-0.8,1.4-1.21c0.06-0.26,0.11-0.52,0.16-0.78
			C272.52,267.2,272.39,267.2,272.27,267.29z"/>
		<path class="st2" d="M255.37,267.91c1.04-0.88,2.08-1.76,3.12-2.64c-0.51-0.2-1.01-0.44-1.51-0.7c-0.22,0.19-0.45,0.37-0.67,0.56
			C256.14,266.07,255.83,267.03,255.37,267.91z"/>
		<path class="st2" d="M285.21,191.25c0.14,0.24,0.58,0.08,0.47-0.2c-1.36-3.23-3.04-6.47-4.84-9.5c-0.02,0.28-0.05,0.55-0.08,0.83
			C282.05,185.41,283.55,188.45,285.21,191.25z"/>
		<path class="st2" d="M272.56,160.96c-0.17-1.13-1.21-2.14-1.88-3.03c-0.7-0.94-1.38-2.02-2.29-2.75c-0.14-0.12-0.41-0.01-0.34,0.2
			c0.37,1.11,1.12,2.09,1.75,3.07c0.38,0.59,0.76,1.33,1.23,1.95c0.42,0.32,0.83,0.65,1.22,0.99
			C272.46,161.36,272.6,161.17,272.56,160.96z"/>
		<path class="st2" d="M277.08,237.69c0.65,0.9,1.31,1.79,1.96,2.69c0.58,0.79,0.98,1.6,1.89,2.02c0.21,0.1,0.4-0.06,0.36-0.28
			c-0.15-0.98-0.83-1.62-1.42-2.38c-0.68-0.87-1.36-1.75-2.04-2.63C277.5,236.68,276.76,237.25,277.08,237.69z"/>
		<path class="st2" d="M123.37,178.86c0.01-4.05-0.91-8.41-1.52-12.3c-0.03-0.16-0.28-0.12-0.28,0.04
			c0.02,3.42-0.13,7.25,0.27,10.83C122.32,177.94,122.83,178.41,123.37,178.86z"/>
		<path class="st2" d="M86.56,229.17c0.04-0.03,0.09-0.05,0.13-0.08c0.06,0.11,0.12,0.22,0.18,0.34c0.67,0.54,1.37,1.05,2.08,1.57
			c-0.41-0.85-0.82-1.7-1.23-2.55c0.62-0.39,1.24-0.77,1.86-1.16c0.42,1.36,0.89,2.68,1.47,3.93c0.07,0.15,0.23,0.19,0.38,0.17
			c0.07-0.32,0.15-0.64,0.24-0.95c-0.15-1.32-0.42-2.65-0.75-3.98c0.52-0.33,1.04-0.65,1.57-0.98c-0.2-0.25-0.38-0.5-0.57-0.76
			c-0.41,0.26-0.83,0.52-1.24,0.78c-0.59-2.19-1.33-4.37-1.99-6.49c-0.23-0.57-0.45-1.15-0.64-1.75c-0.34-1.07-0.6-2.16-0.83-3.25
			c-0.34-1.16-0.67-2.33-1.01-3.49c0.14-0.09,0.29-0.18,0.43-0.27c-0.04-0.42-0.06-0.83-0.08-1.25c-0.22,0.14-0.44,0.28-0.66,0.42
			c-0.78-2.66-1.57-5.32-2.35-7.98c-0.04-0.13-0.23-0.08-0.2,0.06c0.67,2.76,1.35,5.51,2.02,8.27c-1.31,0.85-2.63,1.69-3.94,2.53
			c-0.46-1.64-0.88-3.29-1.3-4.94c0.97-0.42,1.93-0.84,2.89-1.29c0.23-0.11,0.06-0.44-0.16-0.39c-1,0.22-1.98,0.5-2.94,0.82
			c-0.27-1.06-0.53-2.12-0.81-3.19c-0.08,0.33-0.17,0.66-0.24,0.99c0.11,0.81,0.23,1.62,0.38,2.43c-0.3,0.11-0.6,0.23-0.9,0.35
			c-0.05,0.37-0.1,0.75-0.14,1.12c0.41-0.18,0.82-0.36,1.22-0.54c0.34,1.72,0.77,3.43,1.24,5.13c-0.37,0.24-0.74,0.48-1.11,0.71
			c-0.46,0.29-0.93,0.59-1.39,0.88c0.04,0.37,0.09,0.73,0.14,1.09c0.58-0.37,1.17-0.74,1.75-1.11c0.3-0.19,0.6-0.37,0.9-0.56
			c0.46,1.58,0.96,3.14,1.48,4.68c-0.94,0.6-1.87,1.21-2.8,1.81c0.13,0.32,0.28,0.64,0.43,0.96c0.91-0.59,1.8-1.2,2.71-1.78
			c1.02,2.93,2.17,5.91,3.52,8.78c-0.16,0.1-0.32,0.2-0.48,0.3C86.06,228.76,86.31,228.97,86.56,229.17z M81.72,213.32
			c1.31-0.82,2.61-1.63,3.92-2.44c0.39,1.6,0.78,3.21,1.17,4.81c-0.77,0.49-1.54,0.98-2.31,1.47c-0.43,0.28-0.87,0.56-1.3,0.83
			C82.66,216.44,82.17,214.88,81.72,213.32z M83.56,218.95c0.49-0.31,0.96-0.63,1.45-0.94c0.68-0.43,1.37-0.85,2.06-1.27
			c0.75,3.09,1.35,6.44,2.24,9.61c-0.66,0.41-1.33,0.83-1.99,1.24C85.97,224.77,84.67,221.93,83.56,218.95z"/>
		<path class="st2" d="M98.13,248.58c0.71-0.51,1.43-1.01,2.14-1.52c0.4,1.91,0.78,3.84,1.17,5.78c0.72,0.74,1.48,1.46,2.26,2.14
			c1.44-1.05,2.88-2.1,4.32-3.15c0.41,2.33,0.79,4.74,1.4,7.03c0.51,0.25,1.02,0.49,1.55,0.71c-0.37-2.84-1.18-5.72-1.89-8.5
			c1.28-0.93,2.56-1.86,3.83-2.79c0.11,0.49,0.21,0.97,0.32,1.46c0.58,2.6,1.04,5.32,1.68,7.96c-0.99,0.74-1.99,1.48-2.98,2.22
			c0.26,0.09,0.51,0.2,0.78,0.28c0.16,0.05,0.31,0.09,0.47,0.14c0.68-0.49,1.36-0.98,2.03-1.47c0.19,0.72,0.41,1.43,0.64,2.14
			c0.32,0.07,0.64,0.13,0.97,0.2c-0.15-1.03-0.33-2.06-0.57-3.09c0.71-0.52,1.43-1.04,2.14-1.56c-0.17-0.35-0.34-0.71-0.5-1.08
			c-0.64,0.48-1.29,0.95-1.93,1.43c-0.53-2.13-1.17-4.25-1.7-6.35c-0.23-0.92-0.48-1.83-0.72-2.74c0.66-0.48,1.32-0.96,1.99-1.45
			c-0.03-0.31-0.06-0.63-0.07-0.94c-0.71,0.53-1.42,1.05-2.13,1.57c-0.68-2.59-1.35-5.19-2.04-7.78c0.13-0.1,0.27-0.19,0.4-0.29
			c0.57-0.41,1.14-0.81,1.7-1.21c-0.5,0-1-0.04-1.51-0.09c-0.22,0.16-0.45,0.33-0.67,0.49c-0.06,0.04-0.12,0.09-0.18,0.13
			c-0.01-0.03-0.02-0.06-0.02-0.09c-0.05-0.18-0.32-0.11-0.28,0.08c0.01,0.07,0.03,0.13,0.04,0.2c-1.32,0.95-2.63,1.91-3.94,2.86
			c-0.44-1.86-0.91-3.71-1.43-5.54c-0.16-0.07-0.33-0.15-0.49-0.23c0.3,2.13,0.69,4.24,1.11,6.35c-1.66,1.2-3.32,2.41-4.98,3.61
			c-0.55-2.56-1.05-5.26-1.73-7.86c1.37-0.95,2.73-1.91,4.1-2.87c-0.41-0.22-0.81-0.45-1.21-0.68c-1.08,0.77-2.16,1.54-3.24,2.31
			c-0.39-1.32-0.84-2.61-1.4-3.82c-0.02-0.04-0.07-0.02-0.07,0.02c0.02,1.48,0.21,2.99,0.49,4.51c-0.94,0.67-1.87,1.35-2.8,2.02
			c0.05,0.42,0.11,0.84,0.17,1.25c0.96-0.67,1.92-1.33,2.88-2c0.55,2.64,1.29,5.29,1.85,7.8c-0.78,0.57-1.56,1.14-2.33,1.7
			C97.87,248.13,98,248.35,98.13,248.58z M111,239.43c0.57,2.67,1.15,5.34,1.74,8.01c-1.28,0.95-2.56,1.9-3.85,2.84
			c-0.1-0.41-0.21-0.83-0.3-1.24c-0.51-2.27-1-4.55-1.53-6.82C108.37,241.3,109.69,240.37,111,239.43z M106.22,242.83
			c0.44,2.17,0.91,4.33,1.35,6.5c0.11,0.56,0.22,1.12,0.32,1.69c-1.55,1.14-3.1,2.29-4.64,3.43c-0.58-2.43-1.25-4.85-1.82-7.25
			c-0.06-0.27-0.12-0.55-0.18-0.83C102.9,245.19,104.56,244.01,106.22,242.83z"/>
		<path class="st2" d="M108,203.05c-0.22,0.12-0.43,0.24-0.65,0.35c0.88,0.78,1.83,1.44,2.82,2.02c-0.13-0.6-0.27-1.2-0.42-1.79
			c1.56-0.9,3.12-1.81,4.67-2.73c0.25,2.12,0.39,4.4,0.82,6.55c0.5,0.12,1,0.2,1.51,0.28c-0.22-2.31-0.85-4.67-1.24-6.86
			c-0.03-0.19-0.06-0.37-0.1-0.56c0.72-0.43,1.43-0.85,2.15-1.28c0.34-0.2,0.04-0.67-0.3-0.52c-0.67,0.3-1.33,0.62-2,0.93
			c-0.59-3.42-1.17-6.84-1.93-10.22c-0.05-0.2-0.38-0.16-0.37,0.05c0.31,3.55,0.85,7.09,1.33,10.62c-1.64,0.78-3.27,1.58-4.89,2.42
			c-0.41-1.55-0.83-3.1-1.21-4.64c-0.51-2.08-1.02-4.15-1.54-6.22c-0.26-1.04-0.52-2.07-0.78-3.11c-0.07-0.27-0.94-3.55-0.56-3.42
			c0.09,0.03,0.17-0.1,0.1-0.17c-0.26-0.22-0.51-0.44-0.77-0.65c-0.17-0.14-0.54-0.07-0.5,0.21c0.51,3.9,1.54,7.77,2.39,11.61
			C107.06,198.25,107.49,200.66,108,203.05z"/>
		<path class="st2" d="M253.04,258.79c0.91-0.88,1.69-1.79,2.37-2.73c-2.52,1.98-5.05,3.96-7.57,5.95
			C249.77,261.26,251.56,260.22,253.04,258.79z"/>
		<path class="st2" d="M152.62,150.02h0.03c-1.3-5.31-3.52-10.72-5.69-15.74c-0.13-0.3-0.56-0.08-0.5,0.21
			c1.21,5.29,2.63,10.92,4.7,15.94C151.56,151.39,152.85,150.91,152.62,150.02z"/>
		<path class="st2" d="M147.42,177.72c0.19,0.03,0.36-0.02,0.46-0.19c0.47-0.76-0.17-1.55-0.52-2.25c-0.49-0.98-1.04-2.06-1.78-2.88
			c-0.13-0.15-0.43-0.04-0.41,0.17c0.1,0.98,0.47,1.97,0.8,2.89C146.26,176.23,146.49,177.55,147.42,177.72z"/>
		<path class="st2" d="M205.89,100.12c-0.51-0.12-0.94-0.02-1.39,0.22c-0.38,0.2-0.18,0.74,0.21,0.77c1.07,0.06,1.09,1.23,1.04,2.03
			c-0.01,0.15,0.14,0.31,0.3,0.3c1.18-0.09,1.43-1.4,1.04-2.31C206.89,100.69,206.36,100.23,205.89,100.12z"/>
		<path class="st2" d="M152.62,170.48c0.56,0.69,1.66-0.4,0.97-0.97c-0.68-0.56-1.38-1.08-2.1-1.59c-0.26-0.18-0.61,0.18-0.43,0.43
			C151.56,169.08,152.07,169.79,152.62,170.48z"/>
		<path class="st2" d="M164.64,132.78c-0.2-0.39-0.4-0.79-0.6-1.18c0.05,0.34,0.13,0.68,0.23,1.01
			C164.32,132.79,164.5,132.83,164.64,132.78z"/>
		<path class="st2" d="M200.47,137.88c0.3,0.34,0.92,0.07,0.89-0.37c-0.07-1.34-0.81-2.58-1.33-3.8c-0.66-1.52-1.3-3.04-1.94-4.56
			c-0.27-0.63-1.37-0.17-1.11,0.47c0.6,1.54,1.21,3.08,1.79,4.62C199.25,135.49,199.59,136.87,200.47,137.88z"/>
		<path class="st2" d="M153.36,135.22c-0.25-0.43-0.96-0.14-0.81,0.34c1.02,3.31,2.24,7.05,4.09,9.99c0.47,0.74,1.37,0.09,1.2-0.52
			c0.01,0,0.01,0,0.02,0.01C156.97,141.67,155.08,138.23,153.36,135.22z"/>
		<path class="st2" d="M220.98,122.94c1.17,3.5,2.01,7.54,3.87,10.74c0.05,0.09,0.12,0.15,0.2,0.18c0.19-0.24,0.38-0.48,0.58-0.7
			c-0.69-3.54-2.62-7.08-3.97-10.41C221.5,122.34,220.83,122.49,220.98,122.94z"/>
		<path class="st2" d="M169.29,100.61c0.71,0.46,1.25,1.07,1.58,1.86c0.28,0.68,0.19,1.44,0.86,1.88c0.14,0.09,0.34,0.06,0.46-0.06
			c0.73-0.71,0.12-1.77-0.31-2.48c-0.51-0.83-1.25-1.54-2.09-2.03C169.23,99.45,168.76,100.27,169.29,100.61z"/>
		<path class="st2" d="M180.78,134.37c0.86,2.25,1.56,4.77,2.96,6.75c0.34,0.48,1.27,0.2,1.03-0.43c-0.36-2.34-1.59-4.56-2.5-6.73
			c-0.95-2.26-1.92-4.52-3.05-6.7c-0.24-0.47-1-0.14-0.85,0.36C179.06,129.91,179.93,132.14,180.78,134.37z"/>
		<path class="st2" d="M159.63,133.52c0.47,0.87,1.04,1.63,1.4,2.56c0.33,0.85,0.48,1.75,0.61,2.65c0.03,0.19,0.25,0.41,0.44,0.44
			c0.12,0.02,0.21,0.03,0.33,0c0.25-0.07,0.48-0.33,0.46-0.6c-0.18-1.95-1.21-4.28-2.92-5.36
			C159.74,133.07,159.52,133.32,159.63,133.52z"/>
		<path class="st2" d="M164.96,104.54c-0.35-0.43-1.06,0.13-0.76,0.59c1.61,2.5,2.55,5.08,3.29,7.94c0.24,0.91,1.57,0.42,1.32-0.37
			c0.01,0,0.01,0,0.02,0C168.37,109.7,166.87,106.86,164.96,104.54z"/>
		<path class="st2" d="M175.65,139.74c0.23,0.29,0.75,0.05,0.73-0.3c-0.11-2.19-1.24-4.28-2.04-6.3c-0.8-2-1.46-4.41-2.91-6.03
			c-0.11-0.12-0.3-0.02-0.3,0.13c-0.01,2.16,1.08,4.29,1.79,6.3C173.65,135.62,174.26,138,175.65,139.74z"/>
		<path class="st2" d="M175.14,207.66c0.15,0.11,0.34-0.04,0.34-0.2c0.01-0.66-0.31-1.18-0.63-1.72c-0.39-0.65-0.75-1.3-1.11-1.96
			c-0.17-0.31-0.6-0.04-0.46,0.27c0.33,0.75,0.65,1.5,0.95,2.26C174.43,206.85,174.67,207.31,175.14,207.66z"/>
		<path class="st2" d="M120.23,259.76c-0.77,0.55-1.54,1.09-2.31,1.64c0.45,0.09,0.9,0.17,1.35,0.27c0.51-0.36,1.01-0.72,1.52-1.08
			C120.6,260.32,120.41,260.04,120.23,259.76z"/>
		<path class="st2" d="M194.71,98.24c0.55,1.32,1.09,2.64,1.62,3.97c0.35,0.88,0.58,2.11,1.62,2.34c0.17,0.04,0.34-0.02,0.42-0.17
			c0.54-0.92-0.19-1.91-0.6-2.78c-0.61-1.29-1.22-2.59-1.82-3.88C195.63,97.02,194.41,97.53,194.71,98.24z"/>
		<path class="st2" d="M117.79,233.36c-0.81,0.59-1.62,1.17-2.43,1.76c0.36,0.14,0.71,0.3,1.07,0.45c0.6-0.43,1.2-0.85,1.8-1.28
			C118.08,233.99,117.94,233.67,117.79,233.36z"/>
		<path class="st2" d="M222.69,274.62c0.17,0.55,0.22,1.41,0.76,1.74c0.11,0.07,0.25,0,0.29-0.12c0.17-0.6-0.38-1.27-0.63-1.79
			C222.99,274.21,222.62,274.38,222.69,274.62z"/>
		<path class="st2" d="M93.32,201.88c-0.08-0.25-0.48-0.21-0.47,0.06c0.01,0.29,0.03,0.58,0.04,0.87c0,0.04,0.06,0.06,0.07,0.02
			c-0.08,0.18,0.21,1.17,0.4,1.83c-1.15,0.72-2.3,1.46-3.45,2.19c-0.01,0.44-0.01,0.88-0.01,1.32c1.25-0.79,2.5-1.57,3.75-2.37
			c0.28,1.24,0.56,2.47,0.86,3.71c0.09,0.39,0.19,0.78,0.28,1.17c-1.44,0.88-2.85,1.78-4.28,2.68c0.09,0.39,0.18,0.77,0.28,1.16
			c1.43-0.85,2.86-1.71,4.3-2.55c0.4,1.67,0.79,3.35,1.2,5.02c0.35,1.45,0.7,2.89,1.05,4.34c-0.83,0.52-1.65,1.03-2.48,1.55
			c0.18,0.26,0.39,0.51,0.58,0.76c0.71-0.44,1.43-0.89,2.14-1.34c0.17,0.72,0.35,1.43,0.52,2.15c0.23,0.95,0.43,1.93,0.66,2.89
			c0.5,0.47,1.02,0.92,1.56,1.35c-0.25-1.53-0.75-3.04-1.13-4.54c-0.21-0.82-0.42-1.64-0.63-2.46c1.67-1.04,3.35-2.07,5.02-3.11
			c0.08,0.49,0.17,0.97,0.25,1.46c0.65,3.79,1.13,7.7,1.99,11.47c-0.14,0.1-0.29,0.2-0.43,0.31c0.56,0.25,1.13,0.47,1.71,0.68
			c-0.01-0.09-0.02-0.19-0.03-0.28c1.68-1.18,3.37-2.36,5.04-3.54c0.16,1.82,0.39,3.62,0.94,5.28c0.1,0.29,0.59,0.35,0.65,0
			c0.35-1.93,0.08-4.1-0.3-6.19c0.72-0.51,1.42-1.02,2.14-1.53c-0.08-0.49-0.13-0.99-0.18-1.48c-0.74,0.53-1.49,1.04-2.24,1.57
			c-0.11-0.56-0.22-1.11-0.33-1.64c-0.66-3.45-1.58-6.83-2.64-10.18c1.53-0.95,3.06-1.9,4.58-2.85c-0.46-0.12-0.91-0.26-1.36-0.41
			c-1.18,0.74-2.36,1.48-3.55,2.23c-0.06-0.17-0.11-0.35-0.17-0.52c-0.08-0.25-0.47-0.15-0.4,0.11c0.06,0.22,0.12,0.44,0.18,0.66
			c-1.76,1.11-3.52,2.21-5.28,3.32c-0.6-3.06-1.21-6.11-1.95-9.13c0.89-0.5,1.78-1.01,2.67-1.51c-0.38-0.33-0.76-0.67-1.12-1.02
			c-2.75,1.55-5.47,3.15-8.16,4.8c-0.42-1.6-0.84-3.21-1.29-4.8c2.05-1.32,4.09-2.68,6.1-4.05c-0.14-0.22-0.29-0.43-0.42-0.66
			c-2.02,1.17-4.02,2.37-6,3.6C93.79,203.46,93.56,202.67,93.32,201.88z M109.75,214.76c0.71,2.7,1.31,5.42,1.79,8.17
			c0.23,1.34,0.35,2.76,0.46,4.19c-1.71,1.21-3.41,2.43-5.12,3.65c-0.51-3.33-1.3-6.64-1.95-9.92c-0.18-0.92-0.36-1.84-0.54-2.76
			C106.18,216.98,107.96,215.87,109.75,214.76z M101.93,208.07c0.4,3.16,0.94,6.31,1.48,9.45c-1.69,1.07-3.39,2.14-5.09,3.2
			c-0.34-1.34-0.68-2.67-1.02-4.01c-0.45-1.75-0.89-3.5-1.34-5.25C97.95,210.32,99.94,209.19,101.93,208.07z"/>
		<path class="st2" d="M287.69,234.79c0.21,0.2,0.56,0,0.48-0.28c-0.25-0.92-0.75-1.71-1.26-2.5c-0.56-0.86-1.08-1.89-1.87-2.57
			c-0.06-0.05-0.13-0.05-0.19-0.03c-0.03,0.04-0.07,0.08-0.1,0.12c-0.01,0.03-0.01,0.05-0.01,0.09c0.19,0.89,0.73,1.73,1.17,2.53
			C286.43,233.07,286.92,234.04,287.69,234.79z"/>
		<path class="st2" d="M185.29,95.53c0.05,1.21,0.31,2.4,0.55,3.58c0.28,1.37,0.41,2.89,1.1,4.12c0.28,0.5,1.06,0.27,1.06-0.29
			c0.02-1.23-0.48-2.42-0.83-3.59c-0.41-1.33-0.78-2.7-1.39-3.96C185.66,95.16,185.28,95.28,185.29,95.53z"/>
		<path class="st2" d="M172.07,82.58c0.2,0.95,0.37,1.92,0.65,2.84c0.07,0.23,0.22,0.35,0.4,0.39c0.25-0.18,0.51-0.34,0.77-0.51
			c0.01-0.06,0.01-0.13-0.01-0.2c-0.22-0.94-0.56-1.86-0.87-2.78C172.82,81.72,171.94,81.96,172.07,82.58z"/>
		<path class="st2" d="M177.28,82.08c0.26,0.39,0.51,0.78,0.79,1.16c0.3-0.11,0.59-0.22,0.89-0.32c-0.01-0.01-0.01-0.01-0.02-0.02
			c-0.41-0.4-0.84-0.75-1.27-1.13C177.46,81.61,177.11,81.84,177.28,82.08z"/>
		<path class="st2" d="M168.91,89.65c0.24,0.21,0.56,0.06,0.59-0.24c0.12-1.04-0.31-1.95-0.71-2.89c-0.45-1.06-0.84-2.45-1.75-3.2
			c-0.21-0.17-0.46-0.05-0.49,0.2c-0.13,1.04,0.41,2.16,0.76,3.13C167.7,87.73,168.01,88.88,168.91,89.65z"/>
		<path class="st2" d="M144.11,107.18c0.3,1.53,1.4,2.91,2.22,4.2c0.48,0.75,0.94,1.63,1.5,2.4c0.59,0.09,1.17,0.21,1.76,0.34
			c-0.44-1.24-1.4-2.32-2.15-3.38c-0.9-1.27-1.8-2.85-3.12-3.72C144.21,106.95,144.09,107.07,144.11,107.18z"/>
		<path class="st2" d="M134.35,143.07c0.12,0.25,0.5,0.41,0.77,0.31c0.06-0.02,0.11-0.04,0.16-0.07c0.35-0.18,0.39-0.61,0.24-0.93
			c-0.4-0.88-0.84-1.75-1.3-2.6c-0.42-0.77-0.76-1.59-1.51-2.08c-0.11-0.07-0.22,0.03-0.23,0.13c-0.09,0.87,0.31,1.63,0.63,2.42
			C133.49,141.21,133.9,142.15,134.35,143.07z"/>
		<path class="st2" d="M157,105.66c0.76,2.13,1.57,4.24,2.41,6.34c0.85,2.12,1.52,4.49,2.83,6.38c0.37,0.53,1.15,0.2,1.03-0.43
			c-0.38-1.96-1.39-3.78-2.2-5.59c-1.05-2.36-2.12-4.72-3.25-7.04C157.6,104.86,156.83,105.18,157,105.66z"/>
		<path class="st2" d="M179.94,104.71c0.25-1.44-0.55-2.85-1.06-4.17c-0.51-1.33-0.96-2.7-1.85-3.83c-0.14-0.18-0.43-0.02-0.43,0.18
			c-0.01,1.4,0.46,2.72,0.86,4.05c0.4,1.32,0.64,3.02,1.7,3.98C179.4,105.13,179.87,105.07,179.94,104.71z"/>
		<path class="st2" d="M243.39,192.41c0.4,0.38,1.18,0.01,0.98-0.57c-0.38-1.06-1.16-1.97-1.79-2.9c-0.7-1.03-1.41-2.05-2.11-3.08
			c-0.4-0.58-1.33-0.05-0.95,0.55c0.65,1.06,1.31,2.11,1.96,3.17C242.07,190.54,242.58,191.64,243.39,192.41z"/>
		<path class="st2" d="M242.12,195.39c1.92-1.57,3.86-3.13,5.6-4.9c0.21-0.21-0.07-0.61-0.33-0.42c-2.01,1.5-3.85,3.21-5.68,4.92
			C241.44,195.24,241.84,195.62,242.12,195.39z"/>
		<path class="st2" d="M209.38,208.48c1.04-0.74,2.09-1.48,3.12-2.23c1.05-0.76,2.22-1.48,3.04-2.49c0.19-0.23-0.04-0.51-0.3-0.39
			c-0.16,0.07-0.31,0.16-0.46,0.24c-0.33-2.23-1.43-4.4-2.24-6.47c-0.28-0.71-1.42-0.42-1.16,0.32c0.77,2.17,1.36,4.67,2.67,6.6
			c-0.57,0.39-1.12,0.84-1.67,1.26c-1.14,0.88-2.26,1.78-3.39,2.67C208.7,208.2,209.08,208.69,209.38,208.48z"/>
		<path class="st2" d="M214.55,232.39c1.22-0.08,2.31-1.04,3.3-1.7c0.09-0.06,0.17-0.12,0.26-0.18c1.62,4.34,3.26,8.75,5.47,12.73
			c0.2,0.37,0.81,0.12,0.68-0.29c-1.37-4.39-3.46-8.67-5.52-12.88c1.02-0.7,2.03-1.42,3.01-2.19c0.31-0.24-0.08-0.7-0.4-0.52
			c-1.03,0.57-2.04,1.19-3.03,1.83c-0.54-1.1-1.07-2.21-1.58-3.3c-0.09-0.19-0.41-0.05-0.33,0.14c0.46,1.16,0.9,2.34,1.34,3.52
			c-0.14,0.09-0.27,0.17-0.41,0.26c-0.99,0.66-2.34,1.31-2.89,2.41C214.42,232.29,214.46,232.39,214.55,232.39z"/>
		<path class="st2" d="M284.46,216.22c-0.26-0.48-0.97-0.06-0.72,0.42c0.66,1.31,1.24,2.74,2.03,3.99c0.16-0.44,0.31-0.88,0.45-1.33
			C285.67,218.25,285.03,217.24,284.46,216.22z"/>
		<path class="st2" d="M246.46,184.55c-0.37-0.57-1.29-0.03-0.91,0.53c0.57,0.84,1.12,1.78,1.92,2.42c0.19,0.16,0.52,0.02,0.44-0.26
			C247.64,186.26,247,185.4,246.46,184.55z"/>
		<path class="st2" d="M226.67,159.72c0.22,0.14,0.53,0,0.6-0.24c0.29-1.07-0.47-2.19-0.89-3.17c-0.5-1.18-0.95-2.53-1.81-3.49
			c-0.16-0.18-0.47-0.04-0.47,0.19c0.03,1.29,0.62,2.61,1.06,3.81C225.53,157.84,225.71,159.12,226.67,159.72z"/>
		<path class="st2" d="M208.68,161.46c1.55,3.37,3.03,6.78,4.62,10.14c-0.01,0.01-0.03,0.03-0.04,0.04
			c-0.47,0.42-1.32,0.91-1.51,1.54c-0.03,0.09,0.05,0.21,0.15,0.2c0.6-0.05,1.14-0.67,1.61-1.02c0.03-0.03,0.07-0.05,0.1-0.08
			c0.48,1,0.96,2.01,1.47,3c0.38,0.75,1.64,0.23,1.36-0.57s-0.45-1.58-0.62-2.4c-0.05-0.25-0.31-0.28-0.49-0.18
			c-0.14-0.32-0.29-0.63-0.43-0.94c0.08-0.11,0.17-0.21,0.23-0.33c0.09-0.17-0.05-0.39-0.25-0.33c-0.08,0.02-0.16,0.06-0.24,0.1
			c-1.5-3.33-3.08-6.63-4.6-9.95C209.62,159.74,208.26,160.54,208.68,161.46z"/>
		<path class="st2" d="M235.21,123.9c0.3,0.25,0.58,0.53,0.88,0.79c0.04-0.31,0.08-0.62,0.11-0.94c-0.21-0.11-0.41-0.22-0.61-0.35
			C235.29,123.23,234.94,123.67,235.21,123.9z"/>
		<path class="st2" d="M274.97,156.39c-0.2-0.22-0.6,0.08-0.41,0.32c0.42,0.55,0.84,1.1,1.25,1.65c0.39,0.52,0.75,1.21,1.31,1.57
			c0.05,0.03,0.1,0.03,0.15,0.03c-0.23-0.67-0.5-1.31-0.8-1.95C275.97,157.46,275.47,156.92,274.97,156.39z"/>
		<path class="st2" d="M236.02,163.74c0.31,0.62,1.23,0.18,1.08-0.46c-0.63-2.71-1.81-5.33-2.79-7.93
			c-0.99-2.63-1.86-5.43-3.32-7.84c-0.14-0.23-0.45-0.07-0.41,0.17c0.42,2.74,1.52,5.41,2.43,8.02
			C233.94,158.39,234.74,161.2,236.02,163.74z"/>
		<path class="st2" d="M214.35,158.38c1.22,3.55,2.3,7.35,4,10.69c0.29,0.57,1.21,0.17,1.02-0.43c-1.13-3.58-3.01-7.05-4.61-10.44
			C214.65,157.98,214.26,158.14,214.35,158.38z"/>
		<path class="st2" d="M220.93,136.56c-0.48-2.78-1.65-5.49-2.58-8.14c-0.83-2.37-1.6-4.79-2.71-7.05c-0.1-0.2-0.38-0.05-0.34,0.14
			c0.51,2.79,1.48,5.51,2.32,8.21c0.75,2.4,1.37,4.92,2.51,7.17C220.38,137.36,221.01,137.01,220.93,136.56z"/>
		<path class="st2" d="M183.84,172.5c0.29,0.43,0.61,0.82,1.02,1.1c0.36,0.25,0.81-0.16,0.71-0.54c-0.26-0.94-1.05-1.67-1.65-2.42
			c-0.9-1.14-1.79-2.28-2.67-3.44c-0.26-0.34-0.83-0.03-0.58,0.34c0.74,1.11,1.48,2.23,2.2,3.35c0.23,0.35,0.44,0.74,0.67,1.11
			c-2.02,1.26-4.12,2.98-5.67,4.79c-0.37-0.96-0.92-1.86-1.38-2.77c-0.24-0.47-0.5-0.93-0.75-1.39c1.32-0.94,2.6-1.94,3.74-3.07
			c0.27-0.27-0.07-0.67-0.39-0.51c-1.39,0.68-2.7,1.52-3.97,2.42c-0.38-0.68-0.76-1.35-1.13-2.03c-0.23-0.41-0.96-0.12-0.77,0.33
			c0.31,0.76,0.61,1.59,0.91,2.43c-0.96,0.7-1.9,1.41-2.84,2.1c-0.81,0.59-1.64,1.18-2.48,1.78c-0.21-0.41-0.41-0.81-0.59-1.2
			c-0.55-1.21-1.1-2.42-1.65-3.63c2.36-1.63,4.64-3.35,6.72-5.19c0.29-0.26-0.08-0.68-0.4-0.52c-2.38,1.21-4.73,2.63-7.03,4.17
			c-0.3-0.66-0.6-1.31-0.89-1.97c-0.37-0.81-1.53-0.11-1.19,0.69c0.3,0.69,0.6,1.39,0.9,2.08c-0.89,0.61-1.77,1.24-2.64,1.87
			c-0.54-1.21-1.1-2.41-1.68-3.58c1.7-1.1,3.38-2.22,4.97-3.47c0.25-0.2-0.07-0.57-0.33-0.43c-1.75,0.92-3.41,1.98-5.06,3.05
			c-0.6-1.17-1.21-2.32-1.83-3.43c-0.12-0.22-0.46-0.07-0.4,0.17c0.37,1.29,0.77,2.6,1.21,3.92c-0.27,0.18-0.54,0.36-0.82,0.54
			c-1.98,1.3-4.11,2.52-5.85,4.13c-0.17,0.16,0.05,0.38,0.23,0.3c2.39-1.02,4.57-2.63,6.75-4.05c0.44,1.29,0.92,2.58,1.42,3.86
			c-2.18,1.62-4.3,3.29-6.36,4.91c-0.21,0.16,0.06,0.48,0.27,0.35c2.17-1.26,4.4-2.57,6.61-3.93c0.81,1.97,1.7,3.9,2.66,5.69
			c0.34,0.64,1.31,0.1,1.08-0.48c-0.01-0.03-0.02-0.06-0.03-0.1c1.02-0.47,2.01-1.05,2.97-1.67c0.47,1.05,1.04,2.02,1.87,2.69
			c0.21,0.17,0.51,0.07,0.52-0.22c0.08-1.19-0.36-2.36-0.9-3.49c1.15-0.81,2.27-1.65,3.4-2.43c0.61-0.42,1.23-0.85,1.85-1.27
			c0.67,1.79,1.43,3.56,2.53,4.93c0.43,0.54,1.18-0.05,1.06-0.62c-0.02-0.1-0.06-0.19-0.09-0.29c1.06-0.65,2-1.51,2.95-2.3
			C182.02,174.35,182.98,173.47,183.84,172.5z M164.71,179.44c-0.59-1.86-1.29-3.75-2.09-5.62c0.9-0.57,1.8-1.15,2.69-1.75
			c0.39,0.9,0.77,1.79,1.16,2.69c0.31,0.73,0.59,1.55,0.91,2.37C166.44,177.85,165.53,178.6,164.71,179.44z"/>
		<path class="st2" d="M135.69,182.75c-0.36-3.89-0.67-8.24-2.15-11.76c-0.05-0.11-0.25-0.16-0.28,0
			c-0.58,3.73,0.13,7.93,0.71,11.75C134.55,182.76,135.12,182.77,135.69,182.75z"/>
		<path class="st2" d="M128.04,177.51c-0.33-1.92-0.65-3.85-1.17-5.73c-0.08-0.29-0.54-0.24-0.54,0.07
			c0.06,1.95,0.32,3.88,0.57,5.82c0.16,1.21,0.25,2.47,0.53,3.67c0.4,0.17,0.79,0.32,1.18,0.46
			C128.61,180.36,128.28,178.91,128.04,177.51z"/>
		<path class="st2" d="M246.83,127.95c1.01,1.73,1.76,3.55,2.39,5.44c0.1,0.3,0.19,0.6,0.27,0.9c0.1,0.09,0.22,0.17,0.31,0.26
			c0.56,0.52,1.1,1.08,1.62,1.66c-0.28-3.11-2.23-6.25-3.89-8.68C247.24,127.11,246.56,127.49,246.83,127.95z"/>
		<path class="st2" d="M142.51,183.55c0.41-1.67-0.22-3.27-0.65-4.88c-0.47-1.75-0.87-3.71-1.86-5.25
			c-0.13-0.21-0.41-0.11-0.44,0.12c-0.18,1.84,0.4,3.75,0.74,5.56c0.31,1.62,0.53,3.33,1.64,4.61
			C142.11,183.89,142.45,183.78,142.51,183.55z"/>
		<path class="st2" d="M144.76,148.35c-0.22-2.17-1.33-4.23-2.14-6.25c-0.79-1.99-1.45-4.33-2.81-6c-0.09-0.11-0.27-0.02-0.27,0.11
			c0.07,2.13,1.08,4.25,1.78,6.25c0.71,2.04,1.22,4.37,2.48,6.15C144.08,148.98,144.82,148.91,144.76,148.35z"/>
		<path class="st2" d="M154.85,112.97c-0.97-2.4-1.86-4.85-3.07-7.14c-0.15-0.29-0.57-0.08-0.51,0.21c0.64,2.83,1.7,5.57,2.63,8.32
			c0.14,0.42,0.28,0.85,0.42,1.28c0.71,0.31,1.41,0.64,2.08,1.01C155.93,115.4,155.33,114.16,154.85,112.97z"/>
		<path class="st2" d="M139.99,195c-3.07,1.79-6.11,3.62-9.15,5.46c-0.21-0.77-0.46-1.54-0.65-2.29c-0.54-2.09-1.08-4.18-1.61-6.27
			c-0.18-0.69-1.23-0.4-1.06,0.29c0.52,2.09,1.04,4.19,1.56,6.28c0.21,0.86,0.37,1.79,0.6,2.68c-1.97,1.2-3.93,2.42-5.9,3.63
			c-0.3-1.83-0.82-3.67-1.17-5.42c-0.64-3.23-1.29-6.45-1.93-9.68c-0.09-0.45-0.76-0.26-0.68,0.19c0.54,3.26,1.07,6.51,1.59,9.77
			c0.31,1.91,0.48,3.98,0.92,5.93c-1.27,0.79-2.53,1.57-3.8,2.36c0.65,0.04,1.32,0.04,1.98,0.02c0.7-0.44,1.39-0.87,2.09-1.31
			c0.11,0.38,0.24,0.74,0.37,1.11c0.28-0.04,0.57-0.06,0.85-0.11c0.01-0.57-0.01-1.15-0.07-1.73c2.01-1.27,4.03-2.53,6.03-3.81
			c0.21,0.61,0.47,1.19,0.85,1.71c0.13,0.19,0.38,0.11,0.41-0.11c0.1-0.77,0.01-1.55-0.15-2.32c3.07-1.97,6.12-3.96,9.16-5.98
			C140.46,195.23,140.24,194.85,139.99,195z"/>
		<path class="st2" d="M201.5,160.88c0.68-0.64,1.34-1.28,1.96-1.94c0.27-0.29-0.08-0.77-0.43-0.56c-2.2,1.34-4.35,2.94-6.42,4.66
			c-0.66-2.54-1.2-5.23-2.5-7.29c-0.06-0.09-0.22-0.09-0.25,0.03c-0.48,2.58,0.5,5.66,1.46,8.36c-1.65,1.43-3.23,2.92-4.73,4.38
			c-0.27,0.26,0.09,0.62,0.36,0.47V169c1.61-1.07,3.26-2.22,4.87-3.42c0.09,0.24,0.18,0.49,0.26,0.72c0.61,1.77,1.3,3.95,2.22,5.93
			c0.01,0.1,0.05,0.21,0.13,0.27c0.68,1.41,1.48,2.7,2.48,3.62c0.38,0.35,0.94,0,0.84-0.49c-0.28-1.37-0.99-2.45-1.62-3.69
			c-0.01-0.03-0.03-0.06-0.04-0.08c1.23-0.67,2.46-1.34,3.69-2.02c0.15-0.08,0.29-0.16,0.44-0.24c0.78,1.91,1.55,3.88,2.93,5.38
			c0.11,0.12,0.35,0.03,0.33-0.14c-0.25-2.09-1.3-3.95-2.21-5.84c0.96-0.56,1.9-1.16,2.66-1.95c0.2-0.21,0-0.57-0.29-0.49
			c-1.03,0.28-1.97,0.8-2.89,1.35C203.68,165.57,202.59,163.23,201.5,160.88z M203.23,168.86c-1.17,0.72-2.33,1.47-3.49,2.22
			c-0.83-1.69-1.57-3.42-2.25-5.17c-0.16-0.41-0.3-0.83-0.43-1.26c1.26-0.97,2.49-1.98,3.65-3.03c0.98,2.19,1.97,4.38,2.94,6.58
			c0.05,0.1,0.09,0.21,0.14,0.32C203.6,168.63,203.41,168.75,203.23,168.86z"/>
		<path class="st2" d="M241.92,125.83c0.01,0.35,0.01,0.7,0.02,1.05c-0.03,0.18,0.16,0.27,0.27,0.19c0.29,0.98,0.69,1.94,1.05,2.87
			c0.12,0.32,0.25,0.65,0.37,0.97c0.7,0.27,1.38,0.56,2.03,0.89c-0.13-0.79-0.5-1.54-0.81-2.3c-0.55-1.38-1.11-2.86-1.97-4.08
			C242.56,124.95,241.73,125.22,241.92,125.83z"/>
		<path class="st2" d="M191.29,138.68c-1.05-3.31-3.4-6.51-5.18-9.47c-0.26-0.42-0.84-0.05-0.65,0.38c1.39,3.11,2.66,6.84,4.73,9.55
			C190.58,139.64,191.52,139.38,191.29,138.68z"/>
		<path class="st2" d="M188.06,163.17c0.47,0.84,0.88,1.93,1.67,2.51c0.19,0.14,0.52-0.05,0.49-0.28c-0.09-0.98-0.82-1.9-1.29-2.74
			C188.61,162.09,187.74,162.6,188.06,163.17z"/>
		<path class="st2" d="M186.35,81.47c-0.1-0.42-0.42-0.71-0.68-1.04c-0.36-0.45-1.1,0.13-0.79,0.61c0.15,0.23,0.27,0.46,0.44,0.65
			c0.34-0.03,0.69-0.05,1.03-0.06C186.34,81.58,186.36,81.53,186.35,81.47z"/>
	</g>
	<g>
		<path class="st3" d="M191.47,101.57c-10.43-2.6-26.46,4.03-25.06,16.74c0.01,0.12,0.18,0.19,0.24,0.07
			c4.77-9.58,12.8-15.33,23.83-13.23c11.29,2.15,20.32,12.56,20.81,23.93c0.02,0.36,0.55,0.57,0.73,0.2
			C218.21,116.08,202.75,104.38,191.47,101.57z"/>
		<path class="st3" d="M217.85,139.19c-0.6-0.16-1.06,0.6-0.61,1.04c8.51,8.33,12.37,19.91,2.95,29.34
			c-4.38,4.38-10.74,5.53-16.62,4.46c-5.31-0.96-9.02-4.72-12.89-8.12c-0.12-2.84-0.72-5.67-1.53-8.12
			c-2.69-8.14-9.77-13.91-18.11-15.32c-7.23-1.22-14.77,2.79-17.22,9.72c-0.08,0.23,0.24,0.4,0.4,0.24
			c10.28-10.45,25.73-7.29,31.26,6.37c2.64,6.53,1.73,13.47-3.51,18.26c-5.06,4.62-13,3.09-19.17,2.44
			c-0.4-0.04-0.57,0.59-0.21,0.76c7.37,3.36,15.85,3.36,22.7-1.33c3.4-2.33,4.92-5.95,5.31-9.83c2.75,4.73,8.26,7.49,13.48,8.81
			c6.86,1.74,13.8-1.09,18.95-5.52C233.2,163.68,232.26,142.95,217.85,139.19z"/>
		<path class="st3" d="M206.65,135.25c-4.12,1.88-7.9,4.3-12.34,5.39c-5.58,1.37-10.8-1.15-16.21-1.94
			c-0.26-0.04-0.55,0.21-0.37,0.48c6.28,9.6,25.24,6.77,29.52-3.33C207.43,135.44,207.07,135.05,206.65,135.25z"/>
		<path class="st3" d="M225.39,261.95c-6.47,5.81-12.34,11.03-21.74,9.59c-3.9-0.6-7.38-2.67-10.27-5.26
			c-4.26-3.81-4.88-7.49-3.51-12.91c0.11-0.45-0.23-0.86-0.66-0.88c1.59-1.51,2.77-3.51,3.3-6.08c0.05-0.26-0.3-0.43-0.44-0.19
			c-5.68,9.45-19.58,7.09-27.64,2.35c-4.38-2.58-6.79-7.1-7.95-11.87c-0.86-3.55,0.73-7.17,0.28-10.55
			c9.36,1.94,19.68-0.9,21.02-11.68c0.1-0.81-1.1-1.03-1.47-0.4c-6.57,11.41-21.11,10.13-29.78,2.15
			c-8.54-7.86-7.47-19.5-3.36-29.21c0.32-0.75-0.54-1.59-1.2-0.92c-9.94,10.13-6.15,26.71,3.96,35.09c2.41,2,5.52,3.55,8.85,4.49
			c-2.76,2.73-2.59,8.69-1.88,12.03c1.28,6.09,4.45,10.74,9.56,14.26c5.9,4.06,16.8,6.08,23.81,2.58c-1.33,2.13-1.16,5.33-0.15,7.69
			c2.26,5.27,6.58,9.59,11.95,11.71c9.93,3.92,25.83,0.77,28.31-11.4C226.5,261.94,225.84,261.55,225.39,261.95z"/>
		<path class="st3" d="M290.07,219.76c0.09-0.3,0.18-0.59,0.26-0.88c1.02-3.74,1.13-8.42,0.33-13.06c2.49-6.13,1.19-12.88-1.09-18.9
			c-1.47-3.88-4.23-9.63-8.29-11.78c5.01-10.87-4.51-30.6-16.28-31.93c0.89-5.85-0.47-11.95-4.33-16.9
			c-3.26-4.19-7.27-7.16-12.36-8.72c-1.51-0.46-3.31-0.68-5.01-0.48c3.45-6.09-3.75-13.71-9.16-15.96
			c-4.42-1.84-12.74-3.3-19.05-1.75c-1.14-6.92-9.79-13.23-15.72-15.57c-0.03-0.04-0.05-0.08-0.08-0.13
			c-9.87-13.03-35.67-12.74-42.79,3.11c-2.72,0.15-5.37,0.74-7.47,1.66c-5.59,2.44-9.73,6.29-12.57,11.69
			c-2.1,3.98-4.01,11.3-0.37,14.88c-5.11,2.19-8.95,6.6-11.1,11.78c-1.98,4.77-1.94,11.78,1.65,15.81
			c-2.62,0.33-5.23,1.37-7.42,2.72c-5.91,3.66-8.3,11.13-8.2,17.7c0.01,0.44,0.04,0.89,0.09,1.35c-6.28,1.92-10.46,7.33-12.58,13.66
			c-12.46-0.31-21.11,17.46-23.25,27.54c-2.26,10.63,3,27.65,15.76,28.54c-0.46,6.69,2.33,13.97,5.95,19.04
			c5.04,7.07,16.69,13.74,25.5,10.58c0.21-0.07,0.34-0.22,0.42-0.4c1.33,1.56,2.81,3.02,4.43,4.37c3.41,2.84,10.62,6.57,16.7,6.74
			c0.74,4.11,4.23,6.98,8.06,8.42c3.29,1.24,9.84,0.69,11.82-2.74c2.4,1.09,5.3,1.79,8.33,2.02c4.76,6.51,12.86,9.89,20.66,10.93
			c7.21,0.96,18.06-1.17,23.53-7c5.01,5.53,13.72,6.29,20.61,4.63c3.18-0.77,7.33-2.82,10.29-5.61c5.48,5.01,16.18,2.4,21.25-1.98
			c5.46-4.71,9.3-12.44,6.55-19.44c8.2-4.55,14.26-13.96,12.94-23.17c2.85-2.26,4.16-5.96,4.66-9.51
			C293.21,227.74,292.78,222.24,290.07,219.76z M280.79,178.06c0.56,0.84,1.18,1.65,1.78,2.54c1.85,2.74,3.29,5.69,4.43,8.8
			c1.25,3.42,1.72,6.98,2.12,10.55c-1.93-5.33-5.21-9.97-9.89-12.14C280.68,184.81,281.12,181.43,280.79,178.06z M247.33,121.15
			c3.85,0.81,7.17,3.72,9.72,6.54c6.22,6.86,6.13,17.34,2.49,25.27c-0.36,0.79,0.64,1.37,1.15,0.67c1.88-2.57,3.2-5.44,3.92-8.42
			c1.71,1.53,3.72,2.71,5.5,4.21c2.49,2.09,4.33,4.82,5.9,7.64c1.91,3.46,2.55,7.52,2.67,11.4c0.02,0.53-0.01,1.05-0.04,1.57
			c-0.65-1.46-1.41-2.85-2.26-4.12c-3.54-5.28-11.26-10.64-18.01-9.61c0.63-7.97-2.93-16.58-8.55-21.74
			c-2.69-2.47-6.86-4.31-11.14-4.95c1.76-2.2,2.17-5.17,1.78-8.23C242.74,121.12,244.81,120.62,247.33,121.15z M91.2,232.58
			c-4.09-2.81-7.67-5.4-10.3-9.75c-3.3-5.46-3.42-12.06-2.14-18.12c2.18-10.28,9.36-20.1,19.05-24.16
			c-0.35,1.44-0.61,2.92-0.76,4.39c-4.56,1.94-7.32,8.31-8.88,12.52c-2.35,6.34-2.13,13.42-0.12,19.79c1.09,3.47,2.97,6.54,5.3,9.27
			C92.22,228.39,91.52,230.44,91.2,232.58z M160.67,278.56c-1.99,0.97-4.27,1.22-6.43,0.91c-3.32-0.47-5.51-2.73-7.39-5.23
			c2.41-0.47,4.46-1.72,5.75-4.14c0.06-0.11,0.08-0.23,0.08-0.33c2.12,3.48,5.06,6.51,8.26,8.66
			C160.85,278.47,160.77,278.51,160.67,278.56z M289.45,230.56c-0.16,2.51-1.1,4.79-2.04,7.06c-0.45-1.39-1.08-2.77-1.92-4.11
			c-0.4-0.64-1.23-0.19-1.14,0.48c1.18,8.54,0.06,16.72-6.27,23.07c-6.03,6.05-14.62,5.62-22.33,4.33
			c6.69-6.26,10.24-16.82,5.25-25.12c-0.43-0.72-1.76-0.48-1.68,0.45c0.78,8.29,0.01,15.98-6.29,22.06c-3.11,3-7.59,4.33-11.78,4.72
			c-3.7,0.34-7.21-1.17-10.82-0.83c-0.28,0.03-0.53,0.33-0.34,0.6c4.68,6.89,17.45,4.05,23.5-0.13c0.03,1.16,0.02,2.32-0.14,3.48
			c-0.19,1.35-0.78,2.53-1.03,3.83c-0.03,0.16,0.11,0.26,0.25,0.2c2.24-0.99,3.52-3.89,3.75-6.38c5.37,3.02,11.35,2.76,16.66,0.44
			c-0.9,5.44-2.1,10.44-6.14,14.65c-5.31,5.54-11.71,4.21-18.3,4.36c1.4-1.67,2.34-3.55,2.44-5.54c0.03-0.68-0.77-1.09-1.33-0.76
			c-1.99,1.16-3.17,2.96-4.8,4.58c-2.51,2.49-5.57,4.09-8.9,5.17c-6.62,2.14-12.37-0.31-18.4-2.6c0.29-0.41,0.56-0.82,0.79-1.26
			c0.36-0.67-0.24-1.73-1.07-1.4c-2.88,1.14-5.33,2.99-8.06,4.45c-4.5,2.41-9.7,3.23-14.75,3.16c-7.15-0.1-12.97-3.35-18.48-7.3
			c7.14-0.37,14.17-3.36,16.5-9.76c0.29-0.8-0.67-1.29-1.3-1c-4.03,1.87-7.12,4.74-11.46,6.14c-5.03,1.62-10.43,0.7-15.12-1.47
			c-10.2-4.72-11.53-14.34-12.34-24.21c-0.05-0.66-0.99-1.05-1.34-0.36c-2.95,5.79-1.83,12.23,1.31,17.67
			c-0.14-0.08-0.32-0.12-0.51-0.1c-4.35,0.61-7.41,2.15-12.03,1.24c-4.72-0.92-9.08-4-12.55-7.18c-6.18-5.65-9.84-13.97-11.37-22.07
			c-0.04-0.22-0.34-0.14-0.36,0.05c-0.74,7.93,1.79,15.2,6.51,21.16c-3.09-0.86-6.26-1.14-9.35-2.12
			c-4.59-1.46-8.55-4.44-11.81-7.91c-6.54-6.96-6.06-15.39-5.96-24.03c1.37,1.4,2.83,2.7,4.38,3.88c4.42,3.39,11.84,6.92,17.44,5.07
			c0.58-0.19,0.84-1.12,0.19-1.42c-4.3-2.01-8.98-2.44-13.24-4.81c-5.71-3.17-10.01-8.6-12.32-14.64
			c-2.2-5.75-1.76-12.21-0.06-18.01c1.09-3.72,3.65-6.58,5.58-9.7c0.05,3.3,0.62,6.49,1.71,9.23c2.96,7.43,11.07,13.49,19.15,14.35
			c-5.51,9.95-1.46,22.82,6.62,30.31c6.94,6.42,23.51,11.6,29.91,1.89c0.42-0.63-0.28-1.57-1.01-1.31
			c-10,3.54-19.16,3.02-27.29-4.49c-7.49-6.93-7.79-17.03-6-26.29c4.32-0.07,8.5-1.75,11.7-5.65c0.53-0.65-0.12-1.46-0.87-1.13
			c-12.33,5.46-25.14,1.9-29.57-11.76c-1.81-5.58-0.67-11.63,1.84-16.77c2-4.11,5.25-6.82,8.58-9.6
			c2.38,8.84,10.88,18.95,19.68,19.91c0.69,2.64,1.41,5.25,1.91,7.93c0.05,0.25,0.38,0.19,0.45,0c1.01-2.61,1.32-5.31,0.82-8.01
			c2.14-0.34,4.25-1.29,6.26-3.02c0.66-0.57,0.16-1.88-0.74-1.79c-5.09,0.53-9.54,0.7-14.2-1.86c-5.31-2.92-8.66-8.89-10.16-14.53
			c-1.59-5.95,0.53-12.17,4.79-16.39c4.13-4.1,9.97-3.45,15.21-3.12c0.4,0.03,0.52-0.47,0.3-0.72c-1.88-2.19-4.33-3.15-6.91-3.3
			c-0.55-3.97-1.57-7.56-0.89-11.69c1.03-6.26,5.86-10.62,11.65-12.54c13.49-4.48,21.97,7.38,26.39,18.02
			c0.16,0.38,0.86,0.54,0.93,0c2.1-14.98-13.69-24.67-26.89-22.52c-1.24,0.2-2.41,0.53-3.53,0.96c1.3-2.48,1.13-5.34,1.65-8.1
			c0.79-4.23,3.23-7.9,6.25-10.84c6.6-6.42,21.25-8.19,25.07,2.17c0.33,0.88,1.54,0.72,1.61-0.22c0.59-7.08-4.89-10.26-11.04-10.9
			c3.97-3.76,7.76-6.88,13.52-8.42c6.59-1.76,12.69,0.16,18.14,3.46c-7.96-1.1-16.45,0.69-22.05,6.68c-0.56,0.6,0.14,1.37,0.83,1.07
			c8.53-3.64,16.62-5.96,25.78-3.02c4.15,1.33,7.77,4.08,10.79,7.13c1.96,1.97,3.19,4.51,4.93,6.61c-1.96,0.91-3.55,2.25-4.5,4.15
			c-0.1,0.19,0.02,0.4,0.24,0.42c2.54,0.15,4.57-0.98,6.97-1.77c3.31-1.08,6.85-1.22,10.3-1.04c4.2,0.22,8.35,1.88,11.62,4.47
			c3.59,2.83,3.68,6.91,4.92,10.82c-0.72,0.21-1.39,0.53-1.98,0.95c-1.07-3.85-3.13-7.53-5.1-9.74c-4.88-5.48-15.96-8.51-21.76-2.9
			c-0.27,0.26-0.06,0.7,0.29,0.71c7.05,0.24,13.11-0.31,18.66,4.99c2.57,2.45,3.85,6.11,4.29,9.54c0.36,2.88-0.68,5.61-0.62,8.41
			c-4.93-0.01-9.56,1.8-11.72,6.41c-0.21,0.44,0.13,1.08,0.68,0.89c8.75-3.09,15.96-5.3,23.65,1.81c3.93,3.64,5.84,9.13,6.51,14.29
			c0.6,4.62-0.93,9.02-1.19,13.57c-0.03,0.59,0.71,0.65,1,0.27c1.92-2.49,3.07-5.35,3.59-8.35c5.83,2.49,11.13,3.79,15.38,9.32
			c5.11,6.64,3.82,14.4,2.51,21.99c-0.19,1.1,1.1,1.62,1.75,0.74c0.18-0.24,0.33-0.5,0.49-0.75c2.08,3.24,4.65,5.97,6.34,9.54
			c2.14,4.53,2.82,9.58,2.6,14.54c-0.52,12.01-10.59,22.77-23.08,19.36c-0.65-0.18-0.93,0.67-0.43,1.03
			c10.24,7.39,20.51-1.17,25.02-10.74c0.07,0.19,0.13,0.39,0.2,0.6C289.58,226.06,289.59,228.33,289.45,230.56z"/>
		<path class="st3" d="M224.74,213.35c-0.59-0.39-1.33,0.37-0.96,0.96c3.15,5.03,5.52,9.62,5.52,15.71c0,6.58-3.58,12.43-8.82,16.18
			c-12.47,8.92-28.94-2.19-27.77-16.68c0.04-0.55-0.76-0.6-0.92-0.12c-5.31,16.19,13.21,28.94,27.8,21.74
			C233.32,244.36,239.23,222.91,224.74,213.35z"/>
		<path class="st3" d="M219.54,193.61c-0.88-4.69-3.56-11.77-9.05-12.28c-0.47-0.04-0.9,0.52-0.73,0.96
			c1.47,3.91,4.6,6.47,5.76,10.76c1.54,5.73-1,11.6-4.7,15.87c-7.65,8.82-19.69,7.26-29.51,3.95c-0.28-0.09-0.44,0.27-0.27,0.46
			c9.03,10.16,25.47,6.33,33.55-2.91C218.43,206.02,220.63,199.43,219.54,193.61z"/>
		<path class="st3" d="M179.71,184.36c-5.16,0.75-6.66,12.68-2.14,15.03c0.17,0.09,0.34,0,0.41-0.17c0.74-1.87,0.43-4.56,0.59-6.58
			c0.2-2.64,2.35-4.95,2.1-7.56C180.61,184.56,180.23,184.28,179.71,184.36z"/>
		<path class="st3" d="M167.78,186.08c-1.93-1.29-4.68-2.36-6.91-1.35c-0.25,0.11-0.23,0.45-0.08,0.63
			c1.44,1.64,3.64,2.46,5.34,3.82c1.37,1.1,2.89,3.23,4.79,3.24c0.32,0,0.53-0.21,0.64-0.49
			C172.48,189.56,169.46,187.2,167.78,186.08z"/>
		<path class="st3" d="M153.13,152.87c-2.31-3.42-7.16-6.95-11.47-5.67c-0.35,0.11-0.55,0.62-0.23,0.88
			c2.67,2.26,5.81,3.45,8.23,6.11c2.72,3,3.44,7.09,4.34,10.85c0.08,0.34,0.63,0.45,0.79,0.1
			C156.67,161.09,155.53,156.43,153.13,152.87z"/>
		<path class="st3" d="M272.79,193.11c0.11-0.43-0.35-0.76-0.72-0.56c-3.91,2.11-7.65,3.3-12.03,4.05
			c-0.05,0.01-0.08,0.03-0.12,0.05c-2.9-3.31-6.49-5.46-10.44-5.05c1.19-2.16,2.04-4.6,2.43-7.26c1.7-11.39-9.63-23.77-21.36-19.98
			c-0.3,0.1-0.35,0.58,0,0.65c10.14,1.93,18.93,8.19,17.09,19.79c-1.65,10.48-13.04,15.13-22.45,15.44
			c-0.52,0.02-0.62,0.74-0.12,0.9c8.99,2.89,18.09-0.44,23.12-7.5c10.98,2.34,16.6,15.16,14.35,25.46
			c-2.62,11.96-15.67,17.9-26.96,15.61c-1.51-0.31-2.06,1.76-0.63,2.29c15.01,5.47,29.9-4.6,32.06-20.17
			c0.65-4.7-1.37-11.92-5.01-17.44C266.46,200.25,271.56,197.7,272.79,193.11z"/>
	</g>
</g>
</svg>
