<?xml version="1.0" encoding="utf-8"?>
<!-- Generator: Adobe Illustrator 23.0.6, SVG Export Plug-In . SVG Version: 6.00 Build 0)  -->
<svg version="1.1" id="Layer_1" xmlns="http://www.w3.org/2000/svg" xmlns:xlink="http://www.w3.org/1999/xlink" x="0px" y="0px"
	 viewBox="0 0 294.89 294.89" style="enable-background:new 0 0 294.89 294.89;" xml:space="preserve">
<style type="text/css">
	.st0{fill:none;}
	.st1{fill:#21B14B;}
	.st2{fill:#EC1C24;}
	.st3{fill:#4C4C4C;}
	.st4{fill:#2F2F2F;}
</style>
<rect x="-0.43" y="-0.43" class="st0" width="295" height="295"/>
<g>
	<g>
		<path class="st1" d="M223.03,90.5c6.3,0.11,12.03,0.1,17.82-2.08c-3.13,8.31,1.26,17.36-1.62,25.83
			c-1.63,4.8-5.91,8.49-10.55,10.19c-4.23,1.55-8.45,0.8-12.39-0.82c-0.82-0.57-1.67-1.09-2.54-1.59c-1.22-0.71-2.51-1.51-3.84-2.11
			c-0.91-1.05-1.85-2.09-2.83-3.1c2.28-0.46,4.3-1.96,6.23-3.21c2.4-1.55,4.58-3.23,6.53-5.33c0.38-0.41-0.1-1.02-0.59-0.77
			c-3.05,1.57-5.87,3.5-8.8,5.28c-1.42,0.86-2.96,1.45-4.37,2.27c-0.1,0.06-0.26,0.21-0.38,0.38c-0.13-0.13-0.26-0.26-0.39-0.39
			c-1.96-1.9-4.03-3.69-6.14-5.42c-0.85-5.53,1.83-10.08,4.74-14.63C209.11,90.86,216.36,90.38,223.03,90.5z"/>
		<path class="st1" d="M198.21,56.07c6.62,8.91,12.32,20.51,7.01,31.31c-3.23,6.59-9.53,13.17-7.96,20.72
			c-2.73-2.15-5.53-4.22-8.31-6.29c-1.14-0.84-2.28-1.69-3.41-2.54c0.1-1.8-0.19-3.67,0.09-5.47c0.41-2.63,1.38-5.16,2.46-7.58
			c0.19-0.43-0.3-0.88-0.68-0.52c-2.56,2.44-4.87,7.48-4.47,11.64c-2.2-1.64-4.4-3.28-6.61-4.9c-3.35-8.92-1.16-17.59,7.31-22.94
			C189.41,65.85,196.37,63.03,198.21,56.07z"/>
		<path class="st1" d="M162.17,59.92c2.96-5.71,7.09-10.83,7.15-17.39c5.01,1.74,9.41,4.63,13.24,8.33c1.94,1.87,3.55,4.05,5.02,6.3
			c1.1,1.68,1.85,3.57,2.95,5.23c-5.05,3.46-11.53,5.62-15.01,10.73c-3.37,4.95-4.55,11.62-2.27,17.08
			c-0.42-0.31-0.85-0.61-1.27-0.92c-0.26-2.71-0.76-5.41-0.8-8.14c-0.07-4.23,0.33-8.42,1.14-12.57c0.05-0.25-0.3-0.43-0.43-0.18
			c-2.55,5.1-4.17,12.13-2.94,18.2c-2.08-1.71-4.44-3.17-6.95-4.42C159.05,74.35,158.16,67.65,162.17,59.92z"/>
		<path class="st1" d="M134.16,42.45c11.24,0.32,19.71,6.59,25.44,16.26c-1.1,2.08-2.08,4.21-2.71,6.49
			c-1.43,5.12-0.56,11.38,2.6,15.77c-1.15-0.5-2.33-0.94-3.52-1.36c-0.78-2.16-3.07-3.71-4.22-5.79c-1.65-2.99-2.36-6.55-2.05-9.94
			c0.02-0.19-0.25-0.2-0.31-0.04c-1.21,3.4-1.22,6.62-0.13,10.06c0.41,1.29,1.21,2.95,2.27,4.31c-0.96-0.27-1.93-0.52-2.89-0.75
			c-6.14-4.96-7.47-11.91-8.62-19.59C139.18,52.27,137.88,46.68,134.16,42.45z"/>
		<path class="st1" d="M125,68.37c-3.92-3.1-6.91-6.92-9.37-11.17c3.7,1.07,7.39,2.17,11.09,3.24c3.76,1.09,8.44,1.62,11.53,4.16
			c0.07,0.39,0.14,0.77,0.21,1.15c0.67,3.32,2.04,6.89,4.22,9.66c-1.93-1.15-4.21-1.72-6.27-2.62c-3.07-1.34-5.75-3.3-8.38-5.34
			c-0.14-0.11-0.29,0.05-0.19,0.19c1.65,2.11,4.19,4.63,7.04,6.49C131.45,72.49,128.08,70.8,125,68.37z"/>
		<path class="st2" d="M196.95,196.81c-18.92,16.08-43.78,23.89-66.49,32.88c-12.24,4.85-24.47,9.7-36.71,14.55
			c-11.64,4.62-24.18,9.71-36.67,5.28c-11.31-4-18.46-15.13-21.08-26.32c-3.04-13,0.14-26.68,4.59-38.94
			c7.73-21.32,19.16-41.23,27.8-62.2c3.87-7.44,7.44-14.98,12.69-21.73c8.27-8.99,18.66-15.96,30.37-19.76
			c9.79-3.17,20.34-3.64,30.46-2.05c4.79,0.75,9.44,2.15,13.97,3.86c3.06,1.16,5.88,2.72,8.71,4.27l0.01,0.01
			c2.03,1.64,4.09,3.23,6.16,4.82c0.21,0.37,0.43,0.73,0.68,1.08c0.18,0.26,0.55,0.21,0.65-0.07c7.47,5.65,15.12,11.07,22.52,16.8
			c8.75,6.78,16.8,14.28,22.09,24.13C228.74,155.86,214.27,182.1,196.95,196.81z"/>
		<path class="st1" d="M245.93,151.93c-1.48-0.66-3.11-1.11-4.83-1.42c-3.29-0.6-6.68-0.52-10-0.98c-3.62-0.5-6.16-2.19-8.73-4.51
			c-0.25-1.53-0.58-3.03-0.99-4.5c3.42,2.5,7.4,3.36,11.63,3.44C237.93,145.7,242.42,148.25,245.93,151.93z"/>
		<path class="st1" d="M220.89,138.82c-0.65-2.03-1.43-4-2.34-5.92c5.72,4.27,12.91,4.42,19.53,1.47c0.08-0.04,0.02-0.15-0.06-0.14
			c-6.79,1.3-14.01-0.19-20.27-2.95c-1.27-2.44-2.74-4.78-4.38-7.04c5.15,3.96,12.12,4.14,17.98,1.67c5.47-0.98,9.56,1.74,13.99,5.1
			c4.13,3.13,8.35,6.11,12.53,9.16C245.49,138.56,232.6,144.65,220.89,138.82z"/>
	</g>
	<g>
		<path class="st3" d="M228.08,138.56c0.95-0.73,1.88-1.5,2.8-2.27c-0.45,0.04-0.91,0.07-1.36,0.08c-0.62,0.55-1.24,1.1-1.84,1.66
			C227.4,138.29,227.77,138.79,228.08,138.56z"/>
		<path class="st3" d="M234.53,132.37c-1.16,0.47-2.07,1.43-3,2.25c-0.02,0.02-0.04,0.04-0.06,0.05c0.47,0.02,0.93,0.03,1.4,0.03
			c0.74-0.59,1.45-1.23,1.92-2.01C234.87,132.54,234.72,132.29,234.53,132.37z"/>
		<path class="st3" d="M216.38,133.47c0.08-0.06,0.16-0.12,0.24-0.18c-0.05-0.09-0.1-0.18-0.15-0.27c-0.08,0.1-0.16,0.2-0.23,0.3
			C216.17,133.41,216.29,133.53,216.38,133.47z"/>
		<path class="st3" d="M224.82,137.23c0.46-0.37,0.95-0.75,1.4-1.09c-0.31-0.05-0.61-0.1-0.92-0.17c-0.14,0.13-0.29,0.27-0.43,0.4
			c-0.09,0.08-0.3,0.24-0.57,0.44c-0.74-0.63-1.49-1.25-2.24-1.87c-1.13-0.49-2.23-1.12-3.28-1.87c0.63,0.58,1.27,1.15,1.9,1.73
			c-0.31,0.31-0.61,0.63-0.89,0.96c0.07,0.17,0.13,0.34,0.19,0.51c0.45-0.27,0.89-0.57,1.32-0.9c0.76,0.68,1.52,1.36,2.29,2.03
			c-0.8,0.7-1.51,1.54-0.58,1.85c0.07,0.02,0.15-0.05,0.12-0.12c-0.09-0.23,0.35-0.72,0.98-1.28c1.26,1.09,2.53,2.15,3.82,3.19
			c0.43,0.07,0.87,0.12,1.3,0.17c-0.02-0.05-0.04-0.09-0.09-0.13C227.75,139.75,226.29,138.48,224.82,137.23z"/>
		<path class="st3" d="M233.81,137.23c0.99-0.75,2.03-1.46,2.93-2.31c-0.66,0.25-1.32,0.46-1.98,0.65
			c-0.44,0.34-0.88,0.68-1.33,1.01C233.04,136.86,233.42,137.52,233.81,137.23z"/>
		<path class="st3" d="M216.28,126.26c0.36,0.2,0.71,0.42,1.06,0.63c-0.32,0.07-0.63,0.18-0.93,0.31c-0.23,0.1-0.49,0.25-0.73,0.44
			c0.15,0.24,0.3,0.49,0.44,0.74c0.17-0.12,0.34-0.23,0.51-0.31c0.54-0.27,1.12-0.43,1.7-0.57c0.77,0.49,1.52,1,2.26,1.53
			c-0.97,0.71-1.89,1.5-2.69,2.32c0.26,0.11,0.52,0.22,0.79,0.33c0.84-0.68,1.68-1.35,2.57-1.96c0.05-0.04,0.11-0.06,0.16-0.1
			c0.53,0.39,1.05,0.8,1.56,1.22c0.4,0.32,0.78,0.67,1.15,1.02c-0.5,0.41-1.01,0.82-1.52,1.24c0.34,0.1,0.68,0.2,1.02,0.29
			c0.36-0.33,0.73-0.66,1.08-0.97c0.54,0.53,1.08,1.08,1.61,1.62c0.72,0.14,1.45,0.26,2.17,0.36c0.63-0.51,1.29-1.02,1.93-1.56
			c0.31,0.32,0.63,0.65,0.96,0.95c0.21,0.2,0.57-0.06,0.41-0.31c-0.25-0.38-0.53-0.75-0.83-1.11c0.72-0.64,1.4-1.31,1.96-2.05
			c0.09,0.07,0.18,0.15,0.27,0.23c0.33,0.27,0.81-0.21,0.47-0.47c-1.06-0.84-2.14-1.66-3.23-2.46c0.45-0.45,0.89-0.92,1.26-1.41
			c0.09-0.13,0.02-0.25-0.09-0.31c-0.09,0.01-0.17,0.02-0.25,0.04c-0.06,0.03-0.13,0.05-0.19,0.07c-0.52,0.3-1.03,0.65-1.52,1.03
			c-0.15-0.11-0.3-0.22-0.45-0.33c-0.14,0.04-0.27,0.07-0.41,0.11c0.18,0.15,0.35,0.31,0.53,0.46c-0.72,0.58-1.41,1.21-2.09,1.84
			c-0.79-0.53-1.6-1.02-2.42-1.46c0.11-0.06,0.22-0.13,0.33-0.19c-0.73,0.06-1.47,0.09-2.2,0.07c-0.64,0.35-1.27,0.73-1.87,1.15
			c-0.68-0.47-1.38-0.92-2.08-1.35c0.02,0,0.04-0.01,0.06-0.01c0.17-0.04,0.16-0.23,0.05-0.32c-0.2-0.05-0.41-0.1-0.61-0.16
			c-0.12-0.02-0.25-0.03-0.37-0.03c-0.13-0.07-0.26-0.14-0.38-0.22c-0.51-0.18-1.02-0.39-1.52-0.62
			C216.15,126.06,216.15,126.19,216.28,126.26z M230.1,127.95c0.78,0.67,1.57,1.33,2.36,1.98c-0.79,0.44-1.56,0.97-2.3,1.57
			c-0.64-0.65-1.35-1.25-2.1-1.8C228.76,129.14,229.46,128.56,230.1,127.95z M227.59,130.06c0.72,0.58,1.37,1.24,2,1.9
			c-0.72,0.61-1.42,1.27-2.11,1.93c-0.68-0.71-1.43-1.37-2.19-2c0.01-0.01,0.02-0.02,0.03-0.02
			C226.04,131.27,226.81,130.68,227.59,130.06z M224.41,127.87c0.83,0.49,1.64,1.03,2.41,1.61c-0.49,0.46-0.98,0.92-1.47,1.34
			c-0.22,0.19-0.45,0.38-0.68,0.57c-0.43-0.34-0.85-0.68-1.26-1c-0.48-0.38-0.97-0.75-1.47-1.11
			C222.75,128.78,223.58,128.33,224.41,127.87z"/>
		<path class="st3" d="M229.28,136.37c-0.14,0-0.28-0.01-0.42-0.01c0.03,0.02,0.05,0.05,0.08,0.07
			C229.05,136.53,229.21,136.48,229.28,136.37z"/>
		<path class="st3" d="M226.96,118.35c-1.13,0.12-2.17,0.51-3.25,0.86c-1.22,0.39-2.51,0.67-3.67,1.24
			c-0.09,0.05-0.05,0.21,0.05,0.2c1.1-0.1,2.17-0.44,3.25-0.7c1.27-0.31,2.57-0.52,3.76-1.07
			C227.35,118.76,227.23,118.32,226.96,118.35z"/>
		<path class="st3" d="M236.73,134.25c-0.14,0.07-0.27,0.16-0.4,0.24c0.25-0.03,0.5-0.07,0.75-0.1
			C237.03,134.26,236.88,134.16,236.73,134.25z"/>
		<path class="st3" d="M236.93,145.95c0.16-0.12,0.08-0.43-0.15-0.35c-1.08,0.38-2.19,1-3.1,1.71c-0.14,0.11,0.01,0.35,0.17,0.29
			C234.93,147.24,236.04,146.64,236.93,145.95z"/>
		<path class="st3" d="M129.02,71.09c0.24-0.17,0.45-0.37,0.64-0.61c0.43,0.24,0.86,0.48,1.3,0.71c-0.09,0.29-0.17,0.57-0.23,0.85
			c0.36,0.19,0.73,0.39,1.1,0.57c0.09-0.2,0.18-0.4,0.27-0.61c-1.1-0.94-2.11-1.93-2.98-2.89c-0.08,0.15-0.17,0.29-0.24,0.44
			c-0.41-0.16-0.81-0.33-1.22-0.48c-0.14-0.05-0.22,0.16-0.1,0.24c0.38,0.22,0.77,0.43,1.15,0.64c-0.1,0.28-0.16,0.56-0.19,0.84
			C128.68,70.89,128.85,70.99,129.02,71.09z"/>
		<path class="st3" d="M127.63,68.7c0.21-0.22,0.36-0.47,0.5-0.73c-0.09-0.11-0.19-0.23-0.27-0.34c-0.11-0.14,0.05-0.29,0.19-0.19
			c0.08,0.06,0.17,0.13,0.25,0.19c0.11-0.23,0.2-0.47,0.3-0.71c0.29-0.74,0.63-1.63,0.59-2.43c-0.01-0.2-0.25-0.31-0.39-0.16
			c-0.46,0.47-0.73,1.14-0.99,1.75c-0.32,0.77-0.66,1.59-0.64,2.43C127.17,68.74,127.46,68.88,127.63,68.7z"/>
		<path class="st3" d="M183.12,144.04c-4.14-1.89-8.83-2.92-13.18-4.24c-4.88-1.48-9.77-3.09-14.72-4.33
			c-0.23-0.06-0.31,0.27-0.1,0.35c4.52,1.72,9.2,3.14,13.8,4.64c4.54,1.48,9.2,3.44,13.89,4.3
			C183.23,144.83,183.56,144.24,183.12,144.04z"/>
		<path class="st3" d="M152.91,60.78c-1.23,1.34-2.21,2.91-3.28,4.39c-0.01,0.6,0.02,1.21,0.08,1.81c0.01-0.01,0.02-0.02,0.03-0.03
			c0.05-0.06,0.1-0.12,0.15-0.18c0.39,0.14,0.79,0.23,1.2,0.24c0.16,0,0.23-0.2,0.13-0.31c-0.23-0.24-0.49-0.44-0.77-0.61
			c1.23-1.52,2.37-3.22,2.87-5.09C153.37,60.79,153.08,60.6,152.91,60.78z"/>
		<path class="st1" d="M238.42,147.36c-0.07,0.07-0.14,0.13-0.21,0.2c-0.04,0.04,0.02,0.11,0.07,0.07c0.07-0.07,0.13-0.14,0.2-0.21
			C238.51,147.38,238.46,147.33,238.42,147.36z"/>
		<path class="st3" d="M232.63,143.94c-0.09,0.05-0.18,0.11-0.27,0.16c-0.09-0.06-0.18-0.12-0.27-0.18
			c-0.4-0.02-0.79-0.05-1.18-0.08c0.29,0.2,0.58,0.41,0.88,0.6c-0.67,0.4-1.33,0.82-1.97,1.27c-0.45-0.45-0.93-0.87-1.42-1.27
			c0.44-0.23,0.87-0.48,1.3-0.73c-0.39-0.05-0.77-0.11-1.15-0.19c-0.13,0.07-0.26,0.13-0.4,0.2c-0.12,0.06-0.26,0.13-0.39,0.19
			c-0.34-0.27-0.68-0.54-1.02-0.82c-0.36-0.1-0.72-0.22-1.07-0.34c0.19,0.16,0.38,0.33,0.57,0.49c0.34,0.3,0.67,0.61,1.01,0.91
			c-0.47,0.23-0.96,0.46-1.41,0.74c-0.63-0.59-1.3-1.13-1.99-1.64c0.5-0.24,1.01-0.44,1.54-0.59c-0.45-0.17-0.89-0.35-1.32-0.55
			c-0.37,0.14-0.74,0.31-1.08,0.54c-0.43-0.29-0.86-0.57-1.29-0.83c0.03,0.11,0.06,0.22,0.08,0.34c0.21,0.09,0.57,0.42,0.88,0.71
			c-0.16,0.12-0.32,0.26-0.48,0.4c-0.05,0.05-0.09,0.13-0.11,0.21c0.03,0.17,0.07,0.35,0.1,0.52c0.03-0.02,0.06-0.04,0.1-0.07
			c0.13,0.07,0.3,0.09,0.43,0c0.22-0.15,0.44-0.28,0.67-0.41c0.51,0.44,1,0.91,1.48,1.37c0.14,0.13,0.26,0.28,0.4,0.41
			c-0.24,0.19-0.46,0.38-0.65,0.61c-0.05,0.06-0.03,0.19,0.07,0.18c0.37-0.04,0.72-0.14,1.06-0.28c0.88,0.98,1.68,2.02,2.59,2.98
			c0.22,0.23,0.56-0.06,0.42-0.33c-0.31-0.59-0.57-1.19-0.86-1.79c-0.07-0.14-0.29-0.04-0.24,0.1c0.01,0.03,0.02,0.07,0.03,0.1
			c-0.38-0.49-0.78-0.96-1.22-1.41c0.39-0.21,0.77-0.43,1.16-0.63c0.08-0.04,0.17-0.09,0.25-0.14c0.5,0.45,1.01,0.88,1.55,1.28
			c-0.28,0.21-0.56,0.43-0.82,0.66c-0.15,0.13,0.04,0.34,0.2,0.26c1.2-0.59,2.37-1.4,3.46-2.22c0.19,0.09,0.38,0.17,0.58,0.23
			c0.17,0.05,0.26-0.15,0.16-0.27c-0.09-0.11-0.19-0.2-0.3-0.29c0.12-0.09,0.25-0.18,0.36-0.28c0.04-0.03,0.05-0.06,0.06-0.1
			c-0.04-0.01-0.07-0.03-0.11-0.04C232.89,143.96,232.76,143.95,232.63,143.94z"/>
		<path class="st3" d="M177,67.37c-1.8,0.76-3.43,2.24-4.96,3.68c-0.04-0.03-0.09-0.05-0.13-0.07c-0.11,0.71-0.2,1.41-0.29,2.12
			c2.09-1.58,4.47-3.23,5.8-5.31C177.6,67.51,177.25,67.27,177,67.37z"/>
		<path class="st3" d="M151.2,70.42c-0.32-0.12-0.64-0.24-0.95-0.36c0.24,0.9,0.55,1.77,0.93,2.61c0.26-0.26,0.52-0.52,0.76-0.78
			c1.07,0.57,2.18,1.11,3.29,1.44c-0.35,0.53-0.7,1.06-1.09,1.57c-0.73-0.25-1.46-0.51-2.18-0.77l0,0c0.32,0.52,0.7,1.01,1.11,1.49
			c0.11,0.05,0.23,0.09,0.34,0.14c-0.04,0.04-0.08,0.08-0.12,0.12c0.24,0.27,0.48,0.54,0.72,0.81c0.13-0.12,0.26-0.22,0.39-0.34
			c0.04-0.04,0.09-0.09,0.14-0.14c0.99,0.39,1.99,0.76,3,1.1c-0.17-0.44-0.32-0.89-0.45-1.34c-0.57-0.22-1.14-0.43-1.71-0.64
			c0.07-0.08,0.15-0.16,0.22-0.25c0.02,0.01,0.04,0.01,0.05-0.02c0-0.01,0-0.02,0-0.04c0.34-0.41,0.65-0.86,0.91-1.31
			c-0.1-0.59-0.18-1.19-0.23-1.79c-0.04,0.03-0.09,0.06-0.13,0.1c-0.14,0.17-0.27,0.35-0.4,0.53c-0.89-0.61-1.93-1.1-3.01-1.53
			c1.21-1.3,2.76-3.14,2.42-4.64c-0.04-0.18-0.28-0.33-0.46-0.26c-0.81,0.31-0.97,0.73-1.43,1.48
			C152.68,68.6,151.96,69.53,151.2,70.42z"/>
		<path class="st3" d="M202.67,103.1c1.31-0.37,2.47-1.17,3.63-1.85c1.32-0.78,2.65-1.59,3.89-2.5c0.3-0.22,0.05-0.66-0.29-0.5
			c-1.38,0.67-2.71,1.47-4.02,2.27c-1.15,0.71-2.4,1.36-3.34,2.35C202.45,102.97,202.54,103.14,202.67,103.1z"/>
		<path class="st3" d="M217.5,110.49c-0.24,0.21-0.48,0.43-0.73,0.63c0.6,0.48,1.2,0.95,1.8,1.41c-0.08,0.04-0.16,0.08-0.24,0.12
			c-1.46,0.73-2.95,1.42-4.44,2.14c-0.32-0.32-0.66-0.62-0.99-0.92c-0.23,0.15-0.46,0.3-0.69,0.45c0.28,0.3,0.56,0.59,0.84,0.89
			c-1.24,0.61-2.47,1.24-3.66,1.93c-0.28-0.26-0.55-0.52-0.83-0.79c-0.27,0.11-0.55,0.2-0.83,0.29c0.3,0.32,0.6,0.64,0.9,0.96
			c-0.17,0.1-0.34,0.21-0.51,0.32c0.15,0.17,0.31,0.33,0.47,0.5c0.2-0.07,0.41-0.15,0.61-0.23c0.95,1,1.92,1.97,2.94,2.88
			c0.55,0.32,1.09,0.64,1.62,0.94c0.05-0.09,0.05-0.22-0.04-0.33c-1.09-1.36-2.33-2.63-3.61-3.87c1.27-0.54,2.52-1.14,3.76-1.76
			c0.63,0.67,1.27,1.32,1.94,1.95c-0.93,0.39-1.87,0.77-2.79,1.18c-0.01,0-0.02,0.01-0.03,0.01c-0.03,0.01-0.06,0.03-0.09,0.04
			c0,0,0,0.01,0.01,0.01c-0.38,0.24-0.26,1.04,0.37,0.89c1.23-0.3,2.43-0.73,3.61-1.22c0.1,0.01,0.21-0.03,0.27-0.11
			c0.83-0.35,1.64-0.72,2.44-1.09c2.09-0.98,4.86-2.1,6.31-3.96c0.21-0.26,0.03-0.68-0.34-0.59c-2.09,0.55-4.02,2.13-5.95,3.13
			c-1.01,0.52-2.05,0.97-3.09,1.41c-0.55-0.72-1.16-1.41-1.8-2.08c0.91-0.46,1.81-0.92,2.72-1.36c0.7-0.34,1.42-0.67,2.15-1
			c0.36,0.26,0.71,0.52,1.07,0.77c0.3,0.21,0.57-0.23,0.36-0.47c0,0,0.01,0,0.01-0.01c-0.23-0.21-0.46-0.42-0.69-0.63
			c2.69-1.21,5.45-2.44,7.77-4.13c0.29-0.21,0.13-0.72-0.26-0.61c-2.92,0.85-5.7,2.48-8.43,3.9
			C218.78,111.55,218.14,111.02,217.5,110.49z"/>
		<path class="st3" d="M164.67,65.73c0.01-0.14-0.23-0.17-0.25-0.03c-0.09,0.31-0.17,0.62-0.26,0.92c-0.12,0.27,0.13,0.58,0.42,0.42
			c2.76-1.51,5.7-3.83,7.78-6.19c0.17-0.19-0.04-0.48-0.28-0.36c-2.6,1.35-5.31,3.42-7.39,5.57
			C164.69,65.95,164.68,65.84,164.67,65.73z"/>
		<path class="st3" d="M162.08,71.13c0.6,0.35,1.2,0.7,1.8,1.06c-0.04,0.04-0.08,0.08-0.12,0.12c-0.17,0.2,0.04,0.52,0.29,0.38
			c0.11-0.06,0.21-0.14,0.32-0.2c1.19,0.72,2.39,1.44,3.58,2.16c-0.95,0.81-1.9,1.62-2.81,2.47c-0.98-0.5-1.95-1.01-2.91-1.53
			c-0.38-0.2-0.71,0.37-0.34,0.57c0.88,0.49,1.76,1,2.64,1.52c-0.53,0.5-1.05,1.01-1.54,1.55c-0.18,0.2,0.06,0.54,0.3,0.38
			c0.7-0.46,1.38-0.95,2.06-1.45c1.08,0.64,2.17,1.27,3.27,1.89c0.03-0.35,0.06-0.71,0.1-1.06c-0.88-0.47-1.77-0.94-2.65-1.39
			c0.98-0.76,1.94-1.56,2.9-2.35c0.13,0.07,0.25,0.15,0.38,0.22c0.21-0.89,0.45-1.76,0.73-2.61l-0.01,0.01
			c-0.43,0.37-0.87,0.74-1.3,1.11c-1.2-0.66-2.41-1.32-3.62-1.97c1.04-0.72,2.04-1.55,3.01-2.36c0.85,0.48,1.72,0.93,2.59,1.35
			c0.07-0.18,0.14-0.37,0.21-0.55c-0.76-0.42-1.54-0.82-2.33-1.2c0.05-0.04,0.1-0.08,0.15-0.12c1.61-1.33,3.81-2.63,4.87-4.45
			c0.11-0.19-0.07-0.47-0.3-0.39c-0.89,0.33-1.67,0.91-2.42,1.54c-0.46-0.34-0.96-0.64-1.41-0.95c-0.33-0.23-0.64,0.31-0.31,0.54
			c0.39,0.27,0.78,0.59,1.19,0.88c-0.43,0.39-0.85,0.78-1.27,1.14c-0.51,0.44-1.04,0.88-1.56,1.32c-0.74-0.35-1.48-0.69-2.2-1.05
			c-0.2-0.1-0.37,0.19-0.17,0.3c0.65,0.35,1.31,0.72,1.97,1.1c-0.95,0.8-1.89,1.63-2.73,2.53c-0.66-0.36-1.33-0.72-1.98-1.09
			C162.04,70.29,161.69,70.9,162.08,71.13z"/>
		<path class="st3" d="M36.44,205.33c2.87,1.75,5.76,3.88,8.87,5.17c0.25,0.1,0.48-0.15,0.49-0.38c0.03-0.54-0.17-0.79-0.68-0.84
			c-0.05,0-0.09,0.02-0.12,0.05c-2.3-1.68-5-2.96-7.45-4.36c-0.7-0.4-1.41-0.82-2.11-1.23c-0.04,0.31-0.08,0.62-0.12,0.93
			C35.7,204.89,36.08,205.11,36.44,205.33z"/>
		<path class="st3" d="M152.6,152.39c-0.12-0.01-0.14,0.15-0.06,0.21c0.91,0.68,2.12,1.04,3.17,1.45s2.18,1.06,3.33,1.05
			c0.22,0,0.38-0.3,0.19-0.46c-0.8-0.67-1.87-0.88-2.84-1.2C155.18,153.03,153.9,152.45,152.6,152.39z"/>
		<path class="st3" d="M170.95,150.94c0.22,0.03,0.4-0.28,0.16-0.39c-2.71-1.21-5.72-1.83-8.56-2.64
			c-3.35-0.95-6.75-2.05-10.17-2.69c-0.14-0.03-0.19,0.16-0.06,0.21c2.99,1.2,6.18,2.02,9.26,2.94
			C164.65,149.29,167.79,150.49,170.95,150.94z"/>
		<path class="st3" d="M203.54,120.24c0.08-0.53,0.18-1.09,0.28-1.65c0.65,0.15,1.29,0.29,1.94,0.41c-0.49-0.49-0.98-0.98-1.49-1.46
			c-0.09-0.02-0.19-0.04-0.28-0.06c0.01-0.06,0.01-0.13,0.02-0.19c-0.4-0.38-0.81-0.76-1.21-1.13c-0.06,0.35-0.11,0.7-0.15,1.05
			c-1.08-0.21-2.16-0.41-3.22-0.64c-1.35-0.29-2.7-0.58-4.05-0.87c0.35-1.74,0.61-3.51,0.69-5.25c-0.37-0.29-0.74-0.58-1.11-0.87
			c-0.37,1.93-0.62,3.88-0.88,5.84c-1.36-0.29-2.72-0.59-4.09-0.88c-1.18-0.25-2.37-0.51-3.55-0.77c0.59-2.31,1.17-4.61,1.74-6.93
			c0.46,0.12,0.92,0.24,1.38,0.37c1.18,0.31,2.43,0.76,3.69,1.06c-0.69-0.53-1.37-1.05-2.06-1.57c-0.48-0.1-0.95-0.2-1.4-0.32
			c-0.47-0.12-0.94-0.24-1.41-0.36c0.1-0.41,0.2-0.82,0.3-1.23c-0.35-0.26-0.69-0.51-1.04-0.77c-0.14,0.57-0.28,1.13-0.42,1.7
			c-1.49-0.38-2.98-0.76-4.47-1.13c-0.8-0.2-1.61-0.41-2.41-0.62c0.55-1.41,1.09-2.86,1.44-4.3c-0.41-0.3-0.82-0.61-1.23-0.91
			c-0.05,0.12-0.1,0.23-0.15,0.34c-0.06,0.04-0.11,0.07-0.17,0.11c-0.17,0.09-0.14,0.31-0.02,0.41c-0.45,1.3-0.77,2.68-1.09,4.02
			c-2.33-0.61-4.67-1.22-7.02-1.75c0.4-1.45,0.74-2.92,1.17-4.35c0.17-0.56,0.38-1.12,0.59-1.68c1.6,0.54,3.24,1.16,4.88,1.57
			c-0.69-0.51-1.38-1.03-2.07-1.54c-0.86-0.22-1.73-0.42-2.57-0.64c0.13-0.33,0.26-0.66,0.39-0.99c-0.34-0.25-0.68-0.5-1.01-0.76
			c-0.18,0.47-0.36,0.94-0.51,1.42c-1.78-0.51-3.57-1.07-5.37-1.49c0.1-0.4,0.21-0.79,0.32-1.18c0.21-0.75,0.57-1.54,0.87-2.33
			c-0.48-0.37-0.96-0.74-1.44-1.12c-0.07,0.07-0.14,0.14-0.2,0.21c-0.23,0.3,0.03,0.68,0.07,1c0,0,0,0.01,0.01,0.01
			c-0.1,0.4-0.19,0.81-0.29,1.19c-0.18,0.65-0.34,1.3-0.47,1.97c-0.14-0.03-0.28-0.06-0.42-0.09c-0.13-0.02-0.17,0.15-0.05,0.2
			c0.14,0.06,0.28,0.1,0.42,0.16c-0.22,1.2-0.32,2.42-0.16,3.63c0.01,0.08,0.13,0.14,0.17,0.05c0.46-1.05,0.77-2.16,1.06-3.27
			c1.74,0.61,3.55,1.09,5.31,1.64c-0.18,0.59-0.35,1.19-0.51,1.76c-0.42,1.44-0.81,2.94-1.02,4.45c-0.88-0.19-1.76-0.37-2.65-0.52
			c-0.15-0.03-0.21,0.18-0.06,0.23c0.87,0.3,1.75,0.58,2.64,0.85c-0.06,0.58-0.09,1.15-0.07,1.72c0,0.19,0.25,0.21,0.31,0.04
			c0.19-0.51,0.35-1.02,0.5-1.54c2.32,0.68,4.66,1.28,7,1.88c-0.11,0.45-0.22,0.89-0.34,1.31c-0.57,2.01-1.15,4.02-1.67,6.04
			c-1.95-0.39-3.91-0.77-5.87-1.09c-0.17-0.03-0.24,0.22-0.07,0.26c1.91,0.53,3.84,1.01,5.78,1.47c-0.2,0.83-0.4,1.66-0.57,2.5
			c-0.01,0.07,0.09,0.12,0.12,0.05c0.34-0.8,0.66-1.61,0.97-2.43c2.62,0.62,5.25,1.22,7.88,1.8c-0.52,2.21-1.04,4.41-1.54,6.62
			c-2.31-0.69-4.64-1.31-6.96-1.69c-0.04-0.01-0.08,0.05-0.03,0.07c2.17,0.98,4.48,1.74,6.81,2.44c-1.06,4.74-2.1,9.49-3.09,14.24
			c-0.01,0.04,0.04,0.05,0.05,0.02c1.33-4.66,2.62-9.33,3.88-14.01c2.25,0.66,4.51,1.26,6.7,1.94c0.44,0.14,0.88,0.28,1.32,0.42
			c-0.59,2.21-1.24,4.41-1.77,6.64c-0.03,0.12,0.14,0.2,0.2,0.09c1.02-2.05,1.79-4.23,2.44-6.44c2.9,0.95,5.83,1.98,8.77,2.83
			c0,0.08,0,0.17,0,0.25c0,0.1,0.14,0.18,0.22,0.09c0.06-0.08,0.12-0.15,0.19-0.22c1.53,0.43,3.06,0.81,4.59,1.09
			c0.24,0.04,0.43-0.31,0.18-0.42c-1.45-0.62-2.96-1.15-4.49-1.64c0.11-0.88,0.28-2.35,0.32-2.6
			C203.15,122.76,203.36,121.5,203.54,120.24z M177.5,111.87c0.63-1.7,1.22-3.43,1.8-5.15c0.22-0.66,0.48-1.34,0.75-2.03
			c0.83,0.21,1.66,0.43,2.48,0.65c1.49,0.4,2.99,0.79,4.48,1.19c-0.57,2.33-1.14,4.66-1.69,6.99
			C182.72,112.96,180.11,112.4,177.5,111.87z M192.46,123.73c-2.63-0.78-5.29-1.7-7.97-2.53c0.59-2.21,1.16-4.43,1.74-6.64
			c1.18,0.26,2.36,0.52,3.54,0.79c1.4,0.32,2.79,0.63,4.19,0.95c-0.18,1.27-0.37,2.54-0.62,3.8
			C193.08,121.32,192.78,122.53,192.46,123.73z M202.42,120.09c-0.21,2.09-0.42,4.21-0.46,6.32c-2.85-0.88-5.77-1.61-8.6-2.42
			c0.34-1.21,0.65-2.42,0.95-3.62c0.31-1.23,0.62-2.5,0.89-3.79c1.33,0.3,2.65,0.6,3.98,0.9c1.12,0.25,2.24,0.54,3.38,0.81
			C202.51,118.9,202.47,119.51,202.42,120.09z"/>
		<path class="st3" d="M132.67,70.77c0.09-0.18,0.17-0.35,0.26-0.53c0.25-0.46,0.55-0.88,0.84-1.3c0.71,0.34,1.43,0.68,2.13,1.03
			c0.22,0.11,0.45,0.22,0.67,0.34c-0.41,0.32-0.78,0.72-1.11,1.15c-0.14,0.19-0.3,0.41-0.46,0.66c0.39,0.2,0.79,0.39,1.19,0.57
			c0.05-0.06,0.1-0.13,0.15-0.19c0.47-0.57,1.02-1.02,1.52-1.54c0.93,0.47,1.88,0.93,2.84,1.3c-0.26-0.5-0.5-1.01-0.72-1.53
			c-0.47-0.22-0.94-0.44-1.42-0.64l0,0c0.11-0.18-0.03-0.43-0.25-0.43c-0.2,0.01-0.39,0.04-0.57,0.08c-0.46-0.2-0.91-0.39-1.36-0.6
			c-0.69-0.31-1.38-0.64-2.09-0.96c0.33-0.49,0.63-1,0.83-1.56c0.06-0.17-0.13-0.36-0.3-0.3c-0.66,0.24-1.27,0.71-1.82,1.29
			c-0.47-0.2-0.94-0.39-1.41-0.56c0.38-0.75,0.71-1.52,0.99-2.32c0.09-0.25-0.28-0.48-0.46-0.27c-0.59,0.71-1.1,1.45-1.58,2.22
			c-0.32-0.1-0.64-0.19-0.97-0.28c-0.09-0.02-0.13,0.09-0.06,0.14c0.25,0.18,0.52,0.34,0.79,0.51c-0.15,0.25-0.3,0.5-0.45,0.75
			c-0.13,0.22-0.28,0.47-0.43,0.71c0.33,0.24,0.65,0.49,0.98,0.72c0.16-0.29,0.31-0.58,0.46-0.85c0.14-0.24,0.28-0.49,0.41-0.74
			c0.38,0.22,0.77,0.43,1.16,0.63c-0.38,0.52-0.71,1.09-0.99,1.69C131.86,70.24,132.27,70.51,132.67,70.77z"/>
		<path class="st3" d="M155.97,79.62c0.13,0.05,0.26,0.1,0.39,0.14c0.65-0.33,1.26-0.72,1.67-1.29c-0.11-0.23-0.21-0.46-0.3-0.69
			c-0.78,0.13-1.44,0.62-2.06,1.16C155.77,79.16,155.88,79.39,155.97,79.62z"/>
		<path class="st3" d="M142.97,63.39c0.34,0.19,0.68,0.37,1.03,0.54c-0.45,0.82-0.83,1.67-1.04,2.52c-0.05,0.2,0.18,0.32,0.33,0.19
			c0.7-0.62,1.31-1.37,1.88-2.15c0.77,0.36,1.54,0.72,2.31,1.09c0.41,0.2,0.83,0.44,1.25,0.66c0.05-0.27,0.12-0.55,0.19-0.82
			c-0.4-0.14-0.81-0.28-1.19-0.43c-0.75-0.29-1.5-0.61-2.25-0.92c0.62-0.88,1.21-1.79,1.83-2.62c1.56-2.09,3.37-4.02,4.66-6.31
			c0.11-0.19-0.12-0.46-0.32-0.32c-1.87,1.28-3.26,3.02-4.63,4.81c-0.92,1.2-1.97,2.53-2.8,3.94c-0.38-0.15-0.76-0.29-1.14-0.41
			C142.93,63.11,142.85,63.32,142.97,63.39z"/>
		<path class="st3" d="M38,209.23c-1.1,1.73-2.14,3.5-3.14,5.3c0.02,0.61,0.06,1.23,0.1,1.84c1.21-2.27,2.38-4.57,3.43-6.91
			C38.51,209.19,38.16,208.98,38,209.23z"/>
		<path class="st3" d="M211.68,157.17c2.78,1.11,5.57,2.29,8.38,3.45c0.09-0.39,0.18-0.78,0.26-1.18c-2.56-0.94-5.12-1.87-7.65-2.83
			c-0.75-0.28-1.49-0.56-2.24-0.85c0.42-2.06,0.81-4.13,1.21-6.2c0.63,0.25,1.27,0.49,1.9,0.73c2.48,0.96,4.99,2.09,7.53,3.11
			c0.02-0.44,0.04-0.88,0.05-1.32c-2.22-0.79-4.46-1.52-6.6-2.33c-0.9-0.34-1.81-0.69-2.71-1.03c0.49-2.56,0.97-5.11,1.43-7.67
			c1.98,0.68,3.98,1.28,5.99,1.67c0.29,0.06,0.51-0.36,0.21-0.5c-1.9-0.95-3.92-1.72-5.98-2.4c0.2-1.1,0.4-2.2,0.6-3.31
			c0.03-0.19-0.25-0.27-0.29-0.08c-0.22,1.09-0.45,2.18-0.68,3.27c-3.38-1.1-6.86-2-10.16-3.07c-0.31-0.1-0.43,0.38-0.13,0.48
			c3.3,1.17,6.65,2.61,10.04,3.8c-0.54,2.53-1.09,5.05-1.67,7.57c-3.32-1.26-6.65-2.52-9.97-3.77c0.51-2.54,0.98-5.09,1.42-7.65
			c0.03-0.18-0.23-0.26-0.27-0.08c-0.6,2.49-1.21,4.98-1.83,7.46c-0.34-0.13-0.68-0.26-1.02-0.38c-0.44-0.17-0.63,0.54-0.2,0.71
			c0.34,0.13,0.68,0.27,1.03,0.4c-0.52,2.06-1.04,4.12-1.57,6.17c-3.02-1.13-6.04-2.27-9.07-3.39c0.28-1.97,0.54-3.93,0.73-5.9
			c0.01-0.13-0.19-0.15-0.22-0.03c-1.3,4.93-2.37,9.92-3.5,14.89c-2.49-0.95-4.98-1.9-7.47-2.85c0.35-1.18,0.71-2.35,1.05-3.53
			c0.05-0.19-0.22-0.26-0.29-0.08c-0.43,1.14-0.85,2.28-1.27,3.42c-0.98-0.37-1.96-0.75-2.93-1.12c-0.4-0.15-0.57,0.48-0.17,0.64
			c0.96,0.37,1.92,0.74,2.88,1.11c-0.95,2.57-1.88,5.15-2.79,7.73c-3.38-1.32-6.76-2.62-10.16-3.86c-0.14-0.05-0.25,0.19-0.1,0.25
			c3.32,1.47,6.67,2.88,10.03,4.28c-0.78,2.23-1.56,4.46-2.32,6.7c-3.24-1.21-6.49-2.41-9.74-3.6c1.06-4.04,2.09-8.09,3.07-12.15
			c0.04-0.18-0.22-0.25-0.27-0.08c-1.27,3.95-2.49,7.92-3.69,11.9c-2.03-0.75-4.06-1.51-6.09-2.25c-0.19-0.07-0.27,0.23-0.08,0.31
			c2.01,0.81,4.03,1.6,6.04,2.4c-1.15,3.83-2.27,7.67-3.37,11.52c-3.38-1.25-6.77-2.46-10.17-3.61c0.32-1.07,0.64-2.13,0.95-3.2
			c0.03-0.11-0.14-0.16-0.18-0.05c-0.36,1.05-0.72,2.1-1.09,3.14c-0.46-0.16-0.92-0.33-1.39-0.48c-0.14-0.05-0.19,0.17-0.06,0.21
			c0.46,0.16,0.91,0.34,1.36,0.51c-0.78,2.27-1.56,4.53-2.35,6.8c-2.63-1.12-5.26-2.24-7.89-3.35c-0.26-0.11-0.48,0.26-0.22,0.38
			c2.64,1.16,5.29,2.32,7.93,3.49c-0.98,2.85-1.96,5.7-2.95,8.54c-2.84-1.25-5.68-2.49-8.53-3.71c0.66-1.98,1.31-3.97,1.91-5.97
			c0.04-0.12-0.16-0.21-0.21-0.09c-0.82,1.91-1.61,3.83-2.4,5.75c-1.17-0.5-2.34-1.01-3.52-1.51c-0.19-0.08-0.35,0.19-0.16,0.28
			c1.16,0.56,2.33,1.11,3.5,1.67c-1.4,3.39-2.78,6.79-4.14,10.2c-2.05-0.79-4.11-1.56-6.18-2.3c0.82-2.05,1.61-4.11,2.36-6.18
			c0.11-0.3-0.36-0.49-0.51-0.21c-1.05,1.96-2.04,3.97-3,5.99c-1.86-0.65-3.72-1.29-5.59-1.9c-0.11-0.04-0.15,0.13-0.05,0.17
			c1.81,0.73,3.62,1.45,5.42,2.18c-1.35,2.87-2.63,5.77-3.85,8.71c-1.83-0.89-3.67-1.77-5.52-2.64c1.27-2.39,2.54-4.77,3.8-7.17
			c0.06-0.12-0.11-0.23-0.19-0.11c-1.42,2.32-2.8,4.66-4.16,7.01c-0.66-0.31-1.32-0.63-1.98-0.94c-0.16-0.07-0.3,0.16-0.14,0.24
			c0.66,0.32,1.31,0.65,1.96,0.98c-1,1.74-2,3.48-2.97,5.23c-2.14-1.02-4.29-2.01-6.45-2.99c-0.14-0.06-0.26,0.14-0.12,0.21
			c2.13,1.03,4.26,2.08,6.37,3.15c-1.25,2.25-2.48,4.5-3.68,6.77c-2.68-1.39-5.39-2.74-8.12-4.03c1.72-3.34,3.45-6.68,5.17-10.01
			c0.06-0.12-0.11-0.23-0.19-0.11c-1.94,3.23-3.8,6.51-5.61,9.83c-2.77-1.3-5.56-2.55-8.38-3.72c-0.09-0.04-0.14,0.11-0.06,0.15
			c2.7,1.41,5.4,2.81,8.1,4.2c-1.52,2.8-3.01,5.62-4.46,8.47c-2.55-1.35-5.11-2.68-7.68-3.99c1.84-3.98,3.59-7.99,5.1-12.06
			c0.12-0.32-0.38-0.52-0.54-0.23c-2.12,3.77-4.02,7.68-5.86,11.64c-2.12-1.07-4.25-2.12-6.4-3.14c-0.1-0.05-0.18,0.09-0.09,0.15
			c2.05,1.22,4.13,2.41,6.21,3.58c-0.87,1.89-1.73,3.78-2.57,5.68c-2.33-1.19-4.66-2.37-7-3.52c1-2.34,1.85-4.72,2.48-7.16
			c0.07-0.27-0.35-0.47-0.47-0.2c-0.99,2.31-1.98,4.6-3.02,6.87c-1.89-0.93-3.78-1.85-5.69-2.75c-0.14-0.07-0.27,0.14-0.12,0.21
			c1.86,1,3.73,1.99,5.6,2.98c-0.97,2.09-1.98,4.16-3.08,6.2c-2.38-1.3-4.77-2.59-7.17-3.85c1.42-2.2,2.84-4.4,4.24-6.63
			c0.14-0.22-0.19-0.48-0.36-0.28c-1.7,2.05-3.3,4.2-4.83,6.42c-1.88-0.99-3.76-1.97-5.65-2.93c-0.1-0.05-0.19,0.1-0.09,0.15
			c1.84,1.03,3.68,2.07,5.53,3.11c-1.46,2.13-2.85,4.32-4.18,6.54c-2.49-1.24-4.98-2.48-7.47-3.71c1.69-2.79,3.5-5.56,4.79-8.52
			c0.1-0.23-0.19-0.52-0.38-0.29c-2.12,2.48-3.76,5.47-5.37,8.33c-1.41-0.7-2.83-1.39-4.24-2.09c0.72-1.62,1.39-3.26,1.95-4.92
			c0.07-0.21-0.23-0.32-0.35-0.15c-0.95,1.47-1.81,3-2.63,4.56c-0.98-0.48-1.95-0.95-2.93-1.43c0.49-1.07,0.96-2.14,1.36-3.23
			c0.07-0.2-0.22-0.29-0.32-0.14c-0.66,0.96-1.26,1.96-1.84,2.97c-0.58-0.28-1.15-0.57-1.73-0.85c-0.13-0.06-0.24,0.12-0.11,0.19
			c0.57,0.3,1.14,0.6,1.71,0.9c-0.93,1.64-1.79,3.33-2.63,5.03c0.13,0.71,0.27,1.41,0.43,2.11c0,0.01,0.01,0.03,0.01,0.04
			c0.88,0.48,1.77,0.97,2.65,1.45c-0.45,1-0.91,2-1.36,3c0.14,0.41,0.29,0.81,0.44,1.21c0.62-1.22,1.26-2.45,1.89-3.68
			c1.27,0.69,2.53,1.38,3.8,2.06c-0.83,1.56-1.65,3.12-2.45,4.7c-0.33,0.64-0.64,1.29-0.96,1.94c0.41,0.76,0.84,1.5,1.29,2.24
			c2.1,1.02,4.2,2.05,6.29,3.09c-0.52,1.03-1.02,2.06-1.52,3.09c0.15,0.16,0.32,0.3,0.47,0.46c0.54-1.09,1.09-2.17,1.65-3.25
			c1.26,0.62,2.52,1.24,3.77,1.87c1.15,0.58,2.3,1.17,3.44,1.77c-0.68,1.14-1.36,2.29-2.01,3.45c-1.66-0.77-3.33-1.54-4.98-2.3
			c-0.16-0.07-0.32-0.14-0.47-0.22c1.03,0.9,2.1,1.73,3.25,2.49c0.58,0.28,1.17,0.56,1.75,0.85c-0.03,0.05-0.06,0.11-0.09,0.16
			c0.24,0.13,0.48,0.25,0.72,0.38c0.03-0.06,0.06-0.12,0.1-0.18c1.14,0.57,2.28,1.15,3.42,1.73c1.69,0.59,3.37,1.01,5.06,1.28
			c-2.66-1.31-5.33-2.6-8.01-3.84c0.65-1.14,1.33-2.27,2.01-3.4c3.37,1.77,6.73,3.58,10.11,5.35c-0.33,0.75-0.67,1.49-1,2.24
			c0.19,0.01,0.39,0.02,0.58,0.02c0.32-0.66,0.63-1.32,0.95-1.98c1.2,0.63,2.41,1.25,3.62,1.87c0.71-0.06,1.42-0.14,2.12-0.24
			c-1.71-0.96-3.43-1.9-5.17-2.81c0.99-2.05,1.97-4.11,2.95-6.16c2.57,1.4,5.15,2.78,7.74,4.12c-0.1,0.24-0.21,0.48-0.32,0.72
			c-0.49,1.14-1,2.3-1.51,3.45c0.44-0.1,0.88-0.2,1.32-0.31c0.35-0.88,0.71-1.76,1.08-2.63c0.11-0.26,0.23-0.51,0.34-0.77
			c1.26,0.64,2.52,1.28,3.79,1.9c0.43-0.14,0.86-0.29,1.29-0.43c-1.52-0.88-3.04-1.75-4.58-2.6c0.92-2.13,1.86-4.26,2.8-6.38
			c2.54,1.33,5.08,2.65,7.63,3.95c-0.26,0.54-0.52,1.08-0.77,1.62c-0.29,0.63-0.6,1.26-0.91,1.9c0.46-0.17,0.91-0.35,1.37-0.53
			c0.13-0.29,0.26-0.58,0.39-0.87c0.26-0.56,0.53-1.11,0.79-1.67c0.77,0.39,1.55,0.78,2.32,1.16c0.22-0.09,0.43-0.17,0.65-0.26
			c0.28-0.11,0.56-0.22,0.83-0.33c-1.09-0.56-2.18-1.13-3.28-1.69c0.73-1.55,1.47-3.1,2.21-4.64c1.51,0.93,3.02,1.85,4.52,2.79
			c0.7,0.44,1.4,0.89,2.1,1.34c0.4-0.16,0.79-0.31,1.19-0.47c-0.71-0.44-1.42-0.88-2.12-1.31c-1.75-1.08-3.51-2.15-5.27-3.22
			c1.11-2.32,2.24-4.64,3.37-6.95c2.86,1.6,5.71,3.2,8.56,4.82c-0.68,1.88-1.34,3.76-1.99,5.65c0.36-0.14,0.72-0.28,1.08-0.43
			c0.59-1.58,1.19-3.15,1.78-4.72c0.04,0.03,0.09,0.05,0.13,0.08c1.32,0.76,2.64,1.54,3.95,2.32c0.44-0.17,0.87-0.35,1.31-0.52
			c-1.36-0.77-2.73-1.52-4.07-2.29c-0.32-0.18-0.64-0.36-0.96-0.54c0.75-1.97,1.5-3.94,2.26-5.91c1.85,0.99,3.7,1.99,5.55,2.97
			c-0.85,1.89-1.69,3.78-2.54,5.67c0.62-0.24,1.23-0.49,1.85-0.73c0.65-1.42,1.3-2.84,1.94-4.26c1.25,0.67,2.5,1.34,3.76,2.01
			c0.39-0.15,0.77-0.31,1.16-0.46c-1.51-0.8-3.02-1.6-4.54-2.41c1.27-2.86,2.5-5.74,3.72-8.61c2.99,1.78,5.96,3.59,8.91,5.43
			c-0.22,0.56-0.43,1.13-0.65,1.7c-0.14,0.37-0.29,0.74-0.43,1.11c0.48-0.19,0.95-0.38,1.43-0.57c0.21-0.55,0.41-1.09,0.62-1.64
			c0.46,0.28,0.91,0.57,1.37,0.85c0.47-0.19,0.95-0.37,1.42-0.56c-0.78-0.49-1.56-0.98-2.35-1.46c0.96-2.53,1.92-5.06,2.86-7.6
			c2.97,1.78,5.9,3.62,8.82,5.47c0.43-0.16,0.85-0.32,1.28-0.49c-3.23-2-6.51-3.93-9.79-5.81c0.69-1.85,1.36-3.71,2.04-5.57
			c0.12,0.07,0.25,0.14,0.37,0.21c3.68,2.09,7.29,4.3,10.88,6.54c-0.34,1.23-0.68,2.46-1.01,3.69c0.52-0.2,1.03-0.4,1.55-0.6
			c0.22-0.78,0.45-1.56,0.67-2.34c0.69,0.43,1.37,0.85,2.06,1.28c0.47-0.19,0.95-0.37,1.42-0.56c-1.04-0.64-2.09-1.28-3.14-1.9
			c1.16-4.08,2.29-8.17,3.43-12.26c2.44,1.15,4.87,2.32,7.29,3.51c-0.97,2.91-1.92,5.84-2.86,8.76c0.54-0.22,1.07-0.44,1.61-0.66
			c0.85-2.48,1.7-4.97,2.53-7.46c1.24,0.61,2.48,1.22,3.71,1.84c1.02,0.52,2.03,1.06,3.04,1.6c0.4-0.18,0.79-0.37,1.19-0.55
			c-1.25-0.63-2.5-1.25-3.74-1.88c-1.29-0.65-2.59-1.28-3.89-1.91c1.1-3.32,2.19-6.64,3.28-9.96c2.82,1.29,5.64,2.57,8.46,3.85
			c-1.19,3.23-2.4,6.46-3.64,9.68c0.59-0.28,1.18-0.56,1.77-0.84c1.11-2.72,2.19-5.46,3.21-8.22c1.29,0.59,2.58,1.18,3.88,1.76
			c0.93,0.42,1.86,0.85,2.79,1.28c0.83-0.48,1.66-0.96,2.49-1.46c0.99-2.53,1.94-5.07,2.86-7.63c1.73,0.77,3.46,1.55,5.19,2.31
			c0.34-0.24,0.67-0.49,1-0.74c-1.95-0.84-3.92-1.65-5.87-2.47c0.85-2.39,1.66-4.79,2.46-7.19c3.19,1.54,6.37,3.11,9.55,4.68
			c1.05-0.94,2.1-1.93,3.12-2.95c0.99-3.38,1.94-6.77,2.84-10.18c1.48,0.59,2.97,1.19,4.46,1.76c0.23-0.31,0.46-0.62,0.69-0.94
			c-1.62-0.62-3.25-1.21-4.88-1.81c0.52-1.99,1.02-3.98,1.5-5.98c2.25,0.92,4.51,1.81,6.78,2.67c0.19-0.32,0.37-0.64,0.56-0.96
			c-2.34-1-4.69-1.97-7.05-2.91c0.66-2.75,1.3-5.5,1.91-8.26c2.98,1.18,5.96,2.37,8.95,3.54c0.14-0.33,0.27-0.65,0.4-0.98
			c-3.05-1.15-6.11-2.28-9.15-3.42c0.63-2.86,1.23-5.73,1.82-8.61C210.73,156.78,211.2,156.98,211.68,157.17z M189.65,148.26
			c2.99,1.22,5.98,2.43,8.96,3.64c-0.75,2.9-1.51,5.8-2.3,8.68c-2.76-1.05-5.52-2.1-8.28-3.16
			C188.66,154.38,189.2,151.32,189.65,148.26z M187.88,158.16c2.74,1.06,5.49,2.13,8.23,3.19c-0.74,2.7-1.49,5.4-2.27,8.09
			c-0.43-0.17-0.85-0.33-1.28-0.5c-2.19-0.87-4.38-1.74-6.57-2.62C186.67,163.61,187.3,160.89,187.88,158.16z M193.58,170.35
			c-0.61,2.1-1.22,4.2-1.86,6.3c-1.65-0.63-3.3-1.26-4.95-1.88c-0.92-0.35-1.83-0.69-2.75-1.04c0.61-2.18,1.19-4.37,1.75-6.57
			c1.93,0.79,3.87,1.57,5.8,2.36C192.24,169.79,192.91,170.07,193.58,170.35z M179.05,154.73c2.5,0.97,5,1.94,7.5,2.91
			c-0.39,1.7-0.78,3.4-1.2,5.09c-0.25,1.01-0.51,2.02-0.76,3.03c-2.65-1.06-5.3-2.11-7.95-3.15
			C177.46,159.99,178.26,157.36,179.05,154.73z M176.41,163.31c2.65,1.1,5.31,2.19,7.97,3.27c-0.56,2.21-1.14,4.42-1.74,6.62
			c-2.79-1.06-5.58-2.11-8.37-3.16C174.99,167.8,175.71,165.55,176.41,163.31z M174.03,170.75c2.79,1.09,5.59,2.18,8.38,3.26
			c-0.92,3.34-1.87,6.67-2.87,9.98c-0.16,0.55-0.34,1.09-0.51,1.63c-2.89-1.24-5.79-2.44-8.7-3.61
			C171.57,178.27,172.81,174.51,174.03,170.75z M178.81,186.33c-0.79,2.53-1.59,5.04-2.44,7.54c-2.34-1-4.68-2.01-7.02-3.01
			c-0.58-0.25-1.16-0.49-1.73-0.74c0.83-2.5,1.67-5,2.5-7.5C173.03,183.84,175.93,185.07,178.81,186.33z M163.29,166.51
			c3.21,1.28,6.41,2.55,9.63,3.81c-1.28,3.74-2.54,7.48-3.79,11.23c-2.98-1.19-5.96-2.34-8.97-3.45
			C161.22,174.23,162.27,170.37,163.29,166.51z M160.03,178.57c2.98,1.16,5.95,2.35,8.9,3.57c-0.83,2.49-1.66,4.99-2.49,7.48
			c-2.83-1.2-5.65-2.4-8.48-3.6C158.65,183.54,159.34,181.05,160.03,178.57z M148.78,174.31c3.39,1.24,6.76,2.51,10.12,3.82
			c-0.71,2.46-1.41,4.93-2.11,7.4c-3.38-1.43-6.75-2.87-10.13-4.3C147.38,178.92,148.08,176.61,148.78,174.31z M146.49,181.74
			c3.37,1.48,6.74,2.96,10.11,4.44c-0.83,2.94-1.66,5.87-2.48,8.81c-3.46-1.55-6.93-3.09-10.4-4.63
			C144.67,187.5,145.59,184.62,146.49,181.74z M134.29,186.81c2.8,1.34,5.61,2.66,8.43,3.97c-1.15,3.3-2.3,6.59-3.47,9.88
			c-2.87-1.22-5.76-2.4-8.66-3.54C131.9,193.71,133.13,190.27,134.29,186.81z M123.04,194.88c2.04,0.82,4.08,1.65,6.11,2.48
			c-1.26,3.14-2.51,6.29-3.78,9.42c-2-1.02-4-2.02-6.01-3C120.62,200.82,121.85,197.85,123.04,194.88z M119.17,204.22
			c1.99,1.04,3.98,2.09,5.96,3.15c-0.73,1.81-1.46,3.62-2.21,5.42c-2.01-1.07-4.03-2.12-6.06-3.15
			C117.63,207.84,118.4,206.03,119.17,204.22z M112.36,200.77c1.84,0.91,3.67,1.83,5.5,2.77c-0.76,1.83-1.5,3.66-2.23,5.5
			c-2.02-1.01-4.04-2-6.08-2.97C110.49,204.3,111.43,202.54,112.36,200.77z M109.35,206.46c2.03,1.03,4.05,2.08,6.06,3.14
			c-0.97,2.44-1.92,4.89-2.86,7.32c-2.25-1.24-4.52-2.45-6.8-3.65C106.94,211,108.14,208.73,109.35,206.46z M96.5,209.5
			c2.68,1.38,5.36,2.77,8.02,4.17c-1.51,2.85-3,5.71-4.47,8.58c-2.63-1.41-5.26-2.82-7.9-4.22C93.59,215.18,95.04,212.34,96.5,209.5
			z M83.44,214.31c2.51,1.4,5.04,2.77,7.58,4.13c-0.91,1.79-1.81,3.59-2.7,5.39c-2.5-1.33-5.01-2.65-7.53-3.94
			C81.69,218.03,82.57,216.17,83.44,214.31z M80.47,220.57c2.5,1.34,4.99,2.68,7.48,4.04c-0.98,2.01-1.96,4.01-2.91,6.03
			c-0.09,0.2-0.18,0.39-0.27,0.59c-0.07-0.04-0.14-0.09-0.22-0.13c-2.38-1.39-4.76-2.76-7.16-4.13
			C78.4,224.84,79.44,222.71,80.47,220.57z M72.38,216.25c2.31,1.23,4.62,2.46,6.93,3.7c-0.96,2.17-1.92,4.33-2.88,6.49
			c-2.37-1.34-4.75-2.67-7.14-3.99C70.41,220.42,71.45,218.35,72.38,216.25z M68.97,223.01c2.38,1.37,4.76,2.74,7.13,4.13
			c-0.39,0.86-0.78,1.73-1.17,2.59c-0.54,1.18-1.07,2.37-1.61,3.55c-0.45-0.23-0.9-0.45-1.35-0.68c-2.24-1.13-4.48-2.27-6.72-3.4
			C66.54,227.17,67.79,225.11,68.97,223.01z M60.89,218.42c2.37,1.34,4.74,2.69,7.11,4.04c-0.02,0.03-0.03,0.05-0.04,0.08
			c-1.16,2.09-2.37,4.15-3.61,6.19c-2.54-1.28-5.08-2.55-7.62-3.83C58.09,222.74,59.49,220.58,60.89,218.42z M56.3,225.56
			c2.53,1.31,5.06,2.61,7.59,3.91c-1.19,1.95-2.4,3.88-3.61,5.82c-0.9-0.47-1.81-0.94-2.71-1.41c-1.6-0.85-3.21-1.69-4.82-2.54
			C53.91,229.38,55.1,227.46,56.3,225.56z M47.98,221.23c2.46,1.29,4.93,2.57,7.4,3.85c-1.15,1.94-2.27,3.9-3.35,5.86
			c-2.45-1.29-4.9-2.58-7.35-3.86c0.82-1.5,1.65-2.99,2.5-4.47C47.43,222.15,47.71,221.69,47.98,221.23z M38.94,224.1
			c-1.01-0.52-2.03-1.05-3.04-1.57c1.09-1.98,2.16-3.99,3.11-6.02c0.95,0.51,1.91,1.01,2.86,1.51
			C40.84,220.01,39.87,222.05,38.94,224.1z M39.95,224.63c1.03-2,2.03-4.02,2.95-6.06c1.38,0.73,2.76,1.45,4.14,2.18
			c-0.13,0.23-0.26,0.47-0.4,0.7c-0.98,1.71-1.93,3.44-2.86,5.18C42.51,225.96,41.23,225.29,39.95,224.63z M48.03,238.45
			c-2.48-1.21-4.97-2.42-7.46-3.6c0.4-0.79,0.81-1.59,1.22-2.38c0.82-1.57,1.66-3.14,2.51-4.7c2.43,1.32,4.87,2.63,7.31,3.94
			c-0.74,1.35-1.47,2.7-2.19,4.05C48.94,236.65,48.49,237.55,48.03,238.45z M55.94,242.34c-1.17-0.57-2.33-1.14-3.49-1.71
			c-1.27-0.63-2.54-1.25-3.81-1.88c0.46-0.88,0.92-1.76,1.39-2.63c0.74-1.36,1.5-2.7,2.28-4.03c1.6,0.86,3.2,1.72,4.8,2.57
			c0.89,0.47,1.77,0.96,2.66,1.44c-0.11,0.17-0.22,0.35-0.32,0.52C58.28,238.51,57.1,240.41,55.94,242.34z M66.81,247.74
			c-3.35-1.73-6.74-3.39-10.11-5.03c1.26-2.07,2.55-4.13,3.86-6.18c3.01,1.64,6.03,3.31,9.05,4.96
			C68.68,243.57,67.74,245.65,66.81,247.74z M70.12,240.36c-3.01-1.56-6.03-3.1-9.03-4.65c1.22-1.9,2.47-3.82,3.71-5.78
			c2,1.03,4.01,2.05,6.01,3.07c0.71,0.36,1.43,0.73,2.14,1.1C72.01,236.19,71.05,238.27,70.12,240.36z M78.58,244.84
			c-2.55-1.39-5.13-2.75-7.72-4.09c0.99-2.07,1.96-4.14,2.94-6.21c2.53,1.31,5.07,2.63,7.6,3.95
			C80.45,240.6,79.51,242.72,78.58,244.84z M81.84,237.51c-2.55-1.26-5.1-2.53-7.64-3.8c0.54-1.15,1.1-2.3,1.64-3.46
			c0.4-0.85,0.8-1.71,1.21-2.56c2.13,1.25,4.26,2.5,6.38,3.77c0.32,0.19,0.63,0.38,0.95,0.58
			C83.52,233.86,82.67,235.68,81.84,237.51z M90.43,241.79c-2.57-1.29-5.14-2.57-7.72-3.85c0.81-1.81,1.64-3.62,2.47-5.42
			c2.51,1.51,5.01,3.03,7.51,4.56C91.94,238.66,91.18,240.22,90.43,241.79z M93.11,236.21c-2.51-1.52-5.02-3.02-7.55-4.51
			c0.09-0.2,0.18-0.4,0.27-0.6c0.94-2.03,1.91-4.06,2.88-6.07c1.51,0.83,3.03,1.65,4.54,2.48c1.08,0.6,2.16,1.2,3.24,1.8
			C95.36,231.61,94.23,233.91,93.11,236.21z M96.92,228.47c-0.84-0.46-1.67-0.92-2.51-1.38c-1.77-0.96-3.54-1.9-5.31-2.85
			c0.88-1.81,1.77-3.61,2.67-5.41c2.63,1.41,5.26,2.8,7.89,4.2c-0.7,1.36-1.39,2.73-2.07,4.09
			C97.36,227.57,97.14,228.02,96.92,228.47z M106.21,233.64c-2.82-1.59-5.65-3.17-8.48-4.73c0.22-0.44,0.43-0.88,0.65-1.32
			c0.69-1.38,1.4-2.75,2.09-4.12c1.51,0.8,3.01,1.61,4.51,2.42c1.14,0.62,2.28,1.22,3.42,1.84
			C107.66,229.69,106.93,231.66,106.21,233.64z M108.72,226.87l-2.58-1.37c-1.76-0.93-3.51-1.87-5.27-2.81
			c1.47-2.88,2.95-5.74,4.45-8.6c2.31,1.22,4.6,2.45,6.89,3.71c-0.17,0.43-0.34,0.86-0.5,1.29
			C110.69,221.67,109.7,224.26,108.72,226.87z M115.29,230.35c-1.87-0.99-3.74-1.98-5.61-2.98c0.93-2.42,1.88-4.84,2.83-7.26
			c0.23-0.59,0.47-1.17,0.71-1.76c0.92,0.51,1.84,1.03,2.76,1.55c1.05,0.6,2.09,1.2,3.13,1.81
			C117.85,224.61,116.57,227.48,115.29,230.35z M119.51,220.81c-1.02-0.57-2.03-1.15-3.05-1.71c-0.96-0.54-1.92-1.07-2.88-1.6
			c0.99-2.42,2.01-4.84,3.03-7.25c2.02,1.07,4.03,2.16,6.03,3.26c-0.12,0.3-0.25,0.6-0.37,0.9
			C121.37,216.54,120.44,218.68,119.51,220.81z M129.61,226.68c-2.96-1.79-5.96-3.52-8.95-5.22c0.75-1.76,1.5-3.52,2.24-5.28
			c0.29-0.68,0.57-1.37,0.86-2.06c1.7,0.94,3.39,1.88,5.08,2.84c1.23,0.7,2.45,1.42,3.67,2.14
			C131.54,221.63,130.58,224.16,129.61,226.68z M132.8,218.3c-0.97-0.56-1.94-1.11-2.91-1.66c-1.93-1.1-3.88-2.17-5.84-3.23
			c0.75-1.8,1.5-3.6,2.24-5.41c2.87,1.56,5.73,3.14,8.58,4.75C134.18,214.6,133.5,216.45,132.8,218.3z M135.77,210.32
			c-0.2,0.55-0.41,1.1-0.61,1.65c-2.85-1.57-5.72-3.1-8.62-4.59c1.29-3.17,2.56-6.35,3.78-9.54c2.89,1.19,5.77,2.39,8.65,3.62
			C137.92,204.41,136.85,207.37,135.77,210.32z M147.35,218.86c-3.57-2.1-7.19-4.12-10.77-6.12c-0.17-0.09-0.34-0.18-0.51-0.28
			c0.14-0.38,0.28-0.75,0.41-1.13c1.14-3.16,2.26-6.33,3.36-9.5c2.92,1.26,5.84,2.54,8.73,3.88c0.73,0.34,1.46,0.69,2.19,1.04
			C149.63,210.78,148.48,214.82,147.35,218.86z M151.02,205.88c-0.67-0.31-1.33-0.63-2-0.93c-2.95-1.33-5.91-2.64-8.9-3.92
			c1.14-3.29,2.25-6.6,3.34-9.9c3.46,1.6,6.92,3.2,10.39,4.78c-0.04,0.12-0.07,0.25-0.1,0.37
			C152.85,199.48,151.94,202.68,151.02,205.88z M159.6,209.94c-2.44-1.19-4.89-2.35-7.35-3.49c0.84-3.02,1.67-6.04,2.52-9.05
			c0.09-0.32,0.18-0.63,0.27-0.95c2.2,1,4.4,2.01,6.6,3.01c0.43,0.2,0.86,0.39,1.3,0.59C161.81,203.34,160.7,206.64,159.6,209.94z
			 M163.25,199.1c-0.37-0.17-0.74-0.33-1.11-0.5c-2.28-1.03-4.56-2.05-6.84-3.08c0.82-2.94,1.65-5.88,2.47-8.82
			c2.8,1.23,5.61,2.47,8.41,3.7c-0.04,0.12-0.08,0.25-0.12,0.37C165.13,193.54,164.19,196.32,163.25,199.1z M172.99,203.49
			c-2.84-1.28-5.67-2.56-8.51-3.83c0.94-2.85,1.87-5.7,2.82-8.55c0.02-0.06,0.04-0.13,0.06-0.19c0.52,0.23,1.04,0.46,1.56,0.69
			c2.38,1.04,4.77,2.08,7.16,3.12C175.08,197.65,174.05,200.57,172.99,203.49z M181.34,207.23c-0.99-0.44-1.97-0.87-2.95-1.31
			c-1.35-0.61-2.7-1.21-4.05-1.82c1.07-2.92,2.09-5.85,3.07-8.8c2.33,1.01,4.67,2.03,7,3.05c0.03,0.01,0.06,0.03,0.1,0.04
			C183.47,201.34,182.41,204.29,181.34,207.23z M184.83,197.5c-2.37-1.02-4.75-2.04-7.12-3.06c0.83-2.51,1.63-5.02,2.41-7.53
			c2.43,1.08,4.83,2.2,7.23,3.34C186.51,192.68,185.68,195.09,184.83,197.5z M187.64,189.36c-2.44-1.07-4.88-2.13-7.3-3.17
			c0.11-0.36,0.23-0.72,0.34-1.09c1.06-3.48,2.12-7,3.12-10.55c0.66,0.26,1.32,0.52,1.99,0.77c1.89,0.73,3.79,1.46,5.68,2.19
			c-0.09,0.29-0.17,0.58-0.26,0.87C190.07,182.07,188.88,185.72,187.64,189.36z M199.08,194.65c-3.3-1.62-6.64-3.16-10-4.65
			c1.15-3.49,2.26-6.99,3.32-10.49c0.15-0.49,0.29-0.98,0.44-1.47c2.69,1.04,5.38,2.07,8.06,3.11c0.58,0.23,1.17,0.46,1.75,0.69
			C201.48,186.12,200.28,190.39,199.08,194.65z M202.92,180.9c-0.33-0.13-0.67-0.25-1-0.38c-2.94-1.12-5.88-2.24-8.81-3.36
			c0.62-2.09,1.22-4.18,1.81-6.27c3.21,1.34,6.41,2.69,9.63,4.02C204.01,176.91,203.47,178.91,202.92,180.9z M204.86,173.74
			c-3.23-1.27-6.47-2.52-9.69-3.78c0.75-2.71,1.47-5.42,2.16-8.14c2.31,0.9,4.63,1.8,6.94,2.69c0.91,0.35,1.82,0.71,2.73,1.07
			C206.3,168.3,205.59,171.02,204.86,173.74z M207.22,164.74c-0.66-0.25-1.31-0.49-1.97-0.74c-2.58-0.98-5.15-1.96-7.73-2.95
			c0.73-2.91,1.41-5.83,2.06-8.75c3.25,1.31,6.5,2.62,9.76,3.93C208.65,159.07,207.95,161.91,207.22,164.74z M199.72,151.71
			c0.46-2.08,0.9-4.17,1.32-6.26c3.31,1.28,6.62,2.56,9.93,3.85c-0.47,2.04-0.95,4.08-1.44,6.12
			C206.26,154.18,202.99,152.94,199.72,151.71z"/>
		<path class="st3" d="M39.31,199.28c0.24,0.05,0.38-0.21,0.23-0.4c-0.68-0.85-1.85-1.32-2.81-1.86c-0.06,0.24-0.11,0.49-0.17,0.73
			C37.42,198.34,38.32,199.07,39.31,199.28z"/>
		<path class="st3" d="M187.99,77.88c0.8-0.46,1.58-0.95,2.3-1.5c0.15-0.11,0.07-0.39-0.14-0.32c-1.08,0.33-2.12,0.77-3.15,1.27
			c-0.63-0.35-1.24-0.71-1.86-1.07c0.31-0.13,0.61-0.26,0.91-0.41c0.15-0.08,0.08-0.34-0.09-0.32c-3.13,0.24-6.92,2.2-9.1,4.41
			c-0.16,0.16,0.04,0.4,0.23,0.3c1.48-0.78,2.86-1.72,4.37-2.46c1.04-0.51,2.14-0.89,3.22-1.32c0.59,0.37,1.18,0.76,1.76,1.15
			c-0.96,0.48-1.9,0.99-2.84,1.48c-0.77,0.4-1.57,0.79-2.37,1.18c-0.4-0.27-0.79-0.53-1.19-0.8c-0.16-0.11-0.31,0.15-0.15,0.26
			c0.33,0.24,0.67,0.47,1,0.71c-1.33,0.66-2.66,1.33-3.89,2.12c-0.41-0.28-0.81-0.56-1.22-0.83c-0.15-0.1-0.27,0.13-0.14,0.24
			c0.35,0.27,0.71,0.52,1.06,0.79c-0.25,0.17-0.51,0.34-0.75,0.51c-0.19,0.14-0.08,0.48,0.17,0.4c0.18-0.06,0.36-0.11,0.55-0.17
			c0.02-0.01,0.04-0.02,0.05-0.04c0.2-0.07,0.4-0.17,0.6-0.25c1.36,1.01,2.72,2.02,4.09,3.02c-0.45,0.23-0.89,0.46-1.34,0.7
			c-1.19,0.63-2.62,1.13-3.58,2.1c-0.44-0.27-0.88-0.55-1.33-0.82c0.07,0.41,0.15,0.82,0.25,1.23c0.14-0.1,0.22-0.29,0.12-0.47
			c-0.05-0.08-0.09-0.16-0.14-0.24c0.28,0.19,0.57,0.38,0.85,0.57c-0.07,0.09-0.15,0.18-0.22,0.27c-0.04,0.07,0.01,0.15,0.09,0.15
			c0.24,0.01,0.46-0.02,0.68-0.06c1.25,0.84,2.5,1.67,3.74,2.51c-0.96,0.37-1.93,0.78-2.66,1.41c0.22,0.16,0.44,0.33,0.67,0.49
			c1.07-0.16,2.14-0.71,3.13-1.15c0.49,0.33,0.98,0.66,1.47,0.98c0.05-0.23,0.09-0.46,0.15-0.69c-0.32-0.2-0.63-0.4-0.95-0.59
			c0.43-0.19,0.86-0.38,1.29-0.58c0.17-0.51,0.36-1.01,0.57-1.5c-0.72,0.34-1.43,0.69-2.15,1.02c-0.27,0.12-0.55,0.23-0.84,0.35
			c-1.29-0.8-2.57-1.59-3.86-2.39c0.91-0.28,1.74-0.82,2.61-1.25c0.85-0.43,1.69-0.86,2.53-1.29c0.85,0.62,1.7,1.25,2.56,1.87
			c0.1-0.19,0.21-0.37,0.32-0.55c-0.77-0.54-1.54-1.07-2.31-1.61c0.63-0.32,1.26-0.64,1.89-0.96c0.67-0.34,1.35-0.68,2.04-1.01
			c0.24,0.17,0.48,0.34,0.72,0.51c0.92,0.66,1.84,1.35,2.76,2.03c-1.05,0.62-2.1,1.24-3.16,1.78c-0.16,0.08-0.32,0.16-0.48,0.23
			c-0.18,0.5-0.35,1-0.51,1.51c0.27-0.13,0.55-0.26,0.82-0.39c1.37,1.05,2.75,2.15,4.15,3.22c-0.44,0.23-0.87,0.46-1.3,0.67
			c-0.93,0.45-1.87,0.9-2.8,1.36c-0.08-0.05-0.17-0.11-0.25-0.16c-0.47-0.3-0.94-0.58-1.4-0.88c-0.02,0.29-0.03,0.58-0.03,0.87
			c0.28,0.19,0.56,0.38,0.85,0.57c-0.28,0.14-0.56,0.28-0.84,0.41c0.01,0.32,0.02,0.63,0.03,0.95c0.56-0.26,1.13-0.52,1.69-0.79
			c1.61,1.07,3.22,2.12,4.83,3.18c-1,0.63-1.99,1.28-2.93,2c-0.03,0.03-0.05,0.06-0.06,0.09c0.07,0.05,0.13,0.1,0.2,0.15
			c1.19-0.52,2.34-1.14,3.48-1.78c1.45,0.97,2.92,2.12,4.51,2.89c0.06-0.32,0.14-0.64,0.22-0.96c-1.17-0.93-2.54-1.68-3.81-2.45
			c1.19-0.66,2.58-1.26,3.49-2.28c0.15-0.17,0-0.43-0.22-0.38c-1.37,0.32-2.6,1.29-3.78,2.03c-0.08,0.05-0.17,0.1-0.25,0.16
			c-1.61-1.02-3.21-2.04-4.82-3.05c0.55-0.26,1.11-0.52,1.66-0.78c0.81-0.38,1.62-0.77,2.43-1.15c1.36,0.99,2.74,1.92,4.18,2.66
			c0.33,0.17,0.7-0.26,0.41-0.53c-1.03-0.98-2.18-1.87-3.37-2.71c0.44-0.21,0.88-0.41,1.31-0.62c1.43-0.68,2.97-1.24,4.19-2.26
			c0.22-0.19-0.02-0.5-0.26-0.45c-2.1,0.41-4.22,1.55-6.24,2.64c-1.5-1.02-3.04-1.99-4.52-2.98c1.23-0.6,2.52-1.21,3.79-1.89
			c1.26,0.91,2.54,1.78,3.87,2.52c0.32,0.18,0.59-0.25,0.36-0.47l0,0c-1.07-0.9-2.23-1.71-3.41-2.5c1.52-0.86,2.96-1.84,4.15-3
			c0.2-0.19,0-0.58-0.28-0.48c-1.8,0.65-3.51,1.62-5.2,2.61c-0.85-0.55-1.71-1.09-2.54-1.65c-0.37-0.25-0.74-0.5-1.11-0.74
			c1.84-0.89,3.69-1.79,5.41-2.87c0.21,0.1,0.41,0.21,0.62,0.31c0.19,0.09,0.43-0.16,0.24-0.31c-0.13-0.1-0.27-0.2-0.41-0.3
			c0.47-0.31,0.94-0.63,1.39-0.97c0.27-0.21-0.02-0.63-0.32-0.54c-0.72,0.21-1.42,0.47-2.12,0.76
			C190.97,79.59,189.48,78.73,187.99,77.88z M185.04,84.33c-1.03,0.53-2.06,1.07-3.08,1.61c-1.41-0.98-2.82-1.94-4.23-2.91
			c1.38-0.59,2.72-1.3,4.05-1.99c1.35,0.95,2.7,1.91,4.04,2.87C185.56,84.05,185.3,84.19,185.04,84.33z M186.31,83.65
			c-1.39-0.93-2.78-1.86-4.17-2.79c0.17-0.09,0.35-0.18,0.52-0.27c1.55-0.78,3.17-1.52,4.72-2.36c1.38,0.92,2.78,1.84,4.21,2.66
			C189.79,81.7,188.04,82.7,186.31,83.65z"/>
		<path class="st3" d="M151.53,78.21c-0.13-0.16-0.24-0.34-0.36-0.51c-0.14,0.1-0.28,0.21-0.43,0.31
			C151,78.07,151.27,78.13,151.53,78.21z"/>
		<path class="st3" d="M219.84,98.71c-2.28,0.87-4.46,1.95-6.63,3.07c-0.66-0.47-1.32-0.95-1.97-1.43
			c-0.25-0.19-0.48,0.23-0.24,0.42c0.55,0.43,1.1,0.86,1.65,1.29c-0.69,0.36-1.37,0.71-2.06,1.07c-0.5,0.26-1,0.52-1.5,0.78
			c-0.36-0.28-0.72-0.56-1.07-0.84c-0.28-0.23-0.69,0.17-0.4,0.4c0.3,0.24,0.6,0.49,0.89,0.74c-0.93,0.48-1.85,0.96-2.78,1.44
			c-0.51,0.27-1.04,0.53-1.57,0.8c-1.2-0.91-2.42-1.79-3.66-2.65c-0.16-0.11-0.3,0.15-0.15,0.26c1.16,0.84,2.29,1.71,3.41,2.6
			c-0.98,0.51-1.94,1.08-2.74,1.83c-0.1,0.09,0.01,0.23,0.12,0.21c1.21-0.23,2.42-0.69,3.61-1.25c1.32,1.07,2.61,2.19,3.88,3.33
			c-1.23,0.67-2.46,1.37-3.6,2.14c-1.97-1.96-3.96-3.91-6-5.8c0,0.13-0.01,0.27-0.01,0.4c1.79,1.95,3.65,3.86,5.5,5.76
			c-0.21,0.15-0.43,0.3-0.64,0.46c0.14,0.13,0.28,0.26,0.42,0.39c0.25-0.1,0.5-0.2,0.75-0.3c0.11,0.11,0.22,0.22,0.33,0.33
			c0.27,0.28,0.54,0.57,0.81,0.85c0.2-0.12,0.41-0.23,0.62-0.33c-0.14-0.13-0.28-0.27-0.41-0.4c-0.24-0.24-0.49-0.48-0.73-0.72
			c1.3-0.59,2.58-1.27,3.84-1.98c0.38,0.36,0.75,0.74,1.12,1.11c0.2-0.12,0.39-0.24,0.58-0.36c-0.39-0.35-0.79-0.7-1.17-1.05
			c1.09-0.61,2.17-1.24,3.24-1.82c0.29-0.16,0.58-0.31,0.88-0.47c0.34,0.29,0.69,0.57,1.03,0.85c0.28-0.17,0.57-0.34,0.86-0.52
			c-0.33-0.27-0.66-0.53-1-0.8c1.16-0.6,2.33-1.2,3.48-1.84c0.35,0.26,0.71,0.52,1.07,0.78c0.13,0.03,0.24,0.12,0.31,0.23
			c0.87,0.62,1.74,1.23,2.64,1.8c0.23,0.14,0.49-0.19,0.29-0.37c-1.13-1.01-2.31-1.96-3.52-2.89c0.86-0.5,1.7-1.05,2.5-1.63
			c0.01,0.01,0.02,0.03,0.03,0.04c0.88,0.69,1.74,1.5,2.69,2.07c0.23,0.14,0.56-0.15,0.39-0.39c-0.57-0.79-1.1-1.63-1.71-2.4
			c0.13,0.07,0.25,0.15,0.39,0.22c0.13,0.06,0.22-0.11,0.11-0.19c-0.32-0.23-0.67-0.41-1-0.63c-0.12-0.08-0.24,0.07-0.18,0.18
			c0.26,0.54,0.57,1.05,0.9,1.56c-0.37-0.28-0.75-0.55-1.11-0.82c0,0,0,0,0.01,0c0.23-0.18-0.02-0.58-0.28-0.49
			c-1.29,0.46-2.53,1.06-3.75,1.71c-1.34-1-2.71-1.97-4.07-2.94c1.99-1.02,3.96-2.07,5.83-3.3
			C220.29,99.04,220.13,98.6,219.84,98.71z M209.14,110.49c-1.28-1.13-2.6-2.21-3.95-3.26c1.44-0.71,2.85-1.54,4.21-2.27
			c1.3,1.09,2.6,2.21,3.9,3.31C211.95,109.02,210.54,109.74,209.14,110.49z M217.48,105.89c-1.13,0.63-2.24,1.29-3.35,1.92
			c-1.37-1.06-2.75-2.11-4.12-3.17c0.14-0.07,0.28-0.15,0.42-0.22c1.05-0.53,2.11-1.06,3.17-1.59
			C214.88,103.85,216.17,104.88,217.48,105.89z"/>
		<path class="st3" d="M144.17,58.27c0.77-0.46,1.35-1.19,1.92-1.87c0.64-0.77,1.36-1.58,1.78-2.5c0.08-0.18-0.1-0.43-0.29-0.29
			c-0.82,0.58-1.47,1.4-2.11,2.17c-0.59,0.71-1.22,1.43-1.54,2.31C143.87,58.22,144.05,58.34,144.17,58.27z"/>
		<path class="st3" d="M148.9,72.64c-0.11,0.09-0.22,0.19-0.33,0.28c-1.65-0.59-3.3-1.15-4.97-1.66c0.12,0.23,0.25,0.46,0.38,0.69
			c1.27,0.55,2.55,1.08,3.84,1.59c-0.58,0.48-1.13,0.98-1.65,1.52c0.2,0.24,0.41,0.47,0.63,0.7c0.91-0.32,1.78-0.85,2.59-1.48
			c-0.04-0.12-0.1-0.25-0.14-0.37C149.12,73.48,149,73.05,148.9,72.64z"/>
		<path class="st3" d="M171.82,86.23c0.08-0.09,0.16-0.17,0.23-0.26c0.19-0.25-0.16-0.46-0.37-0.37c-0.04,0.02-0.08,0.04-0.12,0.06
			c0.07,0.54,0.14,1.09,0.2,1.63c0.24,0.17,0.49,0.34,0.74,0.51c-0.1-0.42-0.17-0.84-0.24-1.26
			C172.12,86.44,171.97,86.33,171.82,86.23z"/>
		<path class="st3" d="M163.51,128.29c1.94,0.8,3.97,1.39,5.96,2.03c1.94,0.63,4.08,1.6,6.13,1.65c0.25,0.01,0.32-0.33,0.12-0.45
			c-1.55-0.97-3.54-1.27-5.28-1.78c-2.25-0.66-4.54-1.35-6.84-1.79C163.37,127.9,163.3,128.2,163.51,128.29z"/>
		<path class="st3" d="M162.45,89.63c0.01,0.09,0.15,0.16,0.2,0.05c0.36-0.73,0.55-1.55,0.76-2.34c0.1-0.39,0.22-0.78,0.27-1.18
			c-0.32-0.17-0.63-0.35-0.95-0.52c-0.11,0.35-0.15,0.71-0.19,1.12c-0.83-0.35-1.73-0.38-2.62-0.48c-1.37-0.15-2.73-0.35-4.11-0.43
			c-0.15-0.01-0.19,0.24-0.04,0.27c1.18,0.25,2.37,0.42,3.56,0.6c1.03,0.16,2.11,0.45,3.15,0.32c0.01,0,0.02-0.01,0.03-0.01
			C162.42,87.89,162.34,88.78,162.45,89.63z"/>
		<path class="st3" d="M169.57,122.54c0.85,0.11,1.71,0.33,2.51-0.02c0.12-0.05,0.09-0.23,0-0.29c-0.64-0.43-1.36-0.38-2.11-0.42
			c-1.08-0.07-2.16-0.11-3.24-0.06c-0.19,0.01-0.24,0.29-0.05,0.34C167.65,122.29,168.61,122.41,169.57,122.54z"/>
		<path class="st3" d="M166.57,82.6c-1.79-1.26-3.59-2.52-5.47-3.61c-0.08-0.05-0.17,0.07-0.1,0.13c1.61,1.43,3.36,2.72,5.09,3.99
			c-0.26,0.3-0.49,0.62-0.68,0.95c0.25,0.16,0.5,0.32,0.74,0.48c0.34-0.18,0.67-0.4,0.99-0.66c0.03,0.02,0.06,0.05,0.09,0.07
			c0.49,0.36,0.98,0.73,1.47,1.09c-0.04-0.34-0.08-0.68-0.1-1.02c-0.3-0.21-0.59-0.42-0.89-0.63c0.28-0.26,0.56-0.53,0.83-0.8
			c-0.01-0.59,0-1.18,0.03-1.77C167.92,81.38,167.2,81.97,166.57,82.6z"/>
		<path class="st3" d="M141.48,73.64c-0.1-0.16-0.2-0.32-0.3-0.48c-0.04,0-0.09,0-0.13,0.03c-0.16,0.1-0.39,0.17-0.53,0.31
			c-0.2,0.2-0.36,0.42-0.52,0.65l-0.01,0.01c0.36,0.14,0.71,0.28,1.06,0.43c0.07-0.1,0.15-0.2,0.22-0.3
			C141.42,74.09,141.44,73.86,141.48,73.64z"/>
		<path class="st3" d="M141.85,66.87c1.48,0.74,2.96,1.47,4.46,2.19c-0.66,0.7-1.31,1.41-1.88,2.18c-0.1,0.13,0.08,0.26,0.2,0.2
			c0.97-0.48,1.86-1.15,2.67-1.9c0.4,0.19,0.8,0.38,1.2,0.58c-0.02-0.26-0.02-0.52-0.03-0.78c-0.22-0.1-0.44-0.19-0.66-0.29
			c0.23-0.23,0.45-0.47,0.67-0.7c0.03-0.64,0.09-1.29,0.21-1.94c-0.62,0.75-1.28,1.46-1.95,2.17c-1.67-0.73-3.35-1.45-5.03-2.16
			C141.76,66.57,141.81,66.72,141.85,66.87z"/>
		<path class="st3" d="M171.18,81.12c0,0.1,0.01,0.21,0.02,0.31c0.34,0.18,0.68,0.36,1.02,0.53c0.04-0.32,0.08-0.64,0.14-0.96
			c-0.39-0.23-0.77-0.46-1.16-0.69C171.19,80.59,171.17,80.85,171.18,81.12z"/>
		<path class="st3" d="M171.21,78.39c-0.02,0.58-0.02,1.17-0.02,1.75c0.59-0.53,1.17-1.06,1.75-1.6c0.25-0.83,0.55-1.64,0.91-2.43
			c-0.18,0.14-0.36,0.29-0.54,0.44c0,0,0,0-0.01,0c-0.04-0.03-0.09-0.03-0.14-0.01c-0.59-0.36-1.19-0.7-1.79-1.05
			c-0.03,0.36-0.05,0.73-0.07,1.09c0.4,0.22,0.79,0.44,1.2,0.65C172.06,77.6,171.63,77.99,171.21,78.39z"/>
		<path class="st3" d="M134.9,74.12c-0.22-0.14-0.42-0.29-0.64-0.44c-0.01,0.04-0.02,0.08-0.03,0.12
			C134.45,73.9,134.68,74.01,134.9,74.12z"/>
	</g>
	<g>
		<path class="st4" d="M261.67,141.03c-6.1-4.74-11.89-9.95-18.34-14.22c-2.4-1.59-5.27-2.89-8.09-3.05
			c0.62-0.44,1.22-0.89,1.78-1.4c3.64-3.26,5.39-7.96,5.9-12.7c0.83-7.63-3.07-15.02,0.32-22.44c0.35-0.77-0.37-1.56-1.16-1.16
			c-9.69,4.93-25.66-0.44-35.52,4.73c1.67-2.82,3.04-5.75,3.37-9c1.13-11.14-5.55-19.28-11.46-27.91c-0.37-0.53-1.2-0.49-1.4,0.18
			c-0.91,3.21-2.82,5.48-5.18,7.33c-0.77-4.59-4.6-9.13-7.59-12.27c-4.31-4.53-9.9-7.49-15.84-9.24c-0.73-0.22-1.36,0.37-1.41,1.07
			c-0.4,6.22-3.83,11.21-6.74,16.46c-3.68-11.83-16.74-18.74-28.83-17.16c-0.89,0.12-1.56,1.15-0.78,1.89
			c5.57,5.31,6.11,13.03,7.22,20.27c-1.41-1.18-3.18-2.01-4.92-2.67c-6.17-2.35-12.92-3.6-19.27-5.37c-0.72-0.2-1.66,0.54-1.33,1.33
			c3.18,7.72,10.17,15.85,18.43,19.54c-6.76,0.05-13.5,1.1-19.97,3.08c-5.96,1.82-11.6,4.52-16.74,7.93
			c-5.06,2.81-9.8,6.16-13.9,10.45c-7,7.33-12.31,17.29-15.49,27.28c-3.12,6.58-6.05,13.28-9.07,19.84
			c-5.24,11.34-10.6,22.67-15.4,34.2c-8.07,19.38-13.3,44.49,0.79,62.56c5.83,7.47,13.64,12.34,23.09,13.48
			c11.97,1.45,24.04-4.47,34.84-8.74c23.49-9.29,47.43-17.89,70.44-28.35c26.33-11.98,53.48-32.92,53.6-64.6
			c0.01-1.71-0.09-3.39-0.27-5.04c1.95,2.17,5.17,3.28,7.93,3.9c6.97,1.56,15.78-0.14,19.85,7.3c0.38,0.8,1.77,0.22,1.44-0.61
			c-0.03-0.06-0.06-0.12-0.08-0.18l0,0c-0.01-0.02-0.02-0.04-0.03-0.06c-0.34-0.79-0.74-1.5-1.21-2.13
			c-3.12-5.1-7.67-9.49-13.14-11.77c8-0.64,16.46-2.9,23.44-1.47C261.59,142.47,262.34,141.55,261.67,141.03z M223.03,90.5
			c6.3,0.11,12.03,0.1,17.82-2.08c-3.13,8.31,1.26,17.36-1.62,25.83c-1.63,4.8-5.91,8.49-10.55,10.19
			c-4.23,1.55-8.45,0.8-12.39-0.82c-0.82-0.57-1.67-1.09-2.54-1.59c-1.22-0.71-2.51-1.51-3.84-2.11c-0.91-1.05-1.85-2.09-2.83-3.1
			c2.28-0.46,4.3-1.96,6.23-3.21c2.4-1.55,4.58-3.23,6.53-5.33c0.38-0.41-0.1-1.02-0.59-0.77c-3.05,1.57-5.87,3.5-8.8,5.28
			c-1.42,0.86-2.96,1.45-4.37,2.27c-0.1,0.06-0.26,0.21-0.38,0.38c-0.13-0.13-0.26-0.26-0.39-0.39c-1.96-1.9-4.03-3.69-6.14-5.42
			c-0.85-5.53,1.83-10.08,4.74-14.63C209.11,90.86,216.36,90.38,223.03,90.5z M198.21,56.07c6.62,8.91,12.32,20.51,7.01,31.31
			c-3.23,6.59-9.53,13.17-7.96,20.72c-2.73-2.15-5.53-4.22-8.31-6.29c-1.14-0.84-2.28-1.69-3.41-2.54c0.1-1.8-0.19-3.67,0.09-5.47
			c0.41-2.63,1.38-5.16,2.46-7.58c0.19-0.43-0.3-0.88-0.68-0.52c-2.56,2.44-4.87,7.48-4.47,11.64c-2.2-1.64-4.4-3.28-6.61-4.9
			c-3.35-8.92-1.16-17.59,7.31-22.94C189.41,65.85,196.37,63.03,198.21,56.07z M162.17,59.92c2.96-5.71,7.09-10.83,7.15-17.39
			c5.01,1.74,9.41,4.63,13.24,8.33c1.94,1.87,3.55,4.05,5.02,6.3c1.1,1.68,1.85,3.57,2.95,5.23c-5.05,3.46-11.53,5.62-15.01,10.73
			c-3.37,4.95-4.55,11.62-2.27,17.08c-0.42-0.31-0.85-0.61-1.27-0.92c-0.26-2.71-0.76-5.41-0.8-8.14
			c-0.07-4.23,0.33-8.42,1.14-12.57c0.05-0.25-0.3-0.43-0.43-0.18c-2.55,5.1-4.17,12.13-2.94,18.2c-2.08-1.71-4.44-3.17-6.95-4.42
			C159.05,74.35,158.16,67.65,162.17,59.92z M134.16,42.45c11.24,0.32,19.71,6.59,25.44,16.26c-1.1,2.08-2.08,4.21-2.71,6.49
			c-1.43,5.12-0.56,11.38,2.6,15.77c-1.15-0.5-2.33-0.94-3.52-1.36c-0.78-2.16-3.07-3.71-4.22-5.79c-1.65-2.99-2.36-6.55-2.05-9.94
			c0.02-0.19-0.25-0.2-0.31-0.04c-1.21,3.4-1.22,6.62-0.13,10.06c0.41,1.29,1.21,2.95,2.27,4.31c-0.96-0.27-1.93-0.52-2.89-0.75
			c-6.14-4.96-7.47-11.91-8.62-19.59C139.18,52.27,137.88,46.68,134.16,42.45z M125,68.37c-3.92-3.1-6.91-6.92-9.37-11.17
			c3.7,1.07,7.39,2.17,11.09,3.24c3.76,1.09,8.44,1.62,11.53,4.16c0.07,0.39,0.14,0.77,0.21,1.15c0.67,3.32,2.04,6.89,4.22,9.66
			c-1.93-1.15-4.21-1.72-6.27-2.62c-3.07-1.34-5.75-3.3-8.38-5.34c-0.14-0.11-0.29,0.05-0.19,0.19c1.65,2.11,4.19,4.63,7.04,6.49
			C131.45,72.49,128.08,70.8,125,68.37z M196.95,196.81c-18.92,16.08-43.78,23.89-66.49,32.88c-12.24,4.85-24.47,9.7-36.71,14.55
			c-11.64,4.62-24.18,9.71-36.67,5.28c-11.31-4-18.46-15.13-21.08-26.32c-3.04-13,0.14-26.68,4.59-38.94
			c7.73-21.32,19.16-41.23,27.8-62.2c3.87-7.44,7.44-14.98,12.69-21.73c8.27-8.99,18.66-15.96,30.37-19.76
			c9.79-3.17,20.34-3.64,30.46-2.05c4.79,0.75,9.44,2.15,13.97,3.86c3.06,1.16,5.88,2.72,8.71,4.27l0.01,0.01
			c2.03,1.64,4.09,3.23,6.16,4.82c0.21,0.37,0.43,0.73,0.68,1.08c0.18,0.26,0.55,0.21,0.65-0.07c7.47,5.65,15.12,11.07,22.52,16.8
			c8.75,6.78,16.8,14.28,22.09,24.13C228.74,155.86,214.27,182.1,196.95,196.81z M245.93,151.93c-1.48-0.66-3.11-1.11-4.83-1.42
			c-3.29-0.6-6.68-0.52-10-0.98c-3.62-0.5-6.16-2.19-8.73-4.51c-0.25-1.53-0.58-3.03-0.99-4.5c3.42,2.5,7.4,3.36,11.63,3.44
			C237.93,145.7,242.42,148.25,245.93,151.93z M220.89,138.82c-0.65-2.03-1.43-4-2.34-5.92c5.72,4.27,12.91,4.42,19.53,1.47
			c0.08-0.04,0.02-0.15-0.06-0.14c-6.79,1.3-14.01-0.19-20.27-2.95c-1.27-2.44-2.74-4.78-4.38-7.04c5.15,3.96,12.12,4.14,17.98,1.67
			c5.47-0.98,9.56,1.74,13.99,5.1c4.13,3.13,8.35,6.11,12.53,9.16C245.49,138.56,232.6,144.65,220.89,138.82z"/>
		<path class="st4" d="M87.28,172.86c-0.54-0.41-1.71-0.63-2.1,0.11c-0.06,0.11-0.05,0.26,0.05,0.35c0.37,0.35,1.54,1.01,1.03,1.67
			c-0.77,1-2.35-0.04-3.34,0.25c-0.25,0.07-0.34,0.34-0.23,0.56c0.47,0.94,1.78,1.28,2.75,1.29c1.05,0.01,2.18-0.61,2.57-1.6
			C88.37,174.59,88.06,173.45,87.28,172.86z"/>
		<path class="st4" d="M104.15,171.92c-0.13-0.76-0.36-1.55-0.99-2.05c-0.28-0.23-0.64-0.2-0.85,0.11
			c-0.29,0.43-0.38,0.92-0.39,1.41c-0.53,0.15-1.07,0.33-1.53,0.58c-0.34,0.18-0.64,0.38-0.94,0.62c-0.24,0.19-0.27,0.44-0.53,0.59
			c-0.19,0.1-0.11,0.43,0.11,0.41c0.19-0.01,0.55,0.16,0.74,0.21c0.35,0.1,0.77,0.06,1.13,0.04c0.82-0.05,1.69-0.33,2.47-0.56
			C104,173.09,104.25,172.52,104.15,171.92z"/>
		<path class="st4" d="M99.17,158.79c-0.11-0.06-0.28-0.08-0.39,0c-0.55,0.41-0.5,1.21-0.92,1.74c-0.58,0.73-1.48,0.73-2.32,0.65
			c-0.49-0.05-0.53,0.59-0.22,0.82c1.03,0.79,2.49,0.48,3.4-0.31C99.37,161.13,100.23,159.37,99.17,158.79z"/>
		<path class="st4" d="M94.56,147.72c-0.15-0.52-0.55-1.37-1.21-1.37c-0.46,0-0.69,0.49-0.8,0.97c-0.34,0.17-0.68,0.33-1.05,0.45
			c-0.56,0.18-1.27,0.12-1.74,0.48c-0.25,0.19-0.47,0.58-0.23,0.89c1.01,1.31,3.44,0.64,4.55-0.21
			C94.46,148.63,94.7,148.23,94.56,147.72z"/>
		<path class="st4" d="M83.97,162c-0.36-0.19-0.94-0.13-1.12,0.29c-0.09,0.21-0.14,0.4-0.17,0.61c-0.05,0.15-0.1,0.3-0.16,0.46
			c0.04-0.11-0.22,0.24-0.04,0.1c-0.22,0.16-0.51,0.25-0.82,0.29c-0.68,0.08-1.08,0.82-0.57,1.37c0.8,0.86,2.12,0.67,2.92-0.06
			C84.89,164.27,85.05,162.58,83.97,162z"/>
		<path class="st4" d="M81.42,149.81c-0.28-0.26-0.76-0.38-1.1-0.14c-0.69,0.48-0.69,1.3-1.25,1.88s-1.58,0.52-2.32,0.48
			c-0.66-0.04-0.82,0.75-0.48,1.17c0.96,1.19,2.57,1.11,3.83,0.48C81.28,153.09,82.6,150.92,81.42,149.81z"/>
		<path class="st4" d="M83.42,137.28c-0.4-1-2.03-0.96-2,0.27c0.02,0.52,0.06,1.03-0.29,1.46c-0.36,0.43-0.93,0.59-1.37,0.92
			c-0.41,0.31-0.46,0.88,0,1.18c0.95,0.62,2.13,0.1,2.87-0.59C83.46,139.75,83.84,138.32,83.42,137.28z"/>
		<path class="st4" d="M94.7,132.39c-0.48-0.64-1.35-0.4-1.45,0.39c-0.06,0.47-0.07,0.88-0.33,1.29c-0.26,0.42-0.8,0.53-1.24,0.64
			c-0.75,0.19-0.64,1.18,0,1.42c0.94,0.35,1.99-0.07,2.66-0.76C95.06,134.62,95.35,133.24,94.7,132.39z"/>
		<path class="st4" d="M86.18,122c-0.27,0.54-0.41,1.02-0.82,1.48c-0.38,0.42-0.86,0.92-1.43,1.05c-0.15,0.03-0.15,0.27,0,0.31
			c0.84,0.21,1.53,0.24,2.3-0.23c0.7-0.43,1.36-1.39,1.33-2.23C87.53,121.68,86.53,121.31,86.18,122z"/>
		<path class="st4" d="M76.98,128.56c-0.04-0.23-0.32-0.44-0.54-0.41c-1.08,0.12-1.57,1.54-1.8,2.44c-0.07,0.26,0.22,0.49,0.46,0.35
			C75.91,130.48,77.15,129.63,76.98,128.56z"/>
		<path class="st4" d="M74.01,116.9c-0.3,0.2-0.51,0.44-0.68,0.76s-0.38,0.65-0.46,1.01c-0.11,0.51,0.42,1,0.91,0.7
			c0.28-0.17,0.47-0.4,0.69-0.63c0.28-0.3,0.53-0.59,0.63-1C75.25,117.14,74.58,116.52,74.01,116.9z"/>
		<path class="st4" d="M65.68,134.14c-1.22,0.18-2.01,2.12-0.87,2.87c0.06,0.04,0.14,0.04,0.2,0c0.37-0.24,0.56-0.58,0.78-0.95
			c0.23-0.4,0.46-0.75,0.6-1.2C66.55,134.39,66.09,134.08,65.68,134.14z"/>
		<path class="st4" d="M59.94,142.17c-0.19,0.35-0.22,0.8,0.03,1.12l0.03,0.09c0.06,0.16,0.26,0.24,0.39,0.1
			c0.12-0.12,0.27-0.17,0.38-0.33c0.15-0.22,0.21-0.44,0.19-0.7C60.92,141.93,60.22,141.67,59.94,142.17z"/>
		<path class="st4" d="M58.56,149.28c-0.08-0.24-0.26-0.36-0.5-0.38c-0.68-0.07-1.35,0.76-1.51,1.33c-0.19,0.63,0.52,1.11,1.06,0.81
			C58.14,150.76,58.77,149.92,58.56,149.28z"/>
		<path class="st4" d="M70.26,145.11c-0.13-0.44-0.65-0.67-1.05-0.43c-0.87,0.52-1.42,1.58-2.41,1.94c-0.5,0.18-0.54,0.89,0,1.05
			c0.78,0.24,1.59,0.21,2.32-0.2C69.87,147.04,70.52,145.98,70.26,145.11z"/>
		<path class="st4" d="M66.75,159.13c-0.18-0.98-0.91-0.96-1.4-0.18c-0.24,0.39-0.55,0.76-0.94,1c-0.17,0.11-0.83,0.32-1.27,0.32
			c0.11-0.03,0.11-0.22-0.01-0.24c-0.19-0.03-0.38-0.07-0.57-0.12c-0.12-0.03-0.28,0.04-0.31,0.17c-0.04,0.09-0.08,0.17-0.12,0.26
			c-0.22,0.2-0.19,0.55,0,0.76c0.76,0.83,2,1.02,3.01,0.54C66.04,161.2,66.95,160.21,66.75,159.13z"/>
		<path class="st4" d="M52.56,163.76c-0.06-0.34-0.52-0.62-0.85-0.48c-0.5,0.21-0.91,0.57-1.17,1.05c-0.22,0.39-0.47,1.01-0.51,1.5
			c0,0.01,0,0.03,0,0.05c0,0.05-0.01,0.1-0.01,0.15c0,0,0.01,0,0.01-0.01c0.03,0.48,0.54,0.95,1.1,0.65
			c0.45-0.24,0.74-0.78,1.05-1.18C52.55,165.01,52.67,164.34,52.56,163.76z"/>
		<path class="st4" d="M45.1,180.92c-0.08-0.21-0.33-0.3-0.5-0.13c-0.58,0.55-0.98,1.55-0.42,2.24c0.09,0.11,0.25,0.1,0.36,0.05
			C45.32,182.72,45.36,181.62,45.1,180.92z"/>
		<path class="st4" d="M53.01,172.56c-0.19,0.72-0.72,0.97-1.45,0.87c-0.71-0.1-1.31,0.67-0.74,1.27c1.55,1.62,4.04,0.12,4.1-1.88
			C54.96,171.7,53.29,171.5,53.01,172.56z"/>
		<path class="st4" d="M71.94,167.93c-0.22-0.39-0.42-0.82-0.94-0.82c-0.13,0-0.29,0.05-0.4,0.11c-0.1,0.06-0.57,0.52-0.33,0.43
			c-0.59,0.24-1.1,0.53-1.72,0.68c-0.67,0.16-1.36,0.13-2.02,0.29l0.04,0.04c-0.57,0.19-1.02,0.9-0.24,1.5
			c1.55,1.19,4.27,0.45,5.44-0.93C72.09,168.84,72.19,168.38,71.94,167.93z"/>
		<path class="st4" d="M72.04,179.71c-0.41,0.57-0.83,1.11-1.53,1.3c-0.66,0.19-1.34-0.13-1.95-0.33c-0.47-0.15-0.73,0.37-0.57,0.74
			c1.04,2.46,5.33,1.48,5.5-1.08C73.55,179.42,72.66,178.85,72.04,179.71z"/>
		<path class="st4" d="M59.07,185.47c-0.35-0.05-0.76,0.3-0.51,0.66c0.68,1,0.54,2-0.57,2.62c-1.18,0.65-2.74-0.01-3.98-0.05
			c-0.59-0.02-0.76,0.78-0.29,1.07c1.86,1.17,4.33,1.28,6.06-0.17C61.02,188.56,60.94,185.76,59.07,185.47z"/>
		<path class="st4" d="M47.58,192.95c-0.13-0.34-0.52-0.69-0.91-0.52c-0.71,0.3-1.02,0.98-1.68,1.36c-0.6,0.35-1.34,0.34-1.97,0.62
			c-0.25,0.11-0.34,0.51-0.19,0.73c0.66,0.99,2.02,0.9,2.99,0.44C46.73,195.16,48.03,194.11,47.58,192.95z"/>
		<path class="st4" d="M49.82,202.87c-0.29-0.31-0.85-0.08-0.84,0.35c0.02,0.77-0.14,1.47-0.67,2.06c-0.48,0.52-1.41,0.51-2.05,0.42
			c-0.63-0.09-1.12,0.58-0.64,1.1c1.02,1.12,2.85,0.94,3.92-0.03C50.63,205.78,50.88,203.99,49.82,202.87z"/>
		<path class="st4" d="M37.46,209.77c-0.11-0.08-0.29-0.02-0.35,0.09c-0.34,0.64-0.41,1.34-0.6,2.04c-0.19,0.73-0.58,1.39-0.78,2.11
			c-0.04,0.16,0.08,0.36,0.26,0.34C37.91,214.17,39.14,210.95,37.46,209.77z"/>
		<path class="st4" d="M42.61,224.61c-0.09-0.2-0.41-0.22-0.55-0.07c-0.45,0.48-0.8,0.9-0.96,1.56s-0.23,1.56,0.14,2.15
			c0.23,0.37,0.67,0.38,0.98,0.13c0.54-0.44,0.74-1.35,0.8-2.02C43.09,225.69,42.86,225.19,42.61,224.61z"/>
		<path class="st4" d="M53.8,217.79c-0.57-0.55-1.57-0.73-2.07-0.02c-0.12,0.17-0.06,0.41,0.07,0.55c0.43,0.47,0.84,0.76,0.27,1.34
			c-0.72,0.73-1.99-0.12-2.8,0.42c-0.25,0.17-0.4,0.46-0.31,0.76c0.33,1.06,1.74,1.31,2.72,1.28c1.06-0.04,2.07-0.66,2.62-1.55
			C54.88,219.61,54.56,218.52,53.8,217.79z"/>
		<path class="st4" d="M54.59,237.4c-1.18-0.82-3.03-0.99-3.79,0.4c-0.04,0.07-0.01,0.18,0.08,0.2c1.31,0.25,2.94,0.5,3.34,2.02
			c0.21,0.81-0.52,1.66-0.01,2.4c0.51,0.74,1.42,0.12,1.7-0.49C56.6,240.4,55.94,238.35,54.59,237.4z"/>
		<path class="st4" d="M63.76,232.44c-0.07-0.44-0.27-0.61-0.54-0.94c-0.35-0.43-0.98-0.13-1.14,0.3c0.14-0.38-0.18,0.29-0.18,0.3
			c-0.05,0.17-0.09,0.34-0.13,0.52c-0.09,0.38-0.19,0.69-0.44,1c-0.51,0.62-1.26,0.6-1.96,0.85c-0.37,0.13-0.48,0.55-0.22,0.85
			c0.87,1.01,2.56,0.55,3.46-0.15c0.54-0.42,0.86-1,1.07-1.64C63.8,233.17,63.82,232.79,63.76,232.44z"/>
		<path class="st4" d="M71.25,217.33c-0.17-0.17-0.48-0.19-0.64,0c-0.21,0.24-0.45,0.41-0.63,0.68c-0.2,0.3-0.32,0.6-0.58,0.86
			c-0.45,0.46-1.38,0.44-1.95,0.34c-0.6-0.11-0.96,0.52-0.57,0.99c0.91,1.11,2.45,1.17,3.61,0.43
			C71.61,219.9,72.3,218.4,71.25,217.33z"/>
		<path class="st4" d="M63.37,201.8c-0.32,0.69-0.55,1.36-1.32,1.67c-0.87,0.35-1.52-0.03-2.37-0.15c-0.3-0.04-0.7,0.2-0.56,0.56
			c0.45,1.13,2.01,1.58,3.13,1.34c1.22-0.26,2.87-1.54,2.76-2.97C64.93,201.1,63.92,200.59,63.37,201.8z"/>
		<path class="st4" d="M76.19,188.84c-0.2-0.19-0.54-0.27-0.78-0.1c-0.43,0.3-0.55,0.69-0.75,1.14c-0.21,0.45-0.48,0.8-0.86,1.12
			c-0.36,0.31-1.93,0.88-1.62,1.53c0.57,1.2,2.41,0.28,3.1-0.3C76.1,191.53,77.2,189.77,76.19,188.84z"/>
		<path class="st4" d="M90.61,185.64c-0.59-0.23-1.16-0.35-1.79-0.26c-0.59,0.08-0.84,0.45-1.32,0.73c-0.27,0.16-0.07,0.5,0.2,0.46
			c0.41-0.06,0.98,0.22,1.4,0.32c0.52,0.13,0.94,0.3,1.34,0.6c-0.03,0.81-0.36,1.49-0.97,2.08c-0.67,0.66-1.63,0.7-2.29,1.39
			c-0.15,0.15-0.13,0.36,0,0.52c0.83,0.99,2.08,0.48,2.98-0.14c1.01-0.69,1.72-1.78,1.98-2.96
			C92.45,187.01,91.92,186.15,90.61,185.64z"/>
		<path class="st4" d="M104.65,181.7c-0.25-0.15-0.62-0.17-0.87,0c-0.27,0.18-0.41,0.33-0.58,0.6c-0.05,0.08-0.04,0.18,0,0.26
			c0.1,0.17,0.19,0.29,0.3,0.4c0.29,0.7,0.58,1.42,0.01,2.12c-0.59,0.73-1.65,0.59-2.46,0.51c-0.47-0.05-0.85,0.6-0.56,0.98
			c1.11,1.48,3.29,1.16,4.48-0.03C106.2,185.31,106.24,182.66,104.65,181.7z"/>
		<path class="st4" d="M95.87,202.22c-0.17-0.31-0.63-0.3-0.8,0c-0.12,0.21-0.33,0.26-0.49,0.43c-0.22,0.22-0.34,0.52-0.54,0.75
			c-0.36,0.39-0.99,0.4-1.48,0.41c-0.86,0.01-1.2,1.19-0.44,1.62c1.06,0.6,2.38,0.4,3.29-0.4c0.43-0.38,0.73-0.83,0.89-1.38
			C96.44,203.12,96.11,202.65,95.87,202.22z"/>
		<path class="st4" d="M80.1,203.02c-0.06-0.29-0.3-0.71-0.67-0.61c-0.49,0.14-0.41,0.94-0.52,1.3c-0.48,1.64-1.87,2-3.36,2.16
			c-0.55,0.06-0.77,0.72-0.28,1.04c1.12,0.74,2.63,0.4,3.64-0.4C80.01,205.64,80.36,204.37,80.1,203.02z"/>
		<path class="st4" d="M89.26,215.63c-0.23-0.11-0.6,0.02-0.56,0.32c0.08,0.74-0.26,1.41-0.87,1.87c-0.85,0.63-2.25,0.35-3.24,0.53
			c-0.6,0.11-0.74,1.08-0.17,1.33c1.63,0.73,3.6,0.66,4.98-0.54C90.36,218.3,90.54,216.27,89.26,215.63z"/>
		<path class="st4" d="M82.78,229.55c-0.16-1.01-1.06-1.7-1.97-1.13c-0.13,0.08-0.15,0.25-0.05,0.37c0.65,0.74,0.31,1.86-0.28,2.58
			c-0.76,0.93-2.09,0.58-3.05,0.3c-0.43-0.13-0.68,0.34-0.53,0.69c0.9,2.08,3.9,1.71,5.18,0.3
			C82.83,231.83,82.95,230.59,82.78,229.55z"/>
		<path class="st4" d="M74.54,241.07c-0.04-0.18-0.21-0.36-0.39-0.39c-0.58-0.11-1.17-0.28-1.75-0.21c-0.16,0.02-0.27,0.2-0.14,0.34
			c0.3,0.3,0.67,0.5,1.05,0.69c-0.28,0.66-0.75,1.27-1.43,1.54c-0.84,0.34-1.66-0.14-2.38-0.53c-0.58-0.31-1.17,0.3-0.88,0.88
			c0.71,1.41,2.59,1.76,3.98,1.25C74.04,244.09,74.84,242.57,74.54,241.07z"/>
		<path class="st4" d="M84.86,245.44c-0.14-0.5-0.79-0.62-1.23-0.57c-0.64,0.07-1.28,0.2-1.85,0.51c-0.59,0.32-0.36,1.42,0.36,1.33
			c0.63,0.07,1.29-0.08,1.89-0.25C84.42,246.35,84.99,245.91,84.86,245.44z"/>
		<path class="st4" d="M93.78,234.58c-0.73-0.24-1.61,0.4-2.14,0.83c-0.48,0.39-1.27,1.54-0.33,1.92c0.73,0.29,1.32-0.22,1.87-0.65
			c0.44-0.34,1.02-1.04,0.97-1.63C94.12,234.82,94.01,234.65,93.78,234.58z"/>
		<path class="st4" d="M100.5,221.6c-0.53-0.67-2.04-1.4-2.74-0.61c-0.09,0.1-0.1,0.25,0,0.35c0.42,0.39,0.99,0.55,1.41,0.98
			c0.42,0.43,0.61,1.19,0.35,1.75c-0.24,0.54-0.83,0.76-1.35,0.94c-0.49,0.17-0.99,0.07-1.48,0.22c-0.04,0.01-0.08,0.06-0.08,0.1
			c0.04,0.88,1.25,1.18,1.96,1.18c1.06,0,2.08-0.83,2.52-1.74C101.63,223.63,101.24,222.53,100.5,221.6z"/>
		<path class="st4" d="M106.62,208.83c-0.23-0.05-0.38-0.03-0.64,0.04c-0.22,0.06-0.28,0.33-0.13,0.5c0.06,0.07,0.12,0.15,0.19,0.23
			c0.06,0.36,0.41,0.6,0.45,1c0.06,0.57-0.57,0.83-0.98,1.03c-0.42,0.21-0.3,0.87,0.13,0.98c1.05,0.28,1.99-0.56,2.27-1.52
			C108.14,210.31,107.6,208.67,106.62,208.83z"/>
		<path class="st4" d="M112.81,195.45c-0.24-0.51-1.11-1.27-1.71-0.96c-0.09,0.04-0.14,0.17-0.11,0.26c0.08,0.2,0.17,0.26,0.33,0.4
			c0.18,0.15,0.26,0.42,0.35,0.63c0.21,0.45,0.1,0.94-0.12,1.36c-0.23,0.43-0.76,0.49-1.19,0.45c-0.25-0.02-0.4-0.01-0.64-0.12
			c-0.12-0.06-0.24-0.15-0.36-0.18c-0.07-0.02-0.35,0.04-0.38-0.02c-0.06-0.1-0.2-0.01-0.15,0.09c-0.01,0.05-0.02,0.11-0.03,0.16
			c-0.09,0.14-0.1,0.37,0,0.5c1.04,1.44,3.25,1.31,4.13-0.23C113.37,197.04,113.15,196.17,112.81,195.45z"/>
		<path class="st4" d="M118.5,180.88c-0.19,0.07-0.31,0.28-0.19,0.47c1.33,2.11-2.69,2.73-1.86,4.79c0.03,0.08,0.1,0.15,0.2,0.15
			c1.26-0.04,3.24-1.62,3.59-2.85C120.51,182.41,119.99,180.29,118.5,180.88z"/>
		<path class="st4" d="M115.44,167.22c-0.15-0.3-0.61-0.6-0.94-0.4c-0.44,0.26-0.37,0.85-0.37,1.29c-0.01,0.46-0.26,1.18-0.58,1.29
			c-0.64,0.21-1.21,0.08-1.85,0.07c-0.45-0.01-0.61,0.53-0.34,0.83c0.68,0.77,2.55,1.07,3.34,0.3
			C115.57,169.74,116,168.37,115.44,167.22z"/>
		<path class="st4" d="M109.22,153.12c-0.19,0.18-0.1,0.43,0.07,0.57c0.38,0.29,0.76,0.43,1.04,0.84c0.38,0.56-0.15,1.31-0.52,1.72
			c-0.78,0.87-2.12,0.9-3.05,1.54c-0.4,0.27-0.4,0.98,0.14,1.1c2.04,0.43,4.65-0.84,5.16-2.95
			C112.4,154.58,110.76,151.67,109.22,153.12z"/>
		<path class="st4" d="M105.42,143.51c-0.71-0.39-1.76-1.27-2.61-0.95c-0.14,0.05-0.2,0.17-0.18,0.31c0.12,0.71,0.96,1.16,1.65,1.52
			c-0.24,0.51-0.61,0.89-1.14,1.19c-0.74,0.42-1.5,0.23-2.29,0.27c-0.35,0.02-0.5,0.4-0.27,0.66c0.72,0.82,2.12,0.65,3.01,0.25
			c1.05-0.47,1.89-1.35,2.14-2.5C105.79,143.97,105.69,143.66,105.42,143.51z"/>
		<path class="st4" d="M104.27,125.24c-0.18-0.05-0.4,0.14-0.33,0.33c0.43,1.12,0.76,2.39,0.38,3.55c-0.13,0.4-1.1,1.54-0.76,1.95
			c0.02,0.02,0.03,0.04,0.05,0.06c0.09,0.11,0.28,0.15,0.41,0.11C106.76,130.46,107.11,126.09,104.27,125.24z"/>
		<path class="st4" d="M98.76,115.98c-0.12-0.12-0.33-0.1-0.42,0.05c-0.34,0.57-0.6,1.24-1.04,1.73c-0.54,0.6-1.5,0.61-2.22,0.65
			c-0.31,0.01-0.41,0.34-0.23,0.56c0.79,1.02,2.34,0.91,3.29,0.22C99.11,118.5,99.78,116.95,98.76,115.98z"/>
		<path class="st4" d="M94.6,106.43c-0.75,0.07-1.49,0.83-1.74,1.52c-0.13,0.37,0.26,0.67,0.59,0.59c0.64-0.14,1.51-0.79,1.66-1.44
			C95.19,106.8,94.96,106.4,94.6,106.43z"/>
		<path class="st4" d="M84.14,109.46c-1.01,0.26-1.77,1.23-2.37,2.05c-0.28,0.38,0.27,0.91,0.64,0.64c0.83-0.59,1.8-1.33,2.08-2.34
			C84.55,109.6,84.35,109.41,84.14,109.46z"/>
		<path class="st4" d="M97.59,94.14c-0.51,0.09-0.96,0.16-1.39,0.46c-0.14,0.09-0.18,0.35,0,0.43c0.27,0.12,0.52,0.17,0.79,0.19
			c-0.21,0.52-0.5,0.99-0.92,1.39c-0.29,0.28-0.62,0.5-0.97,0.68s-0.66,0.18-0.84,0.58h0.01c-0.12,0.2-0.13,0.46,0.07,0.61
			c0.82,0.65,2.1-0.3,2.71-0.9c0.79-0.77,1.23-1.82,1.25-2.91C98.3,94.29,97.94,94.08,97.59,94.14z"/>
		<path class="st4" d="M110.95,98.79c-0.1-0.16-0.37-0.23-0.5-0.06c-0.32,0.41-0.53,0.86-0.91,1.23c-0.45,0.44-0.95,0.61-1.53,0.82
			c-0.53,0.18-0.57,0.94,0,1.11c0.9,0.27,1.79-0.19,2.45-0.79C111.02,100.58,111.38,99.48,110.95,98.79z"/>
		<path class="st4" d="M113.41,110.78c-0.27-0.45-0.91-0.44-1.18,0c-0.37,0.58-0.59,1.32-1.19,1.72c-0.69,0.45-1.49,0.1-2.21,0.31
			c-0.29,0.08-0.46,0.38-0.38,0.67c0.35,1.38,2.41,1.45,3.45,0.93C113.18,113.78,114.25,112.16,113.41,110.78z"/>
		<path class="st4" d="M126.66,100.27c-0.1-0.55-0.44-1.29-1.06-1.38c-0.15-0.02-0.34,0.07-0.33,0.25c0.03,0.34,0.15,0.67,0.18,1.01
			c0.04,0.41-0.22,0.63-0.42,0.95c-0.42,0.66-1.32,0.41-1.91,0.27c-0.48-0.11-0.8,0.36-0.6,0.78c0.67,1.43,2.74,1.08,3.67,0.2
			C126.77,101.8,126.8,101.01,126.66,100.27z"/>
		<path class="st4" d="M126.67,87.55c-0.62,0.24-1.05,0.75-1.71,0.94c-0.76,0.23-1.65,0.02-2.34-0.34c-0.3-0.16-0.68,0.17-0.49,0.49
			c0.6,0.95,1.66,1.31,2.75,1.17c0.95-0.13,2.31-0.7,2.35-1.82C127.24,87.71,126.93,87.44,126.67,87.55z"/>
		<path class="st4" d="M108.54,91.02c-0.55,0.01-0.98,0.32-1.43,0.61c-0.44,0.29-0.75,0.55-0.9,1.07c-0.01,0.04,0.01,0.08,0.05,0.09
			c0.55,0.19,0.95,0.05,1.47-0.14c0.5-0.19,0.95-0.37,1.28-0.81C109.27,91.51,108.92,91.01,108.54,91.02z"/>
		<path class="st4" d="M123.73,112.61c-0.45,0.42-0.72,0.93-1.4,1.01c-0.7,0.08-1.31-0.45-1.8-0.87c-0.29-0.25-0.77-0.09-0.77,0.32
			c0,1.24,1.16,2.17,2.34,2.24c1.17,0.07,2.74-0.65,2.94-1.93C125.17,112.62,124.34,112.04,123.73,112.61z"/>
		<path class="st4" d="M116.95,126.84c-0.35,0.23-0.65,0.52-1.01,0.75c-0.36,0.22-0.8,0.28-1.21,0.37
			c-0.29,0.06-1.73-0.26-1.83,0.12c-0.26,1.09,1.49,1.5,2.27,1.56c1.17,0.1,2.63-0.75,2.98-1.87
			C118.37,127.09,117.55,126.45,116.95,126.84z"/>
		<path class="st4" d="M118.37,139.78c-0.2-0.2-0.56-0.11-0.63,0.17c-0.15,0.58-0.43,1.09-0.82,1.56c-0.5,0.59-1.2,0.42-1.85,0.27
			c-0.8-0.18-1.43,0.79-0.81,1.4c1.01,1,2.75,0.83,3.8-0.04C119.05,142.31,119.33,140.78,118.37,139.78z"/>
		<path class="st4" d="M127.15,154.8c-0.05-0.08-0.15-0.16-0.26-0.15c-0.7,0.07-1.31,0.65-1.94,0.96c-0.73,0.35-1.61,0.21-2.39,0.18
			c-0.39-0.02-0.69,0.48-0.46,0.81c0.76,1.11,2.19,1.19,3.37,0.79C126.36,157.08,127.85,155.87,127.15,154.8z"/>
		<path class="st4" d="M132.66,136.79c-0.59,0.23-1.21,0.05-1.8,0.27c-0.21,0.08-0.36,0.39-0.15,0.56c0.32,0.26,0.73,0.35,1.1,0.52
			c-0.3,0.94-0.82,1.76-1.67,2.36c-0.32,0.23-2.36,0.97-2.17,1.52c0.16,0.44,0.77,0.58,1.2,0.6c0.84,0.03,1.65-0.36,2.34-0.81
			c1.38-0.9,2.29-2.45,2.36-4.1C133.9,137.14,133.23,136.57,132.66,136.79z"/>
		<path class="st4" d="M130.46,121.84c-0.51-0.35-1.45-0.4-1.63,0.34c-0.03,0.13,0.02,0.23,0.12,0.31c0.29,0.21,0.54,0.3,0.64,0.66
			c0.11,0.39-0.22,0.83-0.46,1.09c-0.6,0.67-1.73,0.71-2.17,1.46c-0.04,0.07-0.04,0.16,0,0.22c0.45,0.76,1.59,0.6,2.29,0.24
			c0.82-0.43,1.56-1.11,1.88-2C131.46,123.25,131.27,122.39,130.46,121.84z"/>
		<path class="st4" d="M140.28,109.02c-0.54-0.06-1.03,0.12-1.51,0.34c-0.12,0.05-0.13,0.23-0.04,0.32
			c0.18,0.17,0.37,0.33,0.58,0.46c-0.48,0.7-1.41,0.93-2.28,0.78c-0.63-0.11-0.98,0.66-0.43,1.03c1.64,1.11,3.93-0.24,4.39-1.99
			C141.11,109.45,140.75,109.07,140.28,109.02z"/>
		<path class="st4" d="M140.22,94.09c-0.11-0.05-0.19-0.04-0.28,0.04c-0.26,0.21-0.29,0.41-0.36,0.72c-0.1,0.43-0.17,0.8-0.41,1.19
			c-0.37,0.63-1,1.1-1.58,1.5c-0.08,0.06-0.08,0.19,0.03,0.22c0.91,0.26,1.87-0.24,2.42-1.01
			C140.46,96.14,141.23,94.52,140.22,94.09z"/>
		<path class="st4" d="M152.02,101.27c-0.11-0.67-1.12-0.74-1.41-0.18c-0.24,0.46-0.32,0.92-0.77,1.25
			c-0.42,0.31-0.92,0.37-1.42,0.39c-0.63,0.03-0.85,0.83-0.32,1.17C149.73,104.96,152.31,103.13,152.02,101.27z"/>
		<path class="st4" d="M152.84,111.41c-0.41,0.28-0.7,0.59-1.18,0.72c-0.39,0.11-0.72,0.12-1.09,0.04
			c-0.02-0.06-0.04-0.13-0.05-0.19c0.05-0.1-0.09-0.23-0.17-0.13c-0.14,0.1-0.28,0.2-0.42,0.31c-0.24,0.12-0.32,0.47-0.18,0.69
			c0.47,0.73,1.3,1.05,2.14,1.02c0.87-0.03,1.93-0.69,2.08-1.58C154.08,111.67,153.46,111,152.84,111.41z"/>
		<path class="st4" d="M143.11,122.22c-0.54,0-0.82,0.48-1.08,0.88c-0.59,0.89-1.72,1.3-2.73,1.41c-0.27,0.03-0.43,0.33-0.23,0.55
			c0.67,0.73,1.81,0.85,2.71,0.51c0.9-0.34,2.07-1.29,2.07-2.36C143.86,122.77,143.64,122.22,143.11,122.22z"/>
		<path class="st4" d="M157.01,121.85c-0.18-0.12-0.49-0.05-0.59,0.15c-0.05,0.1-0.08,0.19-0.1,0.3c-0.02,0.02-0.03,0.04-0.05,0.07
			c-0.05,0.09-0.1,0.18-0.13,0.28c-0.09,0.25-0.24,0.53-0.41,0.74c-0.39,0.48-0.87,0.72-1.41,0.98c-0.23,0.11-0.25,0.45-0.08,0.62
			c0.77,0.78,2.08,0.34,2.73-0.36C157.65,123.9,157.98,122.52,157.01,121.85z"/>
		<path class="st4" d="M145.4,138.3c-0.19,0.09-0.31,0.08-0.57,0.19c-0.34,0.15-0.56,0.43-0.86,0.64c-0.59,0.42-1.29,0.7-2.01,0.73
			c-0.79,0.03-1.03,1.26-0.19,1.43c0.96,0.19,1.9,0.12,2.79-0.28c1.02-0.46,1.63-1.19,1.56-2.31
			C146.09,138.33,145.73,138.15,145.4,138.3z"/>
		<path class="st4" d="M142.4,153.48c-0.46,0-0.72,0.34-1.01,0.63c-0.46,0.45-0.99,0.54-1.6,0.63c-0.73,0.11-0.66,1.08-0.18,1.41
			c1.4,0.98,3.47-0.23,3.61-1.8C143.24,153.91,142.82,153.48,142.4,153.48z"/>
		<path class="st4" d="M127.75,168.33c-0.06-0.13-0.25-0.19-0.37-0.15c-0.36,0.12-0.58,0.4-0.88,0.62
			c-0.34,0.26-0.75,0.49-1.11,0.73c-0.38,0.25-0.8,0.39-1.2,0.59c-0.3,0.15-0.58,0.41-0.86,0.54c-0.24,0.1-0.2,0.47,0,0.58
			c0.44,0.25,0.73,0.45,1.29,0.49c0.57,0.04,1.25-0.27,1.73-0.55C127.21,170.67,128.2,169.39,127.75,168.33z"/>
		<path class="st4" d="M143.22,167.65c0,0-0.14-0.44-0.12-0.25c-0.13-1.09-1.21-0.23-1.51,0.17c-0.58,0.78-1.21,1.01-2.13,1.2
			c-0.58,0.12-0.65,0.95-0.16,1.23c0.83,0.46,1.89,0.27,2.67-0.21c0.42-0.26,0.75-0.62,1.03-1.02c0.13-0.19,0.25-0.51,0.25-0.75
			C143.26,167.89,143.25,167.77,143.22,167.65z"/>
		<path class="st4" d="M134.32,180.7c-0.1-0.12-0.28-0.14-0.42-0.11c-0.21,0.04-0.36,0.18-0.51,0.32c0.04-0.02,0.08-0.03,0.12-0.05
			c-0.13,0.04-0.24,0.1-0.34,0.2c-0.11,0.09-0.22,0.16-0.32,0.25c-0.35,0.29-0.72,0.51-1.17,0.62c-0.61,0.15-0.68,1.21,0,1.31
			c0.79,0.11,1.53-0.04,2.16-0.55C134.36,182.26,134.81,181.3,134.32,180.7z"/>
		<path class="st4" d="M127.71,193.9c-0.24-0.34-0.66-0.49-1.05-0.27c-0.4,0.23-0.49,0.71-0.83,0.95c-0.35,0.25-0.7,0.3-1.1,0.41
			c-0.42,0.12-0.49,0.6-0.24,0.9c0.55,0.67,1.54,0.49,2.22,0.2C127.45,195.79,128.24,194.65,127.71,193.9z"/>
		<path class="st4" d="M122.1,208.48c-0.27-0.88-0.36-1.8-0.64-2.67c-0.11-0.35-0.72-0.43-0.78,0c-0.1,0.7-0.1,1.4-0.14,2.11
			c-1.17,0.06-2.53,0.13-3.37,0.83c-0.18,0.15-0.11,0.45,0.07,0.57c1.1,0.67,2.84,0.31,4.06,0.22
			C121.81,209.49,122.27,209.03,122.1,208.48z"/>
		<path class="st4" d="M115.22,218.55c-0.61-0.28-1.2-0.16-1.7,0.26c-0.48,0.39-0.79,1.08-0.62,1.69c0.17,0.6,0.88,0.73,1.32,0.35
			c0.23-0.2,0.36-0.41,0.56-0.62c0.19-0.2,0.41-0.36,0.58-0.57C115.62,219.33,115.66,218.75,115.22,218.55z"/>
		<path class="st4" d="M109.22,232.21c-0.26-0.75-1.34-0.3-1.27,0.4c0.03,0.34,0.26,0.62,0.62,0.62c0.31,0,0.65-0.28,0.62-0.62
			c0-0.04-0.01-0.07-0.02-0.1C109.22,232.41,109.25,232.31,109.22,232.21z"/>
		<path class="st4" d="M122.72,222.92c-0.64,0.04-0.93,0.44-1.12,1.01c-0.09,0.27-0.15,0.81,0.2,0.93c0.72,0.24,1.69-0.46,1.64-1.22
			C123.41,223.26,123.13,222.89,122.72,222.92z"/>
		<path class="st4" d="M131.61,213.02c-0.13-0.39-0.54-0.56-0.91-0.37c-0.24,0.12-0.45,0.26-0.61,0.48
			c-0.14,0.19-0.27,0.38-0.47,0.53c-0.41,0.3-0.91,0.39-1.32,0.66c-0.25,0.16-0.36,0.57-0.1,0.79c0.68,0.54,1.53,0.37,2.25-0.03
			C131.18,214.68,131.91,213.9,131.61,213.02z"/>
		<path class="st4" d="M138.59,201.99c-0.75,0.08-1.2,0.32-1.74,0.86c-0.5,0.5-0.99,0.99-1.4,1.57c-0.33,0.47,0.29,0.91,0.71,0.71
			c0.6-0.28,1.11-0.66,1.66-1.03c0.63-0.43,0.99-0.84,1.2-1.56C139.08,202.29,138.87,201.96,138.59,201.99z"/>
		<path class="st4" d="M146.05,189.34c-0.23-0.23-0.68-0.14-0.75,0.2c0.01-0.03-0.1,0.43,0.01,0.31c-0.12,0.14-0.2,0.29-0.29,0.46
			c-0.21,0.39-0.17,0.83-0.47,1.19c-0.5,0.61-1.39,0.71-1.96,1.26c-0.08,0.08-0.09,0.21-0.04,0.31c0.73,1.34,2.5,0.62,3.34-0.22
			c0.49-0.48,0.81-1.19,0.89-1.86C146.86,190.39,146.47,189.75,146.05,189.34z"/>
		<path class="st4" d="M151.19,175.64c-0.16-0.07-0.3-0.05-0.43,0.06c-0.28,0.23-0.47,0.4-0.61,0.73c-0.13,0.32-0.19,0.65-0.35,0.96
			c-0.14,0.26-0.32,0.46-0.54,0.66c-0.13,0.12-0.26,0.25-0.39,0.37c0.01-0.01-0.38,0.52-0.18,0.3c-0.37,0.42-0.12,1.06,0.45,1.08
			c1.06,0.05,1.74-0.59,2.31-1.44C151.99,177.53,152.29,176.15,151.19,175.64z"/>
		<path class="st4" d="M158.46,165.79c-0.11-0.6-0.29-1.27-0.65-1.78c-0.15-0.22-0.45-0.23-0.6,0c-0.27,0.4-0.43,0.89-0.53,1.37
			c-0.51,0.24-0.99,0.53-1.43,0.88c-0.28,0.22-1.02,0.96-0.71,1.39c0.27,0.36,0.96,0.36,1.36,0.23c0.75-0.24,1.46-0.56,2.12-1.01
			C158.4,166.62,158.54,166.25,158.46,165.79z"/>
		<path class="st4" d="M159.71,150.51c-0.27-0.38-0.74-0.38-1.02,0c-0.2,0.28-0.28,0.61-0.36,0.94c-0.1,0.42-0.35,0.8-0.59,1.15
			c-0.47,0.69-1.24,1.04-2.01,1.25c-0.73,0.21-0.56,1.26,0.18,1.3c1.16,0.05,2.24-0.55,3.01-1.37
			C159.61,153.04,160.41,151.47,159.71,150.51z"/>
		<path class="st4" d="M161.05,136.67c-0.1-0.42-0.66-0.44-0.87-0.11c-0.56,0.85-1.71,1.58-2.74,1.59c-0.18,0-0.35,0.23-0.23,0.4
			c0.63,0.86,1.57,1.01,2.54,0.56C160.68,138.67,161.3,137.73,161.05,136.67z"/>
		<path class="st4" d="M175.56,125.01c-0.16-0.09-0.42-0.09-0.54,0.07c-0.5,0.62-0.44,1.5-0.95,2.14c-0.59,0.73-1.49,0.64-2.32,0.78
			c0.01,0.01,0.02,0.03,0.03,0.04c-0.46,0.16-0.83,0.72-0.19,1.2c1.15,0.86,2.86,0.15,3.76-0.75
			C176.1,127.73,176.8,125.68,175.56,125.01z"/>
		<path class="st4" d="M171.29,113.86c-0.1-0.05-0.24-0.08-0.34,0c-0.53,0.4-0.54,1.14-1,1.61c-0.28,0.28-0.63,0.38-1.02,0.4
			c-0.35,0.01-0.68-0.14-1.02-0.1c-0.22,0.02-0.4,0.2-0.33,0.43c0.33,1.19,2.11,1.02,2.96,0.63
			C171.37,116.44,172.57,114.42,171.29,113.86z"/>
		<path class="st4" d="M165.82,105.45c-0.32-0.02-0.63,0.11-0.93,0.21c-0.3,0.11-0.63,0.17-0.94,0.23
			c-0.09,0.02-0.15,0.13-0.12,0.21c0.2,0.55,0.66,0.78,1.23,0.77c0.55,0,1.2-0.44,1.16-1.04
			C166.2,105.62,166.04,105.46,165.82,105.45z"/>
		<path class="st4" d="M160.73,89.72c-0.73-0.22-1.6,0.31-1.56,1.12c0.02,0.55,0.49,0.86,1.01,0.77c0.13-0.02,0.21-0.05,0.34-0.12
			c-0.21,0.11,0.28-0.02-0.02,0C161.49,91.42,161.73,90.03,160.73,89.72z"/>
		<path class="st4" d="M167.19,97.4c-0.03,0.02-0.07,0.04-0.1,0.06c-0.36,0.2-0.36,0.77,0,0.97c0.03,0.02,0.07,0.04,0.1,0.06
			c0.41,0.23,0.94-0.06,0.94-0.54C168.13,97.46,167.61,97.18,167.19,97.4z"/>
		<path class="st4" d="M141.8,84.21c-0.71-0.12-1.23,0.18-1.85,0.5c-0.29,0.15-0.87,0.65-0.66,1.04c0.19,0.36,0.7,0.47,1.07,0.46
			c0.69-0.04,1.29-0.03,1.84-0.49C142.7,85.3,142.44,84.32,141.8,84.21z"/>
		<path class="st4" d="M186.41,113.85c-0.52-0.17-1.09,0.02-1.53,0.32c-0.68,0.47-0.45,1.57,0.43,1.59
			c0.52,0.01,1.13-0.11,1.46-0.53C187.16,114.74,187.04,114.06,186.41,113.85z"/>
		<path class="st4" d="M190.92,126.51c-0.07-0.43-0.23-0.69-0.58-0.95c-0.31-0.22-0.71-0.09-0.97,0.13
			c-0.1,0.08-0.17,0.17-0.23,0.27c-0.61,0.2-1.2,0.52-1.68,0.92c-0.56,0.47-0.07,1.32,0.56,1.35c0.82,0.03,1.69-0.22,2.43-0.58
			C190.9,127.44,190.99,126.93,190.92,126.51z"/>
		<path class="st4" d="M201.56,124.65c-0.37-0.11-0.78-0.12-1.16-0.16s-0.67,0.07-1,0.26c-0.21,0.12-0.32,0.44-0.17,0.65
			c0.22,0.32,0.42,0.56,0.8,0.7c0.34,0.12,0.68,0.29,1.03,0.34c0.5,0.08,1-0.12,1.14-0.65C202.34,125.29,202.04,124.8,201.56,124.65
			z"/>
		<path class="st4" d="M192.9,137.85c-0.44,0.12-0.84,0.38-1.25,0.58c-0.02,0.01-0.05,0.01-0.07,0.02
			c-0.41-0.34-1.12-0.38-1.48,0.06c-0.11,0.13-0.22,0.27-0.33,0.4c-0.61,0.74-0.23,1.83,0.78,1.88c1.24,0.05,3.05-0.56,3.35-1.94
			C194.02,138.25,193.52,137.68,192.9,137.85z"/>
		<path class="st4" d="M175.94,139.41c-0.65-0.38-1.3-0.1-1.96,0.12c-0.61,0.2-1.35,0.46-1.81,0.92c-0.38,0.37-0.25,1.21,0.34,1.29
			c0.69,0.1,1.33-0.11,2-0.28c0.61-0.16,1.42-0.39,1.69-1.02C176.38,140.06,176.33,139.63,175.94,139.41z"/>
		<path class="st4" d="M175.71,152.17c-0.08-0.33-0.36-0.64-0.72-0.64c-0.44,0-0.58,0.44-0.72,0.77c-0.39,0.9-1.01,1.34-1.97,1.46
			c-0.64,0.08-1.01,0.92-0.35,1.3C173.88,156.16,176.21,154.29,175.71,152.17z"/>
		<path class="st4" d="M187.92,151.88c-0.43,0.02-0.94,0.29-0.94,0.78c0,0.44,0.43,0.37,0.59,0.44c0.01,0.02,0.01,0.02,0.04,0.06
			c0.09,0.14,0.1,0.16,0.07,0.31c-0.09,0.39-0.56,0.68-0.88,0.87c-0.65,0.39-1.44,0.37-2.04,0.84c-0.21,0.16-0.16,0.49,0,0.67
			c1.05,1.15,3.11,0.06,4-0.77C189.85,154.03,189.8,151.77,187.92,151.88z"/>
		<path class="st4" d="M202.47,151.49c-0.13-0.19-0.36-0.38-0.61-0.35c-0.24,0.03-0.47,0-0.7,0.07c-0.26,0.07-0.44,0.42-0.27,0.66
			c0.06,0.09,0.14,0.16,0.21,0.23c-0.04,0.21-0.11,0.43-0.25,0.58c-0.29,0.33-0.72,0.25-1.05,0.49c-0.36,0.26-0.41,0.67-0.13,1.01
			c0.3,0.37,0.85,0.34,1.27,0.27c0.4-0.06,0.78-0.36,1.07-0.62C202.66,153.27,203,152.23,202.47,151.49z"/>
		<path class="st4" d="M205.41,135.73c-0.45-0.32-1.06,0.11-1.06,0.61c0,0.44,0.16,0.88,0.05,1.31c-0.12,0.5-0.69,0.65-1.06,0.91
			c-0.28,0.2-0.38,0.71,0,0.88C205.35,140.34,207.21,136.99,205.41,135.73z"/>
		<path class="st4" d="M214.19,133.83c-0.26-0.24-0.67-0.19-0.86,0.11c-0.32,0.51-0.33,1.17,0,1.66c0.07,0.16,0.13,0.29,0.28,0.41
			c0.28,0.23,0.63,0.19,0.85-0.11C214.91,135.27,214.75,134.35,214.19,133.83z"/>
		<path class="st4" d="M214.47,149.73c-0.03-0.62-0.15-1.38-0.53-1.89c-0.42-0.57-1.15-0.46-1.42,0.19
			c-0.24,0.59-0.17,1.36-0.04,1.97c0.06,0.31,0.14,0.66,0.3,0.93c0.14,0.24,0.38,0.4,0.55,0.61s0.58,0.15,0.7-0.09
			c0.12-0.25,0.31-0.47,0.39-0.73C214.5,150.41,214.48,150.04,214.47,149.73z"/>
		<path class="st4" d="M211.51,164.06c-0.11-0.54-0.86-0.86-1.32-0.54c-0.79,0.55-0.95,1.47-0.7,2.36c0.11,0.4,0.8,1.49,1.34,0.99
			c0.32-0.29,0.4-0.74,0.51-1.14C211.5,165.16,211.63,164.63,211.51,164.06z"/>
		<path class="st4" d="M207.02,179.05c-0.32-0.3-0.82-0.24-1.05,0.14c0.07-0.11-0.19,0.26-0.2,0.26c-0.1,0.14-0.11,0.32-0.18,0.47
			c-0.14,0.32-0.34,0.39-0.57,0.64c-0.27,0.28-0.24,0.66,0,0.94c0.16,0.18,0.24,0.19,0.34,0.43c0.13,0.34,0.73,0.33,0.68-0.09
			c-0.01-0.06,0.01-0.11,0.01-0.16C207.15,181.4,207.99,179.95,207.02,179.05z"/>
		<path class="st4" d="M196.21,176.92c-0.02-0.06-0.05-0.11-0.08-0.16c-0.03-0.16-0.06-0.31-0.15-0.47
			c-0.17-0.28-0.55-0.33-0.79-0.1c-0.13,0.12-0.2,0.27-0.26,0.41c-0.04,0.04-0.08,0.09-0.12,0.13c-0.03,0.03-0.05,0.05-0.07,0.08
			c-0.51,0.1-1,0.26-1.48,0.5c-0.86,0.45-0.38,1.62,0.46,1.69c0.65,0.05,1.33-0.05,1.96-0.22c0.44-0.12,0.79-0.55,0.78-1.02
			C196.44,177.43,196.37,177.17,196.21,176.92z"/>
		<path class="st4" d="M199.12,163.38c-0.25-0.19-0.59,0.02-0.67,0.27c-0.23,0.72-0.22,1.46-0.59,2.14
			c-0.43,0.79-1.36,0.84-2.06,1.24c-0.22,0.13-0.31,0.51-0.09,0.69C197.94,169.47,201.46,165.16,199.12,163.38z"/>
		<path class="st4" d="M183.04,167.94c-0.46-0.28-0.97,0.01-1.14,0.46c-0.17,0.44,0.09,0.99-0.23,1.4c-0.31,0.4-0.92,0.4-1.36,0.27
			c-0.66-0.19-1.3,0.75-0.71,1.22c1.02,0.82,2.27,0.75,3.26-0.09C183.71,170.48,184.13,168.61,183.04,167.94z"/>
		<path class="st4" d="M170.2,165.03c-0.12-0.27-0.52-0.43-0.76-0.27c-0.45,0.3-0.44,0.87-0.56,1.35c-0.09,0.35-0.3,0.67-0.65,0.79
			c-0.15,0.05-0.32,0.03-0.47-0.02c-0.06-0.03-0.13-0.04-0.2-0.05c-0.23-0.15-0.57-0.14-0.78,0.07c-0.02,0.02-0.05,0.05-0.07,0.07
			c-0.16,0.17-0.24,0.42-0.17,0.64c0.1,0.34,0.38,0.59,0.71,0.63c0.76,0.43,1.6,0.2,2.31-0.36
			C170.36,167.27,170.59,165.91,170.2,165.03z"/>
		<path class="st4" d="M167.72,179.48c-0.07-0.25-0.33-0.4-0.58-0.33c-0.5,0.13-0.94,0.53-1.37,0.8c-0.44,0.28-1.04,0.44-1.56,0.48
			c-0.51,0.05-0.83,0.77-0.28,1.05c0.86,0.44,1.67,0.38,2.54,0C167.19,181.17,167.95,180.32,167.72,179.48z"/>
		<path class="st4" d="M159.88,191.03c-0.65-0.12-1.25,0.29-1.84,0.49c-0.43,0.15-1.45,0.16-1.41,0.84c0.08,1.58,3.8,0.78,3.64-0.83
			C160.24,191.32,160.12,191.08,159.88,191.03z"/>
		<path class="st4" d="M152.7,203.4c-0.27-0.31-0.72-0.3-1.11-0.33c-0.5-0.03-1.05,0.08-1.53,0.17c-0.25,0.05-0.48,0.34-0.45,0.59
			c0.02,0.16,0.01,0.39,0.12,0.53c0.1,0.14,0.24,0.24,0.33,0.38c0.23,0.34,0.71,0.08,0.59-0.29c0.74,0.01,1.74-0.04,2.1-0.63
			C152.84,203.69,152.8,203.52,152.7,203.4z"/>
		<path class="st4" d="M143.08,212.98c-0.34-0.16-0.84-0.15-1.18,0.03c-0.28,0.15-0.53,0.47-0.28,0.78c0.4,0.49,1.3,0.01,1.56-0.41
			C143.26,213.26,143.22,213.05,143.08,212.98z"/>
		<path class="st4" d="M157.37,212.02c-0.74-0.32-1.49,0.13-1.94,0.73c-0.27,0.35,0.1,0.79,0.46,0.81c0.67,0.03,1.5-0.29,1.7-0.98
			C157.65,212.38,157.57,212.1,157.37,212.02z"/>
		<path class="st4" d="M166.67,201.52c-0.51-0.06-1.01,0.23-1.32,0.61c-0.27,0.33-0.55,1.02,0,1.28c0.75,0.36,1.77-0.33,1.9-1.13
			C167.32,201.86,167.08,201.57,166.67,201.52z"/>
		<path class="st4" d="M173.42,191.53c-0.77-0.03-1.3,0.45-1.69,1.06c-0.17,0.26-0.27,0.59-0.29,0.9c-0.02,0.3,0.18,0.55,0.22,0.77
			c0.05,0.33,0.49,0.28,0.61,0.03c0.28-0.19,0.48-0.5,0.7-0.75c0.27-0.31,0.66-0.52,0.96-0.81
			C174.38,192.29,174.02,191.55,173.42,191.53z"/>
		<path class="st4" d="M179.54,179.15c-0.26,0.03-0.42,0.02-0.67,0.14c-0.29,0.14-0.53,0.39-0.74,0.63
			c-0.39,0.45-0.85,0.97-0.85,1.59c0,0.21,0.19,0.42,0.41,0.41c0.59-0.04,0.98-0.43,1.4-0.81c0.25-0.22,0.46-0.47,0.65-0.74
			c0.19-0.27,0.18-0.53,0.19-0.84C179.92,179.34,179.74,179.13,179.54,179.15z"/>
		<path class="st4" d="M191.97,188.75c-0.73-0.75-1.89-0.09-2.46,0.53c-0.31,0.34-0.52,0.74-0.64,1.18
			c-0.13,0.5,0.03,0.88,0.16,1.34c0.06,0.2,0.33,0.14,0.35-0.05c0.05-0.51,0.62-1.1,0.99-1.41c0.47-0.41,1.18-0.39,1.6-0.87
			C192.16,189.26,192.17,188.96,191.97,188.75z"/>
		<path class="st4" d="M183.03,198.32c-0.14-0.04-0.28-0.08-0.43-0.1c-0.6-0.1-1.12,0.59-0.62,1.07c0.06,0.07,0.1,0.15,0.11,0.25
			c0.09,0.35,0.61,0.35,0.7,0c0-0.05,0.04-0.09,0.06-0.14c0.06-0.02,0.13-0.03,0.19-0.05C183.55,199.22,183.55,198.46,183.03,198.32
			z"/>
		<path class="st4" d="M201.69,188.63c-0.42,0.29-0.77,0.84-0.74,1.37c0.02,0.41,0.37,0.66,0.77,0.59c0.52-0.1,0.96-0.59,1.14-1.06
			C203.09,188.89,202.25,188.25,201.69,188.63z"/>
		<path class="st4" d="M191.57,198.95c-0.04-0.01-0.08-0.02-0.12-0.02c-0.63-0.26-1.42-0.03-1.9,0.45
			c-0.42,0.43-0.22,1.16,0.35,1.32c0.66,0.19,1.47,0,1.88-0.54c0,0,0,0.01-0.01,0.01c0.03-0.03,0.07-0.05,0.1-0.08
			C192.25,199.76,192.05,199.04,191.57,198.95z"/>
		<path class="st4" d="M173.25,207.79c-0.67-0.31-1.51-0.15-1.91,0.53c-0.23,0.4-0.15,1.45,0.53,1.32c0.42-0.08,0.72-0.25,1.17-0.32
			C173.75,209.22,173.88,208.08,173.25,207.79z"/>
		<path class="st4" d="M166.13,214.09c-0.22,0.04-0.41,0.14-0.6,0.26c-0.8,0.49,0.29,1.58,0.78,0.78c0.12-0.19,0.22-0.38,0.26-0.6
			C166.62,214.25,166.41,214.04,166.13,214.09z"/>
		<path class="st4" d="M147.66,221.81c-0.11-0.4-0.74-0.38-1.05-0.32c-0.56,0.11-1.14,0.27-1.36,0.85
			c-0.08,0.21,0.05,0.46,0.23,0.57c0.49,0.29,1.01,0.04,1.48-0.19C147.26,222.58,147.77,222.22,147.66,221.81z"/>
		<path class="st4" d="M136.74,222c-0.35,0.05-0.7,0.2-0.98,0.42c-0.54,0.42-0.25,1.33,0.48,1.15c0.4-0.1,0.76-0.3,1.07-0.58
			C137.79,222.54,137.27,221.92,136.74,222z"/>
		<path class="st4" d="M131.15,228.44c-0.51-0.4-1.34-0.19-1.91-0.05c-0.49,0.12-0.38,0.87,0.12,0.87c0.59,0,1.44-0.01,1.83-0.52
			C131.25,228.66,131.23,228.51,131.15,228.44z"/>
		<path class="st4" d="M118.71,231.45c-0.51-0.08-1.15,0.1-1.59,0.38c-0.55,0.35-0.19,1.17,0.44,1.04c0.5-0.11,1.08-0.42,1.39-0.83
			C119.08,231.83,118.94,231.49,118.71,231.45z"/>
	</g>
</g>
</svg>
