<svg xmlns="http://www.w3.org/2000/svg" viewBox="0 0 232.07 224.23"><defs><style>.cls-1,.cls-5{fill:#2f2f2f;}.cls-1{opacity:0.3;}.cls-2{fill:#21b14b;}.cls-3{fill:#ec1c24;}.cls-4{fill:#4c4c4c;}</style></defs><g id="Layer_2" data-name="Layer 2"><g id="Layer_1-2" data-name="Layer 1"><path class="cls-1" d="M231.8,111.34c-6.07-4.73-11.84-9.91-18.27-14.17a17,17,0,0,0-8.07-3,20.2,20.2,0,0,0,1.78-1.39c3.62-3.25,5.36-7.94,5.88-12.66.82-7.6-3.07-15,.32-22.36a.85.85,0,0,0-1.16-1.15c-9.66,4.91-25.57-.44-35.4,4.71a22.16,22.16,0,0,0,3.36-9c1.13-11.1-5.53-19.22-11.42-27.82a.78.78,0,0,0-1.4.18A14,14,0,0,1,162.26,32c-.77-4.57-4.59-9.1-7.57-12.23a35.26,35.26,0,0,0-15.79-9.21,1.13,1.13,0,0,0-1.41,1.07c-.4,6.2-3.81,11.18-6.71,16.4C127.11,16.22,114.09,9.33,102,10.91a1.12,1.12,0,0,0-.78,1.89c5.55,5.29,6.09,13,7.19,20.2a17.22,17.22,0,0,0-4.9-2.66C97.4,28,90.67,26.75,84.34,25c-.72-.2-1.65.54-1.33,1.33C86.18,34,93.14,42.1,101.38,45.79a69.56,69.56,0,0,0-19.9,3.07,64.05,64.05,0,0,0-16.69,7.9A57.42,57.42,0,0,0,50.94,67.18C44,74.48,38.67,84.4,35.5,94.36c-3.11,6.56-6,13.24-9,19.77-5.22,11.31-10.57,22.59-15.35,34.09-8,19.31-13.26,44.34.78,62.35,5.81,7.44,13.59,12.29,23,13.44,11.92,1.44,24-4.46,34.71-8.71C93,206,116.9,197.47,139.82,187c26.24-11.93,53.3-32.81,53.43-64.38a45.94,45.94,0,0,0-.27-5c1.94,2.16,5.15,3.27,7.9,3.89,7,1.56,15.73-.14,19.79,7.28.37.8,1.76.22,1.43-.6L222,128h0l0-.06a11.48,11.48,0,0,0-1.21-2.13,28.86,28.86,0,0,0-13.09-11.73c8-.64,16.4-2.89,23.36-1.46C231.73,112.78,232.47,111.86,231.8,111.34Z"/><path class="cls-2" d="M190.16,50.48c6.28.11,12,.1,17.76-2.08-3.11,8.29,1.26,17.3-1.61,25.74-1.62,4.78-5.89,8.46-10.51,10.16-4.21,1.55-8.42.8-12.35-.82-.82-.56-1.67-1.09-2.53-1.59a42.54,42.54,0,0,0-3.83-2.09c-.91-1.06-1.84-2.09-2.82-3.1,2.28-.46,4.29-2,6.21-3.19A34,34,0,0,0,187,68.19a.49.49,0,0,0-.59-.76c-3,1.56-5.85,3.49-8.77,5.26-1.41.86-2.95,1.45-4.36,2.27a1.6,1.6,0,0,0-.37.37l-.39-.38c-1.95-1.89-4-3.68-6.12-5.4-.84-5.51,1.83-10,4.72-14.58C176.29,50.84,183.52,50.36,190.16,50.48Z"/><path class="cls-2" d="M165.43,16.17c6.6,8.89,12.28,20.44,7,31.2-3.22,6.57-9.5,13.12-7.93,20.65-2.72-2.14-5.51-4.2-8.28-6.26l-3.4-2.53c.1-1.8-.19-3.66.09-5.46a30,30,0,0,1,2.45-7.55c.19-.43-.3-.88-.67-.52-2.55,2.44-4.86,7.46-4.46,11.6-2.19-1.64-4.38-3.27-6.59-4.89-3.34-8.89-1.15-17.53,7.29-22.86C156.66,25.92,163.59,23.1,165.43,16.17Z"/><path class="cls-2" d="M129.52,20c2.94-5.69,7.06-10.79,7.12-17.33a35.41,35.41,0,0,1,18.19,14.58c1.1,1.68,1.85,3.56,2.95,5.21-5,3.45-11.49,5.6-15,10.69-3.36,4.93-4.53,11.58-2.26,17l-1.27-.92c-.26-2.7-.76-5.39-.8-8.11a59.82,59.82,0,0,1,1.14-12.53c0-.25-.31-.43-.43-.18-2.55,5.08-4.16,12.09-2.93,18.13a37.23,37.23,0,0,0-6.93-4.4C126.4,34.39,125.52,27.71,129.52,20Z"/><path class="cls-2" d="M101.59,2.6c11.21.31,19.65,6.57,25.36,16.2a32.8,32.8,0,0,0-2.71,6.47A19.15,19.15,0,0,0,126.84,41c-1.15-.49-2.33-.93-3.51-1.35-.78-2.16-3.06-3.7-4.2-5.78a17.49,17.49,0,0,1-2-9.9c0-.19-.25-.2-.31,0a15,15,0,0,0-.13,10,14.32,14.32,0,0,0,2.27,4.29q-1.45-.4-2.88-.75c-6.12-4.94-7.45-11.87-8.59-19.52C106.6,12.38,105.3,6.81,101.59,2.6Z"/><path class="cls-2" d="M92.47,28.43A38.36,38.36,0,0,1,83.13,17.3c3.69,1.07,7.37,2.16,11.06,3.22s8.4,1.62,11.49,4.15l.21,1.15a23.22,23.22,0,0,0,4.21,9.62c-1.92-1.15-4.19-1.72-6.25-2.61A39.32,39.32,0,0,1,95.5,27.5a.13.13,0,0,0-.19.19,30.3,30.3,0,0,0,7,6.46A49,49,0,0,1,92.47,28.43Z"/><path class="cls-3" d="M164.18,156.44c-18.86,16-43.63,23.81-66.27,32.77L61.32,203.72c-11.6,4.6-24.09,9.67-36.55,5.26-11.27-4-18.39-15.07-21-26.23-3-12.95.14-26.59,4.57-38.81C16,122.69,27.43,102.85,36,82,39.9,74.53,43.46,67,48.69,60.29A71.22,71.22,0,0,1,79,40.6a65.71,65.71,0,0,1,30.36-2,70.1,70.1,0,0,1,13.92,3.85,70.43,70.43,0,0,1,8.68,4.25h0c2,1.63,4.08,3.22,6.14,4.8a12.21,12.21,0,0,0,.68,1.08.37.37,0,0,0,.65-.07c7.44,5.64,15.06,11,22.44,16.75,8.72,6.75,16.74,14.23,22,24C195.86,115.62,181.43,141.77,164.18,156.44Z"/><path class="cls-2" d="M213,111.71a20.84,20.84,0,0,0-4.81-1.42c-3.28-.6-6.66-.52-10-1-3.6-.5-6.14-2.19-8.7-4.49a44.21,44.21,0,0,0-1-4.49c3.4,2.49,7.37,3.35,11.58,3.43A32.41,32.41,0,0,1,213,111.71Z"/><path class="cls-2" d="M188,98.64a47,47,0,0,0-2.34-5.9c5.7,4.26,12.87,4.4,19.47,1.46.08,0,0-.15-.06-.13-6.77,1.29-14-.19-20.21-2.94a54.56,54.56,0,0,0-4.36-7c5.14,4,12.08,4.14,17.92,1.67,5.45-1,9.53,1.74,13.94,5.08C216.52,94,220.73,97,224.89,100,212.55,98.38,199.7,104.45,188,98.64Z"/><path class="cls-4" d="M195.19,98.38c.95-.73,1.87-1.5,2.79-2.26-.45,0-.9.06-1.35.07-.62.55-1.24,1.1-1.84,1.66C194.52,98.11,194.89,98.61,195.19,98.38Z"/><path class="cls-4" d="M201.62,92.21a11.42,11.42,0,0,0-3,2.24l-.06,0c.47,0,.93,0,1.39,0a8.08,8.08,0,0,0,1.92-2C202,92.38,201.81,92.14,201.62,92.21Z"/><path class="cls-4" d="M183.54,93.3l.23-.17-.15-.27-.23.3C183.33,93.24,183.45,93.37,183.54,93.3Z"/><path class="cls-4" d="M192,97.06c.46-.38,1-.75,1.4-1.09-.31,0-.62-.1-.92-.17l-.43.4-.56.43-2.24-1.86a16.93,16.93,0,0,1-3.26-1.87l1.89,1.72c-.31.31-.61.63-.89,1,.07.17.13.34.19.5.45-.27.89-.57,1.32-.89l2.28,2c-.8.69-1.51,1.53-.58,1.84.07,0,.15,0,.12-.12-.08-.23.35-.71,1-1.28q1.88,1.63,3.81,3.18c.43.07.86.13,1.3.18a.42.42,0,0,0-.09-.14C194.87,99.56,193.42,98.3,192,97.06Z"/><path class="cls-4" d="M200.91,97.05a33.91,33.91,0,0,0,2.92-2.3c-.66.25-1.32.46-2,.65l-1.32,1C200.15,96.69,200.52,97.34,200.91,97.05Z"/><path class="cls-4" d="M183.44,86.13l1.05.62a5.11,5.11,0,0,0-.93.32,3.31,3.31,0,0,0-.73.43c.15.25.29.5.44.74a3.48,3.48,0,0,1,.51-.31,8.09,8.09,0,0,1,1.7-.57c.76.48,1.51,1,2.25,1.52a21.51,21.51,0,0,0-2.68,2.31l.78.33c.84-.67,1.67-1.34,2.56-2l.16-.1c.53.39,1,.8,1.56,1.21s.77.67,1.14,1c-.5.4-1,.81-1.51,1.23l1,.29,1.08-1c.54.53,1.07,1.08,1.61,1.62.71.14,1.44.26,2.16.36.64-.51,1.29-1,1.92-1.55.31.32.63.64,1,.95s.57-.06.41-.32a12.19,12.19,0,0,0-.83-1.1,14,14,0,0,0,2-2l.27.22c.33.27.81-.2.47-.47-1.06-.84-2.13-1.65-3.22-2.46a13.73,13.73,0,0,0,1.26-1.4.2.2,0,0,0-.1-.31l-.25,0-.19.08a13.45,13.45,0,0,0-1.52,1l-.44-.33-.41.12.53.45c-.72.58-1.41,1.21-2.08,1.84-.79-.53-1.6-1-2.42-1.45l.34-.19a20,20,0,0,1-2.19.07,21.22,21.22,0,0,0-1.87,1.14c-.68-.46-1.37-.91-2.07-1.34h.06a.18.18,0,0,0,0-.32l-.6-.17-.37,0-.39-.21c-.51-.18-1-.39-1.51-.62A.2.2,0,0,0,183.44,86.13Zm13.77,1.68c.78.66,1.56,1.32,2.35,2a16.85,16.85,0,0,0-2.29,1.56,18.07,18.07,0,0,0-2.09-1.79C195.88,89,196.57,88.41,197.21,87.81Zm-2.5,2.1a21.23,21.23,0,0,1,2,1.9c-.72.61-1.42,1.27-2.11,1.93a25.83,25.83,0,0,0-2.18-2l0,0C193.16,91.12,193.94,90.52,194.71,89.91Zm-3.16-2.18a28.59,28.59,0,0,1,2.4,1.6c-.49.46-1,.92-1.47,1.34l-.68.57-1.25-1c-.48-.38-1-.74-1.47-1.1C189.89,88.64,190.72,88.18,191.55,87.73Z"/><path class="cls-4" d="M196.39,96.2H196l.08.07A.22.22,0,0,0,196.39,96.2Z"/><path class="cls-4" d="M194.08,78.24a16.44,16.44,0,0,0-3.24.85,27.12,27.12,0,0,0-3.66,1.23.11.11,0,0,0,.06.2,21.4,21.4,0,0,0,3.23-.7,19.15,19.15,0,0,0,3.75-1.06A.28.28,0,0,0,194.08,78.24Z"/><path class="cls-4" d="M203.82,94.08l-.4.24.75-.1A.25.25,0,0,0,203.82,94.08Z"/><path class="cls-4" d="M204,105.75c.16-.12.08-.42-.14-.35a11.64,11.64,0,0,0-3.09,1.7c-.14.11,0,.35.17.3A11,11,0,0,0,204,105.75Z"/><path class="cls-4" d="M96.47,31.14a3.08,3.08,0,0,0,.64-.61l1.29.71c-.09.29-.16.57-.23.85l1.1.57.27-.61a31.57,31.57,0,0,1-3-2.88c-.08.15-.17.29-.24.44-.4-.16-.8-.33-1.21-.48-.14-.06-.22.16-.1.23l1.15.64a3.18,3.18,0,0,0-.19.84Z"/><path class="cls-4" d="M95.08,28.76a3.56,3.56,0,0,0,.51-.73c-.09-.12-.19-.23-.28-.34a.13.13,0,0,1,.19-.19l.25.19c.1-.23.2-.46.29-.7a6.24,6.24,0,0,0,.59-2.43.23.23,0,0,0-.39-.16,5.43,5.43,0,0,0-1,1.74,6.09,6.09,0,0,0-.64,2.42A.27.27,0,0,0,95.08,28.76Z"/><path class="cls-4" d="M150.39,103.84c-4.12-1.88-8.79-2.91-13.13-4.22-4.86-1.48-9.74-3.08-14.67-4.32a.18.18,0,0,0-.1.35c4.51,1.71,9.17,3.12,13.76,4.62s9.16,3.42,13.84,4.29C150.5,104.63,150.82,104,150.39,103.84Z"/><path class="cls-4" d="M120.28,20.86A48.87,48.87,0,0,0,117,25.24c0,.6,0,1.21.08,1.81l0,0,.15-.18a4.13,4.13,0,0,0,1.2.24.19.19,0,0,0,.13-.31,3.52,3.52,0,0,0-.78-.6,14.15,14.15,0,0,0,2.86-5.07A.24.24,0,0,0,120.28,20.86Z"/><path class="cls-2" d="M205.5,107.15l-.2.2c-.05,0,0,.11.06.07l.2-.21S205.54,107.12,205.5,107.15Z"/><path class="cls-4" d="M199.73,103.75l-.26.15-.27-.18c-.4,0-.79,0-1.18-.08.29.2.58.41.88.6-.66.4-1.33.81-2,1.26-.44-.44-.92-.86-1.41-1.27.43-.23.86-.48,1.29-.72-.38-.05-.77-.11-1.14-.18l-.4.19-.38.2-1-.82c-.36-.1-.71-.21-1.06-.34l.56.5c.34.29.67.6,1,.91a15.69,15.69,0,0,0-1.41.73,23.92,23.92,0,0,0-2-1.64,10.63,10.63,0,0,1,1.54-.59c-.45-.16-.88-.35-1.32-.55a5.69,5.69,0,0,0-1.08.53c-.43-.29-.86-.56-1.28-.82,0,.11,0,.22.08.33a4,4,0,0,1,.87.72,5.71,5.71,0,0,0-.47.39.39.39,0,0,0-.11.21c0,.17.06.35.1.52l.09-.07a.42.42,0,0,0,.43,0c.21-.15.44-.27.66-.4.51.44,1,.9,1.48,1.37.14.13.26.27.39.41a3.72,3.72,0,0,0-.64.61c-.05.06,0,.19.07.18a3.86,3.86,0,0,0,1.06-.28c.88,1,1.67,2,2.58,3,.22.23.56-.06.42-.33-.3-.58-.57-1.19-.85-1.78-.07-.14-.29,0-.25.1a1,1,0,0,0,0,.1,17.71,17.71,0,0,0-1.22-1.4c.39-.2.78-.43,1.16-.62l.24-.14c.5.45,1,.88,1.55,1.28-.28.21-.56.43-.82.66s0,.34.2.26a22.16,22.16,0,0,0,3.45-2.21,4.12,4.12,0,0,0,.58.23c.16.05.25-.15.15-.27a4,4,0,0,0-.29-.29l.36-.28a.13.13,0,0,0,.06-.1l-.11,0Z"/><path class="cls-4" d="M144.29,27.43a18.07,18.07,0,0,0-4.95,3.68l-.13-.08c-.11.71-.2,1.41-.28,2.12,2.08-1.58,4.45-3.23,5.78-5.3C144.89,27.57,144.54,27.33,144.29,27.43Z"/><path class="cls-4" d="M118.57,30.47l-.94-.36a17.2,17.2,0,0,0,.92,2.61l.76-.78a17.45,17.45,0,0,0,3.28,1.43c-.36.53-.7,1.06-1.09,1.57l-2.18-.77h0a12,12,0,0,0,1.11,1.49l.34.13-.12.12.72.81c.12-.11.26-.22.38-.34l.14-.14c1,.39,2,.76,3,1.1-.17-.44-.32-.89-.46-1.34l-1.7-.64.22-.24s0,0,0,0v0a9,9,0,0,0,.91-1.31c-.1-.59-.18-1.18-.23-1.78a.45.45,0,0,0-.13.11c-.14.17-.27.34-.4.52a16.23,16.23,0,0,0-3-1.53c1.21-1.29,2.76-3.13,2.42-4.62a.37.37,0,0,0-.46-.26c-.8.31-1,.72-1.43,1.47A22,22,0,0,1,118.57,30.47Z"/><path class="cls-4" d="M169.88,63a16.07,16.07,0,0,0,3.62-1.85,44.6,44.6,0,0,0,3.87-2.48.29.29,0,0,0-.29-.5c-1.37.67-2.7,1.46-4,2.26a16.29,16.29,0,0,0-3.34,2.34A.14.14,0,0,0,169.88,63Z"/><path class="cls-4" d="M184.65,70.41l-.72.62c.59.48,1.19,1,1.79,1.4l-.23.13c-1.46.72-3,1.41-4.43,2.13-.32-.31-.66-.61-1-.92l-.68.45.84.88c-1.24.62-2.47,1.24-3.65,1.93l-.83-.78a8.09,8.09,0,0,1-.83.28l.89,1-.5.32.46.5.61-.23c.94,1,1.91,2,2.92,2.87l1.61.94a.29.29,0,0,0,0-.33,42.08,42.08,0,0,0-3.6-3.85c1.27-.54,2.51-1.14,3.75-1.76.63.67,1.27,1.32,1.93,1.94-.93.39-1.86.77-2.78,1.18h0l-.1,0h0c-.38.24-.26,1,.37.89A24.61,24.61,0,0,0,184,78.8a.28.28,0,0,0,.26-.11c.83-.35,1.64-.72,2.44-1.09,2.08-1,4.85-2.1,6.29-3.95a.35.35,0,0,0-.34-.58c-2.09.55-4,2.13-5.93,3.12-1,.51-2,1-3.08,1.4a26.5,26.5,0,0,0-1.79-2.07l2.71-1.35c.7-.34,1.42-.67,2.14-1l1.07.76c.3.21.57-.22.35-.47h0c-.22-.22-.46-.42-.69-.63a43.25,43.25,0,0,0,7.74-4.11c.29-.21.13-.72-.25-.61A47.71,47.71,0,0,0,186.55,72C185.93,71.47,185.29,70.93,184.65,70.41Z"/><path class="cls-4" d="M132,25.79c0-.14-.22-.17-.24,0l-.26.92a.31.31,0,0,0,.42.42,30.25,30.25,0,0,0,7.75-6.17.23.23,0,0,0-.28-.36A30.43,30.43,0,0,0,132,26.12C132,26,132,25.9,132,25.79Z"/><path class="cls-4" d="M129.43,31.17l1.79,1.06-.12.13a.24.24,0,0,0,.29.37l.32-.2,3.57,2.15c-.95.8-1.89,1.62-2.8,2.46-1-.5-1.95-1-2.9-1.53-.38-.2-.71.37-.34.58.88.48,1.76,1,2.63,1.51-.52.5-1,1-1.53,1.54-.18.19,0,.54.29.38.7-.46,1.38-.95,2.05-1.45,1.08.64,2.17,1.27,3.26,1.89,0-.36.06-.71.11-1.06l-2.65-1.39c1-.76,1.93-1.55,2.89-2.34.12.08.25.15.38.22.2-.88.45-1.75.72-2.6h0l-1.3,1.1-3.61-2c1-.72,2-1.54,3-2.35.85.48,1.71.93,2.58,1.34l.21-.54c-.75-.42-1.53-.82-2.32-1.2l.15-.12c1.6-1.33,3.79-2.62,4.85-4.44a.27.27,0,0,0-.3-.39,8.32,8.32,0,0,0-2.4,1.54c-.46-.34-1-.63-1.41-.94s-.63.3-.31.53.78.59,1.19.87c-.43.39-.85.78-1.27,1.14l-1.56,1.31c-.74-.35-1.47-.69-2.19-1.05-.19-.1-.36.19-.17.29.65.35,1.31.72,2,1.1a32.46,32.46,0,0,0-2.72,2.52l-2-1.09A.35.35,0,0,0,129.43,31.17Z"/><path class="cls-4" d="M4.21,164.93c2.86,1.74,5.74,3.86,8.84,5.15.25.1.48-.15.49-.38,0-.54-.16-.78-.68-.83a.11.11,0,0,0-.11,0,80.08,80.08,0,0,0-7.43-4.35l-2.1-1.23c-.05.31-.08.62-.12.93C3.47,164.49,3.84,164.7,4.21,164.93Z"/><path class="cls-4" d="M120,112.16c-.12,0-.14.15-.06.21a13.29,13.29,0,0,0,3.16,1.44,9.53,9.53,0,0,0,3.32,1,.27.27,0,0,0,.19-.46,8.35,8.35,0,0,0-2.83-1.19A15,15,0,0,0,120,112.16Z"/><path class="cls-4" d="M138.26,110.72c.22,0,.41-.28.17-.38a63,63,0,0,0-8.54-2.64c-3.34-1-6.72-2-10.14-2.67a.1.1,0,0,0,0,.2c3,1.2,6.15,2,9.23,2.94A67.81,67.81,0,0,0,138.26,110.72Z"/><path class="cls-4" d="M170.75,80.12c.08-.53.18-1.08.27-1.64.64.15,1.29.28,1.94.41l-1.49-1.46-.28-.06,0-.19c-.4-.38-.81-.75-1.22-1.12-.05.34-.1.69-.14,1-1.08-.21-2.16-.41-3.21-.64l-4-.87a35.87,35.87,0,0,0,.68-5.22l-1.1-.87c-.37,1.92-.62,3.87-.88,5.82l-4.08-.88-3.54-.77c.59-2.29,1.17-4.6,1.74-6.9l1.37.37c1.18.31,2.43.75,3.68,1l-2.06-1.56L157,66.32l-1.4-.36.3-1.22-1-.77-.42,1.7L150,64.54l-2.41-.62A34.17,34.17,0,0,0,149,59.64l-1.23-.9-.15.34-.17.11a.26.26,0,0,0,0,.41c-.44,1.29-.76,2.67-1.08,4-2.32-.61-4.65-1.22-7-1.75.4-1.44.73-2.9,1.17-4.33.17-.56.37-1.12.58-1.68,1.6.54,3.23,1.16,4.87,1.57L144,55.88c-.86-.21-1.72-.41-2.56-.64l.39-1-1-.76c-.18.47-.35.94-.5,1.42-1.77-.51-3.56-1.06-5.35-1.48.1-.39.2-.79.31-1.18.21-.75.57-1.53.87-2.32l-1.43-1.11a2,2,0,0,0-.2.21c-.23.3,0,.68.07,1h0c-.1.4-.19.8-.29,1.19-.18.64-.34,1.3-.47,2l-.42-.09a.1.1,0,0,0,0,.19c.13.06.28.11.42.16a11.59,11.59,0,0,0-.16,3.62c0,.08.13.14.17.05a21.77,21.77,0,0,0,1.06-3.26c1.74.61,3.54,1.09,5.29,1.63-.18.6-.35,1.18-.51,1.75a30.09,30.09,0,0,0-1,4.44c-.88-.19-1.76-.37-2.64-.53a.12.12,0,0,0-.06.23c.87.3,1.74.58,2.63.84a12.43,12.43,0,0,0-.07,1.72.16.16,0,0,0,.31,0c.18-.5.35-1,.5-1.53,2.31.68,4.65,1.28,7,1.88-.11.44-.22.88-.34,1.3-.57,2-1.15,4-1.66,6-2-.39-3.9-.77-5.85-1.1-.17,0-.25.22-.07.27,1.9.52,3.83,1,5.75,1.46q-.3,1.24-.57,2.49c0,.07.09.12.12,0,.34-.8.65-1.61,1-2.42q3.93.93,7.86,1.8c-.52,2.2-1,4.4-1.53,6.6a56.08,56.08,0,0,0-6.94-1.69s-.08.06,0,.08a55.71,55.71,0,0,0,6.79,2.43c-1.07,4.72-2.09,9.46-3.08,14.19a0,0,0,1,0,0,0c1.33-4.64,2.61-9.3,3.87-14,2.24.65,4.5,1.26,6.68,1.93l1.31.42c-.59,2.2-1.23,4.39-1.76,6.61,0,.12.15.2.2.09a39.43,39.43,0,0,0,2.43-6.42c2.89,1,5.81,2,8.75,2.82,0,.08,0,.16,0,.24a.13.13,0,0,0,.22.09l.18-.22c1.52.43,3.05.81,4.58,1.09.24,0,.43-.31.18-.42-1.45-.62-3-1.15-4.48-1.63.11-.88.28-2.35.32-2.6C170.35,82.64,170.56,81.38,170.75,80.12Zm-26-8.34c.63-1.69,1.21-3.41,1.79-5.12.22-.66.48-1.34.75-2l2.48.65,4.46,1.18c-.57,2.33-1.13,4.65-1.68,7C150,72.87,147.39,72.31,144.79,71.78ZM159.7,83.6c-2.62-.78-5.27-1.69-7.94-2.52.59-2.2,1.15-4.41,1.73-6.62l3.52.79,4.18.94c-.18,1.27-.37,2.54-.63,3.79S160,82.4,159.7,83.6ZM169.62,80c-.21,2.08-.42,4.2-.46,6.3-2.84-.87-5.75-1.6-8.57-2.41.34-1.2.65-2.41.95-3.61s.61-2.5.89-3.78l4,.9c1.11.25,2.23.53,3.36.81C169.72,78.79,169.68,79.4,169.62,80Z"/><path class="cls-4" d="M100.11,30.81c.09-.17.17-.35.26-.52a13.81,13.81,0,0,1,.85-1.3l2.12,1,.67.33a6.33,6.33,0,0,0-1.1,1.15c-.15.19-.31.41-.47.65.39.2.79.4,1.19.58l.15-.19c.46-.56,1-1,1.51-1.53a30,30,0,0,0,2.83,1.29c-.26-.5-.5-1-.71-1.53L106,30.13h0a.29.29,0,0,0-.24-.43,3.4,3.4,0,0,0-.57.08l-1.36-.59-2.07-1a7.08,7.08,0,0,0,.83-1.56.25.25,0,0,0-.3-.3,5,5,0,0,0-1.81,1.29c-.47-.2-.94-.39-1.41-.56a21.4,21.4,0,0,0,1-2.31c.09-.25-.29-.48-.46-.27A19.92,19.92,0,0,0,98,26.74c-.32-.1-.64-.2-1-.28-.09,0-.13.09-.06.15.25.18.52.34.79.51l-.45.74-.43.71c.32.24.65.49,1,.72.15-.29.3-.58.45-.84s.28-.49.41-.74c.38.22.77.43,1.16.63a10,10,0,0,0-1,1.68C99.31,30.29,99.71,30.56,100.11,30.81Z"/><path class="cls-4" d="M123.33,39.64l.38.14a4.55,4.55,0,0,0,1.67-1.28c-.11-.23-.21-.46-.31-.69A4.37,4.37,0,0,0,123,39,5.11,5.11,0,0,1,123.33,39.64Z"/><path class="cls-4" d="M110.38,23.46c.34.19.68.37,1,.54a10.1,10.1,0,0,0-1,2.52.19.19,0,0,0,.32.19,13.34,13.34,0,0,0,1.88-2.14l2.3,1.09c.41.2.82.43,1.25.66,0-.28.11-.55.18-.82l-1.19-.43c-.75-.29-1.49-.61-2.24-.92.62-.88,1.2-1.78,1.82-2.61a60.39,60.39,0,0,0,4.65-6.29c.11-.19-.12-.46-.32-.32a21,21,0,0,0-4.62,4.79,39.58,39.58,0,0,0-2.79,3.92l-1.13-.41A.13.13,0,0,0,110.38,23.46Z"/><path class="cls-4" d="M5.76,168.81c-1.1,1.72-2.13,3.49-3.13,5.28,0,.61.05,1.23.1,1.84,1.21-2.27,2.37-4.56,3.42-6.89A.23.23,0,0,0,5.76,168.81Z"/><path class="cls-4" d="M178.85,116.92c2.77,1.11,5.55,2.29,8.35,3.44.09-.39.18-.78.26-1.18-2.56-.94-5.11-1.86-7.63-2.81l-2.23-.85c.42-2.06.81-4.12,1.21-6.18l1.89.74c2.47,1,5,2.08,7.5,3.1,0-.44,0-.88.05-1.32-2.21-.78-4.45-1.51-6.58-2.32l-2.7-1c.49-2.55,1-5.1,1.43-7.64a44.44,44.44,0,0,0,6,1.66c.29.06.51-.35.22-.5a46.31,46.31,0,0,0-6-2.39c.2-1.1.4-2.2.59-3.3,0-.19-.25-.27-.28-.08-.22,1.09-.46,2.17-.68,3.26-3.37-1.1-6.84-2-10.13-3.06-.31-.1-.43.37-.13.48,3.29,1.17,6.62,2.6,10,3.79q-.8,3.78-1.66,7.54l-9.93-3.76c.5-2.53,1-5.07,1.42-7.62,0-.18-.23-.26-.28-.08-.59,2.49-1.2,5-1.82,7.44l-1-.38c-.45-.17-.63.54-.2.7l1,.4q-.78,3.08-1.57,6.15l-9-3.38c.28-2,.54-3.92.73-5.87,0-.13-.19-.15-.22,0-1.29,4.91-2.36,9.88-3.48,14.84l-7.45-2.84c.35-1.17.71-2.34,1-3.52.06-.19-.21-.25-.28-.08-.43,1.13-.84,2.27-1.26,3.41l-2.93-1.12c-.39-.15-.56.48-.17.64l2.86,1.11c-.94,2.56-1.87,5.13-2.77,7.71-3.37-1.32-6.74-2.62-10.13-3.85-.14-.06-.24.18-.1.24,3.31,1.47,6.65,2.88,10,4.27-.78,2.22-1.55,4.45-2.31,6.67-3.23-1.21-6.47-2.39-9.71-3.59q1.59-6,3.07-12.11a.14.14,0,0,0-.28-.07q-1.89,5.91-3.67,11.86c-2-.75-4-1.51-6.07-2.24-.2-.07-.27.23-.09.3l6,2.4q-1.71,5.73-3.35,11.48c-3.37-1.24-6.75-2.45-10.14-3.6.32-1.06.64-2.13,1-3.19a.09.09,0,0,0-.18,0l-1.08,3.13-1.38-.48c-.14,0-.19.17-.06.22l1.36.5-2.34,6.77-7.86-3.34c-.26-.1-.48.27-.22.38l7.9,3.47c-1,2.84-2,5.68-2.94,8.52q-4.24-1.87-8.5-3.7c.66-2,1.3-4,1.9-6,0-.12-.15-.21-.2-.09-.82,1.91-1.61,3.82-2.4,5.74l-3.51-1.51c-.18-.08-.35.19-.16.28l3.49,1.66q-2.1,5.07-4.13,10.17-3.07-1.18-6.16-2.29c.81-2.05,1.6-4.1,2.35-6.16.11-.3-.36-.49-.5-.22-1,2-2,4-3,6-1.85-.65-3.71-1.29-5.57-1.89-.11,0-.15.13-.05.17l5.4,2.17q-2,4.29-3.83,8.68c-1.83-.89-3.67-1.76-5.5-2.63L83.81,153a.11.11,0,0,0-.19-.11c-1.41,2.31-2.79,4.65-4.14,7l-2-.93c-.16-.07-.3.16-.14.23l1.95,1c-1,1.73-2,3.47-3,5.21-2.13-1-4.28-2-6.43-3-.14-.07-.26.14-.12.2,2.13,1,4.24,2.08,6.35,3.14q-1.86,3.36-3.68,6.75c-2.67-1.38-5.37-2.73-8.08-4q2.56-5,5.15-10a.11.11,0,1,0-.18-.11q-2.9,4.83-5.59,9.79-4.14-1.95-8.35-3.71c-.09,0-.14.11-.06.15q4,2.12,8.07,4.19-2.27,4.19-4.44,8.44-3.81-2-7.65-4c1.83-4,3.57-8,5.08-12,.12-.32-.38-.51-.54-.22-2.11,3.75-4,7.65-5.84,11.59-2.11-1.06-4.23-2.11-6.37-3.12-.1,0-.18.09-.09.14,2,1.22,4.11,2.4,6.19,3.57-.86,1.88-1.72,3.77-2.56,5.66-2.32-1.19-4.64-2.36-7-3.51a48.92,48.92,0,0,0,2.47-7.13c.07-.28-.35-.47-.47-.2-1,2.3-2,4.59-3,6.84-1.88-.92-3.77-1.84-5.67-2.74-.14-.06-.26.14-.12.22l5.58,3c-1,2.08-2,4.14-3.07,6.18q-3.57-1.95-7.15-3.84c1.42-2.19,2.84-4.39,4.23-6.61.13-.22-.2-.48-.36-.28-1.7,2.05-3.29,4.19-4.82,6.4-1.87-1-3.74-2-5.63-2.92a.09.09,0,1,0-.09.15l5.51,3.09c-1.46,2.13-2.84,4.31-4.17,6.52L16,180.26a74.76,74.76,0,0,0,4.77-8.49c.1-.23-.19-.51-.38-.29a51.67,51.67,0,0,0-5.35,8.31l-4.23-2.08c.72-1.62,1.38-3.25,1.95-4.9.07-.22-.24-.32-.35-.15-.94,1.46-1.8,3-2.62,4.55L6.9,175.78c.49-1.06.95-2.13,1.35-3.21.08-.2-.21-.29-.32-.14-.65.95-1.25,1.95-1.84,3l-1.72-.84c-.13-.06-.24.12-.11.19l1.7.9c-.93,1.63-1.79,3.31-2.62,5,.12.7.26,1.4.43,2.1v0l2.64,1.45-1.35,3c.14.41.29.81.44,1.21.62-1.22,1.25-2.44,1.88-3.66l3.79,2.06c-.83,1.55-1.65,3.11-2.44,4.68-.33.64-.64,1.28-1,1.93.41.76.84,1.5,1.29,2.23l6.27,3.07c-.52,1-1,2.06-1.52,3.09l.47.45q.81-1.62,1.65-3.24c1.25.62,2.51,1.24,3.75,1.87s2.29,1.16,3.44,1.76c-.68,1.13-1.35,2.28-2,3.43l-5-2.29-.47-.22a29.76,29.76,0,0,0,3.23,2.48c.58.28,1.17.55,1.75.84l-.09.16.72.38.1-.18L24.81,209a28.13,28.13,0,0,0,5,1.28c-2.64-1.3-5.31-2.58-8-3.82.65-1.14,1.32-2.27,2-3.4,3.36,1.76,6.71,3.57,10.07,5.34l-1,2.23.58,0,.95-2c1.19.63,2.4,1.25,3.6,1.86.71-.06,1.41-.14,2.12-.24-1.7-1-3.42-1.9-5.16-2.8L38,201.35c2.56,1.39,5.13,2.77,7.72,4.11-.11.24-.22.48-.32.72-.49,1.14-1,2.29-1.51,3.44l1.31-.31c.36-.88.71-1.75,1.08-2.62.11-.25.23-.51.34-.77,1.25.65,2.51,1.28,3.77,1.89l1.29-.43q-2.27-1.32-4.57-2.59c.92-2.13,1.85-4.24,2.8-6.36,2.53,1.32,5.06,2.64,7.6,3.94-.25.54-.51,1.07-.77,1.61s-.6,1.26-.9,1.89l1.36-.52.39-.87c.26-.56.53-1.11.79-1.67.77.4,1.55.78,2.32,1.16l.64-.25.83-.33c-1.09-.56-2.17-1.13-3.26-1.68.72-1.55,1.46-3.09,2.2-4.63l4.5,2.78,2.09,1.33,1.19-.46-2.12-1.31q-2.61-1.62-5.24-3.21,1.65-3.48,3.35-6.93,4.27,2.39,8.53,4.81-1,2.81-2,5.63l1.07-.43q.9-2.35,1.78-4.71l.13.08c1.32.75,2.63,1.53,3.94,2.31l1.31-.51c-1.36-.77-2.72-1.52-4.06-2.29l-1-.53,2.25-5.89,5.54,3-2.53,5.65,1.84-.73c.65-1.42,1.3-2.83,1.93-4.25l3.75,2,1.15-.46L84,190.52q1.89-4.28,3.71-8.58,4.47,2.66,8.88,5.41L96,189l-.44,1.11,1.43-.57c.2-.54.41-1.09.62-1.63l1.36.85,1.42-.56L98,186.79q1.44-3.78,2.85-7.58c3,1.78,5.88,3.61,8.79,5.46l1.27-.49c-3.22-2-6.48-3.91-9.76-5.79.69-1.85,1.36-3.7,2-5.55l.37.2c3.67,2.09,7.27,4.29,10.85,6.52l-1,3.67,1.55-.59c.22-.78.45-1.55.67-2.33l2.05,1.27,1.42-.55c-1-.64-2.08-1.28-3.13-1.9q1.73-6.1,3.41-12.22,3.66,1.72,7.27,3.51c-1,2.9-1.91,5.81-2.85,8.73l1.61-.66q1.28-3.72,2.52-7.44c1.23.61,2.47,1.21,3.69,1.84,1,.51,2,1.05,3,1.59l1.19-.55-3.73-1.87c-1.29-.65-2.59-1.27-3.88-1.91q1.65-5,3.27-9.93c2.81,1.29,5.63,2.56,8.44,3.84-1.18,3.23-2.4,6.44-3.63,9.65l1.77-.84c1.11-2.71,2.18-5.45,3.2-8.2l3.86,1.76,2.78,1.28c.83-.48,1.65-1,2.47-1.46q1.49-3.78,2.85-7.6l5.18,2.3,1-.73c-1.95-.84-3.91-1.65-5.86-2.47.85-2.38,1.66-4.77,2.46-7.16,3.18,1.53,6.35,3.1,9.52,4.66q1.58-1.41,3.11-2.94c1-3.37,1.93-6.75,2.82-10.15l4.45,1.76.68-.93c-1.62-.62-3.24-1.21-4.86-1.81q.76-3,1.5-6,3.36,1.38,6.75,2.67c.2-.32.38-.64.56-1-2.32-1-4.67-2-7-2.89.66-2.74,1.29-5.49,1.91-8.24l8.92,3.53.39-1-9.12-3.41q.94-4.28,1.81-8.58Zm-21.95-8.87,8.93,3.63q-1.12,4.33-2.29,8.66l-8.25-3.15Q156.22,112.63,156.9,108.05Zm-1.77,9.86,8.21,3.18q-1.11,4.05-2.26,8.07l-1.28-.5-6.55-2.61C153.93,123.35,154.56,120.63,155.13,117.91Zm5.69,12.15c-.61,2.1-1.22,4.19-1.86,6.28L154,134.46l-2.74-1q.92-3.27,1.75-6.55l5.78,2.35ZM146.33,114.5l7.48,2.9c-.39,1.69-.78,3.39-1.2,5.07-.24,1-.5,2-.76,3l-7.92-3.14Q145.16,118.44,146.33,114.5Zm-2.62,8.55,7.94,3.26c-.57,2.2-1.14,4.4-1.74,6.59l-8.35-3.15C142.29,127.52,143,125.28,143.71,123.05Zm-2.38,7.42,8.36,3.25q-1.38,5-2.87,9.95c-.16.54-.34,1.08-.51,1.62-2.87-1.23-5.77-2.43-8.67-3.6Q139.5,136.08,141.33,130.47ZM146.1,146c-.79,2.52-1.59,5-2.43,7.52l-7-3-1.72-.73,2.49-7.48C140.33,143.51,143.22,144.73,146.1,146Zm-15.48-19.76c3.2,1.27,6.4,2.55,9.6,3.8q-1.91,5.59-3.78,11.19-4.44-1.77-8.93-3.44C128.57,133.93,129.61,130.09,130.62,126.23Zm-3.24,12q4.44,1.74,8.87,3.57l-2.49,7.45-8.45-3.59ZM116.16,134q5.07,1.85,10.09,3.8-1.06,3.69-2.1,7.38l-10.1-4.29C114.77,138.6,115.47,136.31,116.16,134Zm-2.27,7.41L124,145.85l-2.47,8.77q-5.17-2.33-10.37-4.61Q112.54,145.72,113.89,141.42Zm-12.16,5.05q4.18,2,8.4,3.95-1.71,4.94-3.45,9.85-4.29-1.82-8.63-3.52Q100,151.64,101.73,146.47Zm-11.21,8L96.6,157q-1.87,4.7-3.76,9.39-3-1.53-6-3Q88.73,159,90.52,154.51Zm-3.86,9.31c2,1,4,2.08,5.94,3.14q-1.09,2.72-2.2,5.41c-2-1.07-4-2.11-6.05-3.14Zm-6.79-3.44c1.84.91,3.66,1.82,5.48,2.76q-1.12,2.73-2.22,5.48c-2-1-4-2-6-3Zm-3,5.67q3,1.55,6,3.13c-1,2.44-1.91,4.88-2.86,7.3-2.24-1.23-4.5-2.45-6.77-3.63C74.47,170.58,75.67,168.32,76.87,166.05Zm-12.81,3q4,2.07,8,4.16-2.27,4.26-4.45,8.55c-2.62-1.4-5.24-2.81-7.87-4.2C61.16,174.74,62.61,171.91,64.06,169.08Zm-13,4.79c2.5,1.4,5,2.76,7.56,4.12q-1.36,2.67-2.69,5.37-3.75-2-7.51-3.93Q49.75,176.66,51.05,173.87Zm-3,6.24q3.73,2,7.46,4-1.47,3-2.91,6l-.27.59-.22-.13c-2.37-1.39-4.74-2.76-7.13-4.11C46,184.37,47.06,182.25,48.08,180.11ZM40,175.81l6.9,3.68c-1,2.16-1.91,4.32-2.87,6.47q-3.54-2-7.11-4C38.06,180,39.1,177.9,40,175.81Zm-3.39,6.74q3.56,2,7.1,4.11c-.38.86-.77,1.72-1.16,2.58-.54,1.17-1.07,2.36-1.6,3.53-.45-.22-.9-.44-1.34-.67l-6.7-3.38C34.2,186.69,35.45,184.64,36.63,182.55ZM28.57,178c2.37,1.33,4.73,2.68,7.08,4l0,.09c-1.15,2.08-2.36,4.13-3.6,6.17q-3.79-1.92-7.6-3.81C25.78,182.27,27.18,180.12,28.57,178ZM24,185.08l7.56,3.9c-1.18,1.94-2.39,3.87-3.59,5.8l-2.7-1.41-4.8-2.53Q22.2,187.93,24,185.08Zm-8.29-4.31q3.67,1.93,7.37,3.84-1.72,2.89-3.34,5.84c-2.44-1.29-4.89-2.57-7.33-3.84q1.23-2.24,2.49-4.46Q15.29,181.46,15.71,180.77Zm-9,2.86-3-1.56c1.08-2,2.14-4,3.09-6l2.86,1.5C8.59,179.56,7.63,181.59,6.7,183.63Zm1,.53c1-2,2-4,2.94-6l4.13,2.17c-.13.23-.26.47-.4.7q-1.45,2.56-2.85,5.16Zm8.05,13.77c-2.48-1.21-4.95-2.41-7.44-3.59.4-.79.8-1.58,1.21-2.37.82-1.57,1.66-3.13,2.5-4.68l7.29,3.92q-1.11,2-2.18,4C16.67,196.14,16.21,197,15.76,197.93Zm7.88,3.88-3.48-1.71-3.79-1.87c.46-.87.91-1.75,1.38-2.62.74-1.36,1.5-2.69,2.27-4l4.79,2.57,2.65,1.43-.32.52C26,198,24.79,199.89,23.64,201.81Zm10.84,5.38c-3.34-1.72-6.72-3.37-10.08-5,1.25-2.07,2.54-4.12,3.85-6.16,3,1.63,6,3.29,9,4.94C36.34,203,35.4,205.11,34.48,207.19Zm3.29-7.35-9-4.64c1.22-1.89,2.47-3.81,3.7-5.76,2,1,4,2.05,6,3.06l2.13,1.1C39.65,195.68,38.7,197.76,37.77,199.84Zm8.44,4.47c-2.55-1.39-5.12-2.75-7.69-4.08,1-2.06,1.95-4.13,2.92-6.19,2.53,1.3,5.05,2.62,7.57,3.94C48.07,200.08,47.13,202.19,46.21,204.31ZM49.45,197l-7.62-3.79c.55-1.15,1.1-2.3,1.63-3.45l1.21-2.55Q47.86,189.09,51,191l.95.58C51.13,193.36,50.28,195.17,49.45,197ZM58,201.27c-2.56-1.29-5.13-2.57-7.69-3.84q1.22-2.7,2.46-5.4,3.75,2.26,7.48,4.55C59.52,198.14,58.76,199.7,58,201.27Zm2.67-5.57q-3.75-2.26-7.53-4.49l.27-.6q1.41-3,2.88-6.05c1.51.82,3,1.64,4.52,2.48l3.23,1.79Q62.35,192.27,60.69,195.7ZM64.48,188c-.84-.45-1.67-.92-2.5-1.37l-5.29-2.84c.87-1.8,1.76-3.59,2.66-5.39,2.61,1.41,5.24,2.8,7.86,4.19l-2.07,4.08Zm9.26,5.16q-4.21-2.38-8.46-4.71l.65-1.32Q67,185.06,68,183q2.25,1.2,4.49,2.41l3.41,1.83C75.19,189.2,74.45,191.17,73.74,193.14Zm2.5-6.75L73.67,185l-5.26-2.81c1.46-2.87,3-5.72,4.44-8.57q3.45,1.82,6.86,3.7c-.16.43-.33.86-.5,1.28Q77.7,182.5,76.24,186.39Zm6.55,3.47q-2.81-1.47-5.59-3,1.39-3.63,2.82-7.24c.23-.58.47-1.16.71-1.75l2.75,1.55c1,.59,2.08,1.2,3.12,1.81Q84.71,185.58,82.79,189.86Zm4.2-9.51-3-1.7-2.88-1.6q1.48-3.63,3-7.23,3,1.6,6,3.25c-.13.29-.25.59-.37.89Q88.39,177.17,87,180.35Zm10.07,5.85c-3-1.78-5.93-3.5-8.92-5.2l2.23-5.26.85-2.05c1.69.94,3.38,1.87,5.06,2.83q1.84,1,3.66,2.13Q98.51,182.43,97.06,186.2Zm3.18-8.35-2.9-1.66q-2.9-1.63-5.82-3.21,1.13-2.68,2.23-5.39,4.29,2.32,8.55,4.73C101.62,174.17,100.94,176,100.24,177.85Zm3-7.95c-.2.54-.41,1.09-.61,1.64Q98.33,169.19,94,167c1.29-3.16,2.56-6.33,3.77-9.51q4.32,1.77,8.62,3.6Q104.82,165.49,103.2,169.9Zm11.54,8.51c-3.56-2.09-7.16-4.11-10.73-6.1l-.5-.28c.13-.37.27-.75.41-1.12q1.69-4.72,3.35-9.47,4.37,1.88,8.7,3.86l2.19,1Q116.44,172.38,114.74,178.41Zm3.66-12.94-2-.92q-4.39-2-8.86-3.91,1.7-4.92,3.32-9.87,5.17,2.4,10.36,4.77c0,.12-.07.25-.11.37Q119.77,160.7,118.4,165.47Zm8.55,4.05q-3.65-1.77-7.33-3.48c.84-3,1.67-6,2.51-9l.27-1,6.58,3,1.29.59Q128.6,164.59,127,169.52Zm3.64-10.81-1.11-.5-6.82-3.06,2.46-8.79,8.39,3.68c0,.12-.09.24-.13.37C132.46,153.18,131.52,155.94,130.59,158.71Zm9.71,4.38-8.48-3.82c.93-2.84,1.86-5.69,2.8-8.52l.07-.19,1.56.68,7.13,3.11C142.38,157.27,141.36,160.19,140.3,163.09Zm8.32,3.73-2.94-1.31-4-1.82c1.07-2.9,2.08-5.83,3.07-8.76l7,3,.1,0C150.74,161,149.68,163.89,148.62,166.82Zm3.47-9.69-7.1-3c.83-2.5,1.62-5,2.4-7.51q3.63,1.62,7.21,3.33C153.77,152.31,152.94,154.72,152.09,157.13ZM154.9,149q-3.65-1.6-7.28-3.16c.11-.36.23-.72.34-1.09,1.06-3.46,2.11-7,3.1-10.51l2,.77,5.66,2.19c-.08.29-.17.58-.26.86C157.32,141.74,156.13,145.38,154.9,149Zm11.4,5.27c-3.29-1.62-6.62-3.15-10-4.63q1.71-5.22,3.31-10.45c.15-.49.29-1,.44-1.46l8,3.1,1.75.68Q168.11,147.91,166.3,154.28Zm3.82-13.7-1-.38-8.78-3.34q.93-3.12,1.8-6.25c3.2,1.33,6.39,2.68,9.6,4Q170.95,137.59,170.12,140.58Zm1.94-7.14-9.66-3.76c.75-2.7,1.47-5.4,2.15-8.12l6.92,2.69,2.72,1.06C173.49,128,172.78,130.74,172.06,133.44Zm2.35-9-2-.74-7.71-2.93c.73-2.9,1.41-5.81,2.06-8.73l9.72,3.92Q175.49,120.23,174.41,124.47Zm-7.48-13q.69-3.1,1.32-6.23l9.9,3.83c-.47,2-1,4.07-1.44,6.1Z"/><path class="cls-4" d="M7.07,158.89a.24.24,0,0,0,.23-.39,9.32,9.32,0,0,0-2.8-1.86c-.06.25-.12.49-.17.73A8.08,8.08,0,0,0,7.07,158.89Z"/><path class="cls-4" d="M155.25,37.91a21.92,21.92,0,0,0,2.29-1.49c.15-.12.07-.39-.14-.33a21.6,21.6,0,0,0-3.13,1.27l-1.85-1.07c.31-.13.61-.26.91-.41a.17.17,0,0,0-.09-.32A16,16,0,0,0,144.17,40a.19.19,0,0,0,.23.3c1.47-.78,2.85-1.72,4.35-2.45,1-.52,2.13-.89,3.21-1.32l1.76,1.15c-1,.48-1.9,1-2.83,1.47-.77.4-1.57.79-2.36,1.18l-1.19-.8c-.16-.1-.3.15-.15.26l1,.71a38.11,38.11,0,0,0-3.88,2.11l-1.22-.84c-.15-.1-.27.14-.14.24l1.06.78c-.25.17-.5.34-.74.52s-.09.48.16.4l.55-.17.05,0,.6-.25q2,1.52,4.07,3l-1.33.7A14.12,14.12,0,0,0,143.8,49l-1.33-.82c.08.41.16.82.25,1.23a.36.36,0,0,0,.12-.47l-.14-.23.85.57c-.07.09-.15.17-.22.27a.1.1,0,0,0,.09.15,3,3,0,0,0,.68-.05l3.74,2.5a9,9,0,0,0-2.66,1.41l.67.49A12.72,12.72,0,0,0,149,52.91l1.46,1q.06-.35.15-.69l-1-.59c.43-.18.86-.38,1.29-.57a15.88,15.88,0,0,1,.56-1.5c-.72.34-1.42.69-2.15,1-.26.12-.55.23-.84.34l-3.85-2.38a15.9,15.9,0,0,0,2.6-1.25c.85-.42,1.69-.85,2.53-1.28l2.54,1.86.32-.54-2.3-1.61,1.88-1,2-1,.71.51c.92.66,1.84,1.35,2.76,2-1.05.62-2.09,1.23-3.15,1.77-.15.09-.31.16-.47.24-.18.5-.35,1-.51,1.51l.82-.39c1.36,1,2.74,2.15,4.14,3.2-.44.24-.87.46-1.3.67l-2.79,1.35-.25-.16-1.4-.87q0,.43,0,.87l.84.56-.83.42c0,.31,0,.63,0,.94.56-.26,1.13-.51,1.69-.78l4.81,3.17c-1,.63-2,1.27-2.92,2a.12.12,0,0,0,0,.09l.19.14c1.19-.52,2.33-1.14,3.47-1.77a38.45,38.45,0,0,0,4.49,2.88c.07-.32.14-.64.23-1a37.75,37.75,0,0,0-3.8-2.44,13,13,0,0,0,3.48-2.27.22.22,0,0,0-.22-.37,13.89,13.89,0,0,0-3.77,2l-.24.16-4.8-3,1.65-.78,2.42-1.14a31.43,31.43,0,0,0,4.17,2.65.34.34,0,0,0,.41-.53,32,32,0,0,0-3.36-2.7l1.31-.62a18.83,18.83,0,0,0,4.17-2.25c.23-.19,0-.5-.26-.45A23.37,23.37,0,0,0,159.66,53c-1.5-1-3-2-4.5-3,1.23-.6,2.51-1.21,3.77-1.88a39.79,39.79,0,0,0,3.86,2.51.3.3,0,0,0,.36-.47h0a36.52,36.52,0,0,0-3.4-2.48,20.37,20.37,0,0,0,4.14-3c.19-.19,0-.58-.28-.48a32.65,32.65,0,0,0-5.18,2.61c-.85-.55-1.7-1.09-2.54-1.65l-1.1-.74a55.35,55.35,0,0,0,5.39-2.85l.62.31c.19.09.43-.17.24-.31s-.27-.2-.41-.31c.48-.31.94-.62,1.39-1,.26-.2,0-.63-.32-.54a20.45,20.45,0,0,0-2.11.76C158.21,39.61,156.73,38.75,155.25,37.91Zm-2.95,6.42c-1,.53-2.05,1.07-3.07,1.61L145,43c1.38-.59,2.71-1.3,4-2l4,2.86Zm1.27-.68-4.16-2.78.53-.27c1.54-.78,3.16-1.51,4.7-2.35,1.38.92,2.77,1.84,4.2,2.65C157,41.71,155.3,42.71,153.57,43.65Z"/><path class="cls-4" d="M118.91,38.23c-.13-.16-.24-.34-.36-.51l-.43.31Z"/><path class="cls-4" d="M187,58.67a64.74,64.74,0,0,0-6.61,3l-2-1.42c-.25-.18-.48.23-.24.42q.83.63,1.65,1.29l-2.06,1.07-1.49.77L175.2,63c-.28-.23-.68.17-.4.4l.9.74-2.77,1.44-1.57.79q-1.8-1.35-3.64-2.64c-.16-.11-.31.15-.15.26,1.15.84,2.28,1.7,3.39,2.59a11.75,11.75,0,0,0-2.73,1.83c-.09.09,0,.22.12.2a15.11,15.11,0,0,0,3.6-1.25c1.32,1.07,2.6,2.18,3.86,3.32-1.23.67-2.44,1.36-3.59,2.13-2-1.95-3.94-3.9-6-5.78,0,.13,0,.26,0,.4,1.78,1.94,3.63,3.84,5.48,5.74l-.64.45.42.39.75-.3.32.33.81.85c.2-.12.41-.22.62-.33l-.41-.4-.73-.72c1.3-.59,2.57-1.27,3.83-2,.38.36.74.73,1.11,1.1.2-.11.39-.24.58-.36l-1.17-1c1.09-.61,2.16-1.23,3.23-1.81l.88-.47,1,.85.85-.51c-.33-.27-.66-.54-1-.8,1.16-.6,2.33-1.2,3.47-1.83l1.07.77a.52.52,0,0,1,.31.23c.86.62,1.74,1.23,2.63,1.79.23.14.49-.19.29-.37-1.13-1-2.31-2-3.51-2.88A29.5,29.5,0,0,0,189,64.53l0,0a26.72,26.72,0,0,0,2.69,2.07c.23.14.55-.15.38-.39-.56-.79-1.09-1.62-1.7-2.39l.39.21a.11.11,0,0,0,.11-.18c-.33-.23-.67-.41-1-.63-.12-.08-.24.07-.18.18a14.81,14.81,0,0,0,.89,1.55c-.37-.27-.75-.54-1.1-.82h0c.23-.18,0-.58-.28-.48a27.23,27.23,0,0,0-3.74,1.7c-1.34-1-2.7-2-4.06-2.93a62.46,62.46,0,0,0,5.81-3.29C187.43,59,187.28,58.55,187,58.67ZM176.32,70.4c-1.27-1.12-2.59-2.2-3.93-3.24,1.44-.71,2.84-1.54,4.2-2.27l3.88,3.3C179.12,68.94,177.72,69.66,176.32,70.4Zm8.31-4.58c-1.12.62-2.23,1.28-3.34,1.91-1.36-1.06-2.74-2.1-4.1-3.16l.42-.22,3.15-1.59C182.05,63.78,183.33,64.81,184.63,65.82Z"/><path class="cls-4" d="M111.57,18.36a7.89,7.89,0,0,0,1.91-1.87A11.78,11.78,0,0,0,115.26,14c.08-.17-.1-.43-.3-.29a11.62,11.62,0,0,0-2.1,2.16,8,8,0,0,0-1.53,2.3C111.27,18.31,111.45,18.43,111.57,18.36Z"/><path class="cls-4" d="M116.29,32.68,116,33c-1.64-.59-3.29-1.15-4.95-1.66.12.24.24.46.37.69,1.27.55,2.54,1.08,3.83,1.59a18.11,18.11,0,0,0-1.64,1.51l.62.7a9.36,9.36,0,0,0,2.59-1.48c0-.12-.1-.26-.14-.37C116.51,33.52,116.39,33.1,116.29,32.68Z"/><path class="cls-4" d="M139.13,46.23c.08-.09.16-.17.23-.26.19-.25-.16-.47-.37-.37a.67.67,0,0,0-.12.06c.06.54.13,1.08.2,1.62l.73.51c-.09-.41-.17-.83-.23-1.26Z"/><path class="cls-4" d="M130.84,88.14c1.93.8,4,1.39,5.94,2s4.07,1.6,6.12,1.64a.24.24,0,0,0,.12-.45c-1.54-1-3.53-1.27-5.26-1.77-2.25-.65-4.53-1.35-6.82-1.79A.18.18,0,0,0,130.84,88.14Z"/><path class="cls-4" d="M129.79,49.62c0,.09.15.16.2.05a11.14,11.14,0,0,0,.76-2.33,9.44,9.44,0,0,0,.27-1.17l-1-.52a5.45,5.45,0,0,0-.19,1.12,9.55,9.55,0,0,0-2.61-.48c-1.36-.16-2.73-.35-4.09-.43a.14.14,0,0,0,0,.27c1.17.25,2.36.41,3.55.6a11.48,11.48,0,0,0,3.14.32h0A11.13,11.13,0,0,0,129.79,49.62Z"/><path class="cls-4" d="M136.89,82.41a4.65,4.65,0,0,0,2.51,0,.17.17,0,0,0,0-.29,4.09,4.09,0,0,0-2.11-.42,28.84,28.84,0,0,0-3.22-.06.17.17,0,0,0,0,.34C135,82.17,135.92,82.29,136.89,82.41Z"/><path class="cls-4" d="M133.9,42.61c-1.78-1.26-3.58-2.51-5.46-3.6-.07,0-.17.07-.09.13,1.6,1.42,3.34,2.71,5.07,4a5.87,5.87,0,0,0-.67,1c.25.15.49.32.74.48a6,6,0,0,0,1-.66l.1.07L136,45.05c-.05-.34-.08-.67-.11-1l-.88-.63c.28-.26.55-.53.82-.8,0-.58,0-1.17,0-1.76C135.24,41.4,134.53,42,133.9,42.61Z"/><path class="cls-4" d="M108.89,33.68c-.1-.16-.2-.32-.29-.48a.19.19,0,0,0-.13,0,3,3,0,0,0-.53.3,5.41,5.41,0,0,0-.51.65h0l1.06.43a3.15,3.15,0,0,0,.22-.29A1.68,1.68,0,0,0,108.89,33.68Z"/><path class="cls-4" d="M109.26,26.93l4.44,2.18a27.43,27.43,0,0,0-1.87,2.17c-.1.13.08.27.2.21a12,12,0,0,0,2.67-1.9l1.19.57c0-.26,0-.51,0-.77l-.65-.29c.23-.23.44-.46.66-.7a16,16,0,0,1,.21-1.93c-.61.75-1.27,1.46-1.94,2.17q-2.49-1.09-5-2.15C109.17,26.64,109.22,26.78,109.26,26.93Z"/><path class="cls-4" d="M138.49,41.14c0,.1,0,.21,0,.31l1,.53c0-.32.08-.64.14-1l-1.16-.69C138.5,40.6,138.48,40.87,138.49,41.14Z"/><path class="cls-4" d="M138.52,38.41c0,.58,0,1.17,0,1.75.59-.53,1.17-1.06,1.74-1.6a18.5,18.5,0,0,1,.91-2.42l-.54.43h0a.11.11,0,0,0-.13,0c-.59-.37-1.19-.7-1.79-1.05,0,.36,0,.72-.07,1.09l1.19.65Z"/><path class="cls-4" d="M102.33,34.15c-.21-.13-.42-.28-.63-.43l0,.12Z"/><path class="cls-5" d="M228.67,100.85c-6.08-4.73-11.85-9.92-18.28-14.18a17,17,0,0,0-8.06-3,19.66,19.66,0,0,0,1.77-1.39c3.63-3.25,5.37-7.94,5.88-12.65.82-7.61-3.06-15,.32-22.36a.85.85,0,0,0-1.15-1.16c-9.66,4.92-25.58-.44-35.4,4.71a22.16,22.16,0,0,0,3.36-9c1.12-11.1-5.53-19.21-11.43-27.81a.77.77,0,0,0-1.39.18,14,14,0,0,1-5.17,7.3c-.76-4.57-4.58-9.09-7.57-12.23A35.21,35.21,0,0,0,135.77.05a1.12,1.12,0,0,0-1.41,1.07c-.4,6.2-3.82,11.17-6.72,16.4C124,5.72,111-1.16,98.91.42a1.11,1.11,0,0,0-.78,1.88c5.55,5.29,6.09,13,7.19,20.2a17.28,17.28,0,0,0-4.91-2.66c-6.14-2.34-12.87-3.58-19.2-5.35-.72-.2-1.66.54-1.33,1.33C83,23.51,90,31.61,98.24,35.29a70,70,0,0,0-19.9,3.07,64.16,64.16,0,0,0-16.68,7.9A57.29,57.29,0,0,0,47.81,56.68c-7,7.3-12.27,17.23-15.44,27.19-3.12,6.56-6,13.23-9,19.77C18.1,114.94,12.76,126.23,8,137.72c-8,19.32-13.26,44.35.79,62.35,5.81,7.45,13.59,12.29,23,13.44,11.93,1.45,24-4.45,34.72-8.71,23.41-9.26,47.28-17.83,70.2-28.25,26.24-11.94,53.3-32.81,53.42-64.39a43.57,43.57,0,0,0-.27-5c1.95,2.16,5.15,3.27,7.91,3.89,6.94,1.56,15.73-.13,19.78,7.28.38.8,1.77.22,1.43-.6,0-.06-.05-.12-.08-.19h0l0-.06a11.12,11.12,0,0,0-1.2-2.12,28.91,28.91,0,0,0-13.1-11.74c8-.64,16.41-2.88,23.37-1.46C228.59,102.28,229.34,101.37,228.67,100.85ZM190.16,50.48c6.28.11,12,.1,17.76-2.08-3.11,8.29,1.26,17.3-1.61,25.74-1.62,4.78-5.89,8.46-10.51,10.16-4.21,1.55-8.42.8-12.35-.82-.82-.56-1.67-1.09-2.53-1.59a42.54,42.54,0,0,0-3.83-2.09c-.91-1.06-1.84-2.09-2.82-3.1,2.28-.46,4.29-2,6.21-3.19A34,34,0,0,0,187,68.19a.49.49,0,0,0-.59-.76c-3,1.56-5.85,3.49-8.77,5.26-1.41.86-2.95,1.45-4.36,2.27a1.6,1.6,0,0,0-.37.37l-.39-.38c-1.95-1.89-4-3.68-6.12-5.4-.84-5.51,1.83-10,4.72-14.58C176.29,50.84,183.52,50.36,190.16,50.48ZM165.43,16.17c6.6,8.89,12.28,20.44,7,31.2-3.22,6.57-9.5,13.12-7.93,20.65-2.72-2.14-5.51-4.2-8.28-6.26l-3.4-2.53c.1-1.8-.19-3.66.09-5.46a30,30,0,0,1,2.45-7.55c.19-.43-.3-.88-.67-.52-2.55,2.44-4.86,7.46-4.46,11.6-2.19-1.64-4.38-3.27-6.59-4.89-3.34-8.89-1.15-17.53,7.29-22.86C156.66,25.92,163.59,23.1,165.43,16.17ZM129.52,20c2.94-5.69,7.06-10.79,7.12-17.33a35.41,35.41,0,0,1,18.19,14.58c1.1,1.68,1.85,3.56,2.95,5.21-5,3.45-11.49,5.6-15,10.69-3.36,4.93-4.53,11.58-2.26,17l-1.27-.92c-.26-2.7-.76-5.39-.8-8.11a59.82,59.82,0,0,1,1.14-12.53c0-.25-.31-.43-.43-.18-2.55,5.08-4.16,12.09-2.93,18.13a37.23,37.23,0,0,0-6.93-4.4C126.4,34.39,125.52,27.71,129.52,20ZM101.59,2.6c11.21.31,19.65,6.57,25.36,16.2a32.8,32.8,0,0,0-2.71,6.47A19.15,19.15,0,0,0,126.84,41c-1.15-.49-2.33-.93-3.51-1.35-.78-2.16-3.06-3.7-4.2-5.78a17.49,17.49,0,0,1-2-9.9c0-.19-.25-.2-.31,0a15,15,0,0,0-.13,10,14.32,14.32,0,0,0,2.27,4.29q-1.45-.4-2.88-.75c-6.12-4.94-7.45-11.87-8.59-19.52C106.6,12.38,105.3,6.81,101.59,2.6ZM92.47,28.43A38.36,38.36,0,0,1,83.13,17.3c3.69,1.07,7.37,2.16,11.06,3.22s8.4,1.62,11.49,4.15l.21,1.15a23.22,23.22,0,0,0,4.21,9.62c-1.92-1.15-4.19-1.72-6.25-2.61A39.32,39.32,0,0,1,95.5,27.5a.13.13,0,0,0-.19.19,30.3,30.3,0,0,0,7,6.46A49,49,0,0,1,92.47,28.43Zm71.71,128c-18.86,16-43.63,23.81-66.27,32.77L61.32,203.72c-11.6,4.6-24.09,9.67-36.55,5.26-11.27-4-18.39-15.07-21-26.23-3-12.95.14-26.59,4.57-38.81C16,122.69,27.43,102.85,36,82,39.9,74.53,43.46,67,48.69,60.29A71.22,71.22,0,0,1,79,40.6a65.71,65.71,0,0,1,30.36-2,70.1,70.1,0,0,1,13.92,3.85,70.43,70.43,0,0,1,8.68,4.25h0c2,1.63,4.08,3.22,6.14,4.8a12.21,12.21,0,0,0,.68,1.08.37.37,0,0,0,.65-.07c7.44,5.64,15.06,11,22.44,16.75,8.72,6.75,16.74,14.23,22,24C195.86,115.62,181.43,141.77,164.18,156.44ZM213,111.71a20.84,20.84,0,0,0-4.81-1.42c-3.28-.6-6.66-.52-10-1-3.6-.5-6.14-2.19-8.7-4.49a44.21,44.21,0,0,0-1-4.49c3.4,2.49,7.37,3.35,11.58,3.43A32.41,32.41,0,0,1,213,111.71ZM188,98.64a47,47,0,0,0-2.34-5.9c5.7,4.26,12.87,4.4,19.47,1.46.08,0,0-.15-.06-.13-6.77,1.29-14-.19-20.21-2.94a54.56,54.56,0,0,0-4.36-7c5.14,4,12.08,4.14,17.92,1.67,5.45-1,9.53,1.74,13.94,5.08C216.52,94,220.73,97,224.89,100,212.55,98.38,199.7,104.45,188,98.64Z"/><path class="cls-5" d="M54.88,132.57c-.55-.41-1.7-.63-2.09.11a.3.3,0,0,0,0,.35c.37.35,1.54,1,1,1.66-.77,1-2.34,0-3.32.26a.38.38,0,0,0-.23.55,3.11,3.11,0,0,0,2.74,1.29,2.74,2.74,0,0,0,2.56-1.6A2.32,2.32,0,0,0,54.88,132.57Z"/><path class="cls-5" d="M71.69,131.63a3.22,3.22,0,0,0-1-2,.55.55,0,0,0-.84.11,2.44,2.44,0,0,0-.38,1.41,7.34,7.34,0,0,0-1.53.58,6.58,6.58,0,0,0-.94.61c-.24.19-.27.45-.53.59a.22.22,0,0,0,.11.41,3.43,3.43,0,0,1,.74.21,3.5,3.5,0,0,0,1.12,0,11.63,11.63,0,0,0,2.47-.56A1.14,1.14,0,0,0,71.69,131.63Z"/><path class="cls-5" d="M66.72,118.55a.35.35,0,0,0-.39,0c-.54.41-.5,1.2-.92,1.73a2.47,2.47,0,0,1-2.31.65c-.49-.05-.52.58-.22.82a2.74,2.74,0,0,0,3.39-.32C66.93,120.87,67.78,119.12,66.72,118.55Z"/><path class="cls-5" d="M62.13,107.51c-.15-.51-.55-1.37-1.21-1.37-.45,0-.69.5-.8,1a5.82,5.82,0,0,1-1,.45c-.55.18-1.26.12-1.73.48-.25.19-.47.58-.23.88,1,1.31,3.42.65,4.53-.21A1.1,1.1,0,0,0,62.13,107.51Z"/><path class="cls-5" d="M51.57,121.75a.83.83,0,0,0-1.12.29,2.78,2.78,0,0,0-.17.61l-.15.45c0-.11-.22.24,0,.1a1.59,1.59,0,0,1-.82.29.81.81,0,0,0-.56,1.37,2.08,2.08,0,0,0,2.91-.07C52.49,124,52.65,122.32,51.57,121.75Z"/><path class="cls-5" d="M49,109.59a.91.91,0,0,0-1.09-.14c-.69.48-.69,1.3-1.25,1.88a3,3,0,0,1-2.31.47c-.65,0-.82.75-.48,1.17a3,3,0,0,0,3.82.47C48.89,112.86,50.21,110.7,49,109.59Z"/><path class="cls-5" d="M51,97.1c-.4-1-2-1-2,.27a2.06,2.06,0,0,1-.29,1.46,6.87,6.87,0,0,1-1.36.91.69.69,0,0,0,0,1.18,2.41,2.41,0,0,0,2.86-.59A3.18,3.18,0,0,0,51,97.1Z"/><path class="cls-5" d="M62.27,92.23a.78.78,0,0,0-1.44.39,3,3,0,0,1-.33,1.28,1.83,1.83,0,0,1-1.23.64.74.74,0,0,0,0,1.41,2.58,2.58,0,0,0,2.65-.76A2.43,2.43,0,0,0,62.27,92.23Z"/><path class="cls-5" d="M53.78,81.87A5.72,5.72,0,0,1,53,83.34a3.1,3.1,0,0,1-1.43,1,.16.16,0,0,0,0,.3,2.74,2.74,0,0,0,2.29-.22,2.84,2.84,0,0,0,1.33-2.22A.74.74,0,0,0,53.78,81.87Z"/><path class="cls-5" d="M44.61,88.42a.56.56,0,0,0-.54-.42c-1.08.12-1.57,1.54-1.79,2.44a.31.31,0,0,0,.45.35C43.54,90.33,44.78,89.48,44.61,88.42Z"/><path class="cls-5" d="M41.65,76.79a2,2,0,0,0-.68.76,4.16,4.16,0,0,0-.45,1,.62.62,0,0,0,.91.7,3.74,3.74,0,0,0,.69-.63,2.23,2.23,0,0,0,.62-1A.75.75,0,0,0,41.65,76.79Z"/><path class="cls-5" d="M33.35,94c-1.22.18-2,2.11-.86,2.86a.21.21,0,0,0,.19,0,2.66,2.66,0,0,0,.78-1,6.72,6.72,0,0,0,.6-1.2C34.21,94.23,33.75,93.92,33.35,94Z"/><path class="cls-5" d="M27.62,102a1,1,0,0,0,0,1.11l0,.09a.24.24,0,0,0,.39.11c.13-.13.27-.18.39-.34a1,1,0,0,0,.18-.69A.55.55,0,0,0,27.62,102Z"/><path class="cls-5" d="M26.25,109.06a.56.56,0,0,0-.5-.38c-.68-.07-1.34.76-1.51,1.33a.73.73,0,0,0,1.06.82C25.83,110.54,26.46,109.71,26.25,109.06Z"/><path class="cls-5" d="M37.91,104.91a.71.71,0,0,0-1-.43c-.87.52-1.41,1.58-2.4,1.93a.55.55,0,0,0,0,1,2.87,2.87,0,0,0,2.31-.2A2.27,2.27,0,0,0,37.91,104.91Z"/><path class="cls-5" d="M34.41,118.88c-.19-1-.91-1-1.39-.19a3.08,3.08,0,0,1-.93,1,3.29,3.29,0,0,1-1.27.32.13.13,0,0,0,0-.24l-.57-.12a.26.26,0,0,0-.31.17c0,.09-.08.17-.11.26a.53.53,0,0,0,0,.75,2.58,2.58,0,0,0,3,.55A2.55,2.55,0,0,0,34.41,118.88Z"/><path class="cls-5" d="M20.27,123.5a.67.67,0,0,0-.84-.48,2.29,2.29,0,0,0-1.17,1,4.23,4.23,0,0,0-.51,1.5v0s0,.1,0,.14h0a.75.75,0,0,0,1.1.64,4.07,4.07,0,0,0,1-1.17A2.25,2.25,0,0,0,20.27,123.5Z"/><path class="cls-5" d="M12.84,140.6a.31.31,0,0,0-.5-.14,1.72,1.72,0,0,0-.41,2.24.29.29,0,0,0,.36,0C13.05,142.39,13.1,141.29,12.84,140.6Z"/><path class="cls-5" d="M20.71,132.26a1.15,1.15,0,0,1-1.44.87.76.76,0,0,0-.73,1.26c1.54,1.61,4,.12,4.09-1.87A1,1,0,0,0,20.71,132.26Z"/><path class="cls-5" d="M39.58,127.65c-.21-.39-.42-.82-.93-.82a.92.92,0,0,0-.4.11c-.1.06-.56.52-.32.43a12,12,0,0,1-1.72.67c-.66.16-1.35.14-2,.29l0,0a.81.81,0,0,0-.24,1.5c1.54,1.18,4.26.44,5.42-.93A1.09,1.09,0,0,0,39.58,127.65Z"/><path class="cls-5" d="M39.69,139.39a3,3,0,0,1-1.53,1.3,3.37,3.37,0,0,1-1.94-.33c-.47-.15-.73.37-.57.74,1,2.45,5.32,1.47,5.48-1.08C41.19,139.1,40.3,138.54,39.69,139.39Z"/><path class="cls-5" d="M26.75,145.13c-.34-.06-.75.3-.5.66a1.64,1.64,0,0,1-.57,2.61c-1.17.65-2.73,0-4-.06a.58.58,0,0,0-.29,1.07,5.15,5.15,0,0,0,6-.16C28.7,148.21,28.62,145.42,26.75,145.13Z"/><path class="cls-5" d="M15.31,152.59a.75.75,0,0,0-.91-.52c-.71.3-1,1-1.68,1.36a18.6,18.6,0,0,1-2,.62.52.52,0,0,0-.19.72c.66,1,2,.89,3,.44S15.75,153.74,15.31,152.59Z"/><path class="cls-5" d="M17.54,162.47a.5.5,0,0,0-.84.35,2.73,2.73,0,0,1-.67,2.05,2.41,2.41,0,0,1-2,.42.67.67,0,0,0-.64,1.1,2.85,2.85,0,0,0,3.91,0A2.77,2.77,0,0,0,17.54,162.47Z"/><path class="cls-5" d="M5.22,169.35a.26.26,0,0,0-.34.09,9.57,9.57,0,0,0-.6,2c-.19.73-.58,1.38-.78,2.1a.28.28,0,0,0,.27.35C5.67,173.73,6.9,170.53,5.22,169.35Z"/><path class="cls-5" d="M10.35,184.14a.34.34,0,0,0-.54-.07,3.31,3.31,0,0,0-1,1.55A3,3,0,0,0,9,187.77a.64.64,0,0,0,1,.13,3.13,3.13,0,0,0,.8-2A3.3,3.3,0,0,0,10.35,184.14Z"/><path class="cls-5" d="M21.5,177.35a1.36,1.36,0,0,0-2.06,0,.45.45,0,0,0,.07.55c.43.46.84.76.27,1.33-.72.73-2-.12-2.79.42a.67.67,0,0,0-.31.76c.32,1.06,1.73,1.31,2.71,1.27A3.24,3.24,0,0,0,22,180.11,2.18,2.18,0,0,0,21.5,177.35Z"/><path class="cls-5" d="M22.29,196.89c-1.17-.82-3-1-3.78.4a.13.13,0,0,0,.08.19c1.31.25,2.93.5,3.33,2,.21.8-.52,1.66,0,2.39s1.41.11,1.69-.49A3.86,3.86,0,0,0,22.29,196.89Z"/><path class="cls-5" d="M31.43,191.94a1.74,1.74,0,0,0-.53-.93c-.35-.44-1-.14-1.14.29.14-.37-.18.3-.18.3,0,.17-.09.34-.13.52a2.22,2.22,0,0,1-.45,1c-.5.61-1.25.59-1.94.84a.51.51,0,0,0-.23.84c.87,1,2.55.56,3.45-.15A3.27,3.27,0,0,0,31.35,193,2.2,2.2,0,0,0,31.43,191.94Z"/><path class="cls-5" d="M38.9,176.89a.45.45,0,0,0-.64,0,5.91,5.91,0,0,0-.64.68,6,6,0,0,1-.57.85,2.4,2.4,0,0,1-1.95.34.59.59,0,0,0-.57,1,2.69,2.69,0,0,0,3.59.43C39.25,179.45,40,178,38.9,176.89Z"/><path class="cls-5" d="M31,161.41c-.31.69-.54,1.35-1.31,1.67s-1.52,0-2.36-.16c-.3,0-.7.2-.55.56a2.83,2.83,0,0,0,3.12,1.34c1.22-.26,2.86-1.54,2.75-3C32.6,160.71,31.59,160.2,31,161.41Z"/><path class="cls-5" d="M43.82,148.49a.62.62,0,0,0-.77-.1,2.24,2.24,0,0,0-.75,1.13,3.06,3.06,0,0,1-.86,1.12c-.35.3-1.92.87-1.61,1.52.57,1.19,2.4.28,3.09-.3S44.82,149.42,43.82,148.49Z"/><path class="cls-5" d="M58.19,145.3A3.55,3.55,0,0,0,56.4,145c-.58.09-.83.45-1.31.73-.27.16-.07.5.19.46a4.67,4.67,0,0,1,1.39.32,3.56,3.56,0,0,1,1.34.6,3,3,0,0,1-1,2.08c-.67.66-1.62.7-2.28,1.39a.37.37,0,0,0,0,.52c.83,1,2.07.47,3-.14a4.88,4.88,0,0,0,2-2.95A2.14,2.14,0,0,0,58.19,145.3Z"/><path class="cls-5" d="M72.18,141.37a.85.85,0,0,0-.86,0,1.75,1.75,0,0,0-.58.6.27.27,0,0,0,0,.26,1.81,1.81,0,0,0,.3.39c.29.7.58,1.42,0,2.12s-1.64.59-2.45.51a.65.65,0,0,0-.56,1c1.11,1.48,3.27,1.16,4.47,0S73.77,142.33,72.18,141.37Z"/><path class="cls-5" d="M63.44,161.82a.47.47,0,0,0-.8,0c-.12.21-.33.26-.49.43s-.34.51-.54.74a2,2,0,0,1-1.48.4.88.88,0,0,0-.44,1.62,2.83,2.83,0,0,0,3.28-.39,2.88,2.88,0,0,0,.89-1.38A2,2,0,0,0,63.44,161.82Z"/><path class="cls-5" d="M47.72,162.63c0-.3-.29-.71-.66-.61s-.41.94-.52,1.3c-.47,1.63-1.86,2-3.35,2.15a.56.56,0,0,0-.28,1,3.17,3.17,0,0,0,3.63-.41A3.4,3.4,0,0,0,47.72,162.63Z"/><path class="cls-5" d="M56.84,175.19c-.22-.11-.59,0-.56.32a2,2,0,0,1-.87,1.86c-.84.63-2.24.35-3.23.53a.73.73,0,0,0-.17,1.32,4.67,4.67,0,0,0,5-.53C58,177.85,58.12,175.83,56.84,175.19Z"/><path class="cls-5" d="M50.39,189.06c-.16-1-1-1.69-2-1.13a.24.24,0,0,0,0,.37,2,2,0,0,1-.27,2.57c-.76.93-2.09.58-3,.3-.44-.13-.68.33-.53.68.89,2.08,3.89,1.71,5.16.3A3.75,3.75,0,0,0,50.39,189.06Z"/><path class="cls-5" d="M42.17,200.54a.55.55,0,0,0-.39-.39,6.06,6.06,0,0,0-1.74-.21.2.2,0,0,0-.14.33,4,4,0,0,0,1,.69,2.77,2.77,0,0,1-1.43,1.54,2.8,2.8,0,0,1-2.37-.53.64.64,0,0,0-.87.88,3.19,3.19,0,0,0,4,1.24A3.11,3.11,0,0,0,42.17,200.54Z"/><path class="cls-5" d="M52.46,204.9c-.14-.5-.79-.61-1.23-.57a5.37,5.37,0,0,0-1.84.51c-.59.32-.36,1.42.36,1.33a5.3,5.3,0,0,0,1.89-.25C52,205.81,52.6,205.37,52.46,204.9Z"/><path class="cls-5" d="M61.36,194.08c-.73-.24-1.61.39-2.14.83s-1.27,1.54-.33,1.91c.73.29,1.31-.23,1.86-.65a2.31,2.31,0,0,0,1-1.62A.5.5,0,0,0,61.36,194.08Z"/><path class="cls-5" d="M68.05,181.14c-.53-.66-2-1.39-2.73-.6a.25.25,0,0,0,0,.35c.42.39,1,.54,1.41,1a1.7,1.7,0,0,1,.35,1.75,2.09,2.09,0,0,1-1.35.93c-.49.17-1,.07-1.47.22a.1.1,0,0,0-.08.1c0,.88,1.25,1.18,1.95,1.18a3,3,0,0,0,2.51-1.74A2.9,2.9,0,0,0,68.05,181.14Z"/><path class="cls-5" d="M74.15,168.41a1.18,1.18,0,0,0-.64,0,.31.31,0,0,0-.13.5l.18.23c.07.36.41.6.46,1,.06.57-.58.83-1,1a.54.54,0,0,0,.12,1,2,2,0,0,0,2.27-1.51C75.66,169.89,75.12,168.26,74.15,168.41Z"/><path class="cls-5" d="M80.31,155.07c-.24-.51-1.1-1.26-1.7-.95a.24.24,0,0,0-.11.26.86.86,0,0,0,.33.4,1.79,1.79,0,0,1,.36.63,1.54,1.54,0,0,1-.12,1.35,1.15,1.15,0,0,1-1.19.45,1.37,1.37,0,0,1-.63-.13c-.12-.05-.24-.14-.36-.18s-.35,0-.38,0-.2,0-.16.09l0,.16a.47.47,0,0,0,0,.5,2.46,2.46,0,0,0,4.12-.23A2.53,2.53,0,0,0,80.31,155.07Z"/><path class="cls-5" d="M86,140.55a.33.33,0,0,0-.19.48c1.32,2.1-2.69,2.72-1.86,4.77a.2.2,0,0,0,.19.15,4.94,4.94,0,0,0,3.58-2.85C88,142.08,87.47,140,86,140.55Z"/><path class="cls-5" d="M82.94,127c-.15-.3-.61-.6-.94-.4s-.36.85-.37,1.28-.26,1.17-.58,1.28a5.17,5.17,0,0,1-1.84.07.49.49,0,0,0-.34.83,2.69,2.69,0,0,0,3.32.3A3,3,0,0,0,82.94,127Z"/><path class="cls-5" d="M76.74,112.89a.36.36,0,0,0,.08.56,4.17,4.17,0,0,1,1,.84c.39.56-.14,1.31-.51,1.72-.79.86-2.11.89-3,1.53a.6.6,0,0,0,.14,1.09c2,.43,4.64-.83,5.14-2.93C79.91,114.35,78.28,111.44,76.74,112.89Z"/><path class="cls-5" d="M73,103.32c-.71-.39-1.76-1.26-2.61-.95a.27.27,0,0,0-.18.31c.13.71,1,1.15,1.65,1.51a2.67,2.67,0,0,1-1.14,1.19,4.68,4.68,0,0,1-2.29.27.39.39,0,0,0-.27.65c.72.82,2.11.65,3,.25a3.66,3.66,0,0,0,2.14-2.49A.68.68,0,0,0,73,103.32Z"/><path class="cls-5" d="M71.81,85.1c-.18,0-.4.14-.33.33A5.4,5.4,0,0,1,71.86,89c-.13.4-1.1,1.54-.76,2l.05.06a.44.44,0,0,0,.41.11C74.29,90.31,74.64,86,71.81,85.1Z"/><path class="cls-5" d="M66.32,75.88a.27.27,0,0,0-.42.06,10.36,10.36,0,0,1-1,1.72,3.18,3.18,0,0,1-2.22.65.33.33,0,0,0-.23.56,2.43,2.43,0,0,0,3.28.22C66.66,78.38,67.33,76.85,66.32,75.88Z"/><path class="cls-5" d="M62.17,66.36a2.41,2.41,0,0,0-1.73,1.52c-.14.37.26.66.59.59A2.4,2.4,0,0,0,62.68,67,.54.54,0,0,0,62.17,66.36Z"/><path class="cls-5" d="M51.74,69.38a4.82,4.82,0,0,0-2.36,2c-.27.37.26.9.64.64a4.86,4.86,0,0,0,2.07-2.33A.29.29,0,0,0,51.74,69.38Z"/><path class="cls-5" d="M65.15,54.11a3.22,3.22,0,0,0-1.39.46c-.14.09-.18.35,0,.42a2.57,2.57,0,0,0,.78.2,3.91,3.91,0,0,1-.91,1.38,3.85,3.85,0,0,1-1,.68c-.35.18-.66.18-.84.58h0a.45.45,0,0,0,.07.61c.82.65,2.09-.29,2.71-.89a4.19,4.19,0,0,0,1.24-2.9A.56.56,0,0,0,65.15,54.11Z"/><path class="cls-5" d="M78.47,58.75a.32.32,0,0,0-.5-.06,9.66,9.66,0,0,1-.91,1.22,3.67,3.67,0,0,1-1.53.82.57.57,0,0,0,0,1.1A2.59,2.59,0,0,0,78,61,2,2,0,0,0,78.47,58.75Z"/><path class="cls-5" d="M80.92,70.69a.7.7,0,0,0-1.18,0,5.07,5.07,0,0,1-1.18,1.72c-.69.45-1.49.1-2.21.31a.55.55,0,0,0-.38.67c.35,1.37,2.41,1.44,3.44.93C80.68,73.69,81.75,72.07,80.92,70.69Z"/><path class="cls-5" d="M94.12,60.22c-.1-.55-.43-1.28-1.06-1.38-.15,0-.34.07-.33.25,0,.34.15.66.18,1s-.22.63-.42.94c-.41.66-1.31.41-1.91.27a.53.53,0,0,0-.59.78c.66,1.42,2.72,1.08,3.66.2A2.16,2.16,0,0,0,94.12,60.22Z"/><path class="cls-5" d="M94.13,47.54c-.62.24-1,.74-1.71.94a3.32,3.32,0,0,1-2.33-.34.36.36,0,0,0-.49.48,2.69,2.69,0,0,0,2.75,1.16c.94-.13,2.3-.7,2.33-1.81A.44.44,0,0,0,94.13,47.54Z"/><path class="cls-5" d="M76.06,51a2.74,2.74,0,0,0-1.42.61,1.83,1.83,0,0,0-.9,1.07.07.07,0,0,0,.05.09,1.93,1.93,0,0,0,1.47-.14,2.56,2.56,0,0,0,1.27-.81C76.79,51.49,76.44,51,76.06,51Z"/><path class="cls-5" d="M91.2,72.52c-.45.42-.72.93-1.4,1A2.53,2.53,0,0,1,88,72.66a.45.45,0,0,0-.76.31,2.42,2.42,0,0,0,2.33,2.24c1.16.07,2.73-.65,2.93-1.92A.79.79,0,0,0,91.2,72.52Z"/><path class="cls-5" d="M84.44,86.7c-.35.23-.65.52-1,.74a3.73,3.73,0,0,1-1.2.37c-.29.06-1.73-.26-1.82.12-.26,1.09,1.49,1.49,2.26,1.56a3.08,3.08,0,0,0,3-1.87A.83.83,0,0,0,84.44,86.7Z"/><path class="cls-5" d="M85.86,99.6a.38.38,0,0,0-.63.17,3.87,3.87,0,0,1-.82,1.55c-.49.59-1.2.42-1.85.28a.84.84,0,0,0-.81,1.39,2.92,2.92,0,0,0,3.79,0A2.29,2.29,0,0,0,85.86,99.6Z"/><path class="cls-5" d="M94.61,114.56a.29.29,0,0,0-.26-.14,6.54,6.54,0,0,0-1.93,1,5,5,0,0,1-2.38.18.54.54,0,0,0-.46.81,2.83,2.83,0,0,0,3.36.78C93.82,116.84,95.3,115.63,94.61,114.56Z"/><path class="cls-5" d="M100.1,96.62c-.59.23-1.2,0-1.79.27-.21.08-.36.39-.15.56a4.51,4.51,0,0,0,1.09.51,4.42,4.42,0,0,1-1.66,2.36c-.32.23-2.35,1-2.16,1.52s.77.58,1.19.59a4.23,4.23,0,0,0,2.34-.8,5.27,5.27,0,0,0,2.35-4.09A1,1,0,0,0,100.1,96.62Z"/><path class="cls-5" d="M97.9,81.71c-.51-.34-1.44-.39-1.62.34a.29.29,0,0,0,.12.31c.29.2.54.29.64.66s-.22.82-.45,1.09c-.6.67-1.72.7-2.16,1.46a.22.22,0,0,0,0,.22c.45.75,1.58.6,2.28.23a3.79,3.79,0,0,0,1.87-2A1.84,1.84,0,0,0,97.9,81.71Z"/><path class="cls-5" d="M107.69,68.94a2.81,2.81,0,0,0-1.5.34.2.2,0,0,0,0,.32,4,4,0,0,0,.57.45,2.24,2.24,0,0,1-2.27.78.56.56,0,0,0-.43,1c1.64,1.11,3.92-.24,4.38-2A.75.75,0,0,0,107.69,68.94Z"/><path class="cls-5" d="M107.63,54.06a.24.24,0,0,0-.28,0,1,1,0,0,0-.36.71,3.56,3.56,0,0,1-.4,1.19A5.11,5.11,0,0,1,105,57.49a.12.12,0,0,0,0,.22,2.28,2.28,0,0,0,2.41-1C107.87,56.11,108.64,54.49,107.63,54.06Z"/><path class="cls-5" d="M119.39,61.22A.77.77,0,0,0,118,61c-.24.45-.32.92-.76,1.24a2.55,2.55,0,0,1-1.42.4.63.63,0,0,0-.31,1.16C117.11,64.89,119.68,63.07,119.39,61.22Z"/><path class="cls-5" d="M120.21,71.32A3.67,3.67,0,0,1,119,72a2.21,2.21,0,0,1-1.08,0,1.8,1.8,0,0,1,0-.19c0-.11-.09-.24-.17-.13l-.42.3a.5.5,0,0,0-.18.68,2.36,2.36,0,0,0,2.14,1,2.24,2.24,0,0,0,2.08-1.57C121.45,71.59,120.83,70.91,120.21,71.32Z"/><path class="cls-5" d="M110.51,82.1c-.53,0-.81.48-1.07.87a3.68,3.68,0,0,1-2.72,1.41.33.33,0,0,0-.23.55,2.51,2.51,0,0,0,2.7.51c.9-.33,2.07-1.28,2.07-2.35C111.26,82.65,111.05,82.1,110.51,82.1Z"/><path class="cls-5" d="M124.37,81.73a.44.44,0,0,0-.59.16,1.06,1.06,0,0,0-.1.3l-.05.07a1,1,0,0,0-.13.28,3.26,3.26,0,0,1-.41.73,3.63,3.63,0,0,1-1.41,1,.4.4,0,0,0-.08.62c.76.77,2.07.34,2.72-.36S125.34,82.39,124.37,81.73Z"/><path class="cls-5" d="M112.8,98.12c-.2.09-.32.08-.58.19a5.33,5.33,0,0,0-.86.64,3.72,3.72,0,0,1-2,.73c-.78,0-1,1.26-.19,1.42a4.5,4.5,0,0,0,2.78-.27,2.28,2.28,0,0,0,1.56-2.3A.48.48,0,0,0,112.8,98.12Z"/><path class="cls-5" d="M109.8,113.25c-.45,0-.71.34-1,.63a2.53,2.53,0,0,1-1.6.62c-.73.11-.66,1.08-.18,1.41a2.42,2.42,0,0,0,3.59-1.8A.86.86,0,0,0,109.8,113.25Z"/><path class="cls-5" d="M95.2,128.06a.32.32,0,0,0-.37-.16,3.54,3.54,0,0,0-.87.62c-.34.26-.75.5-1.11.73a11.11,11.11,0,0,1-1.2.59c-.3.15-.58.42-.86.54a.33.33,0,0,0,0,.57,2.6,2.6,0,0,0,1.29.49,3.37,3.37,0,0,0,1.73-.55C94.67,130.39,95.66,129.1,95.2,128.06Z"/><path class="cls-5" d="M110.63,127.37s-.14-.43-.12-.25c-.13-1.08-1.21-.22-1.5.17a3.09,3.09,0,0,1-2.13,1.2.67.67,0,0,0-.16,1.22,2.7,2.7,0,0,0,2.66-.21,3.54,3.54,0,0,0,1-1,1.59,1.59,0,0,0,.25-.75A2.31,2.31,0,0,0,110.63,127.37Z"/><path class="cls-5" d="M101.75,140.38a.44.44,0,0,0-.41-.11,1.14,1.14,0,0,0-.52.32l.12,0a.77.77,0,0,0-.34.19,3.92,3.92,0,0,1-.32.25,2.84,2.84,0,0,1-1.16.62c-.61.15-.68,1.2,0,1.3a2.76,2.76,0,0,0,2.15-.55C101.79,141.93,102.24,141,101.75,140.38Z"/><path class="cls-5" d="M95.17,153.53a.77.77,0,0,0-1-.27c-.4.23-.49.71-.83,1a3,3,0,0,1-1.09.41.54.54,0,0,0-.24.9,1.91,1.91,0,0,0,2.22.2C94.91,155.41,95.7,154.29,95.17,153.53Z"/><path class="cls-5" d="M89.57,168.06c-.27-.87-.36-1.79-.64-2.66-.11-.34-.72-.43-.78,0-.1.69-.1,1.4-.14,2.1a5.79,5.79,0,0,0-3.35.83.35.35,0,0,0,.07.56c1.09.67,2.83.31,4,.22A.83.83,0,0,0,89.57,168.06Z"/><path class="cls-5" d="M82.72,178.1a1.53,1.53,0,0,0-1.7.26A1.69,1.69,0,0,0,80.4,180a.8.8,0,0,0,1.32.35,8,8,0,0,0,.56-.62c.18-.2.4-.36.58-.57A.71.71,0,0,0,82.72,178.1Z"/><path class="cls-5" d="M76.73,191.71c-.25-.75-1.33-.3-1.26.4a.62.62,0,0,0,.61.61.61.61,0,0,0,.62-.61s0-.07,0-.11A.33.33,0,0,0,76.73,191.71Z"/><path class="cls-5" d="M90.19,182.45c-.64,0-.93.44-1.12,1-.09.27-.15.81.2.93a1.33,1.33,0,0,0,1.63-1.22A.72.72,0,0,0,90.19,182.45Z"/><path class="cls-5" d="M99.06,172.59a.63.63,0,0,0-.91-.37,1.59,1.59,0,0,0-.61.48,2.11,2.11,0,0,1-.47.52c-.4.3-.9.39-1.32.66a.5.5,0,0,0-.1.78,2,2,0,0,0,2.25,0C98.63,174.24,99.35,173.46,99.06,172.59Z"/><path class="cls-5" d="M106,161.59a2.69,2.69,0,0,0-1.74.86,11.48,11.48,0,0,0-1.39,1.57c-.33.47.28.91.71.71a12.28,12.28,0,0,0,1.65-1,2.63,2.63,0,0,0,1.19-1.55A.45.45,0,0,0,106,161.59Z"/><path class="cls-5" d="M113.45,149a.45.45,0,0,0-.75.2s-.09.43,0,.31a2.74,2.74,0,0,0-.29.46c-.21.38-.17.82-.46,1.18-.5.62-1.39.71-1.95,1.25a.24.24,0,0,0,0,.31c.73,1.33,2.48.61,3.32-.22a3.19,3.19,0,0,0,.89-1.85A2.18,2.18,0,0,0,113.45,149Z"/><path class="cls-5" d="M118.56,135.34a.36.36,0,0,0-.43,0,1.87,1.87,0,0,0-.61.73c-.13.32-.19.65-.35,1a2.41,2.41,0,0,1-.53.66l-.39.37s-.38.51-.19.29a.64.64,0,0,0,.45,1.08,2.59,2.59,0,0,0,2.31-1.44C119.37,137.22,119.66,135.85,118.56,135.34Z"/><path class="cls-5" d="M125.81,125.52a4.34,4.34,0,0,0-.64-1.77.36.36,0,0,0-.6,0,4.07,4.07,0,0,0-.53,1.37,7.34,7.34,0,0,0-1.43.88c-.27.22-1,1-.7,1.38s1,.35,1.35.23a8.17,8.17,0,0,0,2.11-1A1,1,0,0,0,125.81,125.52Z"/><path class="cls-5" d="M127.06,110.29a.6.6,0,0,0-1,0,2.62,2.62,0,0,0-.36.94,3.69,3.69,0,0,1-.59,1.15,3.51,3.51,0,0,1-2,1.25.66.66,0,0,0,.17,1.29,4,4,0,0,0,3-1.37C127,112.81,127.75,111.25,127.06,110.29Z"/><path class="cls-5" d="M128.39,96.49a.48.48,0,0,0-.87-.11A3.64,3.64,0,0,1,124.79,98a.27.27,0,0,0-.23.4,1.91,1.91,0,0,0,2.53.56A2.13,2.13,0,0,0,128.39,96.49Z"/><path class="cls-5" d="M142.86,84.87a.48.48,0,0,0-.55.07c-.5.62-.43,1.5-.94,2.14s-1.49.64-2.32.78l0,0a.65.65,0,0,0-.19,1.2c1.14.86,2.85.15,3.75-.75S144.09,85.54,142.86,84.87Z"/><path class="cls-5" d="M138.6,73.76a.32.32,0,0,0-.34,0c-.53.39-.54,1.14-1,1.6a1.42,1.42,0,0,1-1,.4c-.35,0-.68-.14-1-.11a.35.35,0,0,0-.33.44c.33,1.18,2.1,1,2.94.63S139.87,74.32,138.6,73.76Z"/><path class="cls-5" d="M133.15,65.38a2.47,2.47,0,0,0-.93.21,7.62,7.62,0,0,1-.94.24.17.17,0,0,0-.12.21,1.18,1.18,0,0,0,1.22.77c.55,0,1.2-.44,1.16-1A.4.4,0,0,0,133.15,65.38Z"/><path class="cls-5" d="M128.07,49.71a1.19,1.19,0,0,0-1.55,1.11.81.81,0,0,0,1,.77,1.16,1.16,0,0,0,.34-.12c-.21.11.28,0,0,0A.9.9,0,0,0,128.07,49.71Z"/><path class="cls-5" d="M134.52,57.36l-.1.06a.55.55,0,0,0,0,1l.1.06a.63.63,0,1,0,0-1.08Z"/><path class="cls-5" d="M109.2,44.21a2.84,2.84,0,0,0-1.84.49c-.29.15-.86.65-.66,1a1.16,1.16,0,0,0,1.07.46,2.81,2.81,0,0,0,1.83-.49A.9.9,0,0,0,109.2,44.21Z"/><path class="cls-5" d="M153.67,73.76a1.74,1.74,0,0,0-1.52.32.85.85,0,0,0,.43,1.58,1.79,1.79,0,0,0,1.45-.53A.83.83,0,0,0,153.67,73.76Z"/><path class="cls-5" d="M158.17,86.37a1.28,1.28,0,0,0-.58-.94.91.91,0,0,0-1.19.39,5.14,5.14,0,0,0-1.67.92c-.56.47-.07,1.31.55,1.34a5.3,5.3,0,0,0,2.43-.58A1,1,0,0,0,158.17,86.37Z"/><path class="cls-5" d="M168.76,84.51a6.25,6.25,0,0,0-1.15-.16,1.57,1.57,0,0,0-1,.26.47.47,0,0,0-.17.65,1.52,1.52,0,0,0,.79.69,5.69,5.69,0,0,0,1,.35,1,1,0,0,0,1.14-.65A.94.94,0,0,0,168.76,84.51Z"/><path class="cls-5" d="M160.13,97.67a7.35,7.35,0,0,0-1.24.58l-.07,0a1.09,1.09,0,0,0-1.48.06l-.32.4a1.1,1.1,0,0,0,.77,1.86c1.23.06,3-.56,3.34-1.93A.82.82,0,0,0,160.13,97.67Z"/><path class="cls-5" d="M143.24,99.22a2.27,2.27,0,0,0-2,.12,4.83,4.83,0,0,0-1.81.91c-.37.37-.25,1.21.34,1.29a4.91,4.91,0,0,0,2-.28c.61-.16,1.41-.39,1.69-1A.78.78,0,0,0,143.24,99.22Z"/><path class="cls-5" d="M143,112a.79.79,0,0,0-.71-.64c-.44,0-.58.44-.72.77a2.25,2.25,0,0,1-2,1.46.7.7,0,0,0-.35,1.29A2.6,2.6,0,0,0,143,112Z"/><path class="cls-5" d="M155.18,111.66c-.43,0-.94.28-.94.77s.43.37.58.44l0,0a.3.3,0,0,1,.07.32c-.09.39-.56.67-.88.86-.64.39-1.43.37-2,.84a.46.46,0,0,0,0,.66c1,1.15,3.1.06,4-.77C157.1,113.8,157.05,111.55,155.18,111.66Z"/><path class="cls-5" d="M169.67,111.27a.69.69,0,0,0-.61-.35,5.51,5.51,0,0,0-.7.06.45.45,0,0,0-.27.66,1.61,1.61,0,0,0,.22.23,1.22,1.22,0,0,1-.25.58c-.29.33-.71.25-1.05.49a.66.66,0,0,0-.13,1,1.32,1.32,0,0,0,1.27.27,2.26,2.26,0,0,0,1.07-.61A1.82,1.82,0,0,0,169.67,111.27Z"/><path class="cls-5" d="M172.6,95.56a.7.7,0,0,0-1,.6,5.77,5.77,0,0,1,0,1.31c-.12.5-.69.65-1,.91s-.39.71,0,.88C172.55,100.15,174.39,96.82,172.6,95.56Z"/><path class="cls-5" d="M181.36,93.66a.56.56,0,0,0-.86.11,1.58,1.58,0,0,0,0,1.66.94.94,0,0,0,.28.41.55.55,0,0,0,.84-.11A1.63,1.63,0,0,0,181.36,93.66Z"/><path class="cls-5" d="M181.63,109.51a3.53,3.53,0,0,0-.52-1.88.79.79,0,0,0-1.42.18,3.66,3.66,0,0,0,0,2,3.37,3.37,0,0,0,.3.93,5.22,5.22,0,0,0,.55.61.45.45,0,0,0,.69-.09,5.22,5.22,0,0,0,.39-.74A3.2,3.2,0,0,0,181.63,109.51Z"/><path class="cls-5" d="M178.69,123.79a.9.9,0,0,0-1.32-.53,2,2,0,0,0-.7,2.34c.11.4.8,1.48,1.34,1a2.32,2.32,0,0,0,.51-1.14A3.48,3.48,0,0,0,178.69,123.79Z"/><path class="cls-5" d="M174.21,138.73a.68.68,0,0,0-1.05.14c.06-.11-.2.25-.2.25a3.75,3.75,0,0,0-.17.47c-.14.32-.34.39-.57.64a.68.68,0,0,0,0,.94c.16.18.24.19.33.43s.73.32.69-.1a.42.42,0,0,1,0-.16C174.33,141.07,175.18,139.63,174.21,138.73Z"/><path class="cls-5" d="M163.43,136.61a.8.8,0,0,0-.08-.16,1.23,1.23,0,0,0-.15-.47.51.51,0,0,0-.78-.1,1.37,1.37,0,0,0-.27.42l-.12.13-.07.08a5.22,5.22,0,0,0-1.47.5c-.86.45-.38,1.62.45,1.68a5.66,5.66,0,0,0,2-.22,1.06,1.06,0,0,0,.77-1A1.56,1.56,0,0,0,163.43,136.61Z"/><path class="cls-5" d="M166.33,123.12c-.24-.19-.58,0-.67.27a11.18,11.18,0,0,1-.58,2.13c-.44.79-1.36.84-2.06,1.24a.43.43,0,0,0-.09.68C165.16,129.19,168.67,124.89,166.33,123.12Z"/><path class="cls-5" d="M150.31,127.66a.79.79,0,0,0-1.14.47c-.17.44.09,1-.22,1.39a1.3,1.3,0,0,1-1.36.26c-.67-.19-1.3.75-.71,1.22a2.43,2.43,0,0,0,3.25-.09C151,130.19,151.4,128.33,150.31,127.66Z"/><path class="cls-5" d="M137.51,124.76a.56.56,0,0,0-.76-.27c-.44.3-.44.87-.55,1.34a1.05,1.05,0,0,1-.65.79.84.84,0,0,1-.47,0,.45.45,0,0,0-.19,0,.63.63,0,0,0-.78.07l-.07.06a.7.7,0,0,0-.17.65.88.88,0,0,0,.71.63,2,2,0,0,0,2.31-.36A2.57,2.57,0,0,0,137.51,124.76Z"/><path class="cls-5" d="M135,139.16a.47.47,0,0,0-.58-.33,5.12,5.12,0,0,0-1.37.8,3.7,3.7,0,0,1-1.55.48c-.51,0-.83.77-.29,1a2.84,2.84,0,0,0,2.54,0A1.9,1.9,0,0,0,135,139.16Z"/><path class="cls-5" d="M127.23,150.68a3.68,3.68,0,0,0-1.84.49c-.43.15-1.44.16-1.41.83.09,1.58,3.79.78,3.63-.82A.52.52,0,0,0,127.23,150.68Z"/><path class="cls-5" d="M120.07,163a1.44,1.44,0,0,0-1.1-.33,6,6,0,0,0-1.53.17.59.59,0,0,0-.45.59,1,1,0,0,0,.11.52c.11.14.24.25.34.39a.33.33,0,0,0,.59-.29c.74,0,1.74,0,2.09-.63A.35.35,0,0,0,120.07,163Z"/><path class="cls-5" d="M110.48,172.55a1.41,1.41,0,0,0-1.17,0c-.28.15-.52.47-.28.77.4.49,1.29,0,1.56-.41A.3.3,0,0,0,110.48,172.55Z"/><path class="cls-5" d="M124.73,171.59a1.67,1.67,0,0,0-1.94.73c-.26.34.1.79.46.8a1.66,1.66,0,0,0,1.7-1A.5.5,0,0,0,124.73,171.59Z"/><path class="cls-5" d="M134,161.13a1.53,1.53,0,0,0-1.31.6c-.27.33-.55,1,0,1.28a1.48,1.48,0,0,0,1.89-1.12A.61.61,0,0,0,134,161.13Z"/><path class="cls-5" d="M140.73,151.17a2.17,2.17,0,0,0-2,2c0,.3.18.55.21.76s.49.28.61,0a4.15,4.15,0,0,0,.7-.75c.27-.31.65-.52.95-.81A.71.71,0,0,0,140.73,151.17Z"/><path class="cls-5" d="M146.82,138.84a1.58,1.58,0,0,0-.67.14,2.48,2.48,0,0,0-.74.63,2.63,2.63,0,0,0-.85,1.59.39.39,0,0,0,.4.4,2.37,2.37,0,0,0,1.4-.81,4.16,4.16,0,0,0,.65-.74,1.47,1.47,0,0,0,.19-.84A.38.38,0,0,0,146.82,138.84Z"/><path class="cls-5" d="M159.21,148.4c-.73-.75-1.89-.1-2.45.53a2.84,2.84,0,0,0-.64,1.18,2.37,2.37,0,0,0,.16,1.34.18.18,0,0,0,.35,0,2.78,2.78,0,0,1,1-1.41c.47-.41,1.18-.39,1.6-.87A.52.52,0,0,0,159.21,148.4Z"/><path class="cls-5" d="M150.3,157.94a3.2,3.2,0,0,0-.42-.1.65.65,0,0,0-.63,1.07.38.38,0,0,1,.11.25.36.36,0,0,0,.69,0,.45.45,0,0,1,.06-.14l.19-.05A.54.54,0,0,0,150.3,157.94Z"/><path class="cls-5" d="M168.89,148.29a1.68,1.68,0,0,0-.73,1.36.62.62,0,0,0,.77.58,1.67,1.67,0,0,0,1.13-1A.8.8,0,0,0,168.89,148.29Z"/><path class="cls-5" d="M158.81,158.56l-.12,0a1.83,1.83,0,0,0-1.9.45.8.8,0,0,0,.35,1.32,1.8,1.8,0,0,0,1.88-.54h0l.1-.08A.69.69,0,0,0,158.81,158.56Z"/><path class="cls-5" d="M140.55,167.38a1.45,1.45,0,0,0-1.9.52c-.23.4-.15,1.45.53,1.32.42-.08.72-.24,1.17-.31A.84.84,0,0,0,140.55,167.38Z"/><path class="cls-5" d="M133.46,173.66a1.53,1.53,0,0,0-.6.26c-.79.48.29,1.57.78.77a1.64,1.64,0,0,0,.26-.59A.36.36,0,0,0,133.46,173.66Z"/><path class="cls-5" d="M115.05,181.35c-.11-.4-.74-.37-1-.31-.56.1-1.14.26-1.35.84a.5.5,0,0,0,.23.57,1.51,1.51,0,0,0,1.47-.19C114.65,182.11,115.16,181.75,115.05,181.35Z"/><path class="cls-5" d="M104.17,181.54a2.19,2.19,0,0,0-1,.41.63.63,0,0,0,.48,1.14,2.32,2.32,0,0,0,1.07-.57C105.21,182.07,104.7,181.46,104.17,181.54Z"/><path class="cls-5" d="M98.59,188c-.5-.4-1.33-.19-1.9-.05a.44.44,0,0,0,.11.87c.59,0,1.44,0,1.83-.52A.24.24,0,0,0,98.59,188Z"/><path class="cls-5" d="M86.19,191a2.39,2.39,0,0,0-1.58.37.57.57,0,0,0,.43,1,2.47,2.47,0,0,0,1.39-.83A.39.39,0,0,0,86.19,191Z"/></g></g></svg>