<?xml version="1.0" encoding="utf-8"?>
<!-- Generator: Adobe Illustrator 23.0.6, SVG Export Plug-In . SVG Version: 6.00 Build 0)  -->
<svg version="1.1" id="Layer_1" xmlns="http://www.w3.org/2000/svg" xmlns:xlink="http://www.w3.org/1999/xlink" x="0px" y="0px"
	 viewBox="0 0 172.34 172.34" style="enable-background:new 0 0 172.34 172.34;" xml:space="preserve">
<style type="text/css">
	.st0{fill:none;}
	.st1{fill:#FFFFFF;}
</style>
<rect x="-100.7" y="-100.7" class="st0" width="373" height="373"/>
<path class="st1" d="M23.83,124.73c11.25,7.21,24.62,11.42,38.97,11.42c47.21,0,73.87-39.87,72.27-75.63
	c4.97-3.58,9.28-8.06,12.69-13.16c-4.56,2.02-9.46,3.39-14.6,4c5.25-3.14,9.28-8.12,11.18-14.07c-4.91,2.91-10.35,5.03-16.14,6.17
	c-4.64-4.94-11.25-8.03-18.56-8.03c-16.41,0-28.47,15.31-24.77,31.22C63.74,65.6,45,55.48,32.46,40.09
	c-6.66,11.43-3.46,26.38,7.87,33.95c-4.17-0.13-8.09-1.28-11.52-3.18c-0.27,11.78,8.17,22.8,20.39,25.25
	c-3.58,0.98-7.5,1.2-11.48,0.43c3.23,10.11,12.62,17.45,23.75,17.66C50.79,122.58,37.32,126.32,23.83,124.73z"/>
</svg>
