<?xml version="1.0" encoding="utf-8"?>
<!-- Generator: Adobe Illustrator 23.0.6, SVG Export Plug-In . SVG Version: 6.00 Build 0)  -->
<svg version="1.1" id="Layer_1" xmlns="http://www.w3.org/2000/svg" xmlns:xlink="http://www.w3.org/1999/xlink" x="0px" y="0px"
	 viewBox="0 0 172.34 172.34" style="enable-background:new 0 0 172.34 172.34;" xml:space="preserve">
<style type="text/css">
	.st0{fill:none;}
	.st1{fill:#A8CF4B;}
</style>
<rect x="-100.7" y="-100.7" class="st0" width="373" height="373"/>
<g>
	<path class="st1" d="M50.56,150.45c-3.93,0-7.86,0.03-11.79-0.01c-1.86-0.02-2.95-1.17-2.78-2.9c0.77-7.75,1.44-15.51,2.39-23.24
		c0.79-6.47,2.48-12.74,5.65-18.51c2.92-5.32,6.99-9.67,11.62-13.51c7.8-6.47,16.78-8.94,26.78-7.52
		c5.73,0.81,11.18,2.58,16.39,5.13c6.27,3.07,11.7,7.24,16.53,12.22c4.91,5.06,8.83,10.82,12.04,17.11
		c4.31,8.46,7.15,17.34,8.22,26.78c0.16,1.44-0.43,1.97-1.78,2.05c-7.38,0.43-14.76,0.98-22.14,1.31c-7.9,0.35-15.81,0.63-23.71,0.7
		c-12.47,0.11-24.94,0.03-37.4,0.03C50.56,150.2,50.56,150.33,50.56,150.45z M132.67,141.31c-3.39-14.99-10.17-28.18-21.63-38.57
		c-8.73-7.91-19.02-12.72-30.92-13.95c-8.88-0.91-16.26,2.01-22.4,8.19c-2.99,3.01-5.84,6.22-8.3,9.66
		c-3.19,4.48-4.55,9.81-5.29,15.19c-0.99,7.21-1.62,14.46-2.42,21.69c-0.17,1.53,0.62,1.84,1.93,1.82
		c9.16-0.14,18.33-0.26,27.5-0.35c11.05-0.12,22.09-0.26,33.14-0.28c6.54-0.01,13.09,0.18,19.63,0.33c1.81,0.04,3.62,0.27,5.44,0.42
		C133.48,145.38,133.58,145.35,132.67,141.31z"/>
	<path class="st1" d="M112.66,52.8c-1.43,8.26-5.58,14.76-12.83,19.06c-3.75,2.22-7.75,4.09-12.16,4.46
		c-2.35,0.2-4.79-0.05-7.12-0.48c-13.92-2.61-24.89-13.96-22.97-30.05c1.81-15.22,15.2-26.31,31.08-24.45
		c14.29,1.68,24.38,13.77,24.22,27.37C112.81,50.08,112.89,51.47,112.66,52.8z M74.07,71.09c0.93,0.49,1.78,0.89,2.85,0.15
		c0.42-0.29,1.2-0.17,1.79-0.09c7.96,1.16,15.39-0.07,21.75-5.24c6.11-4.98,8.69-11.64,7.8-19.41c-0.98-8.54-5.45-14.93-13.16-18.72
		c-8.4-4.13-17.83-3.21-25.14,2.94c-5.88,4.95-8.78,11.42-8.82,21.52C61.54,59.1,65.39,66.54,74.07,71.09z"/>
</g>
</svg>
