<?xml version="1.0" encoding="utf-8"?>
<!-- Generator: Adobe Illustrator 23.0.6, SVG Export Plug-In . SVG Version: 6.00 Build 0)  -->
<svg version="1.1" id="Layer_1" xmlns="http://www.w3.org/2000/svg" xmlns:xlink="http://www.w3.org/1999/xlink" x="0px" y="0px"
	 viewBox="0 0 172.34 172.34" style="enable-background:new 0 0 172.34 172.34;" xml:space="preserve">
<style type="text/css">
	.st0{fill:none;}
	.st1{fill:#A8CF4B;}
</style>
<rect x="-100.7" y="-100.7" class="st0" width="373" height="373"/>
<g>
	<g>
		<path class="st1" d="M134.36,98.55c0.07-4.74-0.29-8.46-5.38-9.57c0-0.81,0.02-1.65,0.04-2.49c0.11-4.82,0.23-9.81-2.72-12.89
			l-0.15-0.1l0.2-0.1c0.07-1.12,0.07-2.21,0.07-3.3c0.01-1.44,0.01-2.93,0.17-4.43c0.23-2.22,0.33-5.06-0.89-7.4
			c-1.94-3.71-6.28-4.02-10.57-4.02l-2.22,0.01c-2.24-3.57-4.49-7.13-6.78-10.67c-0.26-0.4-0.53-0.9-0.82-1.44
			c-0.99-1.81-2.22-4.07-3.93-4.55c-0.22-0.06-0.45-0.09-0.67-0.09c-0.99,0-1.91,0.58-2.72,1.09c-0.22,0.13-0.43,0.27-0.63,0.38
			c-2.1,1.21-4.2,2.44-6.29,3.67l-0.92,0.54c-0.12-0.22-0.25-0.46-0.39-0.71c-1.14-2.09-2.7-4.96-4.92-4.99
			c-1.28,0-2.54,0.87-3.65,1.63c-0.37,0.26-0.73,0.5-1.06,0.7c-2.69,1.59-5.38,3.18-8.06,4.78c-5.43,3.24-10.85,6.5-16.14,9.75
			c-0.08-0.02-0.17-0.05-0.29-0.05l-0.57,0c-0.69,0-1.41-0.02-2.15-0.03c-0.77-0.02-1.56-0.03-2.34-0.03
			c-3.86,0-7.79,0.39-10.48,3.24c-1.53,1.62-2.5,4.19-2.53,6.68c-0.55,5.38-0.3,10.93-0.05,16.3c0.09,1.99,0.18,3.98,0.23,5.95
			c0.09,3.64,0.02,7.34-0.06,10.92c-0.18,8.6-0.36,17.49,1.82,26.12c1.44,5.69,2.85,7.8,8.32,9.1c4.15,0.99,8.26,1.12,11.73,1.12
			c1.38,0,2.77-0.02,4.16-0.05l0.27,0c1.46-0.03,2.93-0.04,4.39-0.04c4.98,0,10.05,0.13,14.95,0.25c4.9,0.12,9.97,0.25,14.96,0.25
			c3.59,0,6.81-0.07,9.85-0.2c0.86-0.04,1.73-0.06,2.62-0.08c5.35-0.12,10.88-0.25,14.82-4.19c2.81-2.81,2.71-7.77,2.62-12.14
			c-0.03-1.53-0.06-2.98,0.03-4.27c0.19,0,0.4,0.01,0.6,0.02c0.26,0.01,0.52,0.02,0.78,0.02c0.63,0,1.44-0.06,2.1-0.52
			c2.71-1.88,2.67-8.98,2.65-12.79C134.36,99.42,134.36,98.94,134.36,98.55z M90.66,132.02c-3.7-0.03-7.46-0.16-11.1-0.27
			c-4.19-0.13-8.52-0.27-12.78-0.28h-0.21c-1.22,0-2.44,0.02-3.65,0.04c-1.2,0.02-2.4,0.04-3.59,0.04c-3.25,0-7.09-0.12-10.94-1.04
			c-2.68-0.64-4.49-2.02-5.66-4.33c0.36,0.09,0.72,0.14,1.1,0.15c0.67,0,1.02-0.53,1.02-1.05c0-0.53-0.35-1.08-1.03-1.08
			c-0.63-0.01-1.14-0.2-1.59-0.6c-0.16-0.14-0.35-0.23-0.56-0.26c-0.25-0.9-0.45-1.84-0.66-2.81c-0.84-3.99-1.3-8.18-1.4-12.82
			c-0.07-3.09,0.05-6.23,0.17-9.26c0.13-3.28,0.26-6.67,0.15-10.02c-0.06-2.05-0.17-4.11-0.27-6.19c-0.09-1.83-0.18-3.67-0.25-5.51
			c0.15,0.09,0.3,0.18,0.46,0.26c0.16,0.08,0.32,0.12,0.49,0.12c0.5,0,0.97-0.39,1.09-0.9c0.1-0.45-0.1-0.86-0.53-1.07
			c-0.57-0.28-1.12-0.59-1.59-0.81c-0.04-1.93-0.04-3.57,0.01-5.1c1.55,1.54,4.31,2.32,8.21,2.32c0.5,0,0.97-0.01,1.41-0.03
			c3.95-0.16,7.23-0.23,10.33-0.23c3.41,0,6.54,0.09,9.57,0.28c2.66,0.17,5.52,0.25,8.77,0.25c3.47,0,7-0.09,10.41-0.18
			c3.41-0.09,6.94-0.18,10.4-0.18c1.34,0,2.69,0.01,4.03,0.05c3.78,0.09,7.11,0.23,10.18,0.44c0.57,0.04,1.17,0.07,1.78,0.09
			c3.33,0.15,7.11,0.33,9.64,2.37c3.26,2.63,3.04,7.7,2.85,12.18c-0.03,0.8-0.07,1.58-0.08,2.33l-0.8-0.01
			c-2.14,0-4.33,0.11-6.44,0.21c-1.72,0.08-3.44,0.17-5.15,0.2c-3.86,0.07-6.91,0.12-9.61,3.36c-2.78,3.35-4.06,8.3-3.21,12.33
			c0.62,2.91,2.29,5.12,4.84,6.38c3.72,1.84,7.99,1.99,12.05,1.99l1.18,0l1.68-0.02v0.08c0,0.68,0.54,1.04,1.07,1.04
			c0.53,0,1.07-0.36,1.07-1.04v-0.12l2.57-0.04c-0.17,1.78-0.23,3.59-0.28,5.33c-0.05,1.62-0.11,3.3-0.25,4.95
			c-0.5,5.81-4.55,7.33-10.47,7.82c-5.61,0.47-11.79,0.69-19.45,0.69C93.98,132.05,92.32,132.04,90.66,132.02z M83.9,40.34
			c1.94,0,3.2,2.03,4.31,3.83l0.07,0.11c-11.3,6.68-22.65,13.69-33.63,20.48l-0.1,0.11c-2.34-0.07-4.69-0.16-7.03-0.28
			c-0.35-0.02-2.03-0.11-3.63-0.4c8.09-4.98,15.27-9.35,21.94-13.36c3.89-2.34,7.79-4.67,11.7-6.98c0.51-0.3,1.09-0.72,1.71-1.16
			c1.35-0.97,2.88-2.06,4.1-2.29C83.54,40.36,83.72,40.34,83.9,40.34z M119.65,61.98c0.02,0.2,0.07,0.4,0.12,0.6
			c0.04,0.18,0.09,0.37,0.11,0.56c0.07,0.56,0.09,1.17,0.06,1.82c-0.06-0.01-0.13-0.01-0.18-0.01c-0.09,0-0.17,0.01-0.23,0.04
			c-0.4-0.66-1.98-3.21-1.98-3.21C118.41,61.79,119.09,61.85,119.65,61.98z M124.35,66.13c-0.11,0.83-0.22,1.69-0.24,2.55
			c-0.02,0.74,0.02,1.47,0.06,2.19c0.02,0.31,0.03,0.63,0.05,0.94c-0.53-0.3-1.12-0.57-1.68-0.77c0.01-0.32,0.05-0.7,0.09-1.12
			c0.14-1.43,0.31-3.2-0.61-4.18c0.11-1.03,0.1-1.98-0.03-3.03c-0.1-0.78-0.23-1.86-0.88-2.44c-0.55-0.49-1.41-0.54-2.1-0.58
			l-0.24-0.02c-0.6-0.04-1.2-0.06-1.8-0.06c-0.27,0-0.55,0-0.66,0.1l-2.05-3.33c4.75,0.04,9.99,0.22,10.35,6.27
			C124.64,63.82,124.49,64.99,124.35,66.13z M73.97,65.12c2.28-1.22,4.88-2.63,7.38-4.13c0.9-0.54,1.78-1.1,2.66-1.66
			c0.74-0.47,1.47-0.94,2.22-1.4c0.38-0.23,0.66-0.42,0.87-0.56c0.38-0.25,0.52-0.34,0.65-0.34c0.12,0,0.3,0.07,0.58,0.18l0.93,0.34
			c2.52,0.89,4.34,1.53,6.24,1.53c1.4,0,2.82-0.36,4.46-1.14c1.52,2.53,3.36,4.8,5.28,7.08l-4.14-0.01c-4.68,0-9.36,0.02-14.04,0.05
			c-4.31,0.03-8.61,0.05-12.92,0.05H73.97z M48.95,66.78c4.51,0.21,9.3,0.35,15.1,0.42c3.35,0.04,6.71,0.06,10.06,0.06
			c4.76,0,9.51-0.03,14.26-0.06l6.61-0.04c2.66-0.01,5.32-0.02,7.99-0.02c2.45,0,4.91,0.01,7.36,0.03c2.4,0.02,4.81,0.06,7.21,0.12
			c2.84,0.07,2.91,0.77,2.86,3.17c-3.55-0.8-7.46-0.87-11.24-0.93c-1.14-0.02-2.26-0.04-3.34-0.07c-3.72-0.13-7.04-0.2-10.17-0.2
			c-1.59,0-3.18,0.02-4.76,0.05c-1.9,0.04-3.8,0.06-5.7,0.06c-3.99,0-8.05-0.08-11.97-0.16c-3.92-0.08-7.97-0.16-11.96-0.16
			c-1.2,0-2.39,0.01-3.59,0.02c-1.14,0.02-2.48,0.14-3.9,0.27c-1.78,0.16-3.62,0.33-5.43,0.33c-2.7,0-4.71-0.4-6.13-1.22
			c-1.18-0.68-1.97-1.61-2.34-2.75c1.73,0.97,4.22,1.06,6.65,1.06l0.98,0C48.04,66.76,48.52,66.76,48.95,66.78z M125.64,111.15
			c-0.01,0-0.02,0-0.03,0c-0.88,0.02-1.87,0.07-2.93,0.12c-1.55,0.08-3.31,0.17-5.07,0.17c-4.7,0-11.19-0.57-13.38-5.51
			c-1.02-2.3-0.98-4.8,0.12-7.89c1.55-4.34,4.26-6.43,8.52-6.58c1.47-0.05,2.96-0.13,4.46-0.2c2.67-0.13,5.44-0.27,8.12-0.27
			c0.99,0,1.98,0.02,2.93,0.06c4.66,1.05,4.11,7.22,3.74,11.3l-0.08,0.96l-0.05,0.73c-0.17,2.42-0.42,6.08-2.84,7.03
			c-0.29,0.12-0.71,0.17-1.28,0.17c-0.4,0-0.81-0.03-1.2-0.05C126.33,111.17,126.01,111.15,125.64,111.15z M99.78,39.79l0.03,0.17
			c2.27,0.1,4.63,4.36,6.19,7.18c0.4,0.73,0.76,1.36,1.04,1.81c3.16,4.96,6.42,10.18,9.94,15.96c-0.4,0.02-0.79,0.05-1.16,0.07
			c-0.65,0.05-1.24,0.09-1.79,0.09c-0.01,0-0.01,0-0.02,0c-1.35-0.02-2.7-0.03-4.05-0.03l-1.91,0.08l-0.18,0.03l0.08-0.21
			l-0.71-0.84c-2.22-2.62-4.32-5.1-5.97-8.08c-0.18-0.32-0.53-0.52-0.92-0.52c-0.19,0-0.37,0.05-0.53,0.13
			c-1.8,0.98-3.64,1.49-5.32,1.49c-2.21,0-4.07-0.86-5.53-2.57c-0.17-0.2-0.46-0.32-0.78-0.32c-0.2,0-0.39,0.05-0.54,0.15
			c-5.08,3.45-10.71,6.77-17.72,10.45c-0.15,0.08-0.27,0.18-0.22,0.24l-0.98,0c-2.85-0.01-5.71-0.02-8.56-0.08l-1.79-0.05
			c11.46-7.06,22.13-13.52,32.6-19.75l4.45-2.64c0.32-0.19,0.75-0.5,1.22-0.85c1.01-0.74,2.4-1.76,3.11-1.76L99.78,39.79
			C99.78,39.79,99.78,39.79,99.78,39.79z M45.23,56.94c1.8-0.5,3.78-0.56,5.29-0.56c0.66,0,1.32,0.01,1.98,0.03l-3.3,2.01
			l-1.29,0.82c-1.17,0.03-4.78,0.49-7.26,1.46C41.72,58.86,43.44,57.44,45.23,56.94z M40.93,62.64c0.12-0.29,0.69-0.79,3.13-1.07
			l-2.84,1.74C40.84,63.02,40.87,62.79,40.93,62.64z"/>
		<path class="st1" d="M115.31,95.2c-0.13-0.1-0.27-0.16-0.41-0.18c-0.09-0.03-0.18-0.05-0.32-0.05c-0.03,0-0.07,0-0.12,0
			c-0.29-0.04-0.59-0.05-0.88-0.05c-3.15,0-5.86,1.91-6.75,4.75c-1.13,3.59,0.42,6.93,3.76,8.11c0.78,0.28,1.57,0.42,2.34,0.42
			c2.71,0,4.98-1.7,6.09-4.55c0.71-1.84,0.74-3.6,0.07-5.1C118.42,97.05,117.1,95.88,115.31,95.2z M112.93,106.07
			c-0.56,0-1.15-0.11-1.75-0.33c-1.94-0.7-2.9-2.32-2.54-4.32c0.38-2.17,2.32-4.41,4.91-4.41c0.26,0,0.53,0.02,0.77,0.06
			c1.41,0.47,2.4,1.32,2.85,2.46c0.47,1.18,0.33,2.6-0.41,4C115.89,105.17,114.53,106.07,112.93,106.07z"/>
		<path class="st1" d="M49.98,76.08c-0.02-0.47-0.32-0.97-1.04-0.97c0,0-3.35,0.21-3.35,0.21c-0.69,0.04-1.04,0.61-1.02,1.16
			c0.02,0.47,0.32,0.98,0.97,0.98l3.43-0.21C49.65,77.19,49.99,76.62,49.98,76.08z"/>
		<path class="st1" d="M59.56,75.9c-0.02-0.55-0.4-0.93-1.03-0.93c0,0-3.95,0.35-3.95,0.35c-0.69,0.06-1.04,0.66-1.01,1.2
			c0.02,0.55,0.41,0.94,0.94,0.94l4.05-0.36C59.24,77.04,59.59,76.44,59.56,75.9z"/>
		<path class="st1" d="M67.85,76.42c0.01-0.53-0.35-1.08-1.03-1.1c-0.34-0.01-0.67-0.01-1.01-0.01c-0.52,0-1.05,0.01-1.57,0.03
			c-0.69,0.02-1.04,0.58-1.03,1.12c0.01,0.49,0.32,1.01,1,1.01l0.05,0c0.52-0.02,1.04-0.03,1.56-0.03c0.33,0,1.03,0.01,1.03,0.01
			C67.49,77.45,67.84,76.93,67.85,76.42z"/>
		<path class="st1" d="M77.56,76.29c-0.01-0.48-0.32-0.99-1.04-0.99c0,0,0,0,0,0c-1.03,0.05-2.07,0.08-3.1,0.08l-0.24,0
			c-0.68,0-1.03,0.53-1.03,1.06c0,0.53,0.35,1.07,1.04,1.07h0.24c1.04,0,2.08-0.03,3.12-0.08C77.23,77.4,77.58,76.83,77.56,76.29z"
			/>
		<path class="st1" d="M86.88,76.66c0.03-0.54-0.32-1.14-1.01-1.2c-1.08-0.1-2.17-0.15-3.25-0.15l-0.31,0
			c-0.68,0.01-1.04,0.55-1.03,1.08c0,0.52,0.36,1.05,1.04,1.05l0.31,0c1.07,0,2.15,0.05,3.22,0.15l0.11,0.01
			C86.57,77.59,86.86,77.13,86.88,76.66z"/>
		<path class="st1" d="M95.21,77.51l0.05,0c0.67,0,0.99-0.53,0.99-1.01c0.01-0.54-0.34-1.1-1.03-1.12
			c-0.34-0.01-0.68-0.04-1.01-0.08c-0.43-0.04-0.86-0.08-1.29-0.08c-0.43,0-0.81,0.04-1.17,0.13c-0.53,0.13-0.83,0.56-0.76,1.1
			c0.06,0.49,0.44,0.99,1.05,0.99c0.09,0,0.18-0.01,0.27-0.03c0.23-0.05,0.48-0.08,0.76-0.08c0.38,0,0.77,0.05,1.16,0.09
			C94.56,77.46,94.89,77.5,95.21,77.51z"/>
		<path class="st1" d="M100.56,77.24c0.61,0.02,1.22,0.03,1.84,0.03c0.94,0,1.88-0.02,2.82-0.06c0.69-0.03,1.04-0.59,1.03-1.13
			c-0.01-0.48-0.32-1-1.04-1h0c-0.94,0.04-1.87,0.06-2.81,0.06c-0.61,0-1.22-0.01-1.86-0.03c-0.68,0-1,0.53-1.01,1.03
			C99.52,76.67,99.88,77.22,100.56,77.24z"/>
		<path class="st1" d="M111.02,77.22L111.02,77.22c0.35-0.01,0.7-0.02,1.06-0.02c0.83,0,1.68,0.04,2.52,0.12l0.12,0.01
			c0.61,0,0.9-0.47,0.93-0.93c0.03-0.54-0.32-1.14-1.01-1.21c-0.85-0.08-1.71-0.13-2.56-0.13c-0.36,0-0.71,0.01-1.07,0.02
			c-0.69,0.03-1.04,0.59-1.03,1.13C109.99,76.7,110.3,77.22,111.02,77.22z"/>
		<path class="st1" d="M120.21,80.28c0.19,0.34,0.5,0.53,0.86,0.53c0.39,0,0.78-0.22,0.99-0.57c0.19-0.32,0.19-0.69,0-1.03
			c-0.49-0.9-1.12-1.74-1.85-2.49c-0.2-0.21-0.45-0.32-0.72-0.32c-0.42,0-0.84,0.29-1.01,0.71c-0.16,0.39-0.08,0.81,0.22,1.12
			C119.29,78.83,119.78,79.51,120.21,80.28z"/>
		<path class="st1" d="M121.31,83.71c-0.3,0-0.58,0.11-0.77,0.31c-0.18,0.19-0.27,0.44-0.26,0.73l0.13,3.02
			c0.03,0.67,0.58,1.03,1.1,1.03c0.3,0,0.58-0.11,0.77-0.31c0.18-0.19,0.27-0.44,0.26-0.73l-0.13-3.02
			C122.39,84.06,121.84,83.71,121.31,83.71z"/>
		<path class="st1" d="M52.24,125.59l-2.57-0.13c-0.65,0-0.96,0.51-0.98,0.99c-0.01,0.54,0.33,1.11,1.03,1.15l2.62,0.14
			c0.65,0,0.97-0.51,0.98-0.99C53.33,126.2,52.98,125.63,52.24,125.59z"/>
		<path class="st1" d="M62.03,125.51l-4.68-0.16c-0.67,0-0.99,0.53-1,1.02c-0.01,0.54,0.34,1.09,1.03,1.12l4.68,0.16
			c0.67,0,0.99-0.53,1-1.02C63.07,126.09,62.72,125.53,62.03,125.51z"/>
		<path class="st1" d="M71.9,125.35c-0.01,0-0.02,0-0.02,0c-0.71,0.08-1.44,0.13-2.15,0.13c-0.59,0-1.17-0.03-1.88-0.09
			c-0.61,0-0.9,0.47-0.93,0.93c-0.03,0.54,0.32,1.14,1.01,1.21c0.6,0.06,1.2,0.09,1.8,0.09c0,0,0,0,0,0c0.73,0,1.46-0.04,2.19-0.13
			c0.69-0.08,1.03-0.7,1-1.24C72.89,125.71,72.53,125.35,71.9,125.35z"/>
		<path class="st1" d="M80.71,125.23l-2.9,0.11c-0.69,0.03-1.04,0.59-1.03,1.13c0.01,0.49,0.32,1.01,0.99,1.01l2.95-0.11
			c0.69-0.03,1.04-0.59,1.03-1.13C81.74,125.75,81.43,125.23,80.71,125.23z"/>
		<path class="st1" d="M90.47,125.57l-3.25,0c-0.68,0-1.04,0.54-1.04,1.07c0,0.53,0.36,1.07,1.04,1.07l3.25,0
			c0.68,0,1.03-0.54,1.03-1.07C91.51,126.11,91.15,125.57,90.47,125.57z"/>
		<path class="st1" d="M99.62,125.35c-0.08,0-0.17,0.01-0.26,0.03c-0.9,0.2-1.85,0.31-2.82,0.31c-0.51,0-1.02-0.03-1.65-0.09
			c-0.6,0-0.89,0.46-0.91,0.91c-0.03,0.54,0.31,1.15,1.01,1.23c0.52,0.06,1.04,0.08,1.56,0.08c1.12,0,2.26-0.13,3.37-0.38
			c0.53-0.12,0.83-0.54,0.77-1.08C100.63,125.87,100.24,125.35,99.62,125.35z"/>
		<path class="st1" d="M107.98,125.5c0,0-0.01,0-0.01,0c-0.22,0.02-0.43,0.03-0.65,0.03c-0.51,0-1.01-0.04-1.52-0.09
			c-0.52-0.04-1.03-0.09-1.55-0.09c-0.22,0-0.45,0.01-0.68,0.03c-0.69,0.06-1.04,0.66-1.01,1.2c0.02,0.46,0.32,0.93,1.03,0.93
			c0,0,0.01,0,0.01,0c0.22-0.02,0.43-0.03,0.64-0.03c0.51,0,1.01,0.04,1.52,0.09c0.52,0.04,1.03,0.09,1.55,0.09
			c0.23,0,0.45-0.01,0.68-0.03c0.69-0.06,1.04-0.66,1.01-1.2C108.99,125.97,108.7,125.5,107.98,125.5z"/>
		<path class="st1" d="M115.39,127.14c0,0,0.01,0,0.01,0l0.18,0.17c0.67,0,0.99-0.53,1-1.02c0.01-0.54-0.34-1.09-1.18-1.12
			c-0.57,0-1.12,0.1-1.66,0.2c-0.52,0.1-1.06,0.19-1.6,0.19v0.17c0,0-0.01,0-0.01,0l-0.18-0.17c-0.67,0-0.99,0.53-1,1.02
			c-0.01,0.54,0.34,1.09,1.03,1.12l0.15,0c0.57,0,1.13-0.1,1.66-0.2c0.52-0.1,1.06-0.19,1.6-0.19V127.14z"/>
		<path class="st1" d="M118.83,126.7l0.09,0c1.54-0.12,2.8-0.89,3.56-2.19c0.2-0.34,0.21-0.7,0.02-1.02c-0.2-0.34-0.6-0.58-1-0.58
			c-0.36,0-0.67,0.18-0.87,0.52c-0.4,0.67-1.01,1.07-1.74,1.13c-0.69,0.05-1.04,0.63-1.02,1.18
			C117.9,126.31,118.29,126.7,118.83,126.7z"/>
		<path class="st1" d="M121.8,120.59c0.52,0,1.09-0.35,1.16-1.01l0.27-2.43c0.03-0.29-0.04-0.54-0.21-0.73
			c-0.18-0.2-0.45-0.31-0.76-0.31c-0.52,0-1.09,0.35-1.16,1.01l-0.27,2.43c-0.03,0.29,0.04,0.54,0.21,0.73
			C121.22,120.48,121.5,120.59,121.8,120.59z"/>
		<path class="st1" d="M128.42,95.54c0.34,0.65,0.42,1.45,0.5,2.22c0.04,0.39,0.08,0.78,0.15,1.14c0.09,0.48,0.45,0.78,0.93,0.78
			c0.35,0,0.7-0.16,0.91-0.43c0.2-0.25,0.28-0.57,0.22-0.9c-0.07-0.38-0.12-0.76-0.17-1.15c-0.15-1.2-0.31-2.44-1.17-3.43
			c-1.11-1.27-2.73-1.43-4.03-1.43c-0.28,0-0.56,0.01-0.84,0.02c-0.69,0.03-1.04,0.6-1.03,1.14c0.01,0.48,0.32,1,0.98,1l0.19-0.01
			c0.27-0.01,0.56-0.03,0.86-0.03C126.83,94.47,127.93,94.59,128.42,95.54z"/>
		<path class="st1" d="M129.67,101.02c-0.53,0-1.07,0.36-1.07,1.13c0,0.68,0.54,1.04,1.07,1.04c0.28,0,0.53-0.09,0.73-0.26
			c0.22-0.19,0.34-0.46,0.34-0.87C130.74,101.38,130.2,101.02,129.67,101.02z"/>
		<path class="st1" d="M91.69,49.67c-0.21-0.32-0.52-0.49-0.88-0.49c-0.42,0-0.82,0.24-1.02,0.59c-0.17,0.31-0.15,0.67,0.06,0.99
			c0.85,1.3,1.68,2.62,2.5,3.94c0.2,0.32,0.51,0.5,0.87,0.5c0.41,0,0.81-0.23,1.01-0.58c0.18-0.32,0.16-0.67-0.04-1.01
			C93.37,52.3,92.54,50.98,91.69,49.67z"/>
		<path class="st1" d="M95.45,46.02c-0.42,0-0.84,0.13-1.24,0.4l0.1,0.15c0,0,0,0,0,0l-0.3,0c-1.2,1.04-1.26,2.46-0.15,4.12
			c0.62,0.93,1.6,2.17,2.91,2.17c0.36,0,0.73-0.1,1.09-0.29c0.62-0.33,1.02-0.8,1.18-1.41c0.23-0.83,0-1.88-0.61-2.89
			C98.02,47.59,96.92,46.02,95.45,46.02z M95.4,49.1c-0.29-0.59-0.29-0.62-0.05-0.85c0.05-0.03,0.1-0.04,0.16-0.04
			c0.4,0,0.85,0.75,1.12,1.19c0.16,0.27,0.33,0.55,0.39,0.84c0.03,0.17,0.02,0.3-0.21,0.44c-0.1,0-0.22-0.05-0.33-0.13
			C96.05,50.23,95.63,49.57,95.4,49.1z"/>
		<path class="st1" d="M98.9,43.8c-1.2,1.04-1.26,2.46-0.15,4.11c0.62,0.93,1.6,2.17,2.91,2.17c0.36,0,0.73-0.1,1.09-0.29
			c0.62-0.33,1.02-0.8,1.18-1.41c0.23-0.83,0-1.88-0.61-2.89c-0.41-0.67-1.52-2.24-2.98-2.24c-0.42,0-0.84,0.13-1.24,0.4L98.9,43.8z
			 M100.23,45.46c0.05-0.03,0.1-0.04,0.15-0.04c0.4,0,0.86,0.75,1.12,1.18c0.17,0.27,0.34,0.55,0.39,0.84
			c0.03,0.17,0.01,0.3-0.21,0.44c-0.1,0-0.21-0.05-0.33-0.13c-0.43-0.31-0.85-0.98-1.08-1.45C99.99,45.72,99.99,45.7,100.23,45.46z"
			/>
	</g>
</g>
</svg>
