<?xml version="1.0" encoding="utf-8"?>
<!-- Generator: Adobe Illustrator 16.0.0, SVG Export Plug-In . SVG Version: 6.00 Build 0)  -->
<!DOCTYPE svg PUBLIC "-//W3C//DTD SVG 1.1//EN" "http://www.w3.org/Graphics/SVG/1.1/DTD/svg11.dtd">
<svg version="1.1" id="Layer_1" xmlns="http://www.w3.org/2000/svg" xmlns:xlink="http://www.w3.org/1999/xlink" x="0px" y="0px"
	 width="150px" height="150px" viewBox="0 0 150 150" enable-background="new 0 0 150 150" xml:space="preserve">
<rect x="-87.646" y="-87.646" display="none" fill="none" width="324.648" height="324.648"/>
<g>
	<g>
		<path fill="#FFFFFF" d="M116.943,85.775c0.061-4.126-0.252-7.363-4.683-8.33c0-0.705,0.017-1.436,0.034-2.167
			c0.096-4.195,0.201-8.538-2.367-11.219l-0.131-0.087l0.175-0.087c0.062-0.975,0.062-1.923,0.062-2.872
			c0.008-1.253,0.008-2.55,0.147-3.856c0.2-1.932,0.287-4.404-0.774-6.44c-1.689-3.229-5.467-3.499-9.2-3.499l-1.933,0.009
			c-1.949-3.107-3.908-6.206-5.9-9.287c-0.227-0.348-0.462-0.783-0.715-1.253c-0.861-1.575-1.932-3.542-3.42-3.96
			c-0.191-0.052-0.392-0.079-0.583-0.079c-0.862,0-1.663,0.505-2.368,0.949c-0.191,0.113-0.373,0.235-0.548,0.331
			c-1.827,1.053-3.655,2.124-5.475,3.194l-0.801,0.47c-0.104-0.191-0.218-0.4-0.339-0.618c-0.992-1.819-2.351-4.317-4.283-4.343
			c-1.114,0-2.21,0.757-3.177,1.418c-0.322,0.227-0.635,0.436-0.922,0.609c-2.341,1.384-4.683,2.768-7.016,4.161
			c-4.726,2.82-9.443,5.657-14.048,8.486c-0.069-0.018-0.148-0.043-0.252-0.043h-0.496c-0.601,0-1.228-0.018-1.872-0.026
			c-0.67-0.018-1.358-0.026-2.037-0.026c-3.36,0-6.78,0.339-9.122,2.82c-1.332,1.41-2.176,3.647-2.202,5.814
			c-0.479,4.683-0.261,9.513-0.043,14.187c0.079,1.732,0.157,3.464,0.2,5.179c0.079,3.168,0.018,6.389-0.052,9.504
			c-0.157,7.486-0.313,15.223,1.584,22.734c1.253,4.953,2.481,6.789,7.242,7.92c3.612,0.862,7.189,0.976,10.209,0.976
			c1.201,0,2.411-0.018,3.621-0.044h0.235c1.271-0.025,2.55-0.035,3.821-0.035c4.334,0,8.747,0.113,13.012,0.219
			c4.265,0.104,8.677,0.217,13.021,0.217c3.125,0,5.928-0.061,8.573-0.174c0.749-0.035,1.506-0.053,2.28-0.069
			c4.656-0.104,9.47-0.218,12.898-3.647c2.446-2.445,2.359-6.762,2.281-10.566c-0.026-1.331-0.053-2.594,0.025-3.716
			c0.166,0,0.349,0.009,0.522,0.017c0.227,0.01,0.452,0.018,0.679,0.018c0.549,0,1.254-0.052,1.828-0.452
			c2.359-1.636,2.324-7.815,2.307-11.132C116.943,86.532,116.943,86.115,116.943,85.775z M78.908,114.906
			c-3.221-0.025-6.493-0.139-9.661-0.234c-3.647-0.113-7.416-0.235-11.124-0.244h-0.183c-1.062,0-2.124,0.018-3.177,0.035
			c-1.044,0.018-2.089,0.035-3.125,0.035c-2.829,0-6.171-0.105-9.522-0.906c-2.333-0.557-3.908-1.758-4.926-3.768
			c0.313,0.078,0.627,0.121,0.958,0.13c0.583,0,0.888-0.462,0.888-0.914c0-0.461-0.305-0.94-0.896-0.94
			c-0.548-0.008-0.992-0.174-1.384-0.521c-0.139-0.122-0.305-0.2-0.487-0.227c-0.218-0.783-0.392-1.602-0.575-2.445
			c-0.731-3.473-1.131-7.12-1.218-11.158c-0.061-2.689,0.043-5.423,0.148-8.061c0.113-2.854,0.226-5.805,0.13-8.721
			c-0.052-1.784-0.148-3.577-0.235-5.387c-0.079-1.593-0.157-3.194-0.218-4.796c0.131,0.078,0.261,0.157,0.4,0.226
			c0.139,0.07,0.279,0.104,0.427,0.104c0.435,0,0.844-0.339,0.949-0.783c0.087-0.392-0.087-0.749-0.461-0.931
			c-0.496-0.244-0.975-0.514-1.384-0.705c-0.035-1.68-0.035-3.107,0.008-4.439c1.349,1.34,3.751,2.02,7.146,2.02
			c0.435,0,0.844-0.009,1.227-0.026c3.438-0.139,6.293-0.2,8.991-0.2c2.968,0,5.692,0.078,8.33,0.244
			c2.315,0.148,4.804,0.218,7.633,0.218c3.021,0,6.093-0.079,9.06-0.157c2.969-0.078,6.041-0.157,9.053-0.157
			c1.166,0,2.342,0.009,3.508,0.043c3.289,0.079,6.188,0.2,8.859,0.383c0.496,0.035,1.02,0.061,1.55,0.079
			c2.898,0.13,6.188,0.287,8.391,2.063c2.837,2.289,2.646,6.702,2.48,10.601c-0.026,0.697-0.062,1.375-0.069,2.028l-0.697-0.009
			c-1.861,0-3.768,0.096-5.604,0.183c-1.497,0.069-2.994,0.148-4.482,0.175c-3.36,0.061-6.015,0.104-8.364,2.924
			c-2.42,2.916-3.533,7.225-2.794,10.732c0.54,2.532,1.993,4.455,4.212,5.553c3.238,1.602,6.955,1.731,10.488,1.731h1.027
			l1.463-0.017v0.068c0,0.593,0.469,0.906,0.931,0.906s0.931-0.313,0.931-0.906v-0.104l2.237-0.035
			c-0.147,1.549-0.2,3.125-0.243,4.639c-0.044,1.41-0.096,2.873-0.218,4.309c-0.436,5.057-3.96,6.38-9.112,6.807
			c-4.883,0.409-10.262,0.601-16.93,0.601C81.798,114.933,80.353,114.924,78.908,114.906z M73.024,35.111
			c1.688,0,2.785,1.767,3.751,3.333l0.061,0.096c-9.834,5.814-19.713,11.916-29.27,17.825l-0.087,0.096
			c-2.037-0.061-4.082-0.139-6.119-0.244c-0.305-0.017-1.767-0.096-3.16-0.348c7.042-4.334,13.291-8.138,19.096-11.628
			c3.386-2.037,6.78-4.065,10.183-6.075c0.444-0.261,0.949-0.627,1.488-1.01c1.175-0.844,2.507-1.793,3.568-1.993
			C72.711,35.128,72.868,35.111,73.024,35.111z M104.141,53.946c0.018,0.174,0.061,0.348,0.104,0.522
			c0.035,0.157,0.078,0.322,0.096,0.487c0.062,0.488,0.078,1.019,0.053,1.584c-0.053-0.009-0.113-0.009-0.156-0.009
			c-0.078,0-0.148,0.009-0.201,0.035c-0.348-0.574-1.723-2.794-1.723-2.794C103.061,53.78,103.652,53.833,104.141,53.946z
			 M108.23,57.558c-0.096,0.723-0.191,1.471-0.209,2.22c-0.018,0.644,0.018,1.279,0.053,1.906c0.018,0.27,0.025,0.548,0.043,0.818
			c-0.461-0.261-0.975-0.496-1.462-0.67c0.009-0.278,0.044-0.609,0.079-0.975c0.121-1.245,0.27-2.785-0.531-3.638
			c0.096-0.896,0.087-1.723-0.026-2.637c-0.087-0.679-0.2-1.619-0.767-2.124c-0.479-0.427-1.227-0.47-1.827-0.505l-0.209-0.018
			c-0.522-0.035-1.044-0.052-1.566-0.052c-0.235,0-0.479,0-0.575,0.087l-1.783-2.898c4.134,0.035,8.694,0.191,9.008,5.457
			C108.483,55.547,108.353,56.565,108.23,57.558z M64.381,56.679c1.984-1.062,4.248-2.289,6.423-3.595
			c0.783-0.47,1.549-0.958,2.315-1.445c0.644-0.409,1.279-0.818,1.932-1.218c0.331-0.2,0.575-0.366,0.757-0.488
			c0.331-0.217,0.452-0.296,0.565-0.296c0.104,0,0.262,0.061,0.505,0.157l0.81,0.296c2.193,0.775,3.777,1.332,5.432,1.332
			c1.218,0,2.454-0.313,3.881-0.992c1.323,2.202,2.925,4.178,4.596,6.163l-3.604-0.009c-4.072,0-8.146,0.017-12.22,0.043
			c-3.751,0.026-7.494,0.043-11.245,0.043h-0.148V56.679z M42.604,58.124c3.926,0.183,8.095,0.305,13.143,0.366
			c2.916,0.035,5.84,0.052,8.756,0.052c4.143,0,8.277-0.026,12.412-0.052l5.753-0.035c2.315-0.009,4.631-0.017,6.954-0.017
			c2.133,0,4.274,0.008,6.406,0.026c2.089,0.018,4.187,0.052,6.275,0.104c2.472,0.061,2.532,0.67,2.489,2.759
			c-3.09-0.696-6.493-0.757-9.783-0.81c-0.992-0.018-1.967-0.035-2.906-0.061c-3.238-0.113-6.128-0.174-8.853-0.174
			c-1.384,0-2.768,0.017-4.143,0.043c-1.653,0.035-3.308,0.052-4.961,0.052c-3.473,0-7.006-0.07-10.418-0.14
			c-3.412-0.069-6.937-0.139-10.41-0.139c-1.044,0-2.08,0.009-3.125,0.018c-0.992,0.017-2.159,0.122-3.395,0.235
			c-1.549,0.139-3.15,0.287-4.726,0.287c-2.35,0-4.099-0.348-5.335-1.062c-1.027-0.592-1.714-1.401-2.037-2.394
			c1.506,0.844,3.673,0.922,5.788,0.922h0.853C41.813,58.106,42.23,58.106,42.604,58.124z M109.354,96.742c-0.009,0-0.018,0-0.025,0
			c-0.767,0.018-1.629,0.061-2.551,0.104c-1.35,0.07-2.881,0.148-4.412,0.148c-4.092,0-9.74-0.496-11.646-4.795
			c-0.888-2.002-0.853-4.178,0.104-6.867c1.349-3.778,3.708-5.598,7.415-5.728c1.28-0.044,2.577-0.113,3.883-0.175
			c2.324-0.113,4.734-0.234,7.067-0.234c0.861,0,1.724,0.018,2.55,0.053c4.057,0.913,3.577,6.283,3.256,9.834l-0.07,0.836
			l-0.043,0.636c-0.148,2.106-0.365,5.292-2.473,6.118c-0.252,0.105-0.617,0.148-1.113,0.148c-0.349,0-0.705-0.026-1.045-0.043
			C109.954,96.76,109.676,96.742,109.354,96.742z M86.846,34.632l0.026,0.148c1.976,0.087,4.03,3.794,5.388,6.249
			c0.348,0.635,0.661,1.184,0.904,1.575c2.751,4.317,5.588,8.861,8.652,13.892c-0.348,0.017-0.688,0.043-1.01,0.061
			c-0.566,0.044-1.079,0.079-1.559,0.079c-0.008,0-0.008,0-0.018,0c-1.174-0.018-2.35-0.026-3.524-0.026l-1.662,0.07l-0.157,0.026
			l0.07-0.183l-0.618-0.731c-1.933-2.28-3.761-4.439-5.196-7.033c-0.156-0.278-0.461-0.453-0.801-0.453
			c-0.165,0-0.322,0.043-0.461,0.113c-1.566,0.853-3.168,1.297-4.631,1.297c-1.924,0-3.542-0.749-4.813-2.237
			c-0.148-0.174-0.4-0.279-0.68-0.279c-0.174,0-0.339,0.043-0.47,0.131c-4.421,3.002-9.322,5.892-15.423,9.095
			c-0.131,0.07-0.235,0.157-0.191,0.209h-0.853c-2.48-0.009-4.97-0.018-7.451-0.07l-1.558-0.043
			c9.974-6.145,19.261-11.768,28.374-17.19l3.873-2.298c0.278-0.165,0.653-0.435,1.062-0.74c0.879-0.644,2.09-1.532,2.707-1.532
			L86.846,34.632L86.846,34.632z M39.367,49.559c1.566-0.435,3.29-0.487,4.604-0.487c0.575,0,1.149,0.008,1.723,0.026l-2.872,1.75
			L41.7,51.561c-1.019,0.026-4.161,0.426-6.319,1.271C36.312,51.23,37.809,49.994,39.367,49.559z M35.625,54.52
			c0.104-0.252,0.601-0.688,2.724-0.931l-2.472,1.515C35.546,54.851,35.572,54.651,35.625,54.52z"/>
		<path fill="#FFFFFF" d="M100.363,82.859c-0.113-0.087-0.236-0.139-0.357-0.156c-0.078-0.026-0.156-0.044-0.279-0.044
			c-0.025,0-0.061,0-0.104,0c-0.252-0.034-0.514-0.044-0.766-0.044c-2.742,0-5.102,1.663-5.875,4.135
			c-0.984,3.125,0.365,6.031,3.271,7.059c0.68,0.244,1.367,0.365,2.037,0.365c2.359,0,4.334-1.479,5.301-3.96
			c0.617-1.601,0.645-3.134,0.061-4.438C103.069,84.47,101.92,83.451,100.363,82.859z M98.291,92.32
			c-0.487,0-1.001-0.096-1.523-0.287c-1.688-0.609-2.523-2.02-2.211-3.76c0.332-1.889,2.02-3.838,4.274-3.838
			c0.226,0,0.461,0.017,0.67,0.052c1.228,0.409,2.089,1.148,2.48,2.141c0.409,1.027,0.287,2.263-0.356,3.481
			C100.867,91.537,99.684,92.32,98.291,92.32z"/>
		<path fill="#FFFFFF" d="M43.501,66.218c-0.017-0.409-0.278-0.844-0.905-0.844l-2.916,0.183c-0.601,0.035-0.905,0.531-0.888,1.009
			c0.018,0.409,0.278,0.853,0.844,0.853l2.985-0.183C43.214,67.184,43.51,66.688,43.501,66.218z"/>
		<path fill="#FFFFFF" d="M51.839,66.062c-0.018-0.479-0.348-0.81-0.896-0.81l-3.438,0.305c-0.601,0.052-0.905,0.574-0.879,1.044
			c0.017,0.479,0.357,0.818,0.818,0.818l3.525-0.313C51.561,67.054,51.866,66.531,51.839,66.062z"/>
		<path fill="#FFFFFF" d="M59.055,66.514c0.009-0.461-0.305-0.94-0.896-0.957c-0.296-0.009-0.583-0.009-0.879-0.009
			c-0.453,0-0.914,0.009-1.367,0.026c-0.601,0.018-0.905,0.505-0.896,0.975c0.009,0.426,0.279,0.879,0.871,0.879h0.043
			c0.453-0.018,0.905-0.026,1.358-0.026c0.287,0,0.896,0.008,0.896,0.008C58.741,67.41,59.046,66.958,59.055,66.514z"/>
		<path fill="#FFFFFF" d="M67.506,66.401c-0.008-0.418-0.278-0.862-0.905-0.862l0,0c-0.896,0.043-1.802,0.07-2.698,0.07h-0.209
			c-0.592,0-0.896,0.461-0.896,0.922s0.305,0.931,0.905,0.931h0.209c0.905,0,1.81-0.026,2.715-0.069
			C67.219,67.367,67.523,66.871,67.506,66.401z"/>
		<path fill="#FFFFFF" d="M75.618,66.723c0.026-0.47-0.279-0.992-0.879-1.044c-0.94-0.087-1.889-0.13-2.829-0.13h-0.27
			c-0.592,0.009-0.905,0.479-0.896,0.94c0,0.453,0.313,0.914,0.905,0.914h0.27c0.931,0,1.871,0.043,2.803,0.13l0.096,0.009
			C75.348,67.532,75.601,67.132,75.618,66.723z"/>
		<path fill="#FFFFFF" d="M82.868,67.462h0.044c0.582,0,0.861-0.461,0.861-0.879c0.009-0.47-0.296-0.958-0.896-0.975
			c-0.296-0.009-0.592-0.035-0.879-0.07c-0.375-0.035-0.749-0.07-1.123-0.07s-0.705,0.035-1.019,0.113
			c-0.461,0.113-0.722,0.487-0.661,0.958c0.053,0.426,0.383,0.862,0.914,0.862c0.078,0,0.156-0.009,0.234-0.026
			c0.201-0.043,0.418-0.07,0.662-0.07c0.33,0,0.67,0.044,1.01,0.079C82.303,67.419,82.59,67.454,82.868,67.462z"/>
		<path fill="#FFFFFF" d="M87.524,67.228c0.531,0.018,1.062,0.026,1.602,0.026c0.818,0,1.637-0.018,2.454-0.052
			c0.602-0.026,0.906-0.514,0.896-0.984c-0.008-0.417-0.277-0.87-0.904-0.87l0,0c-0.818,0.035-1.628,0.052-2.446,0.052
			c-0.53,0-1.062-0.009-1.618-0.026c-0.592,0-0.871,0.461-0.88,0.896C86.619,66.731,86.933,67.21,87.524,67.228z"/>
		<path fill="#FFFFFF" d="M96.629,67.21L96.629,67.21c0.305-0.008,0.609-0.017,0.922-0.017c0.723,0,1.463,0.035,2.193,0.104
			l0.105,0.008c0.53,0,0.783-0.409,0.809-0.809c0.026-0.47-0.278-0.992-0.879-1.053c-0.74-0.07-1.488-0.113-2.229-0.113
			c-0.313,0-0.617,0.009-0.931,0.018c-0.601,0.026-0.905,0.514-0.896,0.983C95.732,66.758,96.002,67.21,96.629,67.21z"/>
		<path fill="#FFFFFF" d="M104.627,69.874c0.166,0.296,0.436,0.461,0.749,0.461c0.339,0,0.679-0.191,0.862-0.496
			c0.164-0.279,0.164-0.601,0-0.896c-0.428-0.784-0.976-1.515-1.611-2.167c-0.174-0.183-0.391-0.278-0.626-0.278
			c-0.366,0-0.731,0.252-0.88,0.618c-0.139,0.34-0.068,0.705,0.191,0.975C103.826,68.611,104.254,69.203,104.627,69.874z"/>
		<path fill="#FFFFFF" d="M105.585,72.859c-0.261,0-0.505,0.096-0.671,0.27c-0.156,0.165-0.234,0.383-0.226,0.635l0.113,2.628
			c0.026,0.583,0.505,0.896,0.957,0.896c0.261,0,0.505-0.096,0.671-0.27c0.156-0.166,0.234-0.383,0.226-0.636l-0.112-2.628
			C106.525,73.164,106.047,72.859,105.585,72.859z"/>
		<path fill="#FFFFFF" d="M45.468,109.311l-2.237-0.113c-0.566,0-0.835,0.443-0.853,0.861c-0.009,0.471,0.287,0.967,0.896,1.001
			l2.28,0.122c0.566,0,0.844-0.444,0.853-0.861C46.417,109.841,46.112,109.345,45.468,109.311z"/>
		<path fill="#FFFFFF" d="M53.989,109.24l-4.073-0.139c-0.583,0-0.862,0.461-0.871,0.887c-0.009,0.471,0.296,0.949,0.896,0.976
			l4.073,0.14c0.583,0,0.862-0.462,0.871-0.889C54.895,109.745,54.59,109.258,53.989,109.24z"/>
		<path fill="#FFFFFF" d="M62.58,109.102c-0.008,0-0.017,0-0.017,0c-0.618,0.069-1.253,0.113-1.872,0.113
			c-0.513,0-1.018-0.026-1.636-0.078c-0.531,0-0.783,0.408-0.81,0.809c-0.026,0.471,0.279,0.992,0.879,1.053
			c0.522,0.053,1.044,0.079,1.566,0.079l0,0c0.636,0,1.271-0.035,1.906-0.113c0.601-0.069,0.896-0.609,0.871-1.079
			C63.441,109.414,63.128,109.102,62.58,109.102z"/>
		<path fill="#FFFFFF" d="M70.248,108.996l-2.524,0.096c-0.601,0.027-0.905,0.514-0.896,0.984c0.009,0.426,0.278,0.879,0.862,0.879
			l2.567-0.096c0.601-0.026,0.905-0.514,0.896-0.983C71.144,109.449,70.875,108.996,70.248,108.996z"/>
		<path fill="#FFFFFF" d="M78.742,109.293h-2.828c-0.592,0-0.905,0.47-0.905,0.932c0,0.461,0.313,0.931,0.905,0.931h2.828
			c0.592,0,0.896-0.47,0.896-0.931C79.648,109.763,79.334,109.293,78.742,109.293z"/>
		<path fill="#FFFFFF" d="M86.707,109.102c-0.07,0-0.148,0.008-0.227,0.025c-0.783,0.174-1.61,0.27-2.455,0.27
			c-0.443,0-0.887-0.025-1.436-0.078c-0.522,0-0.775,0.4-0.792,0.793c-0.026,0.47,0.27,1,0.879,1.07
			c0.452,0.052,0.905,0.069,1.358,0.069c0.975,0,1.967-0.113,2.933-0.331c0.461-0.104,0.722-0.47,0.67-0.939
			C87.586,109.554,87.246,109.102,86.707,109.102z"/>
		<path fill="#FFFFFF" d="M93.982,109.232h-0.008c-0.191,0.017-0.375,0.025-0.566,0.025c-0.443,0-0.879-0.035-1.322-0.078
			c-0.453-0.035-0.896-0.078-1.35-0.078c-0.191,0-0.392,0.008-0.592,0.025c-0.601,0.053-0.905,0.574-0.879,1.045
			c0.018,0.4,0.278,0.81,0.896,0.81h0.008c0.192-0.018,0.375-0.026,0.558-0.026c0.444,0,0.88,0.035,1.323,0.078
			c0.452,0.035,0.896,0.078,1.35,0.078c0.199,0,0.391-0.008,0.592-0.025c0.6-0.053,0.904-0.574,0.879-1.045
			C94.861,109.641,94.609,109.232,93.982,109.232z"/>
		<path fill="#FFFFFF" d="M100.432,110.659h0.01l0.156,0.147c0.583,0,0.861-0.461,0.871-0.887c0.008-0.471-0.297-0.949-1.027-0.976
			c-0.496,0-0.975,0.087-1.445,0.175c-0.453,0.086-0.922,0.165-1.393,0.165v0.147h-0.009l-0.157-0.147
			c-0.582,0-0.861,0.461-0.869,0.888c-0.01,0.47,0.295,0.949,0.896,0.975h0.13c0.496,0,0.983-0.087,1.444-0.174
			c0.453-0.088,0.924-0.166,1.393-0.166V110.659z"/>
		<path fill="#FFFFFF" d="M103.426,110.276h0.079c1.341-0.104,2.437-0.774,3.099-1.906c0.174-0.296,0.183-0.609,0.018-0.888
			c-0.174-0.296-0.522-0.505-0.871-0.505c-0.313,0-0.583,0.157-0.757,0.452c-0.349,0.584-0.88,0.932-1.515,0.984
			c-0.601,0.043-0.905,0.548-0.888,1.026C102.617,109.937,102.957,110.276,103.426,110.276z"/>
		<path fill="#FFFFFF" d="M106.012,104.958c0.452,0,0.948-0.304,1.01-0.879l0.234-2.114c0.026-0.253-0.035-0.471-0.183-0.637
			c-0.157-0.174-0.392-0.27-0.661-0.27c-0.453,0-0.949,0.305-1.01,0.879l-0.235,2.115c-0.026,0.253,0.035,0.471,0.183,0.636
			C105.506,104.862,105.75,104.958,106.012,104.958z"/>
		<path fill="#FFFFFF" d="M111.773,83.155c0.296,0.565,0.365,1.263,0.436,1.933c0.034,0.34,0.068,0.679,0.13,0.992
			c0.079,0.418,0.392,0.679,0.81,0.679c0.305,0,0.609-0.14,0.792-0.374c0.175-0.218,0.243-0.496,0.191-0.783
			c-0.062-0.331-0.104-0.662-0.147-1.002c-0.131-1.044-0.27-2.123-1.019-2.984c-0.966-1.105-2.376-1.245-3.508-1.245
			c-0.243,0-0.487,0.009-0.731,0.018c-0.6,0.026-0.904,0.522-0.896,0.992c0.01,0.418,0.279,0.87,0.854,0.87l0.165-0.008
			c0.235-0.01,0.487-0.027,0.749-0.027C110.389,82.225,111.347,82.328,111.773,83.155z"/>
		<path fill="#FFFFFF" d="M112.861,87.925c-0.461,0-0.932,0.313-0.932,0.983c0,0.592,0.471,0.905,0.932,0.905
			c0.244,0,0.461-0.078,0.635-0.226c0.191-0.166,0.297-0.4,0.297-0.758C113.793,88.238,113.322,87.925,112.861,87.925z"/>
		<path fill="#FFFFFF" d="M79.805,43.231c-0.184-0.278-0.453-0.427-0.766-0.427c-0.366,0-0.715,0.209-0.889,0.514
			c-0.147,0.27-0.131,0.583,0.053,0.862c0.74,1.131,1.462,2.28,2.176,3.429c0.174,0.278,0.443,0.435,0.758,0.435
			c0.356,0,0.705-0.2,0.879-0.505c0.156-0.278,0.139-0.583-0.035-0.879C81.267,45.521,80.545,44.372,79.805,43.231z"/>
		<path fill="#FFFFFF" d="M83.077,40.055c-0.366,0-0.731,0.113-1.079,0.348l0.087,0.13l0,0h-0.261
			c-1.045,0.905-1.098,2.141-0.131,3.586c0.539,0.81,1.393,1.889,2.533,1.889c0.313,0,0.635-0.087,0.948-0.252
			c0.54-0.287,0.888-0.696,1.026-1.227c0.201-0.723,0-1.636-0.53-2.516C85.314,41.421,84.356,40.055,83.077,40.055z M83.033,42.735
			c-0.252-0.514-0.252-0.54-0.043-0.74c0.043-0.026,0.087-0.035,0.139-0.035c0.349,0,0.74,0.653,0.975,1.036
			c0.14,0.235,0.287,0.479,0.34,0.731c0.026,0.148,0.018,0.261-0.183,0.383c-0.087,0-0.191-0.043-0.287-0.113
			C83.6,43.719,83.234,43.145,83.033,42.735z"/>
		<path fill="#FFFFFF" d="M86.08,38.122c-1.045,0.905-1.097,2.142-0.131,3.578c0.539,0.809,1.393,1.889,2.533,1.889
			c0.313,0,0.635-0.087,0.948-0.252c0.54-0.287,0.888-0.696,1.027-1.228c0.2-0.722,0-1.636-0.531-2.515
			c-0.356-0.583-1.323-1.95-2.594-1.95c-0.365,0-0.731,0.113-1.079,0.348L86.08,38.122z M87.237,39.567
			c0.044-0.026,0.087-0.035,0.131-0.035c0.349,0,0.749,0.653,0.975,1.027c0.147,0.235,0.296,0.479,0.339,0.731
			c0.027,0.148,0.01,0.261-0.182,0.383c-0.088,0-0.184-0.043-0.287-0.113c-0.375-0.27-0.74-0.853-0.94-1.262
			C87.028,39.793,87.028,39.776,87.237,39.567z"/>
	</g>
</g>
</svg>
